<?xml version="1.0" encoding="utf-8"?>
<!-- Generator: Adobe Illustrator 26.4.1, SVG Export Plug-In . SVG Version: 6.00 Build 0)  -->
<svg version="1.1" id="Layer_1" xmlns="http://www.w3.org/2000/svg" xmlns:xlink="http://www.w3.org/1999/xlink" x="0px" y="0px"
	 viewBox="0 0 2000 2400" style="enable-background:new 0 0 2000 2400;" xml:space="preserve">
<style type="text/css">
	.st0{fill:#103766;}
	.st1{fill:#FBBB2E;}
	.st2{fill:#E3000B;}
	.st3{fill:#EEEDEC;}
	.st4{fill:#F9B119;}
	.st5{fill:#B1B2B3;}
	.st6{fill:#FBCEA3;}
	.st7{fill:#F07162;}
	.st8{fill:#335174;}
	.st9{fill:#2C4A68;}
	.st10{fill:#33182C;}
	.st11{fill:#EA5942;}
	.st12{fill:#FFFFFF;}
	.st13{fill:#374169;}
	.st14{fill:#072738;}
	.st15{fill:#94C12D;}
	.st16{fill:#1D1D1B;}
</style>
<g>
	<g>
		<g>
			<polygon class="st0" points="889.4,1369.5 730.4,810.7 738.5,805.7 897.6,1364.5 			"/>
		</g>
	</g>
	<g>
		<g>
			<polygon class="st0" points="910.5,1343.7 767.8,809.8 776.5,806.6 919.1,1340.6 			"/>
		</g>
	</g>
	<g>
		<g>
			<polygon class="st0" points="949,1342.6 939.3,1341.7 816.6,807.8 826.2,808.6 			"/>
		</g>
	</g>
	<g>
		<g>
			<polygon class="st0" points="977.6,1344.1 967.3,1340.2 860.2,806.2 870.5,810.2 			"/>
		</g>
	</g>
	<g>
		<g>
			<polygon class="st0" points="1113.5,1369.5 1272.6,810.7 1264.4,805.7 1105.4,1364.5 			"/>
		</g>
	</g>
	<g>
		<g>
			<polygon class="st0" points="1092.4,1343.7 1235.1,809.8 1226.5,806.6 1083.8,1340.6 			"/>
		</g>
	</g>
	<g>
		<g>
			<polygon class="st0" points="1054,1342.6 1063.6,1341.7 1186.4,807.8 1176.8,808.6 			"/>
		</g>
	</g>
	<g>
		<g>
			<polygon class="st0" points="1025.4,1344.1 1035.7,1340.2 1142.7,806.2 1132.4,810.2 			"/>
		</g>
	</g>
	<g>
		<path class="st1" d="M1162,1351.9c-1.4-6.3-6.2-10.7-11.8-10.7H1028h-15.3h-107c-5.6,0-10.4,4.4-11.8,10.7l-39.3,183.3l23.5,6.9
			l37-172.6h97.5h15.3h112.8l37,172.6l23.5-6.9L1162,1351.9z"/>
	</g>
	<g>
		<g>
			<path class="st2" d="M783.4,759.4l-92-16.1l-85-14.9c-6.1-6.2-12.1-12.4-18-18.7l0,0C349.4,460.7,198.2,217.2,121.3,0H393
				l-9.7,139.2l384.2,595.6L783.4,759.4z"/>
		</g>
		<g>
			<path class="st3" d="M808.6,765.6l-101.1-6.3c-5.4-5.3-10.8-10.6-16.1-16.1c-6.5-6.6-12.9-13.3-19.2-20.1
				C474.6,510.4,335.7,189.3,268.6,0h457.8l40.6,411.9l38.4,326.3L808.6,765.6z"/>
		</g>
		<g>
			<path class="st2" d="M939.5,765.6H808.6c-6.3-7.7-13.3-17.4-20.9-28.9C703.1,608.4,545.2,258.6,467.4,0h431.9l39.1,745.5
				L939.5,765.6z"/>
		</g>
		<g>
			<path class="st2" d="M1878.7,0c-76.8,217.2-228.1,460.7-466.9,709.8l0,0c-6,6.2-12,12.4-18,18.7l-85,14.9l-92,16.1l15.9-24.6
				l384.2-595.6L1607.1,0H1878.7z"/>
		</g>
		<g>
			<path class="st3" d="M1731.5,0c-67.1,189.3-206.1,510.4-403.6,723.2c-6.4,6.8-12.7,13.6-19.2,20.1c-5.3,5.5-10.7,10.8-16.1,16.1
				l-101.1,6.3l3.2-27.4l38.4-326.3L1273.7,0H1731.5z"/>
		</g>
		<g>
			<path class="st2" d="M1532.6,0c-77.8,258.6-235.7,608.4-320.3,736.7c-7.6,11.5-14.6,21.2-20.9,28.9h-130.9l1-20.1L1100.7,0
				H1532.6z"/>
		</g>
		<g>
			<path class="st3" d="M1254.8,0c-36.4,271.3-157.7,653.8-187.6,745.4c-4.3,13.1-6.7,20.3-6.7,20.3H939.5c0,0-2.4-7.1-6.7-20.3
				C903,653.8,781.6,271.3,745.2,0H1254.8z"/>
		</g>
		<g>
			<path class="st4" d="M588.3,709.7l185.9,303.7c12.7,20.7,35.9,33.5,60.9,33.5H1000h164.9c25,0,48.2-12.7,60.9-33.5l185.9-303.7
				l0,0C1139.6,758.6,860.4,758.6,588.3,709.7L588.3,709.7z"/>
		</g>
	</g>
	<g>
		<g>
			<g>
				<g>
					<g>
						<g>
							<g>
								<path class="st5" d="M806.5,1306l-93.8-17.4l-32.1-86l-40.6-7c0,0,12.9,140.9,27.9,148.8c15,7.9,124.1,28.1,124.1,28.1
									L806.5,1306z"/>
							</g>
						</g>
					</g>
				</g>
			</g>
		</g>
		<g>
			<g>
				<g>
					<g>
						<path class="st6" d="M832.1,1241l1.6-8.6c1.6-8.8,8.6-15.7,17.5-17.1c15.3-2.3,30.3,7.6,30.3,7.6s4.2,9.7,4.6,10.8
							c0.4,1.1-6-3.5-6-3.5L832.1,1241z"/>
					</g>
				</g>
			</g>
		</g>
		<g>
			<g>
				<g>
					<g>
						<g>
							<g>
								<g>
									<path class="st6" d="M827.2,1267.8l6.7-36.3l49.1-5.4l-6.7,44.6l-2.5,11.4c0,0-1,23.9-3,28.5c-2,4.7-10.8,13.1-23.8,10.7
										c-4.1-0.8-7.6-2.1-10.4-3.6c-5.8-3.1-8.5-10-6.6-16.3l5.3-16.9C824.2,1280.7,827.2,1267.8,827.2,1267.8z"/>
								</g>
							</g>
						</g>
					</g>
				</g>
			</g>
		</g>
		<g>
			<g>
				<g>
					<g>
						<g>
							<g>
								<g>
									<path d="M896.6,1236.9c1.3,12.7-5.8,17.9-6.6,21.5c-0.8,3.6-2.8,28.2-19.4,23.3l2.8-40.8l8.8-14.8l-0.7-3.7
										C881.5,1222.3,895.4,1224.2,896.6,1236.9z"/>
								</g>
							</g>
						</g>
					</g>
				</g>
			</g>
		</g>
		<g>
			<g>
				<g>
					<g>
						<g>
							<g>
								<g>
									<path class="st6" d="M872.2,1267.9c-5.4-1-8.9-6.2-8-11.5c1-5.4,6.2-8.9,11.5-8c5.4,1,8.9,6.2,8,11.5
										C882.7,1265.4,877.6,1268.9,872.2,1267.9z"/>
								</g>
							</g>
						</g>
					</g>
				</g>
			</g>
		</g>
		<g>
			<g>
				<g>
					<g>
						<g>
							<g>
								<g>
									<path class="st7" d="M835.3,1284.4c0,0,17,6.8,28.4-6.2c0,0-4.8,21.6-32.3,18.7L835.3,1284.4z"/>
								</g>
							</g>
						</g>
					</g>
				</g>
			</g>
		</g>
		<g>
			<g>
				<g>
					<g>
						<g>
							<polygon class="st6" points="875.1,1266.4 873.6,1285 867.1,1284.4 870.5,1266 							"/>
						</g>
					</g>
				</g>
			</g>
		</g>
		<g>
			<g>
				<g>
					<g>
						<path d="M853,1204.9c11.7,6.4,35,10.1,39.4,22.9c4.4,12.8-19.1,13.7-19.1,13.7s-40.9-10.1-41.7-20.2c-0.8-10.2,9-8.6,9-8.6
							S841.3,1198.5,853,1204.9z"/>
					</g>
				</g>
			</g>
		</g>
		<g>
			<g>
				<g>
					<g>
						<path d="M866.3,1237.9c-4.6-3.6,10.3-3.7,10.7-3.4c0.4,0.3,7.9,6.1,6.9,5.7c-1.1-0.4-9.4-1.3-9.4-1.3l-1.6,8.9
							c0,0-4.4,4.6-4.5,11.5c0,0-2.7,0.5-2.8-1.7C865.6,1255.6,870.9,1241.5,866.3,1237.9z"/>
					</g>
				</g>
			</g>
		</g>
		<g>
			<g>
				<g>
					<g>
						<path class="st6" d="M1021.5,1590.1c-1.2,1.8-3.5,2.2-5.3,1.1v0c-1.8-1.2-2.2-3.5-1.1-5.3l11.2-22c0.8-1.2,3.5-1.7,5.8-1.6
							c21.8-6.2,24.3-10.5,30.3-11.7l0.9,4.7l4.1,22.7c1.2,6.9,3.6,13.5,7.1,19.5l0.9,1.5c1.1,1.9,0.4,4.4-1.6,5.4
							c-1.8,0.9-4.1,0.2-5.1-1.6l-6.4-11c-0.2-0.3-0.6-0.5-1-0.4c-0.6,0.1-0.9,0.7-0.7,1.3l7.3,17.3c0.8,2-0.2,4-2.3,4.4
							c-2.1,0.4-4.5-0.8-5.3-2.8l-7.4-17.7c-0.2-0.4-0.6-0.6-1-0.6l-0.3,0.1c-0.5,0.1-0.8,0.6-0.7,1.1l4.2,20.8
							c0.4,2-0.7,4.1-2.7,4.6c-2.2,0.6-4.3-0.8-4.8-2.9l-4.3-20.9c-0.1-0.5-0.6-0.8-1.1-0.7l-1,0.2c-0.5,0.1-0.8,0.5-0.7,1l1.4,19.8
							c0.1,2-1.3,3.9-3.3,4.2c-2.2,0.3-4.2-1.3-4.3-3.5c0,0-3.7-30.1-4.7-34.7L1021.5,1590.1z"/>
					</g>
				</g>
			</g>
		</g>
		<g>
			<g>
				<g>
					<g>
						<path class="st5" d="M973.1,1463c-7.7-8.8-34.1-41.3-34.1-41.3l20.5,156.7c0,0-86.2,31.1-173.5,7.4c0,0-6.4-146.3-9.8-242.7
							c-0.6-16.3-0.9-23.8,2.2-28.2c1.5-2.1,3.1-4.2,6.7-5c30.1-6,93-15.3,107.2-12.2c29.4,6.5,142.4,106.3,150,126.3
							c7.5,20.1,31,129.8,31,129.8s-9.8,10.5-59.2,13.9C1014,1567.7,980.7,1471.8,973.1,1463z"/>
					</g>
				</g>
			</g>
		</g>
		<g>
			<g>
				<g>
					<g>
						<polygon class="st8" points="743.3,1222.3 818.3,1246.2 822.9,1233.2 749.2,1205.4 						"/>
					</g>
				</g>
			</g>
			<g>
				<g>
					<g>
						<polygon class="st9" points="690,1209.6 765.4,1232.3 772.7,1211.2 699.5,1182.3 						"/>
					</g>
				</g>
			</g>
			<g>
				<g>
					<g>
						<polygon class="st8" points="586,1183.1 688.7,1213.2 700.7,1178.7 601.5,1138.5 						"/>
					</g>
				</g>
			</g>
			<g>
				<g>
					<g>
						
							<rect x="820.5" y="1231.9" transform="matrix(-0.9445 -0.3284 0.3284 -0.9445 1192.4181 2682.2134)" class="st9" width="4.4" height="17.1"/>
					</g>
				</g>
			</g>
			<g>
				<g>
					<g>
						
							<rect x="589.5" y="1131" transform="matrix(-0.9446 -0.3283 0.3283 -0.9446 769.6348 2450.176)" class="st9" width="4.4" height="58.2"/>
					</g>
				</g>
			</g>
		</g>
		<g>
			<g>
				<g>
					<g>
						<g>
							<g>
								<g>
									<path class="st6" d="M670.6,1171.7l2.7-11.8c0,0-1.2-2.4-3.5-2.8c-2.3-0.5-3.8,0.8-3.9,1.2l-2.7,11.9
										c-0.3,1.4,0.9,3,2.8,3.5C668.1,1174.2,670.2,1173.3,670.6,1171.7z"/>
								</g>
							</g>
						</g>
					</g>
				</g>
			</g>
			<g>
				<g>
					<g>
						<g>
							<g>
								<g>
									<path class="st6" d="M662.8,1170.7l3.3-13.1c0,0-0.7-1.5-3-2c-2.3-0.5-4.4,0.3-4.5,0.7l-3.2,12.8c-0.4,1.4,0.8,3,2.8,3.5
										C660.2,1173.1,662.4,1172.3,662.8,1170.7z"/>
								</g>
							</g>
						</g>
					</g>
				</g>
			</g>
			<g>
				<g>
					<g>
						<g>
							<g>
								<g>
									<path class="st6" d="M654.9,1169.4l3.3-12.1c0,0-0.6-1.4-2.8-1.9c-2.2-0.5-4.1,0.2-4.2,0.6l-3.2,11.8
										c-0.4,1.3,0.7,2.8,2.5,3.3C652.5,1171.6,654.5,1170.8,654.9,1169.4z"/>
								</g>
							</g>
						</g>
					</g>
				</g>
			</g>
			<g>
				<g>
					<g>
						<g>
							<g>
								<g>
									<path class="st6" d="M677.5,1174.6l2.9-11.9c0.3-1.3-1.4-2.9-2.7-3.2c-2.3-0.5-4.4,0.3-4.5,0.7l-3.1,12.8
										c-0.3,1.4,0.8,3,2.7,3.5C674.9,1177,677.1,1176.1,677.5,1174.6z"/>
								</g>
							</g>
						</g>
					</g>
				</g>
			</g>
		</g>
		<g>
			<path class="st6" d="M832,1298.7l-0.2,5.7l6.6,11.4c0,0,5.2,0.7,5.4,0.6c0.3-0.1,6.8-2.8,6.8-2.8l13.4-7.5l7.4-8.5l3-8.1
				l-2.2-1.3l-23.8,9.7L832,1298.7z"/>
		</g>
	</g>
	<g>
		<g>
			<g>
				<g>
					<g>
						<g>
							<g>
								<path class="st6" d="M1369,1531.2c0.1-10.1-25.6-54.6-36-74c-16.1,14-39.4,25.4-49.9,29.3c10.3,16.4,22,37.7,26.9,45.4
									c5.1,7.9-14.8,70.5-21.9,82.5l25.3,29.3C1330.9,1627.7,1368.5,1566.2,1369,1531.2z"/>
							</g>
						</g>
					</g>
				</g>
			</g>
		</g>
		<g>
			<g>
				<g>
					<polygon class="st6" points="1017.9,1203.1 1056.7,1292.1 1106.9,1344.7 1078.2,1398 1016.6,1315.6 982.8,1216 					"/>
				</g>
			</g>
		</g>
		<g>
			<g>
				<g>
					<g>
						<g>
							<g>
								<g>
									<path class="st6" d="M1016.7,1206c2.3-0.9,0.9,3.3,1.1,1.8l1-39.8c0.4-2.2-1-4.4-3.2-4.8c-2.2-0.4-4.4,1-4.8,3.2l-4.4,11
										c-2.9-4.2-18.8-32.3-18.8-32.3c-1-2.1-3.7-2.9-5.7-1.7c-1.9,1.1-2.5,3.5-1.5,5.5l9.4,18.9c0.1,0.3,0.1,0.6,0,0.9l0,0l0,0
										c-0.1,0.2-0.2,0.3-0.3,0.4l-0.9,0.6c-0.2,0.2-0.5,0.2-0.7,0.2c-4.1,2.7-9.3,6.3-13.7,9c-3.2,1.9-6.5,2.5-6.8,6.1
										c-0.2,2.1,4.1,10.2,5.9,13l11.2,20.9C989.9,1215.3,997.7,1221,1016.7,1206z"/>
								</g>
							</g>
						</g>
					</g>
				</g>
			</g>
			<g>
				<g>
					<g>
						<g>
							<g>
								<g>
									<path class="st6" d="M982.3,1166.9c-2.1,1.8-2.5,4.6-2.1,5.1l13.5,16c1.5,1.8,4.2,2.2,6.1,0.8c2.1-1.5,2.4-4.5,0.8-6.4
										l-13.9-16.4C986.7,1166,984.4,1165.2,982.3,1166.9z"/>
								</g>
							</g>
						</g>
					</g>
				</g>
			</g>
			<g>
				<g>
					<g>
						<g>
							<g>
								<g>
									<path class="st6" d="M975.7,1172.6c-2.1,1.7-2.6,4.5-2.2,5l13.2,16.3c1.5,1.8,4.2,2.3,6.1,0.9c2.1-1.5,2.5-4.4,0.9-6.4
										l-13.6-16.7C980.1,1171.8,977.8,1170.9,975.7,1172.6z"/>
								</g>
							</g>
						</g>
					</g>
				</g>
			</g>
			<g>
				<g>
					<g>
						<g>
							<g>
								<g>
									<path class="st6" d="M970,1178.5c-2,1.6-2.5,4.2-2.1,4.7l12.2,15.3c1.4,1.7,3.9,2.2,5.7,0.9c2-1.4,2.4-4.1,0.9-6
										l-12.5-15.7C974.1,1177.8,972,1176.9,970,1178.5z"/>
								</g>
							</g>
						</g>
					</g>
				</g>
			</g>
		</g>
		<g>
			<g>
				<g>
					<path class="st2" d="M1058.3,1292.2c17.5,13.1,88.8,81.1,95.1,83.4c0.5,0.2,1.4,0.3,2.5,0.5l-39.7,81.2
						c-2.1,0-37.3-47.3-99.6-136.4C1032.1,1295.8,1041.3,1290.2,1058.3,1292.2z"/>
				</g>
			</g>
		</g>
		<g>
			<g>
				<g>
					<g>
						<g>
							<g>
								<g>
									<path class="st10" d="M1166.8,1285.8c0,0-5.4-17.2,14.9-28.8c20.2-11.6,20.7,12,27.7,15c7,3,20.4,1.9,23.7,15.9
										c3.3,14.1-0.6,23.7,6.8,26.7c7.4,3,30.2,25.3,20.7,49.9c-9.4,24.6-34,20.3-34,20.3s-97.5-7.3-101.1-33.3
										c-3.6-26,7.1-35.8,20.4-42.9C1154,1304.4,1169.8,1301.8,1166.8,1285.8z"/>
								</g>
							</g>
						</g>
					</g>
				</g>
			</g>
		</g>
		<g>
			<g>
				<g>
					<g>
						<g>
							<g>
								<g>
									<g>
										<path class="st6" d="M1175.9,1294.9c0,0-12.3,33.6-8,42.4c0,0,2,4.7,8.8,6.2l-4.4,21.7l30.6,6.3l14.6-71.1L1175.9,1294.9z
											"/>
									</g>
								</g>
							</g>
						</g>
					</g>
				</g>
			</g>
		</g>
		<g>
			<g>
				<g>
					<g>
						<g>
							<g>
								<g>
									<g>
										<path class="st7" d="M1174.9,1352.3l1.8-8.8c0,0,15,1.4,25-2.9C1201.7,1340.6,1187,1350.6,1174.9,1352.3z"/>
									</g>
								</g>
							</g>
						</g>
					</g>
				</g>
			</g>
		</g>
		<g>
			<g>
				<g>
					<g>
						<g>
							<g>
								<g>
									<g>
										<path class="st6" d="M1206.2,1324.3c-1,4.8,2.1,9.5,6.9,10.5c4.8,1,9.5-2.1,10.5-6.9c1-4.8-2.1-9.5-6.9-10.5
											C1211.8,1316.4,1207.1,1319.5,1206.2,1324.3z"/>
									</g>
								</g>
							</g>
						</g>
					</g>
				</g>
			</g>
		</g>
		<g>
			<g>
				<g>
					<g>
						<g>
							<g>
								<g>
									<path class="st6" d="M1175.9,1294.9c0,0,5.4-12.8,23.6-10.7c18.2,2.2,17.9,16.1,17.9,16.1l-21.3,0l-18.8-5.3L1175.9,1294.9
										z"/>
								</g>
							</g>
						</g>
					</g>
				</g>
			</g>
		</g>
		<g>
			<g>
				<g>
					<g>
						<g>
							<g>
								<g>
									<path class="st10" d="M1178.2,1283.6c0,0,8.9,13.2,23.9,13.7c0,0,1.2,18.6,11.8,20c10.6,1.3,9.9-24.3,9.9-24.3
										s-17.9-12-19.2-12.2c-1.2-0.3-21.7-5.7-21.7-5.7L1178.2,1283.6z"/>
								</g>
							</g>
						</g>
					</g>
				</g>
			</g>
		</g>
		<g>
			<g>
				<g>
					<g>
						<g>
							<g>
								<g>
									<g>
										<path class="st11" d="M1186.2,1318.4c0.4,0.1,0.6-0.6,0.1-0.7C1185.9,1317.6,1185.8,1318.3,1186.2,1318.4L1186.2,1318.4z"
											/>
									</g>
								</g>
							</g>
						</g>
					</g>
				</g>
			</g>
		</g>
		<g>
			<g>
				<g>
					<g>
						<g>
							<g>
								<g>
									<g>
										<path class="st11" d="M1188.1,1320.1c0.4,0.1,0.6-0.6,0.1-0.7C1187.8,1319.3,1187.6,1320,1188.1,1320.1L1188.1,1320.1z"/>
									</g>
								</g>
							</g>
						</g>
					</g>
				</g>
			</g>
		</g>
		<g>
			<g>
				<g>
					<g>
						<g>
							<g>
								<g>
									<g>
										<path class="st11" d="M1192.4,1318.4c0.4,0.1,0.6-0.6,0.1-0.7C1192.1,1317.6,1191.9,1318.3,1192.4,1318.4L1192.4,1318.4z"
											/>
									</g>
								</g>
							</g>
						</g>
					</g>
				</g>
			</g>
		</g>
		<g>
			<g>
				<g>
					<g>
						<g>
							<g>
								<g>
									<g>
										<path class="st11" d="M1195.1,1321.5c0.4,0.1,0.6-0.6,0.1-0.7C1194.8,1320.8,1194.7,1321.4,1195.1,1321.5L1195.1,1321.5z"
											/>
									</g>
								</g>
							</g>
						</g>
					</g>
				</g>
			</g>
		</g>
		<g>
			<g>
				<g>
					<g>
						<g>
							<g>
								<g>
									<g>
										<path class="st11" d="M1199.2,1318.9c0.4,0.1,0.6-0.6,0.1-0.7C1198.9,1318.1,1198.8,1318.8,1199.2,1318.9L1199.2,1318.9z"
											/>
									</g>
								</g>
							</g>
						</g>
					</g>
				</g>
			</g>
		</g>
		<g>
			<g>
				<g>
					<g>
						<g>
							<g>
								<g>
									<g>
										<path class="st11" d="M1199.5,1324.1c0.4,0.1,0.6-0.6,0.1-0.7C1199.2,1323.3,1199,1324,1199.5,1324.1L1199.5,1324.1z"/>
									</g>
								</g>
							</g>
						</g>
					</g>
				</g>
			</g>
		</g>
		<g>
			<g>
				<g>
					<g>
						<g>
							<g>
								<g>
									<g>
										<path class="st11" d="M1179.7,1315c0.4,0.1,0.6-0.6,0.1-0.7C1179.4,1314.2,1179.3,1314.9,1179.7,1315L1179.7,1315z"/>
									</g>
								</g>
							</g>
						</g>
					</g>
				</g>
			</g>
		</g>
		<g>
			<g>
				<g>
					<g>
						<g>
							<g>
								<g>
									<g>
										<path class="st11" d="M1173.7,1315.4c0.4,0.1,0.6-0.6,0.1-0.7C1173.4,1314.6,1173.3,1315.3,1173.7,1315.4L1173.7,1315.4z"
											/>
									</g>
								</g>
							</g>
						</g>
					</g>
				</g>
			</g>
		</g>
		<g>
			<g>
				<g>
					<g>
						<g>
							<g>
								<g>
									<g>
										<path class="st11" d="M1172.5,1320.2c0.4,0.1,0.6-0.6,0.1-0.7C1172.2,1319.4,1172.1,1320.1,1172.5,1320.2L1172.5,1320.2z"
											/>
									</g>
								</g>
							</g>
						</g>
					</g>
				</g>
			</g>
		</g>
		<g>
			<g>
				<g>
					<g>
						<g>
							<g>
								<g>
									<g>
										<path class="st11" d="M1170.8,1316.9c0.4,0.1,0.6-0.6,0.1-0.7C1170.5,1316.1,1170.3,1316.8,1170.8,1316.9L1170.8,1316.9z"
											/>
									</g>
								</g>
							</g>
						</g>
					</g>
				</g>
			</g>
		</g>
		<g>
			<g>
				<g>
					<g>
						<g>
							<g>
								<g>
									<g>
										<path class="st11" d="M1172.2,1312.7c0.4,0.1,0.6-0.6,0.1-0.7C1171.9,1311.9,1171.7,1312.6,1172.2,1312.7L1172.2,1312.7z"
											/>
									</g>
								</g>
							</g>
						</g>
					</g>
				</g>
			</g>
		</g>
		<g>
			<g>
				<g>
					<g>
						<g>
							<g>
								<g>
									<g>
										<path class="st11" d="M1190.1,1322.8c0.4,0.1,0.6-0.6,0.1-0.7C1189.8,1322,1189.7,1322.7,1190.1,1322.8L1190.1,1322.8z"/>
									</g>
								</g>
							</g>
						</g>
					</g>
				</g>
			</g>
		</g>
		<g>
			<g>
				<g>
					<g>
						<g>
							<g>
								<path class="st2" d="M1057.9,1781.6c-1.9,9.4,1.3,29.8,3.1,39.1c133.1,68.7,283.9-11.5,283.9-11.5
									c-8.9-64-27.5-137-52.1-194.2c-2.4-5.5-11-27.9-20.4-47.6c-8.2-17.3-17.3-32.3-18.4-34.9c-1.4-3.3-5-6-4.6-8.5
									c0.5-3.3,12.3-31.1,21.4-57l40,68.1c38.9-12.1,56.7-20.5,56.7-20.5c-30.3-55.3-70.5-116.8-91.8-137.5
									c-18.7-12.9-56.8-16.3-75.7-14.5c-23.7-0.4-43-1.1-62.6,2.4l0,0c-3.8,4.5-31.6,47.4-35.3,55.9c-5.6,12.3-3.6,28.4,3.2,39.8
									c4.7,2.9,5.3,60.9,6.2,65.1C1071.4,1600.4,1057,1697.7,1057.9,1781.6z"/>
							</g>
						</g>
					</g>
				</g>
			</g>
		</g>
		<g>
			<g>
				<g>
					<g>
						<g>
							<g>
								<path d="M1233.7,1526.6C1233.7,1526.6,1233.7,1526.6,1233.7,1526.6l15.6-1.6c0.4,0,0.7-0.4,0.6-0.8c0-0.4-0.4-0.7-0.8-0.6
									l-15.5,1.6c-0.4,0-0.7,0.4-0.6,0.8C1233,1526.4,1233.3,1526.6,1233.7,1526.6z"/>
							</g>
						</g>
					</g>
				</g>
			</g>
		</g>
		<g>
			<g>
				<g>
					<g>
						<g>
							<g>
								<g>
									<path class="st7" d="M1284,1613.6c0,0-6.9-2.1-13-5.5c-6.1-3.4-6.4,2-5.3,4.1c1.1,2.1,7.9,9.2,7.9,9.2L1284,1613.6z"/>
								</g>
							</g>
						</g>
					</g>
				</g>
			</g>
			<g>
				<g>
					<g>
						<g>
							<g>
								<g>
									<path class="st6" d="M1291.6,1607c-0.1,0.2-3.3,5.8-3.4,6c-10,1.4-21.6,3-24.4,3.4c-5.2,0.7-22,8.9-26.8,14.2
										c-8.6,9.6-2.5,9.3-2.5,9.3c-8,10.8,1.9,9,1.9,9c-8,9.1,1.6,9.2,1.6,9.2c-3.8,5.3-2.5,7.4-0.7,8.2c1.3,0.6,2.8,0.5,4-0.2
										c2.3-1.2,7.3-4,12.5-6.9l0,0c0,0,16.9-5.5,47.7-11.8l11.9-3.7L1291.6,1607z"/>
								</g>
							</g>
						</g>
					</g>
				</g>
			</g>
			<g>
				<g>
					<g>
						<g>
							<g>
								<g>
									<g>
										<g>
											<g>
												<g>
													<g>
														<g>
															<g>
																<g>
																	<path class="st7" d="M1248.1,1649.8c0.3-0.1,0.5,0.1,0.7,0.3c0.2,0.3,0.1,0.7-0.2,0.9c-4.3,2.4-10.1,7.6-10.1,7.6
																		c-0.3,0.2-0.7,0.2-0.9-0.1c-0.2-0.3-0.2-0.7,0.1-0.9c0.2-0.2,6-5.3,10.4-7.8
																		C1248,1649.9,1248.1,1649.8,1248.1,1649.8z"/>
																</g>
															</g>
														</g>
													</g>
												</g>
											</g>
										</g>
									</g>
								</g>
							</g>
						</g>
					</g>
				</g>
				<g>
					<g>
						<g>
							<g>
								<g>
									<g>
										<g>
											<g>
												<g>
													<g>
														<g>
															<g>
																<g>
																	<path class="st7" d="M1246.5,1641.9c0.3-0.1,0.6,0.1,0.7,0.4c0.1,0.3,0,0.7-0.3,0.8c-5.5,2.3-10,6.2-10,6.3
																		c-0.3,0.2-0.7,0.2-0.9,0c-0.2-0.3-0.2-0.7,0-0.9c0.2-0.2,4.6-4.2,10.4-6.5
																		C1246.4,1642,1246.5,1641.9,1246.5,1641.9z"/>
																</g>
															</g>
														</g>
													</g>
												</g>
											</g>
										</g>
									</g>
								</g>
							</g>
						</g>
					</g>
				</g>
				<g>
					<g>
						<g>
							<g>
								<g>
									<g>
										<g>
											<g>
												<g>
													<g>
														<g>
															<g>
																<g>
																	<path class="st7" d="M1243.3,1633.2c0.3-0.1,0.6,0.1,0.7,0.4c0.1,0.3,0,0.7-0.3,0.8c-4.7,2.1-8.6,5.9-8.7,5.9
																		c-0.2,0.2-0.7,0.2-0.9,0c-0.2-0.2-0.2-0.7,0-0.9c0.2-0.2,4.1-4,9-6.2C1243.2,1633.3,1243.2,1633.2,1243.3,1633.2z"
																		/>
																</g>
															</g>
														</g>
													</g>
												</g>
											</g>
										</g>
									</g>
								</g>
							</g>
						</g>
					</g>
				</g>
			</g>
		</g>
		<g>
			<g>
				<g>
					<path class="st2" d="M1367.4,1514.7c0,0,6,13.5,1.6,32.7c-4.5,19.3-23,70.2-49.9,93.1c0,0-21.8-24-28.2-37.7
						c0,0,20.9-67.4,20.4-76.2c-0.5-8.8,25.9-18.8,25.9-18.8L1367.4,1514.7z"/>
				</g>
			</g>
		</g>
		<g>
			<g>
				<g>
					<path class="st2" d="M1058.3,1292.2l-37.1-87.3c0,0-23,1.9-38.4,17.7c0,0,25.6,86.7,33.8,98.3c8.1,11.6,37.1,1.9,37.1,1.9
						L1058.3,1292.2z"/>
				</g>
			</g>
		</g>
		<g>
			<g>
				<g>
					<path class="st12" d="M1223.7,1362.8c0,0-65.9,76.7-70.3,86.1c0,0-4.1-65.6-3.9-85.5
						C1149.5,1363.4,1178.8,1357.8,1223.7,1362.8z"/>
				</g>
			</g>
		</g>
		<g>
			<g>
				<g>
					<polygon class="st13" points="1278,1581.8 1160.2,1623.1 1138.2,1593.2 1117.3,1621.4 1084.7,1590.7 1116.6,1633.2 
						1138.2,1609.2 1159.9,1636.9 					"/>
				</g>
			</g>
		</g>
		<g>
			<g>
				<g>
					<polygon points="1117.4,1622.3 1138.6,1593.6 1137.7,1592.9 1117.2,1620.5 1085,1590.3 1084.3,1591.1 					"/>
				</g>
			</g>
		</g>
	</g>
	<g>
		<polygon class="st1" points="1028,1542.1 965.8,1542.1 669,1542.1 669,2031.2 965.8,2031.2 1028,2031.2 1387,2031.2 1387,1542.1 
					"/>
	</g>
	<g>
		<g>
			<path class="st1" d="M999.6,815.2c-107.9,0-215.7-5.5-322.8-16.5l-50.1-5.2c-5.2-0.5-8.9-5.2-8.4-10.3c0.5-5.2,5.2-9,10.3-8.4
				l50.1,5.2c209.3,21.5,421.6,21.9,631,1.1l62.9-6.2c5.2-0.6,9.8,3.3,10.3,8.4c0.5,5.2-3.3,9.8-8.4,10.3l-62.9,6.2
				C1208,810,1103.8,815.2,999.6,815.2z"/>
		</g>
	</g>
	<g>
		<g>
			<path class="st1" d="M999.7,887.7c-94.5,0-189-5.5-282.9-16.5L673,866c-5.2-0.6-8.9-5.3-8.3-10.5c0.6-5.2,5.3-8.9,10.5-8.3
				l43.9,5.2c183.1,21.5,368.7,21.9,551.9,1.1l55.1-6.2c5.2-0.6,9.8,3.1,10.4,8.3c0.6,5.2-3.1,9.8-8.3,10.4l-55.1,6.2
				C1182.3,882.6,1091,887.7,999.7,887.7z"/>
		</g>
	</g>
	<g>
		<g>
			<path class="st1" d="M999.8,955.5c-83,0-166-5.5-248.4-16.6l-38.5-5.1c-5.2-0.7-8.8-5.4-8.1-10.6c0.7-5.2,5.5-8.7,10.6-8.1
				l38.5,5.2c160.4,21.5,323,21.8,483.5,1.1l48.3-6.2c5.2-0.7,9.9,3,10.6,8.1c0.7,5.2-3,9.9-8.1,10.6l-48.3,6.2
				C1160.2,950.4,1080,955.5,999.8,955.5z"/>
		</g>
	</g>
	<g>
		<g>
			<path class="st1" d="M999.9,1020.8c-71.9,0-143.8-5.5-215.1-16.6l-33.3-5.2c-5.1-0.8-8.7-5.6-7.9-10.8c0.8-5.1,5.6-8.6,10.8-7.9
				l33.3,5.2c138.4,21.4,278.8,21.8,417.3,1.1l41.8-6.2c5.1-0.8,9.9,2.8,10.7,7.9c0.8,5.2-2.8,9.9-7.9,10.7l-41.8,6.2
				C1138.8,1015.6,1069.4,1020.8,999.9,1020.8z"/>
		</g>
	</g>
	<g>
		
			<rect x="636.5" y="1594.5" transform="matrix(0.166 -0.9861 0.9861 0.166 -1004.5846 2004.9619)" class="st14" width="93" height="3.8"/>
	</g>
	<g>
		
			<rect x="869.1" y="1550.4" transform="matrix(0.9971 -7.655779e-02 7.655779e-02 0.9971 -119.8582 71.3763)" class="st14" width="3.8" height="97.2"/>
	</g>
	<g>
		
			<rect x="1096.8" y="1591.1" transform="matrix(4.100850e-02 -0.9992 0.9992 4.100850e-02 -495.8767 2669.3694)" class="st14" width="91.6" height="3.8"/>
	</g>
	<g>
		
			<rect x="1336.9" y="1545.9" transform="matrix(0.9691 -0.2468 0.2468 0.9691 -350.6766 379.5291)" class="st14" width="3.8" height="85.8"/>
	</g>
	<g>
		<g>
			<g>
				<g>
					<path class="st15" d="M658.3,1637.7c0,0-61.2,54.3-56.1,84.2c5.1,29.9,50.1,21.1,71.2,28.6c21.2,7.6,49.7,1.8,46-32.4
						c-3.7-34.3-27.1-74.6-27.1-74.6L658.3,1637.7z"/>
				</g>
			</g>
		</g>
		<g>
			<g>
				<g>
					<path class="st15" d="M658.3,1637.7l-4.5-24.4c0,0,7.3-6.6,18.5,0.3c7.9,4.8,8.4,2.9,19.5,1.6c11.1-1.3,11.7,2.2,11.7,2.2
						l-11.1,26.1l-31,9.3L658.3,1637.7z"/>
				</g>
			</g>
		</g>
		<g>
			<g>
				<path class="st16" d="M631.8,1744.8c-14.6-2.5-27.4-7.8-30-22.9c-1.2-6.9,1.1-15.6,6.7-26c4.5-8.2,11-17.5,19.6-27.6
					c13.8-16.3,28.3-29.4,29.9-30.8l-4.5-24.4l0.1-0.1c0.1-0.1,7.7-6.6,18.8,0.2c5.9,3.7,7.6,3.4,13.1,2.5c1.6-0.3,3.7-0.6,6.2-0.9
					c11.3-1.3,12.1,2.3,12.1,2.5l0,0.1l-11.1,26c1.5,2.6,23.5,41.6,27.1,74.5c1.4,13.2-1.9,23.4-9.6,29.5
					c-4.5,3.6-10.5,5.7-17.4,6.1c-6.3,0.4-13-0.6-19.4-2.9c-6.4-2.3-15-3.1-24.1-3.9C643.5,1746.3,637.5,1745.8,631.8,1744.8z
					 M654.1,1613.4l4.5,24.4l-0.1,0.1c-0.2,0.1-15.4,13.8-29.9,30.8c-19.1,22.6-28.1,40.9-26.1,53c1.5,9.2,7.1,15.5,16.9,19.2
					c8.7,3.3,19.5,4.3,29.9,5.2c9.1,0.8,17.8,1.6,24.3,3.9c13.5,4.8,27.7,3.6,36.2-3.1c7.5-5.9,10.8-16,9.4-29
					c-3.6-33.8-26.8-74-27.1-74.4l-0.1-0.1l0.1-0.1l11.1-26c-0.2-0.5-1.7-3.1-11.4-1.9c-2.6,0.3-4.6,0.6-6.2,0.9
					c-5.5,0.9-7.4,1.2-13.5-2.5C662.1,1607.7,655.1,1612.6,654.1,1613.4z"/>
			</g>
		</g>
		<g>
			<g>
				<g>
					<path class="st14" d="M673.4,1644.2c-2.7-0.5-4.9-1-6.8-1.6c-5.9-1.8-8.9-3.8-9.1-3.9c-0.6-0.4-0.8-1.3-0.4-1.9
						c0.4-0.6,1.3-0.8,1.9-0.4c0.1,0,3,1.9,8.5,3.6c5.1,1.5,13.5,3.1,24.7,2c0.8-0.1,1.4,0.5,1.5,1.2c0.1,0.8-0.5,1.4-1.2,1.5
						C684.8,1645.6,678.4,1645.1,673.4,1644.2z"/>
				</g>
			</g>
		</g>
	</g>
	<g>
		<g>
			<g>
				<g>
					<path class="st15" d="M1366.5,1626.3c0,0,61.2,54.3,56.1,84.2s-50.1,21.1-71.2,28.6c-21.2,7.6-49.7,1.8-46-32.4
						c3.7-34.3,27.1-74.6,27.1-74.6L1366.5,1626.3z"/>
				</g>
			</g>
		</g>
		<g>
			<g>
				<g>
					<path class="st15" d="M1366.5,1626.3l4.5-24.4c0,0-7.4-6.6-18.5,0.3c-7.9,4.8-8.4,2.9-19.5,1.6s-11.7,2.2-11.7,2.2l11.1,26.1
						l31,9.2L1366.5,1626.3z"/>
				</g>
			</g>
		</g>
		<g>
			<g>
				<path class="st16" d="M1375.5,1735.5c-9.1,0.8-17.7,1.6-24.1,3.9c-6.4,2.3-13.1,3.3-19.4,2.9c-6.9-0.4-12.9-2.6-17.4-6.1
					c-7.7-6.1-11.1-16.3-9.6-29.5c3.5-33,25.6-71.9,27.1-74.5l-11.1-26l0-0.1c0-0.2,0.8-3.8,12.1-2.5c2.6,0.3,4.6,0.6,6.2,0.9
					c5.5,0.9,7.1,1.2,13.1-2.5c11.2-6.9,18.7-0.3,18.8-0.2l0.1,0.1l-4.5,24.4c1.5,1.4,16.1,14.5,29.9,30.8
					c8.5,10.1,15.1,19.3,19.6,27.6c5.6,10.3,7.8,19.1,6.7,26c-2.6,15.1-15.3,20.5-30,22.9C1387.2,1734.4,1381.3,1735,1375.5,1735.5z
					 M1352.7,1602.5c-6.1,3.8-8,3.5-13.5,2.5c-1.6-0.3-3.7-0.6-6.2-0.9c-9.7-1.1-11.2,1.4-11.4,1.9l11.1,26l0.1,0.1l-0.1,0.1
					c-0.2,0.4-23.4,40.6-27.1,74.4c-1.4,13,1.9,23,9.4,29c8.5,6.7,22.7,7.9,36.2,3.1c6.5-2.3,15.1-3.1,24.3-3.9
					c10.4-0.9,21.2-1.9,29.9-5.2c9.8-3.8,15.3-10,16.9-19.2c2-12.1-7-30.5-26.1-53c-14.5-17.1-29.8-30.7-29.9-30.8l-0.1-0.1
					l4.5-24.4C1369.6,1601.2,1362.7,1596.3,1352.7,1602.5z"/>
			</g>
		</g>
		<g>
			<g>
				<g>
					<path class="st14" d="M1351.4,1632.9c2.7-0.5,4.9-1,6.8-1.6c5.9-1.8,8.9-3.8,9.1-3.9c0.6-0.4,0.8-1.3,0.4-1.9
						c-0.4-0.6-1.3-0.8-1.9-0.4c-0.1,0-3,1.9-8.5,3.6c-5.1,1.5-13.5,3.1-24.7,2c-0.8-0.1-1.4,0.5-1.5,1.2c-0.1,0.8,0.5,1.4,1.2,1.5
						C1339.9,1634.2,1346.4,1633.8,1351.4,1632.9z"/>
				</g>
			</g>
		</g>
	</g>
	<g>
		<g>
			<g>
				<g>
					<path class="st15" d="M856.3,1645c0,0-46,67.6-33.8,95.3c12.2,27.7,53.7,8.2,76.1,10.3c22.4,2.2,48.6-10.4,36.7-42.7
						c-11.9-32.3-44.5-65.7-44.5-65.7L856.3,1645z"/>
				</g>
			</g>
		</g>
		<g>
			<g>
				<g>
					<path class="st15" d="M856.3,1645l-10.4-22.5c0,0,5.5-8.2,18-4.2c8.8,2.8,8.9,0.7,19.3-3.2c10.5-4,11.9-0.7,11.9-0.7l-4.4,28
						l-27.8,16.5L856.3,1645z"/>
				</g>
			</g>
		</g>
		<g>
			<g>
				<path class="st16" d="M856.8,1755.4c-14.8,1.2-28.5-0.9-34.7-14.9c-2.8-6.4-2.8-15.4,0.1-26.8c2.3-9.1,6.4-19.7,12.2-31.5
					c9.4-19.2,20.3-35.4,21.4-37.1l-10.4-22.5l0.1-0.1c0.1-0.1,5.8-8.3,18.3-4.4c6.7,2.1,8.2,1.4,13.3-0.8c1.5-0.7,3.4-1.5,5.8-2.4
					c10.6-4,12.3-0.7,12.3-0.5l0,0.1l-4.4,27.9c2.1,2.2,33,34.6,44.5,65.7c4.6,12.5,3.9,23.2-2.1,31c-3.5,4.6-8.8,8.1-15.4,10.2
					c-6,1.9-12.8,2.6-19.5,2c-6.8-0.7-15.3,0.7-24.3,2.1C868.5,1754,862.6,1754.9,856.8,1755.4z M846.3,1622.5l10.4,22.5l-0.1,0.1
					c-0.1,0.2-11.6,17.1-21.5,37.2c-13,26.6-17.3,46.5-12.3,57.8c3.7,8.5,10.6,13.3,21.1,14.5c9.2,1.1,19.9-0.6,30.3-2.2
					c9.1-1.4,17.6-2.8,24.5-2.1c14.2,1.4,27.7-3.3,34.3-11.9c5.9-7.6,6.6-18.1,2-30.4c-11.8-31.9-44.1-65.2-44.4-65.5l-0.1-0.1
					l0-0.2l4.4-27.9c-0.3-0.4-2.4-2.5-11.5,0.9c-2.4,0.9-4.3,1.7-5.8,2.4c-5.1,2.2-6.8,3-13.7,0.8
					C852.6,1615,847.1,1621.4,846.3,1622.5z"/>
			</g>
		</g>
		<g>
			<g>
				<g>
					<path class="st14" d="M872.5,1647.7c-2.7,0.2-5,0.2-6.9,0.1c-6.1-0.3-9.6-1.5-9.7-1.5c-0.7-0.3-1.1-1-0.8-1.8
						c0.3-0.7,1-1.1,1.8-0.8c0.1,0,3.4,1.2,9.1,1.4c5.3,0.2,13.9-0.3,24.4-4.1c0.7-0.3,1.5,0.1,1.8,0.8c0.3,0.7-0.1,1.5-0.8,1.8
						C883.9,1646.2,877.6,1647.3,872.5,1647.7z"/>
				</g>
			</g>
		</g>
	</g>
	<g>
		<g>
			<g>
				<g>
					<path class="st15" d="M1122.4,1634.8c0,0-56.4,59.2-48.8,88.6c7.6,29.4,51.7,16.7,73.4,22.5c21.7,5.7,49.7-2.4,43.1-36.2
						c-6.5-33.8-33.3-72-33.3-72L1122.4,1634.8z"/>
				</g>
			</g>
		</g>
		<g>
			<g>
				<g>
					<path class="st15" d="M1122.4,1634.8l-6.6-23.9c0,0,6.8-7.2,18.4-1.3c8.2,4.2,8.6,2.2,19.6-0.1c11-2.2,11.9,1.2,11.9,1.2
						l-8.9,26.9l-30.1,11.8L1122.4,1634.8z"/>
				</g>
			</g>
		</g>
		<g>
			<g>
				<path class="st16" d="M1105.1,1743.8c-14.8-1.2-28-5.5-31.8-20.3c-1.7-6.8-0.2-15.7,4.5-26.4c3.7-8.6,9.5-18.4,17.2-29.1
					c12.4-17.4,25.7-31.7,27.1-33.2l-6.6-23.9l0.1-0.1c0.1-0.1,7.1-7.3,18.8-1.3c6.2,3.1,7.9,2.7,13.2,1.3c1.6-0.4,3.6-0.9,6.1-1.4
					c11.1-2.3,12.2,1.3,12.3,1.5l0,0.1l-8.9,26.9c1.7,2.5,27,39.4,33.3,72c2.5,13.1,0.1,23.5-7.1,30.2c-4.2,3.9-10,6.5-16.8,7.6
					c-6.2,0.9-13,0.5-19.6-1.2c-6.6-1.7-15.2-1.8-24.3-1.8C1116.8,1744.3,1110.8,1744.3,1105.1,1743.8z M1116.2,1611l6.6,23.9
					l-0.1,0.1c-0.1,0.1-14.2,15-27.2,33.3c-17.1,24.1-24.6,43.1-21.5,55c2.3,9,8.4,14.8,18.4,17.7c8.9,2.6,19.8,2.6,30.2,2.7
					c9.2,0,17.8,0.1,24.5,1.9c13.8,3.7,27.9,1.2,35.8-6.2c7-6.6,9.4-16.8,6.9-29.6c-6.5-33.4-33-71.5-33.2-71.9l-0.1-0.1l0-0.1
					l8.8-26.8c-0.2-0.5-2-2.9-11.5-1c-2.5,0.5-4.5,1-6.1,1.4c-5.4,1.4-7.2,1.9-13.7-1.4C1123.6,1604.6,1117.1,1610.1,1116.2,1611z"
					/>
			</g>
		</g>
		<g>
			<g>
				<g>
					<path class="st14" d="M1138,1640.1c-2.7-0.2-5-0.6-6.9-1c-6-1.3-9.2-3-9.4-3.1c-0.7-0.4-0.9-1.2-0.5-1.9
						c0.4-0.7,1.2-0.9,1.9-0.5c0.1,0,3.1,1.7,8.7,2.8c5.2,1.1,13.7,1.9,24.8-0.1c0.7-0.1,1.5,0.4,1.6,1.1c0.1,0.7-0.4,1.5-1.1,1.6
						C1149.5,1640.5,1143.1,1640.5,1138,1640.1z"/>
				</g>
			</g>
		</g>
	</g>
	<g>
		<g>
			<path class="st0" d="M647.5,1557.8H1028l0,0h380.5c12.9,0,23.3-8.4,23.3-18.9c0-10.4-10.4-18.9-23.3-18.9H996.3l0,0H647.5
				c-12.9,0-23.3,8.4-23.3,18.9l0,0C624.2,1549.4,634.6,1557.8,647.5,1557.8z"/>
		</g>
		<g>
			<path class="st0" d="M1405.2,1983.7H996.3v0H650.8c-14.7,0-26.6,9.6-26.6,21.5v32.8c0,11.9,11.9,21.5,26.6,21.5h345.5h31.7h377.2
				c14.7,0,26.6-9.6,26.6-21.5v-32.8C1431.8,1993.3,1419.9,1983.7,1405.2,1983.7z"/>
		</g>
	</g>
	<g>
		<g>
			<path class="st0" d="M1400.9,1967.6H657.6c-5.3,0-9.6-4.3-9.6-9.6s4.3-9.6,9.6-9.6h743.3c5.3,0,9.6,4.3,9.6,9.6
				S1406.2,1967.6,1400.9,1967.6z"/>
		</g>
	</g>
	<g>
		<g>
			<path class="st0" d="M1400.9,1925.3H657.6c-5.3,0-9.6-4.3-9.6-9.6s4.3-9.6,9.6-9.6h743.3c5.3,0,9.6,4.3,9.6,9.6
				S1406.2,1925.3,1400.9,1925.3z"/>
		</g>
	</g>
	<g>
		<g>
			<path class="st0" d="M1400.9,1883.1H657.6c-5.3,0-9.6-4.3-9.6-9.6s4.3-9.6,9.6-9.6h743.3c5.3,0,9.6,4.3,9.6,9.6
				S1406.2,1883.1,1400.9,1883.1z"/>
		</g>
	</g>
</g>
</svg>
