<?xml version="1.0" encoding="utf-8"?>
<!-- Generator: Adobe Illustrator 25.4.1, SVG Export Plug-In . SVG Version: 6.00 Build 0)  -->
<svg version="1.1" id="Ebene_1" xmlns="http://www.w3.org/2000/svg" xmlns:xlink="http://www.w3.org/1999/xlink" x="0px" y="0px"
	 viewBox="0 0 841.9 595.3" style="enable-background:new 0 0 841.9 595.3;" xml:space="preserve">
<style type="text/css">
	.st0{fill:#C40E1F;}
	.st1{fill:#FFFFFF;}
	.st2{fill:#9AC316;}
	.st3{fill:#A3A3A3;}
	.st4{fill:#00376C;}
</style>
<polygon class="st0" points="567.9,260.9 583.6,276.6 599.2,276.6 614.9,276.6 599.2,260.9 "/>
<g>
	<path class="st1" d="M614.9,276.6"/>
</g>
<polygon class="st2" points="630.6,276.6 614.9,276.6 599.2,292.2 614.9,292.2 630.6,292.2 646.3,276.6 "/>
<polygon class="st3" points="677.6,292.2 693.3,292.2 677.6,276.6 "/>
<g>
	<path class="st1" d="M646.3,276.6"/>
</g>
<polygon class="st4" points="661.9,260.9 646.3,276.6 661.9,276.6 677.6,276.6 "/>
<g>
	<path d="M164.4,273c1.1,0,1.9-0.3,2.4-1c0.5-0.7,0.7-1.6,0.7-2.9c0-1.2-0.3-2-0.8-2.6s-1.4-0.8-2.6-0.8c-0.3,0-0.6,0-1,0.1
		c-0.4,0-0.7,0.1-0.9,0.1v7C162.5,273,163.3,273,164.4,273 M164.4,283.2c1.4,0,2.5-0.4,3.1-1.1c0.7-0.7,1-1.8,1-3.1
		c0-0.9-0.1-1.7-0.4-2.2c-0.3-0.6-0.7-1-1.3-1.2c-0.6-0.2-1.3-0.4-2.2-0.4h-2.5v7.8C162.4,283.1,163.2,283.2,164.4,283.2
		 M157.6,282.7v-16.2l-2.1-0.4V264h4.3h2.5h2c2,0,3.6,0.2,4.7,0.5c1.2,0.4,2,0.9,2.5,1.6c0.5,0.7,0.7,1.5,0.7,2.5
		c0,0.9-0.2,1.7-0.6,2.4c-0.4,0.7-0.9,1.3-1.6,1.7c-0.7,0.4-1.4,0.7-2.3,0.9c1.2,0,2.2,0.2,3.1,0.6c0.9,0.4,1.6,0.9,2.1,1.7
		c0.5,0.7,0.7,1.6,0.7,2.6c0,4.3-3,6.4-9,6.4h-2.4h-2.3h-4.4v-1.9L157.6,282.7z"/>
	<path d="M185.5,275.3l0-1c0-1-0.2-1.7-0.5-2.3c-0.3-0.5-0.9-0.8-1.7-0.8c-0.5,0-1,0.1-1.3,0.3c-0.4,0.2-0.7,0.6-0.9,1.2
		c-0.2,0.6-0.3,1.4-0.4,2.5H185.5z M177.1,273c0.6-1.2,1.5-2.1,2.7-2.7c1.2-0.6,2.5-0.9,4-0.9c1.9,0,3.4,0.5,4.5,1.4
		c1,0.9,1.6,2.2,1.6,3.9c0,1.2-0.1,2.1-0.2,2.7h-8.9c0.1,1.7,0.5,2.9,1.2,3.8c0.7,0.8,1.7,1.2,2.9,1.2c0.7,0,1.4-0.1,2.1-0.4
		c0.8-0.2,1.4-0.5,1.8-0.8l0.8,1.7c-0.3,0.3-0.8,0.7-1.4,1s-1.4,0.6-2.2,0.9c-0.8,0.2-1.6,0.4-2.4,0.4c-1.7,0-3.1-0.3-4.2-1
		c-1.1-0.7-1.9-1.6-2.5-2.7c-0.5-1.2-0.8-2.5-0.8-4.1C176.2,275.6,176.5,274.2,177.1,273"/>
	<path d="M194.5,283v-10.3l-1.7-0.6V270l4.6-0.6h0.1l0.8,0.6v0.8l-0.1,2.2h0.1c0.1-0.4,0.4-0.9,0.9-1.5c0.5-0.6,1-1.1,1.7-1.5
		c0.7-0.4,1.5-0.6,2.3-0.6c0.2,0,0.4,0,0.6,0.1c0.2,0,0.3,0.1,0.4,0.2v4.8c-0.3-0.3-0.7-0.5-1-0.6c-0.3-0.1-0.7-0.2-1.2-0.2
		c-0.7,0-1.3,0.1-1.9,0.3c-0.6,0.2-1,0.4-1.3,0.6v8.5l3.3,0.3v1.7h-9.5v-1.8L194.5,283z"/>
</g>
<polygon points="207.7,282.9 207.7,264.6 205.7,264.2 205.7,262.5 211.2,261.9 211.3,261.9 212.1,262.5 212.1,282.9 214,283.1 
	214,285 205.8,285 205.8,283.1 "/>
<g>
	<path d="M218.2,263.2c0.2-0.4,0.5-0.7,0.9-1c0.4-0.2,0.9-0.4,1.4-0.4h0c0.5,0,1,0.1,1.3,0.3c0.4,0.2,0.7,0.5,0.9,0.8
		c0.2,0.3,0.3,0.7,0.3,1.2c0,0.8-0.2,1.4-0.7,1.9c-0.5,0.5-1.2,0.8-2.1,0.8h0c-0.5,0-0.9-0.1-1.2-0.3c-0.4-0.2-0.6-0.5-0.8-0.8
		c-0.2-0.3-0.3-0.7-0.3-1.2C217.8,264,217.9,263.6,218.2,263.2 M218.5,282.9v-10.6l-1.9-0.6v-2.1l5.4-0.7h0.1l0.9,0.6v13.3l1.8,0.3
		v1.8h-8.1v-1.8L218.5,282.9z"/>
	<path d="M229.3,283v-10.3l-1.7-0.5v-2.3l5-0.6h0.1l0.8,0.6v1l0,0.6c0.7-0.6,1.5-1.1,2.5-1.5c1-0.4,2.1-0.6,3.1-0.6
		c1.1,0,2,0.2,2.7,0.6s1.1,1,1.4,1.9c0.3,0.9,0.4,2.1,0.4,3.6v7.5l1.7,0.2v1.8h-7.7v-1.8l1.4-0.3v-7.5c0-0.9-0.1-1.6-0.2-2.1
		c-0.1-0.5-0.3-0.9-0.7-1.1c-0.3-0.2-0.8-0.4-1.4-0.4c-0.5,0-1.1,0.1-1.6,0.4c-0.5,0.2-1,0.5-1.4,0.8v9.8l1.6,0.3v1.8h-7.7v-1.8
		L229.3,283z"/>
	<path d="M258.7,266.4l-1.8-0.4v-2h9v2l-2.3,0.4v10.3c0,2.2,0.4,3.8,1.1,4.8c0.7,1,1.8,1.6,3.3,1.6c1.5,0,2.6-0.6,3.3-1.7
		c0.7-1.1,1.1-2.7,1.1-4.6v-10.3l-2.4-0.4v-2h7.2v2l-1.9,0.4v10.1c0,2-0.3,3.6-1,4.8c-0.7,1.3-1.6,2.2-2.8,2.8
		c-1.2,0.6-2.6,0.9-4.2,0.9c-2,0-3.6-0.3-4.9-0.9c-1.3-0.6-2.2-1.5-2.8-2.8c-0.6-1.3-0.9-2.9-0.9-5V266.4z"/>
	<path d="M280.5,283v-10.3l-1.7-0.5v-2.3l5-0.6h0.1l0.8,0.6v1l0,0.6c0.7-0.6,1.5-1.1,2.5-1.5c1-0.4,2.1-0.6,3.1-0.6
		c1.1,0,2,0.2,2.7,0.6s1.1,1,1.4,1.9c0.3,0.9,0.4,2.1,0.4,3.6v7.5l1.7,0.2v1.8h-7.7v-1.8l1.4-0.3v-7.5c0-0.9-0.1-1.6-0.2-2.1
		c-0.1-0.5-0.3-0.9-0.7-1.1c-0.3-0.2-0.8-0.4-1.4-0.4c-0.5,0-1.1,0.1-1.6,0.4c-0.5,0.2-1,0.5-1.4,0.8v9.8l1.6,0.3v1.8h-7.7v-1.8
		L280.5,283z"/>
	<path d="M300.5,263.2c0.2-0.4,0.5-0.7,0.9-1c0.4-0.2,0.9-0.4,1.4-0.4h0c0.5,0,1,0.1,1.3,0.3c0.4,0.2,0.7,0.5,0.9,0.8
		c0.2,0.3,0.3,0.7,0.3,1.2c0,0.8-0.2,1.4-0.7,1.9c-0.5,0.5-1.2,0.8-2.1,0.8h0c-0.5,0-0.9-0.1-1.2-0.3c-0.4-0.2-0.6-0.5-0.8-0.8
		c-0.2-0.3-0.3-0.7-0.3-1.2C300.2,264,300.3,263.6,300.5,263.2 M300.8,282.9v-10.6l-1.9-0.6v-2.1l5.4-0.7h0.1l0.9,0.6v13.3l1.8,0.3
		v1.8H299v-1.8L300.8,282.9z"/>
</g>
<polygon points="308.3,271.1 308.3,269.3 316.3,269.3 316.3,271.1 314.4,271.5 316.8,278.7 317.6,281.5 318.3,278.8 320.5,271.5 
	318.8,271.1 318.8,269.3 325.2,269.3 325.2,271.1 323.8,271.5 318.7,285 315,285 309.4,271.5 "/>
<g>
	<path d="M335.5,275.3l0-1c0-1-0.2-1.7-0.5-2.3c-0.3-0.5-0.9-0.8-1.7-0.8c-0.5,0-1,0.1-1.3,0.3c-0.4,0.2-0.7,0.6-0.9,1.2
		c-0.2,0.6-0.3,1.4-0.4,2.5H335.5z M327.2,273c0.6-1.2,1.5-2.1,2.7-2.7c1.2-0.6,2.5-0.9,4-0.9c1.9,0,3.4,0.5,4.5,1.4
		c1,0.9,1.6,2.2,1.6,3.9c0,1.2-0.1,2.1-0.2,2.7h-8.9c0.1,1.7,0.5,2.9,1.2,3.8c0.7,0.8,1.7,1.2,2.9,1.2c0.7,0,1.4-0.1,2.1-0.4
		c0.8-0.2,1.4-0.5,1.8-0.8l0.8,1.7c-0.3,0.3-0.8,0.7-1.4,1s-1.4,0.6-2.2,0.9c-0.8,0.2-1.6,0.4-2.4,0.4c-1.7,0-3.1-0.3-4.2-1
		c-1.1-0.7-1.9-1.6-2.5-2.7c-0.5-1.2-0.8-2.5-0.8-4.1C326.2,275.6,326.5,274.2,327.2,273"/>
	<path d="M344.5,283v-10.3l-1.7-0.6V270l4.6-0.6h0.1l0.8,0.6v0.8l-0.1,2.2h0.1c0.1-0.4,0.4-0.9,0.9-1.5c0.5-0.6,1-1.1,1.7-1.5
		c0.7-0.4,1.5-0.6,2.3-0.6c0.2,0,0.4,0,0.6,0.1c0.2,0,0.3,0.1,0.4,0.2v4.8c-0.3-0.3-0.7-0.5-1-0.6c-0.3-0.1-0.7-0.2-1.2-0.2
		c-0.7,0-1.3,0.1-1.9,0.3c-0.6,0.2-1,0.4-1.3,0.6v8.5l3.3,0.3v1.7h-9.5v-1.8L344.5,283z"/>
	<path d="M359.8,280.3l0.7,2c0.1,0.2,0.5,0.4,0.9,0.6c0.5,0.2,1,0.3,1.5,0.3c0.8,0,1.4-0.2,1.8-0.5c0.4-0.3,0.6-0.7,0.6-1.2
		c0-0.4-0.1-0.7-0.4-1c-0.3-0.3-0.7-0.6-1.1-0.8c-0.5-0.2-1.2-0.6-2.1-1l-0.7-0.3c-1.3-0.5-2.2-1.2-2.9-1.9
		c-0.6-0.7-0.9-1.7-0.9-2.8c0-0.8,0.3-1.6,0.8-2.2c0.5-0.7,1.2-1.2,2.2-1.5c0.9-0.4,2.1-0.6,3.3-0.6c0.9,0,1.6,0,2.2,0.2
		c0.6,0.1,1.3,0.3,2.1,0.5c0.4,0.1,0.7,0.2,1,0.2v3.6h-2.5l-0.7-1.9c-0.1-0.2-0.3-0.4-0.7-0.5c-0.4-0.1-0.8-0.2-1.3-0.2
		c-0.7,0-1.3,0.1-1.7,0.4c-0.4,0.3-0.6,0.7-0.6,1.2c0,0.4,0.1,0.7,0.4,1c0.3,0.3,0.6,0.5,0.9,0.7c0.4,0.2,0.9,0.4,1.6,0.7l0.7,0.3
		c1,0.4,1.8,0.8,2.5,1.2c0.7,0.4,1.2,0.9,1.6,1.5c0.4,0.6,0.7,1.4,0.7,2.2c0,0.9-0.2,1.6-0.7,2.3c-0.5,0.7-1.2,1.2-2.1,1.6
		c-1,0.4-2.2,0.6-3.6,0.6c-1,0-1.9-0.1-2.7-0.3s-1.7-0.4-2.6-0.7c-0.2-0.1-0.4-0.1-0.8-0.2v-3.6L359.8,280.3L359.8,280.3z"/>
	<path d="M373.6,263.2c0.2-0.4,0.5-0.7,0.9-1c0.4-0.2,0.9-0.4,1.4-0.4h0c0.5,0,1,0.1,1.3,0.3c0.4,0.2,0.7,0.5,0.9,0.8
		c0.2,0.3,0.3,0.7,0.3,1.2c0,0.8-0.2,1.4-0.7,1.9c-0.5,0.5-1.2,0.8-2.1,0.8h0c-0.5,0-0.9-0.1-1.2-0.3c-0.4-0.2-0.6-0.5-0.8-0.8
		c-0.2-0.3-0.3-0.7-0.3-1.2C373.3,264,373.4,263.6,373.6,263.2 M373.9,282.9v-10.6l-1.9-0.6v-2.1l5.4-0.7h0.1l0.9,0.6v13.3l1.8,0.3
		v1.8h-8.1v-1.8L373.9,282.9z"/>
	<path d="M382,271.7v-1.6c0.2-0.1,0.5-0.2,0.9-0.4c0.4-0.2,0.6-0.3,0.7-0.3c0.3-0.4,0.6-0.8,0.9-1.4c0.2-0.4,0.3-0.8,0.5-1.4
		c0.2-0.6,0.4-1.1,0.5-1.5h2.5l0.1,4.4h4.1v2.3h-4.1v7.3c0,1.1,0,1.8,0.1,2.2c0.1,0.4,0.2,0.7,0.3,0.8c0.2,0.1,0.5,0.2,0.9,0.2h0
		c0.8,0,1.6-0.1,2.6-0.4h0l0.6,1.7c-0.3,0.3-0.8,0.5-1.4,0.7c-0.6,0.2-1.2,0.4-1.9,0.6c-0.7,0.1-1.4,0.2-2.1,0.2h0
		c-1.3,0-2.2-0.3-2.8-0.8c-0.6-0.6-0.9-1.4-0.9-2.6v-9.9H382z"/>
	<path d="M396.6,288.3c0.1,0.1,0.4,0.2,0.8,0.2c0.4,0.1,0.8,0.1,1.2,0.1c0.9,0,1.7-0.3,2.3-0.8c0.6-0.6,1.2-1.5,1.7-2.8h-1.7
		l-5.1-13.5l-1.3-0.4v-1.8h8.2v1.8l-1.9,0.4l2.4,7.7l0.8,2.9l0.7-2.9l2.2-7.7l-1.7-0.3v-1.8h6.3v1.8l-1.3,0.3
		c-0.8,2.5-1.8,5.3-2.9,8.5c-1.1,3.2-1.8,4.9-1.9,5.3c-0.6,1.5-1.1,2.7-1.7,3.6c-0.6,0.9-1.3,1.7-2.1,2.2c-0.8,0.5-1.7,0.7-2.8,0.7
		c-0.4,0-0.8,0-1.2-0.1c-0.4,0-0.7-0.1-0.9-0.2V288.3z"/>
</g>
<path d="M433.6,277.3l-2.5-8.4l-0.4-1.9l-0.4,1.9l-2.4,8.4H433.6z M422.7,282.8l6.4-18.8h4.9l6.4,18.8l1.6,0.3v1.8h-8.7v-1.8l2-0.4
	l-1-3.4h-6.9l-1,3.5l2.2,0.3v1.8h-7.4l0-1.8L422.7,282.8z"/>
<polygon points="445.8,282.9 445.8,264.6 443.8,264.2 443.8,262.5 449.3,261.9 449.4,261.9 450.2,262.5 450.2,282.9 452.1,283.1 
	452.1,285 444,285 444,283.1 "/>
<polygon points="456.5,282.9 456.5,264.6 454.5,264.2 454.5,262.5 460.1,261.9 460.2,261.9 461,262.5 461,282.9 462.8,283.1 
	462.8,285 454.7,285 454.7,283.1 "/>
<g>
	<path d="M467,263.2c0.2-0.4,0.5-0.7,0.9-1c0.4-0.2,0.9-0.4,1.4-0.4h0c0.5,0,1,0.1,1.3,0.3c0.4,0.2,0.7,0.5,0.9,0.8
		c0.2,0.3,0.3,0.7,0.3,1.2c0,0.8-0.2,1.4-0.7,1.9c-0.5,0.5-1.2,0.8-2.1,0.8h0c-0.5,0-0.9-0.1-1.2-0.3c-0.4-0.2-0.6-0.5-0.8-0.8
		c-0.2-0.3-0.3-0.7-0.3-1.2C466.7,264,466.8,263.6,467,263.2 M467.4,282.9v-10.6l-1.9-0.6v-2.1l5.4-0.7h0.1l0.9,0.6v13.3l1.8,0.3
		v1.8h-8.1v-1.8L467.4,282.9z"/>
	<path d="M485,276.9c-1.5,0-2.6,0.3-3.3,0.8c-0.7,0.5-1,1.2-1,2.1c0,0.8,0.2,1.5,0.6,2c0.4,0.5,0.9,0.7,1.6,0.7
		c0.3,0,0.7-0.1,1.1-0.2c0.4-0.2,0.8-0.4,1.1-0.6L485,276.9L485,276.9z M485,274.6c0-0.6-0.1-1-0.2-1.3c-0.1-0.3-0.4-0.6-0.8-0.7
		c-0.4-0.2-1-0.2-1.7-0.2c-0.9,0-1.8,0.1-2.5,0.3c-0.8,0.2-1.5,0.4-2.3,0.7h0l-0.9-1.7c0.3-0.3,0.8-0.6,1.5-0.9
		c0.7-0.3,1.5-0.7,2.5-0.9c0.9-0.3,1.9-0.4,2.9-0.4c1.5,0,2.6,0.2,3.5,0.5c0.8,0.4,1.4,0.9,1.8,1.7c0.4,0.8,0.5,1.9,0.5,3.2v8h1.5
		v1.7c-0.5,0.1-1.1,0.2-1.8,0.3c-0.7,0.1-1.3,0.1-1.9,0.1c-0.5,0-0.9,0-1.1-0.1c-0.3-0.1-0.4-0.2-0.6-0.5c-0.1-0.2-0.2-0.6-0.2-1
		V283c-0.5,0.5-1.1,1-1.8,1.4c-0.8,0.4-1.7,0.6-2.7,0.6c-0.9,0-1.7-0.2-2.4-0.5c-0.7-0.4-1.3-0.9-1.7-1.6c-0.4-0.7-0.7-1.6-0.7-2.6
		c0-1.7,0.8-3,2.4-3.9c1.6-0.9,3.9-1.3,6.7-1.3V274.6z"/>
	<path d="M495,283v-10.3l-1.7-0.5v-2.3l5-0.6h0.1l0.8,0.6v1l0,0.6c0.6-0.6,1.5-1.1,2.5-1.5c1-0.4,2.1-0.6,3.1-0.6
		c1.1,0,2,0.2,2.7,0.6s1.1,1,1.4,1.9c0.3,0.9,0.4,2.1,0.4,3.6v7.5l1.7,0.2v1.8h-7.7v-1.8l1.4-0.3v-7.5c0-0.9-0.1-1.6-0.2-2.1
		c-0.1-0.5-0.3-0.9-0.7-1.1c-0.3-0.2-0.8-0.4-1.3-0.4c-0.5,0-1.1,0.1-1.6,0.4c-0.5,0.2-1,0.5-1.4,0.8v9.8l1.6,0.3v1.8h-7.7v-1.8
		L495,283z"/>
	<path d="M523,269.5c0.5,0.1,1.1,0.2,1.8,0.4c0.5,0.1,0.8,0.2,1,0.3l-0.2,4.7h-2.8l-0.7-2.8c-0.1-0.2-0.3-0.4-0.5-0.6
		c-0.3-0.1-0.6-0.2-0.9-0.2c-1.9,0-2.9,1.7-2.9,5.2c0,1.3,0.1,2.3,0.5,3.2c0.3,0.9,0.7,1.5,1.3,1.9c0.5,0.4,1.2,0.6,1.9,0.6
		c0.8,0,1.5-0.1,2.1-0.3c0.6-0.2,1.2-0.4,1.7-0.8l0.8,1.6c-0.3,0.3-0.7,0.6-1.3,1c-0.6,0.3-1.2,0.6-2,0.9c-0.8,0.2-1.5,0.4-2.4,0.4
		c-1.7,0-3-0.3-4.1-1c-1.1-0.7-1.9-1.5-2.4-2.7c-0.5-1.1-0.8-2.5-0.8-4c0-1.6,0.3-3,1-4.2s1.6-2.2,2.8-2.8c1.2-0.7,2.6-1,4.3-1
		C521.8,269.3,522.4,269.4,523,269.5"/>
	<path d="M537.6,275.3l0-1c0-1-0.2-1.7-0.5-2.3c-0.3-0.5-0.9-0.8-1.7-0.8c-0.5,0-1,0.1-1.3,0.3c-0.4,0.2-0.7,0.6-0.9,1.2
		c-0.2,0.6-0.3,1.4-0.4,2.5H537.6z M529.2,273c0.6-1.2,1.5-2.1,2.7-2.7c1.2-0.6,2.5-0.9,4-0.9c1.9,0,3.4,0.5,4.5,1.4
		c1,0.9,1.6,2.2,1.6,3.9c0,1.2-0.1,2.1-0.2,2.7h-8.9c0.1,1.7,0.5,2.9,1.2,3.8c0.7,0.8,1.7,1.2,2.9,1.2c0.7,0,1.4-0.1,2.1-0.4
		c0.8-0.2,1.4-0.5,1.8-0.8l0.8,1.7c-0.3,0.3-0.8,0.7-1.4,1s-1.4,0.6-2.2,0.9c-0.8,0.2-1.6,0.4-2.4,0.4c-1.7,0-3.1-0.3-4.2-1
		c-1.1-0.7-1.9-1.6-2.5-2.7c-0.5-1.2-0.8-2.5-0.8-4.1C528.3,275.6,528.6,274.2,529.2,273"/>
</g>
</svg>
