<?xml version="1.0" encoding="utf-8"?>
<!-- Generator: Adobe Illustrator 25.4.1, SVG Export Plug-In . SVG Version: 6.00 Build 0)  -->
<svg version="1.1" id="Ebene_1" xmlns="http://www.w3.org/2000/svg" xmlns:xlink="http://www.w3.org/1999/xlink" x="0px" y="0px"
	 viewBox="0 0 548.3 41.3" style="enable-background:new 0 0 548.3 41.3;" xml:space="preserve">
<style type="text/css">
	.st0{fill:#C41721;}
	.st1{fill:#FFFFFF;}
	.st2{fill:#99C31C;}
	.st3{fill:#A3A3A2;}
	.st4{fill:#1A3966;}
	.st5{fill:#020203;}
</style>
<polygon class="st0" points="417.5,5 417.5,5 433.2,20.6 448.8,20.6 464.5,20.6 448.8,5 "/>
<path class="st1" d="M464.5,20.6"/>
<polygon class="st2" points="448.8,36.3 448.8,36.3 464.5,36.3 480.2,36.3 495.9,20.6 480.2,20.6 464.5,20.6 "/>
<polygon class="st3" points="527.2,20.6 527.2,36.3 542.9,36.3 "/>
<path class="st1" d="M495.9,20.6"/>
<polygon class="st4" points="511.5,5 495.9,20.6 511.5,20.6 527.2,20.6 "/>
<path class="st5" d="M14,17.1c1.1,0,1.9-0.3,2.4-1c0.5-0.7,0.7-1.6,0.7-2.9c0-1.2-0.3-2-0.8-2.6c-0.5-0.5-1.4-0.8-2.6-0.8
	c-0.3,0-0.6,0-1,0.1c-0.4,0-0.7,0.1-0.9,0.1v7C12.1,17.1,12.8,17.1,14,17.1 M14,27.2c1.4,0,2.5-0.4,3.1-1.1c0.7-0.7,1-1.8,1-3.1
	c0-0.9-0.1-1.7-0.4-2.2c-0.3-0.6-0.7-1-1.3-1.2c-0.6-0.2-1.3-0.4-2.2-0.4h-2.5V27C12,27.1,12.8,27.2,14,27.2 M7.1,26.8V10.6L5,10.2
	V8.1h4.3h2.5h2c2,0,3.5,0.2,4.7,0.5c1.2,0.4,2,0.9,2.5,1.6c0.5,0.7,0.7,1.5,0.7,2.5c0,0.9-0.2,1.7-0.6,2.4c-0.4,0.7-0.9,1.3-1.6,1.7
	c-0.7,0.4-1.4,0.7-2.3,0.9c1.2,0,2.2,0.2,3.1,0.6c0.9,0.4,1.6,0.9,2.1,1.7c0.5,0.7,0.7,1.6,0.7,2.6c0,4.3-3,6.4-9,6.4h-2.4H9.4H5
	v-1.9L7.1,26.8z"/>
<path class="st5" d="M35.1,19.4l0-1c0-1-0.2-1.7-0.5-2.3c-0.3-0.5-0.9-0.8-1.7-0.8c-0.5,0-1,0.1-1.3,0.3c-0.4,0.2-0.7,0.6-0.9,1.2
	c-0.2,0.6-0.3,1.4-0.4,2.5H35.1z M26.7,17.1c0.6-1.2,1.5-2.1,2.7-2.7c1.2-0.6,2.5-0.9,4-0.9c1.9,0,3.4,0.5,4.5,1.4
	c1,0.9,1.6,2.2,1.6,3.9c0,1.2-0.1,2.1-0.2,2.7h-8.9c0.1,1.7,0.5,2.9,1.2,3.8c0.7,0.8,1.7,1.2,2.9,1.2c0.7,0,1.4-0.1,2.1-0.4
	c0.8-0.2,1.4-0.5,1.8-0.8l0.8,1.7c-0.3,0.3-0.8,0.7-1.4,1c-0.6,0.3-1.4,0.6-2.2,0.9c-0.8,0.2-1.6,0.4-2.4,0.4c-1.7,0-3.1-0.3-4.2-1
	c-1.1-0.7-1.9-1.6-2.5-2.7c-0.5-1.2-0.8-2.5-0.8-4.1C25.8,19.7,26.1,18.2,26.7,17.1"/>
<path class="st5" d="M44.1,27.1V16.8l-1.7-0.6V14l4.6-0.6h0.1l0.8,0.6v0.8L47.8,17h0.1c0.1-0.4,0.4-0.9,0.9-1.5
	c0.5-0.6,1-1.1,1.7-1.5c0.7-0.4,1.5-0.6,2.3-0.6c0.2,0,0.4,0,0.6,0.1c0.2,0,0.3,0.1,0.4,0.2v4.8c-0.3-0.3-0.7-0.5-1-0.6
	c-0.3-0.1-0.7-0.2-1.2-0.2c-0.7,0-1.3,0.1-1.9,0.3c-0.6,0.2-1,0.4-1.3,0.6V27l3.3,0.3v1.7h-9.5v-1.8L44.1,27.1z"/>
<polygon class="st5" points="57.3,26.9 57.3,8.6 55.3,8.3 55.3,6.6 60.8,5.9 60.9,5.9 61.7,6.5 61.7,26.9 63.6,27.2 63.6,29 
	55.4,29 55.4,27.2 "/>
<path class="st5" d="M67.7,7.2c0.2-0.4,0.5-0.7,0.9-1c0.4-0.2,0.9-0.4,1.4-0.4h0c0.5,0,1,0.1,1.3,0.3c0.4,0.2,0.7,0.5,0.9,0.8
	c0.2,0.3,0.3,0.7,0.3,1.2c0,0.8-0.2,1.4-0.7,1.9c-0.5,0.5-1.2,0.7-2.1,0.7h0c-0.5,0-0.9-0.1-1.2-0.3c-0.4-0.2-0.6-0.5-0.8-0.8
	c-0.2-0.3-0.3-0.7-0.3-1.2C67.4,8.1,67.5,7.6,67.7,7.2 M68.1,26.9V16.4l-1.9-0.6v-2.1l5.4-0.7h0.1l0.9,0.6v13.3l1.8,0.3V29h-8.1
	v-1.8L68.1,26.9z"/>
<path class="st5" d="M78.8,27V16.8l-1.7-0.5V14l5-0.6h0.1l0.8,0.6v1l0,0.6c0.6-0.6,1.5-1.1,2.5-1.5c1-0.4,2.1-0.6,3.1-0.6
	c1.1,0,2,0.2,2.7,0.6c0.7,0.4,1.1,1,1.4,1.9c0.3,0.9,0.4,2.1,0.4,3.6V27l1.7,0.2v1.8h-7.7v-1.8l1.4-0.3v-7.5c0-0.9-0.1-1.6-0.2-2.1
	c-0.1-0.5-0.3-0.9-0.7-1.1c-0.3-0.2-0.8-0.4-1.4-0.4c-0.5,0-1.1,0.1-1.6,0.4c-0.5,0.2-1,0.5-1.4,0.8V27l1.6,0.3v1.8h-7.7v-1.8
	L78.8,27z"/>
<path class="st5" d="M108.3,10.5l-1.8-0.4v-2h9v2l-2.3,0.4v10.3c0,2.2,0.4,3.8,1.1,4.8c0.7,1,1.8,1.6,3.3,1.6c1.5,0,2.6-0.6,3.3-1.7
	c0.7-1.1,1.1-2.7,1.1-4.6V10.5l-2.4-0.4v-2h7.2v2l-1.9,0.4v10.1c0,2-0.3,3.6-1,4.8c-0.7,1.3-1.6,2.2-2.8,2.8
	c-1.2,0.6-2.6,0.9-4.2,0.9c-2,0-3.6-0.3-4.9-0.9c-1.3-0.6-2.2-1.5-2.8-2.8c-0.6-1.3-0.9-2.9-0.9-5V10.5z"/>
<path class="st5" d="M130,27V16.8l-1.7-0.5V14l5-0.6h0.1l0.8,0.6v1l0,0.6c0.6-0.6,1.5-1.1,2.5-1.5c1-0.4,2.1-0.6,3.1-0.6
	c1.1,0,2,0.2,2.7,0.6c0.7,0.4,1.1,1,1.4,1.9c0.3,0.9,0.4,2.1,0.4,3.6V27l1.7,0.2v1.8h-7.7v-1.8l1.4-0.3v-7.5c0-0.9-0.1-1.6-0.2-2.1
	c-0.1-0.5-0.3-0.9-0.7-1.1c-0.3-0.2-0.8-0.4-1.4-0.4c-0.5,0-1.1,0.1-1.6,0.4c-0.5,0.2-1,0.5-1.4,0.8V27l1.6,0.3v1.8h-7.7v-1.8
	L130,27z"/>
<path class="st5" d="M150.1,7.2c0.2-0.4,0.5-0.7,0.9-1c0.4-0.2,0.9-0.4,1.4-0.4h0c0.5,0,1,0.1,1.3,0.3c0.4,0.2,0.7,0.5,0.9,0.8
	c0.2,0.3,0.3,0.7,0.3,1.2c0,0.8-0.2,1.4-0.7,1.9c-0.5,0.5-1.2,0.7-2.1,0.7h0c-0.5,0-0.9-0.1-1.2-0.3c-0.4-0.2-0.6-0.5-0.8-0.8
	c-0.2-0.3-0.3-0.7-0.3-1.2C149.8,8.1,149.9,7.6,150.1,7.2 M150.4,26.9V16.4l-1.9-0.6v-2.1L154,13h0.1l0.9,0.6v13.3l1.8,0.3V29h-8.1
	v-1.8L150.4,26.9z"/>
<polygon class="st5" points="157.9,15.2 157.9,13.4 165.9,13.4 165.9,15.2 164,15.6 166.4,22.8 167.2,25.6 167.8,22.8 170.1,15.5 
	168.3,15.2 168.3,13.4 174.8,13.4 174.8,15.2 173.4,15.5 168.3,29.1 164.6,29.1 159,15.5 "/>
<path class="st5" d="M185.1,19.4l0-1c0-1-0.2-1.7-0.5-2.3c-0.3-0.5-0.9-0.8-1.7-0.8c-0.5,0-1,0.1-1.3,0.3c-0.4,0.2-0.7,0.6-0.9,1.2
	c-0.2,0.6-0.3,1.4-0.4,2.5H185.1z M176.7,17.1c0.6-1.2,1.5-2.1,2.7-2.7c1.2-0.6,2.5-0.9,4-0.9c1.9,0,3.4,0.5,4.5,1.4
	c1,0.9,1.6,2.2,1.6,3.9c0,1.2-0.1,2.1-0.2,2.7h-8.9c0.1,1.7,0.5,2.9,1.2,3.8c0.7,0.8,1.7,1.2,2.9,1.2c0.7,0,1.4-0.1,2.1-0.4
	c0.8-0.2,1.4-0.5,1.8-0.8l0.8,1.7c-0.3,0.3-0.8,0.7-1.4,1c-0.6,0.3-1.4,0.6-2.2,0.9c-0.8,0.2-1.6,0.4-2.4,0.4c-1.7,0-3.1-0.3-4.2-1
	c-1.1-0.7-1.9-1.6-2.5-2.7c-0.5-1.2-0.8-2.5-0.8-4.1C175.8,19.7,176.1,18.2,176.7,17.1"/>
<path class="st5" d="M194.1,27.1V16.8l-1.7-0.6V14l4.6-0.6h0.1l0.8,0.6v0.8l-0.1,2.2h0.1c0.1-0.4,0.4-0.9,0.9-1.5
	c0.5-0.6,1-1.1,1.7-1.5c0.7-0.4,1.5-0.6,2.3-0.6c0.2,0,0.4,0,0.6,0.1c0.2,0,0.3,0.1,0.4,0.2v4.8c-0.3-0.3-0.7-0.5-1-0.6
	c-0.3-0.1-0.7-0.2-1.2-0.2c-0.7,0-1.3,0.1-1.9,0.3c-0.6,0.2-1,0.4-1.3,0.6V27l3.3,0.3V29h-9.5v-1.8L194.1,27.1z"/>
<path class="st5" d="M209.4,24.3l0.7,2c0.1,0.2,0.5,0.4,0.9,0.6c0.5,0.2,1,0.3,1.5,0.3c0.8,0,1.4-0.2,1.8-0.5
	c0.4-0.3,0.6-0.7,0.6-1.2c0-0.4-0.1-0.7-0.4-1c-0.3-0.3-0.7-0.6-1.1-0.8c-0.5-0.2-1.2-0.6-2.1-1l-0.7-0.3c-1.3-0.5-2.2-1.2-2.9-1.9
	c-0.6-0.7-0.9-1.7-0.9-2.8c0-0.8,0.3-1.6,0.8-2.2c0.5-0.7,1.2-1.2,2.2-1.5c0.9-0.4,2.1-0.6,3.3-0.6c0.9,0,1.6,0,2.2,0.2
	c0.6,0.1,1.3,0.3,2.1,0.5c0.4,0.1,0.7,0.2,1,0.2v3.6h-2.5l-0.7-1.9c-0.1-0.2-0.3-0.4-0.7-0.5c-0.4-0.1-0.8-0.2-1.3-0.2
	c-0.7,0-1.3,0.1-1.7,0.4c-0.4,0.3-0.6,0.7-0.6,1.2c0,0.4,0.1,0.8,0.4,1s0.6,0.5,0.9,0.7c0.4,0.2,0.9,0.4,1.6,0.7l0.7,0.3
	c1,0.4,1.8,0.8,2.5,1.2c0.7,0.4,1.2,0.9,1.6,1.5c0.4,0.6,0.7,1.4,0.7,2.2c0,0.9-0.2,1.6-0.7,2.3c-0.5,0.7-1.2,1.2-2.1,1.6
	c-1,0.4-2.2,0.6-3.6,0.6c-1,0-1.9-0.1-2.7-0.3c-0.8-0.2-1.7-0.4-2.6-0.7c-0.2-0.1-0.4-0.1-0.8-0.2v-3.6L209.4,24.3L209.4,24.3z"/>
<path class="st5" d="M223.2,7.2c0.2-0.4,0.5-0.7,0.9-1c0.4-0.2,0.9-0.4,1.4-0.4h0c0.5,0,1,0.1,1.3,0.3c0.4,0.2,0.7,0.5,0.9,0.8
	c0.2,0.3,0.3,0.7,0.3,1.2c0,0.8-0.2,1.4-0.7,1.9c-0.5,0.5-1.2,0.7-2.1,0.7h0c-0.5,0-0.9-0.1-1.2-0.3c-0.4-0.2-0.6-0.5-0.8-0.8
	c-0.2-0.3-0.3-0.7-0.3-1.2C222.9,8.1,223,7.6,223.2,7.2 M223.5,26.9V16.4l-1.9-0.6v-2.1l5.4-0.7h0.1l0.9,0.6v13.3l1.8,0.3V29h-8.1
	v-1.8L223.5,26.9z"/>
<path class="st5" d="M231.6,15.7v-1.6c0.2-0.1,0.5-0.2,0.9-0.4c0.4-0.2,0.6-0.3,0.7-0.3c0.3-0.4,0.6-0.8,0.9-1.4
	c0.2-0.4,0.3-0.8,0.5-1.4c0.2-0.6,0.4-1.1,0.5-1.5h2.5l0.1,4.4h4.1v2.3h-4.1v7.3c0,1.1,0,1.8,0.1,2.2c0,0.4,0.2,0.7,0.3,0.8
	c0.2,0.1,0.5,0.2,0.9,0.2h0c0.8,0,1.6-0.1,2.6-0.4h0l0.6,1.7c-0.3,0.3-0.8,0.5-1.4,0.7c-0.6,0.2-1.2,0.4-1.9,0.6
	c-0.7,0.1-1.4,0.2-2,0.2h0c-1.3,0-2.2-0.3-2.8-0.8c-0.6-0.6-0.9-1.4-0.9-2.6v-9.9H231.6z"/>
<path class="st5" d="M246.1,32.3c0.1,0.1,0.4,0.2,0.8,0.2c0.4,0.1,0.8,0.1,1.2,0.1c0.9,0,1.7-0.3,2.3-0.8c0.6-0.6,1.2-1.5,1.7-2.8
	h-1.7l-5.1-13.5l-1.3-0.4v-1.8h8.2v1.8l-1.9,0.4l2.4,7.7l0.8,2.9l0.7-2.9l2.2-7.7l-1.7-0.3v-1.8h6.3v1.8l-1.3,0.3
	c-0.8,2.5-1.8,5.3-2.9,8.5c-1.1,3.2-1.8,4.9-1.9,5.3c-0.6,1.5-1.1,2.7-1.7,3.6c-0.6,0.9-1.3,1.7-2.1,2.2c-0.8,0.5-1.7,0.7-2.8,0.7
	c-0.4,0-0.8,0-1.2-0.1s-0.7-0.1-0.9-0.2V32.3z"/>
<path class="st5" d="M283.2,21.3l-2.5-8.4l-0.4-1.9l-0.4,1.9l-2.4,8.4H283.2z M272.3,26.9l6.4-18.8h4.9l6.4,18.8l1.6,0.3v1.8h-8.7
	v-1.8l2-0.4l-1-3.4h-6.9l-1,3.5l2.2,0.3v1.8h-7.4l0-1.8L272.3,26.9z"/>
<polygon class="st5" points="295.4,26.9 295.4,8.6 293.4,8.3 293.4,6.6 298.9,5.9 299,5.9 299.8,6.5 299.8,26.9 301.7,27.2 
	301.7,29 293.6,29 293.6,27.2 "/>
<polygon class="st5" points="306.1,26.9 306.1,8.6 304.1,8.3 304.1,6.6 309.7,5.9 309.7,5.9 310.6,6.5 310.6,26.9 312.4,27.2 
	312.4,29 304.3,29 304.3,27.2 "/>
<path class="st5" d="M316.6,7.2c0.2-0.4,0.5-0.7,0.9-1c0.4-0.2,0.9-0.4,1.4-0.4h0c0.5,0,1,0.1,1.3,0.3c0.4,0.2,0.7,0.5,0.9,0.8
	c0.2,0.3,0.3,0.7,0.3,1.2c0,0.8-0.2,1.4-0.7,1.9c-0.5,0.5-1.2,0.7-2.1,0.7h0c-0.5,0-0.9-0.1-1.2-0.3c-0.4-0.2-0.6-0.5-0.8-0.8
	c-0.2-0.3-0.3-0.7-0.3-1.2C316.3,8.1,316.4,7.6,316.6,7.2 M317,26.9V16.4l-1.9-0.6v-2.1l5.4-0.7h0.1l0.9,0.6v13.3l1.8,0.3V29h-8.1
	v-1.8L317,26.9z"/>
<path class="st5" d="M334.6,21c-1.5,0-2.6,0.3-3.3,0.8c-0.7,0.5-1,1.2-1,2.1c0,0.8,0.2,1.5,0.6,2c0.4,0.5,0.9,0.7,1.6,0.7
	c0.3,0,0.7-0.1,1.1-0.2c0.4-0.2,0.8-0.4,1.1-0.6L334.6,21L334.6,21z M334.6,18.6c0-0.6-0.1-1-0.2-1.3c-0.1-0.3-0.4-0.6-0.8-0.7
	c-0.4-0.2-1-0.2-1.7-0.2c-0.9,0-1.8,0.1-2.5,0.3c-0.8,0.2-1.5,0.4-2.3,0.7h0l-0.9-1.7c0.3-0.3,0.8-0.6,1.5-0.9s1.5-0.7,2.5-0.9
	c0.9-0.3,1.9-0.4,2.9-0.4c1.5,0,2.6,0.2,3.5,0.5c0.8,0.4,1.4,0.9,1.8,1.7c0.4,0.8,0.5,1.9,0.5,3.2v8h1.5v1.7
	c-0.5,0.1-1.1,0.2-1.8,0.3c-0.7,0.1-1.3,0.1-1.9,0.1c-0.5,0-0.9,0-1.1-0.1c-0.3-0.1-0.4-0.2-0.6-0.5c-0.1-0.2-0.2-0.6-0.2-1v-0.4
	c-0.5,0.5-1.1,1-1.8,1.4s-1.7,0.6-2.7,0.6c-0.9,0-1.7-0.2-2.4-0.5c-0.7-0.4-1.3-0.9-1.7-1.6c-0.4-0.7-0.7-1.6-0.7-2.6
	c0-1.7,0.8-3,2.4-3.9c1.6-0.9,3.9-1.3,6.7-1.3V18.6z"/>
<path class="st5" d="M344.6,27V16.8l-1.7-0.5V14l5-0.6h0.1l0.8,0.6v1l0,0.6c0.7-0.6,1.5-1.1,2.5-1.5c1-0.4,2.1-0.6,3.1-0.6
	c1.1,0,2,0.2,2.7,0.6c0.7,0.4,1.1,1,1.4,1.9c0.3,0.9,0.4,2.1,0.4,3.6V27l1.7,0.2v1.8h-7.7v-1.8l1.4-0.3v-7.5c0-0.9-0.1-1.6-0.2-2.1
	c-0.1-0.5-0.3-0.9-0.7-1.1c-0.3-0.2-0.8-0.4-1.3-0.4c-0.5,0-1.1,0.1-1.6,0.4c-0.5,0.2-1,0.5-1.4,0.8V27l1.6,0.3v1.8H343v-1.8
	L344.6,27z"/>
<path class="st5" d="M372.6,13.5c0.5,0.1,1.1,0.2,1.8,0.4c0.5,0.1,0.8,0.2,1,0.3l-0.2,4.7h-2.8l-0.7-2.8c-0.1-0.2-0.3-0.4-0.5-0.6
	c-0.3-0.1-0.6-0.2-0.9-0.2c-1.9,0-2.9,1.7-2.9,5.2c0,1.3,0.1,2.3,0.5,3.2c0.3,0.9,0.7,1.5,1.3,1.9c0.5,0.4,1.2,0.6,1.9,0.6
	c0.8,0,1.5-0.1,2.1-0.3c0.6-0.2,1.2-0.4,1.7-0.8l0.8,1.6c-0.3,0.3-0.7,0.6-1.3,1c-0.6,0.3-1.2,0.6-2,0.9c-0.8,0.2-1.5,0.4-2.4,0.4
	c-1.7,0-3-0.3-4.1-1c-1.1-0.7-1.9-1.5-2.4-2.7c-0.5-1.1-0.8-2.5-0.8-4c0-1.6,0.3-3,1-4.2c0.7-1.2,1.6-2.2,2.8-2.8
	c1.2-0.7,2.6-1,4.3-1C371.4,13.4,372,13.4,372.6,13.5"/>
<path class="st5" d="M387.2,19.4l0-1c0-1-0.2-1.7-0.5-2.3c-0.3-0.5-0.9-0.8-1.7-0.8c-0.5,0-1,0.1-1.3,0.3s-0.7,0.6-0.9,1.2
	c-0.2,0.6-0.3,1.4-0.4,2.5H387.2z M378.8,17.1c0.6-1.2,1.5-2.1,2.7-2.7c1.2-0.6,2.5-0.9,4-0.9c1.9,0,3.4,0.5,4.5,1.4
	c1,0.9,1.6,2.2,1.6,3.9c0,1.2-0.1,2.1-0.2,2.7h-8.9c0.1,1.7,0.5,2.9,1.2,3.8c0.7,0.8,1.7,1.2,2.9,1.2c0.7,0,1.4-0.1,2.1-0.4
	c0.8-0.2,1.4-0.5,1.8-0.8l0.8,1.7c-0.3,0.3-0.8,0.7-1.4,1c-0.6,0.3-1.4,0.6-2.2,0.9c-0.8,0.2-1.6,0.4-2.4,0.4c-1.7,0-3.1-0.3-4.2-1
	c-1.1-0.7-1.9-1.6-2.5-2.7c-0.5-1.2-0.8-2.5-0.8-4.1C377.9,19.7,378.2,18.2,378.8,17.1"/>
</svg>
