<?xml version="1.0" encoding="utf-8"?>
<!-- Generator: Adobe Illustrator 26.4.1, SVG Export Plug-In . SVG Version: 6.00 Build 0)  -->
<svg version="1.1" id="Ebene_1" xmlns="http://www.w3.org/2000/svg" xmlns:xlink="http://www.w3.org/1999/xlink" x="0px" y="0px"
	 viewBox="0 0 595.3 223" style="enable-background:new 0 0 595.3 223;" xml:space="preserve">
<style type="text/css">
	.st0{fill:#FFFFFF;}
</style>
<g>
	<path class="st0" d="M211.2,68.6V7.1l7.5,0.1c1.4,0,2.8,0,4.3-0.1s3-0.2,4.7-0.3c1.7-0.1,3.6-0.1,5.7-0.1c5.7,0,10.3,0.6,13.8,1.9
		c3.5,1.3,6,3.1,7.5,5.5c1.6,2.4,2.3,5.2,2.3,8.4c0,2.2-0.3,4.2-1,6.1c-0.7,1.9-1.7,3.5-3.1,4.8c-1.4,1.3-3.1,2.3-5.2,2.9
		c2.4,0.3,4.5,1.1,6.4,2.3c1.9,1.2,3.4,2.8,4.5,4.8c1.1,2,1.6,4.3,1.6,6.8c0,3.8-0.8,7.1-2.3,9.9c-1.5,2.9-4.1,5.1-7.8,6.8
		c-3.7,1.6-8.8,2.5-15.4,2.5c-2.8,0-5.8-0.1-8.7-0.2c-3-0.2-5.3-0.3-7.1-0.4H211.2z M226.5,32.1c0.3,0.1,0.8,0.1,1.3,0.1
		c0.5,0,1.1,0.1,1.7,0.1c0.6,0,1.2,0,1.7,0.1c0.5,0,1,0,1.3,0c3.3,0,5.7-0.6,7.4-1.9c1.6-1.3,2.5-3.5,2.5-6.8c0-2.6-0.9-4.4-2.7-5.4
		c-1.8-1-4.4-1.5-7.8-1.5c-0.4,0-1,0-1.7,0c-0.7,0-1.5,0.1-2.2,0.1s-1.2,0.2-1.4,0.3V32.1z M226.5,58.2c0.4,0.2,1,0.4,1.9,0.5
		c0.9,0.1,1.8,0.2,2.9,0.3c1,0.1,2,0.1,2.8,0.1c3.5,0,6.2-0.7,7.9-2.1s2.6-3.7,2.6-6.9c0-2.6-0.9-4.7-2.6-6s-4.5-2.1-8.4-2.1
		c-0.5,0-1.1,0-1.8,0c-0.7,0-1.4,0-2.1,0.1c-0.7,0-1.4,0.1-1.9,0.1c-0.6,0-1,0.1-1.2,0.1V58.2z"/>
	<path class="st0" d="M270.3,68.6V7.2h38.9v11.5h-23.6v13h18.2v11.2h-18.2v14.1h26v11.7H270.3z"/>
	<path class="st0" d="M337.1,68.6h-15.4V7.2c0.6,0,1.2,0,1.8,0c0.6,0,1.2,0,1.8,0c0.6,0,1.2,0,1.8,0c2.2,0,4.8-0.1,7.6-0.3
		c2.9-0.2,6.5-0.3,10.9-0.3c2.7,0,5.4,0.3,8.1,0.9c2.7,0.6,5.2,1.6,7.4,3.1c2.2,1.4,4,3.4,5.4,6c1.4,2.5,2,5.7,2,9.6
		c0,4.2-0.7,7.6-2.1,10.4c-1.4,2.7-3.3,4.8-5.8,6.3c-2.5,1.5-5.3,2.5-8.5,3c-1.1,0.2-2.2,0.4-3.2,0.6c-1.1,0.2-2.5,0.4-4.3,0.5
		c-1.8,0.1-4.3,0.2-7.5,0.2V68.6z M337.1,36.2c0.6,0.1,1.3,0.2,2.2,0.2c0.9,0.1,1.9,0.1,2.9,0.1c1,0,1.8,0,2.4,0c3.1,0,5.4-1,6.9-3
		c1.4-2,2.2-4.4,2.2-7.3c0-1.5-0.3-3-0.8-4.3s-1.5-2.5-3-3.3c-1.4-0.9-3.5-1.3-6.2-1.3c-1.1,0-2.2,0.1-3.4,0.2s-2.2,0.3-3.2,0.6
		V36.2z M355.6,68.6c-0.3-0.4-0.6-0.9-0.9-1.5c-0.3-0.6-0.7-1.6-1.3-2.9c-0.8-1.8-1.6-3.8-2.2-5.8c-0.7-2-1.3-3.9-2-5.7
		c-0.7-1.8-1.5-3.2-2.3-4.3c-0.9-1.1-2-1.7-3.3-1.7l3.6-2.8l9.8-1.3c1.5,0.7,2.9,1.8,4,3.4c1.1,1.6,2.2,3.4,3.1,5.4
		c1,2.1,1.9,4.2,2.8,6.4c0.9,2.2,2,4.3,3.1,6.4c0.4,0.7,0.8,1.5,1.3,2.2s0.9,1.5,1.3,2.2H355.6z"/>
	<path class="st0" d="M381.2,68.6V7.2h15.2v49.1h20.8v12.4H381.2z"/>
	<path class="st0" d="M427.5,68.6V7.2H443v61.5H427.5z"/>
	<path class="st0" d="M457.5,68.6V7.2h14.4l21,33.8l7.9,16.5h-2.8l-2.5-23.2V7.2h14v61.5H494L474,35.7l-9-18.9h3.4l3.1,25.2v26.6
		H457.5z"/>
</g>
<g>
	<path class="st0" d="M210.9,143.8V82.4h38.4v11.5h-23v14.6h17.5v11.4h-17.5v23.9H210.9z"/>
	<path class="st0" d="M281.7,144.5c-6.1,0.1-11.2-1.1-15.5-3.7c-4.3-2.6-7.5-6.3-9.8-11c-2.2-4.8-3.3-10.4-3.2-16.9
		c0.1-7.3,1.5-13.2,4-17.7c2.6-4.5,6-7.8,10.4-10c4.4-2.1,9.5-3.3,15.1-3.5c5.8-0.2,10.8,1,15,3.5s7.3,6.2,9.5,10.9
		c2.2,4.7,3.2,10.4,3.1,16.8c-0.1,7.3-1.4,13.2-3.9,17.8c-2.5,4.6-5.8,8-10.1,10.2C292.2,143.2,287.3,144.4,281.7,144.5z
		 M281.9,133.4c4,0,7.1-1.6,9.4-4.8c2.3-3.2,3.4-8.6,3.4-16c0-3.9-0.4-7.3-1.3-10.2c-0.9-2.9-2.2-5.2-4-6.8
		c-1.8-1.6-4.1-2.4-6.8-2.4c-2.5,0-4.8,0.6-6.9,1.9c-2.1,1.2-3.7,3.3-4.9,6.2c-1.2,2.9-1.8,6.9-1.8,12c0,3.9,0.5,7.4,1.4,10.4
		c1,3,2.4,5.4,4.3,7.2C276.6,132.5,279,133.4,281.9,133.4z"/>
	<path class="st0" d="M336.4,143.8H321V82.4c0.6,0,1.2,0,1.8,0c0.6,0,1.2,0,1.8,0c0.6,0,1.2,0,1.8,0c2.2,0,4.8-0.1,7.6-0.3
		c2.9-0.2,6.5-0.3,10.9-0.3c2.7,0,5.4,0.3,8.1,0.9c2.7,0.6,5.2,1.6,7.4,3.1c2.2,1.4,4,3.4,5.4,6c1.4,2.5,2,5.7,2,9.6
		c0,4.2-0.7,7.6-2.1,10.4c-1.4,2.7-3.3,4.8-5.8,6.3c-2.5,1.5-5.3,2.5-8.5,3c-1.1,0.2-2.2,0.4-3.2,0.6c-1.1,0.2-2.5,0.4-4.3,0.5
		c-1.8,0.1-4.3,0.2-7.5,0.2V143.8z M336.4,111.4c0.6,0.1,1.3,0.2,2.2,0.2c0.9,0.1,1.9,0.1,2.9,0.1c1,0,1.8,0,2.4,0
		c3.1,0,5.4-1,6.9-3c1.4-2,2.2-4.4,2.2-7.3c0-1.5-0.3-3-0.8-4.3s-1.5-2.5-3-3.3c-1.4-0.9-3.5-1.3-6.2-1.3c-1.1,0-2.2,0.1-3.4,0.2
		s-2.2,0.3-3.2,0.6V111.4z M354.9,143.8c-0.3-0.4-0.6-0.9-0.9-1.5c-0.3-0.6-0.7-1.6-1.3-2.9c-0.8-1.8-1.6-3.8-2.2-5.8
		c-0.7-2-1.3-3.9-2-5.7c-0.7-1.8-1.5-3.2-2.3-4.3c-0.9-1.1-2-1.7-3.3-1.7l3.6-2.8l9.8-1.3c1.5,0.7,2.9,1.8,4,3.4
		c1.1,1.6,2.2,3.4,3.1,5.4c1,2.1,1.9,4.2,2.8,6.4c0.9,2.2,2,4.3,3.1,6.4c0.4,0.7,0.8,1.5,1.3,2.2s0.9,1.5,1.3,2.2H354.9z"/>
	<path class="st0" d="M397.8,144.5c-2.9,0-5.7-0.2-8.4-0.6s-5-0.9-6.9-1.5c-2-0.6-3.3-1.1-4.1-1.6l1.9-12c1,0.6,2.4,1.2,4.1,1.8
		c1.7,0.6,3.7,1.1,5.8,1.6c2.1,0.4,4.2,0.6,6.4,0.6c2.9,0,5-0.4,6.3-1.2c1.3-0.8,2-2.2,2-4c0-1.3-0.4-2.4-1.2-3.4
		c-0.8-0.9-2.1-1.9-4-2.8c-1.8-1-4.3-2.2-7.3-3.6c-2.6-1.2-5-2.7-7.2-4.4c-2.2-1.7-3.9-3.7-5.3-6.1c-1.3-2.4-2-5.2-2-8.5
		c0-2.8,0.5-5.3,1.6-7.4c1.1-2.1,2.6-3.9,4.5-5.3c1.9-1.4,4.3-2.5,6.9-3.2c2.7-0.7,5.6-1.1,8.9-1.1c4.6,0,8.4,0.4,11.3,1.3
		c2.9,0.9,4.9,1.6,6,2.3l-2.4,11.5c-1.2-1-3.2-1.9-5.7-2.7c-2.6-0.8-5.2-1.2-7.9-1.2c-1.9,0-3.5,0.2-4.8,0.6c-1.2,0.4-2.2,1-2.8,1.8
		c-0.6,0.8-0.9,1.7-0.9,2.7c0,1.2,0.4,2.3,1.1,3.3c0.7,1,1.9,1.9,3.4,2.8c1.6,0.9,3.6,2,6.1,3.1c2.6,1.2,5,2.4,7.1,3.6
		c2.1,1.2,3.9,2.6,5.3,4.1c1.5,1.5,2.6,3.1,3.3,5c0.8,1.9,1.1,4,1.1,6.4c0,3.7-0.9,6.9-2.6,9.6c-1.7,2.7-4.3,4.8-7.6,6.3
		C406.7,143.7,402.7,144.5,397.8,144.5z"/>
	<path class="st0" d="M427.3,113.2c0-5.2,0.8-9.8,2.4-13.7c1.6-3.9,3.8-7.2,6.7-9.9c2.9-2.6,6.2-4.6,10-6s7.9-2,12.3-2
		c2.8,0,5.2,0.2,7.1,0.5c1.9,0.3,3.6,0.7,5,1.1c1.4,0.4,2.7,0.7,4,1l-2,13.2c-0.6-0.4-1.4-0.9-2.5-1.4c-1.1-0.6-2.4-1.1-4.1-1.5
		c-1.7-0.4-3.8-0.6-6.2-0.6c-3.1,0-6,0.7-8.5,2.1c-2.5,1.4-4.6,3.5-6,6.2s-2.2,6.1-2.2,10.1c0,4.1,0.7,7.6,2,10.6
		c1.3,3,3.3,5.4,5.9,7.1c2.6,1.7,5.8,2.5,9.6,2.5c1.7,0,3.5-0.2,5.3-0.6c1.8-0.4,3.4-0.9,4.8-1.6c1.4-0.6,2.5-1.2,3.2-1.8v12.7
		c-1,0.4-2.3,0.9-3.7,1.4c-1.4,0.5-3.1,0.9-4.9,1.3c-1.9,0.4-4,0.5-6.4,0.5c-6.8,0-12.5-1.3-17.2-3.8c-4.7-2.6-8.3-6.2-10.7-10.9
		S427.3,119.6,427.3,113.2z"/>
	<path class="st0" d="M484,143.8V82.4h15.5v24.9h21.1V82.4H536v61.5h-15.4v-25.5h-21.1v25.5H484z"/>
	<path class="st0" d="M560.6,143.8V94.2h-16.4V82.4h48.3v11.8h-16.4v49.6H560.6z"/>
</g>
<g>
	<g>
	</g>
</g>
<g>
	<path class="st0" d="M207.1,219l7.1-61.5h20.8l7.4,31.5l2.8,14.4l2.2-14.4l6.6-31.5h20.1l7.6,61.5H267l-2.6-32.3l-0.9-17.7
		l-3.8,18.2l-8.3,32.2h-13.7l-8.9-32.2l-4.1-18.2l-1.1,17.7l-2.4,32.3H207.1z"/>
	<path class="st0" d="M292.4,219v-61.5h15.6V219H292.4z"/>
	<path class="st0" d="M333.3,219v-49.6h-16.4v-11.8h48.3v11.8h-16.4V219H333.3z"/>
</g>
<path class="st0" d="M117.7,83.9l-5,55.6h-47L71,83.9H117.7z M124.5,7.5l-4.6,51.8H73.3l4.9-51.8H46.9l-4.7,51.8H7.1v24.6h32.8
	l-5.1,55.6H1.7v25.6h30.8l-4.9,54h30.6l5.1-54h47.1l-4.8,54h30.3l5.1-54h36.6v-25.6h-34.2l5.2-55.6h35.9V59.3h-33.6l4.9-51.8H124.5z
	"/>
</svg>
