<?xml version="1.0" encoding="utf-8"?>
<svg version="1.1" id="Ebene_1" xmlns="http://www.w3.org/2000/svg" xmlns:xlink="http://www.w3.org/1999/xlink" x="0px" y="0px"
	 viewBox="0 0 255.1 210.8" style="enable-background:new 0 0 255.1 210.8;" xml:space="preserve">
<style type="text/css">
	.st0{fill:#85BA26;}
	.st1{fill:#333333;}
</style>
<g>
	<path class="st0" d="M71.8,81.7l-33.7,2.4c-2.6,0.2-4.7,2.1-5.1,4.6c-0.1,0.4-0.1,0.9-0.1,1.3l0.3,3.8c0.1,0.9-0.2,1.8-0.8,2.5
		l-0.1,0.1c-0.6,0.7-1.5,1.2-2.5,1.2l-0.3,0L25,98c-3.1,0.2-5.4,2.9-5.1,5.9l0,0.5l2.1,29.9c0.1,1.7,1,3.2,2.3,4.1
		c1,0.7,2.3,1.1,3.6,1l4.9-0.3c2-0.1,3.7,1.4,3.9,3.4l0.2,3.3c0.2,2.1,1.5,3.9,3.4,4.7c0.8,0.3,1.7,0.5,2.6,0.4l33.7-2.4L71.8,81.7z
		"/>
	<path class="st0" d="M89.1,155l-8.5,0.6l-19.1,1.3l23.1,43.2c0.9,1.7,2.8,2.8,4.7,2.6l17-1.2c3.6-0.3,5.7-4.1,4-7.3L89.1,155z"/>
	<path class="st0" d="M214.6,12.2c-0.2-0.1-0.6-0.3-1.1-0.2c-0.1,0-0.3,0-0.4,0.1c-0.2,0.1-0.4,0.2-0.6,0.3l-2.2,1.5l-75.7,51.4
		c-6.8,4.6-14.2,8.3-22,10.9c-7.1,2.4-14.5,3.8-22,4.4l-11.3,0.8l1.6,23.3l2.9,41.5l0.1,2l0.1,0l3-0.2l8.2-0.6
		c7.1-0.5,14.2-0.1,21.2,1c8.5,1.4,16.7,4.1,24.5,7.9l1.4,0.7l83.2,40.8c0.4,0.2,0.8,0.3,1.1,0.2c0.5,0,0.9-0.2,1.1-0.4
		c0.3-0.2,1-0.8,1-2l-7.4-106l-2.9-41.5l-2.4-34C215.7,12.9,214.9,12.4,214.6,12.2"/>
	<path class="st0" d="M237.6,76.8c-3.3-4.9-7.2-7.8-10.7-8l1.4,20l2.9,41.5l0.6,9c3.4-0.7,6.8-3.9,9.4-9.1c0-0.1,0.1-0.2,0.1-0.3
		c2.7-5.4,4.2-12.2,4.5-19.5c0.1-2.5,0.1-5-0.1-7.6C245.1,92.8,242.2,83.5,237.6,76.8"/>
	<path class="st0" d="M100.6,160.9l4.3,7.9l0.7-0.1l3.1-0.2c0.1,0,0.2,0,0.4,0c3.4-0.4,6-3.5,5.7-7l-0.4-6l0-0.1
		c-5.7-0.9-11.5-1.2-17.3-0.9L100.6,160.9z"/>
	<path class="st1" d="M69.3,156.4l11.3-1.6l3-0.4l-0.4-3L73.6,85l-0.4-3l-1.3,0.2l-1.7,0.2l-33.5,4.8c-1.4,0.2-2.6,0.7-3.7,1.5
		c-0.7,0.5-1.4,1.2-1.9,1.9c-1.4,1.8-2,4.1-1.6,6.4l0.1,0.8l0.3,0c1-0.1,1.9-0.5,2.5-1.2l0.1-0.1c-0.1-1.2,0.1-2.4,0.7-3.4
		c0.8-1.4,2.3-2.4,4-2.7l33.5-4.8l2.9,19.9l6.7,46.5l-20.9,3l-12.6,1.8c-3,0.4-5.8-1.7-6.3-4.7l-0.2-1.3l-0.3-2
		c-0.2-1.6-1.5-2.9-3.1-3.1c-0.3,0-0.7,0-1,0l-4.8,0.7c-3,0.4-5.8-1.7-6.3-4.7l-0.4-3.1c-1.3-0.9-2.2-2.4-2.3-4.1l-2.1-29.9
		c-1.9,1.9-2.9,4.5-2.5,7.3l4.3,30.1c0.7,4.7,5,7.9,9.7,7.3l4.8-0.7c0.3,0,0.6,0.2,0.7,0.5l0.5,3.3c0.7,4.7,5,7.9,9.7,7.3l12.6-1.8
		l2.1-0.3L69.3,156.4z"/>
	<path class="st1" d="M113.8,202.5l-16.9,2.4c-1.9,0.3-3.9-0.6-4.9-2.3l-26.2-41.4l19-2.7l8.4-1.2l24,37.6
		C119.2,197.9,117.4,201.9,113.8,202.5 M95.8,155.6l-1.1-1.6l-1.9,0.3l-8.4,1.2l-19,2.7l-4.6,0.7l2.5,4l26.2,41.4
		c1.7,2.7,4.8,4.1,7.9,3.6l16.9-2.4c2.7-0.4,5-2.1,6.1-4.6c1.1-2.5,0.9-5.3-0.5-7.6L95.8,155.6z"/>
	<path class="st1" d="M121.4,155.4l-0.3-2.4l-2.4-0.2c-6-0.5-12-0.4-17.9,0.3l-4.8,0.6l2.6,4l2,3.1l-3.5-6.4
		c5.8-0.3,11.6,0,17.3,0.9l0,0.1c1.3,0,2.7,0.1,4,0.2l0.9,6.1c0.5,3.6-2,6.9-5.6,7.5l-3.8,0.5l-0.9-1.3c-0.1,0-0.2,0-0.4,0l-3.1,0.2
		l1.7,2.7l1.1,1.6l1.9-0.3l3.8-0.5c2.5-0.4,4.8-1.7,6.3-3.8c1.5-2.1,2.2-4.6,1.8-7.1L121.4,155.4z"/>
	<path class="st1" d="M218.2,48.1l2.9,41.5l14.1,98c0.2,1.1-0.5,1.8-0.8,2c-0.2,0.1-0.6,0.4-1.1,0.5c-0.3,0-0.7,0-1.1-0.1l-4.2-1.7
		l-83.1-33.5c-9.1-3.7-18.8-5.8-28.5-6.4c-5.9-0.3-11.8-0.1-17.7,0.8l-4.1,0.6l-7.1,1l-0.4-2.9l-3,0.2l0.4,3.1l0.4,3l3-0.4l7.1-1
		l4.1-0.6c14.5-2.1,29.4-0.4,43.1,4.8c0.5,0.2,1,0.4,1.5,0.6l84.5,34.1l2.8,1.1c0.9,0.4,1.8,0.5,2.7,0.3c1.1-0.2,2-0.7,2.5-1.1
		c1.5-1.2,2.2-3,1.9-4.9L218.2,48.1z"/>
	<path class="st1" d="M74.4,81.8l0.4,3l8.8,61.3l-2.9-41.5l-2.9-20.2l1.5-0.2l9.8-1.4c8.1-1.2,15.9-3.4,23.4-6.7
		c6.9-3,13.5-7,19.4-11.7L205.7,6c0.4-0.3,0.7-0.4,1-0.5c0.5-0.1,0.9,0.1,1.1,0.1c0.4,0.1,1.2,0.6,1.4,1.7l0.9,6.4l2.2-1.5
		c0.2-0.1,0.4-0.2,0.6-0.3L212.3,7c-0.3-1.9-1.5-3.4-3.2-4.1c-0.6-0.2-1.6-0.5-2.7-0.3h0c-0.9,0.1-1.7,0.5-2.5,1.1L130,62
		c-12,9.4-26.3,15.6-41.3,17.8l-11.2,1.6L74.4,81.8z"/>
	<path class="st1" d="M248.7,93.5c-1.5-10.6-5.3-20.2-10.7-26.9c-4.3-5.4-9.2-8.4-13.7-8.3l-3.4,0.1l0.5,3.4l9.9,68.6l-2.9-41.5
		l-4-27.5c3.5-0.1,7.6,2.5,11.3,7.2c5,6.3,8.6,15.4,10,25.5c0.8,5.8,0.9,11.4,0.2,16.6c-0.3,7.3-1.9,14-4.5,19.5
		c0,0.1-0.1,0.2-0.1,0.3c1.9-2,3.5-4.7,4.8-7.9C249.2,114.3,250.2,104.1,248.7,93.5"/>
	<path class="st1" d="M204.6,189.2l-1.7-0.8c-0.1,0-0.2-0.1-0.3-0.1c-0.8-0.2-1.7,0.2-2.1,0.9c-0.4,0.9-0.1,2,0.8,2.4l1.7,0.8
		c0.9,0.4,2,0.1,2.4-0.8S205.4,189.6,204.6,189.2"/>
	<path class="st1" d="M211.8,192.7l-1.7-0.8c-0.1,0-0.2-0.1-0.3-0.1c-0.8-0.2-1.7,0.2-2.1,0.9c-0.4,0.9-0.1,2,0.8,2.4l1.7,0.8
		c0.9,0.4,2,0.1,2.4-0.8S212.6,193.1,211.8,192.7"/>
	<path class="st1" d="M219,196.2l-1.7-0.8c-0.1,0-0.2-0.1-0.3-0.1c-0.8-0.2-1.7,0.2-2.1,0.9c-0.4,0.9-0.1,2,0.8,2.4l1.7,0.8
		c0.9,0.4,2,0.1,2.4-0.8S219.9,196.6,219,196.2"/>
	<path class="st1" d="M183.4,178.7l-1.7-0.8c-0.1,0-0.2-0.1-0.3-0.1c-0.8-0.2-1.7,0.2-2.1,0.9c-0.4,0.9-0.1,2,0.8,2.4l1.7,0.8
		c0.9,0.4,2,0.1,2.4-0.8S184.3,179.1,183.4,178.7"/>
	<path class="st1" d="M190.6,182.2l-1.7-0.8c-0.1,0-0.2-0.1-0.3-0.1c-0.8-0.2-1.7,0.2-2.1,0.9c-0.4,0.9-0.1,2,0.8,2.4l1.7,0.8
		c0.9,0.4,2,0.1,2.4-0.8S191.5,182.7,190.6,182.2"/>
	<path class="st1" d="M197.8,185.7l-1.7-0.8c-0.1,0-0.2-0.1-0.3-0.1c-0.8-0.2-1.7,0.2-2.1,0.9c-0.4,0.9-0.1,2,0.8,2.4l1.7,0.8
		c0.9,0.4,2,0.1,2.4-0.8S198.7,186.2,197.8,185.7"/>
	<path class="st1" d="M67,80.5l1.9-0.2c1-0.1,1.7-1,1.6-1.9c-0.1-1-1-1.7-1.9-1.6l-1.9,0.2c-0.1,0-0.2,0-0.3,0.1
		c-0.8,0.2-1.4,1-1.3,1.9C65.1,79.9,66,80.6,67,80.5"/>
	<path class="st1" d="M75,79.8l1.9-0.2c1-0.1,1.7-1,1.6-1.9c-0.1-1-1-1.7-1.9-1.6l-1.9,0.2c-0.1,0-0.2,0-0.3,0.1
		c-0.8,0.2-1.4,1-1.3,1.9C73.1,79.2,74,79.9,75,79.8"/>
	<path class="st1" d="M82.9,79.1l1.9-0.2c1-0.1,1.7-1,1.6-1.9c-0.1-1-1-1.7-1.9-1.6l-1.9,0.2c-0.1,0-0.2,0-0.3,0.1
		c-0.8,0.2-1.4,1-1.3,1.9C81.1,78.5,81.9,79.2,82.9,79.1"/>
	<path class="st1" d="M43.4,82.4l1.9-0.2c1-0.1,1.7-1,1.6-1.9c-0.1-1-1-1.7-1.9-1.6l-1.9,0.2c-0.1,0-0.2,0-0.3,0.1
		c-0.8,0.2-1.4,1-1.3,1.9C41.6,81.8,42.4,82.5,43.4,82.4"/>
	<path class="st1" d="M51.4,81.7l1.9-0.2c1-0.1,1.7-1,1.6-1.9c-0.1-1-1-1.7-1.9-1.6l-1.9,0.2c-0.1,0-0.2,0-0.3,0.1
		c-0.8,0.2-1.4,1-1.3,1.9C49.6,81.1,50.4,81.8,51.4,81.7"/>
	<path class="st1" d="M59.4,81l1.9-0.2c1-0.1,1.7-1,1.6-1.9c-0.1-1-1-1.7-1.9-1.6l-1.9,0.2c-0.1,0-0.2,0-0.3,0.1
		c-0.8,0.2-1.4,1-1.3,1.9C57.5,80.4,58.4,81.1,59.4,81"/>
	<path class="st1" d="M132.3,174.2l-2.7,3.1c-0.6,0.7-0.5,1.6,0.2,2.2c0.7,0.6,1.6,0.5,2.2-0.2l2.7-3.1c0.6-0.7,0.5-1.6-0.2-2.2
		C133.8,173.5,132.9,173.6,132.3,174.2"/>
	<path class="st1" d="M143.7,161.1l-2.7,3.1c-0.6,0.7-0.5,1.6,0.2,2.2c0.7,0.6,1.6,0.5,2.2-0.2l2.7-3.1c0.6-0.7,0.5-1.6-0.2-2.2
		C145.3,160.4,144.3,160.5,143.7,161.1"/>
	<path class="st1" d="M143.9,173.4c-0.7-0.6-1.6-0.5-2.2,0.2c-0.6,0.7-0.5,1.6,0.2,2.2l3.1,2.7c0.7,0.6,1.6,0.5,2.2-0.2
		c0.6-0.7,0.5-1.6-0.2-2.2L143.9,173.4z"/>
	<path class="st1" d="M130.7,162c-0.7-0.6-1.6-0.5-2.2,0.2c-0.6,0.7-0.5,1.6,0.2,2.2l3.1,2.7c0.7,0.6,1.6,0.5,2.2-0.2
		c0.6-0.7,0.5-1.6-0.2-2.2L130.7,162z"/>
	<path class="st1" d="M92.2,75.1l1.9-2.2c0.4-0.5,0.4-1.2-0.1-1.6c-0.5-0.4-1.2-0.4-1.6,0.1l-1.9,2.2c-0.4,0.5-0.4,1.2,0.1,1.6
		C91.1,75.6,91.8,75.5,92.2,75.1"/>
	<path class="st1" d="M100.3,65.8l1.9-2.2c0.4-0.5,0.4-1.2-0.1-1.6c-0.5-0.4-1.2-0.4-1.6,0.1l-1.9,2.2c-0.4,0.5-0.4,1.2,0.1,1.6
		C99.2,66.3,99.9,66.3,100.3,65.8"/>
	<path class="st1" d="M101.4,74.4c0.5,0.4,1.2,0.4,1.6-0.1c0.4-0.5,0.4-1.2-0.1-1.6l-2.2-1.9c-0.5-0.4-1.2-0.4-1.6,0.1
		c-0.4,0.5-0.4,1.2,0.1,1.6L101.4,74.4z"/>
	<path class="st1" d="M92.1,66.4c0.5,0.4,1.2,0.4,1.6-0.1c0.4-0.5,0.4-1.2-0.1-1.6l-2.2-1.9c-0.5-0.4-1.2-0.4-1.6,0.1
		c-0.4,0.5-0.4,1.2,0.1,1.6L92.1,66.4z"/>
	<path class="st1" d="M219.6,25.8l1.9-2.2c0.4-0.5,0.4-1.2-0.1-1.6c-0.5-0.4-1.2-0.4-1.6,0.1l-1.9,2.2c-0.4,0.5-0.4,1.2,0.1,1.6
		C218.5,26.4,219.2,26.3,219.6,25.8"/>
	<path class="st1" d="M227.6,16.6l1.9-2.2c0.4-0.5,0.4-1.2-0.1-1.6c-0.5-0.4-1.2-0.4-1.6,0.1l-1.9,2.2c-0.4,0.5-0.4,1.2,0.1,1.6
		C226.5,17.1,227.2,17,227.6,16.6"/>
	<path class="st1" d="M228.7,25.2c0.5,0.4,1.2,0.4,1.6-0.1c0.4-0.5,0.4-1.2-0.1-1.6l-2.2-1.9c-0.5-0.4-1.2-0.4-1.6,0.1
		c-0.4,0.5-0.4,1.2,0.1,1.6L228.7,25.2z"/>
	<path class="st1" d="M219.4,17.1c0.5,0.4,1.2,0.4,1.6-0.1c0.4-0.5,0.4-1.2-0.1-1.6l-2.2-1.9c-0.5-0.4-1.2-0.4-1.6,0.1
		c-0.4,0.5-0.4,1.2,0.1,1.6L219.4,17.1z"/>
	<path class="st1" d="M237.5,149.2l-1.9,2.2c-0.4,0.5-0.4,1.2,0.1,1.6c0.5,0.4,1.2,0.4,1.6-0.1l1.9-2.2c0.4-0.5,0.4-1.2-0.1-1.6
		C238.6,148.7,237.9,148.7,237.5,149.2"/>
	<path class="st1" d="M245.5,139.9l-1.9,2.2c-0.4,0.5-0.4,1.2,0.1,1.6c0.5,0.4,1.2,0.4,1.6-0.1l1.9-2.2c0.4-0.5,0.4-1.2-0.1-1.6
		C246.6,139.4,245.9,139.4,245.5,139.9"/>
	<path class="st1" d="M245.7,148.6c-0.5-0.4-1.2-0.4-1.6,0.1c-0.4,0.5-0.4,1.2,0.1,1.6l2.2,1.9c0.5,0.4,1.2,0.4,1.6-0.1
		c0.4-0.5,0.4-1.2-0.1-1.6L245.7,148.6z"/>
	<path class="st1" d="M236.4,140.5c-0.5-0.4-1.2-0.4-1.6,0.1c-0.4,0.5-0.4,1.2,0.1,1.6l2.2,1.9c0.5,0.4,1.2,0.4,1.6-0.1
		c0.4-0.5,0.4-1.2-0.1-1.6L236.4,140.5z"/>
	<path class="st1" d="M8.8,142.2l-1.9,2.2c-0.4,0.5-0.4,1.2,0.1,1.6c0.5,0.4,1.2,0.4,1.6-0.1l1.9-2.2c0.4-0.5,0.4-1.2-0.1-1.6
		C9.9,141.7,9.2,141.8,8.8,142.2"/>
	<path class="st1" d="M16.9,132.9l-1.9,2.2c-0.4,0.5-0.4,1.2,0.1,1.6c0.5,0.4,1.2,0.4,1.6-0.1l1.9-2.2c0.4-0.5,0.4-1.2-0.1-1.6
		C18,132.4,17.3,132.5,16.9,132.9"/>
	<path class="st1" d="M17,141.6c-0.5-0.4-1.2-0.4-1.6,0.1c-0.4,0.5-0.4,1.2,0.1,1.6l2.2,1.9c0.5,0.4,1.2,0.4,1.6-0.1
		c0.4-0.5,0.4-1.2-0.1-1.6L17,141.6z"/>
	<path class="st1" d="M7.7,133.6c-0.5-0.4-1.2-0.4-1.6,0.1c-0.4,0.5-0.4,1.2,0.1,1.6l2.2,1.9c0.5,0.4,1.2,0.4,1.6-0.1
		c0.4-0.5,0.4-1.2-0.1-1.6L7.7,133.6z"/>
</g>
</svg>
