<?xml version="1.0" encoding="utf-8"?>
<!-- Generator: Adobe Illustrator 25.4.1, SVG Export Plug-In . SVG Version: 6.00 Build 0)  -->
<svg version="1.1" id="Ebene_1" xmlns="http://www.w3.org/2000/svg" xmlns:xlink="http://www.w3.org/1999/xlink" x="0px" y="0px"
	 viewBox="0 0 270.7 100.5" style="enable-background:new 0 0 270.7 100.5;" xml:space="preserve">
<style type="text/css">
	.st0{fill:#878282;}
</style>
<g>
	<path d="M131.8,40.6l5.7,13.5h-11.4L131.8,40.6z M163.2,36.9h4.7c3.9,0,7.4,1.6,7.4,5.8c0,4.3-3,6.3-7.3,6.3h-4.7V36.9H163.2z
		 M247.7,33.4v33.8H266v-3.5h-14.5V50.4H264v-3.5h-12.5v-10h14v-3.5H247.7z M213.9,33.4v3.5h8.2v30.3h3.8V36.9h8.3v-3.5L213.9,33.4
		L213.9,33.4z M195.9,67.2h3.8V33.4h-3.8V67.2z M159.4,33.4v33.8h3.8V52.4h5.1l7.7,14.8h4.4l-8.2-15.4c3.5-1,6.9-3.7,6.9-9.1
		c0-6.8-5.1-9.3-10.7-9.3L159.4,33.4L159.4,33.4z M99.6,67.2h3.8V33.4h-3.8V67.2z M79.2,33.4v33.8H83V50.6h11.5v-3.5H83V33.4
		L79.2,33.4L79.2,33.4z M54.4,32.8c-11,0-17.9,8.2-17.9,17.7s6.9,17.4,17.9,17.4c3.6,0,7.1-1.2,10-3.3v-4.5
		c-2.7,2.7-6.3,4.4-10.1,4.4c-8.2,0-13.6-6.8-13.6-14.2c0-7.4,5.3-14.2,13.5-14.2c3.9,0,7.5,1.6,10.2,4.4V36
		C61.4,33.8,58.1,32.8,54.4,32.8 M131.8,31.9l-0.7,1.6l-14.9,33.8h4.1l4.1-9.6h14.4l4,9.6h4.2l-14.5-33.8L131.8,31.9z M258.4,21.2
		l-5.3,7.4l2.2,1.2l6.9-6.9L258.4,21.2z"/>
	<path class="st0" d="M2.2,50.3c0-26.9,21.7-48.8,49.2-48.8c12,0,23,4.4,31.5,11.6v7.5c-7.8-8.3-19-13.5-31.3-13.5
		c-24.1,0-42.9,19.3-42.9,43c0,23.8,18.8,43,42.9,43c12.3,0,23.5-5.2,31.3-13.5v7.8C74.4,94.6,63.4,99,51.4,99
		C24,99.1,2.2,77.3,2.2,50.3"/>
	<path class="st0" d="M227.5,83.8h2.2c0.9,0,1.4,0.5,1.4,1.3s-0.4,1.3-1.5,1.3h-2.1L227.5,83.8L227.5,83.8z M155.7,80.9
		c0.1,0.3,0.4,1.3,0.6,1.8l0.6,1.8h-2.5l0.6-1.8C155.3,82.1,155.6,81.2,155.7,80.9 M193,80.7h1c1.9,0,2.7,1.1,2.7,2.8
		c0,1.7-0.8,2.8-2.7,2.8h-1V80.7z M242.6,80.7h2.3c0.8,0,1.4,0.5,1.4,1.3c0,0.9-0.6,1.3-1.4,1.3h-2.3V80.7z M127.7,80.7h2.3
		c0.8,0,1.3,0.5,1.3,1.3c0,0.9-0.6,1.3-1.3,1.3h-2.3V80.7z M227.5,80.6h2.1c0.8,0,1.1,0.5,1.1,1.1c0,0.5-0.3,1-1.1,1h-2.1
		L227.5,80.6L227.5,80.6z M260.1,79.5v8h1.2v-4.1c0-0.4,0-1.5,0-1.8c0.1,0.2,0.4,0.7,0.6,1l3.2,5h1.1v-8H265v4.1c0,0.4,0,1.6,0,1.9
		c-0.1-0.2-0.5-0.8-0.7-1.1l-3-4.9h-1.2V79.5z M256.6,87.5h1.2v-8h-1.2V87.5z M249.6,79.5v8h5.2v-1.2h-4v-6.8H249.6z M241.4,79.5v8
		h1.2v-3.2h1.8l1.6,3.2h1.4l-1.6-3.3c1.1-0.3,1.8-1.1,1.8-2.3c0-1.6-1.2-2.4-2.6-2.4L241.4,79.5L241.4,79.5z M234.2,79.5v8h5.3v-1.2
		h-4.1v-2.5h2.3v-1.2h-2.3v-2h3.9v-1.2h-5.1V79.5z M226.3,79.5v8h3.2c0.1,0,0.2,0,0.3,0c1.5-0.1,2.4-0.9,2.4-2.4
		c0-1.1-0.7-1.7-1.3-1.9c0.6-0.3,1-0.8,1-1.6c0-1.3-0.9-2.1-2.3-2.1H226.3z M214.7,79.5v8h1.2v-4.1c0-0.4,0-1.5,0-1.8
		c0.1,0.2,0.4,0.7,0.6,1l3.2,5h1.1v-8h-1.2v4.1c0,0.4,0,1.6,0,1.9c-0.1-0.2-0.5-0.8-0.7-1.1l-3-4.9h-1.2V79.5z M211.2,87.5h1.2v-8
		h-1.2V87.5z M203.2,79.5v1.1h3c0.5,0,1.3,0,1.6,0c-0.2,0.2-0.6,0.7-0.9,1l-3.9,4.7v1.2h6.1v-1.1H206c-0.5,0-1.3,0-1.6,0
		c0.2-0.2,0.6-0.7,0.9-1l3.9-4.7v-1.2H203.2z M199.8,87.5h1.2v-8h-1.2V87.5z M191.8,79.5v8h2.2c2.1,0,3.9-1.2,3.9-4s-1.7-4-3.9-4
		H191.8z M184.6,79.5v8h5.3v-1.2h-4.1v-2.5h2.3v-1.2h-2.3v-2h3.9v-1.2h-5.1V79.5z M175.2,79.5v8h1.1v-4.2c0-0.5,0-1.2,0-1.4
		c0.1,0.2,0.3,0.8,0.5,1.3l1.9,4.5l1.9-4.5c0.2-0.5,0.4-1,0.5-1.3c0,0.2,0,0.9,0,1.4v4.2h1.2v-8H181l-1.8,4.3
		c-0.1,0.2-0.2,0.5-0.3,0.7c-0.1,0.2-0.2,0.5-0.2,0.6c-0.1-0.3-0.4-0.9-0.6-1.4l-1.8-4.3L175.2,79.5L175.2,79.5z M160.5,79.5v1.2
		h2.3v6.8h1.2v-6.8h2.3v-1.2H160.5z M155.1,79.5l-2.9,8h1.2l0.7-1.9h3.2l0.7,1.9h1.3l-2.9-8H155.1z M145.1,79.5v1.2h2.3v6.8h1.2
		v-6.8h2.3v-1.2H145.1z M142,87.5h1.2v-8H142V87.5z M126.5,79.5v8h1.2v-3.2h1.8l1.6,3.2h1.4l-1.6-3.3c1.1-0.3,1.8-1.1,1.8-2.3
		c0-1.6-1.2-2.4-2.6-2.4L126.5,79.5L126.5,79.5z M119.3,79.5v8h5.3v-1.2h-4.1v-2.5h2.3v-1.2h-2.3v-2h3.9v-1.2h-5.1V79.5z
		 M110.7,79.5l2.8,8h1.3l2.7-8h-1.3l-1.6,5.1c-0.1,0.2-0.2,0.5-0.3,0.8c-0.1,0.3-0.2,0.5-0.2,0.7c-0.1-0.3-0.3-1-0.4-1.5l-1.7-5.1
		H110.7z M107.7,87.5h1.2v-8h-1.2V87.5z M99.3,79.5v8h1.2v-4.1c0-0.4,0-1.5,0-1.8c0.1,0.2,0.4,0.7,0.6,1l3.2,5h1.1v-8h-1.2v4.1
		c0,0.4,0,1.6,0,1.9c-0.1-0.2-0.5-0.8-0.7-1.1l-3-4.9h-1.2V79.5z M91,79.5v4.6c0,2.2,1,3.5,3,3.5s3.1-1.2,3.1-3.5v-4.7h-1.2v4.7
		c0,1.5-0.6,2.2-1.8,2.2c-1.2,0-1.8-0.8-1.8-2.3v-4.6L91,79.5L91,79.5z M170.3,79.4c-1.5,0-2.6,0.8-2.6,2.2c0,1.4,0.8,1.8,2.5,2.3
		c1.3,0.4,1.8,0.7,1.8,1.3c0,0.6-0.3,0.9-0.9,1.1c-0.1,0-0.2,0-0.3,0.1c-0.1,0-0.3,0-0.4,0c-0.8,0-1.5-0.4-2.1-1l-0.9,0.8
		c0.6,0.7,1.4,1.2,2.4,1.3c0.1,0,0.3,0,0.4,0c2,0,3-1,3-2.4c0-0.4-0.1-0.8-0.3-1.1c0-0.1-0.1-0.1-0.1-0.2c-0.4-0.5-1.2-0.8-2.2-1.1
		c-0.3-0.1-0.6-0.2-0.9-0.3c-0.1,0-0.2-0.1-0.3-0.1c-0.4-0.2-0.6-0.5-0.6-0.8c0-0.1,0-0.1,0-0.2s0-0.1,0.1-0.2
		c0.2-0.4,0.6-0.6,1.3-0.6c0.7,0,1.2,0.2,1.7,0.6c0.1,0.1,0.1,0.1,0.2,0.2l0.8-0.9C172.2,79.8,171.4,79.4,170.3,79.4 M137.1,79.4
		c-0.3,0-0.5,0-0.8,0.1c-0.1,0-0.2,0-0.2,0.1c-0.1,0-0.2,0.1-0.2,0.1c-0.1,0-0.1,0.1-0.2,0.1c-0.7,0.4-1.2,1-1.2,1.9
		c0,0.6,0.1,1,0.5,1.4l0.1,0.1c0.1,0.1,0.2,0.2,0.4,0.2c0.1,0.1,0.3,0.1,0.4,0.2c0.3,0.1,0.7,0.3,1.1,0.4c0.2,0.1,0.3,0.1,0.5,0.1
		c1,0.3,1.3,0.6,1.3,1.2s-0.3,0.9-0.9,1.1c-0.1,0-0.2,0-0.3,0.1c-0.1,0-0.3,0-0.4,0c-0.8,0-1.5-0.4-2.1-1l-0.9,0.8
		c0.6,0.7,1.4,1.2,2.4,1.3c0.1,0,0.3,0,0.4,0c2,0,3-1,3-2.4c0-0.4-0.1-0.8-0.3-1.1c0-0.1-0.1-0.1-0.1-0.2c-0.4-0.5-1.2-0.8-2.2-1.1
		c-0.3-0.1-0.6-0.2-0.9-0.3c-0.1,0-0.2-0.1-0.3-0.1c-0.4-0.2-0.6-0.5-0.6-0.8c0-0.1,0-0.1,0-0.2s0-0.1,0.1-0.2
		c0.2-0.4,0.6-0.6,1.3-0.6c0.7,0,1.2,0.2,1.7,0.6c0.1,0.1,0.1,0.1,0.2,0.2l0.8-0.9C139,79.8,138.2,79.4,137.1,79.4 M156.8,77.5
		c-0.1,0-0.1,0-0.2,0c-0.3,0.1-0.6,0.4-0.6,0.8s0.4,0.8,0.8,0.8s0.8-0.4,0.8-0.8C157.5,77.8,157.2,77.5,156.8,77.5 M154.6,77.5
		c-0.4,0-0.8,0.4-0.8,0.8s0.4,0.8,0.8,0.8s0.8-0.4,0.8-0.8C155.3,77.8,155,77.5,154.6,77.5"/>
</g>
</svg>
