<?xml version="1.0" encoding="utf-8"?>
<!-- Generator: Adobe Illustrator 25.4.1, SVG Export Plug-In . SVG Version: 6.00 Build 0)  -->
<svg version="1.1" id="Ebene_1" xmlns="http://www.w3.org/2000/svg" xmlns:xlink="http://www.w3.org/1999/xlink" x="0px" y="0px"
	 viewBox="0 0 102.9 499.8" style="enable-background:new 0 0 102.9 499.8;" xml:space="preserve">
<style type="text/css">
	.st0{fill:#A3A3A2;}
	.st1{fill:#C41721;}
	.st2{fill:#99C31C;}
	.st3{fill:#1A3966;}
</style>
<polygon class="st0" points="78.5,325.3 102.9,349.7 102.9,300.9 "/>
<polygon class="st1" points="78.5,225.2 102.9,249.6 102.9,200.8 "/>
<polygon class="st2" points="78.5,175.1 102.9,199.6 102.9,150.7 "/>
<polyline class="st3" points="102.9,499.8 102.9,451 78.5,475.4 102.9,499.8 "/>
<polyline class="st3" points="28.5,225.2 53.5,200.2 53.5,250.2 28.5,225.2 "/>
<polygon class="st0" points="53.5,350.3 102.9,350.3 102.9,349.7 78.5,325.3 "/>
<polygon class="st2" points="53.5,50 102.9,50 102.9,49.4 78.5,25 "/>
<polygon class="st2" points="53.5,200.2 102.9,200.2 102.9,199.6 78.5,175.1 "/>
<polyline class="st3" points="102.9,499.8 78.5,475.4 53.5,500.4 "/>
<polyline class="st3" points="28.5,225.2 53.5,250.2 3.4,250.2 "/>
<polygon class="st2" points="53.5,50 53.5,0 78.5,25 "/>
<polygon class="st1" points="53.5,200.2 78.5,225.2 102.9,200.8 102.9,200.2 "/>
</svg>
