<?xml version="1.0" encoding="utf-8"?>
<!-- Generator: Adobe Illustrator 25.4.1, SVG Export Plug-In . SVG Version: 6.00 Build 0)  -->
<svg version="1.1" id="Ebene_1" xmlns="http://www.w3.org/2000/svg" xmlns:xlink="http://www.w3.org/1999/xlink" x="0px" y="0px"
	 viewBox="0 0 510 869.8" style="enable-background:new 0 0 510 869.8;" xml:space="preserve">
<style type="text/css">
	.st0{fill:#1A3966;}
	.st1{fill:#99C31C;}
	.st2{fill:#C41721;}
	.st3{fill:#A3A3A2;}
</style>
<polygon class="st0" points="350.3,605.8 350.3,656 325.3,630.9 "/>
<polygon class="st1" points="350.3,555.6 350.3,605.8 325.3,580.7 "/>
<polygon class="st1" points="149.7,129.1 149.7,179.3 124.6,154.2 "/>
<polygon class="st1" points="149.7,555.6 149.7,605.8 124.6,580.7 "/>
<polygon class="st2" points="450.7,505.4 450.7,555.6 425.6,530.5 "/>
<polygon class="st0" points="250,505.4 250,555.6 224.9,530.5 "/>
<polygon class="st0" points="250,154.2 250,204.4 224.9,179.3 "/>
<polygon class="st0" points="49.3,605.8 49.3,656 24.2,630.9 "/>
<polygon class="st1" points="49.3,329.8 49.3,380 24.2,354.9 "/>
<polygon class="st3" points="49.3,706.1 49.3,756.3 24.2,731.2 "/>
<polygon class="st2" points="49.3,179.3 49.3,229.5 24.2,204.4 "/>
<polygon class="st0" points="300.2,605.8 300.2,656 275.1,630.9 "/>
<polygon class="st2" points="300.2,104 300.2,154.2 275.1,129.1 "/>
<polygon class="st0" points="300.2,417 300.2,467.2 275.1,442.1 "/>
<polygon class="st3" points="99.5,279.7 99.5,329.8 74.4,304.7 "/>
<polygon class="st1" points="99.5,756.3 99.5,806.5 74.4,781.4 "/>
<polygon class="st3" points="400.5,367.5 400.5,417.6 375.4,392.5 "/>
<polygon class="st2" points="400.5,505.4 400.5,555.6 375.4,530.5 "/>
<polygon class="st0" points="199.8,79 199.8,129.1 174.7,104 "/>
<polygon class="st0" points="199.8,656 199.8,706.1 174.7,681 "/>
<polygon class="st0" points="199.8,179.3 199.8,229.5 174.7,204.4 "/>
<polygon class="st1" points="199.8,555.6 199.8,605.8 174.7,580.7 "/>
<polygon class="st0" points="350.3,656 300.2,656 325.3,630.9 "/>
<polygon class="st2" points="350.3,254.6 300.2,254.6 325.3,229.5 "/>
<polygon class="st1" points="149.7,179.3 99.5,179.3 124.6,154.2 "/>
<polygon class="st2" points="450.7,555.6 400.5,555.6 425.6,530.5 "/>
<polygon class="st0" points="250,555.6 199.8,555.6 224.9,530.5 "/>
<polygon class="st1" points="250,605.8 199.8,605.8 224.9,580.7 "/>
<polygon class="st0" points="0,655.1 0,656 49.3,656 24.2,630.9 "/>
<polygon class="st1" points="0,379.1 0,380 49.3,380 24.2,354.9 "/>
<polygon class="st2" points="0,604.4 0,605.3 49.3,605.3 24.2,580.2 "/>
<polygon class="st3" points="0,755.4 0,756.3 49.3,756.3 24.2,731.2 "/>
<polygon class="st2" points="0,228.6 0,229.5 49.3,229.5 24.2,204.4 "/>
<polygon class="st0" points="99.5,656 49.3,656 74.4,630.9 "/>
<polygon class="st1" points="99.5,380 49.3,380 74.4,354.9 "/>
<polygon class="st0" points="99.5,555.6 49.3,555.6 74.4,530.5 "/>
<polygon class="st2" points="99.5,53.4 49.3,53.4 74.4,28.3 "/>
<polygon class="st0" points="400.5,656 350.3,656 375.4,630.9 "/>
<polygon class="st2" points="400.5,555.6 350.3,555.6 375.4,530.5 "/>
<polygon class="st2" points="199.8,329.8 149.7,329.8 174.7,304.7 "/>
<polygon class="st0" points="199.8,129.1 149.7,129.1 174.7,104 "/>
<polygon class="st2" points="199.8,467.2 149.7,467.2 174.7,442.1 "/>
<polygon class="st0" points="199.8,229.5 149.7,229.5 174.7,204.4 "/>
<polygon class="st1" points="199.8,605.8 149.7,605.8 174.7,580.7 "/>
<polygon class="st0" points="300.2,656 300.2,605.8 325.3,630.9 "/>
<polygon class="st2" points="300.2,254.6 300.2,204.4 325.3,229.5 "/>
<polygon class="st0" points="300.2,467.2 300.2,417 325.3,442.1 "/>
<polygon class="st3" points="99.5,329.8 99.5,279.7 124.6,304.7 "/>
<polygon class="st3" points="400.5,417.6 400.5,367.5 425.6,392.5 "/>
<polygon class="st2" points="400.5,555.6 400.5,505.4 425.6,530.5 "/>
<polygon class="st1" points="199.8,605.8 199.8,555.6 224.9,580.7 "/>
<polygon class="st2" points="0,855.8 24.2,831.6 0,807.3 "/>
<polygon class="st2" points="0,554.7 24.2,530.5 0,506.3 "/>
<polygon class="st2" points="0,228.6 24.2,204.4 0,180.2 "/>
<polygon class="st2" points="450.7,555.6 450.7,505.4 475.8,530.5 "/>
<polygon class="st0" points="250,204.4 250,154.2 275.1,179.3 "/>
<polygon class="st0" points="49.3,656 49.3,605.8 74.4,630.9 "/>
<polygon class="st1" points="49.3,380 49.3,329.8 74.4,354.9 "/>
<polygon class="st0" points="49.3,555.6 49.3,505.4 74.4,530.5 "/>
<polygon class="st2" points="49.3,53.4 49.3,3.2 74.4,28.3 "/>
<polygon class="st2" points="49.3,229.5 49.3,179.3 74.4,204.4 "/>
<polygon class="st0" points="49.3,605.8 49.3,555.6 74.4,580.7 "/>
<polygon class="st0" points="350.3,656 350.3,605.8 375.4,630.9 "/>
<polygon class="st2" points="149.7,329.8 149.7,279.7 174.7,304.7 "/>
<polygon class="st2" points="149.7,467.2 149.7,417 174.7,442.1 "/>
<polygon class="st1" points="149.7,605.8 149.7,555.6 174.7,580.7 "/>
<polygon class="st0" points="300.2,605.8 350.3,605.8 325.3,630.9 "/>
<polygon class="st1" points="300.2,555.6 350.3,555.6 325.3,580.7 "/>
<polygon class="st3" points="99.5,279.7 149.7,279.7 124.6,304.7 "/>
<polygon class="st1" points="99.5,555.6 149.7,555.6 124.6,580.7 "/>
<polygon class="st3" points="400.5,367.5 450.7,367.5 425.6,392.5 "/>
<polygon class="st2" points="400.5,505.4 450.7,505.4 425.6,530.5 "/>
<polygon class="st0" points="199.8,154.2 250,154.2 224.9,179.3 "/>
<polygon class="st2" points="0,505.4 0,506.3 24.2,530.5 49.3,505.4 "/>
<polygon class="st2" points="0,179.3 0,180.2 24.2,204.4 49.3,179.3 "/>
<polygon class="st2" points="450.7,505.4 500.9,505.4 475.8,530.5 "/>
<polygon class="st0" points="250,605.8 300.2,605.8 275.1,630.9 "/>
<polygon class="st1" points="250,204.4 300.2,204.4 275.1,229.5 "/>
<polygon class="st0" points="250,154.2 300.2,154.2 275.1,179.3 "/>
<polygon class="st3" points="49.3,279.7 99.5,279.7 74.4,304.7 "/>
<polygon class="st2" points="49.3,179.3 99.5,179.3 74.4,204.4 "/>
<polygon class="st1" points="49.3,756.3 99.5,756.3 74.4,781.4 "/>
<polygon class="st0" points="49.3,555.6 99.5,555.6 74.4,580.7 "/>
<polygon class="st3" points="350.3,367.5 400.5,367.5 375.4,392.5 "/>
<polygon class="st0" points="149.7,656 199.8,656 174.7,681 "/>
<polygon class="st2" points="149.7,329.8 199.8,329.8 174.7,354.9 "/>
<polygon class="st1" points="149.7,555.6 199.8,555.6 174.7,580.7 "/>
</svg>
