<?xml version="1.0" encoding="utf-8"?>
<!-- Generator: Adobe Illustrator 26.3.1, SVG Export Plug-In . SVG Version: 6.00 Build 0)  -->
<svg version="1.1" id="Ebene_1" xmlns="http://www.w3.org/2000/svg" xmlns:xlink="http://www.w3.org/1999/xlink" x="0px" y="0px"
	 viewBox="0 0 595.3 153" style="enable-background:new 0 0 595.3 153;" xml:space="preserve">
<style type="text/css">
	.st0{fill:#232C58;}
	.st1{fill:#FBC487;}
	.st2{fill:#F6A865;}
	.st3{fill:#2794D2;}
	.st4{fill:#E79922;}
	.st5{fill:#ECCCE3;}
	.st6{fill:#2F348B;}
	.st7{fill:#9D9D9C;}
	.st8{fill:#FFFFFF;}
	.st9{fill:#95C230;}
	.st10{fill:#4A4C44;}
	.st11{fill:#F9B779;}
	.st12{fill:#F39228;}
	.st13{fill:#A3C848;}
	.st14{fill:#F0EDEB;}
	.st15{fill:#173966;}
	.st16{fill:#6F7699;}
	.st17{fill:#43537D;}
	.st18{fill:#F28A40;}
	.st19{fill:#AECD5E;}
	.st20{fill:#1A1B38;}
	.st21{fill:#35506B;}
	.st22{fill:#2E425C;}
	.st23{fill:#E87454;}
	.st24{fill:#EE7357;}
	.st25{fill:#F18A7E;}
	.st26{fill:#F4A391;}
	.st27{fill:#194656;}
	.st28{fill:#35538A;}
	.st29{fill:#466FB5;}
	.st30{fill:#F4A393;}
	.st31{fill:#8BAFDD;}
	.st32{fill:#3E8F7C;}
	.st33{fill:#EE745A;}
	.st34{fill:#F7CB7D;}
	.st35{fill:#56BAA4;}
	.st36{fill:#194655;}
	.st37{fill:#F8CD80;}
	.st38{fill:#FBE1B2;}
	.st39{fill:#133659;}
	.st40{fill:#F39D8E;}
	.st41{fill:#B75642;}
	.st42{fill:#9FBEE5;}
	.st43{fill:#98D1C5;}
	.st44{fill:#14375A;}
	.st45{fill:#BFD0EC;}
	.st46{fill:#C0AEBF;}
	.st47{fill:#75B4C8;}
	.st48{fill:#C09DA6;}
	.st49{fill:#65C7EF;}
	.st50{fill:#BA4838;}
	.st51{fill:#B75843;}
	.st52{fill:#496FB5;}
	.st53{fill:#C3691E;}
	.st54{fill:#B95917;}
	.st55{fill:#1B2B4B;}
	.st56{fill:#214D9C;}
</style>
<g>
	<g id="SHOES_4_">
		<path class="st0" d="M537.6,140v2.1h-4.7c0,0-0.1-2.1,2.3-2.1C537.6,140,537.6,140,537.6,140z"/>
		<path class="st0" d="M555.4,141l-2.6,1h-2c0,0,0-1.9,2.1-1.9l2-0.8l0,0L555.4,141z"/>
	</g>
	<g id="LEGS_12_">
		<path class="st1" d="M537.6,123.9V140h-2.4c0,0-5.3-9-6.8-16.2c-0.1-0.5-0.2-1-0.2-1.4C528.2,122.3,531.1,123.8,537.6,123.9z"/>
		<path class="st1" d="M554.8,139.4l-2,0.8c0,0-8-10.4-10.6-15c-0.3-0.5-0.5-0.9-0.6-1.3c4.2-0.1,8.2-0.5,10.9-0.8l0.2,1.3
			L554.8,139.4z"/>
	</g>
	<g id="SHADOWS_11_">
		<path class="st2" d="M528.2,122.3c0,0,3,1.4,9.4,1.6v1.3c0,0,0,0,0,0c-5.4-0.1-8.3-1.1-9.2-1.5
			C528.3,123.3,528.2,122.8,528.2,122.3z"/>
		<path class="st2" d="M552.6,124.4c-0.1,0-0.1,0-0.2,0c-2.6,0.3-6.3,0.6-10.2,0.8c-0.3-0.5-0.5-0.9-0.6-1.3
			c4.2-0.1,8.2-0.5,10.9-0.8L552.6,124.4z"/>
	</g>
	<path id="DRESS_5_" class="st3" d="M555.9,122.7c0,0-1.4,0.2-3.6,0.4c-2.7,0.3-6.7,0.6-10.9,0.8c-0.5,0-1,0-1.5,0
		c-0.8,0-1.6,0-2.4,0c-6.5-0.2-9.4-1.6-9.4-1.6s-0.2-0.9-0.4-2.4c-0.1-1.1-0.3-2.6-0.3-4.2c0-4.4,0.3-11.1,0.7-14
		c0.3-2.6,1.9-14.4,1.6-19.9c0-0.6-0.1-1.1-0.2-1.5l0,0c-0.2-1.2-1.4-2.9-3-6.1c-0.2-0.3-0.3-0.7-0.4-1c-0.7-2.9,1.2-6.3,2.1-8.2
		c1.8-3.8,2-7.3,2-7.3h8.3c0,0,0,0,0,0c0.1,2.5,0.4,8.6,0.8,15.9l0.7,14.7c0.6,11.5,1.1,21.7,1.1,21.9c1.8,10.9,14,10.8,14.6,10.8h0
		L555.9,122.7z"/>
	<path id="RIGHT_HAND_3_" class="st4" d="M529.6,80.4L529.6,80.4c-0.5,5-15.8,9.3-15.8,9.3l-2.1,1.7c0,0-1.2-4.1,1.3-6.9
		c2.2-2.4,7.2-6,8-7.3c1.2-1.8,1.9-11.8,3.9-14.8c2-3,5.4-4.5,5.4-4.5s-0.2,3.5-2,7.3c-0.9,1.9-2.8,5.2-2.1,8.2
		c0.1,0.4,0.2,0.7,0.4,1C528.2,77.5,529.4,79.2,529.6,80.4z"/>
	<path id="SHADOW_28_" class="st5" d="M555.9,121.3c0,0-13.7,1.4-15.5-9.7c-0.1-0.5-2.5-53.7-2.5-53.7s0.3,0,0.8,0
		c0.4,7.9,2.6,52.1,2.7,52.5c1.8,10.9,14,10.8,14.6,10.8C555.9,121.3,555.9,121.3,555.9,121.3z"/>
	<path id="SHADOW_27_" class="st5" d="M550,76.6c-0.8,1.8-2.7,7.1-3.9,9c-3,4.9-13.4,6-13.4,6s-0.1-0.2-0.2-0.7
		c1.5-0.3,9.8-1.9,12.6-6.4C546.3,82.6,549.2,77.9,550,76.6z"/>
	<path id="CARDIGAN" class="st4" d="M555.9,117.8c0,2.1,0,3.4,0,3.4l0,0h0c-0.6,0-12.8,0.1-14.6-10.8c0-0.2-0.6-10.4-1.1-21.9
		c-3.2,1.6-6.7,2.2-7.6,2.4c-0.1,0-0.2,0-0.2,0s-0.2-0.6-0.2-1.6c0-0.9,0-2.2,0.4-3.7c1.3-4.9,4.5-7.5,5.8-9.5
		c0.4-0.5,0.7-1.4,1.1-2.3c-0.4-7.2-0.7-13.4-0.8-15.9c0,0,0,0,0,0c0-0.8-0.1-1.1-0.1-1.1s9.6-0.8,13.8,9.6
		C555.9,74.8,556,107.2,555.9,117.8z"/>
	<path id="STICK" class="st6" d="M532,142h-1.1V94c0-1.9,1.4-3.4,3.2-3.4h1.1c1.8,0,3.2,1.5,3.2,3.4h-1.1c0-1.2-0.9-2.2-2.1-2.2
		h-1.1c-1.2,0-2.1,1-2.1,2.2L532,142L532,142z"/>
	<path id="RIGHT_ARM" class="st1" d="M532.3,90.9c0,0-1.4,2.6-0.9,3.3s2.7,1,2.7,0c0-0.9-0.3-3.6-0.3-3.6L532.3,90.9z"/>
	<path id="LEFT_ARM_1_" class="st2" d="M513.8,89.6c0,0-1.9,1-2.1,1.7c-0.2,0.7,1.1,3.9,1.1,3.9L513.8,89.6z"/>
	<path id="HEAD_21_" class="st1" d="M530.3,57.8v-1.7c0,0,0,0,0,0c-0.2,0-1.8-0.2-2.7-1.4c-1.1-1.3-0.9-9.2-0.9-9.2l0.1-0.1
		c0,0.1-0.1,0.2-0.1,0.3c0.2-0.5,0.9-0.9,1.3-1.1c1.4-0.6,3.2-0.2,4.4,0.5c1.1,0.6,1.2,1.7,1.6,2.8c0.2,0.8,0.6,1.8,1.6,1.8
		c0.5,0,0-1.6,0.9-1.8c1.3-0.2,1.3,1,1,2.3c-0.3,1.1-1.4,4.2,0.5,6c0.3,0.2,0.6,0.4,0.9,0.6l0.1,1L530.3,57.8L530.3,57.8z"/>
	<path id="SHADOW_29_" class="st2" d="M534.5,55c-0.2,1.4-4.1,2.8-4.1,2.8v-1.7C531.6,56.3,534.5,55,534.5,55z"/>
	<path id="HAIR_9_" class="st7" d="M538.8,56.9c-0.3-0.1-0.7-0.3-0.9-0.6c-1.8-1.8-0.7-4.9-0.5-6c0.3-1.3,0.3-2.5-1-2.3
		c-0.8,0.1-0.4,1.8-0.9,1.8c-1,0-1.4-0.9-1.6-1.8c-0.3-1.1-0.5-2.2-1.6-2.8c-1.3-0.7-3-1.2-4.4-0.5c-0.4,0.2-1.2,0.6-1.3,1.1
		c0,0,0-0.1,0.1-0.3c0.5-1.2,2.8-6.2,10.1-4.9c6.5,1.2,3.3,8.9,3.3,8.9s3.7,0.4,3.8,3.9C544,56.4,540.9,57.7,538.8,56.9z"/>
	<path id="GLASSES" class="st8" d="M532.9,49c-0.1-0.8-0.8-1.4-1.6-1.4s-1.5,0.6-1.6,1.4h-0.8c-0.1-0.8-0.8-1.4-1.6-1.4
		c-0.9,0-1.6,0.7-1.6,1.6c0,0.9,0.7,1.6,1.6,1.6c0.8,0,1.5-0.6,1.6-1.4h0.8c0.1,0.8,0.8,1.4,1.6,1.4s1.5-0.6,1.6-1.4h1.8V49
		L532.9,49L532.9,49z M527.2,50.3c-0.6,0-1-0.5-1-1c0-0.6,0.5-1,1-1s1,0.5,1,1C528.3,49.8,527.8,50.3,527.2,50.3z M531.3,50.3
		c-0.6,0-1-0.5-1-1c0-0.6,0.5-1,1-1s1,0.5,1,1C532.3,49.8,531.9,50.3,531.3,50.3z"/>
	<g id="PEARLS_2_">
		<circle class="st8" cx="533.4" cy="60" r="0.7"/>
		<path class="st8" d="M535.4,59.7c0,0.4-0.3,0.7-0.7,0.7s-0.7-0.3-0.7-0.7c0-0.4,0.3-0.7,0.7-0.7S535.4,59.3,535.4,59.7z"/>
		<path class="st8" d="M532.9,59.7c0,0.4-0.3,0.7-0.7,0.7s-0.7-0.3-0.7-0.7c0-0.4,0.3-0.7,0.7-0.7S532.9,59.3,532.9,59.7z"/>
		<circle class="st8" cx="531.4" cy="58.9" r="0.7"/>
		<circle class="st8" cx="530.7" cy="58.1" r="0.7"/>
		
			<ellipse transform="matrix(2.499244e-03 -1 1 2.499244e-03 475.5855 594.7732)" class="st8" cx="535.9" cy="59" rx="0.7" ry="0.7"/>
		<circle class="st8" cx="537.1" cy="58.4" r="0.7"/>
		
			<ellipse transform="matrix(2.499233e-03 -1 1 2.499233e-03 479.2522 595.6052)" class="st8" cx="538.2" cy="57.6" rx="0.7" ry="0.7"/>
	</g>
</g>
<g>
	<g>
		<path class="st9" d="M468.9,63.6c0.4,0.3,0.8,0.6,1.2,0.8c3,2,4.3,2.2,6.2,3c1.3,0.6,2.6,0.3,3.5-0.4c0,0,0,0,0,0
			c0.4-0.5,0.8-1.4,1-2.6l0.2-1c0.2-1.3-0.4-2.6-1.5-3.4c-1.5-1-2.9-2-4.4-3c-3.2-2.2-6.4-4.4-9.6-6.6c-0.1-0.1-2.2-1.4-4.4-0.4
			c-1.6,0.8-2.2,2.4-2.2,2.7c-0.2,0.4-0.4,1.1-0.3,1.9C458.6,57.5,461.8,58.6,468.9,63.6z"/>
	</g>
	<g>
		<path class="st10" d="M456.8,79.8c1.3,6.8,1.5,11,4.4,17.1c1.7,3.5,4,8.6,6.4,15.1c0.6-0.3,5.3-1.4,6.5-4.4c1-2.6,3.3-1.3,3.2-2.2
			l-5.8-33.2c-0.3-0.1-11.6-5.1-14.4-1.6C456.8,71,455.5,72.9,456.8,79.8z"/>
		<polygon class="st2" points="472.1,139.8 477.8,139.1 475.1,136.2 470.4,136.6 		"/>
		<path class="st10" d="M470.4,137.4l6,0.1c-0.8-4.7,0-10.3-0.1-16.2c-0.1-5.4,0.4-10.3,0.9-14.7c0.1-1.1-0.1-2.1-0.7-3.1
			c-0.5-0.8-2.9-1.3-3.7-1.5c-1.1-0.2-2.2,0.5-3.8,0.8c-0.6,0.1-3.7,0.4-4.6,1.3c-0.2,3.6-0.1,7.6,0.4,12
			C465.9,124.7,468,131.9,470.4,137.4z"/>
		<path class="st0" d="M484.2,142.2c-4.9,0.3-6.7,0-7.3-0.3c-0.1,0-0.5-0.3-1.2-0.4c-0.7-0.1-1.1,0-1.2,0c-0.4,0.1-0.7,0.4-0.8,0.5
			c-0.4,0.4-1.2,0.7-2.9,0.5c-0.2-0.4-0.4-1.2-0.5-2.2c0-0.5,0-1.3,0.4-2.2c1-0.2,2.7-0.6,4.9-0.1c2.2,0.5,3.7,1.5,4.5,2.1l4.3,1.2
			C484.9,141.5,484.7,142.2,484.2,142.2z"/>
	</g>
	<g>
		<path class="st10" d="M450,79.7c-1.9,6.7,0.4,9.8,0.4,16.5c0,3.9-0.2,7.1-1,14c0.7,0,5.8,3.2,8.3,1c2.1-1.9,5.2-6.4,5.5-7.2
			l2.1-33.2c-0.2-0.3-4.9-5.3-8.9-3.3C455.8,67.6,451.8,73,450,79.7z"/>
		<polygon class="st2" points="438.7,135.8 443.8,138.5 443.6,134.9 439.7,133.1 		"/>
		<path class="st10" d="M439.4,134.3l4.3,1.4c1.6-4.6,6.5-8.9,9.4-14.3c2.6-4.9,5.3-10.6,7.9-14.3c0.6-0.9-0.5-2.6-0.6-3.6
			c-0.1-0.9-3.1-0.5-3.8-1c-0.8-0.7-2.2-0.4-3.8-0.8c-0.6-0.1-1.4-0.2-2.6,0.2c-1.9,3.1-3.9,6.7-5.6,10.9
			C441.4,121,440,128.5,439.4,134.3z"/>
	</g>
	<path class="st9" d="M447.4,67.3c0,0.3,0.1,0.6,0.2,0.9c0,0,0,0.1,0,0.1c1,5.3,1.7,4.9,1.7,6.7c0,1.2-0.1,2.3-0.3,3.3
		c-0.6,2.9,1.9,8,6,8.7c0.1,0,0.1,0,0.2,0c1.5,0.3,4.8,0.8,8.9,0.2c0.2,0,0.4-0.1,0.6-0.1c4.2-0.7,11.6-3.6,10.8-6.6
		c-0.5-1.8-0.8-3-0.9-3.5c0-0.2-0.2-0.9-0.6-1.8c-0.1-0.3-0.2-0.5-0.3-0.6c-1.4-3.1-4-10.5-3.6-12.8c0.2-0.9-2-1.5-1.9-2.4
		c0,0,0.1-0.6,0.1-1.2c0.2-2.8,0.3-4.4-0.3-5.8c-1.3-3.2-5.5-4.8-5.8-4.9c0,0-0.1,0-0.2-0.1c-1.2-0.4-4.3-1.3-7.6-0.7
		c-0.2,0-0.4,0.1-0.6,0.1c-1.5,0.3-2.5,0.9-2.9,1.1c-0.3,0.1-0.5,0.3-0.7,0.4c0,0-0.1,0.1-0.1,0.1c-0.9,0.6-1.5,1.2-1.9,1.7
		c-0.4,0.4-0.6,0.9-0.8,1.4c-0.4,1.1-0.8,2.5-1.1,4.2C446,58,446,59.7,447.4,67.3z"/>
	<path class="st8" d="M454.6,47c0.9,1.2,1.9,2.5,3,3.8c1.4,1.6,2.7,3.1,4.1,4.5c0.1-2.6,0.1-5.1,0.2-7.7c-0.6-0.3-1.5-0.7-2.5-0.9
		C457.3,46.2,455.5,46.6,454.6,47z"/>
	<g>
		<path class="st11" d="M463.2,41.6c-0.4,1.1-0.8,2.4-1.1,3.8c0,0.3-0.1,0.5-0.1,0.8c-0.2,1.2-0.3,2.4-0.3,3.4
			c-0.2,0.1-2.4,1.9-4.3,0.3c-1.2-1-2.1-2.3-2.4-2.6c0.6-0.6,0.5-0.7,1.1-1.8c1-1.7,1.2-3.3,1.3-4.3c0.2,0,0.5,0,0.7,0.1
			C459.9,41.3,461.6,41.4,463.2,41.6z"/>
		<path class="st2" d="M463.1,42.7c-0.4,1.1-0.8,2.4-1.1,3.8c0,0.3-0.1,0.5-0.1,0.8c-0.5-0.2-1-0.4-1.4-0.7c-1.2-0.8-2.3-2-2.5-3.4
			c0-0.3,0-0.6,0-0.9C459.7,42.5,461.4,42.6,463.1,42.7z"/>
		<path class="st1" d="M467.4,41.6c-0.7,1.1,0,2.6-0.6,3.7c-0.6,1.1-2,1.3-3.3,1.3c-1.8,0-3.7-0.4-5-1.6c-0.9-0.8-1.3-2-1.7-3.1
			c-0.6-1.9-1.1-4-0.2-5.7c0.8-1.5,2.7-2.4,4.5-2.7c2.1-0.3,4.6,0.5,5.3,2.5c0.2,0.8,0.3,1.5,0.5,2.3
			C467.5,39.7,468.3,40.2,467.4,41.6z"/>
		<path class="st12" d="M458.7,45.7c-0.6-0.1-1.2-0.2-1.9-0.3c-0.4,0-0.7-0.1-1-0.1c0.2-0.4,0.4-1.2,0.3-2c-0.2-1.3-1.5-1.8-2.6-3.4
			c-0.6-0.9-0.9-1.7-1.1-2.2c-0.7-1.6-0.5-3.4,0.6-4.5c1.1-1.1,2.7-1.2,3.1-1.2c1.5-0.1,2.1,0.4,3.6,0.6c1.1,0.1,2.7,0,4.8-1.2
			c0.3,0.6,0.8,2.2,0,3.7c-0.8,1.6-2.7,2.7-4.4,3c-1.4,0.2-2.4-0.1-2.8,0.5c-0.3,0.4-0.2,1.1,0.1,1.5c0.4,0.5,1.1,0.4,1.5,0.7
			C459.5,41.2,459.8,42.4,458.7,45.7z"/>
	</g>
	<g>
		<path class="st1" d="M445.1,99.2c1.2-1.1,1.4-2.6,1.4-2.9c0.1-1.1-0.3-2-0.5-2.4c-1,0.2-2,0.4-3,0.5c0,0.4,0,1.1-0.1,1.9
			c-0.2,2.5-0.9,3.6-0.4,3.9C443,100.7,444.4,99.9,445.1,99.2z"/>
		<path class="st13" d="M443,95.2c-1.7-2.8-3.9-7.2-5.1-13c-0.3-1.4-2.9-14.4,1.8-16.8c1.7-0.9,4.4-0.3,5.5,1.1
			c0.9,1.3,1.6,4.1,1.3,5.3c-2.2,8.4-0.6,19.2,0.1,22.3c0.1,0.4-0.2,0.7-0.6,0.8C444.9,95,443.9,95.1,443,95.2z"/>
		<path class="st13" d="M439.7,71.9l2.2,0.4c1.3,0.2,3.7,0.8,4.6-0.5l7.2-9.7c2.2-3.3,2.3-11.9-0.5-13.8l0,0c-1.2-0.8-3-0.4-4.2,0.9
			c-2.3,2.7-4.9,6.1-7.3,10.3c-1.6,2.8-3,5.5-4,8C436.8,69.5,437.8,71.6,439.7,71.9z"/>
	</g>
	<path class="st0" d="M447.9,144.3c-4.4-2.1-5.9-3.1-6.3-3.7c0-0.1-0.3-0.5-0.9-0.9c-0.5-0.4-1-0.5-1.1-0.6c-0.4-0.1-0.8,0-0.9,0
		c-0.5,0.1-1.4,0-2.8-0.9c0-0.5,0.2-1.3,0.7-2.2c0.2-0.4,0.6-1.1,1.4-1.8c1,0.2,2.7,0.8,4.4,2.2c1.7,1.4,2.6,3.1,3,4l3.2,3
		C448.8,144,448.3,144.5,447.9,144.3z"/>
</g>
<g>
	<path class="st14" d="M323.8,50.6c-0.5,3-1.6,7.5-4.5,9.1c-0.2-1.2-0.3-2.5-0.6-3.8c-0.9-3.4-1.7-6.7-2.5-10.1
		c-0.2-0.7-0.4-1.9,0.2-3.3c0.4-1,1-1.6,1.2-1.8c0.3-0.3,1.1-1,2.4-1.1c1.6-0.2,3,0.8,3.8,1.9"/>
	<path class="st14" d="M313.2,40.3c0.7,0.8,1.2,1.7,1.6,2.6c0.2,0.3,1.7,4.5,3.8,7.7c1.2,1.8,1.6,2,2.1,3.4c0.4,0.9,1.1,3.1,0,4.8
		c-0.1,0.2-1,1.5-2.4,1.6c-1.7,0.1-3-1.8-4-3.2c-1.4-2-1.4-2.9-3-7.3c-1.5-3.9-2-5.5-2-8C309.3,39.1,311.3,38.3,313.2,40.3z"/>
	<path class="st14" d="M290.5,68.2c1.6,0.6,3.6,0.8,4.7-0.6c0.4-0.5,0.6-1.2,0.8-1.9c1.1-4.9,0.7-10,2.2-14.7c0.4-1.4,1-2.7,1.3-4.1
		s0.2-2.9-0.6-4.1c-3.5-5.1-5.2,3.8-5.9,5.8c-1.6,4.8-3.2,9.7-4.8,14.5"/>
	<path class="st15" d="M311.8,138.3c0.4,0.4,0,0.8,0.4,1.8c0.3,0.9,0.7,1.1,0.7,1.7c0,0.6-0.5,1.1-0.6,1.2c-0.9,0.9-2.7,1.1-3.5,0.2
		c0,0-0.5-0.5-0.5-1.1c0-0.5,0.2-0.6,0.4-1.4c0.2-0.8,0.1-0.8,0.3-1.4c0.1-0.3,0.4-0.9,1-1.2C310.5,138,311.4,137.9,311.8,138.3z"/>
	<path class="st16" d="M308.4,139.5c0.1,0.1,1.1,0.9,2.4,0.7c1.3-0.1,2.1-1.1,2.2-1.2c0-1.7,0-4.3,0-7.6c0.1-6.9,0.5-9.4,0.3-13.8
		c-0.1-2.2-0.4-5.3-1.2-9.2c-2.2,0.1-4.4,0.3-6.6,0.4c0.8,8.4,1.6,16.8,2.4,25.2C308,136,308.2,137.8,308.4,139.5z"/>
	<path class="st15" d="M300.4,138.4c-0.4,0.4,0,0.8-0.3,1.9c-0.3,1-0.7,1.1-0.6,1.8c0.1,0.6,0.6,1.1,0.7,1.2c1,0.8,2.8,0.9,3.5,0
		c0,0,0.5-0.5,0.4-1.2c0-0.5-0.2-0.6-0.5-1.3c-0.3-0.8-0.1-0.8-0.4-1.3c-0.1-0.2-0.4-0.8-1-1.1C301.7,138,300.8,138,300.4,138.4z"/>
	<path class="st16" d="M303.9,139.4c-0.1,0.1-1,0.9-2.3,0.9c-1.3-0.1-2.1-0.9-2.3-1.1c-0.1-1.7-0.2-4.3-0.5-7.6
		c-0.6-6.9-1.2-9.3-1.2-13.7c0-2.2,0-5.3,0.6-9.2c2.2,0,4.4,0,6.7,0c-0.2,8.4-0.4,16.9-0.7,25.3C304,135.8,303.9,137.6,303.9,139.4z
		"/>
	<path class="st14" d="M298.4,61.1c-0.6,5.3-2.5,6.3-3.7,13c-0.2,1.4-0.4,2.6-0.6,3.9c-0.5,4-0.5,7.2-0.4,9.4
		c0.3,10,2,12.1,1.5,18.9c-0.2,3.4-1,6.4-1.8,8.9c2.3,1.1,6.9,3,12.9,2.9c5.1-0.1,9-1.5,11.3-2.6c-1.8-5.6-1.9-11.4-1.7-17.2
		c0.3-9.8,1-10.3,0.4-17.6c-1.1-11.7-3.2-13-3.5-20.9c-0.3-7.9,1.8-11.1-1-16.2c-1.5-2.9-3.2-3.8-4.2-4.1c-2.8-1-6.3,0.1-8.1,2.3
		c-1.6,2-1.5,4.4-1.4,8c0.1,2.3,0.4,2.7,0.5,5.7C298.6,56.3,298.7,58.6,298.4,61.1z"/>
	<path class="st17" d="M313.1,42c0,0-0.3,1.6-1.4,3c-3.8,4.8-18.3,2.7-19.6-1.5c-0.4-1.4,0-3.2,1.7-5.4c0,0,0,0,0,0
		c0.6-0.7,1-1.1,1.5-1.4c0.3-0.2,0.6-0.4,0.9-0.6c0,0,0,0,0.1-0.1c0,0,0.1-0.1,0.1-0.1c0,0,0,0,0.1-0.1c0,0,0-0.1,0.1-0.1l0,0l0,0
		c0,0,0.1-0.1,0.1-0.2c0,0,0.1-0.1,0.1-0.1c0.1-0.1,0.2-0.2,0.3-0.3c0,0,0.1-0.1,0.1-0.1c0,0,0,0,0,0c0.3-0.4,0.6-1.5,1-3
		c0.1-0.6,0.3-1.2,0.5-1.9c1-3.9,2.5-8.8,5-10.3c2-1.2,5.1-0.4,6.7,0.9c2.3,2,2.2,5.7,2.2,7.8c-0.1,3.7-1.4,5.9-0.4,8.4
		c0.1,0.3,0.4,1.2,0.8,2.5C313.2,40.1,313.3,40.9,313.1,42z"/>
	<path class="st18" d="M311.6,28.9c-0.3,1.9-1.8,3.9-3.4,3.9c-2.3,0-4.7-4.2-3.5-7.1c0.6-1.3,2-2.5,3.5-2.4
		C310.4,23.6,312,26.5,311.6,28.9z"/>
	<path class="st18" d="M319.5,37c-0.6,0.1-1,1.1-1,1.3c-0.3,0.8-0.1,1.4,0.2,2.4c0.4,1.2,0.5,1.8,1.1,2c0.7,0.2,1.6-0.2,2-0.9
		C322.8,40.1,320.7,36.9,319.5,37z"/>
	<path class="st15" d="M302.4,39.1c-1.1-0.1-1.4-0.2-3.6-0.6c-2.1-0.3-3.8-0.5-5-0.5h0c0.3-0.6,0.7-0.9,1-1.1
		c0.5-0.4,0.9-0.6,1.4-0.9c0,0,0,0,0.1-0.1c0,0,0.1-0.1,0.1-0.1c0,0,0,0,0.1-0.1c0,0,0-0.1,0.1-0.1l0,0l0,0c0,0,0.1-0.1,0.1-0.2
		c0,0,0.1-0.1,0.1-0.1c0.1-0.1,0.2-0.2,0.3-0.3c0,0,0.1-0.1,0.1-0.1c0,0,0,0,0,0c0.7-1,0.9-2,1-3c0.1-0.6,0.3-1.2,0.5-1.9
		c0,0.6,0,0.9,0,1.3c0.1,0.9,0.2,2.2,0.8,3.4c1,1.9,3,2.7,3.5,2.8c2.9,1.1,5.6-0.4,5.7-0.2C308.8,37.6,306,39.3,302.4,39.1z"/>
	<path class="st9" d="M291.2,57.5c0.9-1.2,3.1-1.1,5-0.9c2.3,0.2,2.7,0.7,3.9,0.3c0.7-0.3,0.9-0.6,2.5-2.3c3.2-3.3,4-3.5,4.5-3.4
		c0.6,0.1,1.2,0.8,1.2,1.4c-0.1,1-2.1,0.9-4.3,2.5c-2,1.4-1.7,2.5-3.5,3.4c-0.3,0.1-0.7,0.4-3.9,0.8c-4.8,0.6-5.4,0.4-5.6,0"/>
	<path class="st19" d="M289.9,58.7c5.4-0.8,6.2-0.8,6.2-0.8c3-0.1,3.3,0.3,4.4-0.1c0.1,0,0.1-0.1,0.2-0.1c0.4-0.2,1.5-1.1,3.6-3.1
		c1.1-1,1.6-1.5,2.6-2.3c0.9-0.8,1.6-1.4,2.1-1.8l5.6,15.2c-2.7,2.4-5.5,4.7-8.2,7.1c-0.1,0-0.3,0-0.5,0c-3.3,0-6.6,0-9.9,0
		L289.9,58.7"/>
	<path class="st19" d="M314.6,65.7c-2.7,2.4-5.5,4.7-8.2,7.1c-0.1,0-0.3,0-0.5,0l-5.4-15c0.1,0,0.1-0.1,0.2-0.1
		c0.4-0.2,1.5-1.1,3.6-3.1c1.1-1,1.6-1.5,2.6-2.3c0.9-0.8,1.6-1.4,2.1-1.8L314.6,65.7z"/>
	<path class="st14" d="M288.7,62.3c-2.7,3.6,0.2,5.9,3.3,8.1c1.1,0.8,2.2,1.4,3.5,1.6s2.7-0.2,3.5-1.3c0.5-0.7,0.6-1.7,0.7-2.6
		c0.1-1.7,0.3-3.5-0.6-5c-0.7-1.1-2-1.8-3.4-2.1s-2.7-0.2-4.1-0.1"/>
	<path class="st18" d="M302.3,67.2c0.1,1.2-2.9,3.3-4.6,2.4c-0.8-0.4-1.4-1.6-1-2.4c0.2-0.5,0.8-0.7,1.5-0.9
		c0.5-0.2,2.2-0.8,3.5,0.2C302,66.6,302.3,66.9,302.3,67.2z"/>
	<g>
		<g>
			<g>
				<g id="FAT_00000121260825890411497760000003404438881100265602_">
					<g id="LEGS_00000158014028226615225550000012146071684468670906_">
						<g id="LEGS_00000032640440380248292660000006879100752731429769_">
							<path class="st0" d="M186.2,114.6c2.1,16.2,4.9,30,4.9,30.1l-2.3,1.1c-0.6,0.4-1.6,1.1-1.6,1.8c0,0,3.8,0,5.8-0.1
								c1-0.1,0.6-2.8,0.6-2.8s5.1-10.9,6.6-19.1c1.3-7-1.5-11-1.6-11l0,0L186.2,114.6L186.2,114.6z"/>
							<path class="st0" d="M205.2,114.6c0.8,2.5,2,4.9,2.4,6c3.2,7.9,8.8,17.9,12.6,22.9c2,2.6,3.5,4.4,4,4.6c0.1,0,0.1,0,0.1,0
								c0.4-0.8,1.1-2.7,1.3-3.3c0.4-1.2-3.2-2.7-3.2-2.7l0,0c0,0,0.3-12.4-0.7-19.9c-0.5-4-3.3-8.9-3.5-9.7L205.2,114.6z"/>
						</g>
						<path id="SHORTS_00000103965372871875465050000008779406481330021011_" class="st0" d="M186.2,114.6h12.6l3.2-14.1
							c0,0,0.1,4.2,0.9,7.6c1,4.2,2.2,6.5,2.3,6.5l0,0l13.1-2.2c0,0,0.9-17,0.9-21.6c0-4.9-2-10.4-2.8-12.4
							c-0.2-0.6-0.4-0.9-0.4-0.9c-1.9,1.4-6.9,4.7-13.9,4.7c-8.7,0-13.1-1.5-15.3-3.4c0,0-0.1,0.3-0.2,1c-0.4,2.1-1.4,7.4-1.6,16.9
							C184.6,109.3,186.2,114.6,186.2,114.6z"/>
						<path id="SHADOW_00000003096395351553386690000012350796803146828479_" class="st20" d="M202.1,83.7
							c10.4-0.1,13.9-6.2,13.9-6.2c-1.9,1.4-6.9,4.7-13.9,4.7c-8.7,0-13.1-1.5-15.3-3.4C186.8,78.7,188.5,83.9,202.1,83.7z"/>
					</g>
					<g id="BLOUSE_00000010309862866807669670000011044574394256918936_">
						<path id="BLOUSE_00000046329034846087966820000015978834359299643019_" class="st21" d="M180.5,71.4c0,0,0.8,0.7,3.6,0.6
							c3.9-0.1,6.6-3.4,6.6-3.4c0,0.1-2.2,4.5-4,10.1c2.2,1.9,6.6,3.4,15.3,3.4c7.1,0,12.1-3.2,13.9-4.7c-0.4-1-0.7-1.8-1-2.4
							c-0.5-1.2-0.8-1.8-0.8-1.8s1.9-0.6,3.5-2.1c1.5-1.4,2.8-3.7,2.2-7.1C217.7,51.9,206.1,49,206.1,49s-2.2,3.3-7.5,3.4
							c-5.2,0.1-6.2-2.5-6.2-2.5l0.2-0.1c-2.5,1-6.5,2.9-9.8,6.2L180.5,71.4z"/>
						<g id="SHADOWS_00000160906037638525843050000006833554034243380865_">
							<path class="st22" d="M214.2,73.2c0,0,0.3,0.6,0.8,1.8c-1.3,0.6-3,0.8-5.3,0.4c-4.4-0.7-10.4-6.4-11.7-7.7
								c0,0-1.2-1.2-1.2-1.2c-3.9,0.4-4.6-0.6-4.6-0.5l-0.1-0.8c0.1,0.1,0.2,0.2,0.4,0.3c1.2,0.6,4.6,0.2,4.6,0.2s7,6.9,12,7.7
								L214.2,73.2z"/>
							<path class="st22" d="M187.6,68.6c0-0.1,1.1-2.6-0.2-6.4c-1.2-3.4-3.6-7.2-3.6-7.2l-0.9,0.8
								C185.8,59.9,188.7,65.2,187.6,68.6z"/>
						</g>
					</g>
					<g id="HEAD_00000119834596496027874870000002329814214079980691_">
						<path id="HEAD_00000042696866612417226090000006499642430779309991_" class="st23" d="M191.4,46.1c0.4,1.8,2.6,2.8,2.6,2.8
							l-1.5,0.8l-0.2,0.1c0,0,1,2.6,6.2,2.5s7.5-3.4,7.5-3.4s-0.5-1.7-1.4-3.9c-0.1,0.2-0.1,0.3-0.1,0.3s-2.5-1-2.8-1.8
							s1.8-2.9-0.1-3.6c-0.9-0.3-1.3,1.6-2,1.4c-0.7-0.3-1.5-3.7-4-3.8c-2.9-0.2-3.3,0.3-3.9,1.6l0,0
							C191.2,40.8,191.1,44.5,191.4,46.1z"/>
						<path id="SHADOW_00000015356846057123030880000004859697514953542826_" class="st24" d="M192.4,49.9c0,0,2.2,2.8,6.8-1.6
							c0,0-2.4,1.2-5.2,0.7L192.4,49.9z"/>
						<path id="HAIR_00000067946555760337243530000010090969054764846472_" class="st20" d="M191.8,39.3c0.7-1.3,1-1.8,3.9-1.6
							c2.5,0.2,3.3,3.6,4,3.8c0.7,0.3,1.2-1.7,2-1.4c1.9,0.6-0.3,2.8,0.1,3.6c0.4,0.7,2.7,1.7,2.8,1.8c0.1,3,1.9,4.7,4.9,5.6
							c4.4,1.4,2.9,7.1,2.9,7.1c2.5-0.1,5.3-2.1,6.4-4.5c1.3-2.7-0.3-6-3.7-7.3c-2.6-1-3.3-5.6-1.7-6.8c2.7-2.1,3.1-8-2.8-9
							c-5.9-1-7.8,4-7.8,4c-0.9-0.5-2.1-0.8-3.5-0.8C194.1,33.8,191.9,39.1,191.8,39.3z M204.1,35.6c0,0,3.1-1.4,3.9,0.3
							c1.1,2.3-0.9,4.1-2.2,6.1c0.2-0.6,0.3-1.2,0.4-1.7C206.3,39.2,205.7,37.1,204.1,35.6z"/>
					</g>
				</g>
			</g>
		</g>
	</g>
</g>
<path class="st25" d="M238.5,137.6c0,0-1.5,1.5-1.6,2.1c0,0.6-0.1,6.5,0.5,7.1c0.6,0.6,2.4,0.9,1.9,1.6c-0.4,0.5-3.8,0.4-6.1,0.2
	c-0.7,0-1.5-5.4-1.7-6.2c-0.4-1.1-1.7-3.6-1.4-4.4c0.2-0.4,1.4-1.3,2.5-2c1.2-0.8,2.3-2.5,2.3-2.5L238.5,137.6z"/>
<path class="st26" d="M258.8,141.3l-1.4,3.9c-0.1,0.6-0.5,2.2-0.5,2.7c0,2.1,9.3-1.8,7.2-2.8c-0.2-0.1-0.8-0.8-0.9-1.5
	c-0.1-1.1,0.8-2.5,0.8-2.5L258.8,141.3z"/>
<path class="st27" d="M274.4,67.1c0,0,0.7,6.5,0.7,6.6c0,11.4,1.3,33.6,0.9,35.8c-1,5.2-12.2,33.7-12.2,33.7l-5.8-0.8l7.7-33.6
	l-2.9-12.8l-4-25.4L274.4,67.1z"/>
<path class="st28" d="M252.6,72.7l-1.1,6.7l-3.1,27.5l-14.9,27.9c0,0,2.2,3.5,4.6,4l21.2-28.2l11.5-35.3l-0.4-7.8L252.6,72.7z"/>
<path class="st29" d="M274.9,49.8l-8.2,0.9c0,0-0.4-6.9-0.4-10.2c0-4,0.4-9.1,0.9-9c1.3,0.3,3,1,4.1,2.5
	C274.9,39.1,274.9,49.8,274.9,49.8"/>
<path class="st30" d="M244.4,83c-1.3-2.1-1.5-1.8-1.7-2.1c-0.2-0.3,0-5.3,0-5.3s0.5-14.6,0.6-15.4l6.4-13.5l-5.6-5.3
	c0,0-6.6,14.9-6.8,15.7c-0.2,0.8,1.3,20.7,1.4,22.5c0,0-0.6,2.1-1,3.5c-0.4,1.4-0.1,2.8-0.2,3.2c0,0.1-0.1,1.4,0.2,3.1
	c0.3,1.4,0.6-0.1,0.6-0.1s-0.1-2.8,0.1-2.7c0.2,0,0.1,1.5,0.4,3.1c0.1,0.4,0.1,0.8,0.2,1.2c0.2,1,0.8,1.1,0.8,0.1
	c0-0.4-0.1-1-0.1-1.4c-0.1-0.5,0-0.9-0.1-1.3c0-0.8-0.1-1.4-0.1-1.4c0,0,0.1-0.1,0.2,0.3c0.1,0.5,0.1,1.7,0.3,2.4
	c0.1,0.4,0.3,1.3,0.3,1.3s0.6,1.3,0.6,1.3c0.5,0,0.3-1.1,0.1-1.6c0-0.4-0.2-1.4-0.2-1.4s-0.1-2,0.2-2c0.1,0,0.3,1.2,0.7,2.4
	c0.4,1.1,0.9,2.2,1.1,2.1c0.4-0.1,0.1-1.3,0.1-1.3s-0.2-0.9-0.3-1.2c-0.1-0.4-0.2-1.4-0.2-1.4s-0.2-3.7,0-3.7c0.3,0,0.9,0.3,1,0.5
	c0.1,0.2,0.1,0.7,0.1,0.9c0.1,0.2,0.4,0.4,0.7,0.4s0.2-1.4,0.2-1.4S244.8,83.6,244.4,83"/>
<path class="st31" d="M270.8,39.7c0.2,1.2,4.2,34,4.2,34c-15,7.4-24.8,5.2-24.8,5.2s1.1-26.8,0.5-29.9c-0.4-2.1-0.9-16.1,0.4-16.5
	c1.7-0.5,3.6-1,5.8-1.3c1.8-0.2,8.9-0.3,10.1,0.1C267.2,31.4,270.1,34.5,270.8,39.7"/>
<path class="st29" d="M240.6,46.6l7.1,4.9c0,0,4-6.1,6.2-8.3c2.7-2.7-1-11.1-2.7-10.7C247.3,33.6,240.6,46.6,240.6,46.6"/>
<path class="st32" d="M232.7,135.9c0,0,3.5,10.1,4.9,10.6c0.4,0.1,2.1,0.5,2.4,1.2c0.1,0.2,0,1,0,1h-7.3c0,0-0.9-4.4-1.3-6.4
	c0,0-1.9-4.8-1.7-5.2C229.9,136.7,232.7,135.9,232.7,135.9"/>
<path class="st32" d="M256.4,148.7l1.1-3.5c0,0,2.2,1,3.4,0.8c1.1-0.2,3.3-0.8,3.3-0.8c4.5,1.5,8.1,2.2,7.5,3.5H256.4z"/>
<path class="st26" d="M259,24.4l-1.1,6.9c0,0,4,8.8,6.5,8.1c2-0.6,0.8-8.2,0.8-8.2s-1.1-4.1-0.8-6.1C264.7,23.1,259,24.4,259,24.4"
	/>
<path class="st33" d="M264.4,25.1c0.3-2-5.4-0.7-5.4-0.7L259,25c0.2,0.4,0.4,0.7,0.6,1c1.3,1.3,3.2,2.2,5,2.2
	C264.4,27.1,264.3,25.9,264.4,25.1"/>
<path class="st26" d="M258.1,14.2c-0.2-0.1-1.3,8.2,0.9,10.4c2.1,2.3,6.3,3,7.8,1.2c1.6-2,1.6-10.8-1.8-13.2
	C261.7,10.4,258.1,14.2,258.1,14.2"/>
<path class="st34" d="M258.9,11.1c-1.2,0.1-2.8,0.8-4.4,3.4c-2,3.3-0.5,6.9,1.8,8.7c2.3,1.8,2.3,3.8,2.3,3.8L259,26
	c0.3-0.8,0.4-1.7,0.3-2.5c0-0.5-0.2-1.1-0.4-1.5c-0.6-1.2,1.2-2,1.7-3c0.4-0.8,0.4-2.5,1-3.8l0.7-1c0,0,1.7-1.3,3.3-0.9
	C267.3,13.7,265.3,5.9,258.9,11.1"/>
<path class="st26" d="M260.5,20.5c0,1-0.5,1.8-1,1.8c-0.6,0-1.1-0.8-1.1-1.8c0-1,0.5-1.8,1-1.8C260,18.7,260.5,19.5,260.5,20.5"/>
<path class="st26" d="M442.9,128.6c0,0,0.4,3.9,1.4,4.7c1,0.7,2.3,3.4,1.7,4.8c-0.7,1.4-3.5,0.9-3.5,0.9s-1.7-1.5-1.8-4.7
	c-0.1-3.2-1.1-4.8-1.1-4.8L442.9,128.6z"/>
<path class="st26" d="M427.2,130.1c0,0-0.3,4-0.1,5.3c0.1,0.7,0.9,2.1,0.5,2.8s-0.8,0.8-0.8,0.8l-10.1,0.2c0,0,0-1.3,4.8-2.6
	c0.6-0.2,1.3-0.8,1.8-1.4c0.6-0.7,0.7-4.2,0.7-4.2L427.2,130.1z"/>
<path class="st32" d="M419.9,77.4c0,0-1.1,6.4-0.4,10.7c0.8,4.2,3.9,43.6,3.9,43.6l4.8,0.1c0,0,0.9-16.1,0.7-18.4s-1.2-5.8-1.2-5.8
	l-0.1-13.8l-5.1-17.4L419.9,77.4z"/>
<path class="st35" d="M431.8,76c0,0,3.2,4.7,3.9,8.6s-0.6,15.9,0.9,21c0.8,2.8,4.6,6.7,5.1,10.3c0.5,3.6,2.4,13.4,2.4,13.4l-5,0.7
	l-9.4-23.4l-7.4-21.1l-1.9-10.9L431.8,76z"/>
<path class="st33" d="M441.1,136.6c2.2,0.4,3.6-0.9,4.4-1.8c0.5,1.1,0.9,2.4,0.5,3.3c-0.7,1.4-3.5,0.9-3.5,0.9
	S441.7,138.2,441.1,136.6"/>
<path class="st33" d="M421.6,136.5c0.2-0.1,0.4-0.1,0.5-0.2c2.4,0.6,4.1,0.2,5.1-0.2c0.2,0.7,0.6,1.6,0.5,2.1
	c-0.1,0.7-0.4,0.9-0.4,0.9l-10.6,0.1C416.8,139.1,416.8,137.9,421.6,136.5"/>
<path class="st25" d="M406.4,88.6c0,0,0.5-0.5,0.6-0.7c0.2-0.2,0.6-0.9,0.6-0.9s1.5-2.4,1.3-2.5c-0.2-0.1-0.7,0.2-0.8,0.3
	s-0.3,0.2-0.5,0.4c-0.1,0.1-0.4,0.1-0.5-0.1c-0.2-0.2,0.3-0.8,0.5-0.9c0.6-0.5,2.6-1.7,2.9-1.8c0.2-0.1,2-4.8,2.8-6.4l0,0
	c1.1-2.6,2.2-5.3,2.3-5.6l1.4-12l4.7-1.2c0,0-1.4,13.3-1.5,14c-0.1,0.3-3.2,6.1-3.2,6.1c-1.7,2.8-3.2,5.2-3.5,5.7
	c0,0-0.5,1.6-0.7,2.7c-0.2,1.1-0.9,1.9-1,2.2c0,0-0.3,1.1-1.2,2.1c-0.7,0.9-0.4-0.3-0.4-0.3s1-1.9,0.9-1.9c-0.1,0-0.6,1-1.4,2
	c-0.2,0.2-0.4,0.5-0.6,0.7c-0.5,0.6-1,0.5-0.6-0.2c0.1-0.2,0.4-0.6,0.6-0.9c0.2-0.3,0.4-0.6,0.5-0.9c0.3-0.5,0.6-0.9,0.5-0.9
	c0,0,0-0.1-0.3,0.1c-0.3,0.3-0.7,1.1-1.1,1.5c-0.2,0.2-0.7,0.8-0.7,0.8s-0.9,0.8-0.9,0.8c-0.3-0.2,0.1-0.9,0.5-1.2
	c0.1-0.3,0.7-0.9,0.7-0.9s0.8-1.4,0.6-1.5c-0.2-0.1-2.7,2.8-3,2.6C405.6,89.5,406.4,88.6,406.4,88.6"/>
<path class="st33" d="M411,84.4c0,0-1.4,0.8-2.1,0.1c0,0,0.3,0.5,0.9,0.5C410.4,85.1,411,84.4,411,84.4"/>
<path class="st36" d="M429.1,34.3c0.7,1.8,2.4,2.1,4.2,2.9c1.2,0.6,1.6,2.8,1.2,4.3c-1,3.9,2.2,2.7,4.4,4.8
	c5.3,5.1-3.5,9.8-4.7,10.6c-1.2,0.8-6,2.3-6.8,2.4c-2.5,0.4-5.8-1-7.9-3.9c-2.1-2.9-0.3-5-0.6-6.9c-0.3-1.9-2.7-1.8-2.5-5.5
	c0.1-4.1,1.4-7.3,3.2-9c3-2.8,7.3-2.2,8.6-1C428.7,33.5,429,33.9,429.1,34.3"/>
<path class="st37" d="M421,49.3c0,0-1.4,0.6-3.3,4.5c-1.8,3.6-2,11.8-2,11.8s2.8,0.9,4.4,0.6C421.6,65.8,421,49.3,421,49.3"/>
<path class="st38" d="M426.2,48.1c0,0,0.9,0.1,5.7,1.1c0.8,0.2,2,1.1,2.4,1.9c2.4,4.3,4.5,12,4.5,12s-4,1.3-5.3,1.3l-1.6-5.1
	c0,0-1.9,10.8-1.1,12.6s2.7,6.5,2.7,6.5s0,1-7.2,1.8c-2.9,0.3-6.5-0.3-6.5-0.3s0.7-7,0.1-10.1c-1-5-2.8-10.9-2.9-11.7
	c-0.1-1.2,2.7-8.1,4.1-8.8c0.4-0.2,1-0.5,1.5-0.7C424.3,48.2,426.2,48.1,426.2,48.1"/>
<path class="st26" d="M425.6,43.2c0,0,0.1,3.5,0.6,4.7c0.4,1.3-0.9,5.9-3.7,6.6c-2.5,0.6-0.7-3.7-0.4-5.5c0-0.2-0.4-6.6-0.4-6.6
	L425.6,43.2z"/>
<path class="st33" d="M421.9,44.4c-0.2-1.1-0.4-2-0.4-2l4.1,0.8c0,0,0,0.7,0.1,1.6C424.2,45.5,422.9,45.2,421.9,44.4"/>
<path class="st26" d="M424.4,33.8c0,0,1.6,0.4,2.5,2c0.9,1.6,1.4,6.2-2,8.1s-5.9-1.2-5.8-4.1C419.2,37,420,33.1,424.4,33.8"/>
<path class="st26" d="M418.8,38.9c0.2,0.7,0.8,1.2,1.2,1c0.4-0.1,0.6-0.8,0.3-1.6s-0.8-1.2-1.2-1C418.7,37.5,418.6,38.2,418.8,38.9"
	/>
<path class="st26" d="M427.2,39.9c-0.3,0.8-0.1,1.5,0.4,1.7c0.5,0.2,1.1-0.3,1.4-1s0.1-1.5-0.4-1.7
	C428.1,38.7,427.5,39.1,427.2,39.9"/>
<polygon class="st29" points="419.6,80.1 431.4,78.2 428.9,61.8 416.5,64.2 "/>
<path class="st25" d="M417.8,71.1c0-0.1,1,0.2,1.7-0.1c0.1-0.1-0.5-0.4-0.6-0.5c0,0-1.2-0.5-1.2-0.9s1-0.4,1-0.4s2.8,0.7,3.2,1
	s0.6,0.5,0.7,0.6c0.2,0,0.3,0,0.4,0c2.4-0.1,6.1-1.4,11.7-3.4l-0.6-3c1.2-0.2,3.3-0.8,4.3-1.1c0.4,2.3,1.2,6.3,0.9,7.2
	c-0.2,0.6-3.2,1.6-6.6,2.5c-4.3,1.2-5.5,1.1-9.3,1.6c-1.1,0.1-2.6,0.8-3.2,0.9c-0.9,0.2-1.2,0.3-1.7,0c-0.5-0.3-0.6-1.3-0.6-1.9
	C417.7,72.3,417.6,71.9,417.8,71.1"/>
<path class="st39" d="M83.8,87.4H71.5c-1,0-1.8,0.8-1.8,1.9v6.9h2.1v-6.6h12.1V87.4z"/>
<path class="st26" d="M86.2,82.7l-3.8-4c0,0-4.1,2.2-8.9,4.4c-1.3-2.3-3.5-9.8-3.6-10.2c-0.1-0.4,2.5-4.9,1.9-5
	c-0.6-0.1-1.3,2.4-2,2.2c-0.6-0.3-2.2-6.1-2.6-5.8c-0.7,0.6,0.8,3.6,0.5,3.9c-0.4,0.2-1.3-3.4-2-3.2c-0.7,0.1,1.2,3.3,1,3.6
	s-2.2-2.6-2.6-1.9c-0.2,0.4,1.8,2.6,1.4,2.8c-0.4,0.2-2.3-1.1-2.5-0.7c-0.2,0.4,1.7,0.9,2.3,2c0.6,1.1,1.5,1.6,1.9,3.7
	c0.3,2.1,1.2,13.5,3.6,14.4C72.8,89.7,86.2,82.7,86.2,82.7"/>
<path class="st26" d="M121.5,135.3c0.3-2.1,0.3-6.1,0.1-10.3c1.9-0.1,3.5-0.2,5.3-0.3c-0.8,5.3-1.3,10.8-1.3,10.8l0.1,1.1l0.1,3.1
	l-10.6,0.1c0,0,2.2-1,5.4-2.9C120.9,136.6,121.4,136.2,121.5,135.3"/>
<path class="st33" d="M126.2,140.3l-11.2,0.1c-0.4,0-0.5-0.4-0.4-0.6c0.3-0.4,1.6-0.7,3-1.4c2.5,0.3,7.8-1.5,8.2-2
	C126,137.6,126.4,140.3,126.2,140.3"/>
<path class="st26" d="M140.5,133c-0.9-2-3-5.3-5.3-8.8c1.5-1.1,3.1-2.2,4.6-3.2c2.1,4.9,4.4,10.1,4.4,10.1l0.7,0.8l1.7,2.6l-9,5.7
	c0,0,1.4-2,3-5.3C140.7,134.6,140.9,133.9,140.5,133"/>
<path class="st33" d="M147,135.1l-9.3,5.8c-0.4,0.2-0.6,0-0.6-0.3c0-0.5,0.9-1.4,1.8-2.8c2.3-1.1,5.8-5.4,5.9-6.1
	C145.6,132.7,147.2,135,147,135.1"/>
<path class="st28" d="M136.2,45.7c0.8-4-1.8-8.1-5.4-9.6c0-2.3-0.7-5.2-2.3-6.8c-3.1-3.1-9-4.2-11.3-0.2c-3,1.7-5.4,5.4-4.5,8.8
	c-2.9,3-1.8,8.5,2.4,11.1c-0.1,3.4,1.7,6.8,4.7,8.2c0.7,0.4,1.8,0.8,2,1c-0.2-0.2,2.2,6.5,9.6,3.4C138.9,58.4,141.1,49.7,136.2,45.7
	"/>
<path class="st36" d="M121.3,132.2c0.9-5.1-2.3-17.7-4.2-23.3c-2-5.8-3.3-30.2-3.3-30.2l2.3-2.7l9.4-0.6c0,0-4,12.2-4,16.4
	c0,4.2,1.9,15.1,4.2,20.7c2.1,5.2,1.2,16.1,0.6,19.7C124.6,132.7,123,132.6,121.3,132.2"/>
<path class="st32" d="M127.8,76.6c0.4,0.4,2.9,3.4,2.9,5.5s-4.7,20.8-3.6,22c1.1,1.1,5.4,4,8,7.9c2.3,3.3,7.5,13,8.4,15.3
	c-2,1.4-3.7,2-5.6,2.6c-0.3-1.7-15.7-18.6-17.4-22.1c-1.8-3.5-2.7-19.7-3.6-21.9c-0.9-2.1-3.2-7.6-3.2-7.6L127.8,76.6z"/>
<path class="st40" d="M114.2,62.8c0,0-5.8,6.6-12.2,9.1c-1,0.4-1.9,1.1-1.9,1.1c0,0.7,1.3-0.1,1.3-0.1s-0.6,1-0.3,1.8
	c0.2,0.8,1.6,0.3,2.4,0.3c0.3,0,2.1-2,4.5-3.2c2.8-1.4,6.2-2.8,6.6-3.2C115.4,67.8,114.4,62.5,114.2,62.8"/>
<path class="st41" d="M125.9,44.2c0,0-5.8-0.6-8.9,1.3c-3,1.9-5,8.8-5,11.8s2.2,18.4,1.3,21.4c0,0,9.6-0.4,12.9-0.4
	c3.3,0,4-1.3,4-1.3s-6.8-6.7-6.8-9.7C123.5,64.4,125.9,44.2,125.9,44.2"/>
<path class="st39" d="M54.8,123.3h-7.2c0.1-2,1.7-3.6,3.6-3.6h3.7L54.8,123.3L54.8,123.3z M46.5,123.6v10.1h1.1v-9.2h7.2v3.1
	c-2.8,0.3-5,2.9-5,6c0,3.3,2.5,6.1,5.5,6.1s5.5-2.7,5.5-6.1c0-3.1-2.2-5.7-5-6v-3.1h1.5v-1.2h-1.5v-3.6h1.5v-1.2h-1.5v-4h19.8v-1.8
	H64.8v-10.3c0-2.7,2.5-5.8,5.9-5.8h9.4v-1.8h-9.4c-4,0-7.5,3.6-7.5,7.6v10.3h-7.2v-5.8h-1.1v11.6h-3.7
	C48.6,118.5,46.5,120.8,46.5,123.6"/>
<path class="st25" d="M50.8,125.2l0.2,3.9c0.1,0.5,0.4,1.7,0.4,2.2c0,1.7-7.5-1.4-5.8-2.2c0.2-0.1,1-1,1.2-1.5
	c0.4-0.9,0.6-2.8,0.6-2.8L50.8,125.2z"/>
<path class="st29" d="M45.6,129c0,0,1.8,0.5,2.7,0.6c0.9,0.1,2.1-1,2.7-0.7c0.7,0.3,0.7,3.3,0.7,3.3s-9.4,0.3-12.2-0.1
	C38.5,132.1,42,130.2,45.6,129"/>
<path class="st39" d="M88.3,116.9h2.1V77.3c0-1.3,1.3-2.4,2.9-2.4H112c0.5,0,0.9-0.4,0.9-0.9s-0.4-0.9-0.9-0.9H93.3
	c-2.8,0-5,1.9-5,4.1V116.9z"/>
<path class="st39" d="M78.6,108.6c6.9,0,12.5,5.6,12.5,12.6c0,7-5.6,12.6-12.5,12.6s-12.5-5.6-12.5-12.6
	C66.1,114.2,71.7,108.6,78.6,108.6"/>
<path class="st39" d="M64.8,121.2c0-7.7,6.2-13.9,13.8-13.9s13.8,6.2,13.8,13.9s-6.2,13.9-13.8,13.9S64.8,128.9,64.8,121.2
	 M63.4,121.2c0,8.5,6.8,15.4,15.2,15.4s15.2-6.9,15.2-15.4c0-8.5-6.8-15.4-15.2-15.4S63.4,112.7,63.4,121.2"/>
<rect x="88.6" y="80" class="st29" width="6.1" height="23.7"/>
<g>
	<path class="st31" d="M58.3,133.7h1.2v-10.1c0-2.2,1.7-3.9,3.9-3.9h6.8v-1.2h-6.8c-2.8,0-5.1,2.3-5.1,5.1L58.3,133.7L58.3,133.7z"
		/>
</g>
<rect x="50.3" y="105.2" class="st39" width="16.1" height="2.8"/>
<rect x="58.9" y="123.3" class="st31" width="11.3" height="1.2"/>
<rect x="67.9" y="112.6" class="st31" width="22.1" height="1.8"/>
<rect x="66" y="105.2" class="st39" width="28.8" height="2.8"/>
<g>
	<path class="st31" d="M93.9,119h1.8V79.5c0-1.3,1.1-2.4,2.5-2.4h16.8v-1.7H98.1c-2.4,0-4.3,1.9-4.3,4.1V119z"/>
	<path class="st36" d="M61.3,133.7c0,3.3,3,6.1,6.7,6.1c3.7,0,6.7-2.7,6.7-6.1c0-3.3-3-6.1-6.7-6.1
		C64.2,127.6,61.3,130.3,61.3,133.7"/>
	<path class="st42" d="M63.9,133.7c0,2,1.8,3.7,4.1,3.7s4.1-1.6,4.1-3.7s-1.8-3.7-4.1-3.7S63.9,131.6,63.9,133.7"/>
	<path class="st31" d="M68,136.8L68,136.8c0.9,0,1.6-0.7,1.6-1.6v-4.2h-3.1v4.2C66.4,136.1,67.1,136.8,68,136.8"/>
	<path class="st39" d="M51.7,94.8c1.9-1.9,28.8-1,28.8-1s-22.8,5.6-24.1,6.3s-6.3,25.2-6.3,25.5c-1.4-0.3-2.2-0.1-3.6-0.4
		C46.7,120.9,48.5,97.9,51.7,94.8"/>
	<path class="st26" d="M54.3,125.3l0.2,3.9c0.1,0.5,0.4,1.7,0.4,2.2c0,1.7-7.5-1.4-5.8-2.2c0.2-0.1,1.2-1,1.2-1.5
		c0.1-0.9,0-2.3,0-2.3L54.3,125.3z"/>
	<path class="st29" d="M49.1,129.2c0,0,1.8,0.5,2.7,0.6c0.9,0.1,2.1-1,2.7-0.7c0.7,0.3,0.7,3.3,0.7,3.3s-9.4,0.3-12.2-0.1
		C42,132.2,45.5,130.4,49.1,129.2"/>
	<path class="st28" d="M84.7,99.3c0,0-0.2,6.1-2.3,6.2c-2,0.1-15.1,0.4-22.4-0.3L55.1,127l-5.8-0.6c0,0,1.8-14.6,2.4-20.1
		c0.6-5.5,2.4-10,5.5-10.1s23.4-3.2,23.4-3.2L84.7,99.3z"/>
	<path class="st35" d="M90.2,70.8c0,0,3.3,0.8,2.8,7.3c-0.4,6.4-4,25.9-10.6,27.4S71.6,93.1,71.6,93.1s4.2-1.4,5.9-7.8
		c1.2-4.5,4.4-14.5,5.2-15C84.6,69.1,90.2,70.8,90.2,70.8"/>
	<path class="st31" d="M76.4,114h1.8v-11.7c0-2.7,2.7-5.8,6.4-5.8h10.2v-1.8H84.6c-4.4,0-8.2,3.6-8.2,7.6L76.4,114L76.4,114z"/>
	<path class="st42" d="M80.4,122.9c0,8,6.4,14.5,14.4,14.5s14.4-6.5,14.4-14.5s-6.4-14.5-14.4-14.5S80.4,114.9,80.4,122.9"/>
	<path class="st42" d="M78.9,122.9c0-8.8,7.1-16,15.8-16s15.8,7.2,15.8,16s-7.1,16-15.8,16S78.9,131.7,78.9,122.9 M77.2,122.9
		c0,9.7,7.8,17.7,17.5,17.7s17.5-7.9,17.5-17.7s-7.8-17.7-17.5-17.7S77.2,113.1,77.2,122.9"/>
	<path class="st36" d="M82.9,122.9c0,6.6,5.3,12,11.8,12c6.6,0,11.8-5.4,11.8-12c0-6.6-5.3-12-11.8-12
		C88.2,110.9,82.9,116.3,82.9,122.9"/>
	<path class="st39" d="M92.1,122.9c0,1.5,1.2,2.7,2.7,2.7c1.5,0,2.7-1.2,2.7-2.7c0-1.5-1.2-2.7-2.7-2.7
		C93.3,120.2,92.1,121.4,92.1,122.9"/>
</g>
<rect x="41.9" y="132.4" class="st28" width="18.1" height="3.1"/>
<rect x="49.7" y="132.4" class="st31" width="10.3" height="3.1"/>
<rect x="67.3" y="107.9" class="st31" width="1.2" height="27.6"/>
<path class="st39" d="M67.2,134c0,0.4,0.3,0.7,0.7,0.7s0.7-0.3,0.7-0.7s-0.3-0.7-0.7-0.7C67.6,133.3,67.2,133.6,67.2,134"/>
<path class="st36" d="M88.2,53.6c0,0,2.3-1.6,3.3,1.2c0,0,0.8,0,0.9,0c0.5,0.2,0.9,0.6,1.4,0.9c1.5,1,2.2,2.8,2.3,4.6
	c0.1,2.1-0.8,3.6-2.1,5.1c-0.4,0.4-0.8,0.9-1.4,1.2c-0.6,0.3-1.1,0.1-1.7,0.2c-0.5,0.1-0.7,0.7-1.3,0.5c-0.8-0.3-1.7-1.3-2.8-1.2
	c-1,0.1-3.4-0.8-3.4-0.8c-3.1-1.2-1-7.1-0.4-9.3C83.4,54,86.3,52.8,88.2,53.6"/>
<path class="st26" d="M85.4,67.1l-0.8,2.2l-0.4,1.2c0,0,0,2.2,0.5,2.7c0.9,1,4.5-2.6,4.5-2.6l1.1-6.9L85.4,67.1z"/>
<path class="st33" d="M89.9,65.9c-1.4,2.1-3.7,3.1-5.3,3.3l0.8-2.2l4.9-3.3L89.9,65.9z"/>
<path class="st26" d="M89.3,56.7c-1.8-1.1-4.2-0.3-5,1.7c-0.3,0.9-0.7,1.9-1,3.2c-0.7,2.9,0.2,6.1,1.5,6.4c1.3,0.3,5.4-0.8,6.5-4.9
	C92,60.5,91.2,57.9,89.3,56.7"/>
<path class="st26" d="M90.3,63.2c-0.1,0.6,0.2,1.3,0.7,1.4c0.5,0.1,1.1-0.3,1.2-1c0.1-0.6-0.2-1.3-0.7-1.4
	C91,62.1,90.4,62.5,90.3,63.2"/>
<path class="st36" d="M86.2,64.4c0,0,1.8,0.6,1.9,1.2s-0.1,1.6-0.9,2.3c-0.9,0.7-2.7,0.3-3.2-0.1s-0.9-2.1-0.4-3
	C84.1,63.8,86.2,64.4,86.2,64.4"/>
<path class="st26" d="M86.8,65.7c0,0,0,0.7-0.2,0.9c-0.2,0.1-0.5,0.2-0.8,0.3c-0.4,0-0.8-0.1-1.1-0.5c0,0,0-0.1-0.1-0.1
	c-0.2-0.4-0.2-1-0.2-1s0.7-0.2,1.2-0.1C85.9,65.2,86.8,65.7,86.8,65.7"/>
<path class="st40" d="M105.7,74.1c0.7-0.7,3.9-1.8,6.4-3.5c1.1-0.8,3.2-1.8,5.2-2.9c1.5,0.8,2.8,1.9,3.8,3.1c-3.7,1.7-7.6,3.4-8.2,4
	c-1.1,1.1-3.1,3.7-3.6,3.7s-4-1-4.5-1.6C104.2,76.3,105,74.8,105.7,74.1"/>
<path class="st33" d="M117.3,67.6c2.6-1.4,5-3,5.3-4.4c0.5-2.5-1.6-13.2-0.5-15.3s3.8-3.8,3.8-3.8c0.4,0,1.9,0.9,2.4,2.8
	c0.4,1.8-0.3,18.5-0.8,20c-0.2,0.7-3.1,3.5-6.3,5C120.2,70.8,118.8,68.5,117.3,67.6"/>
<path class="st26" d="M91,90.1l-10.2,2.7c0,0-3,2.2-4.3,2.6c-1.3,0.4-3,1.9-2.7,2.4c0.3,0.4,2-1.1,2.3-1c0.3,0.1-1,1.9-1.2,3.1
	c-0.2,1.2-0.6,2.4,0.1,2.3s1.2-2.8,1.2-2.8s1.1-2,1.2-1.8c0.2,0.2-0.7,1.6-0.7,1.6s-0.2,1.5-0.3,2.1c-0.1,0.4,0.3,1.6,0.6,1.1
	c0.2-0.3,0.1-1.2,0.3-1.8c0.4-1.1,1.2-2.1,1.2-2.1s-0.8,3.4-0.3,3.5c0.5,0.1,1-2.8,1-2.8s1.2-2.4,1.7-2.6c0.5-0.2,1.9-1.1,3-1.5
	c1.1-0.4,5.6,0.9,7.6,0.9c2,0,5.3-1.2,5.5-2.8c0.1-0.5-0.2-1-0.7-1.5C95,90.2,92.9,89.6,91,90.1"/>
<path class="st43" d="M90.2,70.8c0,0,3.1-0.6,5.9,4.5c2.8,5,1,17.9,1,17.9l-6-3.1L90.2,70.8z"/>
<path class="st25" d="M105.4,73.4c0,0-1.2,1.7-1.6,1.7s-2.3,0.1-2.6-0.2c-0.3-0.3,1.1-2.5,1.6-2.5s-0.6,1.5-0.4,1.6
	c0.1,0.1,1.2-2.3,1.7-2.1s-1.1,2-0.9,2.1s1.3-2,1.8-2c0.4,0-1,1.9-0.9,2.1C104.3,74.3,105.2,73.2,105.4,73.4"/>
<path class="st26" d="M122.9,39c0,0-0.7,3.6-0.5,5c0.1,1.4-0.5,5.9-3.3,6c-2.8,0-0.9-4.7-0.6-6.1c0.3-1.4,0.7-6.7,0.7-6.7L122.9,39z
	"/>
<path class="st33" d="M119,39.2c0-1.2,0.2-2.1,0.2-2.1l3.7,1.9c0,0-0.1,0.7-0.3,1.7C121,41,119.7,40.3,119,39.2"/>
<path class="st26" d="M123,28.7c0,0,1.6,0.6,2.4,2.3c0.9,1.7,1.1,6.5-2.3,8.4c-3.5,1.8-5.7-1.6-5.5-4.6
	C117.8,31.7,118.8,27.7,123,28.7"/>
<path class="st26" d="M116.6,33.9c-0.1,0.8,0.2,1.5,0.6,1.5c0.4,0,0.9-0.6,0.9-1.4s-0.2-1.5-0.6-1.5
	C117.1,32.5,116.7,33.1,116.6,33.9"/>
<path class="st26" d="M125.1,35.2c-0.3,0.8-0.2,1.6,0.3,1.8c0.5,0.2,1.1-0.2,1.4-1c0.3-0.8,0.2-1.6-0.3-1.8
	C126.1,34,125.4,34.4,125.1,35.2"/>
<path class="st25" d="M389.7,86.2c0,0-0.5-0.5-0.6-0.7c-0.2-0.2-0.6-0.9-0.6-0.9s-1.4-2.5-1.2-2.6c0.2-0.1,0.7,0.2,0.8,0.3
	c0.1,0.1,0.3,0.2,0.5,0.4s0.4,0.1,0.5,0c0.2-0.2-0.3-0.8-0.5-0.9c-0.6-0.6-2.6-1.7-2.8-1.9c-0.2-0.2-1.9-4.9-2.6-6.5l0,0
	c-1.1-2.6-2-5.4-2.1-5.6L380,55.6l-4.6-1.3c0,0,1,13.4,1.1,14.1c0.1,0.3,3,6.2,3,6.2c1.6,2.8,3.1,5.3,3.3,5.8c0,0,0.4,1.6,0.6,2.7
	s0.8,2,0.9,2.3c0,0,0.3,1.1,1.1,2.1c0.7,0.9,0.5-0.3,0.5-0.3s-1-1.9-0.8-1.9c0.1,0,0.6,1,1.3,2c0.2,0.3,0.4,0.5,0.6,0.7
	c0.5,0.6,1,0.5,0.6-0.2c-0.1-0.2-0.4-0.7-0.6-0.9c-0.2-0.3-0.3-0.6-0.5-0.9c-0.3-0.6-0.5-0.9-0.5-0.9c0,0,0-0.1,0.3,0.1
	c0.2,0.3,0.6,1.1,1,1.6c0.2,0.2,0.7,0.8,0.7,0.8s0.8,0.8,0.9,0.8c0.3-0.2-0.1-0.9-0.5-1.2c-0.1-0.3-0.6-0.9-0.6-0.9
	s-0.7-1.4-0.5-1.5c0.2-0.1,2.6,2.9,2.9,2.6C390.4,87.1,389.7,86.2,389.7,86.2"/>
<path class="st25" d="M343.4,60.6c0-0.1-0.2-0.3-0.4-0.5c-0.2-0.3-0.5-0.5-0.5-0.5s0-0.2-0.1-0.5c0-0.1-0.1-0.3-0.2-0.4
	c0-0.1,0-0.3,0-0.4c-0.1-0.3-0.2-0.6-0.4-0.5c-0.2,0,0.1,2.1,0.1,2.1c1,1.2,1.4,3.1,5.7,4.4c2.1,1.1,12.6,5.9,13.6,5.3
	c0.6-0.3,3.3-4.6,5.3-7.9c-1-0.5-3.1-1.5-4.2-2.1c-1.1,2.3-2.7,5.3-3,5.4c-0.1,0-0.3,0.1-8.3-2.5c-0.2-0.1-0.4-0.1-0.6-0.2
	c-0.6-0.2-1.2-0.4-1.8-0.6l-1.1-1.7c0,0-2.2-2.3-2.5-2.2c-0.1,0.1,0,0.3,0.1,0.6l0,0c0,0,0,0.1,0.1,0.1l0,0c0.2,0.3,0.4,0.6,0.5,0.7
	c0,0.1,0.1,0.3,0.1,0.5c-1.9-1-1.5-1.1-1.9-1.6c-0.1-0.1-0.2-0.2-0.3-0.4c-0.1-0.2-0.2-0.5-0.3-0.6c-0.2-0.2-0.4-0.3-0.5-0.4
	c-0.1,0-0.1,0.1,0,0.4c0.5,1.6,1.4,2.4,1.6,2.8c0.1,0.2-0.3-0.1-0.7-0.7c-0.1-0.2-0.3-0.3-0.4-0.6c-0.1-0.2-0.1-0.4-0.2-0.5
	c-0.1-0.1-0.2-0.3-0.2-0.4c-0.1-0.1-0.1-0.4-0.2-0.5c-0.3-0.4-0.5-0.6-0.6-0.6c-0.1,0,0.6,2.3,0.6,2.3s0.8,1.4,1,1.6
	C343.6,60.6,343.7,60.8,343.4,60.6"/>
<path class="st44" d="M379,40.4c0.5-2.1,0.9-4.3-0.3-6.7c-1-1.9-2.7-3-4.8-3.2c-5.7-0.7-6.2,4.4-11.6,6.6c-2.3,0.9-4.7,0.7-6.8,1.9
	c-3.7,2.2-5.7,8.4-3.2,14.3c6,14.2,20.3,4.9,22.2,2.1C375.9,53.3,378.7,41.8,379,40.4"/>
<path class="st25" d="M377.5,49.8c-3,0.9-11.3,3.6-11.7,3.5l-7.5-6l-4.6,4.1c0,0,10.4,7.7,10.9,7.9c0.4,0.2,9.5-4.5,13.8-6.6
	C378.3,51.3,378.2,51,377.5,49.8"/>
<path class="st32" d="M363.7,50.7l-4.7,6.1c0,0-5-3.8-6.8-5.9c-2.2-2.5-4.7-7.9-4.3-8.1c1-0.6,3.2-1,4.7-0.7
	C357.7,43.3,363.7,50.7,363.7,50.7"/>
<path class="st34" d="M376.2,60.2l4.8-2.7c0,0-2.2-9.2-6-9.4L376.2,60.2z"/>
<path class="st26" d="M356.2,130.2c0,0-0.4,4.1-1.5,4.9c-1,0.8-2.4,3.6-1.7,5.1c0.2,0.5,0.6,0.8,1.1,0.9c1.5,0.4,3-0.3,3.6-1.7
	c0.4-0.8,0.6-1.8,0.7-3.1c0.2-3.4,1.2-5.1,1.2-5.1L356.2,130.2z"/>
<path class="st26" d="M372.2,131.8c0,0,0.3,4.1,0.1,5.5c-0.1,0.7-0.9,2.2-0.6,2.9c0.4,0.7,0.8,0.9,0.8,0.9l9.5,0.1
	c0.5,0,0.2-0.3-0.2-0.6c-0.7-0.5-1.2-0.8-3.4-1.9c-0.1-0.1-0.7-0.4-0.8-0.5c-0.5-0.3-1-0.7-1.4-1.2c-0.7-0.8-0.7-4.4-0.7-4.4
	L372.2,131.8z"/>
<path class="st41" d="M379.6,76.6c0,0,1.2,6.8,0.4,11.2s-4.5,45.4-4.5,45.4l-4.2,0.2c0,0-0.9-17.1-0.7-19.5c0.2-2.4,1.4-6.4,1.4-6.4
	l-0.4-13.8l5.3-18.2L379.6,76.6z"/>
<path class="st33" d="M367.3,75.2c0,0-3.3,4.9-4.1,9c-0.8,4.1,0.6,16.6-0.9,22c-0.8,2.9-3.9,7.4-4.4,11.1s-2.3,13.5-2.3,13.5
	l4.2,0.8l9.7-24.5l7.6-22.1l2-11.4L367.3,75.2z"/>
<path class="st38" d="M370,47.1c0,0-2.2,0.4-3.9,2c-3.6,3.5,2.1,17.1,2.4,19.5c0.3,2.4-2.6,7.9-2.6,7.9s10.7,2,13.7,0.1
	c0,0,0.3-19.1,0-20.8s-3.8-6.9-4.4-7.6C374.6,47.5,370,47.1,370,47.1"/>
<path class="st26" d="M371.5,41.3c0,0,0,0.1-0.1,0.3c-0.2,1-0.9,4.5-1.4,5.5c-0.6,1.2,2.1,4.8,4.7,4.4c0.8-0.1-0.6-3.4-0.6-3.7
	c0.1-0.7,0.3-1.6,0.5-2.5c0.1-0.5,0.2-1,0.3-1.5c0.3-1.4,0.5-2.6,0.5-2.6L371.5,41.3z"/>
<path class="st33" d="M371.4,41.7c0-0.2,0.1-0.3,0.1-0.3l3.9-0.1c0,0-0.2,1.2-0.5,2.6c-0.1,0.5-0.2,1-0.3,1.5
	c-0.6-0.1-1.2-0.4-1.9-0.9c-0.7-0.6-1.1-1.3-1.4-2.1C371.3,42,371.4,41.8,371.4,41.7"/>
<path class="st26" d="M373.8,32.1c0,0-1.6,0.2-2.7,1.7c-1.1,1.5-2.4,6.1,0.5,8.6c2.9,2.5,5.7-0.3,6.1-3.3S378,32,373.8,32.1"/>
<path class="st26" d="M378.5,38c-0.3,0.7-0.9,1-1.3,0.8c-0.4-0.2-0.4-0.9,0-1.6s0.9-1,1.3-0.8C378.9,36.6,378.9,37.3,378.5,38"/>
<path class="st44" d="M374.3,32c0,0-2.5,4.4-4.2,4.6s-2,2.5-2,2.5s0.6-5.3,2.4-6.4C372.2,31.7,374.3,32,374.3,32"/>
<path class="st26" d="M370.6,37.6c0.1,0.8-0.1,1.5-0.6,1.6c-0.5,0.1-1-0.4-1.2-1.2c-0.1-0.8,0.1-1.5,0.6-1.6
	C370,36.3,370.5,36.8,370.6,37.6"/>
<path class="st32" d="M358.1,138.5c-2.3,0.4-3.8-0.9-4.6-1.9c-0.6,1.1-0.9,2.5-0.5,3.4c0.4,0.8,1.4,1,2.2,1.1c0.9,0,1.8-0.4,2.2-1.2
	C357.7,139.6,357.9,139.1,358.1,138.5"/>
<path class="st32" d="M377.5,138.2c-2.5,0.6-4.4,0.2-5.4-0.2c-0.3,0.8-0.6,1.7-0.4,2.2c0.2,0.7,0.6,0.8,0.9,0.8
	c2.3,0.1,8.4,0.1,10.1,0.2c0.2,0,0.4-0.3,0.2-0.5C382.4,140.3,377.6,138.3,377.5,138.2"/>
<path class="st34" d="M361,61.6l6.7,0.8c0,0,2.5-6.6,2-10c-0.5-3.5-1.8-3.8-2.5-3.8c-2,0.1-3.9,2.8-5.2,6.9
	C360.6,59.7,361,61.6,361,61.6"/>
<path class="st26" d="M360.6,132.9l-0.2,3.9c-0.1,0.5-0.4,1.7-0.4,2.2c0,1.7,7.5-1.4,5.8-2.2c-0.1-0.1-1-0.6-1-1.1
	c-0.1-0.9-0.3-2.7-0.3-2.7L360.6,132.9z"/>
<path class="st36" d="M365.8,136.8c0,0-1.8,0.5-2.7,0.6s-2.1-0.9-2.7-0.7c-0.7,0.3-0.6,4.1-0.6,4.1s9.8,0.8,12.5-0.1
	C373.3,140.5,369.4,138,365.8,136.8"/>
<path class="st26" d="M344.1,132.9l-0.2,3.9c-0.1,0.5-0.4,1.7-0.4,2.2c0,1.7,7.5-1.4,5.8-2.2c-0.1-0.1-1.2-1-1.2-1.5
	c-0.1-0.9,0-2.3,0-2.3L344.1,132.9z"/>
<path class="st36" d="M349.3,136.8c0,0-1.8,0.5-2.7,0.6s-2.1-0.9-2.7-0.7c-0.7,0.3-0.9,4-0.9,4s10.4,1,12.8,0.3
	C356.8,140.8,352.9,138,349.3,136.8"/>
<path class="st28" d="M356,76.9l3.2,1.4l6.7,31.8l-0.3,23.8l-5.3,0.1c0,0-2.5-20.8-2.5-22.5c0-1.6-11.5-28.3-11.5-28.3L356,76.9z"/>
<path class="st29" d="M353.5,78.7c0,0-0.9,24.1-0.9,28.2s-1.3,27.3-1.3,27.3l-7.4,0.2c0,0-0.4-7-1-17.4c-0.1-1.6,0.1-4.9,0-6.6
	c-0.8-12.1-2.5-23.4-1.7-28c0.1-0.7,0.4-2.6,0.8-3.1C345.6,75.8,353.5,78.7,353.5,78.7"/>
<path class="st35" d="M344.7,42.1c0,0-3.7,0.5-4.7,1.2c-1.1,0.8-2.3,2.6-2.3,2.6s4.5,21.4,4.5,25c0,2.8-1,9.6-1,9.6
	s13.7,0.9,18.9-1.2c0,0-1.6-8.1-1.6-10.3s-2-21.6-2.4-22.9c-0.4-1.2-1.1-3.4-3.6-4C350,41.6,344.7,42.1,344.7,42.1"/>
<path class="st39" d="M354.1,63.9l0.1,0.5c0,0.3,0.3,0.4,0.6,0.4l10.6-1.8c0.3-0.1,0.4-0.3,0.4-0.6l-0.1-0.5c0-0.3-0.3-0.4-0.6-0.4
	l-10.6,1.8C354.3,63.3,354.1,63.6,354.1,63.9"/>
<path class="st26" d="M339.1,44.8c1.2,0,2.3,8.1,1.5,9c-0.8,0.8-0.9,10.9-0.9,10.9l11.7-0.3l0,0c0.2-0.1,2.7-1.8,3-2.2
	c0.4-0.4,2.2-0.2,2.6,0.3s-1,0.1-1.5,0.4c-0.4,0.3,0.3,1,0.3,1s3,0.4,3.5-0.2c0.6-0.6,2.1-1.6,2.3-1c0.1,0.3-0.7,1.3-1.1,1.7
	c0.6-0.4,1.2-0.9,1.5-0.8c0.4,0.1,0.2,0.7,0,0.8c-0.2,0.2-2.6,2-3,2.1c-0.4,0.1-5.8,0.3-6.8,0.5c0,0-15.5,3.5-16.3,3.3
	c-0.8-0.2-1.5-5.1-1.5-8.9C334.6,57.6,335.3,44.9,339.1,44.8"/>
<path class="st35" d="M340.8,43c0,0-2.2,0.5-4.4,3c-2,2.3-3.3,15.1-3.3,15.1l7,1.1l0.6-6.2l1.9-2.8L340.8,43z"/>
<path class="st26" d="M374.5,47.8c0,0,0.5-0.5,1.4-0.5s2.1,1.2,2.3,1.6c0.1,0.2-0.5,1.9-0.7,2.3c-0.1,0.2-0.5,0.3-0.6,0.2
	c-0.1-0.1,0-0.5,0-0.5c0-0.2,0.4-1.2,0.4-1.2s-0.6,1.1-0.9,1.1s-0.4-0.2-0.4-0.2c0.1-0.4,0.5-1.3,0.5-1.3s-0.7,1-1,0.9
	c-0.3-0.1-0.2-0.5-0.1-0.6c0-0.1,0.5-0.8,0.5-0.8s-0.8,1-0.9,0.7c-0.1-0.2,0.4-1.2,0.4-1.2L374.5,47.8z"/>
<path class="st26" d="M344,36.9l0.6,5.8c0,0,2.8,3.7,4.5,2.9c1.5-0.7,0.8-3,0.8-3s-0.2-1-0.6-2.2c-0.2-0.8-0.5-1.7-0.4-2.4
	C348.9,36.4,344,36.9,344,36.9"/>
<path class="st33" d="M349.3,40.4c-0.2-0.8-0.4-1.7-0.4-2.3c0-1.6-4.9-1.1-4.9-1.1l0.1,0.7c0,0.1,0.1,0.2,0.1,0.2
	C345.2,39.9,347.6,40.9,349.3,40.4"/>
<path class="st36" d="M352.5,28.1c0,0,0.6,3.3-0.2,5.5s-1.9,3.4-1.9,3.4l-2.6-8.8L352.5,28.1z"/>
<path class="st25" d="M353,33.3c-0.2,0.8-0.8,1.3-1.3,1.2c-0.5-0.2-0.6-0.9-0.4-1.7s0.8-1.3,1.3-1.2C353.1,31.8,353.3,32.6,353,33.3
	"/>
<path class="st26" d="M345.6,28.4c-0.1-0.1-2.8,6.1-1.7,8.4s4.1,3.3,5.7,2.2c1.7-1.2,3.7-7.7,1.7-10.3
	C349.2,26.2,345.6,28.4,345.6,28.4"/>
<path class="st36" d="M346.8,24.4c-1.9,0.6-3,1.2-4.8,2.9c-2.3,2.1-1.2,5.9,0.2,7.8s2,3.7,2,3.7s-0.2-2.2-0.2-2.7
	c0-0.4,0-1.8-0.1-2.2c-0.2-1.1-0.2-1.3,0.4-1.9c0.5-0.5,0.8-1.9,1.6-2.8l2.8,0.6c0,0,1.8,0.3,3-0.3
	C355.2,27.7,351.9,22.7,346.8,24.4"/>
<path class="st26" d="M344.6,32.9c0,0.8-0.4,1.5-0.8,1.5c-0.5,0-0.9-0.7-0.9-1.5c0-0.8,0.4-1.5,0.8-1.5
	C344.2,31.4,344.6,32.1,344.6,32.9"/>
<path class="st25" d="M338.2,51.5l0.6-2.7c0,0,2,1.2,3.1,3c1.1,1.8,1.7,6.5,2,6.7c0.3,0.2,3.9-5.4,4.6-6.2c0.8-1.1,1.1-2.3,1.6-3.3
	c0.5-0.9,2.2-1.3,2.9-1.2c0.6,0.1-0.9,2.9-0.9,2.9s-3.9,6.8-5.2,10.5c-1.3,3.7-5.4,5.5-6,5C340.1,65.6,338.2,51.5,338.2,51.5"/>
<path class="st26" d="M350.1,49.5c0,0,0.2-0.7,0.6-0.9s1.2,0,1.2,0s0.9-0.4,0.9-0.4l-0.7,1.3c0,0-1.4,1.6-1.8,1
	C349.9,49.9,350.1,49.5,350.1,49.5"/>
<path class="st25" d="M353.1,48.2c0,0,0.5,2.5,0.4,3c-0.1,0.5-0.4,0.2-0.5,0.1c-0.2-0.5-0.4-2.1-0.4-2.1L353.1,48.2z"/>
<path class="st25" d="M352,50.3c0,0,0.2,1.6,0.5,1.7c0.2,0.1,0.4,0.1,0.4-0.3c0.1-0.3-0.3-2.2-0.3-2.2L352,50.3z"/>
<path class="st36" d="M350.6,54.7l-0.8-0.4l3.5-7.1c0.5,0.2,0.6,0.8,0.4,1.2L350.6,54.7z"/>
<path class="st44" d="M341.9,40.4c0.5-2.2,1-4.5-0.3-6.9c-1-2-2.9-3.1-4.9-3.4c-5.9-0.7-4.7,4.8-12.9,6c-2.6,0.4-5,0.7-7.1,2
	c-3.9,2.3-5.3,6-2.8,12.1c6.3,14.8,21.8,2.2,23.7-0.7C338.9,47.3,341.5,41.8,341.9,40.4"/>
<path class="st26" d="M318.2,133.7c0,0-0.4,4.3-1.5,5.1c-1.1,0.8-2.5,3.7-1.8,5.3c0.2,0.5,0.7,0.8,1.2,0.9c1.5,0.5,3.1-0.3,3.8-1.8
	c0.4-0.8,0.7-1.9,0.7-3.3c0.2-3.5,1.2-5.2,1.2-5.2L318.2,133.7z"/>
<path class="st26" d="M334.8,135.5c0,0,0.3,4.3,0.1,5.7c-0.1,0.8-1,2.3-0.6,3c0.4,0.7,0.8,0.9,0.8,0.9l9.8,0.2
	c0.5,0,0.2-0.3-0.2-0.6c-0.7-0.5-1.3-0.9-3.5-1.9c-0.1-0.1-0.7-0.4-0.9-0.5c-0.5-0.3-1-0.8-1.4-1.2c-0.7-0.8-0.8-4.6-0.8-4.6
	L334.8,135.5z"/>
<path class="st41" d="M342.5,78c0,0,1.2,7,0.4,11.6s-4.7,47.2-4.7,47.2l-4.3,0.2c0,0-0.9-17.8-0.8-20.3s1.5-6.6,1.5-6.6l-0.4-14.4
	l5.5-18.9L342.5,78z"/>
<path class="st33" d="M329.8,76.6c0,0-3.4,5.1-4.2,9.4c-0.8,4.2,0.6,17.3-1,22.9c-0.9,3-4,7.7-4.5,11.6c-0.5,3.9-2.4,14.1-2.4,14.1
	l4.3,0.9l10.1-25.4l7.9-23l2-11.9L329.8,76.6z"/>
<path class="st28" d="M332.5,47.4c0,0-3,0.3-4.8,2.3c-1.8,1.9,2.9,17.6,3.2,20.1s-2.7,8.2-2.7,8.2s11.2,2.1,14.2,0.1
	c0,0,0.3-17.8,0-19.6c-0.3-1.8-3-9-3.7-9.7C338.2,48.1,332.5,47.4,332.5,47.4"/>
<path class="st26" d="M328.3,51.1c0.3-0.9,1.3-1.3,2.1-0.9c1.1,0.5,2.8,1.4,3.5,3.1c1.3,2.7,5.9,12,7.3,12.4s7.1-9.7,7.1-9.7
	s-0.2-1.8,0.3-2.8s2-2.1,2.2-1.7c0.2,0.4-0.8,1.2-0.8,1.4c0,0.2,0.4,0.3,1-0.1c0.6-0.4,0.9-1.1,0.9-1.1s1,1.8,0,3.4
	s-1.5,2.2-1.5,2.2s-6.7,14.8-9.1,15C339.1,72.6,326,58,328.3,51.1"/>
<path class="st26" d="M334,41.4c0,0,0,0.1-0.1,0.4c-0.2,1.1-1,4.7-1.5,5.7c-0.6,1.2,2.2,5,4.9,4.5c0.8-0.1-0.7-3.5-0.6-3.9
	c0.1-0.7,0.3-1.6,0.5-2.6c0.1-0.5,0.2-1.1,0.3-1.6c0.3-1.5,0.5-2.7,0.5-2.7L334,41.4z"/>
<path class="st33" d="M334,41.7c0-0.2,0.1-0.4,0.1-0.4l4-0.1c0,0-0.2,1.2-0.5,2.7c-0.1,0.5-0.2,1.1-0.3,1.6c-0.6-0.1-1.3-0.4-1.9-1
	c-0.7-0.6-1.2-1.4-1.5-2.2C333.9,42.1,334,41.9,334,41.7"/>
<path class="st26" d="M336.5,31.8c0,0-1.6,0.2-2.8,1.8c-1.2,1.5-2.5,6.3,0.5,8.9s5.9-0.3,6.3-3.4C340.9,35.9,340.8,31.6,336.5,31.8"
	/>
<path class="st26" d="M341.4,37.9c-0.4,0.7-1,1.1-1.3,0.8c-0.4-0.2-0.4-0.9,0-1.6s1-1.1,1.3-0.8S341.8,37.2,341.4,37.9"/>
<path class="st44" d="M337,31.7c0,0-2.5,4.5-4.4,4.7s-2.1,2.6-2.1,2.6s0.6-5.6,2.5-6.6C334.8,31.4,337,31.7,337,31.7"/>
<path class="st26" d="M333.2,37.5c0.1,0.8-0.1,1.5-0.7,1.7c-0.5,0.1-1-0.5-1.2-1.3c-0.1-0.8,0.1-1.5,0.7-1.7
	C332.5,36.1,333.1,36.7,333.2,37.5"/>
<path class="st32" d="M320.1,142.4c-2.4,0.4-3.9-0.9-4.8-2c-0.6,1.2-1,2.6-0.5,3.6c0.4,0.9,1.5,1.1,2.3,1.1c1,0,1.8-0.5,2.3-1.3
	C319.7,143.5,320,143,320.1,142.4"/>
<path class="st32" d="M340.3,142.1c-2.6,0.7-4.5,0.2-5.6-0.2c-0.3,0.8-0.6,1.8-0.5,2.3c0.2,0.7,0.6,0.9,0.9,0.9
	c2.4,0.1,8.7,0.1,10.5,0.2c0.2,0,0.4-0.3,0.2-0.5C345.4,144.2,340.5,142.2,340.3,142.1"/>
<path class="st26" d="M426,80.5C426,80.5,426,80.4,426,80.5c-0.3-0.2-1-0.6-1.5-0.7c-0.6-0.1-1.2,0-1.2,0l1,1.1L426,80.5z"/>
<path class="st33" d="M427,123.4c-0.5,0-0.9-0.4-0.9-0.9c0-11.9,9.7-21.7,21.7-21.7c5.1,0,10.1,1.8,14,5.1c0.4,0.3,0.4,0.9,0.1,1.3
	s-0.9,0.4-1.3,0.1c-3.6-3-8.1-4.7-12.8-4.7c-11,0-19.9,8.9-19.9,19.9C427.9,123,427.5,123.4,427,123.4"/>
<path class="st41" d="M413,122.1c-0.3,0-0.5-0.1-0.7-0.4l-16.5-29.6c-0.2-0.4-0.1-0.8,0.3-1c0.4-0.2,0.8-0.1,1,0.3l17.1,29.5
	c0.2,0.4-0.5,0.9-0.9,1.1C413.2,122.1,413.1,122.1,413,122.1"/>
<path class="st41" d="M413.6,122.1l-24.7-0.3l12.5-21.5l29.1-5.4L413.6,122.1z M432.8,93.9L432.8,93.9c0-0.5-0.4-0.9-0.9-0.8
	L400.4,99c-14.5,25-13.8,23.3-13.5,23.9c0.4,0.8-0.3,0.2,27.5,0.7C433,93.7,432.7,94.3,432.8,93.9"/>
<path class="st45" d="M434.8,119.3c-0.3,1-0.4,2.1-0.4,3.2c0,4.7,2.5,8.8,6.3,11.1c0-0.3,0-0.5-0.1-0.8c-3.4-2.2-5.6-6-5.6-10.4
	c0-0.8,0.1-1.5,0.2-2.2L434.8,119.3z M452.7,133.8c0,0-0.1,0-0.1,0c-1.6,0.7-3.4,1.1-5.2,1.1c-0.6,0-1.3-0.1-1.9-0.1
	c0.1,0.2,0.2,0.4,0.3,0.6c0.5,0.1,1.1,0.1,1.6,0.1c1.9,0,3.7-0.4,5.4-1.2c0.1-0.1,0.2-0.2,0.1-0.4
	C452.9,133.9,452.8,133.8,452.7,133.8"/>
<path class="st46" d="M440.6,132.9c0,0.2,0.1,0.5,0.1,0.8c1.3,0.8,2.8,1.4,4.3,1.7c0.2-0.2,0.3-0.4,0.5-0.5
	C443.7,134.5,442,133.8,440.6,132.9"/>
<path class="st47" d="M436.1,116.4c-0.1,0-0.2,0.1-0.3,0.2c-0.5,0.9-0.8,1.8-1,2.7l0.4,1c0.2-1.2,0.6-2.4,1.2-3.4
	c0.1-0.1,0-0.3-0.1-0.4C436.2,116.4,436.1,116.4,436.1,116.4"/>
<path class="st48" d="M445.5,134.8c-0.1,0.2-0.3,0.4-0.5,0.5c0.3,0.1,0.5,0.1,0.8,0.1C445.7,135.2,445.6,135,445.5,134.8
	C445.5,134.8,445.5,134.8,445.5,134.8"/>
<path class="st28" d="M447.4,105.7c-9.3,0-16.8,7.5-16.8,16.8s7.5,16.8,16.8,16.8s16.8-7.5,16.8-16.8S456.7,105.7,447.4,105.7
	 M447.4,141.7c-10.6,0-19.2-8.6-19.2-19.2s8.6-19.2,19.2-19.2s19.2,8.6,19.2,19.2S458,141.7,447.4,141.7"/>
<path class="st45" d="M447.4,107.6c-3.1,0-5.9,0.9-8.3,2.5c0.1,0.2,0.2,0.3,0.3,0.5c2.3-1.5,5-2.4,8-2.4c7.9,0,14.3,6.4,14.3,14.3
	s-6.4,14.3-14.3,14.3c-0.4,0-0.9,0-1.3-0.1c0,0.2,0,0.4,0,0.6c0.4,0,0.9,0.1,1.3,0.1c8.2,0,14.9-6.7,14.9-14.9
	C462.3,114.3,455.6,107.6,447.4,107.6 M433.7,116.6c-0.8,1.8-1.2,3.8-1.2,5.9c0,5.9,3.4,11,8.4,13.4c-0.1-0.2-0.1-0.5-0.1-0.7
	c-4.6-2.4-7.7-7.2-7.7-12.7c0-1.8,0.3-3.5,0.9-5.1L433.7,116.6z"/>
<path class="st46" d="M440.8,135.2c0,0.3,0.1,0.5,0.1,0.7c0.5,0.3,1.1,0.5,1.6,0.7c0.4-0.1,0.7-0.2,1-0.3
	C442.6,136,441.7,135.6,440.8,135.2"/>
<path class="st47" d="M439.1,110.1c-2.4,1.6-4.2,3.8-5.4,6.5l0.3,0.8c1.1-2.8,3-5.1,5.4-6.8C439.3,110.5,439.2,110.3,439.1,110.1"/>
<path class="st48" d="M443.6,136.3c-0.3,0.1-0.6,0.2-1,0.3c1.1,0.4,2.3,0.6,3.6,0.8c0-0.2,0-0.4,0-0.6
	C445.3,136.7,444.4,136.5,443.6,136.3"/>
<path class="st41" d="M447.7,123.3c-0.3,0-0.5-0.1-0.7-0.4l-20.2-36.7c-0.2-0.4-0.3-0.8-0.3-1.1v-2.4c0-0.5-0.1-0.9-0.2-1
	c-0.1-0.1-0.7,0-1.1,0.3l-3.5,2.1c-0.4,0.2-0.8,0.1-1-0.3c-0.2-0.4-0.1-0.8,0.3-1l3.5-2.1c0.8-0.4,2-0.6,2.7-0.2
	c0.8,0.4,0.9,1.4,0.9,2.3V85c0,0.1,0,0.3,0.1,0.4l20.2,36.7c0.2,0.4,0.1,0.8-0.3,1C448,123.2,447.9,123.3,447.7,123.3"/>
<path class="st26" d="M412.4,67c-0.5-1-1.7-5.7-1.7-5.7l-7.8,0.5c0,0,3.7,8.1,4.5,9.7c2.2,1.9,10.9,7.9,11.8,8.5
	c0.4,0.3,1,0.8,1.2,1.3c0.6,1.1,0.8,1.6,1.4,2.7c0.6,1.2,4.4-0.7,4.4-1.7c0-0.7-1.5-1.9-2.7-2.9C422.9,78.9,412.8,67.9,412.4,67"/>
<path class="st41" d="M405.7,47.7c-2,0.6-3.3,2-2.8,7.8c0.6,5.8,1.9,10.1,1.9,10.1s5.7,0.9,9-1.4C413.8,64.2,412.5,45.5,405.7,47.7"
	/>
<path class="st28" d="M387.6,105.7c-9.3,0-16.8,7.5-16.8,16.8s7.5,16.8,16.8,16.8s16.8-7.5,16.8-16.8S396.8,105.7,387.6,105.7
	 M387.6,141.7c-10.6,0-19.2-8.6-19.2-19.2s8.6-19.2,19.2-19.2c10.6,0,19.2,8.6,19.2,19.2S398.2,141.7,387.6,141.7"/>
<path class="st31" d="M387.6,108.2c-7.9,0-14.3,6.4-14.3,14.3s6.4,14.3,14.3,14.3s14.3-6.4,14.3-14.3S395.5,108.2,387.6,108.2
	 M387.6,137.4c-8.2,0-14.9-6.7-14.9-14.9s6.7-14.9,14.9-14.9s14.9,6.7,14.9,14.9S395.8,137.4,387.6,137.4"/>
<path class="st31" d="M387.6,135.5c-7.2,0-13-5.8-13-13c0-2.1,0.5-4.1,1.4-5.9c0.1-0.1,0.3-0.2,0.4-0.1c0.1,0.1,0.2,0.3,0.1,0.4
	c-0.9,1.8-1.4,3.7-1.4,5.7c0,6.8,5.6,12.4,12.4,12.4c1.8,0,3.5-0.4,5.2-1.1c0.1-0.1,0.3,0,0.4,0.1s0,0.3-0.1,0.4
	C391.3,135.1,389.5,135.5,387.6,135.5"/>
<path class="st31" d="M396.9,114.1c-0.1,0-0.2,0-0.2-0.1c-2.3-2.5-5.6-3.9-9.1-3.9c-0.2,0-0.3-0.1-0.3-0.3s0.1-0.3,0.3-0.3
	c3.6,0,7,1.5,9.5,4.1c0.1,0.1,0.1,0.3,0,0.4C397,114.1,396.9,114.1,396.9,114.1"/>
<path class="st33" d="M401,107.5c-0.2,0-0.4-0.1-0.6-0.2c-3.6-3-8.1-4.7-12.8-4.7c-4,0-7.8,1.2-11.1,3.4c-0.4,0.3-1,0.2-1.2-0.2
	c-0.3-0.4-0.2-1,0.2-1.2c3.6-2.4,7.8-3.7,12.1-3.7c5.1,0,10.1,1.8,14,5.1c0.4,0.3,0.4,0.9,0.1,1.3
	C401.5,107.4,401.2,107.5,401,107.5"/>
<path class="st36" d="M387.6,120.5c-0.1,0-0.2-0.1-0.2-0.2c0-0.1,0.1-0.2,0.2-0.2l26.4-1.2c0.1,0,0.2,0.1,0.2,0.2
	c0,0.1-0.1,0.2-0.2,0.2L387.6,120.5L387.6,120.5z"/>
<path class="st36" d="M414.4,126.2L414.4,126.2l-26.8-1.2c-0.1,0-0.2-0.1-0.2-0.2s0.1-0.2,0.2-0.2l26.8,1.2c0.1,0,0.2,0.1,0.2,0.2
	C414.6,126.1,414.5,126.2,414.4,126.2"/>
<path class="st31" d="M409.7,122.5c0,2.4,1.9,4.3,4.3,4.3s4.3-1.9,4.3-4.3s-1.9-4.3-4.3-4.3C411.6,118.2,409.7,120.1,409.7,122.5"/>
<path class="st31" d="M420.1,133c-0.1,0-0.2-0.1-0.3-0.1l-6.1-9.9c-0.1-0.1,0-0.3,0.1-0.4c0.1-0.1,0.3,0,0.4,0.1l6.1,9.9
	c0.1,0.1,0,0.3-0.1,0.4C420.3,133,420.2,133,420.1,133"/>
<path class="st36" d="M416.9,133.8c-0.3,0-0.5-0.2-0.6-0.5c0-0.3,0.2-0.6,0.5-0.7l6.6-1c0.3-0.1,0.6,0.2,0.7,0.5s-0.2,0.6-0.5,0.7
	L416.9,133.8C416.9,133.8,416.9,133.8,416.9,133.8"/>
<path class="st36" d="M392.3,90.3h5.9c0.4,0,0.8,0.4,0.8,0.8v0.9c0,0.4-0.4,0.8-0.8,0.8h-7.4c-0.6,0-1-0.6-0.7-1.1
	C390.5,90.9,391.4,90.3,392.3,90.3"/>
<path class="st36" d="M387.6,125.7c-1.8,0-3.2-1.4-3.2-3.2c0-1.8,1.4-3.2,3.2-3.2c1.8,0,3.2,1.4,3.2,3.2
	C390.8,124.3,389.3,125.7,387.6,125.7"/>
<path class="st29" d="M384.8,122.5c0,1.5,1.2,2.7,2.7,2.7c1.5,0,2.7-1.2,2.7-2.7c0-1.5-1.2-2.7-2.7-2.7
	C386.1,119.8,384.8,121,384.8,122.5"/>
<path class="st49" d="M388.4,122.5c0,0.4-0.4,0.8-0.8,0.8s-0.8-0.4-0.8-0.8s0.4-0.8,0.8-0.8S388.4,122.1,388.4,122.5"/>
<path class="st29" d="M444.7,122.5c0,1.5,1.2,2.7,2.7,2.7c1.5,0,2.7-1.2,2.7-2.7c0-1.5-1.2-2.7-2.7-2.7S444.7,121,444.7,122.5"/>
<path class="st49" d="M448.2,122.5c0,0.4-0.4,0.8-0.8,0.8s-0.8-0.4-0.8-0.8s0.4-0.8,0.8-0.8S448.2,122.1,448.2,122.5"/>
<path class="st26" d="M425.7,80.1c0,0-0.8-0.9-2.1-0.8c-1.3,0.1-0.7,1.1-0.7,1.1s2.2,1.1,2.2,1.1s-0.4-1.1-0.1-1.2
	C425.3,80.2,425.7,80.1,425.7,80.1"/>
<path class="st26" d="M408.7,132.3l-0.2,4c-0.1,0.5-0.4,1.8-0.4,2.2c0,1.7,7.7-1.5,6-2.2c-0.2-0.1-1-0.6-1-1.2
	c-0.1-0.9-0.3-2.8-0.3-2.8L408.7,132.3z"/>
<path class="st36" d="M414,136.2c0,0-1.8,0.5-2.7,0.7s-2.1-1-2.8-0.7c-0.7,0.3-0.6,3.6-0.6,3.6s9.7,0.6,12.4-0.3
	C421.3,139.2,417.8,137.5,414,136.2"/>
<path class="st26" d="M391.7,132.6l-0.2,4c-0.1,0.5-0.4,1.8-0.4,2.2c0,1.7,7.7-1.5,6-2.2c-0.2-0.1-1.2-1-1.3-1.6
	c-0.1-0.9,0-2.4,0-2.4L391.7,132.6z"/>
<path class="st36" d="M397.1,136.6c0,0-1.8,0.5-2.7,0.7s-2.1-1-2.8-0.7c-0.7,0.3-0.8,3.3-0.8,3.3s10.3,0.8,12.8,0.1
	C404.6,139.6,400.8,137.9,397.1,136.6"/>
<path class="st28" d="M404,75l1.4,2.2l8.7,32l-0.3,24.5l-5.5,0.1c0,0-2.6-21.5-2.6-23.1c0-1.7-11.8-29.1-11.8-29.1L404,75z"/>
<path class="st29" d="M403.7,77c0,0-4.7,24.9-4.7,29.2c0,4.2-2,28-2,28l-5.5,0c0,0-0.4-7.2-1-17.9c-0.1-1.7,0.1-5,0-6.8
	c-0.9-12.4-2.5-21.4-1.7-26c0.1-0.8,2-5.7,2.5-6.2C395,73.6,403.7,77,403.7,77"/>
<path class="st28" d="M404.1,43.1c0,0-0.9-1.6-1.6-2.3c-0.8-0.8-1.8-3-1.5-5.5s2.3-3.5,3.3-3.8s5-0.3,6.4,0.4
	c1.3,0.7,0.6,5.7,0.6,5.7l-2.1,3.9L404.1,43.1z"/>
<path class="st33" d="M409.2,48c0.1,0.1,2.6,5.6,2.1,9.6c-0.9,7.3-4.6,19.1-5.9,19.5c-10.7,3.2-14.6,0.8-14.6,0.8s4.2-22.1,6.7-27.1
	c1-2.1,2.3-3.8,4.6-4.2C402.6,46.6,407.1,45.9,409.2,48"/>
<path class="st26" d="M408.7,43.8l0.5,4.4c0,0,0.1,1.2-0.5,1.7c-1,0.8-4.9-3.3-4.9-3.3l0.4-6.9L408.7,43.8z"/>
<path class="st33" d="M404,41.7c1,2.8,3.5,4.1,4.9,4.3l-0.2-2.2l-4.5-4.2L404,41.7z"/>
<path class="st26" d="M406.3,32.7c2-0.8,4.3,0.4,4.7,2.6c0.2,0.9,0.4,2.1,0.5,3.3c0.2,3.1-1.2,6.1-2.6,6.2c-1.4,0.1-5.3-1.7-5.7-6.1
	C402.9,36.1,404.2,33.6,406.3,32.7"/>
<path class="st26" d="M404.2,39.1c0,0.7-0.4,1.2-0.9,1.3c-0.5,0-1-0.5-1.1-1.2c0-0.7,0.4-1.2,0.9-1.3
	C403.7,37.9,404.2,38.4,404.2,39.1"/>
<path class="st28" d="M403.1,37.9c0,0-0.3-1.4-0.2-2.8c0.1-1.4,1.3-3.4,2.7-3.7s4.8,0.2,5.2-0.7c0.4-0.9,0.4-0.8,0.6-1
	c0.3-0.3,2.3,1,2.2,3.4s-2.2,2.3-2.6,2.4c-0.4,0.1-4.1-1.5-5.2-1.4C404.7,34.2,403.1,37.9,403.1,37.9"/>
<path class="st30" d="M385.1,21.8c-0.2,1.9-0.5,1.8-0.6,2.1c0,0.3,1.8,3.9,1.8,3.9s5.2,10.6,5.5,11.1l9.2,7.8l-2.4,5.7
	c0,0-9.8-8.7-10.2-9.3c-0.4-0.6-5.8-15.6-6.4-17c0,0-1.2-1.3-1.9-2.2c-0.7-0.9-1-2-1.2-2.3c0,0-0.5-1-0.8-2.3
	c-0.3-1.2,0.5-0.2,0.5-0.2s0.9,2,1,1.9c0.1-0.1-0.4-1.2-0.7-2.4c-0.1-0.3-0.2-0.7-0.2-0.9c-0.2-0.8,0.2-1.1,0.5-0.3
	c0.1,0.3,0.3,0.7,0.4,1.1c0.1,0.4,0.3,0.7,0.4,1c0.2,0.6,0.4,1.1,0.4,1c0,0,0.1,0.1,0.1-0.3c-0.1-0.4-0.5-1.3-0.5-1.9
	c0-0.3-0.2-1.1-0.2-1.1s0-1.2,0-1.2c0.4-0.1,0.6,0.7,0.6,1.2c0.2,0.3,0.3,1.1,0.3,1.1s0.6,1.5,0.8,1.4c0.1,0-0.2-1-0.3-2
	c-0.1-0.9-0.1-1.9,0.1-1.9c0.3-0.1,0.5,0.9,0.5,0.9s0.1,0.7,0.2,0.9c0.1,0.3,0.3,1.1,0.3,1.1s1,2.8,1.2,2.7c0.2-0.1,0.6-0.5,0.6-0.7
	c0-0.2-0.2-0.6-0.2-0.7c0-0.2,0.1-0.4,0.4-0.5c0.2,0,0.6,0.9,0.6,0.9S385.2,21.3,385.1,21.8"/>
<path class="st50" d="M396.2,42.2c0.4-0.1,10.1,5.8,10.2,8.2c0.1,2.3-3.2,6-6,4.5c-2.8-1.5-8.5-7.4-8.5-7.4S395,42.5,396.2,42.2"/>
<path class="st26" d="M161,138.3l2,4.9c0.1,0.5,0.4,1.9,0.4,2.4c0,1.9-8.2-1.6-6.3-2.4c0.2-0.1,0.7-0.7,0.7-1.3
	c0.1-1-0.7-2.2-0.7-2.2L161,138.3z"/>
<path class="st36" d="M163.9,146.2c0,0-0.2-2.8-0.9-3.1c-0.6-0.3-1.8,0.9-2.7,0.8s-3-0.9-3-0.9c-3.6,1.3-6.3,2.1-5.8,3.2
	L163.9,146.2L163.9,146.2z"/>
<path class="st26" d="M148.5,139.8l1.2,3.4c0.1,0.5,0.4,1.9,0.4,2.4c0,1.9-8.2-1.6-6.3-2.4c0.2-0.1,0.7-0.7,0.7-1.3
	c0.1-1-0.7-2.2-0.7-2.2L148.5,139.8z"/>
<path class="st28" d="M137.2,74.9l-3,7.7c0,0-1.9,18.4-0.8,29.4c0.5,4.6,10.6,29.3,10.6,29.3l5.1-0.7l-5.2-28.9l1-11.5l3.5-22.1
	L137.2,74.9z"/>
<path class="st29" d="M140.8,75.8l-1.8,8.1c0,0,0.8,18.5,3.4,29.2c1.1,4.5,14.8,27.4,14.8,27.4l4.9-1.4l-9.4-27.8l0.9-27.4l-1.3-6.4
	L140.8,75.8z"/>
<path class="st36" d="M150.6,146.2c0,0-0.2-2.7-0.9-3.1c-0.7-0.3-2,0.9-2.9,0.8s-2.9-0.7-2.9-0.7c-3.9,1.3-7.1,2-6.5,3L150.6,146.2
	L150.6,146.2z"/>
<path class="st25" d="M135,10.9c-1.1,1.6-1.4,1.4-1.5,1.6c-0.2,0.2-0.1,4.3-0.1,4.3s0,11.9,0,12.5l5,11.3l-4.9,4
	c0,0-5.1-12.5-5.3-13.2c-0.2-0.7,1.8-16.7,1.9-18.2c0,0-0.5-1.8-0.8-2.9s0-2.3-0.1-2.6c0-0.1,0-1.1,0.3-2.5c0.3-1.2,0.5,0.1,0.5,0.1
	s-0.1,2.2,0.1,2.2c0.1,0,0.1-1.2,0.4-2.5c0.1-0.3,0.1-0.7,0.2-0.9c0.2-0.8,0.7-0.9,0.7,0c0,0.3-0.1,0.8-0.2,1.1
	c-0.1,0.4-0.1,0.8-0.1,1.1c-0.1,0.7-0.1,1.1-0.1,1.1c0,0,0.1,0.1,0.2-0.2c0.1-0.4,0.1-1.3,0.4-1.9c0.1-0.3,0.3-1.1,0.3-1.1
	s0.5-1.1,0.5-1.1c0.4,0.1,0.3,1,0.1,1.4c0,0.3-0.2,1.1-0.2,1.1s-0.1,1.6,0.1,1.7c0.2,0,1.3-3.8,1.6-3.7c0.3,0.1,0,1.2,0,1.2
	S134,5.6,134,5.8c-0.1,0.3-0.2,1.1-0.2,1.1s-0.3,3-0.1,3c0.2,0,0.8-0.2,0.9-0.4c0.1-0.2,0.1-0.6,0.1-0.8c0.1-0.2,0.4-0.3,0.6-0.2
	s0.1,1.1,0.1,1.1S135.4,10.5,135,10.9"/>
<path class="st32" d="M137.4,36.6l-6.9,4.2c0,0,2.6,6.3,4.4,8.6c2.1,2.7,6.1,4,6.3,3.7c0.7-0.9,2.2-2.1,2.1-3.7
	C143.1,43.9,137.4,36.6,137.4,36.6"/>
<path class="st33" d="M132.1,11.7c0.2-0.9,0.7-1.5,1.5-1.8C132.7,9.8,132,10.8,132.1,11.7"/>
<path class="st35" d="M150.2,43.8c0,0,3.8,0.5,4.8,1.3c1.1,0.8,4.6,4.7,4.6,4.7s-7.3,21-7,24.7c0.3,3.7,1.1,9.3,1.1,9.3
	s-14.1,0.9-19.5-1.2c0,0,1.7-8.5,1.7-10.7s1.2-19,1.8-20.7c0.4-1.3,1.9-6.7,4.5-7.3C144.8,43.4,150.2,43.8,150.2,43.8"/>
<path class="st26" d="M149.2,37.8l0.9,6c0,0-2.7,4.6-4.8,3.9c-1.7-0.5-1.4-4-1.4-4s0.9-3.5,0.7-5.3
	C144.3,36.7,149.2,37.8,149.2,37.8"/>
<path class="st33" d="M144.6,38.5c-0.3-1.8,4.6-0.6,4.6-0.6l0.1,0.5c-0.1,0.3-0.3,0.6-0.5,0.9c-1.1,1.2-2.8,1.9-4.2,1.9
	C144.6,40.2,144.7,39.2,144.6,38.5"/>
<path class="st26" d="M150,29c0.1-0.1,1.1,7.1-0.7,9c-1.8,2-5.4,2.6-6.6,1.1c-1.4-1.7-1.3-9.4,1.5-11.4C146.9,25.7,150,29,150,29"/>
<path class="st44" d="M145.2,23.9c2.2,0.4,3.6,1.8,4.1,2.4c1,0.1,2.4,0.7,3.7,3c1.7,2.8,0.4,6-1.6,7.5s-2,3.3-2,3.3l-0.3-0.9
	c-0.2-0.7-0.3-1.4-0.2-2.2c0.1-0.4,0.1-0.9,0.3-1.3c0.5-1-1-1.7-1.5-2.6c-0.3-0.7-0.3-2.2-0.9-3.3l-0.6-0.8c0,0-1.4-1.1-2.8-0.8
	C142.2,28.6,142.4,23.4,145.2,23.9"/>
<path class="st26" d="M147.9,34.4c0,0.9,0.4,1.6,0.9,1.6c0.5,0,0.9-0.7,0.9-1.6c0-0.9-0.4-1.6-0.9-1.6
	C148.4,32.9,147.9,33.6,147.9,34.4"/>
<path class="st43" d="M164.4,57.4l-6.4,5c0,0-2.8-2.7-4.2-5.7c-1.4-3-0.2-11.9,1.4-11.5C158.5,46.1,164.4,57.4,164.4,57.4"/>
<path class="st28" d="M160.7,65.8c7,2.9,9.3-3.5,9.1-3.3c0.1-0.1,1.2-0.6,1.9-1c2.8-1.4,4.5-4.7,4.4-8c4-2.5,5.1-7.8,2.3-10.8
	c0.9-3.3-1.4-6.8-4.2-8.5c-2.2-3.8-7.6-2.2-10.6,0.8c-1.5,1.5-2.4,3.8-2.3,6c-3.5,1.5-5.3,5.4-4.5,9.3
	C152.1,54.3,153.5,62.8,160.7,65.8"/>
<path class="st41" d="M186.3,86.8l1.2-0.3c0-0.1-2.3-9.3-4.7-18.5c-1.4-5.4-2.6-9.7-3.6-12.9c-1.9-6.2-2.3-6.4-2.6-6.5l-0.5,1.2
	c-0.1,0-0.1-0.1-0.1-0.1c0.3,0.3,1.4,2.9,5.7,19.2C184.1,77.8,186.3,86.7,186.3,86.8"/>
<path class="st26" d="M145.8,86.5c0,0,0.5-0.4,0.7-0.6c0.2-0.2,0.8-0.8,0.8-0.8s1.8-2.2,1.6-2.3s-0.7,0.1-0.9,0.2s-0.4,0.2-0.5,0.3
	c-0.2,0.1-0.4,0.1-0.5-0.1s0.4-0.7,0.6-0.8c0.7-0.4,2.8-1.2,3-1.3c0.3-0.1,2.7-4.4,3.7-5.9l0,0c1.5-2.4,2.9-4.9,3.1-5.1l3.2-11.6
	l4.7-0.5c0,0-3.4,12.9-3.6,13.5c-0.1,0.3-4,5.5-4,5.5c-2.1,2.4-3.9,4.6-4.3,5c0,0-0.7,1.5-1.1,2.6c-0.4,1-1.1,1.8-1.3,2.1
	c0,0-0.5,1-1.4,1.9c-0.8,0.8-0.4-0.4-0.4-0.4s1.3-1.7,1.1-1.8c-0.1-0.1-0.8,0.9-1.7,1.7c-0.2,0.2-0.5,0.4-0.7,0.6
	c-0.6,0.5-1,0.3-0.5-0.3c0.2-0.2,0.5-0.6,0.7-0.8c0.3-0.2,0.4-0.6,0.6-0.8c0.4-0.5,0.7-0.8,0.6-0.8c0,0,0-0.2-0.3,0.1
	c-0.3,0.3-0.8,1-1.3,1.3c-0.3,0.2-0.8,0.7-0.8,0.7s-1,0.6-1,0.6c-0.3-0.2,0.3-0.9,0.7-1.1c0.2-0.3,0.8-0.8,0.8-0.8s1-1.2,0.8-1.4
	c-0.1-0.1-3,2.3-3.3,2.1C145,87.3,145.8,86.5,145.8,86.5"/>
<path class="st33" d="M151,83.1c0,0-1.4,0.6-2.1-0.2c0,0,0.2,0.6,0.8,0.6C150.3,83.6,151,83.1,151,83.1"/>
<path class="st26" d="M171.1,89.8l-2.7,24.6c0,0,1.3,5.2,1.1,6.7s-2.9,20.8-2.9,20.8l0.1,1.1l0.1,3.1l-10.2,0.1c0,0,2.1-1,5.2-3
	c0.2-0.1,0.7-0.6,0.9-1.5c0.8-6-0.8-25.9-0.8-25.9l-1.2-25.9L171.1,89.8z"/>
<path class="st26" d="M176.9,94.5c0.6,0.1,1.4,21.2,1.9,22.2c3,5.9,3.7,23.9,3.7,23.9l1.2,2.5l-0.3,2.4c0,0-2.2,1.3-3.8,0.4l0.2-2.4
	l0.2-3.2l-7.6-22.5l-4.1-22.9L176.9,94.5z"/>
<path class="st27" d="M157.5,105.9l-0.4-14.6c-0.1-4.1,1.3-8.1,2.9-11.8l3.4-6c1.1,0.4,1.7-3,2.9-2.9c0.9,0.1,1.5,0.3,2.3,0.4
	c1.5,0.1,2.5,3.2,4.1,3c0,0.1,1,0.5,1.1,0.6c0.8,2.2,2.8,4.6,3.9,11.1c1.2,7.4,1.2,20.2,1.1,21C167.1,107.2,164.3,107.6,157.5,105.9
	"/>
<path class="st27" d="M166.9,146.9h-10.6c-0.4,0-0.5-0.4-0.4-0.6c0.3-0.4,1.5-0.7,2.9-1.4c2.4,0.3,7.5-1.6,7.9-2.2
	C167,144,167.1,146.9,166.9,146.9"/>
<path class="st27" d="M183.8,143.1c0,0-0.9,2.8-1.9,2.7s-1.9-2.2-1.9-2.2s-0.4,1.8-0.2,2.8c0.2,1,1.6,2,2.6,1.6
	C183.3,147.5,184.7,145.2,183.8,143.1"/>
<path class="st51" d="M164.2,64.1c0,0-1.5-0.2-2.9-0.7c-0.9-0.3-2.2-1-2.2-1s0.8-6.9,2.8-11c0.8-1.7,1.6-2.5,2.8-2.7L164.2,64.1z"/>
<path class="st33" d="M161.6,56.3c0.3-1.1,1-2.6,1.3-3.6c0.6-1.7,0.8-3.3,1.4-4c0.3-0.4,4.2-0.3,4.7-0.4c0.2,0,1,0,1.8,0.1l0,0
	c0.4,0.1,4.9,0.4,5.5,0.7c3.2,3.2,4.7,7.5,7.1,12.2c0,0-1.8,1.1-3.2,1.7c-0.6,0.3-1.8,0.8-1.8,0.8l-2.8-4.8c0,0-0.2-0.2-0.2-0.1
	c-0.1,0.2-2.1,15-2.1,15s-8.2,0.7-10.1-0.3c0,0-0.4-9.9-1.1-12.8C162,59.9,161.2,58.1,161.6,56.3"/>
<path class="st26" d="M171.4,43.9c0,0-0.6,3.5-0.5,4.8s-0.5,5.8-3.1,5.8c-2.6,0-0.9-4.6-0.6-5.9c0.2-1.3,0.7-6.5,0.7-6.5L171.4,43.9
	z"/>
<path class="st33" d="M167.7,44.1c0-1.1,0.2-2,0.2-2l3.6,1.8c0,0-0.1,0.7-0.2,1.6C169.6,45.9,168.4,45.1,167.7,44.1"/>
<path class="st26" d="M171.5,33.9c0,0,1.5,0.6,2.3,2.2c0.8,1.7,1.1,6.3-2.2,8.1s-5.4-1.5-5.2-4.5C166.6,36.8,167.5,32.9,171.5,33.9"
	/>
<path class="st26" d="M165.7,38.7c0.2,0.7,0.7,1.2,1.1,1.1c0.4-0.1,0.6-0.8,0.4-1.6c-0.2-0.7-0.7-1.2-1.1-1.1
	C165.7,37.3,165.5,38,165.7,38.7"/>
<path class="st26" d="M173.5,40.2c-0.3,0.7-0.1,1.5,0.3,1.7c0.5,0.2,1.1-0.2,1.4-0.9c0.3-0.7,0.1-1.5-0.3-1.7
	C174.4,39,173.8,39.4,173.5,40.2"/>
<path class="st51" d="M174.5,86.7v4.7c0,2.4,1.7,4.4,3.9,4.4h4v-11h-6.2c-0.4,0-0.8,0.2-1.1,0.5C174.7,85.7,174.5,86.2,174.5,86.7"
	/>
<path class="st33" d="M175,85.4L175,85.4c0.9,0,1.5,0.8,1.5,1.7v3.5c0,2.9,2.1,5.3,4.6,5.3h2.4c2.6,0,4.6-2.4,4.6-5.3v-3.5
	c0-1.2-0.9-2.2-1.9-2.2h-10.1C175.7,84.9,175.3,85.1,175,85.4"/>
<path class="st41" d="M174.5,86.6l1.2,0c0-0.1,0-8.9,0.1-17.8c0.1-5.2,0.2-9.5,0.3-12.7c0.2-5.4,0.6-6.4,0.6-6.6c0-0.3-0.1-1-0.1-1
	c-0.2-0.1-0.5-0.1-0.7,0.1c-0.3,0.2-0.5,0.6-0.7,2.3c-0.1,1.1-0.2,2.5-0.3,4.4c-0.2,3.1-0.3,7.5-0.4,12.9
	C174.4,77.4,174.5,86.5,174.5,86.6"/>
<path class="st30" d="M168.3,78.2c-0.2,0-1.2,0.1-1.2,0.1s-1.6-1-1.8-0.5c-0.1,0.1,1.6,1.1,1.6,1.1s1.7,0.1,2.1,0
	c0.7,0,2.3-0.2,4.6-1.9c2-1,12.1-6.9,12.2-8c0.1-0.7-1.4-4.1-2.9-7.2c-0.7,0.4-1.7,0.9-2.6,1.3c-0.4,0.2-1.1,0.5-1.5,0.6
	c1,1.9,1.9,3.8,1.8,4.2c-0.1,0.4-8.7,6.9-8.7,6.9l-1.7-0.2c0,0-3,0.4-3.1,0.7s1.3,0.3,1.5,0.3c0.1,0,0.3,0.1,0.5,0.2
	c-0.5,0.2-1.3,0.6-1.7,0.6c-1,0-2.2-0.1-2.3,0c-0.1,0.2,1.4,0.6,2.5,0.7c0.4,0,0.7-0.1,0.9-0.1c0.3,0.1-0.2,0.3-0.9,0.2
	c-0.4,0-1.2-0.3-1.6-0.3c-0.8-0.1-1.2-0.1-1.3,0c-0.1,0.1,2.2,0.8,2.2,0.8s1.5,0.2,1.8,0.2C168.5,78.1,168.7,78.2,168.3,78.2"/>
<path class="st26" d="M289,143.8c-0.1-1,0.2-2.8,1-5.6c-1.6,0-3-0.7-4.6-0.7c-0.5,2.6-1.1,6.9-1.1,6.9l-0.1,3.4l11.4,0.1
	c0,0-0.1,0.1-3.5-2.1C291.9,145.7,289.1,144.8,289,143.8"/>
<path class="st35" d="M284.1,148.7h11.8c0.4,0,0.5-0.4,0.4-0.6c-0.3-0.4-2.6-1.5-4.2-2.3c-2.7,0.3-7.5-0.8-7.9-1.5
	C283.5,146.5,283.9,148.7,284.1,148.7"/>
<path class="st26" d="M274.8,143.8c-0.1-1-0.4-2.3,0-5.8c-1.6,0-3.1-0.3-4.8-0.3c0,2.7,0.1,6.7,0.1,6.7l-0.1,3.4l11.4,0.1
	c0,0-0.1,0.1-3.5-2.1C277.7,145.7,274.9,144.8,274.8,143.8"/>
<path class="st35" d="M269.9,148.7h11.8c0.4,0,0.5-0.4,0.4-0.6c-0.3-0.4-2.6-1.5-4.2-2.3c-2.7,0.3-7.5-0.8-7.9-1.5
	C269.2,146.5,269.6,148.7,269.9,148.7"/>
<path class="st26" d="M284.2,38.9l-1.9,6c0,0,4.5,2.8,9.2,6.3c-1.5,2.5-7.7,8.8-8,9.1c-0.3,0.3-6.2,0.2-6,0.8s3.1,0,3.2,0.8
	c0.1,0.8-4.8,5.5-4.3,5.7c1,0.4,3.1-2.8,3.5-2.6s-2.6,3.1-2.1,3.7c0.5,0.6,2.6-3,3-2.9c0.4,0-1.4,3.6-0.5,3.6c0.5,0,1.5-3.2,2-2.9
	c0.5,0.3,0.1,2.9,0.7,2.8s-0.1-2.2,0.8-3.4s0.7-2.4,2.6-3.9c1.9-1.5,12.6-8.6,12.2-11.4C298.3,48.3,284.2,38.9,284.2,38.9"/>
<path class="st28" d="M285.9,69.5l-3.5,1.9l-7.1,10.9l12.7,29.9c0,0-1.4,4.5-1.9,6.7c-0.5,2.4-1.7,22.5-1.7,22.5l5.4,0.1
	c0,0,5.1-21.4,6-28.4c1.1-8.4-5.4-28.6-5.4-28.6c-1.2-4.1-3.8-12.6-3.8-12.6S286,69.8,285.9,69.5"/>
<path class="st52" d="M273.7,65.4c0,0,0.4,2.6-1.1,5.5c-0.9,1.8-2.4,3.2-3.5,5.3c-2.1,4.1-3.2,9.9-2.4,13.7c0,0,4.3,16.3,4.1,22.2
	c-0.1,2.2-0.8,6.1-1.3,8.8c-0.4,2.4-0.6,20.2-0.6,20.2l6-0.2l4.6-28.7l2-25.5l4.3-17.2L273.7,65.4z"/>
<path class="st41" d="M286.5,27.9c-0.5-2.5-1.1-5.1-3.6-6.9c-2-1.5-4.2-1.9-6.5-1.1c-6.5,2.4-3,7.6-11.1,13.1
	c-2.5,1.7-3.5,2.3-5.3,4.6c-2.5,3.2-3.9,7.5-2.6,11.1c2.6,7.3,10.8,9.5,15.1,7.9c8-2.9,14.6-13,15-15.7
	C287.9,38,286.9,29.6,286.5,27.9"/>
<path class="st35" d="M287.5,48.7c1.9,0.9,4.6,3.2,4.6,3.2l2.3-6.7c-8-6.8-9.6-6.8-18-6.6c-6.7,0.1-9.5-1.2-15.3,14.4
	c0,0,4.4,2,6,2.6c0.7-1.9,1.9-5.8,2.6-3.6c1.1,3.3,1.9,6.7,2.4,10.1c0.3,2.1,1.1,4.7,0.7,6.8c0,0,4.6,0.9,8.1,1.1h0
	c1.7,0,3.4-0.2,5-0.5c0,0,0.7-14.5,1-15.1c0.4-0.7,2.1-1.8,0.6-5.1c-0.3-0.6-0.8-1.1-0.4-0.9"/>
<path class="st26" d="M279.4,73c0.1,0,0.4,0,0.7,0c0.4,0,0.8,0.1,0.8,0.1s0.2-0.1,0.5-0.3c0.1-0.1,0.3-0.1,0.5-0.1
	c0.1-0.1,0.3-0.2,0.4-0.2c0.4-0.1,0.7-0.2,0.8,0c0.1,0.2-1.9,1.4-1.9,1.4c-1.8,0-3.8,0.9-8-1.8c-2.4-1.1-14.3-6.9-14.5-8.2
	c-0.1-0.7,1.7-6.2,3.2-10.4c1.1,0.5,3.6,1.6,4.9,2.2c-1.2,2.6-2.7,6.1-2.6,6.6c0,0.1,0.2,0.3,8.2,5.6c0.2,0.1,0.4,0.3,0.6,0.4
	c0.6,0.4,1.2,0.8,1.8,1.2l2.3-0.2c0,0,3.6,0.2,3.7,0.7c0,0.2-0.2,0.3-0.6,0.3h0c0,0-0.1,0-0.2,0h0c-0.4,0.1-0.8,0.1-0.9,0.1
	c-0.1,0-0.4,0.1-0.5,0.3c2.2,0.9,2.1,0.6,2.8,0.5c0.2,0,0.4,0,0.6,0c0.3,0,0.5-0.2,0.8-0.2c0.3,0,0.6,0.1,0.7,0.2
	c0.1,0.1-0.1,0.2-0.4,0.3c-1.7,0.8-3.2,0.5-3.6,0.6c-0.3,0.1,0.3,0.2,1.1,0.1c0.2,0,0.5,0.1,0.8,0c0.2,0,0.4-0.2,0.6-0.2
	c0.2,0,0.4,0,0.5-0.1c0.2,0,0.5-0.2,0.6-0.2c0.6-0.1,0.9,0,0.9,0.1c0.1,0.1-2.5,1.1-2.5,1.1s-1.8,0.3-2.2,0.3
	C279.1,72.8,278.9,72.9,279.4,73"/>
<path class="st26" d="M277.2,32.4c0,0-0.5,4.1-0.8,5.6c-0.3,1.5-0.8,6.2,2.3,7c3.1,0.8,2.1-5.2,2.2-6.7c0-1.5,0.9-6.9,0.9-6.9
	L277.2,32.4z"/>
<path class="st33" d="M277.1,33.7C277.1,33.7,277.1,33.8,277.1,33.7c1.8,1,3.3,0.9,4.4,0.1c0.2-1.3,0.4-2.4,0.4-2.4l-4.6,1
	C277.2,32.4,277.2,32.9,277.1,33.7"/>
<path class="st26" d="M278.2,21.6c0,0-1.8,0.5-2.9,2.3c-1,1.8-1.6,7,2.3,9.2c3.9,2.2,6.6-1.3,6.5-4.7
	C284,25.2,283.1,20.8,278.2,21.6"/>
<path class="st26" d="M285,27.1c0,0.9-0.3,1.6-0.8,1.6c-0.5,0-0.9-0.7-1-1.5c0-0.9,0.3-1.6,0.8-1.6C284.5,25.5,284.9,26.2,285,27.1"
	/>
<path class="st41" d="M278.7,21.5c0,0-2.1,5.4-4.1,6c-2,0.6-1.9,3.3-1.9,3.3s-0.3-6.2,1.6-7.7C276.2,21.5,278.7,21.5,278.7,21.5"/>
<path class="st26" d="M275.5,28.6c0.3,0.8,0.1,1.7-0.5,1.9c-0.6,0.2-1.3-0.3-1.6-1.2c-0.3-0.8-0.1-1.7,0.5-1.9
	C274.5,27.2,275.2,27.7,275.5,28.6"/>
<path class="st25" d="M226.5,38c0,0-6.3-11.3-7.9-13.7c-1.5-2.4-5.6-12-5.7-12.3c-0.1-0.4,2.8-4.9,2.1-5.1c-0.6-0.2-1.4,2.4-2.1,2.1
	c-0.7-0.3-2.7-6.4-3.1-6.1c-0.7,0.6,1.1,3.8,0.7,4s-1.6-3.6-2.4-3.4s1.5,3.4,1.2,3.7s-2.6-2.8-3-2.2c-0.2,0.4,2.1,2.7,1.7,3
	c-0.5,0.2-2.6-1.3-2.8-0.9c-0.2,0.4,1.9,1.1,2.6,2.2c0.6,1.2,1.8,1.7,2.2,3.9c0.5,2.2,1.1,10.2,3.5,14.2c2.4,4,7.5,12.8,7.5,12.8
	L226.5,38z"/>
<path class="st25" d="M254.6,92.6c0,0-0.5-0.6-0.7-0.9c-0.2-0.3-0.7-1.1-0.7-1.1s-1.5-3-1.3-3.1s0.8,0.3,0.9,0.4s0.4,0.3,0.5,0.5
	c0.2,0.1,0.4,0.2,0.6,0s-0.3-0.9-0.5-1.1c-0.7-0.7-3-2.2-3.2-2.3c-0.3-0.2-2-5.9-2.7-7.8l0,0c-1.1-3.2-2.1-6.5-2.2-6.8l-0.7-14.3
	l-5.4-1.8c0,0,0.6,15.9,0.7,16.7c0.1,0.4,3.2,7.5,3.2,7.5c1.8,3.4,3.4,6.4,3.6,7c0,0,0.4,2,0.6,3.2s0.8,2.4,0.9,2.7
	c0,0.1,0.3,1.3,1.2,2.6c0.8,1.1,0.5-0.3,0.5-0.3s-1.1-2.3-0.9-2.3c0.1,0,0.6,1.2,1.5,2.5c0.2,0.3,0.4,0.6,0.6,0.9
	c0.5,0.7,1.1,0.6,0.7-0.2c-0.1-0.3-0.4-0.8-0.6-1.1c-0.2-0.4-0.4-0.8-0.5-1.1c-0.3-0.7-0.6-1.1-0.5-1.1c0,0,0.1-0.2,0.3,0.1
	c0.3,0.4,0.7,1.4,1.2,1.9c0.3,0.3,0.8,1,0.8,1s0.9,1,1,1c0.4-0.2-0.1-1.1-0.5-1.5c-0.1-0.4-0.7-1.1-0.7-1.1s-0.8-1.7-0.6-1.8
	c0.2-0.1,2.9,3.5,3.3,3.3C255.4,93.7,254.6,92.6,254.6,92.6"/>
<path class="st36" d="M245,36.7c0.1-3.1-0.3-6.2-1.7-9.1c-1.2-2.5-4.2-3.9-6.9-3.9c-8.6,0-9.7,11.4-15.2,15.8
	c-1.7,1.3-3.6,2.4-5.1,3.9c-5.9,5.3-3.2,15.3,2.2,19.9c3.7,3.3,9.6,5.1,14.2,2.6c2.4-1.3,4.2-3.5,5.5-6c1.8-3.4,3-7.4,4.4-11.1
	C243.7,44.9,244.8,40.9,245,36.7"/>
<path class="st26" d="M218.1,137.4c0,0-0.6,4.2-1.6,5.6c-0.4,0.5-1,1-1.4,1.9c-0.6,1.3-0.3,3.2,0.2,4.2c0.2,0.5,0,0.5,0.6,0.7
	c1.7,0.5,3.4-0.4,4.2-1.9c0.4-0.9,0.8-2.1,0.8-3.6c0.2-3.8,1.4-5.8,1.4-5.8L218.1,137.4z"/>
<path class="st26" d="M236.3,139.3c0,0,0.4,4.7,0.1,6.3c-0.2,0.8-1.1,2.5-0.6,3.3c0.4,0.8,0.9,1,0.9,1l10.8,0.2
	c0.6,0,0.2-0.4-0.3-0.7c-0.8-0.6-1.4-0.9-3.9-2.1c-0.2-0.1-0.8-0.4-1-0.6c-0.5-0.3-1.1-0.8-1.5-1.4c-0.8-0.9-0.8-5-0.8-5
	L236.3,139.3z"/>
<path class="st32" d="M244.8,76.3c0,0,1.4,7.7,0.5,12.8s-5.2,51.9-5.2,51.9l-4.8,0.3c0,0-1-19.5-0.8-22.3s1.6-7.3,1.6-7.3l-0.5-15.8
	l6-20.7L244.8,76.3z"/>
<path class="st35" d="M230.8,74.7c0,0-3.8,5.6-4.6,10.3c-0.9,4.7,0.7,19-1.1,25.1c-0.9,3.3-4.4,8.4-5,12.7
	c-0.5,4.3-2.6,15.5-2.6,15.5l4.8,0.9l11.1-27.9l8.7-25.3l2.2-13L230.8,74.7z"/>
<path class="st34" d="M233.8,42.6c0,0-5-0.3-6.9,1.8c-2,2.1,4.4,19,4.7,21.8c0.4,2.7-1.8,9.9-1.8,9.9s11.7,2.3,15,0.1
	c0,0,0.4-19.6,0-21.5c-0.4-1.9-3.3-9.8-4.1-10.6C240,43.4,233.8,42.6,233.8,42.6"/>
<path class="st26" d="M235.5,36c0,0,0,0.2-0.1,0.4c-0.2,1.2-1.1,5.1-1.6,6.2c-0.7,1.3,2.4,5.5,5.4,5c0.9-0.2-0.8-3.8-0.7-4.2
	c0.1-0.8,0.4-1.8,0.6-2.8c0.1-0.6,0.2-1.2,0.4-1.8c0.3-1.6,0.6-2.9,0.6-2.9L235.5,36z"/>
<path class="st33" d="M235.4,36.4c0.1-0.2,0.1-0.4,0.1-0.4l4.4-0.1c0,0-0.3,1.3-0.6,2.9c-0.1,0.6-0.2,1.2-0.4,1.7
	c-0.7-0.1-1.4-0.4-2.1-1.1c-0.8-0.7-1.3-1.5-1.6-2.4C235.3,36.8,235.4,36.6,235.4,36.4"/>
<path class="st26" d="M238.5,25.9c0,0-2.1-0.2-3.4,1.4c-1.3,1.7-2.7,6.9,0.5,9.8s6.5-0.4,7-3.8C243,29.9,243.2,25.8,238.5,25.9"/>
<path class="st26" d="M243.5,33.3c-0.4,0.8-1,1.2-1.5,0.9c-0.4-0.2-0.4-1-0.1-1.8c0.4-0.8,1-1.2,1.5-0.9
	C243.9,31.7,243.9,32.5,243.5,33.3"/>
<path class="st36" d="M238.7,25.4c0,0-2.8,5-4.8,5.2c-2,0.2-2.3,2.9-2.3,2.9s0.7-6.1,2.7-7.3C236.3,25,238.7,25.4,238.7,25.4"/>
<path class="st41" d="M220.2,147c-2.6,0.5-4.3-1-5.2-2.2c-0.7,1.3-1,3.2-0.5,4.3c0.4,0.9,1.7,0.9,2.7,0.9c1,0,1.8-0.5,2.4-1.4
	C219.8,148.2,220,147.6,220.2,147"/>
<path class="st41" d="M242.3,146.6c-2.9,0.7-5,0.2-6.1-0.2c-0.3,0.9-0.7,1.9-0.5,2.6c0.3,0.8,0.6,0.9,1,0.9
	c2.6,0.1,9.6,0.2,11.5,0.2c0.3,0,0.4-0.3,0.2-0.5C247.9,149,242.5,146.8,242.3,146.6"/>
<path class="st26" d="M234.4,31.8c0.2,0.9-0.2,1.7-0.7,1.8c-0.6,0.1-1.2-0.5-1.3-1.4s0.2-1.7,0.7-1.8S234.3,30.9,234.4,31.8"/>
<path class="st34" d="M224.8,34.3c0,0,7,7.5,8.1,10.6c1,3-1,7.4-3.9,7.6s-9.2-13.3-9.2-13.3L224.8,34.3z"/>
<g>
	<path class="st53" d="M497.8,101.5c0,0.1,0,0.2,0,0.3c0,0.1,0,0.2,0,0.3c-0.4,9.1-1.2,24.6-1.5,31.5l0,0c0,0,0.2,1.8,0.4,2.6
		c0.2,0.8,0.9,2.6,0.9,2.6s-1,0.2-1.5-0.1c-0.4-0.2-1-0.9-1.4-1.6c-0.1-0.2-0.3-0.5-0.4-0.7c0-0.1,0-0.1-0.1-0.1
		c-0.5-1-0.9-1.3-1.1-1.4c-0.8-5.5-2.6-18.7-3-22.1c-0.5-4.3,0.5-7.5,0.4-10.7v0c0-0.1,0-0.2,0-0.3c0-0.1,0-0.2,0-0.3
		c0-0.3-0.1-0.7-0.2-1.1h7.4C497.8,100.7,497.8,101.1,497.8,101.5z"/>
	<path class="st0" d="M499.7,141h-4.6c0,0-1.1-1.1-2-2.1l0,2.1h-0.8l-0.4-3.4l0-0.2c0,0,0,0,0-0.1c0-1,1.1-2.5,1.1-2.5s0,0,0,0
		c0,0,0,0,0.1,0c0.2,0.1,0.5,0.4,1.1,1.4c0,0.1,0,0.1,0.1,0.1c0.1,0.2,0.3,0.5,0.4,0.7c0.5,0.8,1,1.4,1.4,1.6
		c0.6,0.2,1.5,0.1,1.5,0.1s2.1,0.9,2.1,1.1C499.7,140.3,499.7,141,499.7,141z"/>
	<path class="st54" d="M497.8,101.5c0,0.1,0,0.2,0,0.3h-7.3c0-0.1,0-0.2,0-0.3c0-0.3-0.1-0.7-0.2-1.1h7.4
		C497.8,100.7,497.8,101.1,497.8,101.5z"/>
	<path class="st53" d="M487.2,101.5c0,0.1,0,0.2,0,0.3c0,0.1,0,0.2,0,0.3c-1.2,9.1-3.3,24.6-4.2,31.5l0,0c0,0,0,1.8,0.2,2.6
		c0.1,0.8,0.7,2.6,0.7,2.6s-1,0.2-1.5-0.1c-0.4-0.2-0.9-0.9-1.3-1.6c-0.1-0.2-0.2-0.5-0.4-0.7c0-0.1,0-0.1-0.1-0.1
		c-0.5-1-0.8-1.3-0.9-1.4c-0.3-5.5-0.9-18.7-1.1-22.1c-0.2-4.3,1.2-7.5,1.3-10.7v0c0-0.1,0-0.2,0-0.3c0-0.1,0-0.2,0-0.3
		c0-0.3,0-0.7-0.1-1.1h7.4C487.3,100.7,487.3,101.1,487.2,101.5z"/>
	<path class="st0" d="M485.7,141h-4.6c0,0-1-1.1-1.9-2.1l-0.2,2.1h-0.8l-0.1-3.4v-0.2c0,0,0,0,0-0.1c0.1-1,1.3-2.5,1.3-2.5s0,0,0,0
		c0,0,0,0,0.1,0c0.2,0.1,0.5,0.4,0.9,1.4c0,0.1,0,0.1,0.1,0.1c0.1,0.2,0.2,0.5,0.4,0.7c0.4,0.8,0.9,1.4,1.3,1.6
		c0.5,0.2,1.5,0.1,1.5,0.1s2,0.9,2,1.1C485.8,140.3,485.7,141,485.7,141z"/>
	<path class="st54" d="M487.2,101.5c0,0.1,0,0.2,0,0.3h-7.3c0-0.1,0-0.2,0-0.3c0-0.3,0-0.7-0.1-1.1h7.4
		C487.3,100.7,487.3,101.1,487.2,101.5z"/>
	<path id="DRESS_00000019637737535114430860000003861650563493978531_" class="st15" d="M502.8,61.4v5.4c0,0-1.7,1-3.3,0
		c-1.3-0.8-3.6-5.5-3.8-6.1c-0.9-0.4-0.9-0.2-0.9,0.3c0,9.6,2.7,37.1,2.7,37.1l0.2,2.3l-18-0.2c-0.1-0.5-0.4-1.3-0.6-2.1
		c-0.8-3.2-2-8.4-2.6-14.1c-0.5-4.7,0.6-8.1,1.9-10.8c0.2-0.5,0.5-0.9,0.7-1.3c0.8-1.4,1.6-2.5,2-3.5l0,0c0.2-0.4,0.4-0.8,0.4-1.1
		c0-0.1,0-0.1,0-0.2c0,0,0-0.1,0-0.1c0.2-1.1,0.1-2.8-0.1-4.5c-0.1-0.6-0.1-1.2-0.2-1.7c-0.2-1.5-0.5-2.9-0.7-3.9
		c0.1,1.5-0.7,2.9-2.5,7c0,0-0.2,0.2-0.4,0.4c-0.1,0.1-0.3,0.3-0.5,0.5c-0.2,0.2-0.5,0.5-0.9,0.7c-1.3,1-2.9,2.2-3.6,2.3
		c-6.1-3.4,3.7-18.7,4.6-19.7c2.6-3,5.9-2.6,6-2.6l0,0c0,0,2.7,1.4,5.1,1.5c1.7,0.1,3.4,0,4.8-0.2c1.6-0.3,2.8-0.6,2.8-0.6
		c5.2,0,5,11.2,5.1,12.5C501.4,62.4,502.8,61.4,502.8,61.4z"/>
	<path id="HEAD_00000145032957233055538450000013601362408095884221_" class="st53" d="M492.3,43c0.2,1,0.6,2.3,1,3.7c0,0,0,0-0.1,0
		c-1.4,0.2-3.1,0.4-4.8,0.2c-2.4-0.2-5.1-1.5-5.1-1.5c2-0.5,4-1.4,4.5-2.6c0.2-0.8,0.4-1.7,0.4-3c0.1-5,0.6-8.8,2.6-9.2c0,0,0,0,0,0
		c0.1,0,0.2,0,0.2,0c0.8,0.2,3.1,1,3.5,2.8c0.5,2.2-0.2,4.9-1.7,6.5C492.1,40.7,492,41.7,492.3,43z"/>
	<path id="SHADOW_00000085213659714811349220000014739741829532700345_" class="st54" d="M489.7,38.7c0.2,2.4,2.7,4.3,2.7,4.3
		c-0.3-1.3-0.3-2.4,0.6-3.2C491.6,40.8,489.7,38.7,489.7,38.7z"/>
	<path id="HAIR_00000137821009266911385500000002335268463826370976_" class="st55" d="M492,58.4c-3.6-2.9-1-7,0.1-8.5
		c0,0,0,0,0-0.1c0.8-1.2,1.5-2,1.2-3.2c-0.3-1.3-0.8-2.5-1-3.6c-0.3-1.3-0.3-2.4,0.6-3.2c1.6-1.5,2.3-4.3,1.7-6.5
		c-0.5-1.8-2.8-2.6-3.5-2.8c-0.1,0-0.2-0.1-0.2-0.1l0,0l0,0.1c-0.9,0.2-1.5,1.1-1.9,2.5c0,0,0,0,0,0c-0.1,0.4-0.2,0.8-0.3,1.3
		c-0.3,1.5-0.4,3.4-0.4,5.5c0,1.2-0.2,2.2-0.4,3c-0.7-1-5-7.2-2.9-11.5c0.7-1.4,1.9-1.9,3-2.2c1.3-0.3,2.5-0.1,2.5-0.1l0,0l0,0
		c0.1-0.2,1.6-2.7,4.9-2.1c3.5,0.6,5.6,3.3,5.6,6.2c0.1,4.3-3.9,5.5-2.7,6.7c1.3,1.4,3.9,2.9,4,5.4c0,0.3,0,0.6,0,0.8
		c-0.3,2.1-1.3,2.6-1.8,3.8c-0.2,0.5-0.5,1.1,0.1,1.6c1.8,1.6,2.9,3.9,2.9,5.2C503.4,60.2,496.3,61.9,492,58.4z"/>
	<path id="SHOE_00000033355996939593429300000017759639362399910293_" class="st0" d="M485.5,79.8l-0.8-0.8l-0.2-0.2l-1.1-1l0.2-0.2
		l0.5-0.8l0,0c0,0,0.8,0.4,1.4,1.3c0,0.1,0.1,0.1,0.1,0.2C486,79.1,485.5,79.8,485.5,79.8z"/>
	<path class="st4" d="M486.8,76.7c-0.7,0.8-1.4,1.3-1.4,1.3l-1.4-1.3l0,0l0.9-2.8c0,0-3.8-0.3-5.3-1.5c-2-1.6-2.9-6.2-2.1-9.9
		c0.3-1.3,0.6-2.3,0.8-3.1c0-0.1,0.1-0.3,0.1-0.4c0.3-0.3,1.8-1.6,3-1.4c0.2,0,0.4,0.1,0.5,0.1c0.3,0.1,0.6,0.3,0.8,0.5
		c0,0.1,0.4,0.7,0.5,0.8c0.4,0.9,1,2.6,1.2,3.9c0.1,0.8,0.1,1.5,0.1,2.2c0,0.4-0.1,0.7-0.1,1c-0.1,1-0.4,1.6-0.4,1.6
		s4.4,1.8,4.6,4.9C488.7,74.2,487.7,75.7,486.8,76.7z"/>
	<path class="st56" d="M484.9,73.9l-0.9,2.8l-0.5,0.8l0-2.9c0,0-3.2-0.4-5-1.3c0.2-0.5,0.5-0.9,0.7-1.3c0.1,0.1,0.3,0.3,0.4,0.4
		C481.1,73.6,484.9,73.9,484.9,73.9z"/>
	<path class="st4" d="M481.2,64.2c1.3,1.3,2,1.4,3.1,1.7c0.1,0,0.1,0,0.2,0.1c0-0.3,0.1-0.6,0.1-1c-0.1,0-0.2-0.1-0.3-0.1
		c-1.1-0.3-1.8-0.4-3.1-1.7c-0.5-0.5-0.9-1.3-1.1-2.1C479.9,62,480.4,63.4,481.2,64.2z"/>
	<path class="st4" d="M480,61L480,61c0,0.1,0,0.1,0,0.2c0.2,0.7,0.6,1.5,1.1,1.9c1.3,1.3,2,1.4,3.1,1.7c0.7,0.2,2.2,0.4,2.3,0.8
		l1.2-0.9c-0.1-0.2-0.3-0.4-0.5-0.6c-0.5-0.5-2-1.7-2.7-2.6s-1.4-2.8-2.4-3C480.2,58.4,479.7,59.7,480,61z"/>
	<path id="ARM_00000033371070010648275850000001577886625184941728_" class="st24" d="M486.5,65.7c0.3,1.3,1.6,1.7,1.8,1.7
		c0.1-0.1,0.2-0.2,0.2-0.3c0,0,0,0,0,0c0.1-0.4,0.1-1.2-0.8-2.3L486.5,65.7z"/>
	<path class="st53" d="M478.5,59c0.3-0.3,1.8-1.6,3-1.4c0.4,0.1,0.8,0.2,1,0.4c0.1,0.1,0.2,0.1,0.2,0.2c0,0,0-0.1,0-0.1
		c0.3-0.6,1-0.7,1.6-0.7c0,0,0.1,0,0.2,0c0.3,0,0.6-0.1,0.8-0.2c1.2-0.9,1.4-3.3,1.4-5.2c-0.9,0.4-2,0.3-2.7,0.3
		c-0.9,0-1.1,2.3-1.4,2.2c-0.3-0.1-0.6-0.9-1-0.9c-1,0-0.4,1.8-1.8,2.1c-0.2,0-0.4,0.1-0.6,0.1c0,0,0,0.1,0,0.1
		C479.2,56.7,478.9,57.6,478.5,59z"/>
	<path class="st0" d="M487.5,51.2c-0.2,0.6-0.5,1-1,1.2c-0.9,0.4-2,0.3-2.7,0.3c-0.9,0-1.1,2.3-1.4,2.2c-0.3-0.1-0.6-0.9-1-0.9
		c-1,0-0.4,1.8-1.8,2.1c-0.2,0-0.4,0.1-0.6,0.1c-0.5,0-0.5-0.2-0.5-0.4c0-0.3,0.1,0,0.3-1.4c0.2-1.4-0.5-3.6,1.5-5.2
		c0.5-0.4,2.1-0.7,3.1-0.3s1.5,0.4,2.4,0.8c0.2,0.1,1,0.1,1,0.1S487.8,50.1,487.5,51.2z"/>
	<path class="st54" d="M482.5,58c0.1,0.1,0.2,0.1,0.2,0.2c0,0,0-0.1,0-0.1c0.3-0.6,1-0.7,1.6-0.7c0,0,0.1,0,0.2,0
		c-0.1,0-1.4,0-2.1-0.9C482,55.9,482.1,57.2,482.5,58z"/>
	<path id="LEFT_HAND_00000024714263526212960260000002746181861352653475_" class="st53" d="M471,65.3c0-1.3,0.9-2.9,3.7-2.2
		c1.1,0.3,10.9,2.6,11.5,3.4c1.9,2.2,1,3.2,1,3.2s-2.5-2-3.2-1.9c-1.5,0.2-7.6,0.4-9.3,0.4C472.5,68.2,471,66.6,471,65.3z"/>
	<path id="SHADOW_00000178901971955529930820000016015820762615588235_" class="st4" d="M487.2,69.7c0,0-2.4-2-3.2-1.9
		c-0.8,0.1-6.5,0.4-6.5,0.4l0.2,0.8c0,0,6.1-0.7,6.6-0.5S487.2,69.7,487.2,69.7z"/>
	<path id="RIGHT_HAND_00000127035032225569087650000006218484412582312880_" class="st53" d="M499.7,63.7c0.5-2.8,12.3-4.9,14.9-5.4
		c2-0.4,6.2-0.7,6.1,0c-0.1,0.7-4.3,1.3-4.2,1.6c0.1,0.4,2-0.2,2.3-0.2c0.7,0,0.5,0.4,0.5,0.4s-2.2,0.8-3.2,0.8
		c-1,0-1.5-0.2-1.5-0.2s-9.5,5.7-11.1,6.1C501.4,67.3,499.1,66.6,499.7,63.7z"/>
	<path class="st25" d="M514.6,65.1c0.1,0.2,0.2,0.5,0.2,0.8c0,0,0.1,0.9-0.7,1.6C514.4,67,514.8,66.3,514.6,65.1"/>
	<path class="st26" d="M511.5,133c0,0,0.3,2.3,0.3,2.6v0.4l-0.2,0.4l-0.1,0.2l1.4,1.9c0,0,5.5,0.1,5.6,0.1s-0.7-1.3-0.7-1.3
		s-1.8-1.4-2.1-2.3c-0.3-0.9,0.3-2.9,0.3-2.9L511.5,133z"/>
	<path class="st26" d="M485.2,119.4c0,0-1.9,1.2-2.2,1.4l-0.3,0.2l-0.2,0.4l-0.1,0.2l-2.3,0.1c0,0-3.5-4.2-3.5-4.3
		c-0.1-0.1,1,0.1,1,0.1s2.2,0.3,3.1,0c1-0.3,2.9-2.2,2.9-2.2L485.2,119.4z"/>
	<path class="st41" d="M502.9,98.1l-20.9,17.8l3.2,4.6c0,0,21.5-13.3,22.6-13.5c1.1-0.1,2,0.4,2.2,1.2c0.2,0.8,0.8,25.4,0.8,25.4
		h5.6l2.9-31L502.9,98.1z"/>
	<path class="st26" d="M533,72.7c1.5-1,5.2-4.9,6.4-6.2c0-0.2,0.1-1.1,1.1-2.2c0.7-0.8,1.2-2.7,1.7-2.1c0.5,0.5-0.7,2-0.2,2
		s3.1-2.9,3.5-2.4c0.4,0.5-2.2,3.1-1.7,3.1c0.5,0,2.6-2.6,3.2-1.9c0.6,0.7-2.8,2.9-2.5,3.2c0.3,0.4,2.4-1.1,2.9-0.5
		c0.5,0.5-3,1.8-2.7,1.8c0.3,0,2.2-0.1,2.3,0.3c0,0.4-5,1.1-5.6,1.9c-1.3,2.1-3.7,5.9-6,7.6c-2.9,2.1-9.6,6.4-9.6,6.4l-3.3-4.3
		C522.5,79.2,531.1,73.9,533,72.7"/>
	<path class="st26" d="M502.3,68c-1.2-1.4-3.7-6.1-4.6-7.7c0-0.1,0.1-1.1-0.5-2.4c-0.5-1-0.5-2.9-1.1-2.5c-0.6,0.4,0.1,2.1-0.4,2
		c-0.5-0.1-2.2-3.6-2.8-3.3s1.3,3.5,0.9,3.4c-0.5-0.1-1.8-3.2-2.6-2.7c-0.7,0.5,2,3.5,1.5,3.7c-0.4,0.3-2-1.7-2.6-1.3
		c-0.6,0.4,2.4,2.5,2.1,2.5c-0.3-0.1-2.2-0.6-2.3-0.3c-0.1,0.4,4.5,2.4,4.9,3.2c0.7,2.4,2,6.6,3.8,8.9c2.3,2.7,7.6,8.7,7.6,8.7
		l4.3-3.3C510.8,77,503.8,69.7,502.3,68"/>
	<path class="st28" d="M511.6,77.8L511.6,77.8c0.6-0.9,1.7-1.5,2.8-1.4c3.3,0.2,10,0.8,10.7,1.4c0.8,0.9,3.4,6.4,1,14.2
		c-2.4,7.8-3.8,7-5.8,7S509,94.5,509,94.5L511.6,77.8z"/>
	<path class="st34" d="M505.8,71.2l-3.9,5.1l4.9,7.2c0,0-0.5,5.4-1.1,7c-0.7,1.7-4.7,8.5-4.7,8.5s9.8,6,19.4,5.1
		c0,0,2.7-13.9,3.5-15.3s8.1-8,8.1-8l-3.6-5.7l-6.1,3.4c0,0-11.2-1.8-11.8-2.4C509.8,75.8,505.8,71.2,505.8,71.2"/>
	<path class="st33" d="M518.5,60.8c0,0-3.8-2-5.1,1.3c0,0-3.4-0.3-2.8,3.2c0,0-3.4,1.7-1.3,6.2c0,0-1,4.2,3.9,4.4c0,0,0.7,1.5,3,1.1
		c2.2-0.3,2.8-0.9,2.8-0.9s4,1.2,5.2-2.4c0,0,2.7-0.6,0.9-4.1c0,0,2.4-4.5-1.8-5.9C523.2,63.7,522.8,59.1,518.5,60.8"/>
	<path class="st26" d="M520,70.6c-0.3,0.9-0.1,1.7,0.5,1.9c0.6,0.2,1.3-0.3,1.6-1.2c0.3-0.9,0.1-1.7-0.5-1.9
		C521,69.2,520.3,69.7,520,70.6"/>
	<path class="st26" d="M509.8,68.5c0,0.9,0.4,1.7,1,1.7s1.1-0.7,1.2-1.6s-0.4-1.7-1-1.7C510.4,66.8,509.8,67.6,509.8,68.5"/>
	<path class="st26" d="M514.1,74.5c0,0.1-0.5,2.2-0.8,3.3c-0.1,0.4,0.1,0.8,0.5,1c1,0.5,3.1,1.1,4.5-0.1c0.1-0.1,0.2-0.3,0.2-0.5
		l-0.2-5.1L514.1,74.5z"/>
	<path class="st25" d="M513.9,75.7c1.1,0.6,2.5,0.6,4-0.4c0.2-0.1,0.4-0.2,0.6-0.4l-0.1-1.8l-4.3,1.3C514.1,74.5,514,75,513.9,75.7"
		/>
	<path class="st26" d="M517.2,62.9c0,0,1.9,0.5,3,2.3c1.1,1.8,1.7,7.1-2.2,9.4c-3.9,2.3-6.8-1.3-6.7-4.6
		C511.3,66.5,512.8,62.2,517.2,62.9"/>
	<path class="st29" d="M510.8,76.5c-1.8,1.4-3.7,8.4-4.4,10.2l-0.6,3.4l7.3-13C513.1,77,511.2,76.2,510.8,76.5"/>
	<path class="st29" d="M519.7,78.2c0,0-0.2,8.6,0.4,11.6c0.7,3,2.3,4,2.3,4l0.8-3.4c0,0-0.8-7.6-1.1-11.7
		C522.1,78,519.7,78.2,519.7,78.2"/>
	<path class="st39" d="M510.5,139.9c-0.8-0.1,0.6-3,1.1-3.4l6.1,0.8c0,0,3,1.4,3.7,2.1c0.2,0.2,0.2,0.5-0.5,0.6
		C518.5,140.2,512.3,140.1,510.5,139.9"/>
	<path class="st39" d="M480.4,124.5c0.7,0.4,2-2.4,2.1-3l-5-3.9c0,0-3.8-1.1-4.6-0.3C472.2,118,478.7,123.5,480.4,124.5"/>
</g>
<path class="st39" d="M319.4,67.9c0,0,2.4-0.9,4,1.6s0.7,2.2,1.5,3.5c0.8,1.2,1.1,4.7,1.4,6.6c2.7,19.3-29.5,20.9-17-3.7
	c1.2-2.3,2.2-3.7,3.2-6.2C313.6,67.2,318.1,67.3,319.4,67.9"/>
<path class="st34" d="M312.5,85.9l-3.2-1.1c0,0-1.3,1.6-1.7,5.8c-0.4,4.1,0,6.6,0,6.6h3.7L312.5,85.9z"/>
<path class="st34" d="M319,83.7c-1.1,0.1-9.3-0.7-9.8,1.1c-2.5,9.4,0.9,22.3,1.8,23.2c0.9,0.9,15-1.9,15-1.9S328.2,82.7,319,83.7"/>
<path class="st26" d="M330.2,74.1c0,0-0.9-0.4-1.7-2c-0.5-1-2.1-2.2-1.5-2.4c0.6-0.2,1.7,1.4,1.8,1c0.2-0.5-1.7-4.1-1.1-4.2
	c0.6-0.2,2.1,3.3,2.3,2.9c0.2-0.4-1.6-3.5-0.8-3.7c0.8-0.3,1.7,3.8,2.2,3.6s-0.2-3.2,0.5-3.4c0.7-0.2,0.6,3.8,0.8,3.7
	c0.1-0.1,0.7-2,1.1-1.9c0.4,0.2-0.7,4.1-0.2,5c0.5,0.9,4.5,11.8,3.1,13.1c-1.5,1.5-10.9,4.9-12.9,4.3c-2-0.6-3.1-2.5-2.6-3.7
	s9.8-3.9,9.9-4.3C331.4,81.6,330.2,74.1,330.2,74.1"/>
<path class="st25" d="M331,70.6c0.3,0,0.6,0.1,0.8,0.1c0,0,0.9,0.3,1.3,1.3C332.7,71.6,332.2,71,331,70.6"/>
<path class="st40" d="M338.2,136.3c0,0,1.8,7.4,3.2,8.6c1.4,1.2,5.8,3.4,4.6,3.6s-9.7,0.4-9.5-1c0.2-1.4,0.5-2.3,0.5-2.3l-2.3-5.3
	L338.2,136.3z"/>
<path class="st39" d="M346.6,148.9c-2.1,0.2-8.2,0.4-10,0.2c0,0-0.3-0.1-0.1-1.5c0.1-0.4,0.1-0.7,0.2-0.9c1.6,0.4,5.1-0.5,6.5-0.7
	c1.5,0.7,3.2,1.8,3.8,1.9C347.8,148,347.8,148.8,346.6,148.9"/>
<path class="st40" d="M318.2,142.6c0,0-0.2,1.9-0.2,2.7s0.8,3.2,0.4,3.5s-10.6,0.3-10.6,0c0-0.3,1.8-1.4,4.3-2.1s3.3-3.4,2.6-5
	L318.2,142.6z"/>
<path class="st39" d="M307.7,148.8c0-0.3,1.7-1.3,3.8-1.9c2.3,0.8,5.5,0.1,6.7-0.1c0.4,1,0.5,1.9,0.3,2.1
	C318.2,149.2,307.7,149.1,307.7,148.8"/>
<path class="st38" d="M329.3,111.2l1.8,1.6c0,0,2.1,5.6,2.2,5.9c0.2,0.5,6.9,22,6.9,22l-4.6,1.7c0,0-4.6-9-5.4-12.1
	c-0.8-3.1-8.4-16.2-8.4-16.2L329.3,111.2z"/>
<path class="st38" d="M321.2,114.5L319,143h-5.2c0,0-1.9-21.3-1.2-28.8L321.2,114.5z"/>
<path class="st35" d="M312.2,85.7c0,0,3.3-0.9,7-1.1c1.9-0.1,4.5,0.3,4.5,0.3s2.4,5.3,3.1,9.6s4.5,18.2,4.5,18.2s-7.8,6-19.1,2V85.7
	z"/>
<path class="st40" d="M321,81c0,0-0.1,3.4,0.2,3.7c0.3,0.3,0.8,0.8,0.3,1.6s-2.5,0.3-3.4-0.2c-0.9-0.4-1.5-1.3-1.5-1.3l0.5-5.4
	L321,81z"/>
<path class="st41" d="M319.7,82.4c-0.6-0.2-1.8-0.7-2.7-2.1l0.1-0.8l4,1.4c0,0,0,0.8,0,1.7C320.5,82.7,320,82.5,319.7,82.4"/>
<path class="st40" d="M316.4,75.7c0,0-0.1-2-1.3-1.6s-0.3,3.4,0.7,3.3C316.8,77.3,316.4,75.7,316.4,75.7"/>
<path class="st40" d="M320.2,69.2c0,0,1.9,0,2.9,1.4c1,1.5,2,5.7,0.4,8.7c-1.6,2.9-3.7,2.2-4.5,1.9c-0.9-0.3-2.5-1-3.4-3.7
	C314.8,74.8,315.4,68.7,320.2,69.2"/>
<path class="st28" d="M312.6,85.6c0.9,2,3,6.2,2.9,10.9c-0.1,4.9-3.8,8.1-3.8,8.1v2.4c0,0,4.1-0.6,5.6-7c1.5-6.3-2.2-14.9-2.2-14.9
	s-0.5-0.4-1.6-0.1C312.8,85.2,312.6,85.6,312.6,85.6"/>
<path class="st28" d="M321.5,84.6c0,0,3,16.4,7,17.5l-0.7-2.8c0,0-4.1-13.3-4.1-14.4C323.7,83.9,321.5,84.6,321.5,84.6"/>
<polygon class="st41" points="329.7,112.8 317.9,112.8 317.9,99.3 329.7,99.8 "/>
<g>
	<path class="st41" d="M329.7,98.7h-11.3c-0.3,0-0.5,0.2-0.5,0.5s0.2,0.5,0.5,0.5h11.3h0C329,99.5,329,99,329.7,98.7"/>
	<path class="st38" d="M329.4,98.9h-10.6c-0.2,0-0.4,0.2-0.4,0.4s0.2,0.4,0.4,0.4h10.6C329.1,99.4,329.1,99.1,329.4,98.9"/>
	<path class="st39" d="M324.5,99h-0.8c-0.2,0-0.3,0.1-0.3,0.3v0h1V99z"/>
	<path class="st28" d="M323.8,99c0.2,0,0.4,0.1,0.6,0.3l1.8,2.2h1l-1.7-2.1c-0.2-0.2-0.5-0.4-0.8-0.4H323.8z"/>
	<path class="st40" d="M312.2,85.7c0,0,0.9,0.9,1.9,4.3c1,3.4,1.4,11.3,2.3,12.2s6.2,5.1,7.2,5s3.2-2.7,3.8-2.7s0.6,0.6,0.2,1
		c-0.3,0.3-0.8,0.7-0.5,0.9l0.2,0.2c0,0,3-0.8,3.5-0.5s-0.5,1-0.5,1.5s0.1,0.5,0.1,1.1s-0.2,1-0.5,1.3c-0.3,0.3-3.6,1.2-6.9,0.8
		c-3.3-0.4-7.3-2-10.2-5.7c-3-3.6-2.4-15.1-2.3-16.3C310.7,85.9,312.2,85.7,312.2,85.7"/>
</g>
<g id="HANDS_00000126281047556472694890000014768071900170906292_">
	<path class="st23" d="M192.1,65.8c0.1,0.1,0.2,0.2,0.4,0.3c1.2,0.6,4.6,0.2,4.6,0.2s7,6.9,12,7.7c5.5,0.8,7.9-0.7,8.1-4.6
		c0-0.3,0-0.6,0-0.9c-0.5-3.5-5.4-5.6-10.1-5.6c-3.9,0-7.5,0.8-8.9,1.2c-0.4,0.1-0.6,0.2-0.6,0.2h-5.7
		C191.7,64.2,191.4,65.1,192.1,65.8z"/>
	<path class="st23" d="M189.6,47c0.2,1.9-4.5,3.9-4.5,3.9s5.1,25.9-6.2,20.6c-0.9-0.4-1.6-1.2-2-2l0,0c-1.7-3.2,0.1-8.9,2.3-13.4
		c1.4-2.8,2.8-5.2,3.6-6C184.9,47.6,189.5,45.4,189.6,47z"/>
</g>
</svg>
