<?xml version="1.0" encoding="utf-8"?>
<!-- Generator: Adobe Illustrator 25.4.1, SVG Export Plug-In . SVG Version: 6.00 Build 0)  -->
<svg version="1.1" id="Ebene_1" xmlns="http://www.w3.org/2000/svg" xmlns:xlink="http://www.w3.org/1999/xlink" x="0px" y="0px"
	 viewBox="0 0 163 163" style="enable-background:new 0 0 163 163;" xml:space="preserve">
<style type="text/css">
	.st0{fill:#FFFFFF;}
	.st1{fill:#26386E;}
	.st2{fill:none;stroke:#004F8F;stroke-width:0.178;stroke-miterlimit:3.864;}
</style>
<g>
	<path class="st0" d="M0,81.5C0,36.5,36.5,0,81.5,0S163,36.5,163,81.5S126.5,163,81.5,163C36.4,162.9,0,126.5,0,81.5"/>
	<path class="st1" d="M70.4,67.2c0,0-0.1,0-0.2,0l-0.1-0.1l0.1-0.2l0.2-0.1l0.2-0.1l0.3-0.1l0.2-0.1l0.5-0.2l0.4-0.1l0.3-0.1
		l0.3-0.1l0.3-0.1l0.1-0.1v-0.2v-0.1l-0.1-0.1h-0.2c0,0-0.2,0-0.3,0c-0.1,0-0.2,0.1-0.3,0.1c-0.1,0-0.4,0.2-0.4,0.2l-0.4,0.2L71,66
		l-0.3,0.1l-0.4,0.1H70c-0.1,0-0.4,0-0.4,0s-0.2,0-0.3-0.1v-0.2c0,0,0.1-0.1,0.2-0.1h0.2h0.2h0.3h0.3l0.4-0.1c0,0,0.1-0.1,0.1-0.2
		l0.1-0.3L71,64.9l-0.1-0.2l-0.2-0.1l-0.3-0.2l-0.2-0.1l-0.3-0.1h-0.3c0,0-0.7,0-0.8,0.3h-0.2l0.1-0.6l0.1-0.4h0.4l0.5,0.1l0.3,0.1
		l0.3,0.1l0.4,0.1L71,64l0.3,0.1h0.4l0.2-0.1v-0.2l-0.1-0.2l-0.2-0.2l-0.4-0.3l-0.4-0.2l-0.2-0.1l-0.2-0.1l-0.2-0.1l-0.3-0.1h-0.4
		h-0.3c0,0-0.2-0.1-0.1-0.2V62v-0.2l0.2-0.2l0.3-0.1l0.5-0.1h0.5h0.7h0.3l0.5,0.1l0.3,0.1l0.5,0.3l0.3,0.2l0.5,0.6l0.4,0.5l0.4,0.5
		l0.5,0.6l0.5,0.6c0,0,0.1,0.1,0.2,0.2l0.1,0.3v0.3c0,0-0.1,0.2-0.4,0.2H75h-0.6h-0.6c-0.1,0-0.4,0-0.5,0.1l-0.4,0.1l-0.4,0.2
		l-0.3,0.1l-0.5,0.2l-0.5,0.2L70.4,67.2z M69.8,62.2l-0.1,0.1l0.2,0.1l1.3,0.3l1.3,0.9l0.7,0.8l0.7,0.5c0,0,0.4-0.3,0.1-0.7
		l-0.4-0.5l-0.8-0.9l-0.5-0.3l-0.6-0.2L71,62.2l-0.7-0.1L69.8,62.2z"/>
	<path class="st1" d="M108.9,112.5c0.3-0.4,0.3-1.3,3.7-1.6c0.8,0,1.2,1,0.6,1c-0.2,0-0.5,0-0.5,0c-0.7,0-0.5,0.4-0.5,0.4
		s0.3,0.6,1.4,0.5c0.1,0,0.5,0,0.6,0c1.5-0.4,0.4-1.5,0.4-1.5c-0.3-0.4-1.2-0.6-1.2-0.6l-0.4-0.1l-0.6-0.1l-1.2,0.1
		c-1.8,0.4-2.6,0.3-2.6,0.3L108.9,112.5z"/>
	<path class="st1" d="M106.7,107.6l0.8,0.4c0,0,1.6,1.2,3.4,0.9c0.1,0,3.3-0.3,4.7,1.1c0-0.3,0-0.9,0-1c-0.5-1-2.6-1-2.6-1
		c-2.4,0.6-4.1-0.2-4.1-0.2s-1.4-1-1.4-1.1c-0.1,0-1-0.4-1-0.4L106.7,107.6z"/>
	<path class="st1" d="M116.9,109.2l-1.2-1.8c-0.6-0.7-2.2-0.7-2.2-0.7h-1c0,0-1.5,0.1-1.6,0.1c-1.6,0.1-3.3-0.6-3.3-0.6L107,106
		c0,0-0.2-0.7-0.2-0.8c0-0.1,0-0.8,0-0.8c0.3,1.1,1.4,1,1.4,1c0.3,0.1,0.5,0,0.5,0l1.7,0.1l2.5-0.1c0,0,1,0.1,1.1,0.1
		c1.9,0.1,2.5,2.1,2.5,2.1L116.9,109.2z"/>
</g>
<polygon class="st1" points="116.9,103 116.2,102.1 115.6,101.5 114.9,101.1 114.2,100.7 113.6,100.3 112.8,99.9 111.6,99.2 
	110.6,98.7 109.8,98 109.1,97.5 108.7,97.1 108.6,96.2 108.7,95.2 109,94.3 109.2,93.6 109.4,92.9 109.5,92.1 109.4,91.6 
	109.4,90.9 109.2,90.2 109.8,89.8 110.2,90.4 110.3,91 110.3,91.6 110.3,92.2 110.2,93 110.1,93.7 109.9,94.5 109.6,95.1 
	109.4,95.7 109.3,96.4 109.4,97.1 110.1,97.5 110.9,97.8 112.1,98.3 113.1,98.7 114,99 114.8,99.5 115.5,100 116.1,100.4 
	116.9,101.1 117.6,101.9 117.5,102.4 "/>
<g>
	<path class="st1" d="M118.2,100.2c-0.6-1.1-2.3-1.2-2.3-1.2c-0.2,0-0.3-0.2-0.3-0.2s0-0.1,0.2-0.1c0.8-0.1,2.3,0.6,2.3,0.6l0.1,0.4
		L118.2,100.2z"/>
	<path class="st2" d="M118.2,100.2c-0.6-1.1-2.3-1.2-2.3-1.2c-0.2,0-0.3-0.2-0.3-0.2s0-0.1,0.2-0.1c0.8-0.1,2.3,0.6,2.3,0.6l0.1,0.4
		L118.2,100.2z"/>
	<path class="st1" d="M110.5,90.9c0,0,1,0.9,1.2,1.6c-0.1,0.2-1.1,2.7-1.1,2.7c-0.4,1.5-0.1,2.2,1,1.9l5.8,0.3l-0.5-1.6
		c-0.1,0-0.3,0.3-0.8,0.3c-5.8,1.1-4.3-1.2-4.3-1.2c0,0.4,0.8-2.2,0.8-2.2c0.2-0.7-0.5-1.5-0.5-1.5c0-0.2-1.5-1.9-1.5-1.9l-0.7,0.5
		C109.9,89.8,110.4,90.7,110.5,90.9"/>
	<path class="st1" d="M113.3,95.4c0.6-0.7,0.9-1.3,1.1-1.6c0.7-1.6-1.2-2.4-1.2-2.4c-0.3-0.2-1.2-0.1-1.2-0.1l-1-0.6
		c0.1,0.1-0.5-0.5-0.5-0.5s2.5,0.2,3.1,0.4c1.9,1.3,2.3,2.6,0.9,3.9l-0.5,0.9l-0.4,1.2h-0.8L113.3,95.4z"/>
	<path class="st1" d="M114,105.2v-0.4l0.2-1.2l0.1-0.9v-0.3v-0.2l0.2,0.2l0.1,0.4l0.1,0.4v0.3v0.3l-0.2,0.5c0,0-0.3,0.3-0.1,1.1
		c0,0.1,0.1,0.4,0.1,0.4h-0.3c0,0-0.2-0.1-0.2-0.2C114.1,105.4,114,105.3,114,105.2"/>
	<path class="st1" d="M112.8,105.8l-0.2-0.2l-0.2-0.4l-0.1-0.2v-0.2l0.1-0.3l0.1-0.5l0.1-0.6v-0.7l-0.1-0.5l-0.3-0.6l-0.4-0.3
		l-0.5-0.4l-0.7-0.4l-0.8-0.4l-0.5-0.2l-0.7-0.4l-0.9-0.7l-0.5-0.5l-0.3-0.5l-0.2-0.7v-0.7l0.1-0.6l0.2-0.6l0.2-0.5l0.2-0.4v-1
		l0.1-0.3l-0.1-0.7l-0.1-0.4l-0.1-0.3c0,0-0.2-0.8-0.1-0.9s0.9-0.3,0.8-0.3c-0.5-0.1,1,0.1,0.7,0.4c0.1,0.1,0,0.6,0,0.6V92l-0.1,0.6
		l-0.1,0.5l-0.1,0.6l-0.1,0.5l-0.2,0.5l-0.1,0.5l-0.1,0.4l-0.2,0.7V97l0.2,0.7l0.3,0.6l0.4,0.4l0.5,0.2l0.8,0.4l0.8,0.3
		c0,0,0.4,0.2,0.6,0.3c0.1,0.1,1,0.4,1,0.4l0.4,0.3l0.4,0.5l0.3,0.4l0.1,0.6v1l-0.2,0.9v0.4v0.4l0.1,0.5l-0.1,0.3L112.8,105.8z"/>
	<path class="st1" d="M103.4,91.8v0.5l-0.1,1.2l-0.9,2.8c-0.2,1-0.1,1.8,0.3,2.4l0.8,1.4l0.3,0.5c0,0,0.7,2.1-0.2,2.6
		c-1.4,1.6-1.8-0.2-1.8-0.2l-0.7-1.3l-0.4-1.4c-0.1-0.4-0.9-1.4-0.9-1.4l-0.4-0.5L99,98.1l-0.5-0.6l-0.4-0.3L97.8,97
		c0,0-0.3-0.1-0.4-0.1S97,97,97,97s-0.2,0.2-0.2,0.3c0,0.1,0.2,0.4,0.2,0.4l0.3,0.2l0.7,0.3l0.5,0.4l0.6,0.8l0.5,0.7l0.5,1.3l0.3,1
		l0.4,0.9l0.6,1c0.7,0.8,2,0.3,2.1,0.3s0.5-0.4,0.5-0.4s0.4,0.1,0.5-0.1s0.2-1.3,0.2-1.3V102v-0.6c0-0.3-0.3-1.3-0.3-1.3l-1.1-1.9
		c-0.5-1.2,0-2.6,0-2.6l0.7-1.9l0.2-0.7l0.3-1.3v-0.3c-0.3-0.7-1-0.3-1.1-0.3C103.4,91.5,103.4,91.8,103.4,91.8"/>
	<path class="st1" d="M104.6,104.1l-0.1,0.5l-0.2,0.4l-0.2,0.3l-0.3,0.3l-0.5,0.4c-1.4,0.7-2.4,0.2-2.4,0.2c0.1,0.1-0.8-0.6-0.8-0.6
		l-1.9-2.7l-0.7-1.1l-1.2-1.3c-1.6-1.3-2.5,0.3-2.5,0.3l-0.2,0.4l0.9-2.1c1.2,0.2,2.7,1.2,2.7,1.2l2.9,4.4l0.8,0.9
		c1.1,0.3,1.6-0.3,1.6-0.3s0.2-0.2,0.4-0.4c0.2-0.2,0.7-0.3,0.7-0.3s0.3-0.2,0.4-0.3C104.2,104.3,104.6,104.1,104.6,104.1"/>
	<path class="st1" d="M100.8,90.8v0.7c0.3,0.3,0.2,0.6,0.2,0.6l-0.3,0.3l-0.5,0.5l-0.4,0.8l-0.3,0.7l-0.1,0.7c0,1,0.6,2.4,0.6,2.4
		l0.9,1.3c0.6,1.2,0.4,2.3,0.4,2.3l-0.2,0.9l0.5,1l0.2,0.3c0,0,0.1-0.5,0.2-0.6s0.1-2,0.1-2c0.1-0.7-0.2-1.6-0.2-1.6
		c-1.3-1.9-1.5-2.8-1.5-2.8c-0.3-1-0.2-1.6,0.1-2l0.7-0.9l0.4-0.5l0.4-0.4c0,0,0.1-0.1,0.3-0.3c0.1-0.2,0.3-0.4,0.3-0.4l0.1-0.3
		c0,0,0-0.4-0.3-0.5c-0.2-0.1-0.5-0.3-0.5-0.3l-0.6-0.3L100.8,90.8z"/>
	<path class="st1" d="M100.3,108.2l-0.3-0.1h-0.6c-0.7-0.3-1.2,0-1.2,0L97,109l-0.7,0.6l-0.5,0.5c-0.4,0.4-0.7,0.2-0.7,0.2l-0.8-0.6
		l0.3-0.1h0.5l1.3-0.9l1.2-1.1l0.3-0.2c0-1.3-0.9-1-0.9-1l-0.2,0.2l-0.2,0.4c0,0-0.2,0.2-0.4,0c-0.2-0.1-0.2-0.4-0.2-0.4
		s0.2-0.5,0.7-0.8c0.5-0.2,1-0.2,1-0.2v-0.3c-0.3-0.8-1.5-0.9-1.5-0.9c-1.8,0.1-1.7,1.1-1.7,1.1l-0.1,0.5l-0.6-1.8h0.8l1-0.3
		c0.1,0,0.3-0.1,0.9-0.1c0.7,0.1,1.7,1.3,1.7,1.3l0.8,1.8c0.1,0.2,0.3,0.4,0.3,0.4l0.8,0.5C99.9,107.7,100.3,108.2,100.3,108.2"/>
	<path class="st1" d="M104.9,106.8c1.2-2.9,1.8-2.8,1.3-6.4c0.1-0.1-1.9-2.6-1.9-2.6c-0.2-0.2-0.2-1.1-0.2-1.1c0.2-1,0.9-2,0.9-2
		c0.2-0.2,0.5-1,0.5-1l0.2-1.4V92l0.9-0.3c0,0-0.2,3.3-0.6,3.6c-0.8,1.4-0.8,2.5-0.2,3.2l0.8,1.1c0.1,0.1,0.5,0.1,0.5,0.1l1.3,1.1
		l1.6,1.4l1,1.1c0.7,1.2,0.4,2.3,0.4,2.3c-0.2,0-0.5-0.1-0.5-0.1v-1c0-0.6-0.7-1.2-0.7-1.2l-1.3-1.3l-1.5-1.2l-0.2-0.1v0.4l0.2,0.3
		l0.4,0.5l2,2.8l0.5,0.9l-1.4-0.1l-0.1-0.5c-0.1-1.1-1.5-2.5-1.5-2.5l-0.1,0.7l-0.3,1.6l0.2,0.9c0,0,0.1,1.3,0,1.2
		C107.1,106.8,104.9,106.8,104.9,106.8"/>
	<path class="st1" d="M100.9,91.6l0.5,0.4c6.6,0.4,8.1-1.3,8.1-1.3c0.6-0.3,1.2-1.4,1.2-1.4l0.7-0.3l-0.1-0.9l-0.8,0.3l-0.7,0.1
		l-0.5-0.1l-0.2,0.8c-0.3,1.1-5.8,2-5.8,2h-0.9h-0.5l-0.5,0.2L100.9,91.6z"/>
	<path class="st1" d="M101.6,91c0,0,0-0.5,0.1-0.5c0-0.1,0.2-0.3,0.2-0.3c3,0,7.3-1.5,7.3-1.5c0.6-0.1,0.6-0.2,0.6-0.2
		c0.6-0.8,0.1-1,0.1-1l-0.9,0.3c-3.2,1.7-7.9,1.9-7.9,1.9l-0.2,0.4v0.5L101.6,91z"/>
	<path class="st1" d="M101.1,89.3c-0.1-0.4,0.4-0.4,0.4-0.4c2.2,0,6.1-1.4,6.2-1.4S109,87,109,87c0.5-0.4,1-0.2,1-0.2l-0.1-0.9
		l-0.2-0.6c0,0-0.2-0.3-0.2-0.2c0,0.1-0.9,1.1-0.9,1.1c-1.1,1.1-5,1.9-5,1.9l-0.8,0.1h-1.2c-0.6,0-0.6-0.9-0.6-0.9l-0.6,0.6l0.2,1
		L101.1,89.3z"/>
	<path class="st1" d="M109.7,85.3c-0.1-0.7-1.2-0.3-1.2-0.3c-2.1,1.5-5.5,2.1-5.5,2.1c-1.8-0.1-2.1,0.5-2.1,0.5
		c-0.7-0.1-0.9-0.5-0.9-0.5s-0.2-1.5-0.2-1.6s-0.2-0.4-0.2-0.4l0.5,0.1l0.9,0.9c2.9,0.1,4-1.5,4-1.5c1.6-0.6,2.1-0.8,2.5-1.3
		c0.2-0.2,0.4-0.2,0.5-0.2s1.5-0.1,1.5-0.1L109.7,85.3z"/>
	<path class="st1" d="M88.3,81.6c0,0,0.9-0.7,1-0.8c0.1-0.1,0.3-0.4,0.4-0.4c0.1-0.1,0.5-0.4,0.5-0.4c0.2,0,1.1,0,1.1,0
		s0.1,0.2,0.3,0.4c0.2,0.1,0.5,0.5,0.5,0.5l0.5,0.4c0,0,0.5,0.4,0.6,0.4s0.7,0.2,0.7,0.2l0.5,0.2l0.5,0.3l0.7,0.2l0.5,0.3l0.3,0.2
		l0.3,0.2l0.8,0.7l0.5,0.3l0.4,0.3c0.3,0.6,1.6,0.9,1.6,0.9l-0.4-0.6l-0.2-0.5v-0.7c0,0-0.1-0.4-0.1-0.5s-0.1-0.3-0.1-0.3l-0.6-0.4
		l-0.5-0.3l-1-0.2l-0.4-0.2L96,81.4c0,0-0.6-0.2-0.7-0.2h-0.5L94.3,81c-1.3-0.7-2.2-1.7-2.2-1.7l-0.5-0.5l-0.4-0.1h-0.5H90
		c0,0-0.3,0-1.6,0.9c-0.4,0.4-1,0.1-1,0.1c0-0.1,0.2,0.8,0.2,0.8l0.4,0.8L88.3,81.6z"/>
	<path class="st1" d="M105,84.9c0-0.2-0.6-0.4-0.6-0.4l-1.3,0.1l-1.1-0.1l-0.6-0.2l-0.4-0.2l-0.4-0.2l-0.4-0.2L99.4,83l-0.5-0.1
		l-0.5-0.3L98,82.1l0.7,0.1c0,0,0.8,0,0.9,0s0.7,0,0.7,0s0.6,0.2,0.7,0.2s0.5,0.2,0.5,0.2l0.7,0.4l0.9,0.4c1,0.6,1.7-0.1,1.7-0.1
		l0.5,0.1c0.3,1.2,1.8,0.9,1.8,0.9C107,84.3,105,84.9,105,84.9"/>
	<path class="st1" d="M95.1,59.8l-0.4-0.2l-0.5-0.3l-0.3-0.2L93.5,59l-0.4-0.1l-0.5-0.3l-0.7-0.4l-0.3-0.5l-0.4-0.6l-0.5-0.9
		l-0.3-0.8L90.3,55v-0.3l0.2-0.1c0.2,0,0.5,0.2,0.5,0.2c0.4,0.2,0.9,0.7,0.9,0.7l0.5,0.4l0.4,0.2l0.9,0.3l0.5,0.2l1.3,0.3
		c0.8,0.2,1.4,0.5,1.4,0.5c1.3,0.9,1.4,1.9,1.4,1.9l0.2,0.9l0.1,0.9v0.7l-0.1,0.9l0.1,0.5l0.2,0.6l0.1,0.4c0,0.3,0,0.5,0,0.5
		c-0.2,0-0.4-0.2-0.4-0.2c-0.2-0.1-0.4-0.5-0.4-0.5l-0.2-0.4L97.8,63v-0.9l-0.1-0.7v-1.1c0.1-1-0.7-2.1-0.7-2.1l-0.5-0.4l-0.7-0.3
		l-0.5-0.2l-1.1-0.2l-1-0.2l-0.9-0.4l-0.4-0.3c-0.5-0.1-0.3,0.4-0.3,0.4l0.2,0.5l0.3,0.4c0.8,0.5,1.1,0.5,1.1,0.5s1.2,0,1.4,0.1
		c0.1,0,0.4,0.2,0.4,0.2l0.4,0.2l0.4,0.3l0.3,0.4v0.4C95.8,60,95.1,59.8,95.1,59.8"/>
	<path class="st2" d="M95.1,59.8l-0.4-0.2l-0.5-0.3l-0.3-0.2L93.5,59l-0.4-0.1l-0.5-0.3l-0.7-0.4l-0.3-0.5l-0.4-0.6l-0.5-0.9
		l-0.3-0.8L90.3,55v-0.3l0.2-0.1c0.2,0,0.5,0.2,0.5,0.2c0.4,0.2,0.9,0.7,0.9,0.7l0.5,0.4l0.4,0.2l0.9,0.3l0.5,0.2l1.3,0.3
		c0.8,0.2,1.4,0.5,1.4,0.5c1.3,0.9,1.4,1.9,1.4,1.9l0.2,0.9l0.1,0.9v0.7l-0.1,0.9l0.1,0.5l0.2,0.6l0.1,0.4c0,0.3,0,0.5,0,0.5
		c-0.2,0-0.4-0.2-0.4-0.2c-0.2-0.1-0.4-0.5-0.4-0.5l-0.2-0.4L97.8,63v-0.9l-0.1-0.7v-1.1c0.1-1-0.7-2.1-0.7-2.1l-0.5-0.4l-0.7-0.3
		l-0.5-0.2l-1.1-0.2l-1-0.2l-0.9-0.4l-0.4-0.3c-0.5-0.1-0.3,0.4-0.3,0.4l0.2,0.5l0.3,0.4c0.8,0.5,1.1,0.5,1.1,0.5s1.2,0,1.4,0.1
		c0.1,0,0.4,0.2,0.4,0.2l0.4,0.2l0.4,0.3l0.3,0.4v0.4C95.8,60,95.1,59.8,95.1,59.8z"/>
	<path class="st1" d="M100.6,77.6c-0.2,0.3,0.1,0.5,0.5,0.6l0.7,0.2c0.2,0,0.4-0.2,0.4-0.4c0-0.1-0.2-0.2-0.2-0.2
		C101.4,77.3,100.6,77.6,100.6,77.6"/>
	<path class="st2" d="M100.6,77.6c-0.2,0.3,0.1,0.5,0.5,0.6l0.7,0.2c0.2,0,0.4-0.2,0.4-0.4c0-0.1-0.2-0.2-0.2-0.2
		C101.4,77.3,100.6,77.6,100.6,77.6z"/>
	<path class="st1" d="M82.9,68.3c-0.1,0-0.4-0.2-0.4-0.2c-0.2-0.3-0.1-0.7-0.1-0.7c0-0.1,0.2-0.2,0.2-0.2c0.1,0,0.3-0.1,0.4-0.1
		c0.4-0.1,0.6,0,1,0.1c0.1,0,0.4,0.2,0.4,0.2l0.4,0.3c0.2,0.2,0.3,0.4,0.3,0.5c0,0,0.1,1.1-0.1,1.2c-0.4,0.6-0.9,0.9-1.4,1l-1.7,0.4
		L81.4,71l-0.3,0.4l-0.3,0.8c0,0-0.3-1.8-0.4-1.8s-0.2-1.1-0.2-1.1l1.2,1c1.9,0,2.8-0.9,2.8-0.9l0.1-0.5c0-0.3,0-0.4,0-0.5
		c0,0-0.2-0.4-0.9-0.2C83.2,68.2,82.9,68.3,82.9,68.3"/>
	<path class="st2" d="M82.9,68.3c-0.1,0-0.4-0.2-0.4-0.2c-0.2-0.3-0.1-0.7-0.1-0.7c0-0.1,0.2-0.2,0.2-0.2c0.1,0,0.3-0.1,0.4-0.1
		c0.4-0.1,0.6,0,1,0.1c0.1,0,0.4,0.2,0.4,0.2l0.4,0.3c0.2,0.2,0.3,0.4,0.3,0.5c0,0,0.1,1.1-0.1,1.2c-0.4,0.6-0.9,0.9-1.4,1l-1.7,0.4
		L81.4,71l-0.3,0.4l-0.3,0.8c0,0-0.3-1.8-0.4-1.8s-0.2-1.1-0.2-1.1l1.2,1c1.9,0,2.8-0.9,2.8-0.9l0.1-0.5c0-0.3,0-0.4,0-0.5
		c0,0-0.2-0.4-0.9-0.2C83.2,68.2,82.9,68.3,82.9,68.3z"/>
	<path class="st1" d="M74.4,47.2c0.3-0.3,1.7-0.9,1.7-0.9l1.8-0.6c0,0,1-0.3,1.2-0.3c3.5-0.5,6.2-0.8,8.1-0.7c3.7,0,6.8,0.9,6.8,0.9
		c1.8,0.4,5.6,1.8,5.6,1.8c0.7,0.3,3.2,1.6,4.5,3.6c0.1,0.2,2.7,4.4,2.7,4.4c0.8,1.6,1.8,5.3,1.8,5.3l0.5,2.1l0.6,2.3
		c0.9,3.6,1.1,5.6,1.1,5.6l0.2,1.6l0.3,3l0.1,1.5l0.3,2.5c0.1,0.3-0.8,2.9-0.8,2.9l-0.9,1.3l-0.9,0.3v-0.5l1-1.3
		c0.1,0,0.7-1.3,0.7-1.4s-0.2-5.1-0.2-5.1l-0.1-2.7l-0.2-1.7c0.1-0.2-0.3-2.2-0.3-2.2c0-0.1-0.4-1.3-0.4-1.3l-0.4-1.6l-0.4-1.5
		l-0.5-1.9l-0.4-1.8c0-0.6-1-3.5-1-3.5c-1.3-2.9-3.8-6.1-3.8-6.1l-1.6-1.5c-8.7-5.3-18.7-4.2-19-4.2c0,0-2,0.2-3.9,0.6
		c-1.8,0.4-2.9,0.9-2.9,0.9c-0.5,0.3-1.2,0.4-1.2,0.4C74.2,47.5,74.4,47.2,74.4,47.2"/>
	<path class="st1" d="M89.7,48.6c0.2,0.1,0.5,0.3,1,0.6c2,1.3,3.7,2.1,5.3,2.6c0.1,0.1,3.2,1.3,3.9,3.1c0.7,1,1,2,1,2
		c0-0.2,0.4,1.5,0.4,1.5l0.6,3l0.4,1.1c0.4,1.3,1.3,2,1.3,2l2.4,2.1c0,0,1.4,1.5,1.3,2.8c0.1,0.3-0.2,0.4-0.4,0
		c-0.2-0.5-0.2-0.6-0.4-0.9c-0.3-0.5-1.5-1.6-1.5-1.6l-1.4-1l-1.4-1.1l-0.9-0.8c-0.6-1.1-0.4-2-0.4-2l0.1-1.4c0.2-0.7-0.6-3-0.6-3
		l-0.3-0.7l-0.2-0.6l-0.4-1c-0.1-0.1-0.3-0.3-0.9-0.8c-1.4-1.6-3.9-2.3-3.9-2.3c-1.1-0.2-1.9-0.5-2.7-0.9
		C89.5,49.7,89.7,48.6,89.7,48.6"/>
	<path class="st2" d="M89.7,48.6c0.2,0.1,0.5,0.3,1,0.6c2,1.3,3.7,2.1,5.3,2.6c0.1,0.1,3.2,1.3,3.9,3.1c0.7,1,1,2,1,2
		c0-0.2,0.4,1.5,0.4,1.5l0.6,3l0.4,1.1c0.4,1.3,1.3,2,1.3,2l2.4,2.1c0,0,1.4,1.5,1.3,2.8c0.1,0.3-0.2,0.4-0.4,0
		c-0.2-0.5-0.2-0.6-0.4-0.9c-0.3-0.5-1.5-1.6-1.5-1.6l-1.4-1l-1.4-1.1l-0.9-0.8c-0.6-1.1-0.4-2-0.4-2l0.1-1.4c0.2-0.7-0.6-3-0.6-3
		l-0.3-0.7l-0.2-0.6l-0.4-1c-0.1-0.1-0.3-0.3-0.9-0.8c-1.4-1.6-3.9-2.3-3.9-2.3c-1.1-0.2-1.9-0.5-2.7-0.9
		C89.5,49.7,89.7,48.6,89.7,48.6z"/>
	<path class="st1" d="M74.9,49.8c0.6-0.4,2.9-0.9,2.9-0.9c0.1-0.1,2.2-0.4,2.3-0.4c0.1,0,3.7-0.5,3.7-0.5c1.6-0.1,2.8,0.4,2.8,0.4
		c0.4,0.1,0.8,0.4,0.8,0.4l2,1.6l2,1.4c0,0,1.2,0.6,1.4,0.7c0.2,0.1,2.7,0.9,3,1s2.1,0.9,2.1,0.9s2.7,1.5,2.4,2.6
		c-1.1-1.2-3.1-2-3.1-2c-5.5-1.8-6.3-2.7-6.3-2.7l-1.5-1l-1.3-0.9c-1.7-1.4-4.2-1.5-4.2-1.5c-2.4-0.2-6.6,0.6-6.6,0.6
		C75.7,50,74.9,49.8,74.9,49.8"/>
	<path class="st1" d="M93.1,47.5c-0.1,0,0.9,0.1,1.7,0.3c0.3,0.1,1.5,0.5,1.6,0.6c0.1,0,2.2,1,2.5,1.1c1.3,0.7,2.2,1.3,2.7,1.8
		c1.4,1.2,1.8,2.1,1.8,2.1c1,1.4,1.8,2.6,2.3,4.5l0.4,1.5l0.3,1.3l0.4,2.2l0.3,1.3l-1.3-1.8l-0.5-0.6l-0.4-0.6l-0.4-1.1
		c-1.3-5.6-2.3-6.8-2.3-6.8c-1.3-1.9-3.2-3-3.2-3c-0.4-0.3-2.8-1.4-2.8-1.4s-2-0.8-2.3-0.8C92.6,47.7,93.1,47.5,93.1,47.5"/>
	<path class="st1" d="M80.2,54.6c1.3,0.7,2.1,0.8,2.1,0.8c1,0,2.1,0.3,2.1,0.3s0.8,0.4,0.9,0.8c0.1,0.4,0.1,0.6,0.1,0.6l0.1,1.2
		c0,0,0.3,1.4,0.4,1.5c0.2,0.1,0.2,0.4,2.8,1.1c0.1,0,1.4,0.6,1.5,0.8c0.4,0.3,0.6,0.5,0.7,0.8c0.9,1.5,0.3,4.9,0.3,4.9l0.1,0.7
		c1.2,1,1.8,0.9,1.8,0.9v-0.4c0-0.1-0.3-0.8-0.3-0.8l-1.2-5.4c-0.5-1-2.8-2-2.8-2c-1.3-0.3-1.4-1.3-1.4-1.3l-0.3-1.3l-0.4-1.4
		c-0.3-1.8-1.9-1.7-1.9-1.7h-1.6l-0.8-0.1l-0.7-0.1l-1.1-0.4C80.8,53.8,79.6,53.6,80.2,54.6"/>
	<path class="st1" d="M80.4,57.2l0.8,0.2l0.6,0.2c0.5,0,0.6-0.1,0.6-0.1l1.1-0.4h0.4l0.8,0.1c1.5,0.4,1.6,1.3,1.6,1.3l-0.9-0.3
		l-0.8-0.1L83.3,58l-0.9,0.1C81.1,58.6,80.4,57.2,80.4,57.2"/>
	<path class="st1" d="M80,52.1c1.1,1.5,2.3,0.6,2.2,0.7l1.8-0.4c0.5,0,1-0.1,1.1,0c0.8,0.1,1.2,0.2,1.4,0.3c0.6,0.2,1,0.2,1.8,1.4
		c0-0.1,0.6,1.2,0.6,1.2l0.5,1.3c0.8,3,3.8,4.1,3.8,4.1l1.8,0.5l0.6,0.3c0,0,0.7,0.5,0.8,0.9c0.1,0.2,0.4,0.9,0.4,0.9l0.4,1.1
		l0.6,1.6l0.5,0.4l0.6,0.5l0.6,0.8c-0.2,0.2-0.1,0.6-0.1,0.6c0,0.1-0.6,0.2-0.6,0.2l-0.6,0.2c-0.3-0.1-0.5-0.6-0.5-0.6l-0.2-0.9
		l-0.8-2.7c-0.6-1.6-1.8-1.9-1.8-1.9l-1.6-0.8l-2.1-1.2c-1.6-0.7-2.4-3.5-2.4-3.5c-0.7-2.8-1.9-3.4-1.9-3.4C86.2,53,83,53.4,83,53.4
		l-1.3,0.4c0.1-0.1-2,0.7-2,0.7s0.1-1,0.1-1.1C79.8,53.1,80,52.1,80,52.1"/>
	<path class="st1" d="M93.4,63.5c1.2,1.5,0.7,4.3,0.7,4.3l0.3,1.3l0.8,1.2c0,0,1.5,1.6,1.5,1.8c1.7,1.9,1.3,3.7,0.6,5.2l-0.6,0.8
		l-0.1,0.3L96.5,80l0.3,0.4c0.4,0.3,1.9,0.3,1.9,0.3s1.9,0,2,0.1s0.9-0.1,0.7-0.3c-0.2-0.1-0.5-0.3-0.5-0.3s-0.9-0.7-0.9-0.9
		c-0.1-0.2-0.2-1.3-0.2-1.4s-0.2-0.6-0.2-0.6c-0.1-0.1-0.4-0.6-0.6,0.1c0-0.1-0.1,0.7-0.1,0.7l-0.2,0.8L98,79.2
		c-0.1,0-0.2,0-0.3-0.1c-0.1-0.1-0.1-0.6-0.1-0.6c0.1-0.2,0.5-0.8,0.5-0.8l0.3-0.8l0.3-1.1l0.1-1.3l-0.3-1.1l-0.4-0.8l-1.5-2
		l-0.7-0.9l-0.7-0.9l-0.3-1.1l-0.1-2.8c0-0.8-0.8-1.8-0.8-1.8C93,62.6,93.4,63.5,93.4,63.5"/>
	<path class="st1" d="M73.9,48.6l1.9-0.8l2.3-0.5c5.6-0.9,9.6-0.5,9.6-0.5c3.3,0.6,5.4,1.6,5.4,1.6s5.6,2.4,7.7,4.9
		c0.6,0.9,0.9,1.6,0.9,1.6l1.6,4.9c0.5,1.5,1,2.1,1,2.1c0.4,0.5,0.8,0.7,0.8,0.7l0.6,0.3c0.5,0.2,1,0.9,1,0.9
		c0.7,0.9,0.6,1.7,0.6,1.7c0.1,0.1,0,0.9,0,0.9l-0.6-0.7l-1.1-1.1c-2.5-1.4-3.2-5-3.2-5l-0.4-1.9l-0.6-1.9c-0.7-3.5-10-7.3-10-7.3
		c-3.9-1.9-8.9-1.3-8.9-1.3c-0.6,0-2.1,0.3-2.1,0.3l-4.1,0.7l-1.6,0.3L73.9,48.6z"/>
	<path class="st1" d="M106.7,84.7c0.2,0,0.4-0.3,0.4-0.8l0.2-0.9l0.1-1.1l0.1-0.9l0.1-1v-0.8c-0.7-1.6-2.9-2.6-2.9-2.6l-1.2-0.4
		l-0.9-0.5l-0.7-0.6l-0.7-0.4l-0.9-0.3c-0.5,0-0.2-0.3-0.2-0.3s0.3-0.1,0.6-0.1c0.3,0,0.9,0.1,1.1,0.1c0.2,0.1,0.8,0.2,0.8,0.2
		s0.6,0.6,0.9,0.8c1.5,0.8,4.9,3.2,4.9,3.2c0.4,0.2,0.4,1.1,0.4,1.1v0.8l-0.1,0.9l-0.2,0.6l-0.3,1.4l-0.1,0.9c0,0-0.2,0.3-0.3,0.4
		c-0.1,0.1-0.4,0.4-0.4,0.4l-0.5,0.1L106.7,84.7z"/>
	<path class="st1" d="M108.8,77.8l-0.8-1.4c0,0-0.9-1.7-2.5-2.5c-1-0.3-1.2-0.7-1.2-0.7v-1.1c0.2-1.7-1.3-3.1-1.3-3.1
		s-1.8-0.9-1.9-1s-1.8-0.6-2-0.6c-0.1,0-1.3-0.9-1.3-0.9l-0.3-0.7l0.5,0.3l1.6,0.8l3.8,1.9c0.9,0.5,1.3,1,1.3,1
		c0.2,0.3,0.5,1.9,0.5,1.9c0.1,0.6,0.6,0.9,0.6,0.9c0.3,0.3,2.6,2.4,2.6,2.4C109.1,75.6,108.8,77.8,108.8,77.8"/>
	<path class="st2" d="M108.8,77.8l-0.8-1.4c0,0-0.9-1.7-2.5-2.5c-1-0.3-1.2-0.7-1.2-0.7v-1.1c0.2-1.7-1.3-3.1-1.3-3.1
		s-1.8-0.9-1.9-1s-1.8-0.6-2-0.6c-0.1,0-1.3-0.9-1.3-0.9l-0.3-0.7l0.5,0.3l1.6,0.8l3.8,1.9c0.9,0.5,1.3,1,1.3,1
		c0.2,0.3,0.5,1.9,0.5,1.9c0.1,0.6,0.6,0.9,0.6,0.9c0.3,0.3,2.6,2.4,2.6,2.4C109.1,75.6,108.8,77.8,108.8,77.8z"/>
	<path class="st1" d="M80.9,53c-0.3-0.4-0.2-1-0.2-1c0.6-1.1,5.6-0.5,6.1-0.3l2.2,1.2l2.3,1.3c4,2.1,6.9,2.7,6.9,2.7
		c1.4,0.8,1.2,4.2,1.2,4.2l0.1,1.8l0.1,1.1l0.1,0.8c0.1,0.6,0.6,0.9,0.6,0.9l5,2.9c0,0,1.4,0.9,1.5,3.1c0,0.8-0.4,1.3-0.4,1.3
		c0,0.2,0,0.6,0,0.6s0.1,0.1,0.5,0.4c0.4,0.3,0.9,0.5,0.9,0.5l-0.1-0.6l-0.3-0.9l-0.1-2l0.1-1.5c0-0.4-0.2-0.6-0.6-0.8l-0.6-0.3
		l-2.5-1.3l-0.9-0.5l-1.3-0.8l-0.8-0.9l-0.5-1l-0.3-1.1l-0.1-1.1v-0.9l-0.1-1.2l-0.1-1.2c0.2-1.8-3.7-2.8-3.7-2.8l-2.8-1L92,54.1
		l-2-1.4c0-0.1-2-1.3-2-1.3c-2.6-1.4-5.4-1.2-5.4-1.2l-1.2,0.1c-1,0.2-1.6,0.7-1.6,0.7l-0.1,0.5c0,0,0.1,0.5,0.2,0.6
		c0.1,0.2,0.3,0.5,0.3,0.5L80.9,53z"/>
	<path class="st1" d="M80.8,58.8c0.1,0.1,3.4,2.7,3.4,2.7c1.2,1.1,3.1,1.5,3.1,1.5c0.4,0.1,1.5,0,1.5,0c1.1,0.3,1.1,1.7,1.1,1.7
		c0.3,2.1-0.6,2.1-0.6,2.1c-0.3,0.2-0.5,0.3-0.5,0.3s-0.5,0.3-0.1,0.4c0.4,0.1,2.1-0.1,2.1-0.1l-0.6-4c-0.4-1.6-2.6-1.4-2.6-1.4
		c-0.5,0.1-1.2,0-1.2,0c-1.5-0.4-2.4-1.3-2.4-1.3l-3.1-2.4C80,58.1,80.8,58.8,80.8,58.8"/>
	<path class="st1" d="M105.8,83.9l0.1-1l0.4-1.3c0-0.2-0.1-0.5-0.1-0.5c0-0.1-0.9-1.2-0.9-1.2c-0.1-0.2,0-0.9,0-0.9
		c0-0.4-0.2-1.2-0.7-2.4c-0.5-0.9-1.5-1.1-1.5-1.1s-0.5-0.2-0.5-0.1c-0.1,0-0.1,0.1,0,0.3c1.3,1.3,1.5,2.8,1.5,2.8
		c0.1,0.2,0,0.2,0.1,0.3c0.1,0.1,0.2,0.6,0.2,0.6l0.3,0.6l0.7,1.4c0.3,0.4-0.4,1.3-0.4,1.3l0.1,0.9L105.8,83.9z"/>
	<path class="st1" d="M105.7,84.2l-0.1-0.9c0,0-0.1-0.9-0.3-1c-2.2-2-4.8-2-4.8-2l-0.4,0.1l0.2,0.3c5.2,1.1,4.6,2.5,4.6,2.5
		c0.2,0.3,0.1,0.4,0.1,0.4l0.3,0.4L105.7,84.2z"/>
	<path class="st1" d="M98.4,80.1c0,0,1.7-0.2,1.8-0.2c2.6-0.7,4.1-0.2,4.1-0.2c0.3,0,0.6,0.5,0.6,0.5l0.2-0.2v-0.4
		c0-0.6-1.2-0.7-1.2-0.7l-2.8,0.1l-1.2,0.2L98,79.7L98.4,80.1z"/>
	<path class="st1" d="M95.6,64v0.8c0,0-0.1,2.4-0.1,2.2c0,0,0.1,1.3,0.6,1.8c0.3,0.2,1,0.8,1,0.8c0.4,0.3,1,1.4,1,1.4s0.6,1.9,0.5,2
		l-0.2,1l0.3,0.6c0,0,1-0.2,1.2-0.2c0.1,0,0.5-0.1,0.5-0.1l0.1-0.3c0,0-0.3-0.2-0.4-0.1C100,74,99.8,74,99.8,74l-0.2-0.8
		c0-0.4-0.7-1.7-0.7-1.7L98.7,71l-0.4-1.2l-0.8-1.1c-0.6-0.2-0.9-1-0.9-1c-0.2-0.4-0.3-2.8-0.3-2.8C96.1,64.5,95.6,64,95.6,64"/>
	<path class="st1" d="M103,75c0.2,0.1-0.3-0.8-0.3-0.8l0.3-2.1c-0.2-2.3-2.5-3.7-2.5-3.7L99.3,68l-0.7,0.1c-0.7,0.6-1.6,0.3-1.6,0.3
		s-1.7,0.4-2,0.3c-0.3-0.1-0.6-0.5-0.6-0.5s-0.2-0.6-0.3-0.4c-0.1,0.4-1.1,0-1.1,0L91.2,67L91,67.1l-1.4,0.2l-0.1,0.3l0.3,0.1
		c0,0,3,1,3.5,2.7c0,0.2,0.8,0.2,0.9,0.2s1.5-0.5,1.5-0.5s0.5-1.3,1.6-0.6c0.2,0.1,1.6-0.1,1.6-0.1l1.3,0.2c1.5,0.4,1.8,3,1.8,3
		c0.1,0.3-0.3,0.9-0.3,0.9s0.7,1.3,0.8,1.5C102.8,75.4,103,75,103,75"/>
	<path class="st1" d="M80.3,65.2l0.4-0.3l0.4-0.4c0,0,0.4-0.5,0.6-0.5h0.6c0,0,1.1,0.2,1.3,0.3c0.2,0.1,1.1,0.4,1.1,0.4L86,65
		l0.5,0.1l0.8,0.4l0.4,0.6l0.2,0.4L88,67l0.4,0.3l0.8,0.2l-0.4-1.1l-0.6-1.5l-0.4-0.4l-0.5-0.3c-3-0.5-3.2-1.1-3.2-1.1l-0.2-0.3
		l-1.3-1.1L80.9,60c-0.1-0.1-0.9-0.6-0.9-0.6c-0.3,0.1-0.1,0.4-0.1,0.4l1.5,1.2c0,0,1,1.5,1.3,1.7s0.4,0.6,0.4,0.6
		c-0.2,0.3-0.6,0-0.6,0l-0.4-0.5l-2.1-2c-0.8-0.4-0.2,0.4-0.2,0.4c0.1,0.2,1.4,1.7,1.4,1.7l0.1,0.7L81,63.9l-0.4-0.2l-0.3,0.1
		l-0.4,0.8L80.3,65.2z"/>
	<path class="st1" d="M95.9,81.1l-0.2-0.5L95.6,80c0.1-0.5,0.8-0.2,0.8-0.2s0.4-0.1,0.5-0.1s0.1-1.6,0.1-1.6h-0.9l-0.8,0.1
		c0,0-0.5-0.6-0.2-0.6c1.7,0,1.8-2.4,1.8-2.4c-0.1-0.6-0.4-0.3-0.4-0.3c-0.4,1.9-1.8,2.2-1.8,2.2l-0.8,0.1l-0.5-0.1l-0.3-0.3
		c1.9-1,2.2-1.9,2.2-1.9c0.2-0.2,0.2-1.5,0.2-1.5l-0.1-0.6c-0.2-0.2-0.4,0.1-0.4,0.1v0.5c0,0.2,0,0.4-0.1,0.7
		c-1.3,2.6-2.4,1.7-2.4,1.7l-0.3-0.3c2.1-0.3,1.8-4.6,1.8-4.6l-0.1-0.6L93.6,70h-0.3c0.2,0.6,0.3,1.9,0.3,1.9c0.1,0-0.6,2.8-2.3,2.4
		c-0.1,0-0.7-0.1-0.6-0.3c0.1-0.1,0-0.4,0.2-0.4c0.2-0.1,0.6-0.3,0.7-0.3c0.1-0.1,0.7-0.6,0.7-0.6l0.3-0.6l0.1-0.8L92.6,71
		c-0.1-0.1-0.3,0-0.3,0l-0.1,0.3c-0.2,1.8-1.7,2-1.7,2l-0.7,0.3h-0.4l-0.2-0.1c1.5-1.1,1.7-2.3,1.7-2.3l0.1-0.7c0-0.3,0-0.5-0.1-0.4
		c0-0.1-0.3,0-0.3,0l-0.2,0.3l-0.3,1c-0.4,1.1-1.5,1.6-1.5,1.6c-0.6,0-0.3-0.4-0.3-0.4c1.4-1.4,1.3-1.9,1.3-1.9l-0.1-1.1
		c-0.1-0.2-0.3,0-0.3,0L89,70.2c-0.2,1.2-1.1,2.1-1.4,2.1s-0.4,0.1-0.4,0.1l-0.1-0.3l0.4-0.3l0.4-0.4l0.3-0.6
		c0.1-0.4,0.1-0.6,0.1-0.8c0.1-0.3,0.1-0.5,0.1-0.5c-0.1-0.1-0.3-0.1-0.3-0.1c-0.1,0-0.1,0.3-0.1,0.3c-0.2,0.7-0.5,1.1-0.8,1.4
		c0,0-0.5,0-0.3-0.2c0.5-0.4,0.4-1.5,0.4-1.5l-0.1-1.6l0.2-0.4l1-0.3l1.5,0.1l0.4-0.3l-0.6-0.5l-1.3-0.2l-0.6,0.3l-0.5,0.1l-0.7-0.1
		l-0.3-0.1l-1.4-0.9c-0.3-0.1-0.5-0.1-0.6,0c0,0-0.3,0.3,0.1,0.4c0.2,0.1,3.4,1.3,1.8,4.7c0,0.2-0.4,0.4-0.4,0.4
		c-0.1,0.1-1,0.1-1,0.1c-0.1,0-0.7-0.3-0.7-0.3l-0.6-0.6v-0.6l-1.6,0.3l-0.1,0.4l0.1,0.3c0,0,0.5,0.5,0.6,0.5
		c0.2,0.1,0.4,0.7,0.4,0.7v1.1l-0.1,3.5c0,0.3,0.6,1.4,0.6,1.4l0.5-0.1c-0.3-0.6-0.6-1.5-0.5-2.1l0.3-1.9c0,0,0.3-0.8,0.3-0.9
		c0-0.1,0.1-1.1,0.1-1.1s0.1-0.2,0.2-0.2c0.2,0,0.3,0.1,0.3,0.1c0.1,0,0.1,0.2,0.1,0.2l-0.1,1.4c-0.8,3-0.4,4.5-0.4,4.5l0.8-0.1
		c-0.5-0.8-0.5-1.7-0.5-1.7l0.2-1l0.3-1l0.2-1.5l0.1-0.3h0.3l0.1,0.6v1.6l-0.2,1.2c-0.1,1.1,0.2,1.8,0.2,1.8h0.5L86,76.6l-0.1-0.9
		c0,0,0.1-0.8,0.1-0.9s0.3-1.3,0.3-1.3l0.3-0.4c0.5-0.2,0.6,0.4,0.6,0.4l-0.5,2.6c0,0-0.1,1.2-0.1,1.3c0.1,0.2,0.5,0.9,0.5,0.9
		c0.1,0.1,0.3-0.1,0.3-0.1c0,0.1,0.2-2.8,0.2-2.8s0.2-0.4,0.6-0.2c0.7,0,0.9-0.7,0.9-0.7s0.9-0.9,1,0.8c0,0.3-0.5,1-0.5,1
		c-0.5,0.6,0.4,0.3,0.4,0.3l0.7-0.3c0,0,0.5-0.1,0.6-0.1s0.3,0,0.5,0.1c0.3,0.1,0.4,0.4,0.4,0.4l-0.4,0.9c0,0-0.1,0.7,0,0.9
		c0.2,0.5,0.7,0,0.7,0s-0.1-0.5-0.1-0.6c0.1-0.1,0.2-0.4,0.2-0.4c0.2-0.3,0.9-0.3,0.9-0.3c1.3,0.6,1.5,2.7,1.5,2.7
		c0.1,0.3-0.3,0.4-0.3,0.4l0.3,0.5l2,0.7L95.9,81.1z"/>
	<path class="st2" d="M95.9,81.1l-0.2-0.5L95.6,80c0.1-0.5,0.8-0.2,0.8-0.2s0.4-0.1,0.5-0.1s0.1-1.6,0.1-1.6h-0.9l-0.8,0.1
		c0,0-0.5-0.6-0.2-0.6c1.7,0,1.8-2.4,1.8-2.4c-0.1-0.6-0.4-0.3-0.4-0.3c-0.4,1.9-1.8,2.2-1.8,2.2l-0.8,0.1l-0.5-0.1l-0.3-0.3
		c1.9-1,2.2-1.9,2.2-1.9c0.2-0.2,0.2-1.5,0.2-1.5l-0.1-0.6c-0.2-0.2-0.4,0.1-0.4,0.1v0.5c0,0.2,0,0.4-0.1,0.7
		c-1.3,2.6-2.4,1.7-2.4,1.7l-0.3-0.3c2.1-0.3,1.8-4.6,1.8-4.6l-0.1-0.6L93.6,70h-0.3c0.2,0.6,0.3,1.9,0.3,1.9c0.1,0-0.6,2.8-2.3,2.4
		c-0.1,0-0.7-0.1-0.6-0.3c0.1-0.1,0-0.4,0.2-0.4c0.2-0.1,0.6-0.3,0.7-0.3c0.1-0.1,0.7-0.6,0.7-0.6l0.3-0.6l0.1-0.8L92.6,71
		c-0.1-0.1-0.3,0-0.3,0l-0.1,0.3c-0.2,1.8-1.7,2-1.7,2l-0.7,0.3h-0.4l-0.2-0.1c1.5-1.1,1.7-2.3,1.7-2.3l0.1-0.7c0-0.3,0-0.5-0.1-0.4
		c0-0.1-0.3,0-0.3,0l-0.2,0.3l-0.3,1c-0.4,1.1-1.5,1.6-1.5,1.6c-0.6,0-0.3-0.4-0.3-0.4c1.4-1.4,1.3-1.9,1.3-1.9l-0.1-1.1
		c-0.1-0.2-0.3,0-0.3,0L89,70.2c-0.2,1.2-1.1,2.1-1.4,2.1s-0.4,0.1-0.4,0.1l-0.1-0.3l0.4-0.3l0.4-0.4l0.3-0.6
		c0.1-0.4,0.1-0.6,0.1-0.8c0.1-0.3,0.1-0.5,0.1-0.5c-0.1-0.1-0.3-0.1-0.3-0.1c-0.1,0-0.1,0.3-0.1,0.3c-0.2,0.7-0.5,1.1-0.8,1.4
		c0,0-0.5,0-0.3-0.2c0.5-0.4,0.4-1.5,0.4-1.5l-0.1-1.6l0.2-0.4l1-0.3l1.5,0.1l0.4-0.3l-0.6-0.5l-1.3-0.2l-0.6,0.3l-0.5,0.1l-0.7-0.1
		l-0.3-0.1l-1.4-0.9c-0.3-0.1-0.5-0.1-0.6,0c0,0-0.3,0.3,0.1,0.4c0.2,0.1,3.4,1.3,1.8,4.7c0,0.2-0.4,0.4-0.4,0.4
		c-0.1,0.1-1,0.1-1,0.1c-0.1,0-0.7-0.3-0.7-0.3l-0.6-0.6v-0.6l-1.6,0.3l-0.1,0.4l0.1,0.3c0,0,0.5,0.5,0.6,0.5
		c0.2,0.1,0.4,0.7,0.4,0.7v1.1l-0.1,3.5c0,0.3,0.6,1.4,0.6,1.4l0.5-0.1c-0.3-0.6-0.6-1.5-0.5-2.1l0.3-1.9c0,0,0.3-0.8,0.3-0.9
		c0-0.1,0.1-1.1,0.1-1.1s0.1-0.2,0.2-0.2c0.2,0,0.3,0.1,0.3,0.1c0.1,0,0.1,0.2,0.1,0.2l-0.1,1.4c-0.8,3-0.4,4.5-0.4,4.5l0.8-0.1
		c-0.5-0.8-0.5-1.7-0.5-1.7l0.2-1l0.3-1l0.2-1.5l0.1-0.3h0.3l0.1,0.6v1.6l-0.2,1.2c-0.1,1.1,0.2,1.8,0.2,1.8h0.5L86,76.6l-0.1-0.9
		c0,0,0.1-0.8,0.1-0.9s0.3-1.3,0.3-1.3l0.3-0.4c0.5-0.2,0.6,0.4,0.6,0.4l-0.5,2.6c0,0-0.1,1.2-0.1,1.3c0.1,0.2,0.5,0.9,0.5,0.9
		c0.1,0.1,0.3-0.1,0.3-0.1c0,0.1,0.2-2.8,0.2-2.8s0.2-0.4,0.6-0.2c0.7,0,0.9-0.7,0.9-0.7s0.9-0.9,1,0.8c0,0.3-0.5,1-0.5,1
		c-0.5,0.6,0.4,0.3,0.4,0.3l0.7-0.3c0,0,0.5-0.1,0.6-0.1s0.3,0,0.5,0.1c0.3,0.1,0.4,0.4,0.4,0.4l-0.4,0.9c0,0-0.1,0.7,0,0.9
		c0.2,0.5,0.7,0,0.7,0s-0.1-0.5-0.1-0.6c0.1-0.1,0.2-0.4,0.2-0.4c0.2-0.3,0.9-0.3,0.9-0.3c1.3,0.6,1.5,2.7,1.5,2.7
		c0.1,0.3-0.3,0.4-0.3,0.4l0.3,0.5l2,0.7L95.9,81.1z"/>
	<path class="st1" d="M107.3,64.8l0.6,1l0.8,2.7l0.5,6.6l0.1,2.7v2.1c-0.2,1.1-0.6,1.5-0.6,1.5l-0.3-1.3v-2.8l-0.1-3.3
		c0-5.8-1-8-1-8V64.8z"/>
	<path class="st2" d="M107.3,64.8l0.6,1l0.8,2.7l0.5,6.6l0.1,2.7v2.1c-0.2,1.1-0.6,1.5-0.6,1.5l-0.3-1.3v-2.8l-0.1-3.3
		c0-5.8-1-8-1-8V64.8z"/>
	<path class="st1" d="M97.8,66.4l1.1,3.1l0.8,1.8l0.8,1.9c0.2,0.3,0,0.8,0,0.8l0.5,0.4l1.4,0.6c0,0,0.4,0.1,0.3-0.3
		c-0.1-0.3-0.9-1.3-1.3-1.6s-0.4-0.3-0.5-0.5s-0.9-2.9-0.9-2.9l-0.6-2l-0.8-1.1L97.8,66.4z"/>
	<path class="st1" d="M63,122h-1.1l0.2-4.4c0-2.3-0.7-4.2-0.7-4.2l-0.9-2.1l-0.9-1.6l-0.8-1.8c-0.4-0.8-0.5-1.8-0.5-1.8v-0.5
		c0-1.4-1.1-1.3-1.1-1.3l-4.6-0.9l-2.4-0.2c-5.2,0.1-4.4-5.9-4.4-5.9c0.1-0.8,0.7-1.4,0.7-1.4l0.6-1c0.4-0.7-0.4-1.4-0.4-1.4
		l-0.6-0.3c-0.4-0.2-0.2-1.3-0.2-1.3l0.1-0.4l0.2-0.6c0-0.4-0.3-0.7-0.3-0.7c-0.3-0.5,0-1.5,0-1.5l0.1-1.3l-0.1-0.7V86
		c0,0.1,0-0.1,0-0.1h-0.8c-2.6,0.1-2.5-2.5-2.5-2.5c0.1-1,1.3-2.3,1.3-2.3l1.2-2.2l1.5-2.1l1.6-2.2c0.5-0.7,0.4-2.2,0.4-2.2v-1
		c0-1.3,0.4-1.7,0.4-1.7l0.8-1.3c0,0,0.7-1.9,0.8-1.9c0.5-0.9,0.8-4.5,0.6-4.8c0.3,0.1-1.9-1-2-1.5c-0.6-3.4,0.4-5.2,0.4-5.2l2.3-2
		l1.7-2c2.1-3.2,4.1-3.3,4.1-3.3c0.6-1.4,2.4-2.8,2.4-2.8s1.9-1.3,5.3-0.8c1,0,1.3,1,1.3,1s0.4,3,1.9,3.6c1.9,1.2,2.9-0.1,2.9-0.1
		c0.8-0.3,1,0.5,0,0.9c-0.3,0.1-1.1,0.2-1.1,0.2c-2.8,0.6-3.5-1.6-3.5-1.6L66.1,46c-0.3-1.3-1.9-1.2-1.9-1.2L62,44.9
		c-0.5,0-1,0.1-1.4,0.3c-0.6,0.4-1.2,1.5-1.2,1.5L59,47.2l-0.6,0.7l-0.5,0.4l-0.7,0.3c0,0-1.5,0.6-3,2.6c-0.5,0.9-1,1.7-1.7,2.5
		L51,54.8c-1.7,1.3-1.3,3.1-1.3,3.1l0.1,1.6c0,0.5,0.9,0.9,1.9,1.3c0.4,0.2,0.5,0.7,0.5,0.7l0.1,1.3l-0.2,2.4L51.7,67L51,68.8
		L50.4,70c-0.5,0.9-0.3,1.7-0.3,1.7v1.7c0,1.1-1.4,2.2-1.4,2.2l-1.2,1.5L46,79.6l-0.5,0.7c-0.9,0.9-2,2.9-2,2.9
		c0.1,0.6-0.5,1.8,1.6,1.7c0.4,0,1.7-0.1,1.7-0.1c1.1,0.2,1.9,0.6,1.9,0.6c0.5,0.7,1.4,0.5,1.7,0.4c0.4-0.1,0.6-0.2,0.2-1.3
		c-0.1-0.2-0.4-1-0.4-1l0.2-0.2c0,0,1.1,1.5,1.1,2.6c-1.3,0.8-1.9,0.6-1.9,0.6L48.3,86l-1-0.2c-0.9-0.4-0.4-0.2-0.4-0.2
		c0.5,0.7,0.1,2.6,0.1,2.6l-0.1,0.7c0,0-0.1,0.5,0.4,0.5c0.4,0,0.6,0.1,0.7,0.1s0.3,0.2,0.4,0.3c0.6,0.8,0.8,0.6,0.8,0.6
		s0.7,0,0.9,0c0.2,0,0.5,0.8-0.1,0.8c-0.7,0-1.1,0.1-1.1,0.1c-0.2,0-0.8-0.5-0.8-0.5c-1.2-0.5-1.9,2.8-0.3,2.4
		c0.4,0.4,0.7,1.6,0.7,1.6c0,0.6-1.4,2.1-1.4,2.1s-0.3,0.7-0.1,2.3c0.2,1.9,1.9,3.2,5,3.2c1.5,0.1,3.8,0.2,3.9,0.2s2,0.1,2.1,0.1
		c4.5,0.2,10-4.7,10-4.7l4.2-4.4c1.8-1.6,1.6-0.1,1.6-0.1c1,0.4-1.4,2.7-1.4,2.7c0.2-0.1-5.4,3.7-5.4,3.7c-2.2,1.4-2.2,2.3-2.2,2.3
		c-0.2,1.7-0.2,1.7-0.2,1.7s-2.5,1.7-2.9,1.6c-0.3-0.1,2.2-2,2.2-2c0.4-1-0.6-0.6-0.8-0.5c-1.6,1-3.7,1-3.7,1v1.2
		c0.2,2.1,1,3.6,1,3.6l1.1,1.9l0.7,1.5c1,1.8,1.2,4.1,1.2,4.1L63,122z"/>
	<path class="st1" d="M77.1,60.1c-0.2,0.4,0.7,1.1,0.7,1.1c0.1,0.2,1.3,1.6,1.3,1.6s1.1,0.9,0.9,2.7c0.2,1.6-0.4,1.9-0.7,2.7
		c-0.1,1,0.4,2.9,0.4,2.9c0.2,0.6,0.9,4.1,0.9,4.1s0.2,3.5,0.4,3.5c0.2,0.3,1.7,0.3,4.5,0.2c1.9,0.9,1.7,3.1,1.9,3.1
		c0.2,0,0.6-0.2,0.6-0.2l0.3-0.8c0.2-0.3,0.3-0.9,0.3-0.9c-0.7-0.2-1.1-0.6-1.1-0.6c-0.3-0.4-0.2-1.1-0.2-1.1
		c0.1-0.6-1.1-0.5-1.1-0.5C82,78.4,81.8,78,81.8,78c-0.3-0.4-1-6-1-6l-0.7-3c0-0.9,0.7-2.1,0.7-2.1c0.3-1.1,0-2.8,0-2.8
		c-0.4-1.2-1.7-2.5-1.7-2.5c-0.8-0.8-0.7-1.2-0.7-1.2c1.5-3.2,1.8-5.3,1.8-5.3l0.2-1.8c-0.3-2.2-0.9-2.5-0.9-2.5
		c-0.3-0.2-1.3-0.6-1.3-0.6c-1.1-0.4-2.5-0.4-2.9-0.4c-0.5,0-1.6,0.2-1.6,0.2c-0.5,0.1-1.1,0.3-1.1,0.3s-0.7,0.4-0.1,0.4
		c0.2,0,2.1-0.3,2.6-0.2s1.7,0.1,3.5,0.9c1.5,0.5,0.5,4.2,0.5,4.2L77.1,60.1z"/>
	<path class="st1" d="M82.5,99.9l-3.2,4l-4.3,6.5l-2.6,5.2l-3.3,11.8h1.6c1.1-9.5,6.5-18.5,6.5-18.5l4.9-6.5l5.8-7.2l4.8-4.6
		c0,0,5.5-4.1,6-4.6c0.4-0.8,0.9,1.3,0.9,1.3c0.5,1,0.8,1.4,0.8,1.4c0.8,2.6-0.1,2.5-0.1,2.5c-1.8,0.2-2.7,1.6-2.7,1.6
		c-1.3,2-0.6,4.4-0.6,4.4c-2.6-0.3-3.4,1.7-3.4,1.7c-1.6,2.9-0.3,5.8-0.3,5.8s0.4,1.9,0.3,3.3c0,0.2-0.1,2.1,0.7,2.6
		c0.7,0.5,1.3,0.6,1.3,0.6s0.4,0.9,1.1,1c1.3,0.2,2.1-1.5,2.2-1.6s1.5-1.4,1.5-1.4s0.8-0.5,1.9-0.3c0.1,0,1.6-0.1,1.6-0.1
		c1.5-0.1,2-1.6,2-1.6s0.1,3.6,2.6,4.4c-0.2,0.3-0.2,1-0.2,1c-0.5,2,1,3,1,3c3.2,2,6.4,0.1,6.4,0.1c1.9-1.1,2-3.8,2-3.8
		c0.2-2.2,0-3.5,0-3.5c-1.8-2.8,0.1-4.8,0.1-4.8c0.6-0.6,1-1.6,1.2-3.2c0.2-2.6-1.1-3.6-1.1-3.6c-0.9-0.7-0.6-1.6-0.6-1.6l0.3-3.2
		c0-1.6-0.7-2.9-0.7-2.9c-0.2-0.7-1.4-1.3-1.4-1.3c-0.9-0.2-2.2-0.2-2.2-0.2c-2.7,0.2-2.6,0.7-2.9,0.6c-0.2-0.1,0.4-0.7,0.2-1.6
		c-0.8-1.5-0.4-2.4-0.4-2.4l1.4-2c2-3.5,1.6-7.7,1.6-7.7c-0.5-7.4-1.9-11.3-1.9-11.3c-2-6.6-5.1-12.4-5.1-12.4
		c-4-6.4-12.6-7.6-12.6-7.6c-4.2-0.9-11.5-0.5-11.5-0.5c-3.8,0.3-5.9,1.2-5.9,1.2s-3.3,1.3-4.7,3.5c0,0.1-0.5,1.2-0.3,1.2
		c0.4,0.2,0.3,0.5,0.3,0.5c0.1,0.4-0.3,0.8-0.3,0.8l-1,1.6c0,0-0.5,0.9-1.1,2.7L68.4,56c-0.3,1.2-0.6,2.4-0.6,2.4
		c-0.1,0.1-1.4,2.7-1.4,2.7c-0.4,1.9-1.1,2.7-1.1,2.7l-5,7.7c-0.6,1.1-0.6,2.1-0.5,2.5c0.2,0.5,0.3,0.8,0.8,0.8s1.5,0.1,1.9,0.1
		c0.9,0,0.9,0.7,0.9,0.7s0,2.3,0,2.5s0.1,1.4,0.1,1.4s-0.1,0.7,0.9,1.1c0,0,0.2,0.2-0.2,0.8c-0.1,0.2-0.3,1.5-0.3,1.6s0,0.3,0.4,0.5
		c1,0.4,1,1.2,1,1.2c0.2,0.4-0.9,2.3-0.9,2.3c-0.6,1-0.3,3.8-0.3,4c0.4,2.3,3,2.9,3,2.9c2.7,0.1,4.1,0,4.1,0l3.1-0.3
		c0.9-0.1,1,1.5,1,1.5l2.4,10.7c0.8-1.2,0.8-1.2,0.8-1.2l-0.5-2.4L76.6,96c-0.5-2.9-0.5-2.1-0.5-2.4s1.1-0.4,1.1-0.4
		c7.2-1.2,7.9-3.5,8.3-4c1.2-2,3.1-8,3.1-8s0.6-0.8,1.2-0.9c0.7-0.2,1.4,0.2,1.4,0.2c0.3,0.2,1.1,1.1,1.1,1.1
		c0.5,0.4,1.6,0.7,1.6,0.7c0.5,0.1,2.1,0.8,2.3,0.9c0.2,0,0.7,0.5,0.8,0.6c0.1,0.1,1.8,0.5,1.8,0.5c-0.3-0.7-0.2-0.8-1.5-1.8
		c-0.2-0.2-3.7-1.3-3.7-1.3c-0.9-0.5-1.4-1-1.6-1.2c-1.2-1-1.9-1.2-1.9-1.2c-1.2-0.2-2.8,1.8-2.8,1.8l-0.5,1.1
		c0.1,1.3-2.2,6.4-2.2,6.4c-0.4,0.7-0.5,1.9-2.3,2.2c-1.5,0.6-2.5,0.8-4.3,1.2c-3.1,0.7-5.2,0.7-5.2,0.7l-3.7,0.1
		c-6.4,0.2-4-4.9-4-4.9l0.6-1.4c0.2-0.4,0.4-0.2,0.8-0.2c1,0,0.2-0.8,0.2-0.8c-0.4-0.4-0.9-1.3-0.1-2c0-0.2-0.4-0.1-0.4-0.1
		C65.4,83.4,65,83,65,83c-0.5-0.8,0.2-1.2,0.2-1.2s0.4-0.5,1.9,0c0.4,0.1,1.2,0,1.2,0c0.6-0.1,0.6-0.6,0.6-0.6
		c-0.8-0.6-0.6-0.5-1-0.7c-0.2-0.1-0.4,1.1-1.7,0.2c-0.7-0.7-0.8-0.6-0.9-0.6c-0.8,0-0.9,0.2-1.1-0.6l-0.1-3.1v-0.9l1.4,0.2
		c0.8,0.3,1.3,0.2,1.3,0.2c-0.3,0.1,1.4-0.2,0.8-1.6c-0.4,0.9-2.2,0.4-2.2,0.4c-1.3-1-3.1-0.5-3.1-0.5C60,74.5,61,72.8,61,72.8
		l2.2-3.5c0,0,2.4-3.4,3.7-5.6c0.3-2.4,0.7-3.3,0.7-3.3c1-1.1,1.2-2,1.2-2.1c1.3-4.3,1.5-5.2,1.5-5.2c0.2-0.7,1.1-2.1,2.1-2.3
		c-0.9-0.9-0.6-2.7,0-3.2c0.5-0.6,1.8-1.5,1.8-1.5c0.3-0.2,3.9-1.9,7.9-2.1c3.9-0.1,7.2,0.1,9.9,0.4c2.4,0.3,9,3.1,9,3.1
		c2,1,3.5,3.3,3.5,3.3c1.2,1.3,3.9,7.5,3.9,7.5s1.9,6.6,2,6.6s1.4,4.5,1.7,11.9c-0.3,5-2.7,6.3-2.7,6.4c-0.4,0.7-0.4,1.2-0.4,1.2
		c0,0.8,0.1,1.3,0.1,1.3c0.6,1.3,0.5,1.9,0.5,1.9c0.1,0.2-0.5,1.2-0.5,1.2s-0.2,0.8,1.4,0.6c0.3-0.1,1.4-0.3,1.4-0.3
		c2.4-0.3,4.1-0.1,4.6,2.7c0,0-0.7,2.5-0.4,4.7c2.1,2.4,1.8,4.5,1.8,4.6s0,0.3-0.8,1.3c-0.1,0.1-1.3,2.2-1.3,2.2
		c-0.5,2.3,0.2,3.7,0.2,3.7c0.8,1.3,0.4,4,0.4,4c-0.9,4.9-9.8,4.1-7.3-0.9c-2.1-1.4-2.2-2.7-2.2-2.7l-1.1-3.1l-1.8,1.8
		c-0.7,0.9-2.4,0.9-2.4,0.9l-2.4-0.2c0,0,0.2,1.2-1,1.9c-1.7,2.2-2.5,0.8-2.5,0.8c-1.9-1.2-1.6-5.7-1.6-5.7c-1.6-2-0.1-4.5-0.1-4.5
		c0.5-2.8,3.5-2.7,3.5-2.7s0-1.2,0-1.8c0-1,0.7-2.4,0.7-2.4c1-1.1,1.9-1.3,1.9-1.3c1.7-0.1,1.3-1.7,1.3-1.7l-0.4-1.9l-0.8-2.8
		c-0.2-0.5-1.1-1.7-1.1-1.7l-1,0.6l-5.5,4.2C88.2,92.6,82.5,99.9,82.5,99.9"/>
	<path class="st1" d="M64.3,56c-0.6,0.3-0.9,0.4-0.9,0.4l-2.9,0.7l-0.1,0.2c0,0,0.6,1.7,2.8,0.2c0.1,0,1.2-0.9,2.1-1.6h3.4
		c-0.2,0.6-0.5,1.3-0.5,1.3c0.5-0.4-2,1.3-2,1.3l-1.1,0.7c-1.8,1.4-3.7,1-3.7,1c-0.9,0-1.5-0.5-1.5-0.5l-0.3-0.2
		c1.6,0.3,2.9,0.4,3.8-0.1c0.1,0,2.6-1.1,4-3c0-0.7-1.4-0.2-1.4-0.2l-0.9,0.5c-0.7,0.2-2.9,2.2-2.9,2.2c-0.4,0.3-0.9,0.1-0.9,0.1
		c-0.8-1-2.1-1.2-2.1-1.2l-0.9,0.1c-0.9,0.3-0.7-0.2-0.7-0.2s0.5-0.7,3.4-1.2c0.7-0.1,1.2-0.2,1.7-0.3L64.3,56z M58.7,56
		c-0.6,1.2-1.2,0.5-1.6,0H58.7z M52.9,56l-0.1,0.1c-1,0.7-1.6,2-1.6,2L51,59.7c0.3,0.6,1,0.1,1,0.1s0.1-1,0.6-1.5
		c0.3-0.5,1-1.1,2.5-1.5c0.7-0.1,1-0.3,1-0.2c0.8,0.1,0.3,0.7,0.3,0.7c-0.1,0.1-1.6,0.4-1.6,0.4c-1.7,0.3-2,2-2,2
		c-0.1,1.5-0.8,2.6-0.8,2.6c-0.3-1.5-1.2-2-1.2-2c-0.2-0.5-0.3-1.1-0.3-1.1c0-1.4,0.5-2.5,0.9-3.2L52.9,56L52.9,56z"/>
	<path class="st1" d="M53.5,52.7c1.1,0,1.6-0.1,1.6-0.1c0.8-0.1,2,0.2,2,0.2c0.4,0.1,1.1,0.1,1.1,0.1c0.8-0.2,0.3-0.8,0.3-0.8
		c-1-0.7-2.7-0.6-2.7-0.6c-2-0.1-2.6,1-2.6,1C53.1,52.5,53.1,52.7,53.5,52.7 M65.3,56c0.6-0.5,1.2-0.9,1.2-0.9
		c0.8-0.4,2.6-0.1,2.6-0.1s-0.1,0.5-0.3,1H65.3z M63.3,49.8c-0.5,0.1-0.9,0.3-1,0.4c-0.1,0-1.7,0.9-2.3,1.7c0,0-1.6,1.8-1.7,2.7
		c0,0,0,0.3,0.2,0.4h0.2c0.2-0.2,1.1-2.1,1.7-2.6c0,0,2.3-2,4-1.2l1.3,0.9c0,0,0.4,0.2,0.6,0.2c0,0,0.8,0,1.5-0.2
		c0,0,0.9-0.1,0.1-0.5l-0.4-0.2l-0.4-0.1c-0.4-0.1-0.9-0.5-1.6-1.3c0,0-0.4-0.3-0.8-0.4h1.8c0.6,0.6,1.2,1,1.2,1c0.1,0,1,0.3,2.2-1
		h1.6c0,0.1-0.1,0.1-0.1,0.2l-1.3,0.7c0,0-1,0.6-1.1,1.2c0.1,0.8,1.2,0,1.2,0c0.4,1-0.5,1.5-0.5,1.5c-0.4-0.2-1.8,0-1.8,0
		c-1.1,0.3-2,1.3-2,1.3c-0.6,0.7-1.1,1.1-1.6,1.4h-1.4c1.4-0.3,1.3-0.6,1.4-0.9c0,0,0.1-0.3-0.3-0.2c-0.1,0-1.5,0.3-1.6,0.3
		s-0.3,0-0.3,0s1-0.7,3.5-0.8c0.4-0.7,0.4-0.6-0.1-0.9c0,0-1-0.3-1.5-0.1c-1,0.2-1.8,1-1.8,1l-1.1,0.9L60,55.9l0.2-0.5
		c0.7-1,2.6-2.1,2.6-2.1l1.1-0.4c0.7-0.8-1-0.6-1-0.6c-2,0-3.4,2.2-3.4,2.2s-0.6,1.4-0.7,1.5c0,0,0,0,0,0.1h-1.6
		c-0.1-0.2-0.2-0.4-0.2-0.4l-0.4-0.3c-0.1,0-0.5-0.1-0.5-0.1c-1.9-0.1-2.7,0.5-3.1,0.8h-1.5c0.2-0.4,0.4-0.6,0.4-0.6
		c0.7-0.5,1.1-0.9,1.7-1.1c0,0,1-0.4,3.6-0.2c0.5-0.4,0-0.7,0-0.7s-1.4-0.4-4.2-0.1c-0.5,0.1-0.7-0.3-0.7-0.3c0-0.1,1.2-1.7,1.2-1.7
		c0.1,0,2.7-0.7,5.3-0.1c1.4,0.3,0.8-0.9,0.7-0.9c-0.1-0.2-0.8-0.4-1.4-0.5L63.3,49.8z"/>
	<path class="st1" d="M59.3,47c0.1,0,0.5,0,0.5,0c2.1,0.2,2.2,1.4,2.2,1.4c0.1,0.3,1,1.3,1-0.5c-0.5-1.8-2.5-1.8-2.5-1.8
		c-0.8,0-1.2,0.4-1.2,0.4S59.1,46.9,59.3,47 M69.9,49.8c0.1-0.1,0.2-0.2,0.3-0.3c0.3-0.4,0.4-0.5,0.4-0.5c0.7-0.1,1.6-0.1,0.9,0.8
		H69.9z M58.1,49.8c-0.6-0.1-1.1-0.2-1.1-0.2c-0.1,0,1.3-0.6,3.9,0.2c0.5,0.2,0.5-0.5,0.5-0.5c-0.1-0.5-1.3-1.1-1.3-1.1
		C58.6,47.8,57,48,57,48l2-2.4l0.5-0.1c0.1,0,1.1-0.2,1.9,0s1.8,2,1.8,2l0.5,0.7c1,1.5,0.7,0,0.7,0s-0.1-0.4-0.1-0.5
		c-0.4-1.4-1-2.1-1.4-2.7c-0.3-0.4-1.5-0.5-1.5-0.5c-2.4,0.3,1.2-0.8,2.2-0.3c0.1,0,0.5,0.8,0.5,0.8l1.5,3.9
		c0.2,0.3,0.4,0.6,0.6,0.9h-1.8h-0.1c-0.4-0.1-0.9-0.1-1.3,0L58.1,49.8z"/>
	<path class="st1" d="M51,76.5c0.5,0,0.8,0,1.3-0.1c0-0.2,0.1-1.7,0.1-1.7v-0.8l0.1-0.6l0.4-0.4c0,0,0.3-0.3,0.5-0.3
		c0.3,0,0.8,0.1,0.8,0.1l0.9,0.1l0.6,0.3l1.2,0.5l0.8,1.1l0.2,0.4l0.5,0.2c0.1,0,0.6,0.2,0.6,0.2c-0.1-0.1-1.3-2.1-1.5-2.3
		c0,0-0.3-0.3-0.5-0.2c-0.5-0.2-0.8-0.2-0.8-0.2l-1-0.4L54.5,72l-0.7-0.1h-0.7h-0.7L51.6,72l-0.2,0.3l0.3,0.7l0.1,0.5v1.4l-0.2,0.8
		L51,76.5z"/>
	<path class="st2" d="M51,76.5c0.5,0,0.8,0,1.3-0.1c0-0.2,0.1-1.7,0.1-1.7v-0.8l0.1-0.6l0.4-0.4c0,0,0.3-0.3,0.5-0.3
		c0.3,0,0.8,0.1,0.8,0.1l0.9,0.1l0.6,0.3l1.2,0.5l0.8,1.1l0.2,0.4l0.5,0.2c0.1,0,0.6,0.2,0.6,0.2c-0.1-0.1-1.3-2.1-1.5-2.3
		c0,0-0.3-0.3-0.5-0.2c-0.5-0.2-0.8-0.2-0.8-0.2l-1-0.4L54.5,72l-0.7-0.1h-0.7h-0.7L51.6,72l-0.2,0.3l0.3,0.7l0.1,0.5v1.4l-0.2,0.8
		L51,76.5z"/>
	<path class="st1" d="M53.8,77.5h0.5h0.3h0.6c0.1,0,0.5-0.2,0.6-0.2l0.9-0.5l0.2-0.2l-0.1-0.3l-0.2-0.5c0,0-0.3-0.2-0.4-0.2
		s-0.3-0.2-0.3-0.2l-0.3-0.2l-0.4-0.3l-0.3-0.3l-0.2-0.2l-0.4-0.1h-0.1h-0.1h-0.2l-0.2,0.1v0.2l0.1,0.1l0.2,0.1l0.2,0.1l0.3,0.1
		l0.3,0.2l0.3,0.1l0.3,0.2l0.2,0.3l0.1,0.3l-0.4,0.2H55l-0.2-0.2L54.7,76l-0.2-0.2l-0.2-0.1h-0.1h-0.3l-0.2,0.1V76v0.2v0.4
		c0,0,0.2,0,0.3,0h0.3l0.3-0.1c0,0,0.1-0.1,0.2-0.1c0,0,0.2-0.1,0.3-0.1c0.1,0,0.3,0,0.3,0l0.3,0.2v0.3L55.4,77h-0.5l-0.3,0.1h-0.3
		h-0.5l-0.2,0.1L53.8,77.5z"/>
	<path class="st2" d="M53.8,77.5h0.5h0.3h0.6c0.1,0,0.5-0.2,0.6-0.2l0.9-0.5l0.2-0.2l-0.1-0.3l-0.2-0.5c0,0-0.3-0.2-0.4-0.2
		s-0.3-0.2-0.3-0.2l-0.3-0.2l-0.4-0.3l-0.3-0.3l-0.2-0.2l-0.4-0.1h-0.1h-0.1h-0.2l-0.2,0.1v0.2l0.1,0.1l0.2,0.1l0.2,0.1l0.3,0.1
		l0.3,0.2l0.3,0.1l0.3,0.2l0.2,0.3l0.1,0.3l-0.4,0.2H55l-0.2-0.2L54.7,76l-0.2-0.2l-0.2-0.1h-0.1h-0.3l-0.2,0.1V76v0.2v0.4
		c0,0,0.2,0,0.3,0h0.3l0.3-0.1c0,0,0.1-0.1,0.2-0.1c0,0,0.2-0.1,0.3-0.1c0.1,0,0.3,0,0.3,0l0.3,0.2v0.3L55.4,77h-0.5l-0.3,0.1h-0.3
		h-0.5l-0.2,0.1L53.8,77.5z"/>
	<path class="st1" d="M54,78.3v0.3l0.1,0.2l0.2,0.2l0.2,0.1h0.3l0.3-0.1l0.2-0.2l0.1-0.1v-0.2c0,0,0.1-0.1-0.1-0.1
		c-0.3,0-0.4,0-0.4,0h-0.3l-0.1-0.1h-0.2L54,78.3L54,78.3z"/>
	<path class="st2" d="M54,78.3v0.3l0.1,0.2l0.2,0.2l0.2,0.1h0.3l0.3-0.1l0.2-0.2l0.1-0.1v-0.2c0,0,0.1-0.1-0.1-0.1
		c-0.3,0-0.4,0-0.4,0h-0.3l-0.1-0.1h-0.2L54,78.3L54,78.3z"/>
	<path class="st1" d="M97.1,83.3l-0.6,0.4L96,84.1l-0.8,0.5l-1,0.7l-0.9,0.8l-1,0.9l-1.1,0.9l-1,0.7l-0.9,0.8L88.7,90
		c-0.3,0.1-0.6,0.1-0.6,0.1c-0.1,0-0.1-0.2-0.1-0.2c0.2-0.2,0.4-0.3,0.4-0.3l0.6-0.5l0.8-0.5l0.8-0.6l0.9-0.7l0.7-0.6L93,86l0.7-0.6
		l0.9-0.8l1.2-1.2l0.4-0.6l0.4-0.3H97l0.3,0.2L97.1,83.3z"/>
	<path class="st2" d="M97.1,83.3l-0.6,0.4L96,84.1l-0.8,0.5l-1,0.7l-0.9,0.8l-1,0.9l-1.1,0.9l-1,0.7l-0.9,0.8L88.7,90
		c-0.3,0.1-0.6,0.1-0.6,0.1c-0.1,0-0.1-0.2-0.1-0.2c0.2-0.2,0.4-0.3,0.4-0.3l0.6-0.5l0.8-0.5l0.8-0.6l0.9-0.7l0.7-0.6L93,86l0.7-0.6
		l0.9-0.8l1.2-1.2l0.4-0.6l0.4-0.3H97l0.3,0.2L97.1,83.3z"/>
	<path class="st1" d="M91.5,88.7c0.1,0.1,0.1,0.2,0.1,0.2l-0.4,0.5l-2.6,2L88,91.9l-0.7,0.6L86.7,93l-0.4,0.3
		c-0.1,0.1-0.2,0.1-0.3,0c0-0.2,0.3-0.4,0.3-0.4c0.1-0.1,0.9-0.7,0.9-0.7l0.8-0.7l0.8-0.6l1.1-0.8l0.6-0.4l0.4-0.4l0.2-0.2
		C91.4,88.6,91.5,88.7,91.5,88.7"/>
	<path class="st2" d="M91.5,88.7c0.1,0.1,0.1,0.2,0.1,0.2l-0.4,0.5l-2.6,2L88,91.9l-0.7,0.6L86.7,93l-0.4,0.3
		c-0.1,0.1-0.2,0.1-0.3,0c0-0.2,0.3-0.4,0.3-0.4c0.1-0.1,0.9-0.7,0.9-0.7l0.8-0.7l0.8-0.6l1.1-0.8l0.6-0.4l0.4-0.4l0.2-0.2
		C91.4,88.6,91.5,88.7,91.5,88.7z"/>
</g>
<polygon class="st1" points="95.1,82.2 95,82.4 94.8,82.6 94.3,83 93.8,83.5 93.2,84 92.8,84.3 92.3,84.8 91.7,85.3 91.3,85.8 
	90.9,86 90.6,86.3 90.2,86.7 90,86.9 89.7,87 89.5,86.9 89.4,86.7 89.6,86.5 90.1,86.1 90.6,85.8 91.1,85.3 91.7,84.7 92.2,84.1 
	92.8,83.6 93.4,83 93.9,82.5 94.4,81.9 94.5,81.9 94.8,81.9 94.9,81.9 "/>
<polygon class="st2" points="95.1,82.2 95,82.4 94.8,82.6 94.3,83 93.8,83.5 93.2,84 92.8,84.3 92.3,84.8 91.7,85.3 91.3,85.8 
	90.9,86 90.6,86.3 90.2,86.7 90,86.9 89.7,87 89.5,86.9 89.4,86.7 89.6,86.5 90.1,86.1 90.6,85.8 91.1,85.3 91.7,84.7 92.2,84.1 
	92.8,83.6 93.4,83 93.9,82.5 94.4,81.9 94.5,81.9 94.8,81.9 94.9,81.9 "/>
<g>
	<path class="st1" d="M93.7,81.6l-0.3,0.2l-0.2,0.3l-0.3,0.3l-0.2,0.2L92.3,83l-0.2,0.2l-0.2,0.3l-0.3,0.3L91.4,84l-0.1,0.1
		l-0.2,0.1c-0.2,0.2-0.4,0-0.4,0c0-0.2,0.2-0.4,0.2-0.4l0.2-0.3l0.2-0.3l0.2-0.2l0.3-0.4l0.3-0.4l0.2-0.3l0.2-0.2l0.2-0.2v-0.2
		l-0.1-0.2l0.2-0.1H93h0.1h0.2L93.7,81.6z"/>
	<path class="st2" d="M93.7,81.6l-0.3,0.2l-0.2,0.3l-0.3,0.3l-0.2,0.2L92.3,83l-0.2,0.2l-0.2,0.3l-0.3,0.3L91.4,84l-0.1,0.1
		l-0.2,0.1c-0.2,0.2-0.4,0-0.4,0c0-0.2,0.2-0.4,0.2-0.4l0.2-0.3l0.2-0.3l0.2-0.2l0.3-0.4l0.3-0.4l0.2-0.3l0.2-0.2l0.2-0.2v-0.2
		l-0.1-0.2l0.2-0.1H93h0.1h0.2L93.7,81.6z"/>
	<path class="st1" d="M87.7,80.9l-0.5,0.2l-0.7,1.2l-1.4,2.5L82.8,88C82,89.4,81,89.8,81,89.8c-0.5,0.1-2,0.5-2,0.5l1.5-1.1
		c0.9-0.5,2.2-2,2.2-2l1.1-1.3l0.8-1.2l0.6-1l0.8-1.2c0.2-0.1,0.7-2.4,0.7-2.4l0.3,0.1l0.3,0.2l0.2,0.3L87.7,80.9z"/>
	<path class="st2" d="M87.7,80.9l-0.5,0.2l-0.7,1.2l-1.4,2.5L82.8,88C82,89.4,81,89.8,81,89.8c-0.5,0.1-2,0.5-2,0.5l1.5-1.1
		c0.9-0.5,2.2-2,2.2-2l1.1-1.3l0.8-1.2l0.6-1l0.8-1.2c0.2-0.1,0.7-2.4,0.7-2.4l0.3,0.1l0.3,0.2l0.2,0.3L87.7,80.9z"/>
</g>
<polygon class="st1" points="86.6,79.7 86.4,80.1 85.7,81 85.2,81.7 84.5,82.7 83.9,83.5 83.4,84.2 82.8,84.9 82,85.7 81.3,86.5 
	80.7,87.2 80,87.8 79.4,88.5 78.8,89 77.4,90.5 76.5,90.6 77.6,89.5 78.2,88.9 79.2,88.1 79.8,87.5 80.5,86.9 80.9,86.5 81.2,86.1 
	81.8,85.5 82.3,84.9 82.8,84.2 83.6,83.2 84.1,82.6 85,81.2 85.9,79.7 86.2,79.1 86.7,79.4 "/>
<polygon class="st2" points="86.6,79.7 86.4,80.1 85.7,81 85.2,81.7 84.5,82.7 83.9,83.5 83.4,84.2 82.8,84.9 82,85.7 81.3,86.5 
	80.7,87.2 80,87.8 79.4,88.5 78.8,89 77.4,90.5 76.5,90.6 77.6,89.5 78.2,88.9 79.2,88.1 79.8,87.5 80.5,86.9 80.9,86.5 81.2,86.1 
	81.8,85.5 82.3,84.9 82.8,84.2 83.6,83.2 84.1,82.6 85,81.2 85.9,79.7 86.2,79.1 86.7,79.4 "/>
<g>
	<path class="st1" d="M85.6,78.5L85.3,79L85,79.5l-0.7,0.9l-0.9,1.1L82,83.2l-0.9,1l-0.6,0.7l-1.3,1.4l-0.5,0.6l-1.2,1.2l-0.6,0.6
		l-1,0.9c-1.5,1.2-2,1.3-2,1.3C73.3,91,72.8,91,72.8,91l0.6-0.4l0.5-0.2l0.5-0.3l0.6-0.4l0.7-0.6l0.6-0.5l1.3-1.3l0.9-0.8l0.7-0.8
		l1-1.2l1-1.2l0.8-1l1.4-1.8l1.4-2c0,0,0.1-0.2,0.2-0.3C85.7,77.8,85.6,78.5,85.6,78.5"/>
	<path class="st2" d="M85.6,78.5L85.3,79L85,79.5l-0.7,0.9l-0.9,1.1L82,83.2l-0.9,1l-0.6,0.7l-1.3,1.4l-0.5,0.6l-1.2,1.2l-0.6,0.6
		l-1,0.9c-1.5,1.2-2,1.3-2,1.3C73.3,91,72.8,91,72.8,91l0.6-0.4l0.5-0.2l0.5-0.3l0.6-0.4l0.7-0.6l0.6-0.5l1.3-1.3l0.9-0.8l0.7-0.8
		l1-1.2l1-1.2l0.8-1l1.4-1.8l1.4-2c0,0,0.1-0.2,0.2-0.3C85.7,77.8,85.6,78.5,85.6,78.5z"/>
	<path class="st1" d="M74.1,88.4l-0.5,0.3L73,89.1l-0.7,0.4l-0.5,0.3L71.3,90l-0.6,0.2l-0.9,0.2l-1.2,0.1l-0.9,0.1
		c0,0-1.2,0.3,0,0.5c0.1,0,0.7,0,0.7,0l0.9-0.1c0.9,0,2-0.5,2-0.5l1.2-0.5l2-1.3l1.5-1.4C76.5,86.6,74.1,88.4,74.1,88.4"/>
	<path class="st2" d="M74.1,88.4l-0.5,0.3L73,89.1l-0.7,0.4l-0.5,0.3L71.3,90l-0.6,0.2l-0.9,0.2l-1.2,0.1l-0.9,0.1
		c0,0-1.2,0.3,0,0.5c0.1,0,0.7,0,0.7,0l0.9-0.1c0.9,0,2-0.5,2-0.5l1.2-0.5l2-1.3l1.5-1.4C76.5,86.6,74.1,88.4,74.1,88.4z"/>
	<path class="st1" d="M61.9,100.6c-2.4,0.5-2.9,0.4-2.9,0.4l-7.4,0.3c-1.2,0-1.8-0.3-1.8-0.3l1.8-0.2c2.3,0.1,9.5-0.9,9.5-0.9l3-0.4
		L61.9,100.6z"/>
	<path class="st2" d="M61.9,100.6c-2.4,0.5-2.9,0.4-2.9,0.4l-7.4,0.3c-1.2,0-1.8-0.3-1.8-0.3l1.8-0.2c2.3,0.1,9.5-0.9,9.5-0.9l3-0.4
		L61.9,100.6z"/>
	<path class="st1" d="M64.8,98.2l-3.2,0.7l-4.2,0.5c0,0-2.2,0.1-2.3,0.1c-0.2,0.1-0.6-0.1-0.6-0.1c0-0.2,0.1-0.2,0.1-0.2
		s0.3-0.1,0.4-0.1s2.4-0.2,2.4-0.2l4.9-0.7l3.3-0.8l1.4-0.3L64.8,98.2z"/>
	<path class="st2" d="M64.8,98.2l-3.2,0.7l-4.2,0.5c0,0-2.2,0.1-2.3,0.1c-0.2,0.1-0.6-0.1-0.6-0.1c0-0.2,0.1-0.2,0.1-0.2
		s0.3-0.1,0.4-0.1s2.4-0.2,2.4-0.2l4.9-0.7l3.3-0.8l1.4-0.3L64.8,98.2z"/>
	<path class="st1" d="M70.4,95.7l-3.1,0.6l-3.1,0.6l-4.1,0.6c-0.8,0.1-1.7,0-1.7,0c-0.3,0.1-0.2-0.1-0.2-0.1c0-0.2,0.3-0.3,0.4-0.3
		s0.6-0.1,0.6-0.1c0.6,0,3.2-0.4,3.2-0.4l3.1-0.6c0,0,2.4-0.6,2.6-0.6c0.3-0.1,2.6-0.6,2.6-0.6L70.4,95.7z"/>
	<path class="st2" d="M70.4,95.7l-3.1,0.6l-3.1,0.6l-4.1,0.6c-0.8,0.1-1.7,0-1.7,0c-0.3,0.1-0.2-0.1-0.2-0.1c0-0.2,0.3-0.3,0.4-0.3
		s0.6-0.1,0.6-0.1c0.6,0,3.2-0.4,3.2-0.4l3.1-0.6c0,0,2.4-0.6,2.6-0.6c0.3-0.1,2.6-0.6,2.6-0.6L70.4,95.7z"/>
</g>
<polygon class="st1" points="64.8,83.2 64.5,83.1 64,83.1 63.7,83.2 63.3,83.4 62.9,83.7 62.4,84 61.7,84.4 61.3,84.6 61.1,84.7 
	60.7,84.8 60.7,84.7 60.8,84.6 61.1,84.4 61.4,84.2 62.1,83.6 62.7,83.2 63.2,82.9 63.6,82.7 64,82.5 64.3,82.2 64.7,82.3 
	64.9,82.8 "/>
<polygon class="st2" points="64.8,83.2 64.5,83.1 64,83.1 63.7,83.2 63.3,83.4 62.9,83.7 62.4,84 61.7,84.4 61.3,84.6 61.1,84.7 
	60.7,84.8 60.7,84.7 60.8,84.6 61.1,84.4 61.4,84.2 62.1,83.6 62.7,83.2 63.2,82.9 63.6,82.7 64,82.5 64.3,82.2 64.7,82.3 
	64.9,82.8 "/>
<g>
	<path class="st1" d="M64.6,81.4c-0.1,0-0.5-0.1-0.5-0.1l-0.3,0.2l-0.5,0.4L63,82.1l-0.6,0.3L62,82.6l-0.3,0.3L61.4,83L61,83.1
		l-0.3,0.1c-0.1,0.1-0.2,0-0.2,0s0-0.1,0.1-0.2s0.4-0.2,0.5-0.2c0.1-0.1,0.8-0.7,0.8-0.7l1-0.7l0.8-0.5l0.6-0.3
		c0.1,0,0.2-0.4,0.2-0.4l0.3-0.1l0.5,0.4c0,0-0.1,0.3-0.1,0.4S65,81.3,65,81.3S64.6,81.5,64.6,81.4"/>
	<path class="st2" d="M64.6,81.4c-0.1,0-0.5-0.1-0.5-0.1l-0.3,0.2l-0.5,0.4L63,82.1l-0.6,0.3L62,82.6l-0.3,0.3L61.4,83L61,83.1
		l-0.3,0.1c-0.1,0.1-0.2,0-0.2,0s0-0.1,0.1-0.2s0.4-0.2,0.5-0.2c0.1-0.1,0.8-0.7,0.8-0.7l1-0.7l0.8-0.5l0.6-0.3
		c0.1,0,0.2-0.4,0.2-0.4l0.3-0.1l0.5,0.4c0,0-0.1,0.3-0.1,0.4S65,81.3,65,81.3S64.6,81.5,64.6,81.4z"/>
	<path class="st1" d="M63.8,78.5l-0.4,0.2l-0.5,0.2l-0.7,0.4l-0.5,0.4L61.2,80c0,0,0,0-0.2,0.1c-0.3,0.1-0.5,0.2-0.5,0.2
		c-0.1,0-0.2-0.2-0.1-0.3c0.1-0.1,0.4-0.3,0.4-0.3l0.5-0.2l0.6-0.5l0.5-0.4l0.5-0.3l0.4-0.3l0.3-0.2l0.3-0.1l0.2-0.3v-0.5h-0.3
		L63.5,77l-0.6,0.4l-0.8,0.5l-0.4,0.3l-0.3,0.3c0,0-0.3,0.2-0.4,0.2s-0.3,0-0.4,0c-0.2,0-0.2-0.2-0.2-0.2c0.1-0.2,0.4-0.3,0.4-0.3
		l1.1-0.6l0.5-0.4l0.4-0.3l0.4-0.3l0.4-0.1l0.3-0.1h0.2l0.3,0.6v0.6L63.8,78.5z"/>
	<path class="st2" d="M63.8,78.5l-0.4,0.2l-0.5,0.2l-0.7,0.4l-0.5,0.4L61.2,80c0,0,0,0-0.2,0.1c-0.3,0.1-0.5,0.2-0.5,0.2
		c-0.1,0-0.2-0.2-0.1-0.3c0.1-0.1,0.4-0.3,0.4-0.3l0.5-0.2l0.6-0.5l0.5-0.4l0.5-0.3l0.4-0.3l0.3-0.2l0.3-0.1l0.2-0.3v-0.5h-0.3
		L63.5,77l-0.6,0.4l-0.8,0.5l-0.4,0.3l-0.3,0.3c0,0-0.3,0.2-0.4,0.2s-0.3,0-0.4,0c-0.2,0-0.2-0.2-0.2-0.2c0.1-0.2,0.4-0.3,0.4-0.3
		l1.1-0.6l0.5-0.4l0.4-0.3l0.4-0.3l0.4-0.1l0.3-0.1h0.2l0.3,0.6v0.6L63.8,78.5z"/>
	<path class="st1" d="M63.8,75.3l-0.6,0.4L62.6,76L62,76.3l-0.4,0.3l-0.5,0.3l-0.4,0.2l-0.3,0.1L60,77.3c0,0-0.1,0-0.1-0.1
		s0.1-0.3,0.1-0.3s0.4-0.2,0.5-0.2c0-0.1,0.5-0.3,0.5-0.3c0-0.1,0.4-0.4,0.4-0.4s0.3-0.1,0.4-0.2c0.2-0.1,0.5-0.4,0.5-0.4
		s0.4-0.2,0.5-0.3c0-0.1,0.1-0.1,0.2-0.2c0.1-0.1,0.3-0.2,0.3-0.2s0.2-0.1,0.3,0c0.1,0.1,0.2,0.2,0.2,0.2V75.3z"/>
	<path class="st2" d="M63.8,75.3l-0.6,0.4L62.6,76L62,76.3l-0.4,0.3l-0.5,0.3l-0.4,0.2l-0.3,0.1L60,77.3c0,0-0.1,0-0.1-0.1
		s0.1-0.3,0.1-0.3s0.4-0.2,0.5-0.2c0-0.1,0.5-0.3,0.5-0.3c0-0.1,0.4-0.4,0.4-0.4s0.3-0.1,0.4-0.2c0.2-0.1,0.5-0.4,0.5-0.4
		s0.4-0.2,0.5-0.3c0-0.1,0.1-0.1,0.2-0.2c0.1-0.1,0.3-0.2,0.3-0.2s0.2-0.1,0.3,0c0.1,0.1,0.2,0.2,0.2,0.2V75.3z"/>
	<path class="st1" d="M80.7,74.5l-0.4,0.2l-0.5,0.2l-0.4,0.2l-0.3,0.2l-0.4,0.2l-0.4,0.1l-0.5,0.2l-0.4,0.1L77,76c0,0-0.2,0.1-0.2,0
		c-0.1-0.1-0.1-0.2-0.1-0.2s0.1-0.1,0.2-0.1s0.6-0.3,0.6-0.3l0.8-0.4l0.7-0.4l0.5-0.3l0.4-0.2l0.3-0.1l0.3,0.1v0.4H80.7z"/>
	<path class="st2" d="M80.7,74.5l-0.4,0.2l-0.5,0.2l-0.4,0.2l-0.3,0.2l-0.4,0.2l-0.4,0.1l-0.5,0.2l-0.4,0.1L77,76c0,0-0.2,0.1-0.2,0
		c-0.1-0.1-0.1-0.2-0.1-0.2s0.1-0.1,0.2-0.1s0.6-0.3,0.6-0.3l0.8-0.4l0.7-0.4l0.5-0.3l0.4-0.2l0.3-0.1l0.3,0.1v0.4H80.7z"/>
</g>
<polygon class="st1" points="80.3,73 80,73.1 79.5,73.4 78.9,73.7 78.3,74.2 77.8,74.4 76.7,75 75.7,75.4 75.4,75.7 74.9,75.8 
	74.6,75.7 74.9,75.4 75.3,75.2 76.6,74.5 77.3,74.1 78.6,73.3 79.7,72.6 80.1,72.4 80.3,72.5 "/>
<polygon class="st2" points="80.3,73 80,73.1 79.5,73.4 78.9,73.7 78.3,74.2 77.8,74.4 76.7,75 75.7,75.4 75.4,75.7 74.9,75.8 
	74.6,75.7 74.9,75.4 75.3,75.2 76.6,74.5 77.3,74.1 78.6,73.3 79.7,72.6 80.1,72.4 80.3,72.5 "/>
<polygon class="st1" points="80.1,71.7 79.7,71.7 79.4,72 79,72.4 78.6,72.6 78.1,72.9 77.4,73.3 76.6,73.7 75.9,74 74.9,74.5 
	74.2,74.8 73.5,75.1 73.2,75.1 73,74.9 73.1,74.7 73.7,74.5 74.4,74.2 75.7,73.5 77,72.9 78,72.2 78.7,71.9 79,71.7 79.3,71.5 
	79.7,71.2 80.1,71.1 "/>
<polygon class="st2" points="80.1,71.7 79.7,71.7 79.4,72 79,72.4 78.6,72.6 78.1,72.9 77.4,73.3 76.6,73.7 75.9,74 74.9,74.5 
	74.2,74.8 73.5,75.1 73.2,75.1 73,74.9 73.1,74.7 73.7,74.5 74.4,74.2 75.7,73.5 77,72.9 78,72.2 78.7,71.9 79,71.7 79.3,71.5 
	79.7,71.2 80.1,71.1 "/>
<g>
	<path class="st1" d="M79.9,70.2l-0.6,0.1l-0.4,0.2l-0.7,0.4l-0.8,0.5L76.5,72l-1,0.5l-0.7,0.4l-0.9,0.5l-0.6,0.3L72.5,74L72,74.2
		l-0.5,0.1H71h-0.4l-0.4-0.1l0.1-0.2c0,0,0.2-0.1,0.4-0.1c0.2,0,1-0.2,1-0.2l1.3-0.4l1-0.5l1.4-0.8l1.5-0.8l0.8-0.4l0.8-0.5l0.4-0.2
		c0.1,0,0.2-0.2,0.2-0.2c0-0.1,0.1-0.5,0.1-0.5l0.2,0.2l0.2,0.3L79.9,70.2z"/>
	<path class="st2" d="M79.9,70.2l-0.6,0.1l-0.4,0.2l-0.7,0.4l-0.8,0.5L76.5,72l-1,0.5l-0.7,0.4l-0.9,0.5l-0.6,0.3L72.5,74L72,74.2
		l-0.5,0.1H71h-0.4l-0.4-0.1l0.1-0.2c0,0,0.2-0.1,0.4-0.1c0.2,0,1-0.2,1-0.2l1.3-0.4l1-0.5l1.4-0.8l1.5-0.8l0.8-0.4l0.8-0.5l0.4-0.2
		c0.1,0,0.2-0.2,0.2-0.2c0-0.1,0.1-0.5,0.1-0.5l0.2,0.2l0.2,0.3L79.9,70.2z"/>
	<path class="st1" d="M64.3,80l-0.4,0.1l-0.3,0.2L63,80.6l-0.4,0.3l-0.4,0.3l-0.4,0.2l-0.2,0.2l-0.4,0.3l-0.3,0.2
		c0,0-0.3,0.1-0.4,0.1s-0.3,0-0.3,0s0-0.2,0.1-0.2s0.4-0.3,0.4-0.3l0.5-0.3l0.4-0.3l0.3-0.2l0.4-0.3l0.5-0.2l0.4-0.3l0.2-0.1
		l0.2-0.1l0.2-0.2l0.4,0.1l0.2,0.1L64.3,80z"/>
	<path class="st2" d="M64.3,80l-0.4,0.1l-0.3,0.2L63,80.6l-0.4,0.3l-0.4,0.3l-0.4,0.2l-0.2,0.2l-0.4,0.3l-0.3,0.2
		c0,0-0.3,0.1-0.4,0.1s-0.3,0-0.3,0s0-0.2,0.1-0.2s0.4-0.3,0.4-0.3l0.5-0.3l0.4-0.3l0.3-0.2l0.4-0.3l0.5-0.2l0.4-0.3l0.2-0.1
		l0.2-0.1l0.2-0.2l0.4,0.1l0.2,0.1L64.3,80z"/>
	<path class="st1" d="M64.3,80l-0.4,0.1l-0.3,0.2L63,80.6l-0.4,0.3l-0.4,0.3l-0.4,0.2l-0.2,0.2l-0.4,0.3l-0.3,0.2
		c0,0-0.3,0.1-0.4,0.1c-0.2,0-0.2-0.3-0.2-0.3c0.1,0,0.4-0.3,0.4-0.3l0.5-0.3l0.4-0.3l0.3-0.2l0.4-0.3l0.5-0.2l0.4-0.3l0.2-0.1
		l0.2-0.1l0.2-0.2l0.4,0.1l0.2,0.1L64.3,80z"/>
	<path class="st2" d="M64.3,80l-0.4,0.1l-0.3,0.2L63,80.6l-0.4,0.3l-0.4,0.3l-0.4,0.2l-0.2,0.2l-0.4,0.3l-0.3,0.2
		c0,0-0.3,0.1-0.4,0.1c-0.2,0-0.2-0.3-0.2-0.3c0.1,0,0.4-0.3,0.4-0.3l0.5-0.3l0.4-0.3l0.3-0.2l0.4-0.3l0.5-0.2l0.4-0.3l0.2-0.1
		l0.2-0.1l0.2-0.2l0.4,0.1l0.2,0.1L64.3,80z"/>
	<path class="st1" d="M61.8,107.3L62,107l0.2-0.4l0.2-0.2l0.2-0.2l0.1-0.4c0.1,0-0.3,0.1-0.3,0.1l-0.4,0.2l-0.2,0.2l-0.3,0.2
		l-0.2,0.9L61.8,107.3z"/>
	<path class="st1" d="M26.2,124.2c0.5-0.4,0.6-1.2,0.2-1.7s-1.2-0.6-1.7-0.2s-0.6,1.2-0.2,1.7C24.9,124.5,25.7,124.6,26.2,124.2"/>
</g>
<polygon class="st1" points="37.2,138.9 36.6,138.4 35.7,139.4 31.5,135.9 41.4,133.4 41.7,133.1 36.1,128.4 36.3,128.1 35.8,127.6 
	34.3,129.4 34.8,129.8 35.5,129 39.5,132.3 29.7,134.9 29.4,135.2 35.8,140.6 "/>
<g>
	<path class="st1" d="M54.8,141.1l-3.6-2l-0.4,0.7l1.4,0.8l-2.5,4.5c-0.8,1.5-2.4,2-3.7,1.2c-1.3-0.7-1.6-2.2-0.8-3.7l2.5-4.5
		l1.4,0.8l0.4-0.7l-4.1-2.3l-0.4,0.7l1.4,0.8l-2.7,4.9c-0.9,1.7-0.2,3.7,1.7,4.8c2.1,1.1,4.2,0.6,5.3-1.4l2.5-4.6l1.4,0.7
		L54.8,141.1z"/>
	<path class="st1" d="M64.6,145.2l1.4,0.4c1,0.2,1.4,0.9,1.1,1.9S66,149,65,148.8l-1.3-0.3L64.6,145.2z M63.6,149.2l1.4,0.4
		c1.3,0.3,1.8,1.1,1.5,2.4c-0.3,1.1-1.1,1.6-2.4,1.2l-1.4-0.4L63.6,149.2z M64.7,154.1c1.9,0.5,3.2-0.1,3.6-1.7
		c0.4-1.5-0.5-2.7-2.4-3.2c1.5,0.4,2.7-0.2,3-1.4c0.4-1.4-0.5-2.6-2.2-3l-4.9-1.2l-0.2,0.7l1.5,0.4l-1.9,7.8l-1.5-0.4l-0.2,0.7
		L64.7,154.1z"/>
</g>
<polygon class="st1" points="82.5,154.1 81.8,154.1 81.7,155.2 78.2,155.1 78.3,151.5 81,151.6 80.9,152.6 81.7,152.6 81.8,149.8 
	81,149.8 81,150.7 78.4,150.7 78.5,147.2 81.9,147.3 81.8,148.4 82.6,148.4 82.6,146.1 81.9,146.1 81.9,146.5 75.4,146.3 75.4,147 
	76.9,147.1 76.6,155.1 75.1,155 75.1,155.8 82.4,156.1 "/>
<g>
	<path class="st1" d="M91.6,146.6l1.4-0.2c1.1-0.2,1.7,0.4,1.9,1.5c0.2,1.1-0.3,2-1.3,2.1l-1.4,0.2L91.6,146.6z M99.1,153.4
		l-0.6,0.1c-0.4,0.1-0.9-0.1-1.3-0.6l-2.3-2.5c1.3-0.5,2-1.6,1.8-3c-0.3-1.6-1.5-2.4-3.4-2l-4.8,0.8l0.1,0.8l1.5-0.2l1.2,7.8
		l-1.5,0.2l0.1,0.8l4.6-0.7l-0.1-0.8l-1.5,0.2l-0.5-3.4l1-0.2l2.7,2.9c0.6,0.7,0.8,0.8,1.7,0.6l1.5-0.2L99.1,153.4z"/>
</g>
<polygon class="st1" points="111.6,147.5 111,147.8 111.4,149 108.2,150.2 105.3,142.8 106.8,142.3 106.5,141.5 102.1,143.2 
	102.4,144 103.9,143.4 106.7,150.8 105.3,151.4 105.6,152.1 112.4,149.5 "/>
<polygon class="st1" points="121.2,143.7 119.9,144.5 115.8,137.7 117.1,136.9 116.7,136.2 112.7,138.6 113.1,139.3 114.4,138.5 
	118.5,145.3 117.2,146.1 117.6,146.8 121.6,144.4 "/>
<polygon class="st1" points="129.1,127.3 130.2,126.2 129.6,125.6 126.6,128.4 127.2,129 128.3,128 132.3,132.3 123.5,131.3 
	121.6,133.1 122.1,133.7 123.2,132.7 123.8,132.9 128.9,138.3 127.8,139.3 128.3,139.9 131.3,137.1 130.8,136.5 129.6,137.6 
	125.5,133.1 134.6,134.2 135.1,133.7 "/>
<g>
	<path class="st1" d="M138.4,121.8c-0.5-0.4-1.3-0.3-1.7,0.3c-0.4,0.5-0.3,1.3,0.3,1.7c0.6,0.4,1.3,0.3,1.7-0.3
		C139,123,138.9,122.2,138.4,121.8"/>
</g>
<polygon class="st1" points="18.6,102.8 19.2,104.2 11.9,107.5 11.3,106 10.6,106.4 12.5,110.6 13.2,110.3 12.5,108.9 15.8,107.5 
	18,112.6 14.8,114 14.2,112.6 13.5,112.9 15.4,117.2 16.1,116.9 15.5,115.5 22.8,112.2 23.4,113.6 24.1,113.3 22.2,109.1 
	21.5,109.4 22.1,110.8 18.8,112.3 16.5,107.1 19.8,105.6 20.5,107 21.2,106.7 19.3,102.5 "/>
<g>
	<path class="st1" d="M6.7,87.5l0.6,4.1l0.8-0.1L7.9,90l5.1-0.8c1.7-0.3,3,0.7,3.2,2.2s-0.7,2.7-2.4,2.9l-5.1,0.8l-0.2-1.5l-0.8,0.1
		l0.7,4.6l0.8-0.1L9,96.7l5.5-0.9c1.9-0.3,3.1-2.1,2.7-4.3c-0.4-2.3-2.1-3.7-4.3-3.3L7.8,89l-0.2-1.5L6.7,87.5z"/>
</g>
<polygon class="st1" points="16.7,67.4 16.5,69 8.6,68 8.8,66.5 8,66.4 7.6,69.6 14.1,73.7 6.8,76.1 6.4,79.2 7.3,79.3 7.4,77.7 
	15.3,78.7 15.1,80.2 15.9,80.3 16.4,76.2 15.6,76.1 15.4,77.7 9,76.9 16.8,74.3 9.5,69.7 16.3,70.5 16.1,72.1 16.9,72.2 17.5,67.5 
	"/>
<g>
	<path class="st1" d="M12.2,55.5l0.5-1.4c0.4-0.9,1.1-1.2,2.1-0.9c1,0.4,1.4,1.2,1,2.2l-0.5,1.2L12.2,55.5z M16.1,57l0.5-1.4
		c0.5-1.3,1.3-1.7,2.5-1.2c1.1,0.4,1.4,1.3,0.9,2.6l-0.5,1.4L16.1,57z M21.1,56.6c0.7-1.8,0.3-3.2-1.2-3.8c-1.4-0.6-2.7,0.2-3.5,2
		c0.5-1.4,0.1-2.7-1-3.2c-1.3-0.5-2.6,0.2-3.2,1.8l-1.8,4.7l0.7,0.3l0.6-1.4l7.5,2.9l-0.6,1.4l0.7,0.3L21.1,56.6z"/>
	<path class="st1" d="M20.2,39.7c1-1.4,3.3-1.5,5.2-0.2c1.9,1.3,2.6,3.5,1.6,5c-1,1.4-3.3,1.5-5.2,0.1
		C19.9,43.3,19.2,41.1,20.2,39.7 M27.7,44.9c1.5-2.1,0.9-5.3-1.3-6.9c-2.2-1.5-5.4-1-6.9,1.1c-1.5,2.2-0.9,5.3,1.3,6.9
		C23,47.6,26.2,47.1,27.7,44.9"/>
</g>
<polygon class="st1" points="38,29.8 37.4,30.3 38.3,31.2 35.8,33.6 30.4,28 31.5,26.9 30.9,26.3 27.6,29.6 28.1,30.1 29.2,29.1 
	34.7,34.8 33.6,35.8 34.2,36.4 39.4,31.3 "/>
<g>
	<path class="st1" d="M45.1,26.2l-4.2-6.7l1.4-0.9c1.6-1,3.8-0.3,4.9,1.6c1.2,1.9,0.8,4.1-0.8,5.1L45.1,26.2z M42.9,28.6L47,26
		c2.4-1.5,3.1-4.4,1.7-6.7s-4.4-2.9-6.8-1.4l-4.1,2.6l0.4,0.6l1.3-0.8l4.2,6.8l-1.3,0.8L42.9,28.6z"/>
</g>
<polygon class="st1" points="61.8,18.4 60.1,19 57.5,11.5 60.4,10.5 60.8,11.6 61.5,11.3 60.7,9.1 60,9.3 60.1,9.7 53,12.2 
	52.8,11.8 52.1,12 52.9,14.3 53.6,14 53.2,12.9 56.1,12 58.7,19.5 57,20 57.2,20.8 62,19.1 "/>
<rect x="66.6" y="11.9" transform="matrix(0.9815 -0.1913 0.1913 0.9815 -1.16 13.3484)" class="st1" width="3.9" height="1.6"/>
<g>
	<path class="st1" d="M87.7,6.8l-4.1-0.1v0.8h1.5L85,12.6c0,1.7-1.2,2.8-2.7,2.8s-2.5-1.2-2.5-2.9l0.1-5.2h1.6V6.5l-4.7-0.1v0.8h1.6
		l-0.1,5.6c0,1.9,1.5,3.4,3.8,3.4c2.4,0,4-1.5,4-3.7l0.1-5.2h1.5L87.7,6.8z"/>
</g>
<polygon class="st1" points="104.5,11 106,11.4 106.3,10.6 102.3,9.5 102,10.3 103.6,10.7 102,16.4 98.2,8.4 95.6,7.7 95.4,8.5 
	96.8,8.9 97,9.5 95.1,16.7 93.6,16.3 93.4,17 97.4,18.1 97.6,17.3 96.1,16.9 97.7,11.1 101.7,19.4 102.3,19.5 "/>
<polygon class="st1" points="113.7,23.8 112.3,23 116.1,16 117.4,16.7 117.8,16 113.7,13.8 113.3,14.6 114.7,15.3 111,22.3 
	109.6,21.6 109.2,22.2 113.4,24.4 "/>
<polygon class="st1" points="129.1,24.6 129.8,25.1 130.3,24.4 127.9,22.6 127.4,23.3 128.3,24 122.4,27.5 124.1,20.8 125.2,21.6 
	125.7,21 122.5,18.6 122,19.2 122.8,19.8 120.4,29.2 120.8,29.5 "/>
<polygon class="st1" points="134.4,39.6 133.9,39.1 133,39.8 130.7,37.2 133.4,34.8 135.1,36.8 134.4,37.4 134.9,38 137,36.1 
	136.5,35.5 135.8,36.2 134,34.2 136.6,31.9 138.8,34.4 138,35.2 138.5,35.7 140.2,34.2 139.7,33.6 139.4,33.9 135.1,29.1 
	134.5,29.6 135.6,30.7 129.6,36.1 128.6,34.9 128,35.4 132.9,40.9 "/>
<g>
	<path class="st1" d="M145.6,44.4l0.7,1.3c0.5,0.9,0.2,1.8-0.8,2.3c-1,0.6-2,0.4-2.4-0.5l-0.7-1.3L145.6,44.4z M141.7,53.7l-0.3-0.5
		c-0.2-0.4-0.2-0.9,0.1-1.4l1.5-3c0.9,1.1,2.2,1.3,3.4,0.6c1.5-0.8,1.7-2.2,0.7-3.9l-2.4-4.3l-0.7,0.4l0.8,1.4l-6.9,3.8l-0.7-1.4
		l-0.7,0.4l2.3,4.1l0.7-0.4l-0.7-1.4l3-1.7l0.5,0.9l-1.8,3.5c-0.4,0.8-0.4,1,0,1.8l0.7,1.3L141.7,53.7z"/>
	<path class="st1" d="M143.5,59.4c-0.2,0.9-0.2,1.7,0.1,2.4c0.5,1.6,2,2.5,3.5,2c1.3-0.4,1.7-1.1,2.1-3.1c0.1-0.5,0.2-1,0.4-1.7
		c0.2-0.8,0.4-1.1,0.9-1.3c0.8-0.3,1.5,0.2,1.8,1.1c0.2,0.5,0.2,0.9,0,1.8l-1,0.3l0.2,0.7l2.3-0.8l-0.2-0.7l-0.5,0.2
		c0.1-0.7,0.1-1.3-0.1-1.9c-0.5-1.6-2-2.4-3.4-2c-1.2,0.4-1.7,1.2-2,3.2c-0.3,1.9-0.6,2.6-1.4,2.8s-1.5-0.3-1.9-1.3
		c-0.2-0.7-0.2-1.3,0-2.2l1-0.3l-0.2-0.7l-2.4,0.8l0.2,0.7H143.5z"/>
</g>
<polygon class="st1" points="147.3,74.7 147.1,73.1 154.9,72 155.1,73.6 156,73.4 155.3,68.8 154.5,68.9 154.7,70.5 146.9,71.6 
	146.6,70 145.9,70.2 146.5,74.8 "/>
<polygon class="st1" points="147.5,86.7 147.5,84.9 155.5,85.2 155.4,88.2 154.2,88.2 154.2,88.9 156.6,89 156.6,88.2 156.2,88.2 
	156.4,80.7 156.8,80.7 156.9,79.9 154.5,79.8 154.5,80.6 155.6,80.6 155.5,83.6 147.6,83.4 147.6,81.6 146.9,81.6 146.7,86.6 "/>
<g>
	<path class="st1" d="M149.1,96.1l3.1,2.4l-3.9,0.6L149.1,96.1z M156.9,99.3c0.6,0.1,1.1-0.2,1.3-0.7c0.1-0.6-0.2-1.1-0.8-1.3
		c-0.5-0.1-1.1,0.2-1.3,0.8C156,98.6,156.3,99.2,156.9,99.3 M156,102.9c0.6,0.1,1.1-0.2,1.3-0.7c0.1-0.6-0.2-1.1-0.8-1.3
		c-0.5-0.1-1.1,0.2-1.3,0.8C155.1,102.2,155.4,102.7,156,102.9 M144.5,102.1l0.2-0.9l9.7-1.5l0.1-0.5l-7.8-6l0.2-0.8l-0.7-0.2
		l-0.7,2.8l0.7,0.2l0.3-1.1l1.9,1.5l-0.9,3.6l-2.4,0.4l0.2-0.9l-0.7-0.2l-0.8,3.4L144.5,102.1z"/>
</g>
<polygon class="st1" points="140.2,112.1 140.9,110.5 148.1,113.8 146.8,116.6 145.8,116.1 145.5,116.8 147.6,117.8 148,117.1 
	147.6,116.9 150.8,110 151.2,110.2 151.5,109.5 149.3,108.5 149,109.2 150,109.7 148.8,112.4 141.6,109.1 142.3,107.5 141.6,107.1 
	139.5,111.7 "/>
</svg>
