<?xml version="1.0" encoding="utf-8"?>
<!-- Generator: Adobe Illustrator 26.3.1, SVG Export Plug-In . SVG Version: 6.00 Build 0)  -->
<svg version="1.1" id="Ebene_1" xmlns="http://www.w3.org/2000/svg" xmlns:xlink="http://www.w3.org/1999/xlink" x="0px" y="0px"
	 viewBox="0 0 221.9 273.1" style="enable-background:new 0 0 221.9 273.1;" xml:space="preserve">
<style type="text/css">
	.st0{fill:#9C9C99;}
	.st1{fill:#333333;}
</style>
<g>
	<polygon class="st0" points="29.8,204.8 46.2,212.8 75.1,226.9 92.8,235.5 93.7,233.5 95.4,230.1 102.2,216 39.2,185.3 	"/>
	<path class="st0" d="M103.2,134.1c-2.2-1.1-4.6-1.4-6.9-1.2c-4,0.5-7.8,2.9-9.7,6.9c-0.3,0.6-0.5,1.2-0.7,1.9
		c-1.4,4.7,0.1,9.8,3.8,12.9c0.8,0.7,1.6,1.2,2.6,1.7c3.6,1.7,7.6,1.6,10.9,0c2.4-1.2,4.4-3.1,5.7-5.7
		C111.9,144.5,109.3,137.1,103.2,134.1"/>
	<path class="st0" d="M126.6,179c-1.8,0.2-3.6,0.6-5.3,1c-3.8,1-7.4,2.5-10.7,4.6h0l-0.2,0.1c-1.3,0.8-2.5,1.7-3.7,2.6
		c-1.5,1.2-2.9,2.4-4.2,3.8l-43.7-21.3c1.3-9-0.5-18.4-5.3-26.4c-3.1-5.2-5.5-10.7-7.2-16.5c-0.8-2.6-1.4-5.3-1.9-8l0,0
		c-0.6-3.2-1-6.5-1.1-9.7c-0.3-6.1,0.2-12.2,1.4-18.2c1.2-6.2,3.3-12.2,6.1-17.9c2.2-4.5,4.9-8.8,7.9-12.8c3-3.8,6.3-7.4,10-10.6
		c3.6-3.1,7.5-5.9,11.6-8.3c4.1-2.4,8.5-4.3,12.9-5.9c4.5-1.5,9.1-2.7,13.8-3.3c4.7-0.7,9.5-0.9,14.3-0.6c4.8,0.3,9.7,1,14.4,2.2
		c4.8,1.2,9.6,3,14.1,5.2c4.5,2.2,8.8,4.9,12.8,7.9c3.8,3,7.4,6.3,10.6,10c3.1,3.6,5.9,7.5,8.3,11.6c2.4,4.1,4.3,8.5,5.9,12.9
		c0.9,2.6,1.7,5.3,2.3,8.1l0,0c0.4,1.9,0.8,3.8,1,5.8c0.7,4.7,0.9,9.5,0.6,14.3c-0.3,4.8-1,9.7-2.2,14.4c-1.2,4.8-3,9.6-5.2,14.1
		c-2.8,5.7-6.3,11-10.4,15.8c-4,4.6-8.5,8.7-13.5,12.3c-4.9,3.5-10.2,6.3-15.9,8.5C138.4,176.7,132.5,178.2,126.6,179 M202,87
		c-5.5-25-21.9-47.4-46.8-59.5c-43.1-21-95.1-3.1-116.1,40c-8.5,17.4-10.6,36.3-7.3,53.9c1.9,10,5.5,19.6,10.7,28.4
		c1.8,3,2.9,6.3,3.5,9.6c1,5.7,0.2,11.7-2.5,17.1l4.9,2.4l3.3,1.6l54.8,26.7l0,0c0.4-0.7,0.8-1.5,1.2-2.2c0.7-1.1,1.4-2.1,2.2-3.1
		c4.2-5.2,10.1-8.8,16.8-10.1c0.5-0.1,1-0.2,1.5-0.2c28-3.6,53.7-20.8,66.9-48.1C204.1,125.3,206,105.4,202,87"/>
	<path class="st0" d="M43.1,222.1l-9.2-4.5c-3.8,7.9-0.6,17.4,7.3,21.2l5.9,2.9l11.7,5.7c3.7,1.8,7.7,2,11.4,1
		c4.2-1.2,7.8-4.1,9.8-8.3l-33.6-16.4L43.1,222.1z"/>
	<path class="st0" d="M158.4,72.9c-3.3-4.9-8.6-9.6-16.5-13.6l-0.2-0.1c-24.9-12.1-40.2,1.1-46.3,11.8l19.1,9.3
		c3.3-5.1,7.6-8.3,12.9-8.2c2.1,0,4.3,0.6,6.7,1.8c1.7,0.8,3.2,1.8,4.3,2.9c4.3,4,4.5,9.2,2.2,13.7c-2.5,5.2-6.4,8.2-15.8,10.6
		c-13.4,3.4-20.3,7.6-24.7,14.3c-0.8,1.2-1.5,2.4-2.1,3.7l-1.2,2.5l20.2,9.8l0.7-1.4c0.4-0.7,0.7-1.4,1.1-2.1
		c0.4-0.6,0.7-1.1,1.1-1.6c2.3-2.9,5.3-4.9,10-6.6c1.3-0.5,2.8-0.9,4.5-1.4c15.5-4,21.3-8.9,25.8-18c1.3-2.6,2.3-5.7,2.7-9
		C163.6,85.6,162.5,79,158.4,72.9"/>
	<path class="st1" d="M206.2,114.7c0.8-5.9,1-11.9,0.7-17.8c-0.4-5.8-1.3-11.6-2.7-17.3c-1.5-5.6-3.5-11.1-6-16.3
		c-2.5-5.2-5.5-10.2-8.9-14.9c-3.5-4.7-7.4-9.1-11.7-13c-4.4-4-9.2-7.6-14.3-10.6c-5.2-3.1-10.8-5.8-16.6-7.8
		c-5.8-2-11.8-3.5-17.8-4.3c-5.9-0.8-11.9-1-17.8-0.7c-5.8,0.4-11.6,1.3-17.3,2.7c-5.6,1.5-11.1,3.5-16.3,6
		c-5.2,2.5-10.2,5.5-14.9,8.9c-4.7,3.5-9.1,7.4-13,11.7c-4,4.4-7.6,9.2-10.6,14.3c-3.1,5.2-5.8,10.8-7.8,16.6
		c-2.6,7.3-4.2,14.9-4.9,22.5c-0.6,7.4-0.3,14.9,0.9,22.3c1.2,7.2,3.3,14.3,6.2,21.1c2.9,6.7,6.6,13.1,11,19
		c0.6,0.7,1.1,1.5,1.5,2.3c-0.6-3.3-1.7-6.6-3.5-9.6c-5.2-8.8-8.8-18.4-10.7-28.4C28.3,106,29,89.5,34.7,73.5
		c16-45.2,65.6-68.9,110.8-52.9C175.9,31.3,196.6,57.3,202,87c4,18.4,2.1,38.3-6.8,56.6c-13.3,27.3-39,44.4-66.9,48.1
		c-0.5,0.1-1,0.1-1.5,0.2c-4.1,3.3-7.4,7.7-9.2,12.8l-7.7-2.7l-6.7-2.4l-1.7-0.6l-6-2.1l-21.9-7.7l-6-2.1l-9.2-3.2l-0.4-0.1
		l-6.5-2.3c0.1-0.3,0.2-0.5,0.3-0.8l-3.3-1.6c-0.1,0.4-0.2,0.8-0.4,1.2l-1.2,3.5l3.5,1.2l6.5,2.3l9.6,3.4l6,2.1l15,5.3l7,2.5l6,2.1
		l1.7,0.6l5.7,2l8.6,3l3.5,1.2l1.2-3.5c2.8-7.8,9.2-13.7,17.2-15.6c7.1-1.8,14-4.4,20.5-7.8c6.5-3.4,12.6-7.6,18.1-12.5
		c5.6-5,10.5-10.6,14.7-16.8c4.3-6.4,7.8-13.3,10.4-20.6C203.9,126.7,205.3,120.7,206.2,114.7"/>
	<path class="st1" d="M51.9,130.2c-2.3-5.3-3.9-10.8-4.8-16.4c-0.9-5.7-1.2-11.5-0.7-17.3c0.5-5.9,1.8-11.8,3.8-17.5
		c1.6-4.5,3.6-8.9,6.1-12.9c2.4-3.9,5.1-7.7,8.3-11.1c3-3.3,6.4-6.4,10.1-9.1c3.6-2.7,7.5-5,11.6-7c4.1-1.9,8.3-3.5,12.7-4.6
		c4.4-1.1,8.9-1.9,13.4-2.1c4.6-0.3,9.2-0.1,13.8,0.5c4.7,0.7,9.4,1.8,13.9,3.4c4.5,1.6,8.9,3.6,12.9,6.1c3.9,2.4,7.7,5.1,11.1,8.3
		c3.3,3,6.4,6.4,9.1,10.1c2.7,3.6,5,7.5,7,11.6c1.9,4.1,3.5,8.3,4.6,12.7c1.1,4.4,1.9,8.9,2.1,13.4c0.3,4.6,0.1,9.2-0.5,13.8
		c-0.6,4.7-1.8,9.4-3.4,13.9c-2,5.7-4.7,11.1-8.1,16c-3.2,4.8-7.1,9.2-11.4,13c-4.3,3.8-9,7.1-14.1,9.7c-5.1,2.7-10.4,4.7-16,6.1
		c-4.9,1.2-9.5,3.2-13.8,6c-3.3,2.2-6.4,4.8-9,7.8l0,0l-0.1,0.2l-0.1,0l-1.7-0.6l-1.7-0.6l-6-2.1L79,173.6l-6-2.1l-3.5-1.2
		c-0.1-4.1-0.8-8.1-2.1-12c-1.5-4.8-3.9-9.3-6.9-13.3C57,140.4,54.1,135.4,51.9,130.2 M65.8,172.8l5.9,2.1l6,2.1l21.9,7.7l6,2.1
		l0.9,0.3l0.8,0.3l4.2,1.5c2.7-3.5,6-6.6,9.6-9c3.9-2.6,8.2-4.6,12.9-5.7c5.8-1.4,11.5-3.6,16.8-6.4c5.3-2.8,10.3-6.3,14.8-10.3
		c4.6-4.1,8.6-8.7,12-13.7c3.5-5.2,6.4-10.9,8.5-16.9c1.7-4.7,2.9-9.7,3.6-14.6c0.7-4.8,0.9-9.7,0.6-14.5c-0.2-2.8-0.5-5.7-1-8.5
		l0,0c-0.3-1.9-0.8-3.8-1.2-5.7c-1.2-4.6-2.8-9.1-4.9-13.4c-2-4.3-4.5-8.4-7.3-12.2c-2.8-3.8-6.1-7.4-9.6-10.6
		c-3.6-3.3-7.5-6.2-11.7-8.7c-4.3-2.6-8.8-4.7-13.6-6.4c-4.7-1.7-9.7-2.9-14.6-3.6c-4.8-0.7-9.7-0.9-14.5-0.6
		c-4.8,0.3-9.5,1-14.1,2.2c-4.6,1.2-9.1,2.8-13.4,4.9c-4.3,2-8.4,4.5-12.2,7.3c-3.8,2.8-7.4,6.1-10.6,9.6c-3.3,3.6-6.2,7.5-8.7,11.7
		c-2.6,4.3-4.7,8.8-6.4,13.6c-2.1,6-3.5,12.2-4,18.4c-0.5,6.1-0.3,12.2,0.7,18.2c0.2,1.5,0.5,3,0.9,4.5l0,0c1,4.4,2.4,8.7,4.2,12.8
		c2.4,5.5,5.4,10.7,9,15.5C63.2,154.7,66.1,163.7,65.8,172.8"/>
	<polygon class="st1" points="110.5,235.5 117.8,215.1 119,211.6 115.5,210.4 106.5,207.2 106.5,207.2 49.4,187.1 46,185.8 
		45.1,188.2 44.7,189.3 37.9,208.7 37.5,209.7 36.3,213.2 39.8,214.4 75.1,226.9 46.2,212.8 41,210.9 41.2,210.3 48.2,190.5 
		54.6,192.8 114.3,213.9 107.1,234.3 95.4,230.1 93.7,233.5 105.9,237.7 109.3,239 	"/>
	<path class="st1" d="M99.7,238.1l-3.5-1.2l-48.4-17.1l-3.5-1.2l-1.2,3.5l0,0.1l3.3,1.6c0.1-0.2,0.1-0.3,0.2-0.5L95,240.4
		c-2.9,8.3-12,12.6-20.2,9.7l-4.6-1.6c-3.6,1.1-7.7,0.8-11.4-1l-11.7-5.7c0.4,0.4,0.8,0.8,1.2,1.2c1.9,1.8,4.2,3.1,6.7,4l18.5,6.5
		c2.5,0.9,5.1,1.2,7.7,1.1c2.5-0.2,5-0.8,7.2-1.9c2.3-1.1,4.3-2.6,6-4.5c1.8-1.9,3.1-4.2,4-6.7L99.7,238.1z"/>
	<path class="st1" d="M112.9,82.3l1.1-2.1l0.4-0.7c4.1-8.2,9.2-8.3,13.1-7.2c0.4,0.1,0.8,0.2,1.2,0.4c3.1,1.1,5.1,2.7,6.1,4.7
		c1.1,2.3,0.6,4.7,0.1,6.3c-1.4,4-3.9,6.9-12.3,10.1c-8,3-13.7,6.1-17.9,9.8c-4.1,3.6-6.9,7.8-8.9,13.4l-0.9,2.6l-1.2,3.5l3.5,1.2
		l18.5,6.5l1.7,0.6l1,0.4l3.5,1.2l1.2-3.5l0.5-1.5c1.1-3.2,2.8-5.7,6.7-8.2c-4.7,1.7-7.8,3.7-10,6.6c0,0.1-0.1,0.2-0.1,0.3l-0.5,1.5
		l-0.5-0.2l-20.7-7.3l0.9-2.6c0.3-0.9,0.7-1.8,1.1-2.7c3.5-7.9,9.8-13.1,23.5-18.3c9.1-3.4,12.6-6.9,14.5-12.3
		c0.9-2.6,1.1-5.4,0.3-8c-1.1-3.2-3.8-6-8.6-7.7c-9-3.2-14.9,1.1-18.7,8.6l-7.2-2.5L91,70.6c4.9-11.3,18.5-26.2,44.6-17l0.2,0.1
		c12.8,4.6,19.6,11.8,22.6,19.2c4.1,6.2,5.2,12.7,4.5,18.5c0.8-2.8,1.1-5.8,1.1-8.7c0-4.2-0.9-8.3-2.6-12.1
		c-1.9-4.3-4.8-8.2-8.6-11.5c-4.2-3.6-9.5-6.6-15.7-8.8l-0.2-0.1c-3.3-1.2-6.5-2-9.7-2.5c-3.1-0.5-6.2-0.7-9.1-0.5
		c-5.2,0.3-10.1,1.7-14.5,4.1c-3.8,2.1-7.2,4.9-10.1,8.3c-2.4,2.9-4.4,6.2-5.9,9.6l-1.5,3.6l3.7,1.3l20.1,7.1L112.9,82.3z"/>
	<path class="st1" d="M117.8,143.1c-0.1-2.1-0.6-4.1-1.5-5.9c-0.9-1.9-2.1-3.5-3.7-4.9c-1.6-1.4-3.4-2.5-5.5-3.3
		c-2-0.7-4.2-1-6.3-0.9c-2.1,0.1-4.1,0.6-5.9,1.5c-1.9,0.9-3.5,2.1-4.9,3.7c-1.4,1.6-2.5,3.4-3.3,5.5c-0.3,1-0.6,2-0.7,3
		c0.2-0.6,0.4-1.3,0.7-1.9c1.9-3.9,5.6-6.4,9.7-6.9c2.9-1.4,6.3-1.7,9.6-0.6c6.4,2.3,9.8,9.3,7.5,15.8c-1.6,4.6-5.7,7.6-10.2,8.2
		c-3.3,1.6-7.3,1.8-10.9,0c-1-0.5-1.8-1-2.6-1.7c0.4,0.4,0.8,0.9,1.2,1.3c1.6,1.4,3.4,2.5,5.5,3.3c2,0.7,4.2,1,6.3,0.9
		c2.1-0.1,4.1-0.6,5.9-1.5c1.9-0.9,3.5-2.1,4.9-3.7c1.4-1.6,2.5-3.4,3.3-5.5C117.6,147.3,117.9,145.2,117.8,143.1"/>
	<path class="st1" d="M22.7,107.1c0-0.7,0.1-1.4,0.1-2l0-0.2c0-0.6-0.2-1.2-0.6-1.6c-0.4-0.5-1.1-0.8-1.7-0.9
		c-1.3-0.1-2.4,0.8-2.7,2c0,0.1,0,0.2,0,0.3c0,0.7-0.1,1.4-0.1,2.1c-0.1,1.4,1,2.6,2.4,2.7C21.4,109.5,22.6,108.5,22.7,107.1"/>
	<path class="st1" d="M22.9,116.8L22.9,116.8c0-0.8-0.1-1.5-0.1-2.1c0-1.4-1.2-2.5-2.6-2.5c-1.2,0-2.3,1-2.4,2.2c0,0.1,0,0.3,0,0.4
		c0,0.7,0,1.4,0.1,2.1c0.1,1.4,1.2,2.5,2.6,2.4C21.8,119.3,22.9,118.2,22.9,116.8"/>
	<path class="st1" d="M24.6,125.6c-0.1-0.6-0.2-1.3-0.4-2c-0.3-1.4-1.6-2.3-3-2c-1.2,0.2-2.1,1.2-2.1,2.4c0,0.2,0,0.3,0,0.5
		c0.1,0.8,0.3,1.4,0.4,2.1c0.3,1.4,1.6,2.3,3,2c1.2-0.2,2.1-1.3,2-2.5C24.6,126,24.6,125.8,24.6,125.6"/>
	<path class="st1" d="M27.2,136.2c0.2-0.4,0.3-0.8,0.3-1.2c0-0.2,0-0.5-0.1-0.7l-0.1-0.2c-0.2-0.6-0.4-1.2-0.5-1.8
		c-0.4-1.3-1.8-2.1-3.1-1.7c-1.1,0.3-1.8,1.3-1.8,2.4c0,0.2,0,0.5,0.1,0.7c0.2,0.6,0.4,1.2,0.5,1.8l0.1,0.2c0.2,0.6,0.6,1.2,1.2,1.5
		c0.6,0.3,1.3,0.4,1.9,0.2S26.8,136.8,27.2,136.2"/>
	<path class="st1" d="M31.4,144.2c0-0.5-0.1-0.9-0.3-1.3c-0.3-0.5-0.6-1.1-0.9-1.8c-0.6-1.3-2.1-1.8-3.4-1.2c-1,0.5-1.6,1.6-1.4,2.7
		c0,0.2,0.1,0.5,0.2,0.7c0.4,0.7,0.7,1.4,1,1.9c0.6,1.2,2.2,1.7,3.4,1.1c0.6-0.3,1-0.8,1.3-1.5C31.4,144.6,31.4,144.4,31.4,144.2"/>
	<path class="st1" d="M37.1,153.2c0-0.2,0.1-0.4,0.1-0.6c0-0.5-0.1-0.9-0.4-1.3c-0.3-0.5-0.7-1.1-1-1.7c-0.7-1.2-2.3-1.6-3.5-0.9
		c-1,0.6-1.4,1.7-1.2,2.8c0.1,0.2,0.2,0.5,0.3,0.7c0.4,0.7,0.8,1.3,1.1,1.8c0.7,1.2,2.3,1.5,3.5,0.8
		C36.5,154.4,36.9,153.8,37.1,153.2"/>
	<path class="st1" d="M183.5,38c0.4,0.5,0.8,1.1,1.2,1.6l0.1,0.1c0.4,0.5,0.9,0.8,1.5,0.8c0.7,0.1,1.3-0.1,1.9-0.5
		c1-0.8,1.3-2.2,0.7-3.3c-0.1-0.1-0.1-0.2-0.2-0.3c-0.4-0.6-0.8-1.1-1.3-1.7c-0.8-1.1-2.4-1.3-3.6-0.5
		C182.8,35.3,182.6,36.9,183.5,38"/>
	<path class="st1" d="M177,30.8L177,30.8c0.5,0.6,1,1.1,1.4,1.6c0.9,1,2.5,1.1,3.6,0.2c0.9-0.8,1.1-2.2,0.4-3.2
		c-0.1-0.1-0.2-0.2-0.3-0.3c-0.5-0.5-1-1-1.4-1.5c-1-1-2.6-1.1-3.6-0.1C176.1,28.2,176.1,29.8,177,30.8"/>
	<path class="st1" d="M169.6,24.9c0.1,0.1,0.2,0.2,0.3,0.3c0.5,0.4,1,0.8,1.6,1.3c1.1,0.9,2.7,0.7,3.6-0.4c0.8-0.9,0.7-2.3,0-3.2
		c-0.1-0.1-0.2-0.2-0.4-0.4c-0.6-0.5-1.1-0.9-1.6-1.3c-1.1-0.9-2.7-0.7-3.6,0.4C168.8,22.6,168.8,24,169.6,24.9"/>
	<path class="st1" d="M161.6,20c0.2,0.2,0.3,0.3,0.6,0.5l0.2,0.1c0.5,0.3,1,0.7,1.5,1c1.2,0.8,2.7,0.4,3.5-0.7
		c0.6-0.9,0.5-2.2-0.2-3c-0.2-0.2-0.3-0.3-0.5-0.5c-0.5-0.3-1.1-0.7-1.6-1l-0.2-0.1c-0.6-0.4-1.3-0.5-1.9-0.3
		c-0.7,0.1-1.2,0.5-1.6,1.1c-0.4,0.6-0.5,1.3-0.3,1.9C161.2,19.3,161.4,19.6,161.6,20"/>
	<path class="st1" d="M152.3,15.1c0.1,0.2,0.2,0.4,0.3,0.5c0.3,0.4,0.6,0.7,1.1,0.8c0.5,0.2,1.1,0.5,1.8,0.8c1.3,0.6,2.8,0,3.3-1.3
		c0.4-1,0.2-2.2-0.7-2.9c-0.2-0.2-0.4-0.3-0.6-0.4c-0.7-0.3-1.4-0.6-2-0.8c-1.3-0.5-2.8,0.1-3.3,1.4
		C152.1,13.7,152.1,14.4,152.3,15.1"/>
	<path class="st1" d="M142.5,12.5c0.1,0.2,0.2,0.3,0.3,0.5c0.3,0.3,0.7,0.6,1.2,0.7c0.6,0.2,1.2,0.4,1.9,0.6
		c1.3,0.4,2.8-0.3,3.2-1.6c0.4-1.1,0-2.2-0.9-2.9c-0.2-0.1-0.4-0.3-0.7-0.3c-0.8-0.3-1.4-0.5-2-0.7c-1.3-0.4-2.8,0.3-3.2,1.7
		C142.1,11.2,142.2,11.9,142.5,12.5"/>
	<path class="st1" d="M11.1,175.1l-5.7,2c-0.7,0.2-1.2,0.7-1.5,1.4c-0.3,0.6-0.4,1.4-0.1,2c0.2,0.7,0.7,1.2,1.4,1.5s1.4,0.4,2,0.1
		l5.7-2c1.4-0.5,2.1-2,1.7-3.4C14,175.4,12.5,174.6,11.1,175.1"/>
	<path class="st1" d="M28,172.1c0.2,0.7,0.7,1.2,1.4,1.5c0.6,0.3,1.3,0.4,2,0.1l5.7-2c1.4-0.5,2.1-2,1.7-3.4s-2-2.1-3.4-1.7l-5.7,2
		C28.2,169.2,27.5,170.7,28,172.1"/>
	<path class="st1" d="M26.9,182.9c-0.5-1.4-2-2.1-3.4-1.7c-1.4,0.5-2.1,2-1.7,3.4l2,5.7c0.2,0.7,0.7,1.2,1.4,1.5s1.4,0.4,2,0.1
		c0.7-0.2,1.2-0.7,1.5-1.4c0.3-0.6,0.4-1.4,0.1-2L26.9,182.9z"/>
	<path class="st1" d="M18.6,158.6c-0.2-0.7-0.7-1.2-1.4-1.5s-1.4-0.4-2-0.1c-0.7,0.2-1.2,0.7-1.5,1.4c-0.3,0.6-0.4,1.4-0.1,2l2,5.7
		c0.2,0.7,0.7,1.2,1.4,1.5c0.6,0.3,1.3,0.4,2,0.1c1.4-0.5,2.1-2,1.7-3.4L18.6,158.6z"/>
	<path class="st1" d="M101,258l-4,1.4c-1,0.4-1.6,1.5-1.2,2.5c0.2,0.5,0.5,0.9,1,1.1c0.5,0.2,1,0.3,1.5,0.1l4-1.4
		c1-0.4,1.6-1.5,1.2-2.5C103.2,258.2,102,257.7,101,258"/>
	<path class="st1" d="M118.1,252.1l-4,1.4c-0.5,0.2-0.9,0.5-1.1,1c-0.2,0.5-0.3,1-0.1,1.5c0.2,0.5,0.6,0.9,1,1.1
		c0.5,0.2,1,0.3,1.5,0.1l4-1.4c1-0.4,1.6-1.5,1.2-2.5C120.3,252.3,119.2,251.8,118.1,252.1"/>
	<path class="st1" d="M112.3,263.6c-0.4-1-1.5-1.6-2.5-1.2c-0.5,0.2-0.9,0.5-1.1,1c-0.2,0.5-0.3,1-0.1,1.5l1.4,4
		c0.2,0.5,0.6,0.9,1,1.1c0.5,0.2,1,0.3,1.5,0.1c1-0.4,1.6-1.5,1.2-2.5L112.3,263.6z"/>
	<path class="st1" d="M106.4,246.4c-0.2-0.5-0.5-0.9-1-1.1c-0.5-0.2-1-0.3-1.5-0.1c-1,0.4-1.6,1.5-1.2,2.5l1.4,4
		c0.2,0.5,0.6,0.9,1,1.1c0.5,0.2,1,0.3,1.5,0.1c1-0.4,1.6-1.5,1.2-2.5L106.4,246.4z"/>
	<path class="st1" d="M193.6,49.8c0.5,0.2,1,0.3,1.5,0.1l4-1.4c1-0.4,1.6-1.5,1.2-2.5c-0.4-1-1.5-1.6-2.5-1.2l-4,1.4
		c-0.5,0.2-0.9,0.5-1.1,1c-0.2,0.5-0.3,1-0.1,1.5C192.8,49.2,193.2,49.6,193.6,49.8"/>
	<path class="st1" d="M210.8,43.9c0.5,0.2,1,0.3,1.5,0.1l4-1.4c1-0.4,1.6-1.5,1.2-2.5c-0.4-1-1.5-1.6-2.5-1.2l-4,1.4
		c-1,0.4-1.6,1.5-1.2,2.5C209.9,43.3,210.3,43.7,210.8,43.9"/>
	<path class="st1" d="M206.8,55.6c0.2,0.5,0.6,0.9,1,1.1c0.5,0.2,1,0.3,1.5,0.1c1-0.4,1.6-1.5,1.2-2.5l-1.4-4
		c-0.4-1-1.5-1.6-2.5-1.2c-1,0.4-1.6,1.5-1.2,2.5L206.8,55.6z"/>
	<path class="st1" d="M200.9,38.5c0.2,0.5,0.6,0.9,1,1.1c0.5,0.2,1,0.3,1.5,0.1c0.5-0.2,0.9-0.5,1.1-1c0.2-0.5,0.3-1,0.1-1.5l-1.4-4
		c-0.4-1-1.5-1.6-2.5-1.2c-0.5,0.2-0.9,0.5-1.1,1c-0.2,0.5-0.3,1-0.1,1.5L200.9,38.5z"/>
	<path class="st1" d="M190.6,172.9l-4,1.4c-1,0.4-1.6,1.5-1.2,2.5c0.2,0.5,0.6,0.9,1,1.1c0.5,0.2,1,0.3,1.5,0.1l4-1.4
		c1-0.4,1.6-1.5,1.2-2.5C192.8,173.1,191.6,172.6,190.6,172.9"/>
	<path class="st1" d="M203.4,172.1c0.5,0.2,1,0.3,1.5,0.1l4-1.4c1-0.4,1.6-1.5,1.2-2.5s-1.5-1.6-2.5-1.2l-4,1.4
		c-1,0.4-1.6,1.5-1.2,2.5C202.6,171.5,203,171.9,203.4,172.1"/>
	<path class="st1" d="M203.3,182.5l-1.4-4c-0.4-1-1.5-1.6-2.5-1.2c-1,0.4-1.6,1.5-1.2,2.5l1.4,4c0.2,0.5,0.6,0.9,1,1.1
		c0.5,0.2,1,0.3,1.5,0.1c0.5-0.2,0.9-0.5,1.1-1C203.4,183.6,203.5,183,203.3,182.5"/>
	<path class="st1" d="M196,161.3c-0.4-1-1.5-1.6-2.5-1.2c-1,0.4-1.6,1.5-1.2,2.5l1.4,4c0.2,0.5,0.6,0.9,1,1.1c0.5,0.2,1,0.3,1.5,0.1
		c1-0.4,1.6-1.5,1.2-2.5L196,161.3z"/>
	<path class="st1" d="M42.7,20.3l-4,1.4c-0.5,0.2-0.9,0.5-1.1,1c-0.2,0.5-0.3,1-0.1,1.5c0.2,0.5,0.6,0.9,1,1.1
		c0.5,0.2,1,0.3,1.5,0.1l4-1.4c1-0.4,1.6-1.5,1.2-2.5C44.9,20.5,43.7,20,42.7,20.3"/>
	<path class="st1" d="M55.6,19.5c0.5,0.2,1,0.3,1.5,0.1l4-1.4c0.5-0.2,0.9-0.5,1.1-1c0.2-0.5,0.3-1,0.1-1.5c-0.4-1-1.5-1.6-2.5-1.2
		l-4,1.4c-1,0.4-1.6,1.5-1.2,2.5C54.7,18.9,55.1,19.3,55.6,19.5"/>
	<path class="st1" d="M52.7,32.4c0.5,0.2,1,0.3,1.5,0.1c1-0.4,1.6-1.5,1.2-2.5l-1.4-4c-0.4-1-1.5-1.6-2.5-1.2
		c-1,0.4-1.6,1.5-1.2,2.5l1.4,4C51.8,31.7,52.2,32.1,52.7,32.4"/>
	<path class="st1" d="M48.1,8.7L48.1,8.7c-0.4-1-1.5-1.6-2.5-1.2C44.6,7.9,44,9,44.4,10l1.4,4c0.2,0.5,0.6,0.9,1,1.1
		c0.5,0.2,1,0.3,1.5,0.1c1-0.4,1.6-1.5,1.2-2.5L48.1,8.7z"/>
</g>
</svg>
