<svg id="Group_35" data-name="Group 35" xmlns="http://www.w3.org/2000/svg" width="110.178" height="26.636" viewBox="0 0 110.178 26.636">
  <g id="Group_33" data-name="Group 33" transform="translate(35.253 4.495)">
    <path id="Path_82" data-name="Path 82" d="M349.579,187.518h-3.518a.356.356,0,0,0-.356.356v7.566a.816.816,0,0,1-.218.552,2.923,2.923,0,0,1-2.377,1.132c-1.488,0-1.954-.725-1.954-2.347v-6.9a.356.356,0,0,0-.356-.356h-3.518a.355.355,0,0,0-.355.356v7.394c0,3.158,1.332,5.109,4.485,5.109a6.191,6.191,0,0,0,4.4-1.774.255.255,0,0,1,.423.125l.243.972a.4.4,0,0,0,.388.374h2.623a.449.449,0,0,0,.449-.449V187.874A.356.356,0,0,0,349.579,187.518Z" transform="translate(-318.669 -182.386)" fill="#f3f3f3"/>
    <path id="Path_83" data-name="Path 83" d="M417.537,173.461a.547.547,0,0,1,.054-.725l4.444-4.32a.261.261,0,0,0-.182-.448h-3.792a.415.415,0,0,0-.294.122l-4.524,4.413a.253.253,0,0,1-.43-.181v-9.069a.416.416,0,0,0-.416-.416H409a.416.416,0,0,0-.416.416v16.856a.416.416,0,0,0,.416.416h3.4a.416.416,0,0,0,.416-.416v-2.394a.789.789,0,0,1,.239-.566l1.379-1.34a.426.426,0,0,1,.646.061l3.048,4.352a.709.709,0,0,0,.581.3h3.488a.362.362,0,0,0,.288-.581Z" transform="translate(-375.427 -162.836)" fill="#f3f3f3"/>
    <path id="Path_84" data-name="Path 84" d="M478.927,186.059c-3.666,0-7.1,2.409-7.1,6.587s3.433,6.575,7.1,6.575,7.1-2.409,7.1-6.575S482.593,186.059,478.927,186.059Zm0,10.082c-1.851,0-2.771-1.367-2.771-3.495s.92-3.507,2.771-3.507,2.771,1.373,2.771,3.507S480.779,196.141,478.927,196.141Z" transform="translate(-425.522 -181.231)" fill="#f3f3f3"/>
    <path id="Path_85" data-name="Path 85" d="M554.9,186.059a6.9,6.9,0,0,0-4.5,1.714.234.234,0,0,1-.374-.121l-.249-.915a.458.458,0,0,0-.451-.375h-2.6a.458.458,0,0,0-.458.458v11.651a.446.446,0,0,0,.446.446h3.336a.446.446,0,0,0,.446-.446V190.8a.514.514,0,0,1,.18-.392,3.7,3.7,0,0,1,2.535-1.1c1.46,0,1.969.719,1.969,2.347v6.813a.446.446,0,0,0,.446.446h3.336a.446.446,0,0,0,.446-.446v-7.3C559.405,188.01,558.03,186.059,554.9,186.059Z" transform="translate(-484.481 -181.231)" fill="#f3f3f3"/>
    <path id="Path_86" data-name="Path 86" d="M268.393,168.556l-4.563-.013a.5.5,0,0,0-.41.213l-4.114,5.911a.6.6,0,0,1-.981,0l-4.081-5.86a.587.587,0,0,0-.48-.252l-4.427-.04a.228.228,0,0,0-.187.358l6.979,9.578a.6.6,0,0,1,.006.679l-3.87,5.558a.213.213,0,0,0,.176.332h4.526a.541.541,0,0,0,.448-.239l11.162-15.87A.228.228,0,0,0,268.393,168.556Z" transform="translate(-249.109 -167.336)" fill="#f3f3f3"/>
  </g>
  <g id="Group_34" data-name="Group 34">
    <path id="Path_87" data-name="Path 87" d="M115.078,153.417a1.074,1.074,0,0,0,.87.446h0a1.073,1.073,0,0,0,.87-.447l6.082-8.487a1.413,1.413,0,0,0,.23-1.132,1.389,1.389,0,0,0-.678-.91,13.332,13.332,0,0,0-13.01.046,1.39,1.39,0,0,0-.672.912,1.416,1.416,0,0,0,.233,1.128Z" transform="translate(-102.67 -141.215)" fill="#f3f3f3"/>
    <path id="Path_88" data-name="Path 88" d="M147.139,175.026a1.408,1.408,0,0,0-2.428-.217l-5.54,7.882-6.1,9.075a1.406,1.406,0,0,0,1.065,2.188c.309.022.622.032.935.032q.17,0,.339,0a13.323,13.323,0,0,0,11.726-18.956Z" transform="translate(-121.754 -167.351)" fill="#f3f3f3"/>
    <path id="Path_89" data-name="Path 89" d="M83.085,176.335a1.407,1.407,0,0,0-2.437.256,13.329,13.329,0,0,0,3.337,15.21,1.42,1.42,0,0,0,1.123.354,1.4,1.4,0,0,0,.99-.607l3.39-5.023a1.077,1.077,0,0,0-.015-1.221Z" transform="translate(-79.554 -168.565)" fill="#f3f3f3"/>
  </g>
</svg>
