<?xml version="1.0" encoding="utf-8"?>
<!-- Generator: Adobe Illustrator 26.4.1, SVG Export Plug-In . SVG Version: 6.00 Build 0)  -->
<svg version="1.1" id="Layer_1" xmlns="http://www.w3.org/2000/svg" xmlns:xlink="http://www.w3.org/1999/xlink" x="0px" y="0px"
	 viewBox="0 0 1791.6 1333.9" style="enable-background:new 0 0 1791.6 1333.9;" xml:space="preserve">
<style type="text/css">
	.st0{fill:#F6F6F6;}
	.st1{fill:#FBCEA3;}
	.st2{fill:#21111D;}
	.st3{fill:#61A3C5;}
	.st4{fill:#103766;}
	.st5{fill:#9C9C9C;}
	.st6{fill:#FEBAC7;}
	.st7{fill:#49263E;}
	.st8{fill:#F9B119;}
	.st9{fill:#94C12D;}
	.st10{fill:#E3000B;}
	.st11{fill:#B1B2B3;}
	.st12{fill:#FEC786;}
	.st13{fill:#F07162;}
</style>
<path class="st0" d="M857.7,1278.2c464.4,0,840.9-8,840.9-17.9c0-9.9-376.5-17.9-840.9-17.9s-840.9,8-840.9,17.9
	C16.7,1270.2,393.2,1278.2,857.7,1278.2"/>
<g>
	<g>
		<g>
			<g>
				<path class="st1" d="M578.7,929.5c0,0,26.2,8.3,41,13.6c9.4,3.3,92.1,5.7,92.1,5.7l0.4-26.1l-77.8-8.8l-36.7-16.2L578.7,929.5z"
					/>
			</g>
		</g>
		<g>
			<g>
				<g>
					<path class="st1" d="M741.5,950.1c0.4-1.3-0.3-2.6-1.6-3.1l-7.7-3c-0.2-0.1-0.4-0.3-0.4-0.6l0,0c0-0.4,0.4-0.7,0.7-0.6
						l11.9,2.8c1.4,0.3,2.5-0.6,2.6-2h0c0.1-1.4-1-2.8-2.4-3.1l-12.1-2.9c-0.3-0.1-0.5-0.3-0.5-0.6l0-0.2c0-0.3,0.3-0.6,0.6-0.6
						l13.8,0.5c1.3,0,2.5-0.9,2.7-2.2c0.1-1.5-1-2.7-2.4-2.8l-13.9-0.5c-0.3,0-0.6-0.3-0.6-0.6l0-0.7c0-0.3,0.2-0.6,0.6-0.6
						l12.9-1.2c1.3-0.1,2.4-1.2,2.4-2.6c0-1.5-1.3-2.6-2.7-2.4c0,0-19.7,0.8-22.8,0.6l4.3-5.8c1-0.9,1.1-2.5,0.1-3.5h0
						c-0.9-1-2.5-1.1-3.5-0.1l-13,9.5c-0.7,0.6-0.7,2.4-0.4,3.9c-1.7,14.7-1.8,16.9-1.9,20.9l15.8,0.1c4.6,0,9.1,0.9,13.3,2.5
						l1.1,0.4C739.6,952.2,741.1,951.5,741.5,950.1z"/>
				</g>
			</g>
		</g>
		<g>
			<g>
				<path class="st2" d="M1145.7,1185.6c0.3,0,0.6-0.3,0.6-0.6V992c0-20.8,17-37.8,37.8-37.8c18.1,0,33.7,12.9,37.1,30.6
					c0.1,0.3,0.4,0.5,0.7,0.5c0.3-0.1,0.5-0.4,0.5-0.7c-3.5-18.3-19.6-31.6-38.3-31.6c-21.5,0-39,17.5-39,39v193
					C1145.1,1185.3,1145.3,1185.6,1145.7,1185.6z"/>
			</g>
			<g>
				<g>
					<path class="st2" d="M1195.8,910.3c0.1,0,0.1,0,0.2,0c0.3-0.1,0.5-0.4,0.4-0.7c-2-7.6,0.4-10.7,0.4-10.7
						c0.2-0.3,0.2-0.6-0.1-0.9c-0.3-0.2-0.6-0.2-0.8,0.1c-0.1,0.1-2.9,3.5-0.7,11.8C1195.3,910.2,1195.5,910.3,1195.8,910.3z"/>
				</g>
			</g>
			<g>
				<g>
					<path class="st2" d="M1201.4,913.3c0.1,0,0.2,0,0.2-0.1c0.3-0.1,0.4-0.5,0.3-0.8c-3.1-7.2-1.2-10.6-1.2-10.7
						c0.2-0.3,0.1-0.7-0.2-0.8c-0.3-0.2-0.7-0.1-0.8,0.2c-0.1,0.2-2.3,3.9,1.1,11.8C1200.9,913.2,1201.1,913.3,1201.4,913.3z"/>
				</g>
			</g>
			<g>
				<g>
					<path class="st2" d="M1237.6,1096.2c0.2,0,0.4-0.1,0.5-0.2l11.5-15.6c0.2-0.3,0.1-0.6-0.1-0.8c-0.3-0.2-0.6-0.1-0.8,0.1
						l-11.5,15.6c-0.2,0.3-0.1,0.6,0.1,0.8C1237.3,1096.1,1237.4,1096.2,1237.6,1096.2z"/>
				</g>
			</g>
			<g>
				<g>
					<path class="st2" d="M1241.3,1104.9c0.2,0,0.4-0.1,0.5-0.2l11.5-15.6c0.2-0.3,0.1-0.6-0.1-0.8c-0.3-0.2-0.6-0.1-0.8,0.1
						l-11.5,15.6c-0.2,0.3-0.1,0.6,0.1,0.8C1241,1104.8,1241.1,1104.9,1241.3,1104.9z"/>
				</g>
			</g>
			<g>
				<g>
					<path class="st2" d="M1169.4,996.4c0.2,0,0.4-0.1,0.5-0.3l10.8-15.6c0.2-0.3,0.1-0.7-0.2-0.8c-0.3-0.2-0.7-0.1-0.8,0.2
						l-10.8,15.6c-0.2,0.3-0.1,0.7,0.2,0.8C1169.2,996.4,1169.3,996.4,1169.4,996.4z"/>
				</g>
			</g>
			<g>
				<g>
					<path class="st2" d="M1172.9,1005.1c0.2,0,0.4-0.1,0.5-0.3l10.8-15.6c0.2-0.3,0.1-0.7-0.2-0.8c-0.3-0.2-0.7-0.1-0.8,0.2
						l-10.8,15.6c-0.2,0.3-0.1,0.7,0.2,0.8C1172.7,1005.1,1172.8,1005.1,1172.9,1005.1z"/>
				</g>
			</g>
			<g>
				<g>
					<g>
						<g>
							<g>
								<rect x="1136.6" y="1085.3" class="st3" width="4.9" height="17.8"/>
							</g>
						</g>
					</g>
				</g>
			</g>
			<g>
				<g>
					<g>
						<g>
							<g>
								<g>
									<g>
										<g>
											<polygon class="st1" points="1153,1249.3 1121.7,1251.4 1126.2,1208.5 1159.8,1216 											"/>
										</g>
									</g>
								</g>
							</g>
						</g>
					</g>
				</g>
			</g>
			<g>
				<g>
					<g>
						<g>
							<g>
								<g>
									<g>
										<g>
											<polygon class="st1" points="1302.3,1247.4 1266.8,1251.4 1266.3,1242.8 1263.3,1212.5 1292.2,1205.6 											"/>
										</g>
									</g>
								</g>
							</g>
						</g>
					</g>
				</g>
			</g>
			<g>
				<path class="st4" d="M1238.1,959.1c0,0,43.9,79.9,44.9,92.4c1,12.5,23,171.3,23,171.3s-26.8,11.5-46.6,6c0,0-29-143.2-35-154.1
					c-9.7-17.5-26.7-57.9-26.7-57.9s1.7,65.5-0.3,74.5c-2,9-29.4,130.7-29.4,130.7s-39.3-0.6-49.3-7.6l17.4-131.5
					c0,0-19-93.4,6.5-128.8C1168.2,918.7,1238.1,959.1,1238.1,959.1z"/>
			</g>
			<g>
				<g>
					<g>
						<g>
							<path class="st1" d="M1070.5,766.8c0.8-0.9,2.3-0.9,3.2-0.1l5.8,4.9c0.2,0.2,0.4,0.2,0.6,0l0,0c0.3-0.2,0.4-0.6,0.1-0.9
								l-7.6-8.3c-0.9-0.9-0.7-2.3,0.4-2.9l0,0c1.1-0.7,2.7-0.4,3.6,0.5l7.8,8.4c0.2,0.2,0.5,0.2,0.7,0.1l0.2-0.1
								c0.3-0.2,0.3-0.5,0.2-0.8l-6.6-10.9c-0.6-1-0.4-2.4,0.6-3.1c1.1-0.8,2.6-0.4,3.3,0.7l6.7,10.9c0.2,0.3,0.5,0.3,0.8,0.2
								l0.5-0.3c0.2-0.1,0.3-0.4,0.2-0.7l-4.8-10.9c-0.5-1.1-0.1-2.5,1-3c1.2-0.6,2.6-0.1,3.2,1.1c0,0,8.2,16.2,9.7,18.6l2.7-6
								c0.3-1.2,1.5-2,2.8-1.7l0,0c1.2,0.3,2,1.5,1.7,2.8l-1.8,14.7c-0.2,0.8-1.6,1.7-2.9,2.1c-11,7.9-12.8,9-15.9,10.9l-7.1-12.6
								c-2.1-3.6-4.8-6.9-8-9.6l-0.8-0.7C1069.7,769.3,1069.6,767.8,1070.5,766.8z"/>
						</g>
					</g>
				</g>
				<g>
					<g>
						<path class="st1" d="M1131.7,864.8c-8.5-3.3-46.8-74.7-46.8-74.7l20.7-12l47.7,58.1C1153.4,836.2,1140.2,868.1,1131.7,864.8z"
							/>
					</g>
				</g>
			</g>
			<g>
				<g>
					<g>
						<g>
							<path class="st1" d="M1343.5,766.8c-0.8-0.9-2.3-0.9-3.2-0.1l-5.8,4.9c-0.2,0.2-0.4,0.2-0.6,0l0,0c-0.3-0.2-0.4-0.6-0.1-0.9
								l7.6-8.3c0.9-0.9,0.7-2.3-0.4-2.9l0,0c-1.1-0.7-2.7-0.4-3.6,0.5l-7.8,8.4c-0.2,0.2-0.5,0.2-0.7,0.1l-0.2-0.1
								c-0.3-0.2-0.3-0.5-0.2-0.8l6.6-10.9c0.6-1,0.4-2.4-0.6-3.1c-1.1-0.8-2.6-0.4-3.3,0.7l-6.7,10.9c-0.2,0.3-0.5,0.3-0.8,0.2
								l-0.5-0.3c-0.2-0.1-0.3-0.4-0.2-0.7l4.8-10.9c0.5-1.1,0.1-2.5-1-3c-1.2-0.6-2.6-0.1-3.2,1.1c0,0-8.2,16.2-9.7,18.6l-2.7-6
								c-0.3-1.2-1.5-2-2.8-1.7l0,0c-1.2,0.3-2,1.5-1.7,2.8l1.8,14.7c0.2,0.8,1.6,1.7,2.9,2.1c11,7.9,12.8,9,15.9,10.9l7.1-12.6
								c2.1-3.6,4.8-6.9,8-9.6l0.8-0.7C1344.4,769.3,1344.5,767.8,1343.5,766.8z"/>
						</g>
					</g>
				</g>
				<g>
					<g>
						<path class="st1" d="M1282.4,864.8c8.5-3.3,46.8-74.7,46.8-74.7l-20.7-12l-47.7,58.1C1260.7,836.2,1273.9,868.1,1282.4,864.8z
							"/>
					</g>
				</g>
			</g>
			<g>
				<path class="st5" d="M1256.1,858.2c0,0,2,33.7,0,40.5c-2,6.7-18,60.4-18,60.4s-56.9,12.7-95.4-5c0,0,15.8-40,15-46.8
					c-0.7-6.9,7.9-50.5,7.9-50.5L1256.1,858.2z"/>
			</g>
			<g>
				<path class="st5" d="M1171.7,856.8c0,0-16.1-23.7-22.3-31.2c0,0-24.3,17.4-30.2,31.1c0,0,27.4,36,46.5,43.9
					C1184.7,908.7,1171.7,856.8,1171.7,856.8z"/>
			</g>
			<g>
				<path class="st5" d="M1244.7,856.5c0,0,12.3-20.2,17.3-28.6c0,0,32.3,8.1,40.4,20.6c0,0-26.4,35.4-49.6,66.6
					C1240.5,931.7,1244.7,856.5,1244.7,856.5z"/>
			</g>
			<g>
				<g>
					<g>
						<path d="M1227.7,817c0,0,3.8-8.9-6.3-16.2c-10.2-7.3-11.7,5.3-15.6,6.5c-3.9,1.2-11-0.1-13.6,7.2c-2.6,7.4-1,12.7-5.1,13.9
							c-4.1,1.2-17.5,11.8-13.9,25.6c3.7,13.7,17.1,12.8,17.1,12.8s52.6,1.5,56-12.2c3.4-13.7-1.8-19.6-8.5-24.1
							C1233.5,827.7,1225.2,825.4,1227.7,817z"/>
					</g>
				</g>
				<g>
					<g>
						<g>
							<path class="st1" d="M1250.3,858.8c-14.5-1.5-31.5-1.9-31.5-1.9s-32.2-2.2-49.4,0.5c5.2,5,21.6,18.7,45.8,17.7
								C1233.1,874.4,1244.3,865.6,1250.3,858.8z"/>
						</g>
					</g>
				</g>
				<g>
					<g>
						<g>
							<g>
								<path class="st1" d="M1222.3,821.4c0,0,4.7,18.6,1.9,23.2c0,0-1.3,2.4-5,2.8l1.2,11.8l-16.7,1.7l-3.8-38.8L1222.3,821.4z"/>
							</g>
						</g>
					</g>
					<g>
						<g>
							<g>
								<path class="st1" d="M1204.5,835.4c0.3,2.6-1.7,5-4.3,5.2c-2.6,0.3-5-1.7-5.2-4.3c-0.3-2.6,1.7-5,4.3-5.2
									C1201.9,830.9,1204.2,832.8,1204.5,835.4z"/>
							</g>
						</g>
					</g>
				</g>
				<g>
					<g>
						<path class="st1" d="M1222.3,821.4c0,0-2.2-7.2-12-7c-9.9,0.2-10.5,7.6-10.5,7.6l11.4,1.2l10.4-1.8L1222.3,821.4z"/>
					</g>
				</g>
				<g>
					<g>
						<path d="M1221.7,815.2c0,0-5.5,6.6-13.5,6c0,0-1.7,9.9-7.4,10c-5.8,0.1-4-13.6-4-13.6s10.3-5.4,10.9-5.5s11.9-1.9,11.9-1.9
							L1221.7,815.2z"/>
					</g>
				</g>
			</g>
			<g>
				<path class="st6" d="M1162.9,899.4c0,0,2.7,3.6,2.8,5.8c0.1,2.2,7.4-5.1,7.3-5.8s-3.7-4.9-3.7-4.9L1162.9,899.4z"/>
			</g>
			<g>
				<path class="st5" d="M1152.5,892.2c0,0,4.8,4.5,5,17.9c0.2,13.4,23-10.1,18.5-13.4c-4.5-3.3-9.4-8.9-11.5-10.4
					C1162.4,884.7,1152.5,892.2,1152.5,892.2z"/>
			</g>
			<g>
				<path class="st5" d="M1250.2,917.3c0,0-8.1,36.2,0,57.9c0,0-27.4,18-52.5,16.8c-25.1-1.3-62.5-12.1-69.2-16.8l27.3-57.9H1250.2z
					"/>
			</g>
			<g>
				<path class="st5" d="M1254.4,855.2c0,0-13.4,1.2-26.3,1c0,0-5.3,5.2-13.3,5c-12-0.4-16.5-5.6-16.5-5.6s-23.2,0-28.5-1.5
					c-5.2-1.4-0.6,15.6,4.4,19.2c4.9,3.6,3.3,13.2,24.9,12.7s25.1,0.7,39.8-4.4c14.6-5,15.1-4.7,17.3-8.4S1254.4,855.2,1254.4,855.2
					z"/>
			</g>
			<g>
				<g>
					<g>
						<g>
							<g>
								<g>
									<g>
										<g>
											<g>
												<path class="st7" d="M1190.8,1258.8l-70.2-0.1l0-14.3c0,0,5.1-6.9,12.9-3.3c0,0,11.7,8.4,22.1-1.7l25.7,11.5
													C1181.3,1250.7,1190.8,1253.9,1190.8,1258.8z"/>
											</g>
										</g>
									</g>
								</g>
							</g>
						</g>
					</g>
				</g>
				<g>
					<g>
						
							<rect x="1114.5" y="1250.1" transform="matrix(2.130952e-03 -1 1 2.130952e-03 -132.2318 2368.2954)" width="12.2" height="0.5"/>
					</g>
				</g>
				<g>
					<g>
						<path d="M1144,1244.5c1,0,1.6-0.1,1.6-0.1l-0.1-0.5c-0.1,0-6.1,0.8-11.9-3.1l-0.3,0.4
							C1137.4,1244.1,1141.7,1244.5,1144,1244.5z"/>
					</g>
				</g>
				<g>
					<g>
						<rect x="1125.1" y="1251.1" transform="matrix(0.5597 -0.8287 0.8287 0.5597 -542.9969 1484.2219)" width="0.5" height="4"/>
					</g>
				</g>
				<g>
					<g>
						<rect x="1127.4" y="1250.5" transform="matrix(0.5609 -0.8279 0.8279 0.5609 -541.7567 1483.6416)" width="0.5" height="4"/>
					</g>
				</g>
				<g>
					<g>
						<path d="M1190.1,1257l0.5-0.2c-0.1-0.1-1.5-3-6.7-5.3c-5.2-2.2-27.9-12.4-28.2-12.5l-0.2,0.5c0.2,0.1,23,10.2,28.2,12.5
							C1188.7,1254.1,1190.1,1257,1190.1,1257z"/>
					</g>
				</g>
			</g>
			<g>
				<g>
					<g>
						<g>
							<g>
								<g>
									<g>
										<g>
											<g>
												<path class="st7" d="M1336.3,1258.5l-70.2,0.1l0-14.3c0,0,5.1-6.9,12.9-3.4c0,0,11.8,8.3,22.1-1.8l25.8,11.4
													C1326.8,1250.5,1336.3,1253.6,1336.3,1258.5z"/>
											</g>
										</g>
									</g>
								</g>
							</g>
						</g>
					</g>
				</g>
				<g>
					<g>
						<rect x="1265.8" y="1244.3" transform="matrix(1 -1.937230e-03 1.937230e-03 1 -2.4199 2.455)" width="0.5" height="12.2"/>
					</g>
				</g>
				<g>
					<g>
						<path d="M1289.5,1244.4c1,0,1.6-0.1,1.6-0.1l-0.1-0.5c-0.1,0-6.1,0.9-11.9-3.1l-0.3,0.4
							C1282.9,1244,1287.2,1244.4,1289.5,1244.4z"/>
					</g>
				</g>
				<g>
					<g>
						<polygon points="1272.3,1254.4 1272.6,1254 1269.3,1251.8 1269,1252.2 						"/>
					</g>
				</g>
				<g>
					<g>
						<rect x="1272.9" y="1250.5" transform="matrix(0.5575 -0.8302 0.8302 0.5575 -476.3781 1611.2424)" width="0.5" height="4"/>
					</g>
				</g>
				<g>
					<g>
						<path d="M1335.6,1256.7l0.5-0.2c-0.1-0.1-1.5-3-6.8-5.2c-5.2-2.2-28-12.3-28.2-12.4l-0.2,0.5c0.2,0.1,23,10.2,28.2,12.4
							C1334.2,1253.9,1335.6,1256.7,1335.6,1256.7z"/>
					</g>
				</g>
			</g>
		</g>
		<g>
			<g>
				<g>
					<path class="st8" d="M834.7,916.4l27.9,12.4c0,0,6.8,1.4,8.2,10.1c1,6.3,3.9,23.9,5.4,33.1c0.6,3.5,0.9,5.8,0.9,5.8
						c1.5,9.2,4.4,26.8,5.4,33.1c1.4,8.7-4.6,12.2-4.6,12.2l-22.5,20.6L834.7,916.4z"/>
				</g>
			</g>
			<g>
				<g>
					<path class="st4" d="M876.9,1111.1L831,800.7l-156.4,51.7l61.2,413.5l156.4-51.7l103.6-34.3
						C995.8,1179.9,969.9,1087.3,876.9,1111.1z"/>
				</g>
			</g>
			<g>
				<g>
					<path class="st9" d="M628,822.6l35.7,53.3c0,0,5.4,13.6,23.9,13.5c13.4-0.1,50.9-0.5,70.4-0.7c7.4-0.1,12.3-0.1,12.3-0.1
						c19.6-0.2,57-0.6,70.4-0.7c18.5-0.2,23.6-13.9,23.6-13.9l69.1-122.5L628,822.6z"/>
				</g>
			</g>
			<g>
				<g>
					<path class="st9" d="M546.3,584.3l-39.9,50.2c0,0-11.3,9.3-5.5,26.8c4.2,12.7,16,48.3,22.1,66.9c2.3,7,3.8,11.6,3.8,11.6
						c6.1,18.6,17.9,54.1,22.1,66.9c5.8,17.5,20.5,18.3,20.5,18.3l62,16.6L546.3,584.3z"/>
				</g>
			</g>
			<g>
				<g>
					<path class="st9" d="M1165.6,162.6c0,0-119.9,194.8-329.1,281.9C627.2,531.6,523,566.1,523,566.1s-17.1,3.1-10.9,21.7
						c5,15.2,33,99.9,43,130.2c2.2,6.7,3.6,10.8,3.6,10.8c10,30.3,38,115,43,130.2c6.1,18.6,21.7,10.9,21.7,10.9l0.1,0.2
						c0,0,104.3-34.5,324.2-89.3c219.9-54.8,432.3,30.1,432.3,30.1l-95.1-328.1L1165.6,162.6z"/>
				</g>
			</g>
			<g>
				<g>
					<path class="st9" d="M1199.3,122l47.9-5.2l56.5,47.3l50.4,66.9l52.6,107.1l45.8,120l24.1,103.3l13.2,76.1l4.7,94l-9.4,57.2
						l-25.2,39.8l-35.5,2.9l-20.4-4.6l-59.7-51.3l-41.7-63.5l-46.8-82.6c0,0-39.4-94.5-39.9-96.2c-0.6-1.7-32.2-112.6-32.2-112.6
						l-19.4-104.2l-2.3-81l7.1-67.7C1169.2,167.7,1172.9,129.4,1199.3,122z"/>
				</g>
			</g>
			<g>
				<g>
					<path class="st4" d="M811.9,822.5L702.5,491.9C579.2,540.7,517.6,561,517.6,561s-17.7,3.3-11.4,22.6
						c5.2,15.8,34.4,103.9,44.8,135.5c2.3,7,3.7,11.2,3.7,11.2c10.4,31.5,39.6,119.6,44.8,135.5c6.4,19.3,22.6,11.4,22.6,11.4
						l0.1,0.2C622.2,877.3,683.7,856.9,811.9,822.5z"/>
				</g>
			</g>
			<g>
				<g>
					<path class="st9" d="M696.5,578.7l-131.7,43.6c-1.5,0.5-3.1-0.3-3.6-1.8l-2.7-8.2c-0.5-1.5,0.3-3.1,1.8-3.6L692,565.1
						c1.5-0.5,3.1,0.3,3.6,1.8l2.7,8.2C698.8,576.6,698,578.2,696.5,578.7z"/>
				</g>
			</g>
			<g>
				<g>
					<path class="st9" d="M710.7,621.7L579,665.3c-1.5,0.5-3.1-0.3-3.6-1.8l-2.7-8.2c-0.5-1.5,0.3-3.1,1.8-3.6l131.7-43.6
						c1.5-0.5,3.1,0.3,3.6,1.8l2.7,8.2C713,619.6,712.2,621.2,710.7,621.7z"/>
				</g>
			</g>
			<g>
				<g>
					<path class="st9" d="M724.9,664.8l-131.7,43.6c-1.5,0.5-3.1-0.3-3.6-1.8l-2.7-8.2c-0.5-1.5,0.3-3.1,1.8-3.6l131.7-43.6
						c1.5-0.5,3.1,0.3,3.6,1.8l2.7,8.2C727.2,662.7,726.4,664.3,724.9,664.8z"/>
				</g>
			</g>
			<g>
				<g>
					<path class="st9" d="M739.2,707.9l-131.7,43.6c-1.5,0.5-3.1-0.3-3.6-1.8l-2.7-8.2c-0.5-1.5,0.3-3.1,1.8-3.6l131.7-43.6
						c1.5-0.5,3.1,0.3,3.6,1.8l2.7,8.2C741.5,705.7,740.7,707.4,739.2,707.9z"/>
				</g>
			</g>
			<g>
				<g>
					<path class="st9" d="M753.4,750.9l-131.7,43.6c-1.5,0.5-3.1-0.3-3.6-1.8l-2.7-8.2c-0.5-1.5,0.3-3.1,1.8-3.6l131.7-43.6
						c1.5-0.5,3.1,0.3,3.6,1.8l2.7,8.2C755.7,748.8,754.9,750.4,753.4,750.9z"/>
				</g>
			</g>
			<g>
				<g>
					<path class="st10" d="M1394.6,435.8c-12.1-36.4-51.4-56.2-87.8-44.2L1193,429.3c6.6,26.6,14.6,54,23.8,81.9
						c5.7,17.4,11.8,34.3,18.1,50.7l115.6-38.2C1386.9,511.5,1406.7,472.2,1394.6,435.8z"/>
				</g>
			</g>
			<g>
				<g>
					<path class="st4" d="M1249.5,410.6l-60.5,20c6.6,26.6,14.6,54,23.8,81.9c5.7,17.4,11.8,34.3,18.1,50.7l62.3-20.6L1249.5,410.6z
						"/>
				</g>
			</g>
			<g>
				<g>
					<path class="st4" d="M1206.8,107.3c-67.2,22.2-67.3,204.5-0.3,407.2c67,202.7,175.8,349,243,326.7
						c67.2-22.2,67.3-204.5,0.3-407.2S1274,85.1,1206.8,107.3z M1444.1,824.8c-61.6,20.4-163.4-120.1-227.4-313.7
						c-64-193.6-66-367-4.5-387.4s163.4,120.1,227.4,313.7C1503.7,631,1505.7,804.5,1444.1,824.8z"/>
				</g>
			</g>
			<g>
				<g>
					<g>
						<g>
							<g>
								<path class="st4" d="M1602.1,671.6c-3.3-1.7-4.6-5.7-3.1-9.2c1.6-3.6,5.8-5.3,9.4-3.8l102.9,45.2c3.5,1.6,5.1,5.8,3.5,9.4
									s-5.8,5.3-9.4,3.8l-102.9-45.2C1602.4,671.7,1602.3,671.6,1602.1,671.6z"/>
							</g>
						</g>
					</g>
				</g>
			</g>
			<g>
				<g>
					<g>
						<g>
							<g>
								<path class="st4" d="M1639,483.2c-2-1.1-3.5-3.1-3.7-5.6c-0.3-3.9,2.5-7.5,6.4-7.9l112.6-12.6c3.9-0.4,7.3,2.4,7.7,6.3
									c0.3,3.9-2.5,7.5-6.4,7.9L1643,483.9C1641.6,484.1,1640.2,483.8,1639,483.2z"/>
							</g>
						</g>
					</g>
				</g>
			</g>
			<g>
				<g>
					<g>
						<g>
							<g>
								<path class="st4" d="M1581.9,282.5c-0.8-0.4-1.6-1-2.2-1.8c-2.4-3-1.9-7.6,1.1-10.1l88.3-73.4c3.1-2.5,7.5-2.1,10,0.9
									c2.4,3,1.9,7.6-1.1,10.1l-88.3,73.4C1587.4,283.6,1584.4,283.8,1581.9,282.5z"/>
							</g>
						</g>
					</g>
				</g>
			</g>
			<g>
				<g>
					<g>
						<g>
							<g>
								<path class="st4" d="M1447.9,149.3C1447.9,149.2,1447.9,149.2,1447.9,149.3c-3.5-1.9-4.7-6.3-2.8-9.8L1500,38.1
									c1.9-3.5,6.1-4.8,9.5-3c0,0,0.1,0,0.1,0.1c3.4,1.9,4.6,6.2,2.8,9.7l-54.9,101.4C1455.6,149.7,1451.3,151,1447.9,149.3z"/>
							</g>
						</g>
					</g>
				</g>
			</g>
		</g>
		<g>
			<g>
				<g>
					<g>
						<polygon class="st1" points="529.7,1124 533,1248.9 565.9,1249.4 581.9,1124.7 						"/>
					</g>
				</g>
				<g>
					<g>
						<path class="st1" d="M475.7,1078.4l-15,13.6l-82.1,25.4l-10.1,5.2l1.8,20.5l10.9,8.2c0,0,106.8-16.1,112.5-20.6
							c5.7-4.4,16.5-18.4,16.5-18.4s19-28.9,17.4-34.3c-1.6-5.4-17.5-16.2-18.8-16.2C507.5,1061.8,475.7,1078.4,475.7,1078.4z"/>
					</g>
				</g>
				<g>
					<g>
						<path class="st11" d="M596.3,1011.5c0,0-5.5,103.4-10,130.2c0,0-34.9,9.2-104-34.2l14.6-24.6l-23.2,16.9l-12.6-21.9
							c0,0,26.2-37.7,31.6-43.5c0,0-2.1-24.5,12.1-44.4c0,0,51.6-9.7,52.8-9.7C558.8,980.3,596.3,1011.5,596.3,1011.5z"/>
					</g>
				</g>
				<g>
					<g>
						<path class="st1" d="M601.7,902.3c0,0,27.3,2.5,42.9,4.5c9.9,1.3,91.2-14.1,91.2-14.1l-5.2-25.5l-77.9,8.1l-39.3-7.9
							L601.7,902.3z"/>
					</g>
				</g>
				<g>
					<g>
						<g>
							<path class="st1" d="M765.2,887.7c0.1-1.3-0.9-2.5-2.2-2.7l-8.2-1.2c-0.3,0-0.5-0.2-0.5-0.5l0,0c-0.1-0.4,0.2-0.7,0.6-0.7
								l12.2,0.2c1.4,0,2.3-1.1,2.1-2.5v0c-0.2-1.4-1.6-2.5-3-2.6l-12.5-0.2c-0.3,0-0.5-0.2-0.6-0.5l0-0.2c-0.1-0.3,0.2-0.6,0.5-0.7
								l13.6-2.5c1.3-0.2,2.3-1.4,2.1-2.8c-0.2-1.4-1.5-2.4-2.9-2.2l-13.7,2.5c-0.3,0.1-0.6-0.2-0.7-0.5l-0.1-0.6
								c-0.1-0.3,0.1-0.6,0.4-0.7l12.3-3.9c1.3-0.4,2.1-1.7,1.8-3c-0.4-1.4-1.8-2.2-3.2-1.8c0,0-19.1,5-22.2,5.5l2.9-6.6
								c0.8-1.1,0.5-2.7-0.6-3.5l0,0c-1.1-0.8-2.7-0.5-3.5,0.6l-10.7,12.1c-0.5,0.7-0.2,2.5,0.4,3.9c1.5,14.7,1.9,16.9,2.6,20.8
								l15.4-3.3c4.4-1,9-1.1,13.5-0.4l1.1,0.2C763.8,890.1,765.1,889.1,765.2,887.7z"/>
						</g>
					</g>
				</g>
				<g>
					<g>
						<path class="st12" d="M590.1,809.8c0,0,0.3,30.6-4.2,31.4c-4.5,0.8,7.5,25.2,17.4,6.5c3.4-6.6-1.7-36.2-12.7-43.5
							C579.6,796.9,590.1,809.8,590.1,809.8z"/>
					</g>
				</g>
				<g>
					<g>
						<g>
							<path class="st1" d="M590.8,802c0,0,7.6,28,4.5,33.5c0,0-1.5,2.9-5.9,3.6l2.4,16.7l-20.4,0.1l-6.5-47.5c0,0,4.3-12.5,4.4-12
								C569.3,797,590.8,802,590.8,802z"/>
						</g>
					</g>
				</g>
				<g>
					<g>
						<g>
							<g>
								<path class="st1" d="M571.2,825.5c0.4,3.1-1.8,6-4.9,6.4c-3.1,0.4-6-1.8-6.4-4.9c-0.4-3.1,1.8-6,4.9-6.4
									C567.9,820.2,570.8,822.4,571.2,825.5z"/>
							</g>
						</g>
					</g>
					<g>
						<g>
							<g>
								<path class="st13" d="M565.6,829.8c-1.2,0.2-2.1-0.6-2.5-1.5c-0.5-1-0.2-2.1,0.6-2.7c1.1-0.9,2.3-0.6,3-0.3
									c-0.3-0.6-0.8-1-1.3-1.2c-1.2-0.5-2.5,0.2-2.5,0.2c-0.1,0-0.2,0-0.2-0.1c0-0.1,0-0.2,0.1-0.2c0.1,0,1.5-0.7,2.8-0.2
									c0.8,0.3,1.4,0.9,1.7,1.9l0.2,0.6l-0.5-0.4c-0.1,0-1.6-1.2-3,0c-0.8,0.7-0.7,1.7-0.4,2.3c0.3,0.7,1,1.4,2.1,1.3
									c0.1,0,0.2,0.1,0.2,0.2C565.8,829.7,565.7,829.8,565.6,829.8C565.6,829.8,565.6,829.8,565.6,829.8z"/>
							</g>
						</g>
					</g>
				</g>
				<g>
					<g>
						<path class="st1" d="M582.1,803.7l-5.7-6.2c0,0,8.5,4,7.8,4.2C583.6,802,582.1,803.7,582.1,803.7z"/>
					</g>
				</g>
				<g>
					<g>
						<path class="st12" d="M567.1,802.2c0,0,2.7,10.5,28.4,9.5c0,0,4-16.4-15.1-19.5c-19.1-3-19.1,11.4-18.7,11.2
							C562,803.3,567.1,802.2,567.1,802.2z"/>
					</g>
				</g>
				<g>
					<g>
						<path class="st10" d="M504.9,989.3l37.6-120.4c0,0,8-20.2,25.9-17.6s61.1,11.2,61.1,11.2s-0.2,32.1-7,49.1
							c0,0-12.9,0.1-19.7-1.2c0,0-0.9,96.4-1.6,103.1C601.1,1013.5,545.3,1020.3,504.9,989.3z"/>
					</g>
				</g>
				<g>
					<g>
						<g>
							<path class="st7" d="M542.9,1264l45.7-0.1c0.4-0.1,0.8-0.1,1-0.2c4.3-1.3,2.9-4.1,2.9-4.1l-25.7-17.3l-11.9,5.2
								c0,0-19.4,2.9-22.1-2.6l0.2,14.4C533,1259.3,531.5,1263.9,542.9,1264z"/>
						</g>
					</g>
				</g>
				<g>
					<g>
						<g>
							<path class="st7" d="M359.6,1127.3l0,45.7c0.1,0.4,0.1,0.8,0.2,1c1.3,4.3,4.1,2.9,4.1,2.9l17.3-25.6l-5.2-11.9
								c0,0-2.9-19.4,2.6-22.1l-14.4,0.2C364.2,1117.5,359.7,1116,359.6,1127.3z"/>
						</g>
					</g>
				</g>
				<g>
					<g>
						<path class="st12" d="M571.6,807.7c0,0-0.1,3.3-1.6,8.6c0,0,20.3,33.1-7.3,47.3l-3.1,0.3c-15.2,1.6-18.3-20.9-3.2-23.4
							c0.2,0,0.4-0.1,0.5-0.1c0.3,0,0.2-0.9,0.4-0.6c0.3,0.7-6.3-8.4-8.2-25.8c-1.2-10.9,10.7-23.6,20.1-18
							C578.6,801.7,571.6,807.7,571.6,807.7z"/>
					</g>
				</g>
			</g>
		</g>
	</g>
</g>
</svg>
