<?xml version="1.0" encoding="utf-8"?>
<!-- Generator: Adobe Illustrator 26.4.1, SVG Export Plug-In . SVG Version: 6.00 Build 0)  -->
<svg version="1.1" id="Layer_1" xmlns="http://www.w3.org/2000/svg" xmlns:xlink="http://www.w3.org/1999/xlink" x="0px" y="0px"
	 viewBox="0 0 1791.6 1333.9" style="enable-background:new 0 0 1791.6 1333.9;" xml:space="preserve">
<style type="text/css">
	.st0{fill:#F6F6F6;}
	.st1{fill:#FBCEA3;}
	.st2{fill:#21111D;}
	.st3{fill:#61A3C5;}
	.st4{fill:#103766;}
	.st5{fill:#9C9C9C;}
	.st6{fill:#FEBAC7;}
	.st7{fill:#49263E;}
	.st8{fill:#F9B119;}
	.st9{fill:#94C12D;}
	.st10{fill:#E3000B;}
	.st11{fill:#B1B2B3;}
	.st12{fill:#FEC786;}
	.st13{fill:#F07162;}
</style>
<path class="st0" d="M915,1278.2c-464.4,0-840.9-8-840.9-17.9s376.5-17.9,840.9-17.9s840.9,8,840.9,17.9
	C1756,1270.2,1379.5,1278.2,915,1278.2"/>
<g>
	<g>
		<g>
			<g>
				<path class="st1" d="M1194,929.5c0,0-26.2,8.3-41,13.6c-9.4,3.3-92.1,5.7-92.1,5.7l-0.4-26.1l77.8-8.8l36.7-16.2L1194,929.5z"/>
			</g>
		</g>
		<g>
			<g>
				<g>
					<path class="st1" d="M1031.2,950.1c-0.4-1.3,0.3-2.6,1.6-3.1l7.7-3c0.2-0.1,0.4-0.3,0.4-0.6l0,0c0-0.4-0.4-0.7-0.7-0.6
						l-11.9,2.8c-1.4,0.3-2.5-0.6-2.6-2l0,0c-0.1-1.4,1-2.8,2.4-3.1l12.1-2.9c0.3-0.1,0.5-0.3,0.5-0.6v-0.2c0-0.3-0.3-0.6-0.6-0.6
						l-13.8,0.5c-1.3,0-2.5-0.9-2.7-2.2c-0.1-1.5,1-2.7,2.4-2.8l13.9-0.5c0.3,0,0.6-0.3,0.6-0.6v-0.7c0-0.3-0.2-0.6-0.6-0.6
						l-12.9-1.2c-1.3-0.1-2.4-1.2-2.4-2.6c0-1.5,1.3-2.6,2.7-2.4c0,0,19.7,0.8,22.8,0.6l-4.3-5.8c-1-0.9-1.1-2.5-0.1-3.5l0,0
						c0.9-1,2.5-1.1,3.5-0.1l13,9.5c0.7,0.6,0.7,2.4,0.4,3.9c1.7,14.7,1.8,16.9,1.9,20.9l-15.8,0.1c-4.6,0-9.1,0.9-13.3,2.5
						l-1.1,0.4C1033.1,952.2,1031.6,951.5,1031.2,950.1z"/>
				</g>
			</g>
		</g>
		<g>
			<g>
				<path class="st2" d="M627,1185.6c-0.3,0-0.6-0.3-0.6-0.6V992c0-20.8-17-37.8-37.8-37.8c-18.1,0-33.7,12.9-37.1,30.6
					c-0.1,0.3-0.4,0.5-0.7,0.5c-0.3-0.1-0.5-0.4-0.5-0.7c3.5-18.3,19.6-31.6,38.3-31.6c21.5,0,39,17.5,39,39v193
					C627.6,1185.3,627.4,1185.6,627,1185.6z"/>
			</g>
			<g>
				<g>
					<path class="st2" d="M576.9,910.3c-0.1,0-0.1,0-0.2,0c-0.3-0.1-0.5-0.4-0.4-0.7c2-7.6-0.4-10.7-0.4-10.7
						c-0.2-0.3-0.2-0.6,0.1-0.9c0.3-0.2,0.6-0.2,0.8,0.1c0.1,0.1,2.9,3.5,0.7,11.8C577.4,910.2,577.2,910.3,576.9,910.3z"/>
				</g>
			</g>
			<g>
				<g>
					<path class="st2" d="M571.3,913.3c-0.1,0-0.2,0-0.2-0.1c-0.3-0.1-0.4-0.5-0.3-0.8c3.1-7.2,1.2-10.6,1.2-10.7
						c-0.2-0.3-0.1-0.7,0.2-0.8c0.3-0.2,0.7-0.1,0.8,0.2c0.1,0.2,2.3,3.9-1.1,11.8C571.8,913.2,571.6,913.3,571.3,913.3z"/>
				</g>
			</g>
			<g>
				<g>
					<path class="st2" d="M535.1,1096.2c-0.2,0-0.4-0.1-0.5-0.2l-11.5-15.6c-0.2-0.3-0.1-0.6,0.1-0.8c0.3-0.2,0.6-0.1,0.8,0.1
						l11.5,15.6c0.2,0.3,0.1,0.6-0.1,0.8C535.4,1096.1,535.3,1096.2,535.1,1096.2z"/>
				</g>
			</g>
			<g>
				<g>
					<path class="st2" d="M531.4,1104.9c-0.2,0-0.4-0.1-0.5-0.2l-11.5-15.6c-0.2-0.3-0.1-0.6,0.1-0.8c0.3-0.2,0.6-0.1,0.8,0.1
						l11.5,15.6c0.2,0.3,0.1,0.6-0.1,0.8C531.7,1104.8,531.6,1104.9,531.4,1104.9z"/>
				</g>
			</g>
			<g>
				<g>
					<path class="st2" d="M603.3,996.4c-0.2,0-0.4-0.1-0.5-0.3L592,980.5c-0.2-0.3-0.1-0.7,0.2-0.8c0.3-0.2,0.7-0.1,0.8,0.2
						l10.8,15.6c0.2,0.3,0.1,0.7-0.2,0.8C603.5,996.4,603.4,996.4,603.3,996.4z"/>
				</g>
			</g>
			<g>
				<g>
					<path class="st2" d="M599.8,1005.1c-0.2,0-0.4-0.1-0.5-0.3l-10.8-15.6c-0.2-0.3-0.1-0.7,0.2-0.8c0.3-0.2,0.7-0.1,0.8,0.2
						l10.8,15.6c0.2,0.3,0.1,0.7-0.2,0.8C600,1005.1,599.9,1005.1,599.8,1005.1z"/>
				</g>
			</g>
			<g>
				<g>
					<g>
						<g>
							<g>
								<rect x="631.2" y="1085.3" class="st3" width="4.9" height="17.8"/>
							</g>
						</g>
					</g>
				</g>
			</g>
			<g>
				<g>
					<g>
						<g>
							<g>
								<g>
									<g>
										<g>
											<polygon class="st1" points="619.7,1249.3 651,1251.4 646.5,1208.5 612.9,1216 											"/>
										</g>
									</g>
								</g>
							</g>
						</g>
					</g>
				</g>
			</g>
			<g>
				<g>
					<g>
						<g>
							<g>
								<g>
									<g>
										<g>
											<polygon class="st1" points="470.4,1247.4 505.9,1251.4 506.4,1242.8 509.4,1212.5 480.5,1205.6 											"/>
										</g>
									</g>
								</g>
							</g>
						</g>
					</g>
				</g>
			</g>
			<g>
				<path class="st4" d="M534.6,959.1c0,0-43.9,79.9-44.9,92.4s-23,171.3-23,171.3s26.8,11.5,46.6,6c0,0,29-143.2,35-154.1
					c9.7-17.5,26.7-57.9,26.7-57.9s-1.7,65.5,0.3,74.5s29.4,130.7,29.4,130.7s39.3-0.6,49.3-7.6l-17.4-131.5c0,0,19-93.4-6.5-128.8
					C604.5,918.7,534.6,959.1,534.6,959.1z"/>
			</g>
			<g>
				<g>
					<g>
						<g>
							<path class="st1" d="M702.2,766.8c-0.8-0.9-2.3-0.9-3.2-0.1l-5.8,4.9c-0.2,0.2-0.4,0.2-0.6,0l0,0c-0.3-0.2-0.4-0.6-0.1-0.9
								l7.6-8.3c0.9-0.9,0.7-2.3-0.4-2.9l0,0c-1.1-0.7-2.7-0.4-3.6,0.5l-7.8,8.4c-0.2,0.2-0.5,0.2-0.7,0.1l-0.2-0.1
								c-0.3-0.2-0.3-0.5-0.2-0.8l6.6-10.9c0.6-1,0.4-2.4-0.6-3.1c-1.1-0.8-2.6-0.4-3.3,0.7l-6.7,10.9c-0.2,0.3-0.5,0.3-0.8,0.2
								l-0.5-0.3c-0.2-0.1-0.3-0.4-0.2-0.7l4.8-10.9c0.5-1.1,0.1-2.5-1-3c-1.2-0.6-2.6-0.1-3.2,1.1c0,0-8.2,16.2-9.7,18.6l-2.7-6
								c-0.3-1.2-1.5-2-2.8-1.7l0,0c-1.2,0.3-2,1.5-1.7,2.8l1.8,14.7c0.2,0.8,1.6,1.7,2.9,2.1c11,7.9,12.8,9,15.9,10.9l7.1-12.6
								c2.1-3.6,4.8-6.9,8-9.6l0.8-0.7C703,769.3,703.1,767.8,702.2,766.8z"/>
						</g>
					</g>
				</g>
				<g>
					<g>
						<path class="st1" d="M641,864.8c8.5-3.3,46.8-74.7,46.8-74.7l-20.7-12l-47.7,58.1C619.3,836.2,632.5,868.1,641,864.8z"/>
					</g>
				</g>
			</g>
			<g>
				<g>
					<g>
						<g>
							<path class="st1" d="M429.2,766.8c0.8-0.9,2.3-0.9,3.2-0.1l5.8,4.9c0.2,0.2,0.4,0.2,0.6,0l0,0c0.3-0.2,0.4-0.6,0.1-0.9
								l-7.6-8.3c-0.9-0.9-0.7-2.3,0.4-2.9l0,0c1.1-0.7,2.7-0.4,3.6,0.5l7.8,8.4c0.2,0.2,0.5,0.2,0.7,0.1l0.2-0.1
								c0.3-0.2,0.3-0.5,0.2-0.8l-6.6-10.9c-0.6-1-0.4-2.4,0.6-3.1c1.1-0.8,2.6-0.4,3.3,0.7l6.7,10.9c0.2,0.3,0.5,0.3,0.8,0.2
								l0.5-0.3c0.2-0.1,0.3-0.4,0.2-0.7l-4.8-10.9c-0.5-1.1-0.1-2.5,1-3c1.2-0.6,2.6-0.1,3.2,1.1c0,0,8.2,16.2,9.7,18.6l2.7-6
								c0.3-1.2,1.5-2,2.8-1.7l0,0c1.2,0.3,2,1.5,1.7,2.8l-1.8,14.7c-0.2,0.8-1.6,1.7-2.9,2.1c-11,7.9-12.8,9-15.9,10.9l-7.1-12.6
								c-2.1-3.6-4.8-6.9-8-9.6l-0.8-0.7C428.3,769.3,428.2,767.8,429.2,766.8z"/>
						</g>
					</g>
				</g>
				<g>
					<g>
						<path class="st1" d="M490.3,864.8c-8.5-3.3-46.8-74.7-46.8-74.7l20.7-12l47.7,58.1C512,836.2,498.8,868.1,490.3,864.8z"/>
					</g>
				</g>
			</g>
			<g>
				<path class="st5" d="M516.6,858.2c0,0-2,33.7,0,40.5c2,6.7,18,60.4,18,60.4s56.9,12.7,95.4-5c0,0-15.8-40-15-46.8
					c0.7-6.9-7.9-50.5-7.9-50.5L516.6,858.2z"/>
			</g>
			<g>
				<path class="st5" d="M601,856.8c0,0,16.1-23.7,22.3-31.2c0,0,24.3,17.4,30.2,31.1c0,0-27.4,36-46.5,43.9
					C588,908.7,601,856.8,601,856.8z"/>
			</g>
			<g>
				<path class="st5" d="M528,856.5c0,0-12.3-20.2-17.3-28.6c0,0-32.3,8.1-40.4,20.6c0,0,26.4,35.4,49.6,66.6
					C532.2,931.7,528,856.5,528,856.5z"/>
			</g>
			<g>
				<g>
					<g>
						<path d="M545,817c0,0-3.8-8.9,6.3-16.2c10.2-7.3,11.7,5.3,15.6,6.5s11-0.1,13.6,7.2c2.6,7.4,1,12.7,5.1,13.9
							s17.5,11.8,13.9,25.6c-3.7,13.7-17.1,12.8-17.1,12.8s-52.6,1.5-56-12.2s1.8-19.6,8.5-24.1C539.2,827.7,547.5,825.4,545,817z"
							/>
					</g>
				</g>
				<g>
					<g>
						<g>
							<path class="st1" d="M522.4,858.8c14.5-1.5,31.5-1.9,31.5-1.9s32.2-2.2,49.4,0.5c-5.2,5-21.6,18.7-45.8,17.7
								C539.6,874.4,528.4,865.6,522.4,858.8z"/>
						</g>
					</g>
				</g>
				<g>
					<g>
						<g>
							<g>
								<path class="st1" d="M550.4,821.4c0,0-4.7,18.6-1.9,23.2c0,0,1.3,2.4,5,2.8l-1.2,11.8l16.7,1.7l3.8-38.8L550.4,821.4z"/>
							</g>
						</g>
					</g>
					<g>
						<g>
							<g>
								<path class="st1" d="M568.2,835.4c-0.3,2.6,1.7,5,4.3,5.2c2.6,0.3,5-1.7,5.2-4.3c0.3-2.6-1.7-5-4.3-5.2
									C570.8,830.9,568.5,832.8,568.2,835.4z"/>
							</g>
						</g>
					</g>
				</g>
				<g>
					<g>
						<path class="st1" d="M550.4,821.4c0,0,2.2-7.2,12-7c9.9,0.2,10.5,7.6,10.5,7.6l-11.4,1.2l-10.4-1.8H550.4z"/>
					</g>
				</g>
				<g>
					<g>
						<path d="M551,815.2c0,0,5.5,6.6,13.5,6c0,0,1.7,9.9,7.4,10c5.8,0.1,4-13.6,4-13.6s-10.3-5.4-10.9-5.5s-11.9-1.9-11.9-1.9
							L551,815.2z"/>
					</g>
				</g>
			</g>
			<g>
				<path class="st6" d="M609.8,899.4c0,0-2.7,3.6-2.8,5.8c-0.1,2.2-7.4-5.1-7.3-5.8s3.7-4.9,3.7-4.9L609.8,899.4z"/>
			</g>
			<g>
				<path class="st5" d="M620.2,892.2c0,0-4.8,4.5-5,17.9s-23-10.1-18.5-13.4c4.5-3.3,9.4-8.9,11.5-10.4
					C610.3,884.7,620.2,892.2,620.2,892.2z"/>
			</g>
			<g>
				<path class="st5" d="M522.5,917.3c0,0,8.1,36.2,0,57.9c0,0,27.4,18,52.5,16.8c25.1-1.3,62.5-12.1,69.2-16.8l-27.3-57.9H522.5z"
					/>
			</g>
			<g>
				<path class="st5" d="M518.3,855.2c0,0,13.4,1.2,26.3,1c0,0,5.3,5.2,13.3,5c12-0.4,16.5-5.6,16.5-5.6s23.2,0,28.5-1.5
					c5.2-1.4,0.6,15.6-4.4,19.2c-4.9,3.6-3.3,13.2-24.9,12.7s-25.1,0.7-39.8-4.4c-14.6-5-15.1-4.7-17.3-8.4S518.3,855.2,518.3,855.2
					z"/>
			</g>
			<g>
				<g>
					<g>
						<g>
							<g>
								<g>
									<g>
										<g>
											<g>
												<path class="st7" d="M581.9,1258.8l70.2-0.1v-14.3c0,0-5.1-6.9-12.9-3.3c0,0-11.7,8.4-22.1-1.7l-25.7,11.5
													C591.4,1250.7,581.9,1253.9,581.9,1258.8z"/>
											</g>
										</g>
									</g>
								</g>
							</g>
						</g>
					</g>
				</g>
				<g>
					<g>
						<rect x="652" y="1244.3" transform="matrix(1 -2.130947e-03 2.130947e-03 1 -2.663 1.3927)" width="0.5" height="12.2"/>
					</g>
				</g>
				<g>
					<g>
						<path d="M628.7,1244.5c-1,0-1.6-0.1-1.6-0.1l0.1-0.5c0.1,0,6.1,0.8,11.9-3.1l0.3,0.4C635.3,1244.1,631,1244.5,628.7,1244.5z"
							/>
					</g>
				</g>
				<g>
					<g>
						<rect x="645.4" y="1252.8" transform="matrix(0.8287 -0.5597 0.5597 0.8287 -590.4006 576.9971)" width="4" height="0.5"/>
					</g>
				</g>
				<g>
					<g>
						<rect x="643" y="1252.3" transform="matrix(0.8279 -0.5609 0.5609 0.8279 -591.5502 577.3754)" width="4" height="0.5"/>
					</g>
				</g>
				<g>
					<g>
						<path d="M582.6,1257l-0.5-0.2c0.1-0.1,1.5-3,6.7-5.3c5.2-2.2,27.9-12.4,28.2-12.5l0.2,0.5c-0.2,0.1-23,10.2-28.2,12.5
							C584,1254.1,582.6,1257,582.6,1257z"/>
					</g>
				</g>
			</g>
			<g>
				<g>
					<g>
						<g>
							<g>
								<g>
									<g>
										<g>
											<g>
												<path class="st7" d="M436.4,1258.5l70.2,0.1v-14.3c0,0-5.1-6.9-12.9-3.4c0,0-11.8,8.3-22.1-1.8l-25.8,11.4
													C445.9,1250.5,436.4,1253.6,436.4,1258.5z"/>
											</g>
										</g>
									</g>
								</g>
							</g>
						</g>
					</g>
				</g>
				<g>
					<g>
						
							<rect x="500.6" y="1250.2" transform="matrix(1.937226e-03 -1 1 1.937226e-03 -744.7195 1754.6411)" width="12.2" height="0.5"/>
					</g>
				</g>
				<g>
					<g>
						<path d="M483.2,1244.4c-1,0-1.6-0.1-1.6-0.1l0.1-0.5c0.1,0,6.1,0.9,11.9-3.1l0.3,0.4C489.8,1244,485.5,1244.4,483.2,1244.4z"
							/>
					</g>
				</g>
				<g>
					<g>
						<polygon points="500.4,1254.4 500.1,1254 503.4,1251.8 503.7,1252.2 						"/>
					</g>
				</g>
				<g>
					<g>
						<rect x="497.5" y="1252.3" transform="matrix(0.8302 -0.5575 0.5575 0.8302 -613.4581 491.1596)" width="4" height="0.5"/>
					</g>
				</g>
				<g>
					<g>
						<path d="M437.1,1256.7l-0.5-0.2c0.1-0.1,1.5-3,6.8-5.2c5.2-2.2,28-12.3,28.2-12.4l0.2,0.5c-0.2,0.1-23,10.2-28.2,12.4
							C438.5,1253.9,437.1,1256.7,437.1,1256.7z"/>
					</g>
				</g>
			</g>
		</g>
		<g>
			<g>
				<g>
					<path class="st8" d="M938,916.4l-27.9,12.4c0,0-6.8,1.4-8.2,10.1c-1,6.3-3.9,23.9-5.4,33.1c-0.6,3.5-0.9,5.8-0.9,5.8
						c-1.5,9.2-4.4,26.8-5.4,33.1c-1.4,8.7,4.6,12.2,4.6,12.2l22.5,20.6L938,916.4z"/>
				</g>
			</g>
			<g>
				<g>
					<path class="st4" d="M895.8,1111.1l45.9-310.4l156.4,51.7l-61.2,413.5l-156.4-51.7l-103.6-34.3
						C776.9,1179.9,802.8,1087.3,895.8,1111.1z"/>
				</g>
			</g>
			<g>
				<g>
					<path class="st9" d="M1144.7,822.6l-35.7,53.3c0,0-5.4,13.6-23.9,13.5c-13.4-0.1-50.9-0.5-70.4-0.7c-7.4-0.1-12.3-0.1-12.3-0.1
						c-19.6-0.2-57-0.6-70.4-0.7c-18.5-0.2-23.6-13.9-23.6-13.9l-69.1-122.5L1144.7,822.6z"/>
				</g>
			</g>
			<g>
				<g>
					<path class="st9" d="M1226.4,584.3l39.9,50.2c0,0,11.3,9.3,5.5,26.8c-4.2,12.7-16,48.3-22.1,66.9c-2.3,7-3.8,11.6-3.8,11.6
						c-6.1,18.6-17.9,54.1-22.1,66.9c-5.8,17.5-20.5,18.3-20.5,18.3l-62,16.6L1226.4,584.3z"/>
				</g>
			</g>
			<g>
				<g>
					<path class="st9" d="M607.1,162.6c0,0,119.9,194.8,329.1,281.9c209.3,87.1,313.5,121.6,313.5,121.6s17.1,3.1,10.9,21.7
						c-5,15.2-33,99.9-43,130.2c-2.2,6.7-3.6,10.8-3.6,10.8c-10,30.3-38,115-43,130.2c-6.1,18.6-21.7,10.9-21.7,10.9l-0.1,0.2
						c0,0-104.3-34.5-324.2-89.3s-432.3,30.1-432.3,30.1l95.1-328.1L607.1,162.6z"/>
				</g>
			</g>
			<g>
				<g>
					<path class="st9" d="M573.4,122l-47.9-5.2L469,164.1L418.6,231L366,338.1l-45.8,120l-24.1,103.3l-13.2,76.1l-4.7,94l9.4,57.2
						l25.2,39.8l35.5,2.9l20.4-4.6l59.7-51.3l41.7-63.5l46.8-82.6c0,0,39.4-94.5,39.9-96.2c0.6-1.7,32.2-112.6,32.2-112.6
						l19.4-104.2l2.3-81l-7.1-67.7C603.5,167.7,599.8,129.4,573.4,122z"/>
				</g>
			</g>
			<g>
				<g>
					<path class="st4" d="M960.8,822.5l109.4-330.6c123.3,48.8,184.9,69.1,184.9,69.1s17.7,3.3,11.4,22.6
						c-5.2,15.8-34.4,103.9-44.8,135.5c-2.3,7-3.7,11.2-3.7,11.2c-10.4,31.5-39.6,119.6-44.8,135.5c-6.4,19.3-22.6,11.4-22.6,11.4
						l-0.1,0.2C1150.5,877.3,1089,856.9,960.8,822.5z"/>
				</g>
			</g>
			<g>
				<g>
					<path class="st9" d="M1076.2,578.7l131.7,43.6c1.5,0.5,3.1-0.3,3.6-1.8l2.7-8.2c0.5-1.5-0.3-3.1-1.8-3.6l-131.7-43.6
						c-1.5-0.5-3.1,0.3-3.6,1.8l-2.7,8.2C1073.9,576.6,1074.7,578.2,1076.2,578.7z"/>
				</g>
			</g>
			<g>
				<g>
					<path class="st9" d="M1062,621.7l131.7,43.6c1.5,0.5,3.1-0.3,3.6-1.8l2.7-8.2c0.5-1.5-0.3-3.1-1.8-3.6l-131.7-43.6
						c-1.5-0.5-3.1,0.3-3.6,1.8l-2.7,8.2C1059.7,619.6,1060.5,621.2,1062,621.7z"/>
				</g>
			</g>
			<g>
				<g>
					<path class="st9" d="M1047.8,664.8l131.7,43.6c1.5,0.5,3.1-0.3,3.6-1.8l2.7-8.2c0.5-1.5-0.3-3.1-1.8-3.6l-131.7-43.6
						c-1.5-0.5-3.1,0.3-3.6,1.8l-2.7,8.2C1045.5,662.7,1046.3,664.3,1047.8,664.8z"/>
				</g>
			</g>
			<g>
				<g>
					<path class="st9" d="M1033.5,707.9l131.7,43.6c1.5,0.5,3.1-0.3,3.6-1.8l2.7-8.2c0.5-1.5-0.3-3.1-1.8-3.6L1038,694.3
						c-1.5-0.5-3.1,0.3-3.6,1.8l-2.7,8.2C1031.2,705.7,1032,707.4,1033.5,707.9z"/>
				</g>
			</g>
			<g>
				<g>
					<path class="st9" d="M1019.3,750.9l131.7,43.6c1.5,0.5,3.1-0.3,3.6-1.8l2.7-8.2c0.5-1.5-0.3-3.1-1.8-3.6l-131.7-43.6
						c-1.5-0.5-3.1,0.3-3.6,1.8l-2.7,8.2C1017,748.8,1017.8,750.4,1019.3,750.9z"/>
				</g>
			</g>
			<g>
				<g>
					<path class="st10" d="M378.1,435.8c12.1-36.4,51.4-56.2,87.8-44.2l113.8,37.7c-6.6,26.6-14.6,54-23.8,81.9
						c-5.7,17.4-11.8,34.3-18.1,50.7l-115.6-38.2C385.8,511.5,366,472.2,378.1,435.8z"/>
				</g>
			</g>
			<g>
				<g>
					<path class="st4" d="M523.2,410.6l60.5,20c-6.6,26.6-14.6,54-23.8,81.9c-5.7,17.4-11.8,34.3-18.1,50.7l-62.3-20.6L523.2,410.6z
						"/>
				</g>
			</g>
			<g>
				<g>
					<path class="st4" d="M565.9,107.3c67.2,22.2,67.3,204.5,0.3,407.2s-175.8,349-243,326.7C256,819,255.9,636.7,322.9,434
						S498.7,85.1,565.9,107.3z M328.6,824.8C390.2,845.2,492,704.7,556,511.1s66-367,4.5-387.4S397.1,243.8,333.1,437.4
						C269,631,267,804.5,328.6,824.8z"/>
				</g>
			</g>
			<g>
				<g>
					<g>
						<g>
							<g>
								<path class="st4" d="M170.6,671.6c3.3-1.7,4.6-5.7,3.1-9.2c-1.6-3.6-5.8-5.3-9.4-3.8L61.4,703.8c-3.5,1.6-5.1,5.8-3.5,9.4
									s5.8,5.3,9.4,3.8l102.9-45.2C170.3,671.7,170.4,671.6,170.6,671.6z"/>
							</g>
						</g>
					</g>
				</g>
			</g>
			<g>
				<g>
					<g>
						<g>
							<g>
								<path class="st4" d="M133.7,483.2c2-1.1,3.5-3.1,3.7-5.6c0.3-3.9-2.5-7.5-6.4-7.9L18.4,457.1c-3.9-0.4-7.3,2.4-7.7,6.3
									c-0.3,3.9,2.5,7.5,6.4,7.9l112.6,12.6C131.1,484.1,132.5,483.8,133.7,483.2z"/>
							</g>
						</g>
					</g>
				</g>
			</g>
			<g>
				<g>
					<g>
						<g>
							<g>
								<path class="st4" d="M190.8,282.5c0.8-0.4,1.6-1,2.2-1.8c2.4-3,1.9-7.6-1.1-10.1l-88.3-73.4c-3.1-2.5-7.5-2.1-10,0.9
									c-2.4,3-1.9,7.6,1.1,10.1l88.3,73.4C185.3,283.6,188.3,283.8,190.8,282.5z"/>
							</g>
						</g>
					</g>
				</g>
			</g>
			<g>
				<g>
					<g>
						<g>
							<g>
								<path class="st4" d="M324.8,149.3C324.8,149.2,324.8,149.2,324.8,149.3c3.5-1.9,4.7-6.3,2.8-9.8L272.7,38.1
									c-1.9-3.5-6.1-4.8-9.5-3c0,0-0.1,0-0.1,0.1c-3.4,1.9-4.6,6.2-2.8,9.7l54.9,101.4C317.1,149.7,321.4,151,324.8,149.3z"/>
							</g>
						</g>
					</g>
				</g>
			</g>
		</g>
		<g>
			<g>
				<g>
					<g>
						<polygon class="st1" points="1243,1124 1239.7,1248.9 1206.8,1249.4 1190.8,1124.7 						"/>
					</g>
				</g>
				<g>
					<g>
						<path class="st1" d="M1297,1078.4l15,13.6l82.1,25.4l10.1,5.2l-1.8,20.5l-10.9,8.2c0,0-106.8-16.1-112.5-20.6
							c-5.7-4.4-16.5-18.4-16.5-18.4s-19-28.9-17.4-34.3s17.5-16.2,18.8-16.2C1265.2,1061.8,1297,1078.4,1297,1078.4z"/>
					</g>
				</g>
				<g>
					<g>
						<path class="st11" d="M1176.4,1011.5c0,0,5.5,103.4,10,130.2c0,0,34.9,9.2,104-34.2l-14.6-24.6l23.2,16.9l12.6-21.9
							c0,0-26.2-37.7-31.6-43.5c0,0,2.1-24.5-12.1-44.4c0,0-51.6-9.7-52.8-9.7C1213.9,980.3,1176.4,1011.5,1176.4,1011.5z"/>
					</g>
				</g>
				<g>
					<g>
						<path class="st1" d="M1171,902.3c0,0-27.3,2.5-42.9,4.5c-9.9,1.3-91.2-14.1-91.2-14.1l5.2-25.5l77.9,8.1l39.3-7.9L1171,902.3z
							"/>
					</g>
				</g>
				<g>
					<g>
						<g>
							<path class="st1" d="M1007.5,887.7c-0.1-1.3,0.9-2.5,2.2-2.7l8.2-1.2c0.3,0,0.5-0.2,0.5-0.5l0,0c0.1-0.4-0.2-0.7-0.6-0.7
								l-12.2,0.2c-1.4,0-2.3-1.1-2.1-2.5l0,0c0.2-1.4,1.6-2.5,3-2.6l12.5-0.2c0.3,0,0.5-0.2,0.6-0.5v-0.2c0.1-0.3-0.2-0.6-0.5-0.7
								l-13.6-2.5c-1.3-0.2-2.3-1.4-2.1-2.8c0.2-1.4,1.5-2.4,2.9-2.2l13.7,2.5c0.3,0.1,0.6-0.2,0.7-0.5l0.1-0.6
								c0.1-0.3-0.1-0.6-0.4-0.7l-12.3-3.9c-1.3-0.4-2.1-1.7-1.8-3c0.4-1.4,1.8-2.2,3.2-1.8c0,0,19.1,5,22.2,5.5l-2.9-6.6
								c-0.8-1.1-0.5-2.7,0.6-3.5l0,0c1.1-0.8,2.7-0.5,3.5,0.6l10.7,12.1c0.5,0.7,0.2,2.5-0.4,3.9c-1.5,14.7-1.9,16.9-2.6,20.8
								l-15.4-3.3c-4.4-1-9-1.1-13.5-0.4l-1.1,0.2C1008.9,890.1,1007.6,889.1,1007.5,887.7z"/>
						</g>
					</g>
				</g>
				<g>
					<g>
						<path class="st12" d="M1182.6,809.8c0,0-0.3,30.6,4.2,31.4c4.5,0.8-7.5,25.2-17.4,6.5c-3.4-6.6,1.7-36.2,12.7-43.5
							S1182.6,809.8,1182.6,809.8z"/>
					</g>
				</g>
				<g>
					<g>
						<g>
							<path class="st1" d="M1181.9,802c0,0-7.6,28-4.5,33.5c0,0,1.5,2.9,5.9,3.6l-2.4,16.7l20.4,0.1l6.5-47.5c0,0-4.3-12.5-4.4-12
								C1203.4,797,1181.9,802,1181.9,802z"/>
						</g>
					</g>
				</g>
				<g>
					<g>
						<g>
							<g>
								<path class="st1" d="M1201.5,825.5c-0.4,3.1,1.8,6,4.9,6.4c3.1,0.4,6-1.8,6.4-4.9c0.4-3.1-1.8-6-4.9-6.4
									C1204.8,820.2,1201.9,822.4,1201.5,825.5z"/>
							</g>
						</g>
					</g>
					<g>
						<g>
							<g>
								<path class="st13" d="M1207.1,829.8c1.2,0.2,2.1-0.6,2.5-1.5c0.5-1,0.2-2.1-0.6-2.7c-1.1-0.9-2.3-0.6-3-0.3
									c0.3-0.6,0.8-1,1.3-1.2c1.2-0.5,2.5,0.2,2.5,0.2c0.1,0,0.2,0,0.2-0.1s0-0.2-0.1-0.2s-1.5-0.7-2.8-0.2
									c-0.8,0.3-1.4,0.9-1.7,1.9l-0.2,0.6l0.5-0.4c0.1,0,1.6-1.2,3,0c0.8,0.7,0.7,1.7,0.4,2.3c-0.3,0.7-1,1.4-2.1,1.3
									c-0.1,0-0.2,0.1-0.2,0.2C1206.9,829.7,1207,829.8,1207.1,829.8L1207.1,829.8z"/>
							</g>
						</g>
					</g>
				</g>
				<g>
					<g>
						<path class="st1" d="M1190.6,803.7l5.7-6.2c0,0-8.5,4-7.8,4.2C1189.1,802,1190.6,803.7,1190.6,803.7z"/>
					</g>
				</g>
				<g>
					<g>
						<path class="st12" d="M1205.6,802.2c0,0-2.7,10.5-28.4,9.5c0,0-4-16.4,15.1-19.5c19.1-3,19.1,11.4,18.7,11.2
							C1210.7,803.3,1205.6,802.2,1205.6,802.2z"/>
					</g>
				</g>
				<g>
					<g>
						<path class="st10" d="M1267.8,989.3l-37.6-120.4c0,0-8-20.2-25.9-17.6s-61.1,11.2-61.1,11.2s0.2,32.1,7,49.1
							c0,0,12.9,0.1,19.7-1.2c0,0,0.9,96.4,1.6,103.1C1171.6,1013.5,1227.4,1020.3,1267.8,989.3z"/>
					</g>
				</g>
				<g>
					<g>
						<g>
							<path class="st7" d="M1229.8,1264l-45.7-0.1c-0.4-0.1-0.8-0.1-1-0.2c-4.3-1.3-2.9-4.1-2.9-4.1l25.7-17.3l11.9,5.2
								c0,0,19.4,2.9,22.1-2.6l-0.2,14.4C1239.7,1259.3,1241.2,1263.9,1229.8,1264z"/>
						</g>
					</g>
				</g>
				<g>
					<g>
						<g>
							<path class="st7" d="M1413.1,1127.3v45.7c-0.1,0.4-0.1,0.8-0.2,1c-1.3,4.3-4.1,2.9-4.1,2.9l-17.3-25.6l5.2-11.9
								c0,0,2.9-19.4-2.6-22.1l14.4,0.2C1408.5,1117.5,1413,1116,1413.1,1127.3z"/>
						</g>
					</g>
				</g>
				<g>
					<g>
						<path class="st12" d="M1201.1,807.7c0,0,0.1,3.3,1.6,8.6c0,0-20.3,33.1,7.3,47.3l3.1,0.3c15.2,1.6,18.3-20.9,3.2-23.4
							c-0.2,0-0.4-0.1-0.5-0.1c-0.3,0-0.2-0.9-0.4-0.6c-0.3,0.7,6.3-8.4,8.2-25.8c1.2-10.9-10.7-23.6-20.1-18
							C1194.1,801.7,1201.1,807.7,1201.1,807.7z"/>
					</g>
				</g>
			</g>
		</g>
	</g>
</g>
</svg>
