<?xml version="1.0" encoding="utf-8"?>
<!-- Generator: Adobe Illustrator 25.4.1, SVG Export Plug-In . SVG Version: 6.00 Build 0)  -->
<svg version="1.1" id="Ebene_1" xmlns="http://www.w3.org/2000/svg" xmlns:xlink="http://www.w3.org/1999/xlink" x="0px" y="0px"
	 viewBox="0 0 507 602.1" style="enable-background:new 0 0 507 602.1;" xml:space="preserve">
<style type="text/css">
	.st0{fill:#1A3966;}
	.st1{fill:#99C31C;}
	.st2{fill:#C41721;}
	.st3{fill:#A3A3A2;}
</style>
<polygon class="st0" points="159.4,351.2 159.4,401.4 184.4,376.3 "/>
<polygon class="st1" points="159.4,301 159.4,351.2 184.4,326.1 "/>
<polygon class="st1" points="360,50.2 360,100.3 385.1,75.3 "/>
<polygon class="st1" points="360,301 360,351.2 385.1,326.1 "/>
<polygon class="st2" points="59,301 59,351.2 84.1,326.1 "/>
<polygon class="st0" points="259.7,250.9 259.7,301 284.8,276 "/>
<polygon class="st0" points="259.7,100.3 259.7,150.5 284.8,125.4 "/>
<polygon class="st0" points="460.4,351.2 460.4,401.4 485.5,376.3 "/>
<polygon class="st1" points="460.4,150.5 460.4,200.7 485.5,175.6 "/>
<polygon class="st3" points="460.4,451.6 460.4,501.7 485.5,476.6 "/>
<polygon class="st2" points="460.4,100.3 460.4,150.5 485.5,125.4 "/>
<polygon class="st0" points="209.5,351.2 209.5,401.4 234.6,376.3 "/>
<polygon class="st2" points="209.5,50.2 209.5,100.3 234.6,75.3 "/>
<polygon class="st0" points="209.5,200.7 209.5,250.9 234.6,225.8 "/>
<polygon class="st3" points="410.2,150.5 410.2,200.7 435.3,175.6 "/>
<polygon class="st1" points="410.2,501.7 410.2,551.9 435.3,526.8 "/>
<polygon class="st3" points="109.2,250.9 109.2,301 134.3,276 "/>
<polygon class="st2" points="109.2,301 109.2,351.2 134.3,326.1 "/>
<polygon class="st0" points="309.9,0 309.9,50.2 335,25.1 "/>
<polygon class="st0" points="309.9,401.4 309.9,451.6 335,426.5 "/>
<polygon class="st2" points="309.9,200.7 309.9,250.9 335,225.8 "/>
<polygon class="st0" points="309.9,100.3 309.9,150.5 335,125.4 "/>
<polygon class="st1" points="309.9,301 309.9,351.2 335,326.1 "/>
<polygon class="st0" points="159.4,401.4 209.5,401.4 184.4,376.3 "/>
<polygon class="st2" points="159.4,200.7 209.5,200.7 184.4,175.6 "/>
<polygon class="st0" points="159.4,250.9 209.5,250.9 184.4,225.8 "/>
<polygon class="st1" points="360,100.3 410.2,100.3 385.1,75.3 "/>
<polygon class="st2" points="59,351.2 109.2,351.2 84.1,326.1 "/>
<polygon class="st0" points="259.7,301 309.9,301 284.8,276 "/>
<polygon class="st1" points="259.7,351.2 309.9,351.2 284.8,326.1 "/>
<polygon class="st0" points="460.4,401.4 509.7,401.4 509.7,400.5 485.5,376.3 "/>
<polygon class="st1" points="460.4,200.7 509.7,200.7 509.7,199.8 485.5,175.6 "/>
<polygon class="st2" points="460.4,602.1 509.7,602.1 509.7,601.2 485.5,577 "/>
<polygon class="st3" points="460.4,501.7 509.7,501.7 509.7,500.9 485.5,476.6 "/>
<polygon class="st2" points="460.4,150.5 509.7,150.5 509.7,149.7 485.5,125.4 "/>
<polygon class="st0" points="410.2,401.4 460.4,401.4 435.3,376.3 "/>
<polygon class="st1" points="410.2,200.7 460.4,200.7 435.3,175.6 "/>
<polygon class="st0" points="410.2,301 460.4,301 435.3,276 "/>
<polygon class="st2" points="410.2,50.2 460.4,50.2 435.3,25.1 "/>
<polygon class="st0" points="109.2,401.4 159.4,401.4 134.3,376.3 "/>
<polygon class="st2" points="109.2,351.2 159.4,351.2 134.3,326.1 "/>
<polygon class="st2" points="309.9,200.7 360,200.7 335,175.6 "/>
<polygon class="st0" points="309.9,50.2 360,50.2 335,25.1 "/>
<polygon class="st2" points="309.9,250.9 360,250.9 335,225.8 "/>
<polygon class="st0" points="309.9,150.5 360,150.5 335,125.4 "/>
<polygon class="st1" points="309.9,351.2 360,351.2 335,326.1 "/>
<polygon class="st0" points="209.5,401.4 209.5,351.2 184.4,376.3 "/>
<polygon class="st2" points="209.5,200.7 209.5,150.5 184.4,175.6 "/>
<polygon class="st0" points="209.5,250.9 209.5,200.7 184.4,225.8 "/>
<polygon class="st3" points="410.2,200.7 410.2,150.5 385.1,175.6 "/>
<polygon class="st3" points="109.2,301 109.2,250.9 84.1,276 "/>
<polygon class="st2" points="109.2,351.2 109.2,301 84.1,326.1 "/>
<polygon class="st1" points="309.9,351.2 309.9,301 284.8,326.1 "/>
<polygon class="st2" points="485.5,577 509.7,601.2 509.7,552.8 "/>
<polygon class="st2" points="485.5,276 509.7,300.2 509.7,251.7 "/>
<polygon class="st2" points="485.5,125.4 509.7,149.7 509.7,101.2 "/>
<polygon class="st2" points="59,351.2 59,301 33.9,326.1 "/>
<polygon class="st0" points="259.7,150.5 259.7,100.3 234.6,125.4 "/>
<polygon class="st0" points="460.4,401.4 460.4,351.2 435.3,376.3 "/>
<polygon class="st1" points="460.4,200.7 460.4,150.5 435.3,175.6 "/>
<polygon class="st0" points="460.4,301 460.4,250.9 435.3,276 "/>
<polygon class="st2" points="460.4,50.2 460.4,0 435.3,25.1 "/>
<polygon class="st2" points="460.4,150.5 460.4,100.3 435.3,125.4 "/>
<polygon class="st0" points="460.4,351.2 460.4,301 435.3,326.1 "/>
<polygon class="st0" points="159.4,401.4 159.4,351.2 134.3,376.3 "/>
<polygon class="st2" points="360,200.7 360,150.5 335,175.6 "/>
<polygon class="st2" points="360,250.9 360,200.7 335,225.8 "/>
<polygon class="st1" points="360,351.2 360,301 335,326.1 "/>
<polygon class="st0" points="209.5,351.2 159.4,351.2 184.4,376.3 "/>
<polygon class="st0" points="209.5,200.7 159.4,200.7 184.4,225.8 "/>
<polygon class="st1" points="209.5,301 159.4,301 184.4,326.1 "/>
<polygon class="st3" points="410.2,150.5 360,150.5 385.1,175.6 "/>
<polygon class="st1" points="410.2,301 360,301 385.1,326.1 "/>
<polygon class="st3" points="109.2,250.9 59,250.9 84.1,276 "/>
<polygon class="st2" points="109.2,301 59,301 84.1,326.1 "/>
<polygon class="st0" points="309.9,100.3 259.7,100.3 284.8,125.4 "/>
<polygon class="st2" points="460.4,250.9 485.5,276 509.7,251.7 509.7,250.9 "/>
<polygon class="st2" points="460.4,100.3 485.5,125.4 509.7,101.2 509.7,100.3 "/>
<polygon class="st2" points="59,301 8.8,301 33.9,326.1 "/>
<polygon class="st0" points="259.7,351.2 209.5,351.2 234.6,376.3 "/>
<polygon class="st1" points="259.7,150.5 209.5,150.5 234.6,175.6 "/>
<polygon class="st0" points="259.7,100.3 209.5,100.3 234.6,125.4 "/>
<polygon class="st3" points="460.4,150.5 410.2,150.5 435.3,175.6 "/>
<polygon class="st2" points="460.4,100.3 410.2,100.3 435.3,125.4 "/>
<polygon class="st1" points="460.4,501.7 410.2,501.7 435.3,526.8 "/>
<polygon class="st0" points="460.4,301 410.2,301 435.3,326.1 "/>
<polygon class="st3" points="159.4,250.9 109.2,250.9 134.3,276 "/>
<polygon class="st0" points="360,401.4 309.9,401.4 335,426.5 "/>
<polygon class="st2" points="360,200.7 309.9,200.7 335,225.8 "/>
<polygon class="st1" points="360,301 309.9,301 335,326.1 "/>
</svg>
