<?xml version="1.0" encoding="utf-8"?>
<!-- Generator: Adobe Illustrator 26.3.1, SVG Export Plug-In . SVG Version: 6.00 Build 0)  -->
<svg version="1.1" id="Layer_1" xmlns="http://www.w3.org/2000/svg" xmlns:xlink="http://www.w3.org/1999/xlink" x="0px" y="0px"
	 viewBox="0 0 4091.1 1362.7" style="enable-background:new 0 0 4091.1 1362.7;" xml:space="preserve">
<style type="text/css">
	.st0{fill:#FFFFFF;}
	.st1{fill:#FDFAFF;}
	.st2{fill:#9F8EA5;}
	.st3{fill:#776E7A;}
	.st4{fill:#595160;}
	.st5{fill:#F2B170;}
	.st6{fill:#AFA3C1;}
	.st7{fill:#574F5B;}
	.st8{fill:#F3EDF9;}
	.st9{fill:#514B56;}
	.st10{fill:#BFB6C6;}
	.st11{fill:#443D47;}
	.st12{fill:#59515B;}
	.st13{fill:#AA97BA;}
	.st14{fill:#DDD0EF;}
	.st15{fill:#FFEFE1;}
	.st16{fill:#968799;}
	.st17{fill:#655668;}
	.st18{fill:#A694AA;}
	.st19{fill:#716D72;}
	.st20{fill:#FCFCFC;}
	.st21{fill:#6F6970;}
	.st22{fill:#4B464C;}
	.st23{fill:#AFAAB5;}
	.st24{fill:#AA8DA4;}
	.st25{fill:#6F6572;}
	.st26{fill:#9195B7;}
	.st27{fill:#EFE4F4;}
	.st28{opacity:0.19;}
	.st29{fill:#FFF9D9;}
	.st30{fill:#B2AD9A;}
	.st31{fill:#7F7989;}
	.st32{fill:#6B6577;}
	.st33{fill:#5E5A66;}
	.st34{fill:#887CA3;}
	.st35{fill:#A288A8;}
	.st36{opacity:0.29;}
	.st37{fill:#E5CAB5;}
	.st38{fill:#ABA0B5;}
	.st39{fill:#9978A0;}
	.st40{fill:#75507C;}
	.st41{fill:#AD8457;}
	.st42{fill:#877F93;}
	.st43{fill:#7A7582;}
	.st44{opacity:0.58;fill:#382B18;enable-background:new    ;}
	.st45{fill:#5E4A2A;}
	.st46{fill:#B7B6B7;}
	.st47{fill:#886E89;}
	.st48{fill:#6D5872;}
	.st49{fill:#382B18;}
	.st50{fill:#BAACA2;}
	.st51{fill:#878381;}
	.st52{fill:#C6B38B;}
	.st53{fill:#876529;}
	.st54{fill:#6C5C6D;}
	.st55{fill:#FBF3FF;}
	.st56{fill:#544C56;}
	.st57{fill:#FCFAFF;}
	.st58{fill:#7F697F;}
	.st59{fill:#8B768C;}
	.st60{fill:#979DB7;}
	.st61{fill:#737887;}
	.st62{fill:#6D545B;}
	.st63{fill:#705C6F;}
	.st64{fill:#CDCED9;}
	.st65{fill:#A38EA5;}
	.st66{fill:#706072;}
	.st67{fill:#B89EBA;}
	.st68{opacity:0.56;fill:#796F7A;enable-background:new    ;}
	.st69{fill:#C4C6D1;}
	.st70{fill:#83798E;}
	.st71{fill:#C7CEE5;}
	.st72{fill:#747B93;}
	.st73{fill:#727993;}
	.st74{fill:#544D54;}
	.st75{fill:#8F7B91;}
	.st76{fill:#766477;}
	.st77{fill:#555760;}
	.st78{fill:#39323D;}
	.st79{fill:#585C68;}
	.st80{fill:#FFD7B6;}
	.st81{fill:#837689;}
	.st82{fill:#54382A;}
	.st83{fill:#8C6244;}
	.st84{fill:#7A7082;}
	.st85{fill:#766C7A;}
	.st86{fill:#CC8662;}
	.st87{fill:#563C43;}
	.st88{fill:#70697A;}
	.st89{fill:#6D6775;}
	.st90{fill:#F4E6DF;}
	.st91{fill:#7C555E;}
	.st92{fill:#8890A5;}
	.st93{fill:#696E7C;}
	.st94{fill:#B7848E;}
	.st95{fill:#EBEAEC;}
	.st96{fill:#918A91;}
	.st97{fill:#514E51;}
	.st98{fill:#C7B8C9;}
	.st99{fill:#443B44;}
	.st100{fill:#685668;}
	.st101{fill:#FFDFCA;}
	.st102{fill:#EF854B;}
	.st103{fill:#F7C6AA;}
	.st104{fill:#504851;}
	.st105{fill:#5B4C5B;}
	.st106{opacity:0.64;}
	.st107{fill:#8E7691;}
	.st108{fill:#695C6B;}
	.st109{opacity:0.33;}
	.st110{fill:#685D6B;}
	.st111{fill:#FFFCF3;}
	.st112{fill:#9D84A0;}
	.st113{fill:#836C87;}
	.st114{fill:#63596B;}
	.st115{fill:#443547;}
	.st116{fill:#6E6572;}
	.st117{fill:#574B5E;}
	.st118{fill:#332333;}
	.st119{fill:#94869E;}
	.st120{fill:#BA352B;}
	.st121{fill:#FEFDFF;}
	.st122{fill:#821A17;}
	.st123{fill:#513043;}
	.st124{fill:#564C60;}
	.st125{fill:#493339;}
	.st126{fill:#A38DB5;}
	.st127{fill:#655268;}
	.st128{fill:#7D7084;}
	.st129{fill:#88828E;}
	.st130{fill:#9A87A0;}
	.st131{fill:#88798E;}
	.st132{fill:#FCFBE6;}
	.st133{fill:#F2DBAA;}
	.st134{fill:#888EA5;}
	.st135{fill:#968772;}
	.st136{fill:#FCE4BE;}
	.st137{opacity:0.35;}
	.st138{fill:#F9F9F9;}
	.st139{fill:#E8D2B3;}
	.st140{fill:#6D655C;}
	.st141{fill:#F9E5CD;}
	.st142{fill:#6D645A;}
	.st143{fill:#FCF1E3;}
	.st144{fill:#70665C;}
	.st145{fill:#4E3760;}
	.st146{fill:#2D2238;}
	.st147{fill:#6E5189;}
	.st148{fill:#443751;}
	.st149{fill:#57436D;}
	.st150{fill:#F9F9EF;}
	.st151{fill:#CCCBA3;}
	.st152{fill:#332744;}
	.st153{fill:#47365B;}
	.st154{fill:#44591E;}
	.st155{fill:#77871A;}
	.st156{opacity:0.38;fill:#99A52D;enable-background:new    ;}
	.st157{fill:#543723;}
	.st158{fill:#3A2516;}
	.st159{fill:#935B34;}
	.st160{fill:#5A6D16;}
	.st161{fill:#84A037;}
	.st162{fill:#677F1D;}
	.st163{fill:#CCC6B8;}
	.st164{fill:#FFEEC2;}
	.st165{fill:#3A2D09;}
	.st166{fill:#211A09;}
	.st167{fill:#FCF8F7;}
	.st168{fill:#565E28;}
	.st169{fill:#5E2419;}
	.st170{fill:#7C8C50;}
</style>
<g>
	<g>
		<g>
			<path class="st0" d="M1583.7,626.3c3.1-2.3,4.8-5.1,4.8-8c-0.1-7.9-13.3-14.4-30.3-15.5c-1.2-3.6-2.9-7-5.1-10.1
				c1.1-4.7,1.6-9.6,1.5-14.7c-0.5-30.8-23.5-55.7-51.4-55.7c-1.4,0-2.8,0.1-4.2,0.2c25.9,2.3,46.7,26.3,47.2,55.5
				c0.1,5.1-0.5,10-1.5,14.7c2.1,3.1,3.8,6.5,5.1,10.1c17,1.1,30.1,7.6,30.3,15.5c0.1,2.9-1.7,5.7-4.8,8c13.2,0.2,23.8,4.4,23.9,9.6
				c0.1,4.8-8.7,8.7-20.2,9.5c1.4,0.1,2.8,0.1,4.2,0.1c13.6,0,24.5-4.3,24.4-9.6C1607.5,630.7,1596.8,626.4,1583.7,626.3z"/>
		</g>
		<g>
			<g>
				<polygon class="st1" points="2788.4,1143.4 3042,1156.7 3042,494.7 2788.4,494.7 				"/>
			</g>
			<g>
				<polygon class="st2" points="2140.9,858.4 2242.2,832.6 2242.2,1001.3 2140.9,974.8 				"/>
			</g>
			<g>
				<path class="st3" d="M2185.2,867.8v118.6l35.9,9.4v-128c0-11.6-10.9-20.2-22.2-17.4l0,0C2190.9,852.3,2185.2,859.5,2185.2,867.8
					z"/>
				<path class="st3" d="M2148.6,875.2v101.6l31.8,8.3v-110c0-10.3-9.7-17.9-19.7-15.5l0,0C2153.6,861.5,2148.6,867.9,2148.6,875.2z
					"/>
			</g>
			<g>
				<polygon class="st4" points="2434.6,1051.4 2300.9,1016.6 2300.9,678.1 2432.6,688.4 				"/>
			</g>
			<g>
				<polygon class="st2" points="2300.9,810.8 2364.7,787.7 2364.7,1033.2 2300.9,1016.6 				"/>
			</g>
			<g>
				<polygon class="st5" points="2467.2,559 2675.2,588.2 2692.2,1108.6 2467.2,1060 				"/>
			</g>
			<g>
				<g>
					<polygon class="st6" points="2789.2,1142.8 2789.2,436.6 3015.5,326.5 3015.5,1201.7 					"/>
					<path class="st7" d="M3014.7,327.7v872.9l-224.7-58.5V437.1L3014.7,327.7L3014.7,327.7z M3016.3,325.2l-227.9,110.9v707.4
						l227.9,59.3V325.2L3016.3,325.2z"/>
				</g>
			</g>
			<g>
				<g>
					<polygon class="st8" points="3017.1,326.1 3293.2,371 3293.2,1142.8 3017.1,1201.7 					"/>
					<path class="st7" d="M3017.9,327.1l274.5,44.6v770.5l-274.5,58.6V327.1L3017.9,327.1z M3016.3,325.2v877.6l277.7-59.3V370.3
						L3016.3,325.2L3016.3,325.2z"/>
				</g>
			</g>
			<g>
				<polygon class="st9" points="2788.4,494.7 2788.4,1143.4 2627,1101.8 2627,564.7 				"/>
			</g>
			<g>
				<polygon class="st10" points="2242.2,715.2 2300.9,678.1 2300.9,1016.6 2242.2,1001.3 				"/>
			</g>
			<g>
				<polygon class="st1" points="3166.7,1242.6 3979.7,1242.6 3979.7,35.6 3167.9,35.6 				"/>
			</g>
			<g>
				<g>
					<polygon class="st10" points="3042.8,1198.4 3042.8,129.3 3167.1,37.2 3165.9,1241.5 					"/>
					<path class="st11" d="M3166.3,38.8l-1.2,1201.6l-121.4-42.6V129.7L3166.3,38.8L3166.3,38.8z M3167.9,35.6L3042,128.9V1199
						l124.7,43.7L3167.9,35.6L3167.9,35.6z"/>
				</g>
			</g>
			<g>
				<g>
					<rect x="3294.8" y="65.2" class="st8" width="684.1" height="1196.9"/>
					<path class="st12" d="M3295.6,1261.3h682.5V66h-682.5V1261.3z M3979.7,64.4H3294v1198.5h685.7V64.4L3979.7,64.4z"/>
				</g>
			</g>
			<g>
				<g>
					<polygon class="st13" points="3197.9,1249.1 3197.9,127.9 3293.2,65.9 3293.2,1262 					"/>
					<path class="st12" d="M3292.4,67.4v1193.7l-93.7-12.7v-1120L3292.4,67.4L3292.4,67.4z M3294,64.4l-96.9,63.1v1122.3l96.9,13.1
						V64.4L3294,64.4z"/>
				</g>
			</g>
			<g>
				<g>
					<rect x="3294.8" y="359.5" class="st1" width="684.1" height="914.8"/>
					<path class="st12" d="M3978.1,360.3v913.1h-682.5V360.3H3978.1L3978.1,360.3z M3979.7,358.6H3294V1275h685.7V358.6
						L3979.7,358.6z"/>
				</g>
			</g>
			<g>
				<g>
					<polygon class="st14" points="3017.1,1202.1 3017.1,458.2 3293.2,359.8 3293.2,1274 					"/>
					<path class="st12" d="M3292.4,360.9v912l-274.5-71.4V458.8L3292.4,360.9L3292.4,360.9z M3294,358.6l-277.7,99v745.1L3294,1275
						V358.6L3294,358.6z"/>
				</g>
			</g>
			<polygon class="st15" points="2627,682.1 2467.2,736.1 2467.2,559 2364.7,602.6 2364.7,1033.2 2467.2,1060 2467.2,1060 
				2627,1101.8 			"/>
			<g>
				<polygon class="st16" points="3017.5,834.9 3290.4,813.7 3290.4,852.9 3017.5,871.6 				"/>
				<path class="st11" d="M3289.2,815v36.7l-270.5,18.5V836L3289.2,815L3289.2,815z M3291.6,812.4l-275.3,21.4v39.1l275.3-18.8
					V812.4L3291.6,812.4z"/>
			</g>
			<g>
				<polygon class="st17" points="3171.6,113.6 3284.6,36.4 3978.8,36.4 3978.1,49 3287.3,49 3171.6,127.2 				"/>
				<path class="st12" d="M3978,37.2l-0.6,11h-689.8h-0.5l-0.4,0.3l-114.2,77.2V114l112.4-76.8L3978,37.2L3978,37.2z M3979.7,35.6
					h-695.4l-113.5,77.6v15.6l116.7-78.9h691.3L3979.7,35.6L3979.7,35.6z"/>
			</g>
			<rect x="3317.6" y="1170.4" class="st18" width="660.5" height="72.3"/>
			<rect x="3319.2" y="884" class="st19" width="327" height="271.1"/>
			<rect x="3691" y="884" class="st19" width="287.1" height="271.1"/>
			<path class="st20" d="M3647.9,882.4h-95.5l0,0h-3.2l0,0h-231.5v274.3h105.8l0,0h3.2l0,0h122.5l0,0h3.2l0,0h95.5V882.4z
				 M3320.9,1153.5V885.6h102.6v267.8H3320.9z M3426.7,1153.5V885.6h122.5v267.8H3426.7z M3644.6,1153.5h-92.2V885.6h92.2V1153.5z"
				/>
			<path class="st20" d="M3979.7,882.4h-70.6l0,0h-3.2l0,0h-107.4l0,0h-3.2l0,0h-105.8v274.3h105.8l0,0h3.2l0,0h107.4l0,0h3.2l0,0
				h70.6V882.4z M3692.6,1153.5V885.6h102.6v267.8H3692.6z M3798.4,1153.5V885.6h107.4v267.8H3798.4z M3976.5,1153.5h-67.4V885.6
				h67.4V1153.5z"/>
			<path class="st21" d="M3413.2,363.5v253h-101.5v-253H3413.2L3413.2,363.5z M3416.5,360.3h-108v259.4h108V360.3L3416.5,360.3z"/>
			<path class="st21" d="M3413.2,636.5v180.8h-101.5V636.5H3413.2L3413.2,636.5z M3416.5,634.2h-108v185.4h108V634.2L3416.5,634.2z"
				/>
			<path class="st21" d="M3613.1,636.5v180.8h-101.5V636.5H3613.1L3613.1,636.5z M3616.3,634.2h-108v185.4h108V634.2L3616.3,634.2z"
				/>
			<path class="st21" d="M3802.4,636.5v180.8h-101.5V636.5H3802.4L3802.4,636.5z M3805.7,634.2h-108v185.4h108V634.2L3805.7,634.2z"
				/>
			<path class="st21" d="M3982.9,636.5v180.8h-101.5V636.5H3982.9L3982.9,636.5z M3986.1,634.2h-108v185.4h108V634.2L3986.1,634.2z"
				/>
			<path class="st21" d="M3613.1,363.5v253h-101.5v-253H3613.1L3613.1,363.5z M3616.3,360.3h-108v259.4h108V360.3L3616.3,360.3z"/>
			<path class="st21" d="M3802.4,363.5v253h-101.5v-253H3802.4L3802.4,363.5z M3805.7,360.3h-108v259.4h108V360.3L3805.7,360.3z"/>
			<path class="st21" d="M3982.9,363.5v253h-101.5v-253H3982.9L3982.9,363.5z M3986.1,360.3h-108v259.4h108V360.3L3986.1,360.3z"/>
			<g>
				<rect x="3295.2" y="617.3" class="st16" width="683.3" height="20.4"/>
				<path class="st22" d="M3977.3,618.7v17.5h-680.8v-17.5H3977.3L3977.3,618.7z M3979.7,615.8H3294v23.3h685.7V615.8L3979.7,615.8z
					"/>
			</g>
			<polygon class="st16" points="3981.2,363.5 3293.8,363.5 3293.2,335.1 3981.6,337.3 			"/>
			<rect x="3339.1" y="64.3" class="st23" width="98.3" height="241.7"/>
			<rect x="3508.3" y="64.3" class="st23" width="98.3" height="248.7"/>
			<polygon class="st23" points="3789.3,309.2 3691,308.5 3691,64.3 3789.3,64.3 			"/>
			<polygon class="st23" points="3952,310.4 3853.7,309.7 3853.7,64.3 3952,64.3 			"/>
			<g>
				<polygon class="st24" points="3287.8,50.6 3978.1,50.6 3978.8,63.6 3293.8,63.6 3196.8,126.7 3173.6,127.8 				"/>
				<path class="st12" d="M3977.4,51.4l0.6,11.4h-684h-0.5l-0.4,0.3l-96.6,62.9l-20.1,1L3288,51.4H3977.4L3977.4,51.4z M3978.9,49.8
					h-691.3l-116.7,79l26.3-1.2l96.9-63.1h685.7L3978.9,49.8L3978.9,49.8z"/>
			</g>
			<g>
				<polygon class="st18" points="3017.1,1202.1 3017.1,873.6 3129,870.3 3129,1231.2 				"/>
				<path class="st22" d="M3128.2,871.1v356.7l-110.3-28.9V874.4L3128.2,871.1L3128.2,871.1z M3129.8,869.4l-113.5,3.4v329.9
					l113.5,27.1V869.4L3129.8,869.4z"/>
			</g>
			<polygon class="st19" points="3149.8,884.3 3274.6,884.3 3274.6,1147.6 3149.8,1129.6 			"/>
			<polygon class="st18" points="3149.8,1155.1 3149.8,1214.7 3274.6,1242.6 3274.6,1170.4 			"/>
			<rect x="3027.6" y="892" class="st25" width="88.1" height="168"/>
			<path class="st25" d="M3115.6,1109.1c0,10.1-2.4,18.3-5.3,18.3c-2.9,0-5.3-8.2-5.3-18.3s2.4-18.3,5.3-18.3
				C3113.2,1090.9,3115.6,1099,3115.6,1109.1z"/>
			<polygon class="st26" points="3030.8,485.6 3271.4,399 3271.4,801 3030.8,816.3 			"/>
			<path class="st27" d="M3268.2,403.6V798L3034,812.8v-325L3268.2,403.6L3268.2,403.6z M3274.6,394.4l-247.1,88.9v336.4l247.1-15.6
				V394.4L3274.6,394.4z"/>
			<g class="st28">
				<path class="st27" d="M3071.6,707.3c-0.2,0-0.5-0.1-0.7-0.2c-0.8-0.4-1.1-1.4-0.7-2.2l132.1-257.9c0.4-0.8,1.4-1.1,2.2-0.7
					c0.8,0.4,1.1,1.4,0.7,2.2L3073,706.4C3072.7,707,3072.2,707.3,3071.6,707.3z"/>
			</g>
			<g class="st28">
				<path class="st27" d="M3061.9,792.7c-0.2,0-0.5,0-0.7-0.2c-0.8-0.4-1.1-1.4-0.7-2.2l179.7-361.8c0.4-0.8,1.4-1.1,2.2-0.7
					c0.8,0.4,1.1,1.4,0.7,2.2l-179.7,361.8C3063.1,792.4,3062.5,792.7,3061.9,792.7z"/>
			</g>
			<g class="st28">
				<path class="st27" d="M3129.8,755.6c-0.2,0-0.4,0-0.7-0.1c-0.8-0.4-1.2-1.3-0.8-2.1l111.8-245c0.4-0.8,1.3-1.2,2.1-0.8
					c0.8,0.4,1.2,1.3,0.8,2.1l-111.8,245C3131,755.3,3130.4,755.6,3129.8,755.6z"/>
			</g>
			<g class="st28">
				<path class="st27" d="M3182,754.8c-0.2,0-0.5,0-0.7-0.2c-0.8-0.4-1.1-1.4-0.7-2.2l63.6-129.7c0.4-0.8,1.4-1.1,2.2-0.7
					c0.8,0.4,1.1,1.4,0.7,2.2l-63.6,129.7C3183.2,754.5,3182.6,754.8,3182,754.8z"/>
			</g>
			<g class="st28">
				<path class="st27" d="M3071.6,611.8c-0.2,0-0.5-0.1-0.7-0.2c-0.8-0.4-1.1-1.4-0.7-2.2l66.1-130.1c0.4-0.8,1.4-1.1,2.2-0.7
					c0.8,0.4,1.1,1.4,0.7,2.2L3073,610.9C3072.8,611.5,3072.2,611.8,3071.6,611.8z"/>
			</g>
			<g>
				<g>
					<g>
						<rect x="3292.8" y="813.6" class="st16" width="693.4" height="39.1"/>
						<path class="st11" d="M3985,814.9v36.7h-691v-36.7H3985L3985,814.9z M3987.4,812.4h-695.8V854h695.8V812.4L3987.4,812.4z"/>
					</g>
				</g>
			</g>
			<polygon class="st29" points="3016.3,872.8 2915.2,947.3 3294,947.3 4003.1,947.3 3987.4,854 3291.6,852.8 			"/>
			<g>
				<polygon class="st30" points="3019.5,128.1 3166.9,17.3 3986.9,22.7 3991.2,34.8 3167.6,34.8 3041.7,128.1 				"/>
				<path class="st7" d="M3167.2,18.1l819.1,5.4l3.7,10.5h-10.4h-811.8h-0.5l-0.4,0.3l-125.5,93h-19.6L3167.2,18.1L3167.2,18.1z
					 M3166.7,16.5l-149.6,112.4h24.9l125.9-93.3h811.8h12.6l-4.9-13.7L3166.7,16.5L3166.7,16.5z"/>
			</g>
			<polygon class="st31" points="3136.1,77.9 3113.5,93.8 3113.5,372.8 3136.1,364.3 			"/>
			<polygon class="st31" points="3113.5,93.8 3094.2,107.4 3094.2,380.1 3113.5,372.8 			"/>
			<polygon class="st31" points="3051.7,137.4 3051.7,396.2 3073.2,388 3073.2,122.2 			"/>
			<polygon class="st31" points="3094.2,107.4 3073.2,122.2 3073.2,388 3094.2,380.1 			"/>
			<polygon class="st31" points="3158.6,61.9 3136.1,77.9 3136.1,364.3 3158.6,355.8 			"/>
			<polygon class="st32" points="3124.2,97.7 3136.1,89.4 3136.1,77.9 3113.5,93.8 3113.5,372.8 3124.2,368.8 			"/>
			<polygon class="st32" points="3104.9,111.4 3113.5,105.3 3113.5,93.8 3094.2,107.4 3094.2,380.1 3104.9,376.1 			"/>
			<polygon class="st32" points="3062.5,141.3 3073.2,133.7 3073.2,122.2 3051.7,137.4 3051.7,396.2 3062.5,392.1 			"/>
			<polygon class="st32" points="3083.9,126.1 3094.2,118.9 3094.2,107.4 3073.2,122.2 3073.2,388 3083.9,384 			"/>
			<polygon class="st32" points="3146.8,81.8 3158.6,73.5 3158.6,61.9 3136.1,77.9 3136.1,364.3 3146.8,360.2 			"/>
			<g>
				<polygon class="st32" points="3016.4,306.2 3040.8,311.4 3040.8,327.9 3016.1,323.9 2788.1,434.9 2767.3,435.3 				"/>
				<path class="st7" d="M3016.6,307.5l23,4.9v14.2l-22.9-3.7l-0.8-0.1l-0.7,0.3l-227.4,110.7l-15.3,0.3L3016.6,307.5L3016.6,307.5z
					 M3016.3,305l-254.1,131.6l26.2-0.5l227.9-110.9l25.7,4.2v-19L3016.3,305L3016.3,305z"/>
			</g>
			<g>
				<polygon class="st33" points="2763.4,411.5 3015.6,281 3040.8,286.1 3040.8,308.9 3016.1,303.7 2763.4,434.6 				"/>
				<path class="st7" d="M3015.8,282.2l23.8,4.8v20.4l-22.8-4.8l-0.9-0.2l-0.8,0.4l-250.6,129.8v-20.3L3015.8,282.2L3015.8,282.2z
					 M3015.5,279.7l-253.3,131.1v25.8l254.1-131.6l25.7,5.4v-25.3L3015.5,279.7L3015.5,279.7z"/>
			</g>
			<polygon class="st34" points="2797.8,447 2863,416.9 2863,686.8 2797.8,705.7 			"/>
			<polygon class="st34" points="2870.8,413.3 2943.6,379.8 2943.6,663.4 2870.8,684.5 			"/>
			<polygon class="st34" points="2954.6,374.7 3009.1,349.5 3009.1,644.4 2954.6,660.2 			"/>
			<polygon class="st33" points="2790,750.3 3014.7,688.8 3014.7,751.2 2790,806 			"/>
			<g>
				<polygon class="st33" points="2901.3,1002.3 2901.3,812.5 3013.9,789.6 3014.3,1017.5 				"/>
				<path class="st20" d="M3012.2,791.6l0.4,224.1l-109.8-14.8V813.8L3012.2,791.6L3012.2,791.6z M3014.7,787.8l-115,23.3v192.5
					l115,15.5V787.8z"/>
			</g>
			<path class="st33" d="M2790.1,871.7c1.1-21.5,16.8-40,38-44.3c3.2-0.7,6.4-1,9.6-1c25.2,0,46.2,20.2,47.4,45.3H2790.1z"/>
			<polygon class="st33" points="2790,1142.2 2790,874.9 2885.2,874.9 2885.2,1167 			"/>
			<polygon class="st30" points="3291.6,852.8 3294,947.3 2915.2,947.3 3018.7,870.3 			"/>
			<path class="st7" d="M2869.6,412.5v273.6l75.2-21.8V377.9L2869.6,412.5z M2942.4,479.6l-26.1,8.8v-94.7l26.1-12V479.6z
				 M2913.1,395.2v94.3l-41.1,13.8v-89.2L2913.1,395.2z M2872,506.6l41.1-13.8V671l-41.1,11.9V506.6z M2916.3,670.1V491.7l26.1-8.8
				v179.5L2916.3,670.1z"/>
			<path class="st7" d="M2953.4,373.9v287.9l56.9-16.5V347.6L2953.4,373.9z M3007.9,457.5l-23.3,7.8V362.2l23.3-10.8V457.5z
				 M2981.4,363.7v102.8l-25.6,8.6v-99.6L2981.4,363.7z M2955.8,478.4l25.6-8.6v181.4l-25.6,7.4V478.4z M2984.6,650.3V468.8
				l23.3-7.8v182.6L2984.6,650.3z"/>
			<path class="st7" d="M2796.6,446.2v261.1l67.7-19.6V415L2796.6,446.2z M2861.8,506.7l-23.5,7.9v-85l23.5-10.8V506.7z
				 M2835.1,431.1v84.6l-36.2,12.2v-80L2835.1,431.1z M2799,531.2l36.2-12.2v174.5l-36.2,10.5V531.2z M2838.4,692.7V518l23.5-7.9
				v175.8L2838.4,692.7z"/>
			<polygon class="st24" points="3005.5,414.5 3293.5,305.7 3978.9,310.6 3978.9,338.4 3294.8,335.8 3005.5,441.9 			"/>
			<path class="st12" d="M3293.5,306.6l684.6,4.8v26.2l-683.3-2.6h-0.3l-0.3,0.1l-287.9,105.6V415L3293.5,306.6L3293.5,306.6z
				 M3293.2,305l-288.5,109V443l290.1-106.4l684.9,2.6v-29.4L3293.2,305L3293.2,305z"/>
			<path class="st20" d="M2857.8,829.2l-2.1-1.1l-0.1,0.2c-5.6-2.2-11.7-3.5-17.9-3.5c-3.2,0-6.6,0.3-9.9,1
				c-22.7,4.6-39,24.4-39.4,47.5h98.4C2886.5,853.4,2874.5,836.8,2857.8,829.2z M2883.4,870.1h-46.1l19.8-37.6
				C2871.5,839.3,2881.9,853.4,2883.4,870.1z M2828.4,829c3.1-0.6,6.2-0.9,9.2-0.9c5.8,0,11.3,1.1,16.4,3.1l-19.5,37.1l-20.2-33.9
				C2818.7,831.8,2823.4,830,2828.4,829z M2811.7,836.1l20.2,34h-40.1C2793,856.2,2800.6,843.7,2811.7,836.1z"/>
			<path class="st20" d="M2886.8,873.3h-98.4c0,0.2,0,0.5,0,0.7v269.4l98.4,25.6V874C2886.8,873.8,2886.8,873.5,2886.8,873.3z
				 M2883.6,876.5v129.3v10.1c0,0-80.1-8.3-92-9.2V876.5H2883.6z"/>
			<path class="st33" d="M2817.6,1021.9l42.7,5.5c1.1,7.5,6.6,13.7,13.8,15.7v89.5c-0.2,0-0.4,0-0.5,0c-5.1,0-9.9,2-13.5,5.6
				c-2.8,2.7-4.6,6.1-5.4,9.8l-42.7-10.1c-0.9-7-5.6-12.9-12.2-15.5v-84.9C2808.7,1037.1,2816,1030.5,2817.6,1021.9L2817.6,1021.9z
				 M2814.7,1018.3c0,9-7.3,16.1-16.1,16.1c-0.7,0-1.4-0.1-2.1-0.1v90.6c7.3,1.7,12.4,8.2,12.4,15.7l48.6,11.5
				c0-9.1,7.4-16.1,16.1-16.1c1.2,0,2.5,0.1,3.8,0.4v-95.8c-8-1-14.1-7.9-14.1-16L2814.7,1018.3L2814.7,1018.3z"/>
			<polygon class="st35" points="2627,564.7 2788.4,494.7 2788.4,513.9 2627,581.5 			"/>
			<g>
				<polygon class="st35" points="2630.2,966.4 2630.2,592.5 2785.2,531.5 2785.2,979.8 				"/>
			</g>
			<path class="st33" d="M2788.4,524.7L2627,588.2v379.1l161.4,14V524.7z M2781.9,749.8l-73.2,10.2v-197l73.2-28.8V749.8z
				 M2702.2,565.5v195.3l-68.8,9.5V592.6L2702.2,565.5z M2633.4,961.4V777l68.8-9.5v199.9L2633.4,961.4z M2708.8,967.9V766.6
				l73.2-10.2v217.8L2708.8,967.9z"/>
			<g class="st36">
				<path class="st0" d="M2643.7,663.3c-0.3,0-0.5-0.1-0.8-0.2c-0.8-0.4-1-1.4-0.6-2.1l36.7-66.1c0.4-0.8,1.4-1,2.1-0.6
					c0.8,0.4,1,1.4,0.6,2.1l-36.7,66.1C2644.8,663,2644.2,663.3,2643.7,663.3z"/>
			</g>
			<g class="st36">
				<path class="st0" d="M2641.4,709.2c-0.2,0-0.5-0.1-0.7-0.2c-0.8-0.4-1.1-1.3-0.6-2.1l53.1-101c0.4-0.8,1.4-1.1,2.1-0.7
					s1.1,1.3,0.6,2.1l-53.1,101C2642.5,708.9,2641.9,709.2,2641.4,709.2z"/>
			</g>
			<g class="st36">
				<path class="st0" d="M2649.9,735.5c-0.2,0-0.5-0.1-0.7-0.2c-0.8-0.4-1.1-1.3-0.7-2.1l43.7-84.8c0.4-0.8,1.3-1.1,2.1-0.7
					c0.8,0.4,1.1,1.3,0.7,2.1l-43.7,84.8C2651.1,735.2,2650.5,735.5,2649.9,735.5z"/>
			</g>
			<g class="st36">
				<path class="st0" d="M2658,754.6c-0.3,0-0.5-0.1-0.8-0.2c-0.8-0.4-1.1-1.4-0.7-2.2l34.2-64.1c0.4-0.8,1.4-1.1,2.2-0.7
					c0.8,0.4,1.1,1.4,0.7,2.2l-34.2,64.1C2659.1,754.3,2658.5,754.6,2658,754.6z"/>
			</g>
			<g class="st36">
				<path class="st0" d="M2719.8,858.4c-0.3,0-0.5-0.1-0.8-0.2c-0.8-0.4-1-1.4-0.6-2.1l36.7-66.1c0.4-0.8,1.4-1,2.1-0.6
					c0.8,0.4,1,1.4,0.6,2.1l-36.7,66.1C2720.8,858.1,2720.3,858.4,2719.8,858.4z"/>
			</g>
			<g class="st36">
				<path class="st0" d="M2717.4,904.3c-0.2,0-0.5-0.1-0.7-0.2c-0.8-0.4-1.1-1.3-0.6-2.1l53.1-101c0.4-0.8,1.4-1,2.1-0.7
					c0.8,0.4,1.1,1.3,0.7,2.1l-53.1,101C2718.5,904,2718,904.3,2717.4,904.3z"/>
			</g>
			<g class="st36">
				<path class="st0" d="M2726,930.6c-0.2,0-0.5-0.1-0.7-0.2c-0.8-0.4-1.1-1.3-0.7-2.1l43.7-84.8c0.4-0.8,1.3-1.1,2.1-0.7
					c0.8,0.4,1.1,1.3,0.7,2.1l-43.7,84.8C2727.1,930.3,2726.6,930.6,2726,930.6z"/>
			</g>
			<g class="st36">
				<path class="st0" d="M2734,949.7c-0.3,0-0.5-0.1-0.8-0.2c-0.8-0.4-1.1-1.4-0.7-2.2l34.2-64.1c0.4-0.8,1.4-1.1,2.2-0.7
					c0.8,0.4,1.1,1.4,0.7,2.2l-34.2,64.1C2735.1,949.4,2734.6,949.7,2734,949.7z"/>
			</g>
			<polygon class="st37" points="2633.4,854.4 2633.4,1103.5 2702.2,1121.2 2702.2,851.9 			"/>
			<polygon class="st38" points="2693.8,976 2693.8,1109.9 2642.1,1098.9 2642.1,971.1 			"/>
			<polygon class="st38" points="2693.8,863.1 2693.8,964.6 2642.1,959 2642.1,863.6 			"/>
			<polygon class="st39" points="2364.7,602.6 2351.2,602.6 2467.2,550.2 2627,572.1 2627,581.5 2467.2,559 			"/>
			<polygon class="st40" points="2233.2,715.4 2242.2,715.2 2300.9,678.1 2364.7,683.1 2364.7,675.5 2300.9,670.2 			"/>
			<path class="st41" d="M2233.1,706l67.8-46.2l63.8,5.6v10.1c-2.2-0.2-63.8-5.2-63.8-5.2l-67.7,45.1L2233.1,706z"/>
			<polygon class="st42" points="2265.3,854.4 2265.3,1007.3 2300.9,1016.6 2300.9,842.6 			"/>
			<polygon class="st43" points="2271.6,1007.3 2271.6,854.4 2300.9,844.7 2300.9,842.6 2265.3,854.4 2265.3,1007.3 2300.9,1016.6 
				2300.9,1015 			"/>
			<path class="st43" d="M2243.8,722.2c2.2-1.1,7.5-4.3,21.4-13v66.2l-21.4,9.8V722.2z"/>
			<path class="st43" d="M2272.8,704.4c10.9-6.9,21.7-13.7,26.5-16.7v72.2l-26.5,12.1V704.4z"/>
			<path class="st43" d="M2243.8,792.7c2.8-1.3,11.6-5.4,21.4-10v65.9l-21.4,7.8V792.7z"/>
			<path class="st43" d="M2272.8,779.2c16.2-7.5,23.4-10.8,26.5-12.2c0,11.7,0,61.2,0,69.3l-26.5,9.6V779.2z"/>
			<polygon class="st44" points="2253.4,737.1 2265.4,730.4 2265.4,727.6 2253.4,734.3 2253.4,716.8 2251,718.2 2251,735.7 
				2243.6,739.8 2243.8,742.4 2251,738.4 2251,782.1 2253.4,781.1 			"/>
			<polygon class="st44" points="2298.8,711.8 2298.4,709.2 2287.2,715.5 2287.2,696.1 2284.8,696.1 2284.8,716.8 2272.1,723.9 
				2271.6,727 2284.8,719.6 2284.8,766.6 2287.2,765.4 2287.2,718.2 			"/>
			<polygon class="st44" points="2265.6,807.4 2265.4,804.8 2253.4,809.8 2253.4,789.2 2251,790.2 2251,810.8 2243.3,813.9 
				2243.5,816.5 2251,813.4 2251,853.6 2253.4,853.1 2253.4,812.4 			"/>
			<polygon class="st44" points="2298.6,793.8 2299,791 2287.2,795.8 2287.2,772.6 2284.8,773.9 2284.8,796.8 2273,801.7 
				2273.1,804.3 2284.8,799.4 2284.8,842.6 2287.2,841.6 2287.2,798.4 			"/>
			<path class="st45" d="M2297.7,690.6v68.2l-23.2,10.6v-64.1C2283.5,699.6,2292.4,694,2297.7,690.6L2297.7,690.6z M2300.9,684.7
				c0,0-14.9,9.5-29.7,18.8v70.9l29.7-13.6V684.7L2300.9,684.7z"/>
			<path class="st45" d="M2263.7,712v62.3l-18.2,8.3v-59.5C2248.1,721.7,2253.1,718.6,2263.7,712L2263.7,712z M2266.9,706.2
				c-12.6,7.9-24.1,15-24.6,15h0v66.5l24.7-11.3V706.2L2266.9,706.2z"/>
			<path class="st45" d="M2263.7,785.3v62.3l-18.2,6.6v-60.4C2248.7,792.3,2255.6,789,2263.7,785.3L2263.7,785.3z M2266.9,780.2
				c-12.9,6-24.7,11.5-24.7,11.5v67.1l24.7-9V780.2L2266.9,780.2z"/>
			<path class="st45" d="M2297.7,769.5v65.7l-23.2,8.5v-63.4C2286.9,774.4,2293.9,771.2,2297.7,769.5L2297.7,769.5z M2300.9,764.5
				c-0.2,0-15,6.9-29.7,13.7v70l29.7-10.8C2300.9,837.4,2300.9,764.7,2300.9,764.5L2300.9,764.5L2300.9,764.5z"/>
			<polygon class="st46" points="2386.7,603.1 2375.4,607.6 2375.4,643.7 2386.7,639.7 			"/>
			<polygon class="st46" points="2375.4,767.1 2375.4,819.5 2386.7,815.6 2386.7,763.2 			"/>
			<polygon class="st46" points="2386.7,641.8 2375.4,645.9 2375.4,693.9 2386.7,690.1 			"/>
			<polygon class="st46" points="2375.4,698.4 2375.4,761.6 2386.7,757.9 2386.7,694.7 			"/>
			<polygon class="st46" points="2402,597 2389.9,601.8 2389.9,638.5 2402,634.2 			"/>
			<polygon class="st46" points="2402,636.3 2389.9,640.6 2389.9,689 2402,684.9 			"/>
			<polygon class="st46" points="2389.9,693.6 2389.9,756.9 2402,753 2402,689.6 			"/>
			<polygon class="st46" points="2389.9,814.5 2402,810.3 2402,757.9 2389.9,762.1 			"/>
			<polygon class="st46" points="2431.8,625.5 2405.2,635.1 2405.2,683.8 2431.8,674.9 			"/>
			<polygon class="st46" points="2405.2,688.5 2405.2,751.9 2431.8,743.3 2431.8,679.6 			"/>
			<polygon class="st46" points="2405.2,809.2 2431.8,800 2431.8,747.5 2405.2,756.7 			"/>
			<polygon class="st46" points="2431.8,585.2 2405.2,595.7 2405.2,633.1 2431.8,623.6 			"/>
			<polygon class="st46" points="2452.9,576.8 2435.8,583.5 2435.8,622.2 2452.9,616.2 			"/>
			<polygon class="st46" points="2452.9,617.9 2435.8,624.1 2435.8,673.6 2452.9,667.8 			"/>
			<polygon class="st46" points="2435.8,678.3 2435.8,742 2452.9,736.5 2452.9,672.6 			"/>
			<polygon class="st46" points="2435.8,798.6 2452.9,792.7 2452.9,740.2 2435.8,746.1 			"/>
			<polygon class="st47" points="2515.6,580.3 2488,575.2 2488,718 2515.6,708.8 			"/>
			<polygon class="st47" points="2557.5,589.6 2529.9,584.5 2529.9,704.1 2557.5,694.9 			"/>
			<polygon class="st47" points="2601.6,598 2574,592.9 2574,689.4 2601.6,680.2 			"/>
			<polygon class="st48" points="2467.2,736.1 2467.2,720.9 2627,663.3 2627,682.1 			"/>
			<g>
				<polygon class="st47" points="2302.5,843.8 2625.4,737.7 2625.4,797 2302.5,876 				"/>
				<path class="st49" d="M2623.8,740v55.8l-319.6,78.1v-29L2623.8,740L2623.8,740z M2627,735.5l-326.1,107.1V878l326.1-79.7V735.5
					L2627,735.5z"/>
			</g>
			<polygon class="st50" points="2364.7,1033.2 2470.5,1060.9 2470.5,845.9 2364.7,870.5 			"/>
			<polygon class="st50" points="2364.7,1033.2 2470.5,1060.9 2470.5,845.9 2364.7,870.5 			"/>
			<polygon class="st51" points="2381.6,877 2470.5,852.5 2470.5,845.9 2364.7,870.5 2364.7,1033.2 2381.6,1037.6 			"/>
			<polygon class="st46" points="2328.7,877.5 2317.4,880.4 2317.4,1020.9 2328.7,1023.8 			"/>
			<polygon class="st46" points="2302.5,884.3 2302.5,1017 2312.6,1019.6 2312.6,881.7 			"/>
			<polygon class="st46" points="2360.1,869.4 2336.7,875.4 2336.7,1025.9 2360.1,1032 			"/>
			<g>
				<polygon class="st46" points="2478.7,1063.3 2478.7,845.2 2534.9,830.7 2534.9,1077.3 				"/>
				<path class="st49" d="M2533.3,832.8v242.4l-53-13.2V846.5L2533.3,832.8L2533.3,832.8z M2536.6,828.7l-59.5,15.3v220.5l59.5,14.8
					V828.7L2536.6,828.7z"/>
			</g>
			<g>
				<polygon class="st46" points="2552.7,1081.7 2552.7,826.2 2625.4,807.4 2625.4,1099.8 				"/>
				<path class="st49" d="M2623.8,809.5v288.2l-69.5-17.3v-253L2623.8,809.5L2623.8,809.5z M2627,805.3l-75.9,19.6v258l75.9,18.9
					V805.3L2627,805.3z"/>
			</g>
			<polygon class="st52" points="2627,775 2789.2,754.5 2789.2,826.4 2627,842.6 			"/>
			<path class="st45" d="M2766.2,766.6c1.5,6.7,7.2,11.8,14.2,12.4V807c-5.9,1.6-10.4,6.5-11.5,12.6l-119.6,10.6
				c-1.4-6.6-6.9-11.6-13.6-12.5v-22.4c5.6-1.8,9.9-6.7,10.9-12.5L2766.2,766.6L2766.2,766.6z M2769.1,763l-125.4,16.9
				c0,6.5-4.8,11.9-11.2,12.8v28.1c0.4,0,0.8-0.1,1.2-0.1c7,0,12.9,5.7,12.9,12.9l125.4-11.1c0-6.7,5.1-12.2,11.8-12.8v-33.9
				c-0.6,0.1-1.2,0.1-1.8,0.1C2774.9,775.9,2769.1,770.2,2769.1,763L2769.1,763z"/>
			<polygon class="st53" points="2627,838.4 2602.6,930.6 2758,930.6 2789.2,826.4 			"/>
			<polygon class="st54" points="2140.9,863.6 2242.2,838.8 2242.2,832.6 2140.9,858.4 			"/>
			<polygon class="st55" points="2148.6,856.4 2148.6,826.4 2242.2,800.2 2242.2,832.6 			"/>
			<polygon class="st56" points="3294.8,336.6 3004.7,443 3016.3,457.7 3294,358.6 			"/>
			<polygon class="st7" points="3042,331 3034.4,329.7 3034.4,283.5 3042,285.1 			"/>
			<polygon class="st4" points="2242.2,1001.3 2237.4,1000.1 2237.4,833.8 2242.2,832.6 			"/>
		</g>
		<g>
			<g>
				<polygon class="st57" points="164.4,1228.9 164.4,169.3 574.5,168.4 574.9,1228.9 				"/>
				<path class="st58" d="M573.7,169.3l2.7,1051.9l-411.2,6.7V170.3L573.7,169.3L573.7,169.3z M575.3,167.4l-411.7,0.9v1061.4
					l412.8-2.9L575.3,167.4L575.3,167.4z"/>
			</g>
		</g>
		<g>
			<polygon class="st59" points="574.5,336.6 163.6,336.6 163.6,322.1 574.5,322.1 			"/>
			<path class="st58" d="M575.4,337.4H162.8v-16.1h412.5L575.4,337.4z M164.4,335.8h409.3l0-12.9H164.4V335.8z M163.6,182.9v-14.5
				V182.9z"/>
		</g>
		<g>
			<g>
				<polygon class="st1" points="624.5,349.7 949,316.2 949,1137.4 624.5,1214.7 				"/>
				<path class="st58" d="M623.6,1217.2V351.3l0.7-0.1l325.4-33.6v819.6l-0.6,0.2L623.6,1217.2z M625.2,352.7v862.4l322.9-79.2
					V319.4L625.2,352.7z"/>
			</g>
			<polygon class="st60" points="924.1,336.6 857.1,343.1 857.1,540.7 924.1,540.7 			"/>
			<polygon class="st60" points="750.8,353.4 686.3,359.7 686.3,540.7 750.8,540.7 			"/>
			<polygon class="st60" points="833.5,345.4 770.1,351.5 770.1,540.7 833.5,540.7 			"/>
			<polygon class="st61" points="857.1,343.1 857.1,351.2 920.7,345 920.7,540.7 924.1,540.7 924.1,336.6 			"/>
			<polygon class="st61" points="686.3,359.7 686.3,367.8 747.4,361.8 747.4,540.7 750.8,540.7 750.8,353.4 			"/>
			<polygon class="st61" points="770.1,351.5 770.1,359.6 830.1,353.8 830.1,540.7 833.5,540.7 833.5,345.4 			"/>
			<polygon class="st0" points="720.1,413.2 720.1,364.5 716.9,364.8 716.9,413.5 686.3,416 686.3,419.2 716.9,416.7 716.9,542.9 
				720.1,542.9 720.1,416.5 747.4,414.2 747.4,411 			"/>
			<polygon class="st0" points="920.7,396.7 892.2,399.1 892.2,347.8 889,348.1 889,399.3 857.1,401.9 857.1,405.2 889,402.6 
				889,540.7 892.2,540.7 892.2,402.3 920.7,400 			"/>
			<polygon class="st0" points="803.4,406.4 803.4,356.4 800.2,356.7 800.2,406.6 770.1,409.1 770.1,412.3 800.2,409.9 800.2,540.7 
				803.4,540.7 803.4,409.6 830.1,407.4 830.1,404.2 			"/>
		</g>
		<g>
			<polygon class="st62" points="1431.5,707.2 1431.5,1018.7 1410.1,1017.9 1394.2,1017.3 1372.8,1016.4 1359.7,1015.9 
				1338.2,1015.1 1313.3,1014.1 1303.9,1013.7 1288.1,1013.1 1288.1,715.1 			"/>
		</g>
		<g>
			<g>
				<g>
					<path class="st63" d="M1266.3,661.3l-220.8,14.6v428.6l220.8-45.8V661.3L1266.3,661.3z"/>
				</g>
			</g>
		</g>
		<g>
			<polygon class="st64" points="948,549.8 726,457 726,775.5 948,810.4 			"/>
			<polygon class="st64" points="726,775.5 726,1191.1 948,1136.3 948,810.4 			"/>
			<g>
				<polygon class="st65" points="746.5,647.1 746.5,776 831.4,794.3 831.4,670.9 				"/>
				<polygon class="st65" points="831.4,530.9 746.5,497.6 746.5,632.9 831.4,659.7 				"/>
				<polygon class="st65" points="846.4,674.3 846.4,797.5 920,817.7 920,696.1 				"/>
				<polygon class="st65" points="920.5,568.2 846.4,537 846.4,663.8 920.5,685.5 				"/>
			</g>
			<g>
				<polygon class="st65" points="746.5,647.1 746.5,776 831.4,797.4 831.4,670.9 				"/>
				<polygon class="st65" points="831.4,530.9 746.5,497.6 746.5,632.9 831.4,659.7 				"/>
				<polygon class="st65" points="846.4,674.3 846.4,800 920,817.7 920,696.1 				"/>
				<polygon class="st65" points="920.5,568.2 846.4,537 846.4,663.8 920.5,685.5 				"/>
			</g>
			<polygon class="st66" points="746.5,647.1 746.5,655.8 823.3,677.3 823.3,795.4 831.4,797.4 831.4,670.9 			"/>
			<polygon class="st66" points="746.5,497.6 746.5,507.2 823.3,537.3 823.3,657.1 831.4,659.7 831.4,530.9 			"/>
			<polygon class="st66" points="846.4,674.3 846.4,683.2 911.9,702.6 911.9,815.8 920,817.7 920,696.1 			"/>
			<polygon class="st66" points="846.4,537 846.4,546.8 912.5,574.6 912.5,683.2 920.5,685.5 920.5,568.2 			"/>
		</g>
		<polygon class="st67" points="725.2,813.5 948.8,861.6 948.8,1137 725.2,1192.6 		"/>
		<polygon class="st58" points="725.2,775.4 949.7,826.3 949.7,864 725.2,813.5 		"/>
		<polygon class="st68" points="739,832.9 949.7,876.6 949.7,864 725.2,813.5 725.2,1192.6 739.5,1189.1 		"/>
		<g>
			<g>
				<g>
					<polygon class="st69" points="950.5,318.6 1108.4,447.3 1108.4,1097.6 950.5,1136.2 					"/>
					<path class="st70" d="M951.3,320.3l156.3,127.4l0,649.3l-156.3,38.2L951.3,320.3L951.3,320.3z M949.7,316.9v820.3l159.5-38.9
						l0-651.3L949.7,316.9L949.7,316.9z"/>
				</g>
			</g>
		</g>
		<g>
			<g>
				<polygon class="st60" points="951.3,324.4 951.3,537.8 971.9,549.4 971.9,341.6 				"/>
				<polygon class="st60" points="986.1,353.4 986.1,557 1006.5,568.3 1006.5,370.3 				"/>
				<polygon class="st71" points="1006.5,370.3 1006.5,568.3 1018.3,574.8 1018.3,380.1 				"/>
				<polygon class="st60" points="1018.3,380.1 1018.3,574.8 1035.5,584.3 1035.5,394.4 				"/>
				<polygon class="st71" points="1047.3,404.2 1035.5,394.4 1035.5,584.3 1047.3,590.8 				"/>
				<polygon class="st60" points="1047.3,404.2 1047.3,590.8 1063.4,599.7 1063.4,417.6 				"/>
				<polygon class="st71" points="1063.4,417.6 1063.4,599.7 1077.4,607.4 1077.4,429.2 				"/>
				<polygon class="st60" points="1077.4,429.2 1077.4,607.4 1090.3,614.5 1090.3,439.9 				"/>
				<polygon class="st72" points="951.3,324.4 951.3,330.1 969.2,345 969.2,547.9 971,548.9 971.9,341.6 				"/>
				<polygon class="st72" points="986.1,353.4 986.1,359.1 1003.7,373.7 1003.7,566.8 1006.5,568.3 1006.5,370.3 				"/>
				<polygon class="st72" points="1018.3,380.1 1018.3,385.8 1032.8,397.8 1032.8,582.8 1035.5,584.3 1035.5,394.4 				"/>
				<polygon class="st72" points="1047.3,404.2 1047.3,409.9 1060.7,421 1060.7,598.2 1063.4,599.7 1063.4,417.6 				"/>
				<polygon class="st72" points="1077.4,429.2 1077.4,434.9 1087.5,443.3 1087.5,613 1090.3,614.5 1090.3,439.9 				"/>
				<polygon class="st71" points="1090.3,439.9 1090.3,614.5 1099.9,619.8 1099.9,448 				"/>
				<polygon class="st71" points="971,340.9 971,548.9 986.1,557 986.1,353.4 				"/>
				<polygon class="st60" points="986.1,574.7 986.1,789.6 1006.5,795.9 1006.5,585.6 				"/>
				<polygon class="st71" points="1006.5,585.6 1006.5,795.9 1018.3,799.5 1018.3,591.9 				"/>
				<polygon class="st60" points="1018.3,591.9 1018.3,799.5 1035.5,804.8 1035.5,601.1 				"/>
				<polygon class="st71" points="1047.3,607.4 1035.5,601.1 1035.5,804.8 1047.3,808.4 				"/>
				<polygon class="st71" points="1063.4,616 1063.4,813.4 1077.4,817.7 1077.4,623.5 				"/>
				<polygon class="st60" points="1077.4,623.5 1077.4,817.7 1090.3,821.6 1090.3,630.4 				"/>
				<polygon class="st71" points="1090.3,630.4 1090.3,821.6 1099.9,824.6 1099.9,635.5 				"/>
				<polygon class="st60" points="1047.3,607.4 1047.3,808.4 1063.4,813.4 1063.4,616 				"/>
				<polygon class="st72" points="986.1,574.7 986.1,578.9 1003.8,588.4 1003.8,795.1 1006.5,795.9 1006.5,585.6 				"/>
				<polygon class="st72" points="1018.3,591.9 1018.3,596.1 1032.8,603.9 1032.8,804 1035.5,804.8 1035.5,601.1 				"/>
				<polygon class="st72" points="1077.4,623.5 1077.4,627.7 1087.6,633.1 1087.6,820.8 1090.3,821.6 1090.3,630.4 				"/>
				<polygon class="st72" points="1047.3,607.4 1047.3,611.6 1060.7,618.8 1060.7,812.5 1063.4,813.4 1063.4,616 				"/>
				<g>
					<path class="st60" d="M962.3,907.6c0-25.8,19.7-47.7,45.2-50.4v172.6l-45.2,3.3V907.6z"/>
					<path class="st70" d="M1005.9,859v169.2l-42,3V907.6C964,883.2,982.1,862.5,1005.9,859L1005.9,859z M1009.2,855.5
						c-26.3,1.9-48.4,23.8-48.4,52.2v127.2l48.4-3.5V855.5L1009.2,855.5z"/>
				</g>
				<polygon class="st73" points="960.7,1034.8 960.7,1046.8 1009.2,1042 1009.2,1031.3 				"/>
				<g>
					<polygon class="st60" points="962.3,1048.3 1007.5,1043.8 1007.5,1121.4 962.3,1132.4 					"/>
					<path class="st70" d="M1005.9,1045.6v74.6l-42,10.2v-80.7L1005.9,1045.6L1005.9,1045.6z M1009.2,1042l-48.4,4.8v87.7l48.4-11.8
						V1042L1009.2,1042z"/>
				</g>
				<polygon class="st73" points="1009.2,1031.3 1009.2,1042 1059.9,1037 1059.9,1027.6 				"/>
				<g>
					<path class="st60" d="M1010.8,857c0.7,0,1.5-0.1,2.2-0.1c4.7,0,9.4,0.7,14,2l31.4,8.9v158.3l-47.5,3.4L1010.8,857L1010.8,857z"
						/>
					<path class="st70" d="M1013,858.5c4.5,0,9.1,0.6,13.5,1.9l30.2,8.6v155.6l-44.3,3.2V858.5
						C1012.6,858.5,1012.8,858.5,1013,858.5L1013,858.5z M1013,855.3c-1.3,0-2.5,0.1-3.8,0.1v175.8l50.8-3.7v-161l-32.6-9.3
						C1022.5,856,1017.7,855.3,1013,855.3L1013,855.3z"/>
				</g>
				<g>
					<polygon class="st60" points="1010.8,1043.5 1058.3,1038.8 1058.3,1109 1010.8,1120.6 					"/>
					<path class="st70" d="M1056.7,1040.6v67.2l-44.3,10.8v-73.6L1056.7,1040.6L1056.7,1040.6z M1059.9,1037l-50.8,5v80.7l50.8-12.4
						V1037L1059.9,1037z"/>
				</g>
				<g>
					<path class="st60" d="M1061.5,868.8c20.8,6.9,34.9,26.4,34.9,48.2v106.4l-34.9,2.5V868.8z"/>
					<path class="st70" d="M1063.2,871.1c18.9,7.2,31.7,25.5,31.7,45.9v104.9l-31.7,2.3V871.1L1063.2,871.1z M1059.9,866.6v161
						l38.2-2.8V917c0-23.4-15.5-43.9-37.9-50.3L1059.9,866.6L1059.9,866.6z"/>
				</g>
				<polygon class="st73" points="1059.9,1027.6 1059.9,1037 1098.1,1033.3 1098.1,1024.9 				"/>
				<g>
					<polygon class="st60" points="1061.5,1038.5 1096.5,1035 1096.5,1099.7 1061.5,1108.2 					"/>
					<path class="st70" d="M1094.9,1036.8v61.6l-31.7,7.8v-66.2L1094.9,1036.8L1094.9,1036.8z M1098.1,1033.3l-38.2,3.8v73.3
						l38.2-9.3V1033.3L1098.1,1033.3z"/>
				</g>
			</g>
		</g>
		<g>
			<g>
				<g>
					<path class="st74" d="M949.9,321.2l159.3,132.4l10.2-6.6L949.4,302l-368.8,35.1l28.7,18.8L949.9,321.2z"/>
				</g>
			</g>
			<polygon class="st75" points="948.8,280.4 580.6,320.7 580.6,337.2 949.1,302.9 			"/>
			<polygon class="st76" points="948.8,280.4 1119.4,428.9 1119.4,447 949.1,302.9 			"/>
		</g>
		<g>
			<g>
				<g>
					<g>
						<g>
							<polygon class="st70" points="1267.5,663.2 1329.6,690.8 1329.6,1041.8 1267.5,1057.1 							"/>
							<path class="st77" d="M1268.3,664.4l60.4,26.9v349.9l-60.4,14.9V664.4L1268.3,664.4z M1266.7,661.9v396.2l63.7-15.7V690.3
								L1266.7,661.9L1266.7,661.9z"/>
						</g>
					</g>
					<g>
						<g>
							<path class="st70" d="M1308.8,680.2l-9.7-4.3l-32.8-14.6v397.3l32.8-8.1l9.7-2.4l22-5.4V690L1308.8,680.2z M1330,1042.2
								l-21.2,5.2l-9.7,2.4l-32,7.9V662.5l32,14.2l9.7,4.3l21.2,9.4V1042.2z"/>
							<path class="st77" d="M1266.3,661.3v397.3l32.8-8.1l9.7-2.4l22-5.4V690l-22-9.8l-9.7-4.3L1266.3,661.3L1266.3,661.3z
								 M1267.1,1057.6V662.5l32,14.2l9.7,4.3l21.2,9.4v351.6l-21.2,5.2l-9.7,2.4L1267.1,1057.6L1267.1,1057.6z"/>
						</g>
					</g>
				</g>
			</g>
			<polygon class="st78" points="1293.5,871.8 1293.5,862.1 1293.5,778.4 1293.5,768.5 1293.5,674.5 1293.5,674 1293.5,673.6 
				1299.7,676.4 1299.7,676.8 1299.7,677.2 1299.7,769.9 1299.7,779.8 1299.7,862.5 1299.7,872.2 			"/>
			<polygon class="st79" points="1308.8,781.2 1308.8,862.4 1330,863.7 1330.4,863.8 1330.8,863.8 1330.8,873.5 1330.4,873.5 
				1330,873.4 1308.8,872.1 1308.8,1048.2 1299.1,1050.6 1299.1,871.5 1267.1,869.6 1266.7,869.6 1266.3,869.5 1266.3,859.9 
				1266.7,859.9 1267.1,859.9 1299.1,861.9 1299.1,779.2 1267.1,772.3 1266.7,772.2 1266.3,772.1 1266.3,762.2 1266.7,762.3 
				1267.1,762.4 1299.1,769.3 1299.1,675.9 1308.8,680.2 1308.8,771.4 1330,776 1330.4,776 1330.8,776.1 1330.8,786 1330.4,785.9 
				1330,785.8 			"/>
		</g>
		<g>
			<g>
				<polygon class="st64" points="576.1,169.4 698.2,252.7 698.2,1193 576.5,1228.8 				"/>
				<path class="st58" d="M576.4,1226.9l0-5.6l-1.1-1053.8L699,252.2v941.6l-0.6,0.2L576.4,1226.9z M576.7,170l0.7,1057.6l120-35.3
					v-939L576.7,170z"/>
			</g>
		</g>
		<polygon class="st64" points="489.1,358 725.2,455.8 725.2,1192.6 489.1,1249.5 		"/>
		<g>
			<polygon class="st80" points="1110,646.9 1265.5,734.5 1265.5,1058 1110,1097.2 			"/>
			<polygon class="st81" points="1111.6,823.2 1111.6,649.7 1263.9,735.4 1263.9,868.2 			"/>
			<path class="st82" d="M1110,646.9v177.5l155.5,46V734.5L1110,646.9z M1188.6,738.9l-38.6-17.7v-48.1l38.6,21.8V738.9z
				 M1191.8,696.7l37.5,21.1v39.7l-37.5-17.1V696.7z M1188.6,742.4v57.4l-38.6-13.1v-62L1188.6,742.4z M1188.6,803.3v41l-38.6-11.4
				v-42.7L1188.6,803.3z M1191.8,804.4l37.5,12.7v39.2l-37.5-11.1V804.4z M1191.8,800.9v-57l37.5,17.1v52.6L1191.8,800.9z
				 M1232.5,762.5l29.8,13.6v48.7l-29.8-10.1V762.5z M1262.3,772.6l-29.8-13.6v-39.4l29.8,16.8V772.6z M1146.7,671.3v48.5
				l-33.5-15.3v-52L1146.7,671.3z M1146.7,723.3v62.4l-33.5-11.3V708L1146.7,723.3z M1113.2,777.7l33.5,11.3v42.8l-33.5-9.9V777.7z
				 M1232.3,857.2h0.2v-39.1l29.8,10.1v37.8L1232.3,857.2z"/>
			<polygon class="st80" points="1110,824.4 1110,1097.2 1265.5,1058 1265.5,870.4 			"/>
			<g>
				<polygon class="st83" points="1110,645.1 1110,629.3 1265.5,719 1265.5,733.7 				"/>
				<path class="st84" d="M1110.8,630.7l153.9,88.8v12.8l-153.9-87.7V630.7L1110.8,630.7z M1109.2,627.9v17.6l157.1,89.5v-16.5
					L1109.2,627.9L1109.2,627.9z"/>
			</g>
			<polygon class="st85" points="1111.6,921.4 1168.7,926.4 1168.7,1080.8 1111.6,1095.1 			"/>
			<g>
				<path class="st86" d="M1113.2,923.2l53.9,4.7v151.6l-53.9,13.6V923.2L1113.2,923.2z M1110,919.7v177.6l60.3-15.2V924.9
					L1110,919.7L1110,919.7z"/>
				<path class="st87" d="M1109.6,1097.7V919.2l0.4,0l60.7,5.3v157.8l-0.3,0.1L1109.6,1097.7z M1110.4,920.1v176.6l59.5-15V925.3
					L1110.4,920.1z M1112.8,1093.6V922.7l0.4,0l54.2,4.8v152.3l-0.3,0.1L1112.8,1093.6z M1113.6,923.6v168.9l53.1-13.4V928.3
					L1113.6,923.6z"/>
			</g>
			<path class="st85" d="M1172.1,948.9c1.2-11.4,10.7-20.1,22.3-20.1c0.7,0,1.3,0,2,0.1l9.2,0.8c9.9,0.9,17.7,8.7,18.6,18.4
				L1172.1,948.9z"/>
			<path class="st82" d="M1194.4,930.4c0.6,0,1.2,0,1.9,0.1l9.2,0.8c8.5,0.8,15.3,7.1,16.9,15.2l-48.4,0.8
				C1175.8,937.6,1184.2,930.4,1194.4,930.4L1194.4,930.4z M1194.4,927.2c-12.9,0-23.7,10.3-24.1,23.4l55.5-0.8
				c-0.2-11.3-8.8-20.6-20.1-21.6l-9.2-0.8C1195.8,927.2,1195.1,927.2,1194.4,927.2L1194.4,927.2z"/>
			<polygon class="st85" points="1171.9,952.1 1224.3,951.3 1224.3,1066.8 1171.9,1080 			"/>
			<path class="st82" d="M1225.9,949.7l-55.5,0.8c0,0.2,0,0.5,0,0.8V1082l55.6-14V950C1225.9,949.9,1225.9,949.8,1225.9,949.7z
				 M1173.5,953.7l27.1-0.4V1071l-27.1,6.8V953.7z M1222.7,1065.5l-18.8,4.7v-117l18.8-0.3V1065.5z"/>
			<g>
				<path class="st86" d="M1196.9,1023.3c-0.7,0-1.2-0.5-1.2-1.2v-33.8c0-0.7,0.5-1.2,1.2-1.2c0.7,0,1.2,0.5,1.2,1.2v33.8
					C1198.1,1022.8,1197.6,1023.3,1196.9,1023.3z"/>
			</g>
			<polygon class="st85" points="1227.5,931.6 1263.9,934.8 1263.9,1056.8 1227.5,1065.9 			"/>
			<g>
				<path class="st86" d="M1229.1,933.3l33.2,2.9v119.3l-33.2,8.3V933.3L1229.1,933.3z M1225.9,929.8V1068l39.6-10V933.3
					L1225.9,929.8L1225.9,929.8z"/>
				<path class="st87" d="M1225.5,1068.5V929.4l0.4,0l40,3.5v125.4l-0.3,0.1L1225.5,1068.5z M1226.3,930.3v137.2l38.8-9.8V933.7
					L1226.3,930.3z M1228.7,1064.4V932.9l33.9,3v120l-0.3,0.1L1228.7,1064.4z M1229.5,933.8v129.6l32.3-8.2V936.6L1229.5,933.8z"/>
			</g>
			<g>
				<polygon class="st85" points="1112,917.8 1112,860.2 1263.5,881.8 1263.5,931.1 				"/>
				<path class="st87" d="M1112.4,860.7l150.7,21.5v48.5l-150.7-13.2L1112.4,860.7L1112.4,860.7z M1111.6,859.8v58.4l152.3,13.4
					v-50.1L1111.6,859.8L1111.6,859.8z"/>
			</g>
			<g>
				<path class="st86" d="M1113.2,861.6l149.1,21.2v46.9l-149.1-13.1V861.6L1113.2,861.6z M1110,857.9v61.7l155.5,13.6v-53.2
					L1110,857.9L1110,857.9z"/>
				<path class="st87" d="M1265.9,933.7l-0.4,0L1109.6,920v-62.6l0.5,0.1l155.9,22.2V933.7z M1110.4,919.3l154.7,13.6v-52.4
					l-154.7-22V919.3z M1262.7,930.2l-0.4,0l-149.4-13.1v-55.9l0.5,0.1l149.4,21.3L1262.7,930.2L1262.7,930.2z M1113.6,916.3
					l148.3,13v-46.1l-148.3-21.1V916.3z"/>
			</g>
			<path class="st88" d="M1110.8,648.3l153.9,86.7v322.5l-153.9,38.8V648.3L1110.8,648.3z M1109.2,645.6v452.7l157.1-39.6V734
				L1109.2,645.6L1109.2,645.6z"/>
			<polygon class="st89" points="1125.9,859.8 1109.2,857.3 1109.2,627.9 1125.9,637.5 			"/>
			<g>
				<path class="st90" d="M1112.3,857.6c3.3-19,30.3-39.1,66.2-39.1c4.6,0,9.2,0.3,13.8,1c39.7,5.8,71.2,37.2,71.6,60L1112.3,857.6z
					"/>
				<path class="st91" d="M1178.5,819.3c4.6,0,9.2,0.3,13.7,1c38.8,5.6,69.6,35.9,70.8,58.2l-149.8-21.6
					C1117.1,838.5,1143.6,819.3,1178.5,819.3L1178.5,819.3z M1178.5,817.7c-35.7,0-64.8,19.3-67.7,39.9l153.9,22.8
					c0.5-23.3-31.5-55.8-72.2-61.7C1187.7,818,1183.1,817.7,1178.5,817.7L1178.5,817.7z"/>
			</g>
		</g>
		<g>
			<path class="st71" d="M1405.1,797.6c0.1-0.2-1.5-17.2-20.4-20.7c-10-1.8-23.4,4.7-24.9,10.5l-29-6.5v261.9l100.7-24V803.5
				L1405.1,797.6z"/>
			<polygon class="st92" points="1335.2,791.1 1335.2,882.9 1363.7,884.3 1363.7,796.6 			"/>
			<path class="st93" d="M1363.7,796.6v87.7l38.7,1.9V804l-2.9-5.9C1392.4,783.6,1372,782.7,1363.7,796.6L1363.7,796.6z"/>
			<g>
				<polygon class="st92" points="1425,808.4 1402.4,804.1 1402.4,886.2 1425,887.3 				"/>
			</g>
			<path class="st91" d="M1425.1,808l-22.6-4.4c-0.1,0-0.2,0-0.3,0.1c-0.1,0.1-0.2,0.2-0.2,0.3v82.1c0,0.2,0.2,0.4,0.4,0.4l22.6,1.1
				c0,0,0,0,0,0c0.1,0,0.2,0,0.3-0.1c0.1-0.1,0.1-0.2,0.1-0.3v-78.8C1425.4,808.2,1425.2,808.1,1425.1,808z M1424.6,886.8l-21.8-1.1
				v-81.2l21.8,4.2V886.8z"/>
			<path class="st91" d="M1402.8,803.8l-2.9-5.9c-3.4-7-10-11.3-17.8-11.7c-7.7-0.3-14.6,3.4-18.6,9.9l-28.3-5.5
				c-0.1,0-0.2,0-0.3,0.1s-0.2,0.2-0.2,0.3v91.8c0,0.2,0.2,0.4,0.4,0.4l28.5,1.4c0,0,0,0,0,0s0,0,0,0s0,0,0,0l38.7,1.9c0,0,0,0,0,0
				c0.1,0,0.2,0,0.3-0.1c0.1-0.1,0.1-0.2,0.1-0.3V804C1402.9,803.9,1402.8,803.9,1402.8,803.8z M1363.3,841.3l-12.9-1.3v-21.7
				l12.9,1.7V841.3z M1350.3,841.7l12.9,1.3v21l-12.9-0.7V841.7z M1363.3,818.4l-12.9-1.7v-22.3l12.9,2.5V818.4z M1348.7,794v22.4
				l-13.1-1.7v-23.2L1348.7,794z M1335.6,816.4l13.1,1.7v21.8l-13.1-1.3V816.4z M1335.6,840.2l13.1,1.3v21.6l-13.1-0.7V840.2z
				 M1335.6,864l13.1,0.7v18.3l-13.1-0.6V864z M1350.3,883.1v-18.3l12.9,0.7v18.2L1350.3,883.1z M1402.1,885.7l-37.9-1.8v-87.2
				c3.8-6.3,10.5-9.9,17.9-9.6c7.4,0.3,13.8,4.5,17.1,11.2l2.8,5.8L1402.1,885.7L1402.1,885.7z"/>
			<polygon class="st91" points="1416.2,847.8 1424.5,848.7 1424.7,847.1 1416.2,846.2 1416.2,826.7 1424.9,827.9 1425.1,826.3 
				1416.2,825.1 1416.2,807 1414.6,807 1414.6,824.9 1402.5,823.2 1402.3,824.8 1414.6,826.5 1414.6,846.1 1402.5,844.8 
				1402.3,846.4 1414.6,847.7 1414.6,866.7 1402.4,865.9 1402.3,867.5 1414.6,868.4 1414.6,886.5 1416.2,886.5 1416.2,868.5 
				1424.9,869 1425,867.4 1416.2,866.8 			"/>
		</g>
		<g>
			<g>
				<polygon class="st94" points="1458,691.9 1425,709.8 1330.8,712.7 1330.8,697.7 				"/>
			</g>
		</g>
		<g>
			<g>
				<g>
					<g>
						<polygon class="st95" points="54.1,358.7 488.2,358.7 487.5,1249.7 54.1,1250 						"/>
						<path class="st58" d="M487.4,359.5l-0.7,889.5l-431.8,0.2V359.5H487.4L487.4,359.5z M489,357.9H53.2v892.9l435.1-0.2
							L489,357.9L489,357.9z"/>
					</g>
				</g>
			</g>
		</g>
		<g>
			<g>
				<g>
					<path class="st59" d="M162.1,596.8H73V356.8h89.1V596.8z M74.6,595.2h85.9V358.4H74.6V595.2z"/>
					<path class="st74" d="M162.9,597.6H72.2V356h90.8L162.9,597.6L162.9,597.6z M161.3,596V357.6V596z M75.4,594.4h84.3V359.2H75.4
						V594.4z"/>
				</g>
			</g>
			<path class="st59" d="M270.9,596.8H160.5V356.8h110.3L270.9,596.8L270.9,596.8z M162.1,595.2h107.1V358.4H162.1V595.2z"/>
			<path class="st59" d="M379.6,596.8H269.2V356.8h110.4V596.8z M270.9,595.2H378V358.4H270.9V595.2z"/>
			<g>
				<g>
					<path class="st59" d="M488.3,596.8H378V356.8h110.4V596.8z M379.6,595.2h107.1V358.4H379.6V595.2z"/>
					<path class="st74" d="M379.9,356h-3.2H271.4h-3.2H159.7v241.7h108.5h3.2h105.2h3.2h108.5V356H379.9z M268.2,594.4H162.9V359.2
						h105.2L268.2,594.4L268.2,594.4z M376.6,594.4H271.4V359.2h105.2L376.6,594.4L376.6,594.4z M485.1,594.4H379.9V359.2h105.2
						V594.4z"/>
				</g>
			</g>
		</g>
		<path class="st74" d="M380.4,615.3h-3.2H271.7h-3.2H162.9h-3.2H72.2v244.1h87.5h3.2h105.5h3.2h105.5h3.2h108.7V615.3H380.4z
			 M75.4,856.2V618.5h84.3v237.7H75.4z M162.9,856.2V618.5h105.5v237.7H162.9z M271.7,856.2V618.5h105.5v237.7H271.7z M380.4,856.2
			V618.5h105.5v237.7H380.4z"/>
		<g>
			<g>
				<rect x="52.5" y="831.5" class="st59" width="437.4" height="45.8"/>
			</g>
		</g>
		<rect x="229.9" y="915.5" class="st67" width="254.5" height="214.1"/>
		<path class="st96" d="M477.2,921.9v201.2h-241V921.9H477.2L477.2,921.9z M489.8,909H223.6v227h266.2V909L489.8,909z"/>
		<path class="st97" d="M489.8,1136.9h-267V908.2h267V1136.9z M224.4,1135.2h263.8V909.8H224.4V1135.2z M477.3,1124H235.4V921.1
			h241.9V1124z M236.9,1122.4h238.7V922.7H236.9V1122.4z"/>
		<rect x="77.2" y="914.7" class="st98" width="118.2" height="329.3"/>
		<g>
			<path class="st96" d="M71.5,1249.6V909H201v340.6L71.5,1249.6L71.5,1249.6z M82.8,1104.7h106.9V920.3H82.8V1104.7z"/>
			<path class="st99" d="M200.2,909.8v339H72.3v-339H200.2L200.2,909.8z M82,919.5v186l0,0h108.5v-186H82z M201.8,908.2H70.7v342.2
				h131.1V908.2L201.8,908.2z M83.6,1103.9V921.1h105.3v182.8H83.6L83.6,1103.9z"/>
		</g>
		<g>
			<rect x="81.3" y="1122.8" class="st59" width="100.7" height="117.5"/>
			<path class="st99" d="M181,1123.6v115.9H82.2v-115.9H181L181,1123.6z M182.8,1122H80.4v119.1h102.4V1122L182.8,1122z"/>
		</g>
		<polygon class="st64" points="413.7,1159.5 413.7,1225.1 418.2,1225.1 418.2,1163.8 485.2,1163.8 485.2,1159.5 		"/>
		<polygon class="st64" points="329.6,1159.5 329.6,1225.1 334.1,1225.1 334.1,1163.8 401.1,1163.8 401.1,1159.5 		"/>
		<polygon class="st64" points="251.1,1225.1 255.5,1225.1 255.5,1163.8 322.5,1163.8 322.5,1159.5 251.1,1159.5 		"/>
		<path class="st97" d="M493.7,878.3l17.9,75.6h-450v-75.6H493.7L493.7,878.3z M495,876.7H60v78.8h453.6L495,876.7L495,876.7z"/>
		<path class="st100" d="M489.9,359.2l233.7,97.7v734l-233.7,57.6L489.9,359.2L489.9,359.2z M488.3,356.8v893.8l236.9-57.9V455.8
			L488.3,356.8L488.3,356.8z"/>
		<polygon class="st101" points="241.6,877.5 198.2,877.5 201.5,954.7 248.9,954.7 		"/>
		<polygon class="st101" points="60.8,877.5 60.8,928.9 73.2,877.5 		"/>
		<polygon class="st102" points="73.2,877.5 60.8,928.9 60.8,954.7 99.1,954.7 113.2,877.5 		"/>
		<polygon class="st101" points="153.7,877.5 113.2,877.5 99.1,954.7 150.1,954.7 		"/>
		<polygon class="st102" points="198.2,877.5 153.7,877.5 150.1,954.7 201.5,954.7 		"/>
		<polygon class="st102" points="287.7,877.5 241.6,877.5 248.9,954.7 295.6,954.7 		"/>
		<polygon class="st101" points="327,877.5 287.7,877.5 295.6,954.7 337.1,954.7 		"/>
		<polygon class="st102" points="370.4,877.5 327,877.5 337.1,954.7 382.2,954.7 		"/>
		<polygon class="st101" points="410.8,877.5 370.4,877.5 382.2,954.7 425,954.7 		"/>
		<polygon class="st102" points="449.9,877.5 410.8,877.5 425,954.7 467.1,954.7 		"/>
		<polygon class="st101" points="494.4,877.5 449.9,877.5 467.1,954.7 512.6,954.7 		"/>
		<g>
			<path class="st99" d="M511.9,956.3c-1.4,9.5-14.5,16.9-30.3,16.9c-13.3,0-25.3-5.5-29.2-13.3l-1.4-2.9l-1.4,2.9
				c-3.9,7.8-15.9,13.3-29.2,13.3c-13.3,0-25.3-5.5-29.2-13.3l-1.4-2.9l-1.4,2.9c-3.9,7.8-15.9,13.3-29.2,13.3
				c-13.3,0-25.3-5.5-29.2-13.3l-1.4-2.9l-1.4,2.9c-3.9,7.8-15.9,13.3-29.2,13.3c-13.3,0-25.3-5.5-29.2-13.3l-1.4-2.9l-1.4,2.9
				c-3.9,7.8-15.9,13.3-29.2,13.3c-13.3,0-25.3-5.5-29.2-13.3L206,957l-1.4,2.9c-3.9,7.8-15.9,13.3-29.2,13.3
				c-13.3,0-25.3-5.5-29.2-13.3l-1.4-2.9l-1.4,2.9c-3.9,7.8-15.9,13.3-29.2,13.3c-13.3,0-25.3-5.5-29.2-13.3l-1.4-2.9l-1.4,2.9
				c-3.9,7.8-15.9,13.3-29.2,13.3c-15.8,0-28.9-7.4-30.3-16.9H511.9L511.9,956.3z M513.6,954.7H20.8c0.1,11.1,14.4,20.1,32.1,20.1
				c14.4,0,26.5-6,30.6-14.2c4.1,8.2,16.2,14.2,30.6,14.2s26.6-6,30.6-14.2c4.1,8.2,16.2,14.2,30.6,14.2c14.4,0,26.6-6,30.6-14.2
				c4.1,8.2,16.2,14.2,30.6,14.2c14.4,0,26.6-6,30.6-14.2c4.1,8.2,16.2,14.2,30.6,14.2s26.5-6,30.6-14.2
				c4.1,8.2,16.2,14.2,30.6,14.2s26.5-6,30.6-14.2c4.1,8.2,16.2,14.2,30.6,14.2s26.5-6,30.6-14.2c4.1,8.2,16.2,14.2,30.6,14.2
				C499.2,974.8,513.5,965.8,513.6,954.7L513.6,954.7z"/>
			<path class="st103" d="M481.5,974c-13.6,0-25.9-5.7-29.9-13.7l-0.7-1.5l-0.7,1.5c-4,8.1-16.3,13.7-29.9,13.7s-25.9-5.7-29.9-13.7
				l-0.7-1.5l-0.7,1.5c-4,8.1-16.3,13.7-29.9,13.7s-25.9-5.7-29.9-13.7l-0.7-1.5l-0.7,1.5c-4,8.1-16.3,13.7-29.9,13.7
				s-25.9-5.7-29.9-13.7l-0.7-1.5l-0.7,1.5c-4,8.1-16.3,13.7-29.9,13.7c-13.6,0-25.9-5.7-29.9-13.7l-0.7-1.5l-0.7,1.5
				c-4,8.1-16.3,13.7-29.9,13.7c-13.6,0-25.9-5.7-29.9-13.7l-0.7-1.5l-0.7,1.5c-4,8.1-16.3,13.7-29.9,13.7s-25.9-5.7-29.9-13.7
				l-0.7-1.5l-0.7,1.5c-4,8.1-16.3,13.7-29.9,13.7c-16.7,0-30.5-8.2-31.2-18.5h491.1C512,965.8,498.3,974,481.5,974z"/>
		</g>
		<g>
			<rect x="54.1" y="354.1" class="st59" width="433.3" height="20.4"/>
			<path class="st104" d="M486.6,354.9v18.8H54.9v-18.8H486.6L486.6,354.9z M488.2,353.3H53.2v22h434.9L488.2,353.3L488.2,353.3z"/>
		</g>
		<g>
			<rect x="55.4" y="596.2" class="st59" width="433.8" height="20.4"/>
			<path class="st105" d="M488.4,597v18.8H56.2V597H488.4L488.4,597z M490,595.4H54.6v22H490V595.4L490,595.4z"/>
		</g>
		<g class="st106">
			<g>
				<path class="st0" d="M172,551.8c-0.2,0-0.5,0-0.7-0.2c-0.8-0.4-1.1-1.3-0.7-2.2l80.6-165.6c0.4-0.8,1.4-1.1,2.1-0.7
					c0.8,0.4,1.1,1.3,0.7,2.2l-80.6,165.6C173.1,551.5,172.6,551.8,172,551.8z"/>
			</g>
			<g>
				<path class="st0" d="M199.8,542.9c-0.2,0-0.5,0-0.7-0.2c-0.8-0.4-1.1-1.4-0.7-2.2L253.5,429c0.4-0.8,1.4-1.1,2.2-0.7
					c0.8,0.4,1.1,1.4,0.7,2.2L201.2,542C200.9,542.6,200.4,542.9,199.8,542.9z"/>
			</g>
			<g>
				<path class="st0" d="M177.2,461.1c-0.2,0-0.5,0-0.7-0.2c-0.8-0.4-1.1-1.4-0.7-2.2l38.5-78.2c0.4-0.8,1.4-1.1,2.2-0.7
					s1.1,1.4,0.7,2.2l-38.5,78.2C178.4,460.8,177.8,461.1,177.2,461.1z"/>
			</g>
		</g>
		<g class="st106">
			<g>
				<path class="st0" d="M395.8,552.4c-0.2,0-0.5,0-0.7-0.2c-0.8-0.4-1.1-1.3-0.7-2.2l80.6-165.6c0.4-0.8,1.4-1.1,2.1-0.7
					c0.8,0.4,1.1,1.3,0.7,2.2l-80.6,165.6C396.9,552.1,396.4,552.4,395.8,552.4z"/>
			</g>
			<g>
				<path class="st0" d="M423.5,543.5c-0.2,0-0.5,0-0.7-0.2c-0.8-0.4-1.1-1.4-0.7-2.2l55.2-111.6c0.4-0.8,1.4-1.1,2.2-0.7
					c0.8,0.4,1.1,1.4,0.7,2.2L425,542.6C424.7,543.2,424.1,543.5,423.5,543.5z"/>
			</g>
			<g>
				<path class="st0" d="M401,461.7c-0.2,0-0.5,0-0.7-0.2c-0.8-0.4-1.1-1.4-0.7-2.2l38.5-78.2c0.4-0.8,1.4-1.1,2.2-0.7
					c0.8,0.4,1.1,1.4,0.7,2.2l-38.5,78.2C402.2,461.4,401.6,461.7,401,461.7z"/>
			</g>
		</g>
		<g class="st106">
			<g>
				<path class="st0" d="M399.6,810.4c-0.2,0-0.5-0.1-0.7-0.2c-0.8-0.4-1.1-1.3-0.7-2.2l80.6-165.6c0.4-0.8,1.4-1.1,2.1-0.7
					c0.8,0.4,1.1,1.3,0.8,2.2L401,809.5C400.8,810.1,400.2,810.4,399.6,810.4z"/>
			</g>
			<g>
				<path class="st0" d="M427.4,801.6c-0.2,0-0.5,0-0.7-0.2c-0.8-0.4-1.1-1.4-0.7-2.2l55.2-111.6c0.4-0.8,1.4-1.1,2.2-0.7
					c0.8,0.4,1.1,1.4,0.7,2.2l-55.2,111.6C428.5,801.3,428,801.6,427.4,801.6z"/>
			</g>
			<g>
				<path class="st0" d="M404.8,719.8c-0.2,0-0.5,0-0.7-0.2c-0.8-0.4-1.1-1.4-0.7-2.2l38.5-78.2c0.4-0.8,1.4-1.1,2.2-0.7
					c0.8,0.4,1.1,1.4,0.7,2.2l-38.5,78.2C406,719.5,405.4,719.8,404.8,719.8z"/>
			</g>
		</g>
		<g class="st106">
			<g>
				<path class="st0" d="M286.7,810.4c-0.2,0-0.5-0.1-0.7-0.2c-0.8-0.4-1.1-1.3-0.7-2.2l80.6-165.6c0.4-0.8,1.4-1.1,2.1-0.7
					c0.8,0.4,1.1,1.3,0.7,2.2l-80.6,165.6C287.9,810.1,287.3,810.4,286.7,810.4z"/>
			</g>
			<g>
				<path class="st0" d="M314.5,801.6c-0.2,0-0.5,0-0.7-0.2c-0.8-0.4-1.1-1.4-0.7-2.2l55.2-111.6c0.4-0.8,1.4-1.1,2.2-0.7
					c0.8,0.4,1.1,1.4,0.7,2.2L316,800.7C315.7,801.3,315.1,801.6,314.5,801.6z"/>
			</g>
			<g>
				<path class="st0" d="M292,719.8c-0.2,0-0.5,0-0.7-0.2c-0.8-0.4-1.1-1.4-0.7-2.2l38.5-78.2c0.4-0.8,1.4-1.1,2.2-0.7
					c0.8,0.4,1.1,1.4,0.7,2.2l-38.5,78.2C293.1,719.5,292.6,719.8,292,719.8z"/>
			</g>
		</g>
		<g class="st106">
			<g>
				<path class="st0" d="M175.8,810.4c-0.2,0-0.5-0.1-0.7-0.2c-0.8-0.4-1.1-1.3-0.7-2.2l80.6-165.6c0.4-0.8,1.4-1.1,2.1-0.7
					c0.8,0.4,1.1,1.3,0.7,2.2l-80.6,165.6C177,810.1,176.4,810.4,175.8,810.4z"/>
			</g>
			<g>
				<path class="st0" d="M203.6,801.6c-0.2,0-0.5,0-0.7-0.2c-0.8-0.4-1.1-1.4-0.7-2.2l55.2-111.6c0.4-0.8,1.4-1.1,2.2-0.7
					c0.8,0.4,1.1,1.4,0.7,2.2L205,800.7C204.8,801.3,204.2,801.6,203.6,801.6z"/>
			</g>
			<g>
				<path class="st0" d="M181,719.8c-0.2,0-0.5,0-0.7-0.2c-0.8-0.4-1.1-1.4-0.7-2.2l38.5-78.2c0.4-0.8,1.4-1.1,2.2-0.7
					s1.1,1.4,0.7,2.2l-38.5,78.2C182.2,719.5,181.6,719.8,181,719.8z"/>
			</g>
		</g>
		<g class="st106">
			<g>
				<path class="st0" d="M282.9,551.8c-0.2,0-0.5,0-0.7-0.2c-0.8-0.4-1.1-1.3-0.7-2.2L362,383.9c0.4-0.8,1.4-1.1,2.1-0.7
					c0.8,0.4,1.1,1.3,0.7,2.2l-80.6,165.6C284.1,551.5,283.5,551.8,282.9,551.8z"/>
			</g>
			<g>
				<path class="st0" d="M310.7,542.9c-0.2,0-0.5,0-0.7-0.2c-0.8-0.4-1.1-1.4-0.7-2.2L364.5,429c0.4-0.8,1.4-1.1,2.2-0.7
					c0.8,0.4,1.1,1.4,0.7,2.2L312.2,542C311.9,542.6,311.3,542.9,310.7,542.9z"/>
			</g>
			<g>
				<path class="st0" d="M288.1,461.1c-0.2,0-0.5,0-0.7-0.2c-0.8-0.4-1.1-1.4-0.7-2.2l38.5-78.2c0.4-0.8,1.4-1.1,2.2-0.7
					c0.8,0.4,1.1,1.4,0.7,2.2l-38.5,78.2C289.3,460.8,288.8,461.1,288.1,461.1z"/>
			</g>
		</g>
		<polygon class="st65" points="504.8,404.3 606.8,448.6 606.8,729 504.8,700.3 		"/>
		<polygon class="st65" points="504.8,404.3 606.8,448.6 606.8,729 504.8,700.3 		"/>
		<polygon class="st107" points="504.8,404.3 504.8,416.7 592,454.6 592,724.8 606.8,729 606.8,448.6 		"/>
		<polygon class="st65" points="625.2,454.6 623.6,733.1 718.5,763.7 718.5,489.3 		"/>
		<polygon class="st65" points="625.2,454.6 623.6,733.1 718.5,763.7 718.5,489.3 		"/>
		<polygon class="st107" points="625.2,454.6 625.1,466 709.9,497.6 709.9,760.9 718.5,763.7 718.5,489.3 		"/>
		<polygon class="st65" points="520.1,745.7 699.8,792.7 699.8,1176.4 520.1,1217.1 		"/>
		<path class="st108" d="M513.6,737.4v487.8l192.6-43.6V787.7L513.6,737.4z M644.2,784.8v397.6l-60.9,13.8V768.9L644.2,784.8z
			 M526.5,754.1l50.3,13.1v430.4l-50.3,11.4V754.1z M693.3,1171.3l-42.7,9.7V786.5l42.7,11.2V1171.3z"/>
		<g>
			<polygon class="st108" points="551.6,437 545.2,434.2 545.2,509.1 504.8,497.7 504.8,504.4 545.2,515.8 545.2,711.7 551.6,713.5 
				551.6,517.6 592,529.1 592,522.4 551.6,510.9 			"/>
			<polygon class="st108" points="709.9,553.5 669.2,541.9 669.2,482.4 662.8,480 662.8,540.1 624.8,529.3 624.7,536 662.8,546.8 
				662.8,745.7 669.2,747.8 669.2,548.6 709.9,560.2 			"/>
		</g>
		<g class="st109">
			<g>
				<path class="st0" d="M751.3,614.2c-0.3,0-0.6-0.1-0.9-0.2c-0.8-0.5-1-1.5-0.5-2.2l44.9-70.3c0.5-0.8,1.5-1,2.2-0.5
					s1,1.5,0.5,2.2l-44.9,70.3C752.3,614,751.8,614.2,751.3,614.2z"/>
			</g>
			<g>
				<path class="st0" d="M761.9,632.1c-0.3,0-0.6-0.1-0.9-0.2c-0.8-0.5-1-1.5-0.5-2.2l57-90.5c0.5-0.8,1.5-1,2.2-0.5
					c0.8,0.5,1,1.5,0.5,2.2l-57,90.5C762.9,631.9,762.4,632.1,761.9,632.1z"/>
			</g>
			<g>
				<path class="st0" d="M778.4,638.4c-0.3,0-0.6-0.1-0.8-0.2c-0.8-0.5-1-1.5-0.5-2.2l33.9-54.9c0.5-0.8,1.5-1,2.2-0.5
					c0.8,0.5,1,1.5,0.5,2.2l-33.9,54.9C779.5,638.2,779,638.4,778.4,638.4z"/>
			</g>
		</g>
		<g class="st109">
			<g>
				<path class="st0" d="M851.9,638.2c-0.2,0-0.5-0.1-0.7-0.2c-0.6-0.4-0.8-1.2-0.4-1.8l36.2-56.6c0.4-0.6,1.2-0.8,1.8-0.4
					s0.8,1.2,0.4,1.8L853,637.6C852.7,638,852.3,638.2,851.9,638.2z"/>
			</g>
			<g>
				<path class="st0" d="M860.4,652.7c-0.2,0-0.5-0.1-0.7-0.2c-0.6-0.4-0.8-1.2-0.4-1.8l45.9-72.9c0.4-0.6,1.2-0.8,1.8-0.4
					c0.6,0.4,0.8,1.2,0.4,1.8l-45.9,72.9C861.3,652.4,860.8,652.7,860.4,652.7z"/>
			</g>
			<g>
				<path class="st0" d="M873.8,657.7c-0.2,0-0.5-0.1-0.7-0.2c-0.6-0.4-0.8-1.2-0.4-1.8l27.3-44.2c0.4-0.6,1.2-0.8,1.8-0.4
					c0.6,0.4,0.8,1.2,0.4,1.8l-27.3,44.2C874.6,657.5,874.2,657.7,873.8,657.7z"/>
			</g>
		</g>
		<rect x="46.3" y="869.1" class="st110" width="448.9" height="8.4"/>
		<g>
			<polygon class="st111" points="1457.6,693.9 1431.5,708.2 1431.5,1019.7 1455.3,1012.9 1542.2,991.4 1542.2,790.5 			"/>
			<polygon class="st111" points="1542.2,827.1 1542.2,991.4 1603,976.7 1603,843.1 			"/>
		</g>
		<path class="st112" d="M894.8,889.3c0-10.1,8.2-18.2,18.2-18.2c1.2,0,2.5,0.1,3.8,0.4l6.9,1.4c14.2,2.9,24.4,15.6,24.4,30v233.1
			l-53.3,13.2V889.3z"/>
		<path class="st113" d="M923.6,872.9l-6.9-1.4c-0.2-0.1-0.5-0.1-0.8-0.1c9.8,5.6,16.4,16.8,16.4,29.2v239.3l15.7-3.9V902.9
			C948,888.4,937.8,875.8,923.6,872.9z"/>
		<path class="st114" d="M913,872.6c1.1,0,2.3,0.1,3.4,0.3l6.9,1.4c13.4,2.8,23.1,14.7,23.1,28.4v231.8l-50.1,12.3V889.3
			C896.4,880.1,903.8,872.6,913,872.6L913,872.6z M913,869.4c-10.7,0-19.8,8.7-19.8,19.9v261.9l56.5-13.9V902.9
			c0-15.3-10.7-28.5-25.7-31.6l-6.9-1.4C915.7,869.6,914.3,869.4,913,869.4L913,869.4z"/>
		<path class="st112" d="M819,893.1c0-18.1,14.7-32.8,32.7-32.8c2.2,0,4.5,0.2,6.7,0.7l8.5,1.8c13.3,2.8,22.9,14.6,22.9,28.2v257.7
			l-70.9,17.5V893.1z"/>
		<path class="st112" d="M740.6,869.9c0-7.6,2.9-14.8,8.3-20.1c5.4-5.4,12.5-8.4,20.1-8.4c1.9,0,3.9,0.2,5.8,0.6l3.8,0.8
			c20.6,4.3,35.6,22.7,35.6,43.7V1169l-73.1,18L740.6,869.9z"/>
		<path class="st113" d="M778.6,842.8l-3.8-0.8c-1.6-0.3-3.3-0.5-5-0.6c16.5,7.6,27.9,25.8,27.9,46.4V1173l16.4-4.1V886.5
			C814.2,865.4,799.2,847.1,778.6,842.8z"/>
		<path class="st114" d="M769,843c1.8,0,3.7,0.2,5.5,0.6l3.8,0.8c19.9,4.1,34.3,21.8,34.3,42.1v281.2l-69.8,17.2l-0.5-315
			c0-7.2,2.8-13.9,7.8-19C755.2,845.8,761.9,843,769,843L769,843z M769,839.8c-16.2,0-30,13.2-30,30.1l0.5,319.2l76.3-18.8V886.5
			c0-21.9-15.4-40.8-36.8-45.3l-3.8-0.8C773.1,840,771,839.8,769,839.8L769,839.8z"/>
		<rect x="851.7" y="863.5" class="st115" width="5.2" height="192.3"/>
		<path class="st114" d="M867.6,859.6l-8.5-1.8c-2.5-0.5-5-0.8-7.4-0.8c-19.4,0-35.9,15.7-35.9,36v277.1l77.3-19.1V890.9
			C893.1,875.8,882.5,862.7,867.6,859.6z M886.7,996l-28.3,2.3v-72.2l28.3,0.9V996z M855.2,998.5l-33,2.6v-76.2l33,1V998.5z
			 M855.2,1001.8v46.7l-33,5.5v-49.6L855.2,1001.8z M858.4,1001.5l28.3-2.3v43.9l-28.3,4.7V1001.5z M866.3,865.9
			c11.8,2.4,20.4,13,20.4,25v32.8l-28.3-0.9v-58.6L866.3,865.9z M851.7,863.5c1.2,0,2.3,0.1,3.5,0.2v59l-33-1v-28.6
			C822.2,876.8,835.5,863.5,851.7,863.5z"/>
		<g>
			<path class="st116" d="M1329.2,911.3v131.9l-0.2,0l-20.4,5.1l-20.1,5l-0.3,0.1l-20.1,5V910.9c0-10.2,3-19.7,8.4-26.8
				c5.4-7.1,12.6-11.1,20.2-11.1c0.6,0,1.2,0,1.8,0.1l3.9,0.3C1317.3,874.6,1329.2,891.2,1329.2,911.3z"/>
		</g>
		<g>
			<g>
				<path class="st117" d="M1288.9,938.3c0-2.2,0-4.3,0.2-6.4c0.3-7.8,1.2-14.8,2.6-20.4c1.7-6.6,3.9-10.5,6-10.5l0.4,0l1.3,0.3
					c4,1,8.3,15.5,8.3,37.2l0,109l-18.8,4.7L1288.9,938.3L1288.9,938.3z"/>
				<path class="st118" d="M1297.6,901.8l0.2,0l1.3,0.3c3.2,0.8,7.7,14.2,7.7,36.5l0,108.4l-17.2,4.2v-113c0-2.6,0.1-4.6,0.2-6.4
					c0.3-7.7,1.2-14.7,2.6-20.2C1294.4,903.9,1296.6,901.8,1297.6,901.8L1297.6,901.8z M1297.6,900.2c-2.6,0-5,3.9-6.8,11.1
					c-1.4,5.6-2.3,12.8-2.6,20.5c-0.1,2.1-0.2,4.3-0.2,6.5v115l0.3-0.1l20.1-5l0-109.7c0-20.1-3.9-36.8-9-38l-1.3-0.3
					C1298,900.2,1297.8,900.2,1297.6,900.2L1297.6,900.2z"/>
			</g>
		</g>
		<g>
			<g>
				<path class="st117" d="M1268.7,938.3c0-10.1,1-19.7,2.8-26.8c1.7-6.6,3.9-10.5,6-10.5l0.4,0l1.3,0.3c3.3,0.8,7.3,11.8,8.2,30.5
					c0.1,2.2,0.1,4.4,0.1,6.8l0,114l-18.8,4.6L1268.7,938.3L1268.7,938.3z"/>
				<path class="st118" d="M1277.5,901.8l0.2,0l1.3,0.3c2.5,0.6,6.7,10.5,7.6,29.7c0.1,2.2,0.1,4.4,0.1,6.8l0,113.4l-17.2,4.2V938.3
					c0-10.1,1-19.5,2.8-26.6C1274.2,903.9,1276.5,901.8,1277.5,901.8L1277.5,901.8z M1277.5,900.2c-2.6,0-5,3.9-6.8,11.1
					c-1.8,7.2-2.8,16.8-2.8,27v120l20.1-5l0.3-0.1l0-114.6c0-2.3-0.1-4.6-0.1-6.8c-0.8-16.9-4.4-30.1-8.8-31.2l-1.3-0.3
					C1277.9,900.2,1277.7,900.2,1277.5,900.2L1277.5,900.2z"/>
			</g>
		</g>
		<g>
			<g>
				<path class="st117" d="M1309.3,938.3c0-10.1,1-19.6,2.8-26.8c1.7-6.6,3.9-10.5,5.9-10.5c0.2,0,0.3,0,0.4,0l1.3,0.3
					c4.1,1,8.4,16.2,8.4,37.2v104l-18.8,4.7V938.3z"/>
				<path class="st118" d="M1318.1,901.8c0,0,0.1,0,0.2,0l1.3,0.3c3.2,0.8,7.8,14.2,7.8,36.5v103.3l-17.2,4.3V938.3
					c0-10.1,1-19.5,2.8-26.6C1314.9,903.9,1317.1,901.8,1318.1,901.8C1318.1,901.8,1318.1,901.8,1318.1,901.8L1318.1,901.8z
					 M1318.1,900.2c-2.6,0-4.9,3.9-6.7,11.1c-1.8,7.2-2.8,16.8-2.8,27v110l20.4-5.1V938.6c0-20.1-4-36.8-9-38l-1.3-0.3
					C1318.4,900.2,1318.3,900.2,1318.1,900.2L1318.1,900.2z"/>
			</g>
		</g>
		<polygon class="st119" points="1330.3,894 1431.5,897.1 1431.5,1018.8 1330.8,1042.8 		"/>
		<polygon class="st120" points="1266.3,869.5 1284.7,889.4 1294.9,889.4 1274.3,870 		"/>
		<polygon class="st121" points="1274.3,870 1294.9,889.4 1306.3,889.4 1285.1,870.7 		"/>
		<polygon class="st120" points="1285.1,870.7 1306.3,889.4 1317,889.4 1295.2,871.3 		"/>
		<polygon class="st121" points="1295.2,871.3 1317,889.4 1328.2,889.4 1305.9,872 		"/>
		<polygon class="st120" points="1305.9,872 1328.2,889.4 1340.5,889.4 1316.8,872.6 		"/>
		<polygon class="st120" points="1330.4,873.5 1326.3,873.2 1353.7,889.4 1363.7,889.4 		"/>
		<polygon class="st121" points="1316.8,872.6 1340.5,889.4 1353.7,889.4 1326.3,873.2 		"/>
		<polygon class="st121" points="1284.7,896.9 1284.7,889.4 1363.7,889.4 1363.7,896.9 		"/>
		<polygon class="st122" points="1284.7,896.9 1284.7,889.4 1294.9,889.4 1294.9,896.9 		"/>
		<rect x="1306.3" y="889.4" class="st122" width="10.7" height="7.5"/>
		<polygon class="st122" points="1328.2,889.4 1340.5,889.4 1340.5,896.9 1328.2,896.9 1328.2,889.8 		"/>
		<rect x="1353.7" y="889.4" class="st122" width="10.1" height="7.5"/>
		<g>
			<polygon class="st91" points="1545,795.4 1457.3,695.9 1425,714.3 1425,709.8 1458,691.9 1545.1,791 			"/>
		</g>
		<polygon class="st123" points="1330.8,712.7 1425,709.8 1425,714.3 1431.5,710.6 1431.1,716.4 1330.8,718.9 		"/>
		<g class="st36">
			<path class="st91" d="M1349.5,1007.9c-0.1,0-0.3,0-0.4-0.1c-0.4-0.2-0.5-0.7-0.3-1.1l55.7-92.3c0.2-0.4,0.7-0.5,1.1-0.3
				s0.5,0.7,0.3,1.1l-55.7,92.3C1350,1007.7,1349.7,1007.9,1349.5,1007.9z"/>
		</g>
		<g class="st36">
			<path class="st91" d="M1349.5,1020.9c-0.2,0-0.3,0-0.4-0.1c-0.4-0.2-0.5-0.7-0.2-1.1l70.8-108.6c0.2-0.4,0.7-0.5,1.1-0.2
				c0.4,0.2,0.5,0.7,0.2,1.1l-70.8,108.6C1350,1020.8,1349.7,1020.9,1349.5,1020.9z"/>
		</g>
		<g class="st36">
			<path class="st91" d="M1358.7,1031.4c-0.1,0-0.3,0-0.4-0.1c-0.4-0.2-0.5-0.7-0.3-1.1l66.3-108.6c0.2-0.4,0.7-0.5,1.1-0.3
				c0.4,0.2,0.5,0.7,0.3,1.1l-66.3,108.6C1359.2,1031.3,1358.9,1031.4,1358.7,1031.4z"/>
		</g>
		<g class="st36">
			<path class="st91" d="M1381.1,1016.4c-0.2,0-0.3,0-0.4-0.1c-0.4-0.2-0.5-0.7-0.2-1.1l37.2-57.1c0.2-0.4,0.8-0.5,1.1-0.2
				c0.4,0.2,0.5,0.7,0.2,1.1l-37.2,57.1C1381.7,1016.3,1381.4,1016.4,1381.1,1016.4z"/>
		</g>
		<g>
			<polygon class="st124" points="1332.4,911.3 1429.9,911.3 1429.9,1017.5 1332,1040.4 			"/>
			<path class="st125" d="M1330.8,909.7l-0.4,132.8l101.1-23.7V909.7L1330.8,909.7L1330.8,909.7z M1404.4,912.9v108.9l-38,8.9V912.9
				L1404.4,912.9L1404.4,912.9z M1334,912.9h29.2v118.6l-29.6,6.9L1334,912.9z M1428.3,1016.2l-20.6,4.8V912.9h20.6V1016.2z"/>
		</g>
		<polygon class="st126" points="1542.2,823.1 1607.9,840.5 1603,843.1 1603,846.7 1542.2,833.3 		"/>
		<polygon class="st91" points="1542.2,817.7 1607.9,836.4 1607.9,840.5 1542.2,823.1 		"/>
		<g>
			<rect x="163.6" y="175.6" class="st58" width="412" height="24"/>
			<path class="st127" d="M576.5,200.5H162.8v-25.6h413.7L576.5,200.5L576.5,200.5z M164.4,198.9h410.4v-22.4H164.4V198.9z"/>
		</g>
		<g>
			<polygon class="st94" points="1431.9,897.5 1602.6,897.5 1602.6,908.6 1431.9,913.6 			"/>
			<path class="st12" d="M1602.2,897.9v10.3l-169.9,4.9v-15.2L1602.2,897.9L1602.2,897.9z M1603,897.1l-171.5,0V914l171.5-5V897.1
				L1603,897.1z"/>
		</g>
		<polygon class="st128" points="1542.2,833.3 1542.2,895.3 1553.6,895.7 1553.6,835.8 		"/>
		<polygon class="st128" points="1558.8,836.9 1558.8,895.8 1567.1,896 1567.1,838.8 		"/>
		<polygon class="st128" points="1570.8,839.6 1570.8,896.2 1578.8,896.4 1578.8,841.4 		"/>
		<polygon class="st128" points="1582.3,842.1 1582.3,896.5 1589.3,896.7 1589.3,843.7 		"/>
		<polygon class="st128" points="1592.9,844.5 1592.9,896.8 1598.8,896.9 1598.8,845.7 		"/>
		<polygon class="st1" points="1542.2,833.3 1542.2,835.4 1550.2,837.2 1550.2,895.6 1553.6,895.7 1553.6,835.8 		"/>
		<polygon class="st1" points="1558.8,836.9 1558.8,839.1 1563.7,840.2 1563.7,896 1567.1,896 1567.1,838.8 		"/>
		<polygon class="st1" points="1570.8,839.6 1570.8,841.7 1575.3,842.8 1575.3,896.3 1578.8,896.4 1578.8,841.4 		"/>
		<polygon class="st1" points="1582.3,842.1 1582.3,844.3 1585.9,845.1 1585.9,896.6 1589.3,896.7 1589.3,843.7 		"/>
		<polygon class="st1" points="1592.9,844.5 1592.9,846.6 1595.4,847.1 1595.4,896.8 1598.8,896.9 1598.8,845.7 		"/>
		<g>
			<polygon class="st129" points="1510.8,823.7 1510.8,761 1538.2,791.4 1538.2,825.8 			"/>
			<path class="st127" d="M1511.6,763.1l25.8,28.7v33.2l-25.8-2V763.1L1511.6,763.1z M1509.9,758.9v65.5l29,2.3v-35.5L1509.9,758.9
				L1509.9,758.9z"/>
		</g>
		<g>
			<polygon class="st129" points="1483.2,822.3 1483.2,730.9 1505.5,755.4 1505.5,823.5 			"/>
			<path class="st127" d="M1484,733l20.7,22.8v66.9l-20.7-1.1V733L1484,733z M1482.4,728.8v94.3l23.9,1.3v-69.2L1482.4,728.8
				L1482.4,728.8z"/>
		</g>
		<g>
			<polygon class="st129" points="1439.6,820.3 1438.7,714.8 1457.8,704.8 1477.3,726.4 1477.3,822.2 			"/>
			<path class="st127" d="M1457.6,705.8l18.9,20.9v94.6l-36.1-1.8l-1-104.3L1457.6,705.8L1457.6,705.8z M1458,703.8l-20.2,10.5
				l1,106.8l39.3,1.9v-97L1458,703.8L1458,703.8z"/>
		</g>
		<g>
			<polygon class="st129" points="1439.9,826.9 1477.3,828.8 1477.3,896.3 1439.9,896.3 			"/>
			<path class="st127" d="M1440.8,827.7l35.8,1.8v65.9l-35.8,0V827.7L1440.8,827.7z M1439.2,826.1v71.1l39,0v-69L1439.2,826.1
				L1439.2,826.1z"/>
		</g>
		<g>
			<polygon class="st129" points="1483.2,896.3 1483.2,828.4 1504.3,829.9 1504.3,896.3 			"/>
			<path class="st127" d="M1484,829.3l19.5,1.3v64.9H1484V829.3L1484,829.3z M1482.4,827.6v69.5h22.7v-68L1482.4,827.6L1482.4,827.6
				z"/>
		</g>
		<g>
			<polygon class="st129" points="1510.8,896.3 1510.8,830 1538.2,831.7 1538.2,896.3 			"/>
			<path class="st127" d="M1511.6,830.8l25.8,1.7v62.9h-25.8V830.8L1511.6,830.8z M1509.9,829.1v67.9h29V831L1509.9,829.1
				L1509.9,829.1z"/>
		</g>
		<polygon class="st130" points="1434.6,917.3 1494,914.4 1494,993.4 1434.6,1007.3 		"/>
		<polygon class="st131" points="1434.6,917.3 1434.6,922 1488.3,919.4 1488.3,994.8 1494,993.4 1494,914.4 		"/>
		<path class="st12" d="M1493.6,914.8v78.3l-58.6,13.7v-89.1L1493.6,914.8L1493.6,914.8z M1494.4,914l-60.2,3v90.9l60.2-14.1
			L1494.4,914L1494.4,914z"/>
		<polygon class="st130" points="1545.5,912.9 1574.6,911.7 1574.6,976.4 1545.5,982.8 		"/>
		<polygon class="st131" points="1545.5,912.9 1545.5,915.5 1571.2,914.4 1571.2,977.2 1574.6,976.4 1574.6,911.7 		"/>
		<path class="st12" d="M1574.2,912.1v64l-28.2,6.2v-69L1574.2,912.1L1574.2,912.1z M1575,911.3l-29.9,1.2v70.8l29.9-6.5V911.3
			L1575,911.3z"/>
		<polygon class="st130" points="1579.2,911.7 1598.4,910.8 1598.4,971.6 1579.2,975.6 		"/>
		<polygon class="st131" points="1579.2,911.7 1579.2,914.7 1595.4,914 1595.4,972.2 1598.4,971.6 1598.4,910.8 		"/>
		<path class="st12" d="M1598,911.2v60l-18.4,3.8v-63L1598,911.2L1598,911.2z M1598.8,910.4l-20.1,0.9v64.8l20.1-4.2V910.4
			L1598.8,910.4z"/>
		<polygon class="st131" points="1501,912.8 1501,1001.6 1542.2,991.4 1542.2,911.7 		"/>
		<polygon class="st132" points="1431.5,914 1473.7,931.1 1621.2,922.5 1603,909 		"/>
		<path class="st133" d="M1473.7,931.1C1473.7,931.1,1473.7,931.1,1473.7,931.1c0,2.7,2.9,4.8,6.6,4.8c3,0,5.5-1.5,6.3-3.5
			c1.1,1.6,3.3,2.7,5.9,2.7c3,0,5.5-1.5,6.3-3.5c1.1,1.6,3.3,2.7,5.9,2.7c3,0,5.5-1.5,6.3-3.5c1.1,1.6,3.3,2.7,5.9,2.7
			c3,0,5.5-1.5,6.3-3.5c1.1,1.6,3.3,2.7,5.9,2.7c3,0,5.5-1.5,6.3-3.5c1.1,1.6,3.3,2.7,5.9,2.7c3,0,5.5-1.5,6.3-3.5
			c1.1,1.6,3.3,2.7,5.9,2.7c3,0,5.5-1.5,6.3-3.5c1.1,1.6,3.3,2.7,5.9,2.7c3,0,5.5-1.5,6.3-3.5c1.1,1.6,3.3,2.7,5.9,2.7
			c3,0,5.5-1.5,6.3-3.5c1.1,1.6,3.3,2.7,5.9,2.7c3,0,5.5-1.5,6.3-3.5c1.1,1.6,3.3,2.7,5.9,2.7c3,0,5.5-1.5,6.3-3.5
			c1.1,1.6,3.3,2.7,5.9,2.7c3.6,0,6.6-2.1,6.6-4.7c0-0.1,0-0.2-0.1-0.3L1473.7,931.1z"/>
		<polygon class="st60" points="580.6,187.6 580.6,392 605.7,404.2 605.7,203.7 		"/>
		<polygon class="st60" points="610.1,207.3 637.2,225.4 637.2,417.4 610.1,404.3 		"/>
		<polygon class="st60" points="639.7,226.8 662.7,244 662.7,428.7 639.7,417.6 		"/>
		<polygon class="st60" points="668.7,246.8 691.7,264 691.7,448.7 668.7,437.7 		"/>
		<polygon class="st134" points="580.6,187.6 580.6,193.9 599.6,206 599.6,401.3 605.7,404.2 605.7,203.7 		"/>
		<polygon class="st134" points="610.1,207.3 610.1,213.7 631.1,227.8 631.1,416.5 637.2,417.4 637.2,225.4 		"/>
		<polygon class="st134" points="639.7,226.8 639.7,233.7 656.6,246.3 656.6,425.8 662.7,428.7 662.7,244 		"/>
		<polygon class="st134" points="668.7,246.8 668.7,253.7 685.6,266.4 685.6,445.8 691.7,448.7 691.7,264 		"/>
		<g>
			<polygon class="st76" points="489,374.8 489,354.5 948,546.7 948,563.7 			"/>
			<path class="st104" d="M489.8,355.7L948,547.6v15.3L489.8,374.2V355.7L489.8,355.7z M488.2,353.3v22l461.5,190v-18.8L488.2,353.3
				L488.2,353.3z"/>
		</g>
		<polygon class="st135" points="2915.2,967.3 2915.2,947.3 3294,947.3 3294,976 		"/>
		<rect x="3294" y="947.3" class="st136" width="709.1" height="28.7"/>
		<g class="st137">
			<path class="st138" d="M2488,901.6c-0.2,0-0.5-0.1-0.7-0.2c-0.8-0.4-1.2-1.3-0.8-2.1l24.4-52.7c0.4-0.8,1.3-1.2,2.1-0.8
				c0.8,0.4,1.2,1.3,0.8,2.1l-24.4,52.7C2489.2,901.3,2488.6,901.6,2488,901.6z"/>
		</g>
		<g class="st137">
			<path class="st138" d="M2482.9,943.4c-0.2,0-0.5-0.1-0.7-0.2c-0.8-0.4-1.1-1.3-0.8-2.2l47-99.2c0.4-0.8,1.4-1.1,2.1-0.8
				c0.8,0.4,1.1,1.3,0.8,2.2l-47,99.2C2484.1,943.1,2483.5,943.4,2482.9,943.4z"/>
		</g>
		<g class="st137">
			<path class="st138" d="M2488,965.2c-0.2,0-0.5-0.1-0.7-0.2c-0.8-0.4-1.1-1.3-0.8-2.2l37.2-77c0.4-0.8,1.4-1.1,2.1-0.8
				c0.8,0.4,1.1,1.3,0.8,2.2l-37.2,77C2489.2,964.9,2488.6,965.2,2488,965.2z"/>
		</g>
		<g class="st137">
			<path class="st138" d="M2488,1011.9c-0.2,0-0.5-0.1-0.7-0.2c-0.8-0.4-1.2-1.3-0.8-2.1l34-74.1c0.4-0.8,1.3-1.2,2.1-0.8
				c0.8,0.4,1.2,1.3,0.8,2.1l-34,74.1C2489.2,1011.5,2488.6,1011.9,2488,1011.9z"/>
		</g>
		<g class="st137">
			<path class="st138" d="M2565.7,904.8c-0.2,0-0.5-0.1-0.7-0.2c-0.8-0.4-1.2-1.3-0.8-2.1l24.4-52.7c0.4-0.8,1.3-1.2,2.1-0.8
				c0.8,0.4,1.2,1.3,0.8,2.1l-24.4,52.7C2566.9,904.5,2566.3,904.8,2565.7,904.8z"/>
		</g>
		<g class="st137">
			<path class="st138" d="M2560.6,946.6c-0.2,0-0.5-0.1-0.7-0.2c-0.8-0.4-1.1-1.3-0.8-2.2l47-99.2c0.4-0.8,1.4-1.1,2.1-0.8
				c0.8,0.4,1.1,1.3,0.8,2.2l-47,99.2C2561.7,946.3,2561.2,946.6,2560.6,946.6z"/>
		</g>
		<g class="st137">
			<path class="st138" d="M2565.7,968.4c-0.2,0-0.5-0.1-0.7-0.2c-0.8-0.4-1.1-1.3-0.8-2.2l37.2-77c0.4-0.8,1.4-1.1,2.1-0.8
				c0.8,0.4,1.1,1.3,0.8,2.2l-37.2,77C2566.9,968.1,2566.3,968.4,2565.7,968.4z"/>
		</g>
		<g class="st137">
			<path class="st138" d="M2565.7,1015.1c-0.2,0-0.4-0.1-0.7-0.2c-0.8-0.4-1.2-1.3-0.8-2.1l34-74.1c0.4-0.8,1.3-1.2,2.1-0.8
				c0.8,0.4,1.2,1.3,0.8,2.1l-34,74.1C2566.9,1014.7,2566.3,1015.1,2565.7,1015.1z"/>
		</g>
		<polygon class="st139" points="1618.9,967.3 488.3,1250.5 53.2,1250.8 52.6,1320.9 599.8,1319.5 1639,967.3 		"/>
		<g>
			<polygon class="st140" points="1625.6,967.3 494.2,1263.3 59.2,1263.5 58.5,1333.7 605.7,1332.3 1639,967.3 			"/>
			<polygon class="st141" points="1618.9,967.3 488.3,1250.5 53.2,1250.8 52.6,1320.9 599.8,1319.5 1639,967.3 			"/>
			<g>
				<polygon class="st140" points="890.5,1221 631.1,1225.1 874.5,1226.4 880.2,1234.5 892.6,1230.9 				"/>
				<polygon class="st140" points="1142.5,1135.6 955.9,1142.5 1135.3,1138.1 1134.8,1145.7 1143.3,1142.7 				"/>
				<polygon class="st140" points="1190.4,1080 1322.2,1074.7 1322.1,1079.7 1332.8,1075.9 1329,1072.4 				"/>
				<polygon class="st140" points="1361.1,1036.5 1434.1,1037.6 1436,1036.1 				"/>
				<polygon class="st140" points="488.3,1250.5 603.7,1319 604.2,1331.8 616.3,1328.6 607.3,1317 				"/>
				<polygon class="st140" points="91,1321.2 90.6,1333.6 100.1,1333.6 99.8,1321.6 231.2,1250.4 				"/>
			</g>
		</g>
		<g>
			<polygon class="st142" points="2140.9,966.6 3294.8,1274.2 3978.9,1274.2 3986.1,1362.7 3173.7,1362.7 2113.5,966.5 			"/>
			<polygon class="st143" points="2140.9,966.6 3294.8,1274.2 3978.9,1274.2 3985,1348.7 3175.8,1348.7 2113.5,966.5 			"/>
			<g>
				<polygon class="st144" points="3177.6,1351.4 3283.2,1275 3167.1,1350.5 				"/>
				<polygon class="st144" points="3542.8,1350.6 3551.5,1351.4 3492.8,1274.2 				"/>
				<polygon class="st144" points="3768.5,1275 3901.2,1357.9 3904.5,1352.4 				"/>
				<polygon class="st144" points="2921.2,1259.9 3077.5,1216.3 2908.9,1256.2 				"/>
				<polygon class="st144" points="2680.1,1177.5 2857.6,1152 2679.7,1174.3 				"/>
				<polygon class="st144" points="2495.9,1106.9 2501.9,1109.2 2632.4,1103.2 				"/>
				<polygon class="st144" points="2339.6,1049.4 2446.4,1049.6 2331,1045.9 				"/>
				<polygon class="st144" points="2224.5,1007.3 2283.1,1006.5 2218.4,1004.2 				"/>
			</g>
		</g>
		<g>
			<polygon class="st145" points="2115.5,972 2108.2,972 2111.6,766.8 2113.6,766.8 			"/>
			<path class="st146" d="M2111.5,972h-3.3l3.4-205.2h1.5C2112.8,794.7,2110.9,943.8,2111.5,972z"/>
			<polygon class="st147" points="2119.1,972 2104.5,972 2106.2,910.9 2117.1,910.9 2117.1,911.2 2119,968.9 			"/>
			<path class="st148" d="M2119.1,972h-14.6l1.6-61.1h10.9l0,0.3c-2,1.7-4.1,4.7-5.4,9.9c-2.1,8.6,4,34.8,7.3,47.7L2119.1,972z"/>
			<path class="st148" d="M2122,972h-20.3l0,0c0-2,1.6-3.7,3.7-3.7h12.9C2120.3,968.3,2122,970,2122,972L2122,972z"/>
			<path class="st147" d="M2117.5,911h-11.6c-0.6,0-1-0.4-1-1l0,0c0-0.6,0.4-1,1-1h11.6c0.6,0,1,0.4,1,1l0,0
				C2118.5,910.6,2118.1,911,2117.5,911z"/>
			<path class="st149" d="M2118.1,913h-12.9c-0.6,0-1-0.4-1-1l0,0c0-0.6,0.4-1,1-1h12.9c0.6,0,1,0.4,1,1l0,0
				C2119.1,912.6,2118.7,913,2118.1,913z"/>
			<path class="st146" d="M2112.6,768.1L2112.6,768.1c-1.3,0-2.4-1.1-2.4-2.4v-3.4h4.8v3.4C2115,767.1,2113.9,768.1,2112.6,768.1z"
				/>
			<polygon class="st150" points="2118.7,740.4 2116.7,762.8 2115.2,762.8 2107.9,762.7 2105.7,740.4 			"/>
			<path class="st151" d="M2115.2,762.8l-7.3,0l-2.2-22.3h5.6c-0.3,2.3-1,11.2,3.3,20.8C2114.8,761.8,2115,762.3,2115.2,762.8z"/>
			<path class="st152" d="M2119.2,739.9h-14l2.2,22c0.1,0.6,0.5,1,1,1h0.2v0.2c0,1.2,0.8,2.1,1.8,2.1h4.3c1,0,1.8-1,1.8-2.1v-0.2
				l0,0c0.5,0,0.9-0.5,1-1L2119.2,739.9z M2114.9,742.1l-1.4,19.4c-0.1,0.7-0.5,1.2-1,1.2h-0.1c-0.6,0-1-0.5-1.1-1.2l-0.9-19.4
				c0-0.6,0.4-1.1,0.8-1.1h2.8C2114.6,741,2114.9,741.5,2114.9,742.1z M2107.2,741h1.5c0.5,0,0.8,0.4,0.9,1l0.9,19.4
				c0,0.6-0.4,1.2-0.9,1.2h0c-0.6,0-1.1-0.5-1.2-1.2l-1.9-19.2C2106.2,741.5,2106.6,741,2107.2,741z M2114.3,761.7l1.6-20
				c0-0.4,0.3-0.7,0.7-0.7h0.9c0.4,0,0.7,0.4,0.7,0.9l-1.7,19.5c-0.1,0.7-0.6,1.3-1.2,1.3h-0.2
				C2114.6,762.6,2114.2,762.2,2114.3,761.7z"/>
			<path class="st153" d="M2117.3,737.4c0-1.2-0.8-2.2-1.9-2.2h-1.8v-0.2c0-0.7-0.5-1.3-1.1-1.3h-1.2c-0.6,0-1.1,0.6-1.1,1.3v0.2
				h-1.5c-1,0-1.8,1-1.9,2.2c-1.3,0.2-2.3,1.5-2.3,3.1h14.9C2119.5,738.9,2118.5,737.6,2117.3,737.4z"/>
		</g>
		<g>
			<g>
				<path class="st154" d="M1973.2,775.2c0,0.6,0.2,1.1,0.5,1.6c1.3,2.3,5.4,4.2,11.2,5.6c1.1,0.3,2.2,0.5,3.3,0.8l0,0
					c0,0,0.1,0,0.1,0c1.1,0.2,2.2,0.4,3.3,0.6c0.3,0.1,0.7,0.1,1.1,0.2h0c1.4,0.2,2.9,0.5,4.4,0.7c0.3,0,0.6,0.1,1,0.1
					c1.1,0.1,2.1,0.3,3.2,0.4c6.6,0.8,14,1.4,21.6,1.8c1.8,0.1,3.7,0.2,5.6,0.3c4.4,0.2,8.9,0.4,13.3,0.5c0.9,0,1.9,0.1,2.9,0.1
					c6,0.2,11.8,0.3,17.2,0.3c0.9,0,1.9,0,2.8,0c5.8,0.1,11.1,0.1,15.5,0.1c2.3,0,4.4,0,6.1,0c0.3,0,0.6,0,0.9,0c0.8,0,1.7,0,2.5,0
					c0.8,0,1.6,0,2.4-0.1c6.7-0.3,13.4-1.3,20-2.8c0.6-0.1,1.3-0.3,1.9-0.4c14.7-3.3,28.7-8.1,39.4-9.8c3.1-0.5,6.7-0.6,10.5-0.6
					c1.1,0,2.2,0,3.3,0c0.1,0,0.2,0,0.4,0c2.2,0,4.4,0.1,6.6,0.2c0.3,0,0.6,0,0.9,0c13.6,0.2,25.5-0.7,21.6-13.5
					c-6.1-20-6.1-28.4-6.1-28.4l-6.6-1.6l-12.5-3l-27.8-6.7l-54.7,4.3l-8.5,0.7l-4.5,0.4c0,0-4.2-4.3-9.9-9.8c0,0,0,0-0.1-0.1
					c-0.5-0.5-1-1-1.5-1.5c-0.1-0.1-0.1-0.1-0.2-0.2c-13.6-13.1-33.4-31.4-28.2-20.1c3.3,7.1-7.7,20-21.3,33.6
					c-1.3,1.3-2.6,2.6-3.9,3.8c-1,0.9-1.9,1.9-2.9,2.8c-1.5,1.4-2.9,2.8-4.4,4.2c-8.2,7.8-16.2,15.3-22,21.7c-0.4,0.5-0.9,1-1.3,1.5
					c-1.1,1.2-2.1,2.4-2.9,3.5c-0.2,0.3-0.4,0.5-0.6,0.8c-1.7,2.2-2.8,4.2-3.3,5.9l0,0C1973.3,773.9,1973.2,774.6,1973.2,775.2z"/>
				<ellipse class="st155" cx="2136.4" cy="705" rx="24.5" ry="15.5"/>
				<ellipse class="st156" cx="2136.4" cy="705" rx="24.5" ry="15.5"/>
				<path class="st157" d="M1995.1,782.9c0,0,0.8,0.6,2.1,1.5c0.1,0.1,0.2,0.1,0.3,0.2c0.2,0.1,0.3,0.2,0.5,0.3
					c4.1,2.6,12.2,7,22.3,9.3c3.8,0.9,7.9,1.4,12.2,1.4c0.7,0,3.3,0,3.3,0c12.6,7.8,29.8,16.5,46,17.4l4.9,2.6
					c0.9,0.8,1.9,1.6,2.8,2.4c7.7,6.5,19.3,7.2,28.5,13.3c3.4,2.2,6.4,5.2,8.9,9.4c9.4,16.1,0,143.2,0,143.2s3.2,0,4.9,2.4
					c0.6,0.8,1.7,1.1,3,1.1c2.4,0,5.2-1.1,5.2-1.1l-1-6.7c0,0,1.2-117.1-2.2-136.7c-3.3-18.9,16.4-42.1,24.3-56.5
					c0.4-0.8,0.8-1.5,1.2-2.3c1.3-2.5,2.6-4.9,3.9-7.4c0.3-0.7,0.7-1.3,1-2c0-0.1,0.1-0.2,0.1-0.2c6.9-13.5,13-27.7,16.7-43.1
					c0.8-3.2,1.4-6.5,2-9.8c-3.3-5.2,0.6,1-2.6-4.2c-2.7,7-17.4,51.9-18.4,54.7c-0.3,0.8-0.7,1.7-1,2.5l-0.2,0.6
					c-4.3,9.8-10.6,18.4-17.4,25.7c-1.2,1.3-2.5,2.6-4,3.1c-1.9,0.7-4,0-5.9-0.8c-8.6-3.6-16.1-10.1-22.4-18.3
					c-3.9-5.1-7.4-10.7-10.4-16.7c-0.5-1-1-2-1.4-3c-0.2-0.4-0.8-1.7-0.9-2c-0.2-0.5-2.9-6.8-3.8-9.5c-0.2-0.5-1.5-4.2-1.6-4.5
					c0,0,0,0,0,0c-0.1-0.4-1.5-4.6-1.8-5.4c-0.1-0.3-1.9-6.4-2-6.8c0,0-1.3-4.8-1.5-5.5c0-0.2-0.5-1.8-0.6-2.5
					c-0.3-1-0.6-2.1-0.8-3.2c-0.7-2.8-1.4-5.5-2.1-8.3c-2.9,1.1-5.8,2.2-8.7,3.3c0.8,1.9,1.5,3.8,2.2,5.7c1.5,3.7,2.9,7.4,4.5,11
					c1.2,2.9,2.4,5.7,3.7,8.5c0.2,0.5,0.4,0.9,0.6,1.3c2.8,6.3,5.9,12.5,9.2,18.3c4,7,8.4,13.7,13.5,19.6c0.6,0.7,1.1,1.3,1.7,2
					c7.8,8.6,17.9,17.8,17,30.7c-0.2,3.3-1.5,6.8-3.9,8.2c-0.1,0-0.1,0.1-0.2,0.1c-0.1,0-0.2,0.1-0.3,0.1c-1.5,0.7-3.2,0.4-4.8,0.1
					c-8.1-1.6-16-4.5-23.5-8.6c0.1-2.7-0.8-9.7-6.1-29.8c-0.1-0.5-0.3-1-0.4-1.6c-1.4-5.3-3.5-11.9-5.5-18
					c-1.6-4.8-3.1-9.3-4.2-12.7c-0.9-2.5-1.5-4.3-1.8-5.2c-0.1-0.3-0.2-0.5-0.2-0.5l-0.5-0.2c0,0-0.6,0.6-0.4,1.1l0,0c0,0,0,0,0,0
					c0.5,1.6,1,3.5,1.7,5.6c1.1,3.7,2.3,7.9,3.6,12.3c2,7,4,14.1,5.4,19.1c0.2,0.7,0.3,1.3,0.5,1.8c-1-0.5-2.3-1.2-3.9-1.9
					c-1.7-0.7-3.7-1.5-6.1-2.1c-3.2-0.9-6-6.8-8.2-13.1c-1.8-5.1-3.2-10.5-4-14c-0.2-0.8-0.4-1.6-0.5-2.2c-0.1-0.5-0.2-0.8-0.2-1.1
					c-0.1-0.3-0.1-0.5-0.1-0.5l-1.6-1c0,0.2,0.2,1,0.5,2.4c0.1,0.3,0.1,0.5,0.2,0.8c0.2,0.8,0.4,1.7,0.6,2.8
					c0.9,3.7,2.1,8.6,3.7,13.3c2.4,7,5.6,13.5,9.3,14.6c0.1,0,0.2,0.1,0.3,0.1c5.6,1.7,9.2,3.7,10.7,4.6c2.7,10.3,4.8,19.5,5,23.9
					c-10.4-6.2-20-14.6-28.2-24.7c-1-1.3-2-2.5-3-3.9c-2.3-3.1-4.5-6.4-6.6-9.8c-0.6-1-1.3-2.1-1.9-3.2c-0.2-0.3-0.4-0.7-0.6-1.1
					c0,0-0.1-0.1-0.1-0.1l0,0c-1.2-2.2-2.4-4.5-3.6-6.8c0-0.1-0.1-0.1-0.1-0.2c-0.1-0.1-0.1-0.2-0.2-0.3c-0.1-0.3-0.3-0.6-0.4-0.8
					c-0.3-0.7-0.6-1.3-0.9-2c0-0.1-0.1-0.1-0.1-0.2c-0.2-0.4-0.4-0.8-0.5-1.2c-0.2-0.6-0.5-1.1-0.7-1.7c-1-2.4-3-11.3-5-19.5
					c0-0.1-0.1-0.3-0.1-0.4c-1.8-7.4-3.6-14-4.6-14.6c-1.2-0.7-2.7,0.7-3,2.2s0.1,3.3,0.5,4.8c0.8,3.1,1.8,6,2.7,9
					c0,0.1,0.1,0.2,0.1,0.2c2.8,8.8,6.1,16.8,9.7,24.4c2.1,4.3,4.3,8.4,6.7,12.3c1.9,3,3.8,6,5.8,8.9c1.6,2.2,3.2,4.4,4.9,6.5
					c-9.4-1.4-16.7-4-22.1-6.9c-1.3-0.7-2.6-1.4-3.7-2.1c-1.3-0.8-2.4-1.6-3.4-2.3c-3.7-2.7-6-5.2-7.3-6.8c-0.8-1-1.2-1.6-1.2-1.6
					l-0.9,0.8c0,0.1,0.3,0.5,0.9,1.3c1.2,1.6,3.7,4.4,7.8,7.5c0.8,0.6,1.6,1.2,2.6,1.8c0.7,0.5,1.5,0.9,2.3,1.4
					c5.8,3.4,14.2,6.9,25.6,8.4l0.6,0c4,5,7.8,9,12.5,13.6c-16.3-1.5-34.8-11.3-48.4-20.1c-1.2-0.8-2.4-1.5-3.5-2.3
					c-3.4-2.3-6.3-4.4-8.8-6.2c-0.1-0.1-0.2-0.2-0.4-0.3c-0.7-0.5-1.3-1-1.8-1.4c-1.1-0.8-2.1-1.6-2.9-2.2c-1.5-1.2-2.3-1.8-2.3-1.9
					l-0.2,0.4l-1,1.9l-0.2,0.3c0,0,0.7,0.6,1.9,1.6c0.7,0.6,1.6,1.3,2.7,2.1c0.1,0.1,0.3,0.2,0.4,0.3c0.6,0.5,1.3,1,2,1.5
					c1.5,1.1,3.2,2.3,5.1,3.7c1.8,1.2,3.7,2.6,5.8,4c1.6,1,3.2,2.1,4.9,3.2c-3.7,0.1-7.4-0.3-10.8-0.9c-9-1.7-16.6-5.3-21.5-8
					c-0.6-0.3-1.1-0.6-1.6-0.9c-0.3-0.2-0.6-0.4-0.9-0.5c-0.6-0.4-1.1-0.7-1.5-1c-1-0.7-1.6-1.1-1.6-1.1L1995.1,782.9z"/>
				<path class="st158" d="M2167.7,763.6c-1,4.1-2.4,8-4,11.7c0.9,0.5,1.7,1,2.6,1.5c8.8-17,16.6-35,19.8-55.1
					c-3.3-5.2-6.5-10.3-9.8-15.5C2169.4,723.8,2172.3,744.9,2167.7,763.6z"/>
				<path class="st158" d="M2080,750.4l-1.3-0.4c1.3,4.1,3.4,11.6,5.6,19.3c0.6-0.2,1.2-0.3,1.8-0.5
					C2083,759.1,2080,750.5,2080,750.4z"/>
				<path class="st158" d="M2067.2,755.4l-1.6-1c0.1,0.6,2,10.3,5,19.3c0.5-0.2,0.9-0.3,1.4-0.5
					C2069,764.8,2067.2,755.6,2067.2,755.4z"/>
				<path class="st158" d="M2036.9,784.6c0.8,0.6,1.6,1.2,2.6,1.8c0.5-0.2,0.9-0.4,1.4-0.6c-1.3-0.8-2.4-1.6-3.4-2.3
					c-6-4.4-8.5-8.4-8.5-8.4l-0.9,0.8C2028.3,776.1,2030.8,780.1,2036.9,784.6z"/>
				<path class="st158" d="M2010.9,777.9c0.1,0.1,7.3,6.1,17.8,13.1c1.1-0.4,2.2-0.9,3.3-1.3c-11.5-7.4-19.5-14.1-19.7-14.3
					L2010.9,777.9z"/>
				<path class="st158" d="M1995.1,782.9c0.1,0.1,10.7,8,25.2,11.3c0.8-0.3,1.6-0.6,2.5-0.9c-15.5-2.9-27-11.4-27.1-11.5
					L1995.1,782.9z"/>
				<path class="st159" d="M2118,831.4c3.4,2.2,6.4,5.2,8.9,9.4c9.4,16.1,0,143.2,0,143.2s3.2,0,4.9,2.4c0.6,0.8,1.7,1.1,3,1.1
					c0.5-4.3,1.7-15.8,2.8-29.5c1.4-17.4-2.2-26.1-4.1-40c-1.9-13.9,3.8-32.3,0-57.4C2129.7,835.5,2118,831.4,2118,831.4z"/>
				<path class="st158" d="M2087.1,717.8c3,12.2,6.2,24.5,10.4,36.1c2.1-7.4,10-20,10.4-20.6l0.9,0.7c-0.1,0.2-9.4,15-10.6,21.8
					c1.2,3.3,2.6,6.5,4,9.7c-1.2,0.2-2.5,0.4-3.7,0.6c-7.9-13.9-14.1-29.5-20.1-44.9C2081.3,720.1,2084.2,719,2087.1,717.8z"/>
				<path class="st158" d="M2036.3,728.6c0.3-1.6,1.8-2.9,3-2.2c2.1,1.2,7.8,29.9,9.7,34.5c1.7,4,3.6,8,5.6,11.7
					c0.8-4.8,3.3-13.4,3.4-13.8l1,0.4c-1,3.3-3.3,11.8-3.6,15.1c0.8,1.5,1.7,2.9,2.5,4.4c-0.7,0.3-1.4,0.5-2,0.8
					c-8-13.3-14.3-28.3-19.2-45.9C2036.4,731.9,2036,730.2,2036.3,728.6z"/>
				<path class="st155" d="M1972.5,777c2.2,2,5.7,3.7,10.7,5.2c24.4,7,47-4.5,68.2-16.3c16.4-9.1,32-18.5,47-19.8
					c0.4,0,0.7-0.1,1.1-0.1c10.3-0.6,16.8,0.7,21.5,2.8c11.1,5.1,11.8,15.3,29.3,17.2c2.6,0.3,5,0.7,7.1,1.2
					c0.4,0.2,0.7,0.5,1.1,0.7c11.4,5.8,16.8,19.3,21.9,18.5c3.9-0.6,14.5-1.3,18.1-10.5c1-2.6,1.5-5.8,1.1-9.9
					c-0.3-2.8-0.5-5.2-0.7-7.2c0.2-0.2,0.5-0.5,0.7-0.7c7.3-7.1,10.2-8.7,9.8-13.2c-0.6-6-9.6-38.2-9.6-38.2s0.3-0.6,0.1-1.4
					c-0.6-2.5-5.5-6.7-35.8-1.2c-1.5,0.3-2.9,0.5-4.3,0.7c-5.7,0.9-10.5,1.3-14.7,1.5c-22.7,0.9-27.7-7.1-50.4-4
					c-8.5,1.1-15,2.2-19.9,3.2l0,0c-11.4,2.1-14.5,3.5-14.2,2.8c0.5-1,0.9-2,1.2-2.9c7.5-20.1-18.4-22.6-24.9-19.6
					c-6.7,3.2-12.6,17.6-13.8,26.2c-0.1,0.8-0.3,1.5-0.5,2.2c-1.6,5.4-5.6,8-7.9,11.2c-0.6,0.8-1.1,1.7-1.3,2.7
					c-0.7,2.4-17,11.7-29.6,22.2c-1.5,1.2-2.9,2.5-4.3,3.8C1970.7,762.3,1965.5,770.8,1972.5,777z"/>
				<path class="st156" d="M2061.8,705.4c7.5-20.1-18.4-22.6-24.9-19.6c-6.7,3.2-12.6,17.6-13.8,26.2c-0.1,0.8-0.3,1.5-0.5,2.2
					C2035.5,710.7,2048.9,706.5,2061.8,705.4z"/>
				<path class="st156" d="M2121,748.8c11.1,5.1,11.8,15.3,29.3,17.2c2.6,0.3,5,0.7,7.1,1.2c0.4,0.2,0.7,0.5,1.1,0.7
					c11.4,5.8,16.8,19.3,21.9,18.5c3.9-0.6,14.5-1.3,18.1-10.5c-0.4-0.2-0.7-0.3-1.1-0.5c-22.8-11-24.9-44.7-52.5-69.1
					c-22.7,0.9-27.7-7.1-50.4-4c-8.5,1.1-15,2.2-19.9,3.2c6.6,0.7,13.1,2.6,19.1,6.3C2130.5,734.3,2144.4,741.4,2121,748.8z"/>
				<path class="st156" d="M1983.7,750.4c5.6-3.1,14.5-3.2,29.7,1.5c16.7,5.1,28.8,9.8,38.1,14c16.4-9.1,32-18.5,47-19.8
					c-17.1-10.3-36.7-33.7-83.8-20.6c-0.6,0.8-1.1,1.7-1.3,2.7C2012.6,730.5,1996.3,739.9,1983.7,750.4z"/>
				<path class="st156" d="M1972.5,777c1.8-9.4,3-17.6,6.9-22.9C1970.7,762.3,1965.5,770.8,1972.5,777z"/>
				<path class="st160" d="M2085.1,709.7c-4.9,2.7-10.2,4.3-15.7,5.3c-7.6,1.4-15.1,0.8-22.6,1.7c-6.4,0.8-13.4,4.1-15.6,10.8
					c-1,2.9-1,6.3-2.6,8.9c-1.4,2.2-3.7,3.4-5.9,4.5c-8.8,4.1-18.3,6.6-26.6,12.1c-5.8,3.9-18.3,24.4-3.6,25.1
					c-10.3-0.5-4.9-15.3-0.4-19.8c2-2.1,4.3-3.9,6.7-5.5c4.8-3.2,10-5.4,15.3-7.6c2.6-1.1,5.3-2.1,7.9-3.3c3.9-1.9,6.9-3.6,8.4-8.4
					c1-3.3,1.4-6.9,3.3-9.7c2.6-3.9,7.2-5.2,11.5-6C2058.6,715.6,2073.2,717.2,2085.1,709.7z"/>
				<path class="st161" d="M1999.4,783.2c0,0-0.8,1.1-3.1,1.8s-5.2-0.5-5.2-0.5s0.5-1.4,4-1.7s3.7,0.3,3.7,0.3L1999.4,783.2z"/>
				<path class="st161" d="M1992.6,777.4c0,0-0.5-3.7-2.8-3.1c-2.4,0.6-4,0.9-4,0.9s1.3,3.3,3,3.6
					C1990.4,779,1992.6,777.4,1992.6,777.4z"/>
				<path class="st161" d="M1988.2,783.2c0,0,0.3,2-1.5,3.2s-3.2,0.7-3.2,0.7s-0.6-3.5,0.8-4.3c1.4-0.8,3.6-1.9,4-0.6
					C1988.6,783.5,1988.2,783.2,1988.2,783.2z"/>
				<path class="st161" d="M1975.5,767.4c0,0-3.3-0.8-6.3,0c-3,0.8-3.8,2.7-3.8,2.7s2.8,1.1,5.9,1.3
					C1974.4,771.6,1975.5,767.4,1975.5,767.4z"/>
				<path class="st161" d="M1978.4,772.2c0,0-2.5-1.3-4.9,1c-2.4,2.3-3.1,3.2-3.1,3.2s2.7,1.2,5.1-0.3
					C1977.9,774.6,1978.4,772.2,1978.4,772.2z"/>
				<path class="st161" d="M1977.5,767.2c0,0,0.1-4.6-3.1-5.4c-3.2-0.8-5.5-1.2-5.5-1.2s1.4,5.7,3.5,6.7
					C1974.5,768.2,1977.5,767.2,1977.5,767.2z"/>
				<path class="st161" d="M1981.8,762.8c0,0,0.1-4.6-3.1-5.4c-3.2-0.8-5.5-1.2-5.5-1.2s1.4,5.7,3.5,6.7
					C1978.8,763.7,1981.8,762.8,1981.8,762.8z"/>
				<path class="st161" d="M2167.3,720.5c0,0,1.9-2.9,2.2-6.1c0.3-3.2-1.2-4.7-1.2-4.7s-1.9,2.4-3.2,5.3
					C2163.9,718,2167.3,720.5,2167.3,720.5z"/>
				<path class="st161" d="M2166.8,722.5c0,0,4.1,1.7,6-1.1c1.9-2.8,3-4.9,3-4.9s-5.7-0.6-7.3,1.1
					C2167,719.2,2166.8,722.5,2166.8,722.5z"/>
				<path class="st161" d="M2169.4,728.2c0,0,4.1,1.7,6-1.1c1.9-2.8,3-4.9,3-4.9s-5.7-0.6-7.3,1.1
					C2169.5,724.9,2169.4,728.2,2169.4,728.2z"/>
				<path class="st161" d="M2070.3,754.5c0,0,1.3-4.4-1.6-6.2s-4.9-2.9-4.9-2.9s-0.1,5.9,1.6,7.5
					C2067.2,754.5,2070.3,754.5,2070.3,754.5z"/>
				<path class="st161" d="M2016.4,735.2c0,0,1.3-4.4-1.6-6.2s-4.9-2.9-4.9-2.9s-0.1,5.9,1.6,7.5
					C2013.3,735.2,2016.4,735.2,2016.4,735.2z"/>
				<path class="st161" d="M2010.8,739.5c0,0-1.2-4.4-4.4-4.1c-3.3,0.3-5.6,0.6-5.6,0.6s2.8,5,5.1,5.2
					C2008.1,741.5,2010.8,739.5,2010.8,739.5z"/>
				<path class="st161" d="M2083.4,747.8c0,0-4.1,0.6-4.3,4.2c-0.2,3.6-0.2,6.2-0.2,6.2s4.9-2.4,5.4-4.8
					C2084.7,750.9,2083.4,747.8,2083.4,747.8z"/>
				<path class="st161" d="M2174.8,774.6c0,0-3.6,2.3-2.6,5.7c1,3.4,1.9,5.8,1.9,5.8s3.7-4.3,3.4-6.7S2174.8,774.6,2174.8,774.6z"/>
				<g>
					<g>
						<path class="st162" d="M2018.8,777c0,0,0.1-3.3-3.1-3.9c-3.2-0.6-5.5-0.9-5.5-0.9s1.4,4.1,3.5,4.8
							C2015.8,777.7,2018.8,777,2018.8,777z"/>
						<path class="st162" d="M2013.3,779.3c0,0-2-2.7-5.8-2.2c-3.8,0.5-4.2,1.1-4.2,1.1s1.1,1,3.3,1.8
							C2008.7,780.9,2013.3,779.3,2013.3,779.3z"/>
						<path class="st162" d="M2019.7,779.3c0,0,0.7,2.2-1.6,3.8s-3.5,1.8-3.5,1.8s0.7-2.5,1.1-4.2
							C2016,779.1,2019.7,779.3,2019.7,779.3z"/>
					</g>
					<g>
						<path class="st162" d="M2005,746.2c0,0,0.1-3.3-3.1-3.9c-3.2-0.6-5.5-0.9-5.5-0.9s1.4,4.1,3.5,4.8
							C2002,746.9,2005,746.2,2005,746.2z"/>
						<path class="st162" d="M1999.5,748.5c0,0-2-2.7-5.8-2.2c-3.8,0.5-4.2,1.1-4.2,1.1s1.1,1,3.3,1.8
							C1994.9,750,1999.5,748.5,1999.5,748.5z"/>
						<path class="st162" d="M2005.9,748.5c0,0,0.7,2.2-1.6,3.8s-3.5,1.8-3.5,1.8s0.7-2.5,1.1-4.2
							C2002.2,748.2,2005.9,748.5,2005.9,748.5z"/>
					</g>
					<g>
						<path class="st162" d="M2112.3,734.8c0,0,1.8-2.6-0.4-5.2c-2.3-2.5-4-4.3-4-4.3s-1.1,4.2,0.3,6.2
							C2109.5,733.4,2112.3,734.8,2112.3,734.8z"/>
						<path class="st162" d="M2106.6,733.1c0,0-0.2-3.5-3.6-5.5s-4-1.8-4-1.8s0.3,1.5,1.7,3.6
							C2102.1,731.4,2106.6,733.1,2106.6,733.1z"/>
						<path class="st162" d="M2111.8,737.2c0,0-0.6,2.3-3.3,2.1s-3.8-0.8-3.8-0.8s1.9-1.6,3.1-2.8
							C2109,734.6,2111.8,737.2,2111.8,737.2z"/>
					</g>
					<g>
						<path class="st162" d="M2093.1,713.3c0,0,1.8-2.6-0.4-5.2c-2.3-2.5-4-4.3-4-4.3s-1.1,4.2,0.3,6.2
							C2090.3,711.9,2093.1,713.3,2093.1,713.3z"/>
						<path class="st162" d="M2087.4,711.7c0,0-0.2-3.5-3.6-5.5c-3.4-2.1-4-1.8-4-1.8s0.3,1.5,1.7,3.6
							C2082.9,710,2087.4,711.7,2087.4,711.7z"/>
						<path class="st162" d="M2092.6,715.8c0,0-0.6,2.3-3.3,2.1s-3.8-0.8-3.8-0.8s1.9-1.6,3.1-2.8
							C2089.8,713.2,2092.6,715.8,2092.6,715.8z"/>
					</g>
					<g>
						<path class="st162" d="M2043.3,721.2c0,0,1.8-2.6-0.4-5.2c-2.3-2.5-4-4.3-4-4.3s-1.1,4.2,0.3,6.2
							C2040.5,719.8,2043.3,721.2,2043.3,721.2z"/>
						<path class="st162" d="M2037.7,719.5c0,0-0.2-3.5-3.6-5.5s-4-1.8-4-1.8s0.3,1.5,1.7,3.6
							C2033.1,717.8,2037.7,719.5,2037.7,719.5z"/>
						<path class="st162" d="M2042.8,723.6c0,0-0.6,2.3-3.3,2.1c-2.7-0.2-3.8-0.8-3.8-0.8s1.9-1.6,3.1-2.8
							C2040,721.1,2042.8,723.6,2042.8,723.6z"/>
					</g>
					<path class="st162" d="M2091.4,746.8c0,0,1.3-4.4-1.6-6.2s-4.9-2.9-4.9-2.9s-0.1,5.9,1.6,7.5
						C2088.3,746.8,2091.4,746.8,2091.4,746.8z"/>
					<path class="st162" d="M2028.8,742.8c0,0-3.5-2.5-5.8,0c-2.3,2.5-3.9,4.4-3.9,4.4s5.1,1.8,7,0.3
						C2027.9,746.1,2028.8,742.8,2028.8,742.8z"/>
					<path class="st162" d="M2067.5,755.7c0,0-4.7,3.1-4.8,5.1c-0.1,2,0.1,3.3,0.1,3.3s5.5-4.5,6-6.1
						C2069.2,756.4,2067.5,755.7,2067.5,755.7z"/>
				</g>
				<path class="st161" d="M2056.6,759c0,0-4.7,3.1-4.8,5.1c-0.1,2,0.1,3.3,0.1,3.3s5.5-4.5,6-6.1
					C2058.3,759.7,2056.6,759,2056.6,759z"/>
				<path class="st161" d="M2100.5,740.1c0,0-4.1,0.6-4.4,4.2s-0.2,6.2-0.2,6.2s4.9-2.4,5.4-4.8
					C2101.8,743.2,2100.5,740.1,2100.5,740.1z"/>
				<g>
					<path class="st160" d="M2046.7,730.9c0.2-3.2,0.7-6.5,2.5-9.1c1.8-2.6,4.6-4.2,7.6-4.9c4.6-1,10-0.6,13.8,2.8
						c-3.5-3.3-8.6-3.7-13.1-2.8c-2.3,0.5-4.5,1.3-6.3,2.9c-2.5,2.3-3.8,5.9-4.1,9.5c-0.2,2.4,2.1,4.8,1.3,7.2
						c-0.7,2-1.5-0.5-1.6-1.5C2046.5,733.8,2046.6,732.4,2046.7,730.9z"/>
					<path class="st160" d="M2047.5,740.1c0,0,0-0.1,0.1-0.2c0,0,0,0,0,0L2047.5,740.1z"/>
					<path class="st160" d="M2025.5,752.3c-1.4,2.2-2.4,4.7-2.9,7.3c0.2-1.6,0.7-3.2,1.4-4.7C2024.5,754,2025,753.1,2025.5,752.3z"
						/>
					<path class="st160" d="M2030.8,746.9c1.7-1.2,3.5-2.2,5.3-3.1c1.8-0.9,3.7-1.6,5.6-2.3c1.6-0.6,3.3-1,5-1.4
						c-1.1,1-3.1,1.1-4.9,1.7c-5.8,1.9-12.5,5-16.3,10.4C2026.9,750.2,2028.6,748.4,2030.8,746.9z"/>
					<path class="st160" d="M2022.7,759.6c-0.6,4.5,0.5,8.9,1.5,13.4c0.2,0.7,0.3,1.4,0.2,2.1c-0.1-1.7-0.6-3.3-1.1-5
						C2022.3,766.5,2022.1,762.9,2022.7,759.6z"/>
				</g>
				<path class="st161" d="M2027.3,773.2c-0.4-1.1,0.2-2.1-1.7-5c0,0-4.3-2.1-4.6-2.1s1,5.1,2.5,6.2
					C2025,773.2,2027.3,773.2,2027.3,773.2z"/>
				<ellipse class="st155" cx="2136.4" cy="705" rx="24.5" ry="15.5"/>
				<ellipse class="st156" cx="2136.4" cy="705" rx="24.5" ry="15.5"/>
			</g>
			<rect x="2118.2" y="983.5" class="st163" width="29.7" height="5.4"/>
		</g>
		<g>
			<path class="st164" d="M1437.8,1085.9c-30.7,0-51.5-6.8-51.5-11.6c0-1.3-1.6-11.2,1.2-12.6c7.6-3.8,27.9,1,50.3,1
				c20.6,0,40.9-5.6,49.1-2.1c4,1.7,1.9,12.1,1.9,13.7C1488.8,1079.2,1468.5,1085.9,1437.8,1085.9z"/>
			<path class="st165" d="M1437.8,1076.3c-30.7,0-49.6-6.8-49.6-11.6s18.8-11.6,49.6-11.6c30.7,0,49.6,6.8,49.6,11.6
				C1487.3,1069.6,1468.5,1076.3,1437.8,1076.3z"/>
			<path class="st166" d="M1437.8,1053.1c-30.7,0-49.6,6.8-49.6,11.6c0,0.7,0.4,1.4,1.1,2.1c6.3-4.1,23-8.1,46.8-8.1
				c26.5,0,44.1,5,48.5,9.5c1.8-1.2,2.8-2.4,2.8-3.4C1487.3,1059.9,1468.5,1053.1,1437.8,1053.1z"/>
			<path class="st167" d="M1437.8,1055.1c12.9,0,25.1,1.3,34.3,3.6c10.2,2.5,13,5.3,13.2,6.1c-0.3,0.7-3.1,3.6-13.2,6.1
				c-9.3,2.3-21.5,3.6-34.3,3.6s-25.1-1.3-34.3-3.6c-10.2-2.5-13-5.3-13.2-6.1c0.3-0.7,3.1-3.6,13.2-6.1
				C1412.7,1056.3,1424.9,1055.1,1437.8,1055.1L1437.8,1055.1z M1437.8,1051.2c-28.4,0-51.5,6.1-51.5,13.5s23.1,13.5,51.5,13.5
				s51.5-6.1,51.5-13.5S1466.2,1051.2,1437.8,1051.2L1437.8,1051.2z"/>
		</g>
		<g>
			<path class="st168" d="M1652.3,690.7c-4.1-23.1-16.3-33.8-30.3-37.2c13.6-15.7,23.5-35.8,20.9-54.5c-2.2-16-7.3-26-17.6-31.7
				c0-0.4,0.1-0.8,0.1-1.2c0-30.4-35-55-78.2-55c-35.5,0-65.5,16.6-75,39.4c-0.2-32.7-28.3-63.7-74.1-39.6
				c-66.1,34.8-49.4,95.7-35.7,98c0,0-82.7,18.7-51.5,76.3c31.3,57.5-54.2,1.8-34.3,72.9c19.9,71.1,86.5-14.9,135.9,9.3
				c20.1,9.8,39.6,6.9,56.2-2.4c22.6,7.5,55.9,19.2,72.3,27.7C1566.9,806.4,1664.8,761.5,1652.3,690.7z"/>
			<path class="st169" d="M1528,633.5l-4.7,5.6c0,0-32.4,170.5-61.4,237.9c-2-17.9-2.8-41.8-5.9-55.8c-7.3-33-30.7-343.2-30.7-343.2
				s19.9,304.7,0.1,258.2c-19.8-46.5-48.1-214.2-48.1-214.2l-8.5,15.2c0,0,23.6,52.7,22.9,98.6s-28-66.1-28-66.1l-12.8,3.2l28,80.5
				c0,0,49.2,74.6,52.7,173s-17.9,238.7-17.9,238.7h44.3c0,0,10.2-92.5,6.3-161.2c20.2-65.8,51.3-175.8,53-207.6
				C1519.6,652.4,1528,633.5,1528,633.5z"/>
			<path class="st169" d="M1309.6,652.8c0,0,82.5,52.2,95.7,54l5.9,9c0,0-114-59.2-113.5-63C1298.1,649,1309.6,652.8,1309.6,652.8z"
				/>
			<polygon class="st169" points="1489.4,590.8 1438.7,657.7 1437.6,667.8 			"/>
			<polygon class="st169" points="1500,778.3 1553.3,738.3 1570.8,730.9 1494.4,787.9 			"/>
			<path class="st170" d="M1638.1,522.7c-31.8-24.7-66.7-27-82.3-16.9c6.2-15.3,9.7-39.5-15.7-45.7c-43.6-10.6-110.1-13.4-118,27.6
				c-0.9,4.6-1.2,8.7-1.1,12.3c-5.3-1.2-11.5-2.1-18.7-2.8c-59.5-5.2-116-37.9-134.8,36.8c-1.1,4.2-70.8,47.9-31,88.2
				c-35,2.7-61.8,18.3-61.8,37.2c0,20.8,32.5,37.6,72.7,37.6c40.1,0,72.7-16.8,72.7-37.6c0-4.6-1.6-9-4.6-13.1
				c10.1-3.8,15.5-9.3,15.5-9.3s-16.9,32.9,22.8,33.8s56.5-14.1,66.4-36.6c6.3-14.4,2.1-19.6-1.7-21.4c10.8,2.5,39.9,8.4,53.8,2
				c5.6-2.6,10.1-6.8,13.2-11.6c-0.2,3.8,0.6,7.8,3.2,11.6c7.7,11.7,24.3,12.7,34.4,11c-19,13.3-60.2,57.2-6.9,96.6
				c65.6,48.5,121.8-25.6,96.2-55.1c0,0,42.4,12,57.5-38.7C1684.8,577.9,1677.6,553.4,1638.1,522.7z M1489.7,590.5
				c0.2-3.8-0.7-7.3-2.9-9.9c3.3,1.1,8.3,1.1,14.7-3.4C1501.4,577.3,1494.4,582.7,1489.7,590.5z"/>
			<g>
				<path class="st162" d="M1538.6,676.1c0,0-4-6.1,1-12c4.9-5.9,8.6-9.8,8.6-9.8s2.3,9.8-0.6,14.2
					C1544.7,673,1538.6,676.1,1538.6,676.1z"/>
				<path class="st162" d="M1550.9,672.3c0,0,0.4-8.1,7.8-12.8c7.3-4.8,8.6-4.2,8.6-4.2s-0.7,3.6-3.7,8.4
					C1560.7,668.4,1550.9,672.3,1550.9,672.3z"/>
				<path class="st162" d="M1539.7,681.8c0,0,1.2,5.2,7.1,4.9s8.3-1.8,8.3-1.8s-4.2-3.8-6.7-6.4
					C1545.8,675.8,1539.7,681.8,1539.7,681.8z"/>
			</g>
			<path class="st162" d="M1537.1,675.8c0,0-10.2,2.1-14-4.3s-6.1-11.1-6.1-11.1s13.6,0.5,17.1,4.5
				C1537.5,669,1537.1,675.8,1537.1,675.8z"/>
		</g>
		<polygon class="st127" points="1544.7,897.1 1542.2,897.1 1542.2,817.7 1544.7,818.4 		"/>
	</g>
</g>
</svg>
