<?xml version="1.0" encoding="utf-8"?>
<!-- Generator: Adobe Illustrator 26.3.1, SVG Export Plug-In . SVG Version: 6.00 Build 0)  -->
<svg version="1.1" id="Ebene_1" xmlns="http://www.w3.org/2000/svg" xmlns:xlink="http://www.w3.org/1999/xlink" x="0px" y="0px"
	 viewBox="0 0 400 128" style="enable-background:new 0 0 400 128;" xml:space="preserve">
<style type="text/css">
	.st0{fill:#A4A3A4;}
	.st1{fill:#AEDBF0;}
	.st2{fill:#CDFCF8;}
	.st3{fill:#587904;}
	.st4{fill:#B0B723;}
	.st5{fill:#DDF264;}
	.st6{fill:#663A2F;}
	.st7{fill:#668408;}
	.st8{opacity:0.6;}
	.st9{fill:#3B5605;}
	.st10{opacity:0.5;}
	.st11{fill:#66842C;}
	.st12{fill:#4F4F4F;}
	.st13{opacity:0.5;fill:#4F4F4F;enable-background:new    ;}
	.st14{fill:#898989;}
	.st15{fill:#F5D85A;}
	.st16{fill:#FFFFFF;}
	.st17{fill:#4A4951;}
	.st18{fill:#33323A;}
	.st19{fill:#C17B4C;}
	.st20{fill:#EE744A;}
	.st21{fill:#402D7F;}
	.st22{fill:#9AB8BD;}
	.st23{fill:#1A244A;}
	.st24{fill:#3558A5;}
	.st25{fill:#7E94CB;}
	.st26{fill:#5B72B6;}
	.st27{fill:#B5C9E9;}
	.st28{fill:#24255A;}
	.st29{fill:#F39463;}
	.st30{fill:#EF764B;}
	.st31{fill:#292A85;}
	.st32{fill:#98ABD8;}
	.st33{fill:#1D0A05;}
	.st34{fill:#4C72B8;}
	.st35{fill:#354E81;}
	.st36{fill:#9492A4;}
	.st37{fill:#23171F;}
	.st38{fill:#E09379;}
	.st39{fill:#CCCAD6;}
	.st40{fill:#304270;}
	.st41{fill:#B97668;}
	.st42{fill:#803008;}
	.st43{fill:#DC7A64;}
	.st44{fill:#983C0F;}
	.st45{fill:#E7A088;}
	.st46{fill:#ED6E59;}
	.st47{fill:#1E0200;}
	.st48{fill:#E94839;}
	.st49{fill:#EF7B73;}
	.st50{fill:#F4A290;}
	.st51{fill:#EE7359;}
	.st52{fill:#B75541;}
	.st53{fill:#BECFEC;}
	.st54{fill:#32528A;}
	.st55{fill:#8AAEDD;}
	.st56{fill:#134454;}
	.st57{fill:#436EB5;}
	.st58{fill:#64C7EF;}
	.st59{fill:#F4A292;}
	.st60{fill:#BA4737;}
	.st61{fill:#A34B3D;}
	.st62{fill:#3B8F7B;}
	.st63{fill:#DF5038;}
	.st64{fill:#54BAA3;}
	.st65{fill:#042A32;}
</style>
<rect x="-1.5" y="110.4" class="st0" width="403.3" height="19.2"/>
<g id="Ebene_2_00000086657473126212782720000000468573692564424619_">
	<path class="st1" d="M74.3,90.7v16.9H400V90.7h-17.3v-9H379V68.7h-9v6h-1.9V61.1H357v2.7h-8.3v23.6H346l-0.1-3.8l0.3-0.8l-0.3-0.1
		l0-0.9l1-1l-1,0.1v-0.7l-0.5-0.4l0.3-0.8v-1.1l-0.4,0.2l-0.3,0.5l-0.5,0.6l0-0.5l0.2-0.3l-0.8-0.9l-0.1-2.8l0.7-0.8l-0.9-0.1
		l-0.1-0.6V73l-0.8-0.1l-0.3-0.2l0,0.4l-1.4-0.1l-0.2-0.4l-0.1,0.4l-1.4-0.1l-0.1-0.4l-0.3,0.4l-1.2-0.1l-0.4-0.4l-0.2,0.3h-0.9
		l-0.9,1l0,0.4l-0.7,0.8l0.5,0.4v2.1l-0.9-0.1l-0.5-0.1v0.2h-1l-0.5-0.3l-0.1,0.4l-0.5,0.1l-1.1,1.4l-0.6,0.1l-0.1-0.6l-0.1-0.4
		l-0.3,0.2l-0.1,0.8h-2.5l-0.1-0.6l-0.5-0.4v0.3l-0.1,0.6l0,0.1l-2.4,0.1l0-0.3v-0.6l-0.2-0.2l-0.1,0.3l-0.1,0.6l-2.4,0.1l-0.4-1.1
		l0.4-0.7l-0.4-0.2l-0.4-0.8l0.3-0.6l-0.5-0.3l-0.2-0.6l-0.1-1.2l0.4-0.3l-0.5-0.1v-0.6h-0.3c0,0,0.3-0.6-0.1-0.6
		c-0.5,0-0.1,0.6-0.1,0.6l-0.4,0.1l0,0.5l-0.4,0.1l0.4,0.3l-0.1,0.6c0,0-2.3-4.1-7.4-4.8v0c0,0-0.1,0-0.1,0c0,0-0.1,0-0.1,0v0
		c-5.1,0.7-7.8,4.8-7.8,4.8l-0.1-0.6l0.4-0.3l-0.4-0.1l0-0.5l-0.4-0.1c0,0,0.4-0.6-0.1-0.6s-0.1,0.6-0.1,0.6h-0.3v0.6l-0.5,0.1
		l0.4,0.3l-0.1,1.2l-0.2,0.6l-0.5,0.3l0.3,0.6l-0.4,0.8l-0.4,0.2l0.4,0.7l-0.4,1.1l-2.4-0.1l-0.1-0.6l-0.1-0.3l-0.2,0.2v0.6l0,0.3
		l-2.4-0.1l0-0.1l-0.1-0.6v-0.3l-0.5,0.4l-0.1,0.6h-2.5l-0.1-0.8l-0.3-0.2l-0.1,0.4l-0.1,0.6l-0.6-0.1l-1.1-1.4l-0.5-0.1l-0.1-0.4
		l-0.5,0.3h-1v-0.2l-0.5,0.1l-0.9,0.1v-2.1l0.5-0.4l-0.7-0.8l0-0.4l-0.9-1h-0.9l-0.2-0.3l-0.4,0.4l-1.2,0.1l-0.3-0.4l-0.1,0.4
		l-1.4,0.1l-0.1-0.4l-0.2,0.4l-1.1,0V58.1h-10.5v20.3h-7.7v9.8l-1.3-0.1l-0.6-1.4l-0.3-6l0.5-0.3l-0.1-0.6l-3.9-0.3v-1.5l-0.7-0.7
		l0.3-0.3l-0.4-0.4L254,53.8l0.6-1.7V51l-1.1-0.2v-1.4l-0.6-0.1c-0.1-0.4,0.2-0.4,0.3-0.7c0.6,0,0.9-0.3,1.4-0.4
		c-0.1-1-0.8-1.3-1.1-2.1c0-0.3,0.2-0.3,0.2-0.6c-0.2-0.3-0.5-0.5-0.5-1c0.1-0.2,0.3,0.3,0.5,0c0.2-0.2-0.2-0.6-0.3-0.9
		c0.1-0.5,0.7-1,0.6-1.4h0.3c0.4-0.7,1.2-1,1.3-1.8c-0.6-0.1-0.9,0.7-1.8,0.7c0,0.3-0.3,0.4-0.5,0.6c-0.1-0.3,0.1-0.4,0.1-0.7
		c0.4,0.6-0.1-0.5,0.3-0.1c0.3-0.2-0.2-0.5-0.3-0.7c0.1-0.2,0.2-0.3,0.3-0.5c-0.2-0.5-0.1-0.8-0.2-1.3c-0.3,0.4-0.1,0.7-0.4,1.1
		c0.2,0.7,0.3,2.1-0.2,2.8c-0.1-0.1-0.6-1,0.2-1.1c-0.1-0.3-0.4,0.2-0.6,0.2c-0.3,0-0.1-0.5-0.5-0.4c0.1,0.2,0.4,0.3,0.3,0.8
		c-0.3,0.2-0.5,0.7-0.2,1c-0.6-0.4-0.7-1.3-1.4-1.6c0-0.2-0.1-0.2-0.1-0.4c-0.6,0.1-1.1-0.3-1.7-0.5c-0.2,0.1,0,0.2,0,0.2
		c0.1,0.2-0.1,0.2,0.2,0.4c0.2,0.1,0,0.2,0.2,0.4c0,0.1,0.2,0.1,0.3,0.1c0.1,0.1,0.1,0.4,0.5,0.4c0,0.3,0.2,0.5,0.2,0.9
		c0.2,0.1,0.3,0.2,0.5,0.3c-0.1,0.1-0.1,0.2,0,0.4h0.5c0.1,0.4,0.3,0.8,0.3,1.1c0,0.5-0.6,0.7-0.6,1.2c0,0.2,0.1,0.3,0.3,0.3
		c-0.2,0.9-0.9,1.1-1,2.1c0.4,0.1,0.5,0.4,1,0.3c0.1,0.2,0.3,0.7,0.5,0.9l-0.9,0.1v1.4l-1.1,0.2v1.1l0.6,1.7l-0.2,22.6l-0.4,0.4
		l0.3,0.3l-0.7,0.7v1.5l-1.3,0.1l0-0.1v0.1l-2.6,0.2l-0.1,0.6l0.5,0.3l-0.3,6l-0.6,1.4l-1.4,0.1v-5.7h-8.1l-0.1-4.9l-1.8,0.2
		l-1.8-2.3h-1.7l-1.2,2l-1,0.1v-26h-8v20.1l-1.1-3.6v-4l-0.1-4.5l0.1-1.6l-0.5-3l-0.5-0.7l-0.2-1.9l-0.5-0.1l-0.1-1.5l-1.1-0.4
		l-1.7,0.3l-0.1-0.6l-1.4-0.1l0.1,0.6l-0.5-0.2v0.5l-0.6-0.9l-0.2,2.1l-0.8,2.4l-0.5,2.4l-1.1,0.5l0.6,0.5l0.1,1.1l0.4,0.4l-0.3,4
		l-0.4,0.4l0.5,0.5l-0.1,3l-0.5,0.5l0.1,3l-0.5,0.3l0.1,0.8l-0.8,4.8h-0.5v-4.9l0.4-0.5l-0.3-2.1l-1.4-0.3l-0.5,0.5l-0.6-0.1
		l-0.2-0.3l-0.4,0.4l0.1,1.8l0.1,2l-0.5,0.1l0.5,0.4l-0.1,3.5l-0.6,1h0.5l-0.2,1.8l-0.3,0.4l0.5,0.4l-0.1,1.4l-2.1,0.5l0.5,0.9
		l0,0.1h-4.8l-1.1-38.3c0.4-0.2,0.7-0.4,0.7-0.7c0-0.3-0.3-0.6-0.7-0.7l0-1.2c1.8-0.5,3.2-2.1,3.2-4c0-1.6-0.9-3.1-2.4-3.8
		c0,0,0,0,0-0.1l0.1-4.5c0-0.3-0.3-1.3-0.6-1.3l-0.4,0c0.1-0.1,0.1-0.1,0.1-0.1c0-0.2-0.3-0.3-0.7-0.4l0-1.8
		c0.2-0.1,0.4-0.2,0.4-0.3s-0.1-0.2-0.4-0.3l-0.1-6.4c0.2,0,0.4-0.1,0.4-0.2c0-0.1-0.2-0.2-0.4-0.2l-0.1-4.4c0.3,0,0.4-0.1,0.4-0.2
		s-0.2-0.2-0.4-0.2l-0.1-7c0-0.2,0-0.4-0.3-0.4c-0.2,0-0.3,0.2-0.3,0.4l0,7.1c-0.2,0-0.3,0.1-0.3,0.2s0.1,0.2,0.3,0.2l0,4.4
		c-0.2,0-0.4,0.1-0.4,0.2c0,0.1,0.1,0.2,0.4,0.2l0,6.4c-0.3,0.1-0.5,0.2-0.5,0.3s0.2,0.2,0.5,0.3v1.7c-0.4,0-0.8,0.2-0.8,0.4
		c0,0.1,0,0.1,0.1,0.2l-0.5,0c-0.3,0-0.5,0.9-0.5,1.2l-0.1,4.5c0,0,0,0,0,0.1c-1.5,0.7-2.5,2.1-2.5,3.7c0,2,1.4,3.7,3.4,4.2l-0.3,0
		l-0.1,1.1c-0.4,0.2-0.6,0.4-0.6,0.7c0,0.3,0.2,0.5,0.6,0.7l-1,43.9h-2.4v-3.5h-3.4l-0.1-2.9l-1-0.8l0.3-7.6l-1.2-1.2
		c0,0-0.8-5.6-3.8-5.5s-3.2,5.3-3.2,5.3l-1.2,0.7l0.8,1.2l-0.3,7.5l-1.7,0.8l1.2,1.2l0,1.3h-2.1v1.8h-4v3.4h-1.9l-0.2-16.2l0.2-0.4
		l0.6-0.4v-0.3l-0.5,0l-0.1-0.9l0.2-0.3h-0.2l0-1.1l0.1,0l1.4-1.4v-0.3l0.9-1l-2.6-0.2l0.1-0.2l-1.2-0.1l0-1.3l0.9-1.2V65l-15.9,0
		l0.2-1.2h-0.9l0.1-0.4h-1.6l0-0.2l0-0.8l0-0.3l-0.2-0.2h-0.1l0.2-0.5l-0.2-0.7c0,0,0-0.7,0.1-0.8s0,0.2,0,0.2l0.1,0l0.3-0.3
		l-0.1-0.2l0-0.3l0.1-0.1l-0.1-0.2v-0.1l0.1-0.2l-0.1,0l-0.2,0v-0.2l-0.1,0.1c0,0-0.4,0.3-0.6,0.7s-0.4,1.7-0.7,1.7
		c-0.3,0-0.3,0.2-0.3,0.2v0.2l-0.2,0.1l-0.1,0.2l0,0.1c0,0-0.2,0.4-0.2,0.8c0,0.4,0.2,0.7,0.2,0.7l-0.9,0l0.2-0.6l0-0.1
		c0,0,0.2-0.8,0.2-1.1s0-0.6,0-0.7s-0.3-0.5-0.3-0.5l-0.2-1.3v-0.3l0-0.1l-0.1-0.2l0-0.3l-0.2,0.2l-0.2,0l-0.1-0.1l0,0.3
		c0,0-0.2,0.5-0.1,0.5s0.1,0.8,0.1,0.8l0,0.2l-0.1,0.2l0,0.2l-0.3,0.5l-0.1-0.7l-0.2-0.2l0.1-0.1c0,0-0.6-0.9-0.7-1
		c-0.1-0.1,0-0.9,0-0.9l0.1-0.1l-0.1-0.1c0,0,1.4-0.6,0.1-1.5l0-0.1l0.4,0l0.1-0.2l0.3-0.3l0.4-0.9l-0.9,0.6c0,0.2-0.2,0.2-0.2,0.2
		l-0.1-0.3l-0.1-0.2l-0.1,0.4l-0.2,0l-0.1-0.2l0.1-0.1l-0.4-0.4l-0.3-0.3c0,0,0.1,0.9,0.4,1.1c0,0.2-0.1,0.3,0.4,0.3l0,0.3
		c-0.2,0-0.9,0.8,0.1,1.4l-0.1,0.1l0.1,0.1l0,0.8l0,0.4l0,0.1c0,0-0.5-0.4-0.6,0.3l0.2,0.5l-0.4,0.3c0,0,0-0.4-0.2-0.4
		c-0.3,0.1-0.2,0.6-0.2,0.6l-0.3-0.5l0-0.2l-0.1-0.2l0-0.2c0,0-0.3-0.7-0.3-0.7c0,0-0.1-0.5-0.1-0.5l0-0.3l-0.1,0.1l-0.2,0l-0.2-0.2
		l0,0.3l-0.1,0.2l0,0.1V59l-0.2,1.3c0,0-0.3,0.4-0.3,0.5c0,0.1,0,0.4,0,0.7s0.2,1.1,0.2,1.1l0,0.1l0.2,0.6l-0.9,0
		c0,0,0.2-0.3,0.2-0.7s-0.2-0.8-0.2-0.8l0-0.1l-0.1-0.2l-0.2-0.1v-0.2c0,0,0-0.1-0.3-0.2c-0.3,0-0.5-1.3-0.7-1.7
		c-0.2-0.4-0.6-0.7-0.6-0.7l-0.1-0.1v0.2l-0.2,0l-0.1,0l0.1,0.2v0.1l-0.1,0.2l0.1,0.1l0,0.3l-0.1,0.2l0.3,0.3l0.1,0c0,0,0-0.3,0-0.2
		c0.1,0.1,0.1,0.8,0.1,0.8l-0.2,0.7l0.2,0.5h-0.1l-0.2,0.2l0,0.3l0,0.8l0,0.2h-1.6l0.1,0.4h-1l0.2,1.2l-16.3,0v0.3l0.9,1.2l0,1.3
		l-1.2,0.1l0.1,0.2l-2.6,0.2l0.9,1v0.3l1.4,1.4l0.1,0l0,1.1h-0.2l0.2,0.3l-0.1,0.9l-0.5,0v0.3l0.6,0.4l0.2,0.4l-0.1,7.7h-5V55.9
		h-11.7v20.3h-2.2V62.4H90v2.7h-9.6v16.6h-3.3v9H74.3z M253.4,39.5c0,0,0.1,0.1,0.1,0.1C253.4,39.7,253.3,39.6,253.4,39.5z
		 M253.1,39.8c0,0,0.1,0.1,0.1,0.1C253.2,40,253,39.9,253.1,39.8z M129.9,77.5l-0.2,13.1h-1.5l0.1-13.1L129.9,77.5z M138.3,77.5
		l-0.1,13.1h-3.3l-0.1-13.2L138.3,77.5z M149.3,90.7h-7.6l0.1-13l4.2,0.2l3.3-0.1L149.3,90.7z M156.1,77.6L156,90.7h-3.3l-0.1-13
		L156.1,77.6z M162.9,90.7h-1.5l-0.2-13l1.7,0.1L162.9,90.7z"/>
</g>
<g id="Layer_1">
	<g>
		<path class="st2" d="M374.6,12.7c0-0.1,0.1-0.1,0.1-0.2c0.1,0.1,0.2,0.1,0.2,0.2H389c-0.2-0.8-0.9-1.4-1.8-1.4
			c-0.4,0-0.8,0.2-1.1,0.4c-0.2-0.1-0.5-0.2-0.7-0.3c0,0,0-0.1,0-0.1c0-1.6-1.3-2.9-2.9-2.9c-1,0-1.9,0.5-2.4,1.3
			c-0.1,0-0.2,0-0.3,0c0,0-0.1,0-0.2,0c-0.1-1.6-1.5-2.8-3.1-2.8c-1.3,0-2.5,0.8-2.9,2c-0.5-0.3-1-0.5-1.5-0.5c-0.5,0-1,0.1-1.4,0.4
			c-0.4-0.2-0.9-0.4-1.4-0.4c-0.2,0-0.4,0-0.6,0.1c-0.7-1-1.9-1.6-3.2-1.6c-0.7,0-1.4,0.2-2,0.6c-0.3-0.2-0.7-0.4-1.1-0.5
			c-0.8-1.9-2.6-3.2-4.8-3.2c-0.5,0-1,0.1-1.5,0.2c-1-0.8-2.3-1.3-3.7-1.3c-1.6,0-3,0.6-4,1.6c-0.7-0.3-1.5-0.5-2.3-0.5
			c-2.4,0-4.5,1.7-5,3.9c-0.4-0.1-0.7-0.2-1.1-0.2c-1.2,0-2.2,0.6-2.8,1.5c-0.5-0.4-1.2-0.6-1.9-0.6c-1.8,0-3.2,1.4-3.2,3.2
			c0,0.4,0.1,0.7,0.2,1.1L374.6,12.7L374.6,12.7z"/>
		<path class="st2" d="M86.8,17.1c0.1-0.1,0.1-0.2,0.1-0.3c0.1,0.1,0.3,0.2,0.4,0.3h24.1c-0.3-1.4-1.6-2.4-3-2.4
			c-0.7,0-1.4,0.2-1.9,0.7c-0.4-0.2-0.8-0.4-1.2-0.5c0,0,0-0.1,0-0.1c0-2.7-2.2-4.9-4.9-4.9c-1.7,0-3.2,0.9-4.1,2.2
			c-0.2,0-0.3,0-0.5,0c-0.1,0-0.2,0-0.3,0c-0.2-2.7-2.5-4.8-5.3-4.8c-2.2,0-4.2,1.4-4.9,3.4c-0.8-0.5-1.7-0.8-2.7-0.8
			c-0.9,0-1.7,0.2-2.4,0.7c-0.7-0.4-1.6-0.7-2.4-0.7c-0.3,0-0.7,0-1,0.1c-1.2-1.6-3.2-2.7-5.4-2.7c-1.3,0-2.5,0.3-3.5,1
			c-0.6-0.4-1.2-0.6-1.9-0.8c-1.3-3.2-4.5-5.5-8.2-5.5c-0.9,0-1.8,0.1-2.6,0.4C53.3,0.9,51.1,0,48.7,0c-2.7,0-5.1,1.1-6.8,2.8
			c-1.2-0.6-2.5-0.9-3.9-0.9c-4.1,0-7.6,2.8-8.6,6.7c-0.6-0.2-1.2-0.3-1.9-0.3c-2,0-3.8,1-4.8,2.6c-0.9-0.7-2-1-3.2-1
			c-3,0-5.4,2.4-5.4,5.4c0,0.6,0.1,1.2,0.3,1.8L86.8,17.1L86.8,17.1z"/>
	</g>
	<g>
		<g>
			<g>
				<g>
					<path class="st3" d="M263.1,110.3c0-0.1,0-0.2,0-0.2c0-0.1,0-0.2,0-0.3c0-0.1,0-0.1,0-0.2c0-0.3,0-0.6,0-1c0-0.4,0-0.8-0.1-1.2
						c-0.1-0.7-0.3-1.4-0.5-2c-0.8-2.1-2.4-3.7-4.4-4.1c-0.1,0-0.2,0-0.2,0c-0.2,0-0.4-0.1-0.6-0.1c0-0.2,0.1-0.3,0.1-0.5
						c0.2-1.9,0-3.6-0.7-5.2c-0.9-2.1-2.5-3.6-4.5-4c-0.3-0.1-0.6-0.1-0.9-0.1c-0.4,0-0.9,0-1.3,0.1c-1.9,0.4-3.6,1.9-4.5,4.1
						c0,0.1-0.1,0.2-0.1,0.3c-0.1-0.6-0.3-1.2-0.5-1.8c-0.2-0.5-0.4-1-0.6-1.4c-0.1-0.1-0.2-0.3-0.2-0.4c-0.6-1-1.4-1.9-2.4-2.4
						c-0.6-0.4-1.3-0.7-2-0.8c-1.6-0.3-3.1,0.1-4.4,0.9c-1.9,1.2-3.2,3.5-3.6,6.3c0,0.1,0,0.1,0,0.2c-0.2,0.1-0.4,0.2-0.6,0.3
						c-0.5-0.6-1.1-1.1-1.8-1.4c0.1-2.9-1.2-5.6-3.1-7c-0.6-0.4-1.3-0.8-2-0.9c-0.2-0.1-0.5-0.1-0.7-0.1c0,0,0,0-0.1-0.1
						c-0.8-0.9-1.7-1.7-2.8-2.1c-0.4-0.1-0.7-0.3-1.1-0.4c-3-0.6-5.9,1.2-7.4,4.2c-0.4-0.1-0.8-0.3-1.1-0.4
						c-2.1-0.4-4.2,0.3-5.7,1.8c-0.1,0.1-0.2,0.2-0.3,0.3s-0.2,0.2-0.3,0.4c-0.8,1-1.5,2.3-1.9,3.8c0,0.2-0.1,0.3-0.1,0.5
						c-0.2-0.1-0.4-0.1-0.6-0.2c-0.3-0.1-0.7-0.1-1-0.1c-0.4,0-0.9,0.1-1.3,0.2c-0.9,0.2-1.8,0.8-2.6,1.5c-0.2,0.2-0.4,0.4-0.6,0.6
						c-0.1,0-0.2,0-0.3-0.1h0c0-0.2,0-0.4,0-0.6c0-0.6,0-1.2-0.1-1.8c-0.3-2.4-1.2-4.5-2.6-6c-0.9-1.1-2.1-1.9-3.4-2.1
						c-0.1,0-0.1,0-0.2,0c-0.1,0-0.2,0-0.2-0.1c-1.5-0.3-2.9-0.1-4.2,0.6c-0.1,0-0.1,0-0.1,0c-1-2.4-2.8-4.3-5.1-5
						c-0.3-0.3-0.6-0.7-0.9-1c-0.3-0.3-0.7-0.6-1-0.9c-1.6-1.2-3.6-2.1-5.7-2.5c-0.1,0-0.3-0.1-0.4-0.1c-0.1,0-0.3,0-0.4-0.1l0,0
						c-0.5-0.1-1-0.1-1.5-0.1c-5.1,0-9.4,2.8-11.5,6.8c-0.5,1-0.9,2.1-1.1,3.2c-0.3-0.3-0.6-0.6-1-0.8c-1-2.2-2.7-3.9-4.9-4.3
						c-0.6-0.1-1.2-0.1-1.8-0.1c-0.1,0-0.1,0-0.1,0c-0.8,0.1-1.6,0.4-2.3,0.9c-0.4-2.3-1.2-4.3-2.3-6c-0.9-1.4-2.1-2.6-3.3-3.4
						c-2-1.3-4.4-1.9-6.8-1.4c-1.6,0.3-3.1,1.1-4.4,2.2c0,0-0.1,0-0.1,0.1c-0.1,0.1-0.3,0.2-0.4,0.4c-0.3,0.3-0.7,0.7-1,1.1
						c-0.4,0.5-0.8,1-1.1,1.6c0.3-1.8,0.4-3.7,0.2-5.6c-0.2-1.8-0.7-3.5-1.5-5.1c-0.3-0.6-0.6-1.1-0.9-1.6c-0.4-0.6-0.8-1.2-1.3-1.7
						c-1.2-1.4-2.7-2.5-4.3-3.1c-1.7-0.7-3.5-0.9-5.4-0.5c-3.7,0.8-6.6,3.6-8.3,7.4c-3.7,2.3-6,7.5-5.2,12.9c0.1,0.7,0.2,1.4,0.4,2
						c-0.1,0.2-0.2,0.5-0.2,0.8c-0.2,0-0.3,0-0.5,0.1c-0.5-1.2-1.2-2.3-1.9-3.2c-0.3-0.3-0.5-0.6-0.8-0.9c0-0.4-0.1-0.7-0.1-1.1
						c0-0.1,0-0.1,0-0.2C97,71.3,93.1,66,88.2,64l0,0c-0.1,0-0.2-0.1-0.2-0.1l0,0c-2-0.8-4.2-1-6.5-0.5c-0.9,0.2-1.8,0.5-2.6,0.9
						c-0.8-1.1-1.8-2-2.9-2.7c-2.5-1.8-5.5-2.5-8.6-1.9c-0.4,0.1-0.8,0.2-1.2,0.3c-1.8,0.6-3.3,1.6-4.7,2.9c-0.1,0-0.2,0-0.3,0
						c-1.5,0-2.9,0.3-4.1,0.9c-1.4-2.2-3.6-3.9-6.3-4.7c-1-0.3-2-0.4-3.1-0.4c-4.8,0-8.8,2.9-10.3,6.9c-0.2-0.1-0.5-0.1-0.7-0.2
						c0,0-0.1,0-0.1,0c-0.8-0.1-1.6-0.2-2.4-0.2c-0.4,0-0.8,0-1.2,0.1c-2.6,0.2-4.9,1.2-6.7,2.8c-1.5,1.3-2.7,2.9-3.4,4.7
						c-2.2-1.7-4.7-2.5-7.4-2.3c-0.1,0-0.3,0-0.4,0c-0.3,0-0.6,0.1-0.8,0.1c-0.7,0.1-1.3,0.3-1.9,0.6c-0.6-1.2-1.3-2.2-2.1-3.1
						c0,0-0.1-0.1-0.1-0.1c-0.9-1-1.8-1.8-2.8-2.5c-2.2-1.4-4.9-2-7.5-1.4c0,0,0,0-0.1,0v47.3c1-0.4,2-1.1,2.8-1.8
						c1.5-1.4,2.7-3.2,3.5-5.3c0.8,0.8,1.6,1.5,2.5,2c0.5,0.3,0.9,0.5,1.4,0.7c1,0.8,2,1.4,3.1,1.8c1,0.4,2,0.6,3.1,0.7
						c0.2,0,0.4,0,0.5,0c0.3,0,0.6,0,0.9,0c0.2,0,0.4,0,0.5-0.1c0.3,0,0.6-0.1,0.9-0.1c0.2,0,0.3-0.1,0.5-0.1c0.3-0.1,0.7-0.2,1-0.3
						c0.7-0.2,1.4-0.6,2-1c0.4-0.2,0.7-0.4,1-0.7c0.3-0.2,0.6-0.5,0.9-0.7c0.1-0.1,0.2-0.1,0.2-0.2c0.1,0.1,0.1,0.1,0.2,0.2
						c0.3,0.2,0.6,0.5,0.9,0.7c0.3,0.2,0.7,0.5,1,0.7c1.9,1.1,4.1,1.5,6.3,1.1c0.2,0,0.4-0.1,0.6-0.1c0.8-0.2,1.5-0.5,2.1-0.9
						c0.3-0.2,0.7-0.4,1-0.6c0.2,0.1,0.4,0.2,0.6,0.3c0.8,0.4,1.5,0.6,2.4,0.8s1.7,0.1,2.5-0.1c0.7-0.1,1.4-0.4,2-0.7
						c0.6-0.3,1.2-0.7,1.7-1.2c1.8,1.2,3.9,1.6,6,1.2c1.8-0.4,3.4-1.4,4.7-2.7c0,0,0,0,0,0c0.3-0.3,0.6-0.7,0.9-1.1
						c0.6-0.8,1.1-1.7,1.5-2.7c1.8,2.6,4.7,4.1,7.7,3.5c0.5-0.1,0.9-0.2,1.3-0.4c0.3-0.1,0.6-0.3,0.8-0.4c0,0,0,0,0.1,0
						c0.4,0.2,0.8,0.4,1.3,0.5c0.5,0.2,1.1,0.2,1.6,0.3c1.6,0.6,3.4,0.8,5.2,0.4c2.1-0.4,4-1.6,5.5-3.2c0.9,1,1.9,1.9,3,2.6
						c0.2,0.1,0.5,0.3,0.8,0.4c1.2,0.6,2.4,0.9,3.7,1c0.5,0,1,0,1.5,0c0.3,0,0.7-0.1,1-0.1c1-0.2,1.9-0.5,2.7-1
						c0.2-0.1,0.5-0.3,0.7-0.4c0.6-0.4,1.1-0.8,1.6-1.2c0.2-0.2,0.5-0.5,0.7-0.7c0.2-0.2,0.3-0.4,0.5-0.6c0.1,0,0.1,0.1,0.2,0.1
						c0.3,0.2,0.7,0.3,1,0.4c0.1,0,0.1,0,0.2,0.1c0.6,0.2,1.2,0.3,1.9,0.2c0.3,0,0.7-0.1,1-0.1c1-0.2,1.8-0.6,2.6-1.2
						c0.3-0.2,0.7-0.5,0.9-0.8c0.5-0.5,0.9-1.1,1.3-1.8c0.1-0.1,0.2-0.3,0.2-0.5c0.4,0.2,0.8,0.3,1.2,0.4c0,0,0,0.1,0,0.1
						c0,0.4,0,0.7,0.1,1.1c0,0.2,0.1,0.5,0.1,0.7c0.1,0.3,0.1,0.6,0.2,0.8c0.1,0.3,0.2,0.6,0.3,0.8c0.1,0.2,0.2,0.5,0.3,0.7
						c0,0.1,0.1,0.2,0.1,0.2c0.3,0.8,0.8,1.4,1.3,2.1c0.6,0.7,1.2,1.3,2,1.8c0.4,0.3,0.9,0.5,1.3,0.7c1.1,0.4,2.3,0.5,3.6,0.3
						c2.8-0.6,4.9-2.8,6-5.8c1,0.3,2,0.4,3.1,0.2c0.5-0.1,0.9-0.2,1.3-0.4c0.4-0.2,0.8-0.4,1.2-0.7c0.1-0.1,0.1-0.1,0.2-0.2
						c0.2-0.2,0.4-0.4,0.6-0.6c0.4-0.4,0.8-0.9,1.1-1.3c0.1,0,0.1,0.1,0.2,0.1c0,0.1,0,0.2,0,0.2c-0.2,0.5-0.4,1-0.5,1.6
						c-0.2,1.3,0.2,2.6,0.9,3.5c0.2,0.3,0.5,0.5,0.7,0.7c0.4,0.3,0.7,0.4,1.2,0.5c0.4,0.1,0.9,0.1,1.3-0.1c0.5,0.3,1.1,0.6,1.8,0.7
						c1.3,0.3,2.6,0,3.7-0.6c0.6,1,1.6,1.7,2.6,1.9c0.6,0.1,1.2,0.1,1.8-0.1c0.5,1.5,1.5,2.6,2.8,3.2c0.2,0.1,0.5,0.2,0.8,0.2
						c0.4,0.1,0.7,0.1,1.1,0.1c2.1-0.2,3.9-2.2,4.3-4.9c0-0.2,0.1-0.5,0.1-0.7c0.2-0.1,0.5-0.1,0.7-0.2c0.6,1.3,1.7,2.3,3,2.5
						c0.9,0.2,1.8,0,2.5-0.4c1,1.2,2.2,2,3.7,2.3c2,0.4,4-0.3,5.5-1.8c0.1-0.1,0.3-0.3,0.4-0.4c0.1,0.1,0.3,0.3,0.4,0.4
						c0.8,0.7,1.8,1.2,2.8,1.4c1.1,0.2,2.1,0.1,3.1-0.3c0.6,0,1.2-0.2,1.7-0.5c0.4,0.2,0.9,0.4,1.3,0.5c1.8,0.4,3.4-0.5,4.5-2.1
						c0.8,2,2.3,3.4,4.2,3.8c0.6,0.1,1.2,0.1,1.8,0c0.6-0.1,1.2-0.4,1.7-0.7c0.6,0.6,1.4,0.9,2.2,1.1c0.7,0.1,1.4,0.1,2-0.1
						c0.4-0.1,0.9-0.3,1.2-0.5c0.7,0.5,1.4,0.8,2.2,1c1.8,0.4,3.6-0.2,4.9-1.6c0.4,0.4,0.8,0.7,1.2,0.9l0,0l0,0
						c0.6,0.4,1.4,0.7,2.1,0.8c1.9,0.4,3.8-0.1,5.3-1.3c0.9-0.3,1.6-0.9,2.3-1.6 M125.9,83.8c0,0-0.1,0-0.1,0c0-0.1,0-0.1,0-0.2
						c0.1-0.1,0.1-0.2,0.2-0.3C125.9,83.5,125.9,83.7,125.9,83.8z"/>
				</g>
			</g>
			<g>
				<g>
					<path class="st4" d="M399.8,105.8c-11.2-2.1-128.7-4-142.1-5.9l0,0c-2-0.3-3.9-0.5-5.9-0.8c-0.5-0.1-1.1-0.1-1.6-0.2
						c-13.1-1.7-27-3.3-41.5-4.8c-2.1-0.2-4.2-0.4-6.3-0.6c-2.4-0.2-4.8-0.5-7.2-0.7l0,0c-2.7-0.2-5.4-0.5-8.1-0.7
						c-0.2,0-0.5-0.1-0.8-0.1c-3.4-0.3-6.9-0.6-10.4-0.9c-1.2-0.1-2.3-0.2-3.5-0.3c-0.6-0.1-1.1-0.1-1.7-0.1
						c-0.9-0.1-1.8-0.1-2.7-0.2c-0.3,0-0.7-0.1-1-0.1c-0.6-0.1-1.2-0.1-1.8-0.1c-1.4-0.1-2.9-0.2-4.3-0.3c-0.7-0.1-1.4-0.1-2.2-0.2
						c-52.7-4-108.6-6.3-157.9-6.3c-0.4,0-0.8,0-1.1,0v27.7l400,1.6C400.8,112.6,400.8,106,399.8,105.8z"/>
					<path class="st5" d="M205.2,111.2l-9,0.7c0,0,0-0.1-0.1-0.4c-0.1-0.3-0.2-0.7-0.3-1.2c-0.2-0.5-0.4-1.2-0.8-1.9
						c-0.4-0.7-0.9-1.5-1.6-2.4c-0.7-0.9-1.6-1.8-2.7-2.7c-0.5-0.5-1.1-0.9-1.8-1.4c-0.6-0.5-1.3-0.9-2.1-1.4
						c-1.4-0.9-3.1-1.8-4.9-2.7c-1.8-0.9-3.7-1.7-5.7-2.4c-1-0.4-2-0.8-3.1-1.1c-0.5-0.2-1-0.3-1.6-0.5c-0.5-0.2-1.1-0.3-1.6-0.5
						c-2.1-0.6-4.3-1.2-6.4-1.6c-1.7-0.4-3.3-0.7-4.9-1c5.8,0.4,11.5,0.8,17.2,1.2c1.1,0.3,2.2,0.6,3.3,0.9c2.3,0.7,4.5,1.5,6.6,2.4
						c2.1,0.9,4.1,1.8,5.9,2.8c0.9,0.5,1.8,1,2.6,1.5c0.8,0.5,1.6,1,2.3,1.5c1.4,1,2.7,2.1,3.7,3.1c1,1,1.9,2,2.5,2.9
						s1.1,1.7,1.5,2.3c0.3,0.7,0.6,1.2,0.7,1.6C205.2,111.2,205.2,111.2,205.2,111.2z"/>
				</g>
			</g>
		</g>
		<g>
			<g>
				<g>
					<g>
						<polygon class="st6" points="124.8,95.7 123.8,52.4 122.2,95.7 						"/>
						<polygon class="st6" points="124.2,80.7 130.5,73.5 122.9,79.5 						"/>
						<polygon class="st6" points="124.2,67.1 118.9,61.8 123.2,67.9 						"/>
					</g>
					<g>
						<path class="st7" d="M125.1,82.6c-25,0.7-3-46.2,0-46.2C127.8,36.5,148.5,82,125.1,82.6z"/>
						<g class="st8">
							<path class="st9" d="M119.2,55.7c-2.1,6.1-5,16.3-0.2,21.5C117.7,74.9,118,60,119.2,55.7z"/>
						</g>
					</g>
				</g>
				<g class="st10">
					<path class="st11" d="M141.9,95.8c0,0.4-4.4,0.7-9.9,0.7s-9.8-0.3-9.8-0.7s4.4-0.7,9.8-0.7S141.9,95.4,141.9,95.8z"/>
				</g>
				<g class="st10">
					<path class="st11" d="M57.9,88.4c0,0.4-4.4,0.7-9.8,0.7s-9.8-0.3-9.8-0.7s4.4-0.7,9.8-0.7S57.9,88,57.9,88.4z"/>
				</g>
				<g>
					<g>
						<polygon class="st6" points="143.1,99 142.3,64.9 141,99 						"/>
						<polygon class="st6" points="142.6,87.2 147.5,81.6 141.6,86.2 						"/>
						<polygon class="st6" points="142.6,76.5 138.4,72.3 141.8,77.2 						"/>
					</g>
					<g>
						<path class="st7" d="M143.3,88.7c-19.7,0.6-2.4-36.3,0-36.3C145.4,52.4,161.7,88.2,143.3,88.7z"/>
						<g class="st8">
							<path class="st9" d="M138.7,67.5c-1.6,4.8-3.9,12.8-0.1,16.9C137.5,82.7,137.7,70.9,138.7,67.5z"/>
						</g>
					</g>
				</g>
				<g class="st10">
					<path class="st11" d="M160.6,99c0,0.4-4.4,0.7-9.9,0.7s-9.9-0.3-9.9-0.7s4.4-0.7,9.9-0.7S160.6,98.6,160.6,99z"/>
				</g>
				<g>
					<g class="st10">
						<path class="st11" d="M32.7,91.3c0,0.4-4.4,0.7-9.9,0.7S13,91.7,13,91.3c0-0.4,4.4-0.7,9.9-0.7C28.3,90.6,32.7,90.9,32.7,91.3
							z"/>
					</g>
					<g>
						<g>
							<polygon class="st6" points="15.6,91.3 14.6,48 13,91.3 							"/>
							<polygon class="st6" points="15,76.3 21.3,69.1 13.7,75.1 							"/>
							<polygon class="st6" points="14.9,62.7 9.7,57.4 14,63.5 							"/>
						</g>
						<g>
							<path class="st7" d="M15.9,78.2c-25,0.7-3-46.2,0-46.2C18.6,32.1,39.2,77.6,15.9,78.2z"/>
							<g class="st8">
								<path class="st9" d="M10,51.3c-2.1,6.1-5,16.3-0.2,21.5C8.5,70.5,8.8,55.6,10,51.3z"/>
							</g>
						</g>
					</g>
				</g>
				<g>
					<g class="st10">
						<path class="st11" d="M84.2,97c0,0.4-4.4,0.7-9.8,0.7s-9.8-0.3-9.8-0.7s4.4-0.7,9.8-0.7S84.2,96.6,84.2,97z"/>
					</g>
					<g>
						<g>
							<polygon class="st6" points="67,97 66.1,53.7 64.5,97 							"/>
							<polygon class="st6" points="66.4,82 72.7,74.8 65.2,80.7 							"/>
							<polygon class="st6" points="66.4,68.3 61.2,63 65.5,69.2 							"/>
						</g>
						<g>
							<path class="st7" d="M67.3,83.9c-25,0.7-3-46.2,0-46.2C70,37.7,90.7,83.2,67.3,83.9z"/>
							<g class="st8">
								<path class="st9" d="M61.5,56.9c-2,6.1-5,16.3-0.2,21.5C59.9,76.2,60.2,61.2,61.5,56.9z"/>
							</g>
						</g>
					</g>
				</g>
			</g>
		</g>
		<g>
			<g>
				<g class="st10">
					<ellipse class="st11" cx="89.9" cy="85.8" rx="8.8" ry="0.6"/>
				</g>
				<g>
					<rect x="83" y="54" class="st12" width="0.8" height="30"/>
					<rect x="83.4" y="54" class="st13" width="0.4" height="30"/>
					<g>
						<path class="st12" d="M84.2,49c0,0.4-0.4,0.8-0.8,0.8s-0.8-0.4-0.8-0.8c0-0.4,0.4-0.8,0.8-0.8S84.2,48.5,84.2,49z"/>
						<path class="st14" d="M85.6,51.2h-4.4c0-0.1,0-0.1,0-0.2c0.1-1,0.8-1.8,1.8-2c0.1,0,0.2,0,0.3,0c0,0,0.1,0,0.1,0
							C84.7,49.1,85.6,50,85.6,51.2z"/>
						<path class="st13" d="M85.6,51.2h-1.1c0-0.8-0.4-1.7-1-2.2C84.7,49.1,85.6,50,85.6,51.2z"/>
						<polygon class="st15" points="83.4,51.5 81.3,51.5 82.4,55.7 83.4,55.7 84.5,55.7 85.5,51.5 						"/>
						<polygon class="st16" points="83.4,51.5 81.1,51.5 82.2,55.7 83.4,55.7 84.6,55.7 85.7,51.5 						"/>
						<g>
							<polygon class="st12" points="81.9,51.5 82.7,55.7 82.9,55.7 83.1,55.7 82.3,51.5 							"/>
							<polygon class="st12" points="84.9,51.5 84.1,55.7 83.9,55.7 83.7,55.7 84.5,51.5 							"/>
						</g>
						<rect x="82.1" y="55.6" class="st12" width="2.7" height="0.8"/>
						<path class="st12" d="M86.2,51.3c0,0.2-0.2,0.4-0.3,0.4H81c-0.2,0-0.3-0.2-0.3-0.4l0,0c0-0.2,0.2-0.4,0.3-0.4h4.9
							C86.1,51,86.2,51.1,86.2,51.3L86.2,51.3z"/>
					</g>
					<g>
						<polygon class="st12" points="84.8,85.1 82.1,85.1 82.1,85 82.4,78.9 84.5,78.9 84.8,85 						"/>
						<path class="st12" d="M85.7,85.8h-4.5c0-0.4,0.3-0.8,0.8-0.8h3C85.3,85,85.7,85.4,85.7,85.8z"/>
					</g>
					<path class="st13" d="M85.7,85.8h-2.4v-6.9h1.1l0.3,6.1h0.1C85.3,85,85.7,85.4,85.7,85.8z"/>
				</g>
			</g>
			<g>
				<g class="st10">
					<path class="st11" d="M217.2,97.3c0,0.3-3.9,0.6-8.8,0.6s-8.8-0.3-8.8-0.6s3.9-0.6,8.8-0.6C213.2,96.7,217.2,97,217.2,97.3z"/>
				</g>
				<g>
					<rect x="201.5" y="65.6" class="st12" width="0.8" height="30"/>
					<rect x="201.9" y="65.6" class="st13" width="0.4" height="30"/>
					<g>
						<path class="st12" d="M202.8,60.6c0,0.4-0.4,0.8-0.8,0.8s-0.8-0.4-0.8-0.8c0-0.4,0.4-0.8,0.8-0.8S202.8,60.1,202.8,60.6z"/>
						<path class="st14" d="M204.1,62.8h-4.4c0-0.1,0-0.1,0-0.2c0.1-1,0.9-1.8,1.8-2c0.1,0,0.2,0,0.4,0c0,0,0.1,0,0.1,0
							C203.2,60.6,204.1,61.6,204.1,62.8z"/>
						<path class="st13" d="M204.1,62.8h-1.1c0-0.8-0.4-1.7-1-2.2C203.2,60.6,204.1,61.6,204.1,62.8z"/>
						<polygon class="st15" points="201.9,63.1 199.9,63.1 200.9,67.3 201.9,67.3 203,67.3 204,63.1 						"/>
						<polygon class="st16" points="201.9,63.1 199.6,63.1 200.8,67.3 201.9,67.3 203.1,67.3 204.2,63.1 						"/>
						<g>
							<polygon class="st12" points="200.5,63.1 201.2,67.3 201.4,67.3 201.6,67.3 200.8,63.1 							"/>
							<polygon class="st12" points="203.4,63.1 202.6,67.3 202.4,67.3 202.2,67.3 203,63.1 							"/>
						</g>
						<rect x="200.6" y="67.1" class="st12" width="2.7" height="0.8"/>
						<path class="st12" d="M204.7,62.9c0,0.2-0.2,0.4-0.4,0.4h-4.9c-0.2,0-0.4-0.2-0.4-0.4l0,0c0-0.2,0.1-0.4,0.4-0.4h4.9
							C204.6,62.5,204.7,62.7,204.7,62.9L204.7,62.9z"/>
					</g>
					<g>
						<polygon class="st12" points="203.3,96.7 200.6,96.7 200.6,96.6 200.9,90.4 203,90.4 203.3,96.6 						"/>
						<path class="st12" d="M204.2,97.3h-4.5c0-0.4,0.4-0.8,0.8-0.8h3C203.9,96.6,204.2,96.9,204.2,97.3z"/>
					</g>
					<path class="st13" d="M204.2,97.3h-2.4v-6.9h1.1l0.3,6.1h0.1C203.9,96.6,204.2,96.9,204.2,97.3z"/>
				</g>
			</g>
		</g>
		<g>
			<g>
				<g class="st10">
					<path class="st11" d="M15.9,98.9c0,0.3,5.2,0.5,11.5,0.5s11.5-0.2,11.5-0.5c0-0.3-5.2-0.5-11.5-0.5
						C21,98.3,15.9,98.6,15.9,98.9z"/>
				</g>
				<g>
					<path class="st17" d="M35.6,93.8v-9.4c0-0.6,0.5-1.1,1.1-1.1s1.1,0.5,1.1,1.1v9.4L35.6,93.8L35.6,93.8z"/>
					<path class="st17" d="M17.2,93.8v-9.4c0-0.6,0.5-1.1,1.1-1.1s1.1,0.5,1.1,1.1v9.4L17.2,93.8L17.2,93.8z"/>
					<polygon class="st18" points="38.9,93.3 38.9,99.1 36.8,99.1 36.8,96.2 17.9,96.2 17.9,99.1 15.9,99.1 15.9,93.3 					"/>
					<path class="st19" d="M12.3,92.5c0,0.6,0.5,1.1,1.1,1.1h27.8c0.6,0,1.1-0.5,1.1-1.1l0,0c0-0.6-0.5-1.1-1.1-1.1H13.4
						C12.8,91.3,12.3,91.8,12.3,92.5L12.3,92.5z"/>
					<path class="st19" d="M13.2,85.7c0,0.6,0.5,1.1,1.1,1.1h26c0.6,0,1.1-0.5,1.1-1.1l0,0c0-0.6-0.5-1.1-1.1-1.1h-26
						C13.7,84.6,13.2,85.1,13.2,85.7L13.2,85.7z"/>
					<path class="st17" d="M36.1,85.7c0,0.3,0.2,0.6,0.5,0.6c0.3,0,0.5-0.2,0.5-0.6s-0.2-0.6-0.5-0.6C36.4,85.2,36.1,85.4,36.1,85.7
						z"/>
					<path class="st17" d="M17.8,85.7c0,0.3,0.2,0.6,0.5,0.6c0.3,0,0.5-0.2,0.5-0.6s-0.2-0.6-0.5-0.6C18.1,85.2,17.8,85.4,17.8,85.7
						z"/>
					<path class="st19" d="M13.2,89.2c0,0.6,0.5,1.1,1.1,1.1h26c0.6,0,1.1-0.5,1.1-1.1l0,0c0-0.6-0.5-1.1-1.1-1.1h-26
						C13.7,88,13.2,88.5,13.2,89.2L13.2,89.2z"/>
					<path class="st17" d="M36.1,89.2c0,0.3,0.2,0.6,0.5,0.6c0.3,0,0.5-0.2,0.5-0.6c0-0.3-0.2-0.6-0.5-0.6
						C36.4,88.6,36.1,88.9,36.1,89.2z"/>
					<path class="st17" d="M17.8,89.2c0,0.3,0.2,0.6,0.5,0.6c0.3,0,0.5-0.2,0.5-0.6c0-0.3-0.2-0.6-0.5-0.6
						C18.1,88.6,17.8,88.9,17.8,89.2z"/>
				</g>
			</g>
			<g>
				<g class="st10">
					<path class="st11" d="M94.1,91.3c0,0.2,4.1,0.4,9.2,0.4s9.2-0.2,9.2-0.4c0-0.2-4.1-0.4-9.2-0.4C98.2,90.9,94.1,91.1,94.1,91.3z
						"/>
				</g>
				<g>
					<path class="st17" d="M109.8,87.2v-7.5c0-0.5,0.4-0.9,0.9-0.9s0.9,0.4,0.9,0.9v7.5H109.8z"/>
					<path class="st17" d="M95.2,87.2v-7.5c0-0.5,0.4-0.9,0.9-0.9s0.9,0.4,0.9,0.9v7.5H95.2z"/>
					<polygon class="st18" points="112.5,86.8 112.5,91.5 110.9,91.5 110.9,89.1 95.7,89.1 95.7,91.5 94.1,91.5 94.1,86.8 					"/>
					<path class="st19" d="M91.3,86.2c0,0.5,0.4,0.9,0.9,0.9h22.2c0.5,0,0.9-0.4,0.9-0.9l0,0c0-0.5-0.4-0.9-0.9-0.9H92.2
						C91.7,85.3,91.3,85.7,91.3,86.2L91.3,86.2z"/>
					<path class="st19" d="M92,80.8c0,0.5,0.4,0.9,0.9,0.9h20.8c0.5,0,0.9-0.4,0.9-0.9l0,0c0-0.5-0.4-0.9-0.9-0.9H92.9
						C92.4,79.9,92,80.3,92,80.8L92,80.8z"/>
					<path class="st17" d="M110.3,80.8c0,0.2,0.2,0.4,0.4,0.4c0.2,0,0.4-0.2,0.4-0.4s-0.2-0.4-0.4-0.4
						C110.5,80.3,110.3,80.5,110.3,80.8z"/>
					<path class="st17" d="M95.7,80.8c0,0.2,0.2,0.4,0.4,0.4c0.2,0,0.4-0.2,0.4-0.4s-0.2-0.4-0.4-0.4C95.9,80.3,95.7,80.5,95.7,80.8
						z"/>
					<path class="st19" d="M92,83.5c0,0.5,0.4,0.9,0.9,0.9h20.8c0.5,0,0.9-0.4,0.9-0.9l0,0c0-0.5-0.4-0.9-0.9-0.9H92.9
						C92.4,82.6,92,83,92,83.5L92,83.5z"/>
					<path class="st17" d="M110.3,83.5c0,0.2,0.2,0.4,0.4,0.4c0.2,0,0.4-0.2,0.4-0.4s-0.2-0.4-0.4-0.4S110.3,83.3,110.3,83.5z"/>
					<path class="st17" d="M95.7,83.5c0,0.2,0.2,0.4,0.4,0.4c0.2,0,0.4-0.2,0.4-0.4s-0.2-0.4-0.4-0.4C95.9,83.1,95.7,83.3,95.7,83.5
						z"/>
				</g>
			</g>
		</g>
	</g>
	<g>
		<path class="st20" d="M382.3,107c0,0,0,0.1,0,0.2c0,0.4-0.1,1.2-0.6,1.9c-0.7,0.9-0.7,1.9,0,2.1c0.8,0.2,2.6-0.1,2.6-0.1
			s0.4-0.8,0.1-3c-0.3-2.2-0.4-4.5-0.4-4.5l-2.1-0.4L382.3,107z"/>
		<path class="st21" d="M381.9,108c0,0-0.8,1.2-1,1.7c-0.2,0.5-0.1,1.7,0,1.8c1.2,1.1,3.6,0.1,3.6,0.1s0.2-0.8,0.2-1.8
			s0-1.9-0.2-1.9s-0.3,0.5-1,0.4C382.9,108.1,382.5,107.8,381.9,108"/>
		<path class="st16" d="M384.7,110.3c-0.5,0.2-1.1,0.5-1.7,0.6c-0.6,0.1-1.5-0.2-2.2-0.6c0,0.5,0,1.1,0.1,1.2
			c1.2,1.1,3.6,0.1,3.6,0.1S384.6,111,384.7,110.3"/>
		<path class="st20" d="M376.3,105.6c0.3,1,0,2-0.7,2.6c-0.2,0.2-0.5,0.4-0.8,0.6c-1.2,0.6-2.8,0.5-3,1.7s7.6-0.3,7.6-0.3
			s-0.5-3-0.6-3.5c0-0.5,0-2.3,0-2.3l-3-0.2L376.3,105.6z"/>
		<path class="st21" d="M379.1,108.1c0,0,0.1,0.5,0.3,1.3c0.2,0.8,0.1,1.6,0.1,1.6s-7.4,0.4-7.6,0.1c-0.3-0.3-0.1-1.2-0.1-1.3
			c0.1-0.1,1-0.4,1.5-0.7c0.5-0.3,2.1-1.6,2.7-1.6c0.5,0.1,0.8,0.5,1.9,0.6C378.9,108.1,378.9,107.8,379.1,108.1"/>
		<path class="st16" d="M371.9,111c0.3,0.3,7.6-0.1,7.6-0.1s0.1-0.5,0-1.1c-3.8,0.8-7.7-0.1-7.7-0.1
			C371.8,109.8,371.6,110.8,371.9,111"/>
		<path class="st22" d="M379.6,109.8c-2.6,0.6-5.5,0.5-7.7-0.1c4,0.7,7.2,0.1,7,0.2C378.9,109.9,379.6,109.8,379.6,109.8"/>
		<path class="st21" d="M385.3,76.3l-0.7,30.2l-3.3-0.5c0,0-1-24.2-1.7-24.9c-0.6-0.7-0.9,0.1-0.9,0.1s-2.6,10.1-2.1,12.1
			c0.5,2,2.7,12.8,2.7,12.8l-3.2,0.1c0,0-3.6-8.2-3.6-14s2.2-15.3,2.2-15.3L385.3,76.3z"/>
	</g>
	<rect x="375.7" y="105.2" class="st23" width="3.8" height="0.9"/>
	<rect x="381.1" y="105.4" class="st23" width="3.9" height="1.1"/>
	<g>
		<path class="st23" d="M383.9,105.8L383.9,105.8c-0.1,0-0.1-0.1-0.1-0.1c0.6-3.2,0.6-24,0.6-24.2c0-0.1,0-0.1,0.1-0.1l0,0
			c0,0,0.1,0.1,0.1,0.1c0,0.9,0,21-0.6,24.2C384,105.8,384,105.8,383.9,105.8"/>
		<path class="st23" d="M378.8,105.8C378.8,105.8,378.7,105.8,378.8,105.8c-0.2-0.6-3.7-11.7-3.5-13.2c0.2-1.5,2.4-11.1,2.5-11.5
			c0-0.1,0.1-0.1,0.1-0.1s0.1,0.1,0.1,0.1c0,0.1-2.3,9.9-2.5,11.4c-0.2,1.5,3.4,12.9,3.4,13C378.9,105.7,378.9,105.8,378.8,105.8
			L378.8,105.8z"/>
	</g>
	<polygon class="st24" points="375.4,55.2 370.8,61.3 376.2,63.3 	"/>
	<g>
		<path class="st25" d="M387.4,53.2c-0.7-0.7-2.3-1.2-3.4-1.5c-0.6-0.2-1.2-0.2-1.9-0.1l-2.4,0.3c0,0-3.1,2-4.3,3.2
			c-1.2,1.2-2.2,8.5-2.2,8.5l0.5,2.8l-0.6,12.2c0.3,0,8.3,1,12.8-0.4c0,0,0-6.5,0.1-10.5C386.5,64.7,388.3,54.2,387.4,53.2"/>
		<path class="st26" d="M387.3,53.2c-0.4-0.3-0.9-0.6-1.4-0.8l0,0c0,0-0.9-0.5-1.7,2.8s0.2,7.3-0.1,7.7c-0.4,0.4-8.2-0.1-8.2-0.1
			s4.6,2.6,6.8,4.5c0.9,0.8,3.3,1.2,3.3,1.1c0-0.3,0-0.5,0-0.8C386.3,66.3,388.4,54.2,387.3,53.2"/>
		<path class="st27" d="M367.6,60.1l3.9,7.4c0.1,0.2,0.3,0.3,0.5,0.3l4.7-0.3c0.3,0,0.5-0.4,0.4-0.7l-2.4-6.8
			c-0.1-0.2-0.2-0.3-0.4-0.3l-6.2-0.4C367.7,59.4,367.5,59.8,367.6,60.1"/>
		<path class="st28" d="M377.5,66.8l-2.4-6.7c-0.1-0.2-0.2-0.3-0.5-0.3l-0.2,0c0.1,0.1,0.2,0.2,0.3,0.3l2.4,6.8
			c0.1,0.3-0.1,0.6-0.4,0.7l0.3,0C377.4,67.5,377.6,67.1,377.5,66.8"/>
		<path class="st29" d="M386.3,62.2l-0.4,1.3c0,0-7.9-2-8.8-2.5c-0.8-0.4-3.7-1.1-4.8-1.1c-0.2,0-0.2,0.3,0,0.3
			c0.7,0.2,2.1,0.5,2.1,0.7c0,0.2-1.4,0.5-1.3,0.7c0.2,0.5,0.9,0.7,1,1.1c0.1,0.4,1.5,0.1,2,0.1s9.5,5.5,12.2,4.2
			c2.7-1.3,1.1-7,1.1-7L386.3,62.2z"/>
		<path class="st29" d="M371.5,65.1c-0.2-0.2-0.2-0.6-0.4-0.8s-0.4,0.2-0.5-0.3s0.3-1.2,0-1.2c-0.3,0-0.8,1.4-0.8,1.4
			c-0.2,0.5,0.8,2.6,1.4,2.4c0.5-0.1,0.8-0.8,0.8-1.1C372,65.2,371.7,65.3,371.5,65.1"/>
		<path class="st16" d="M379.7,51.9L379.7,51.9L379.7,51.9L379.7,51.9L379.7,51.9L379.7,51.9L379.7,51.9L379.7,51.9L379.7,51.9
			L379.7,51.9l-0.1,0h0l0,0h0l0,0l0,0c-0.3,0.2-0.9,0.6-1.6,1.1c0,0-0.3,1.2-0.1,1.9s0.4,1,0.9,0.8c0.4-0.2,1.2-1.3,1.4-1.2
			c0.2,0.1,1.4,1.6,2,1.3c0.4-0.2,1.6-2.7,2.1-4.3c0,0-0.1,0-0.1,0c-0.6-0.2-1.2-0.2-1.9-0.1L379.7,51.9L379.7,51.9L379.7,51.9z"/>
		<path class="st29" d="M377.9,50.6l0.5,2.6c0,0,0.5,1.5,1.5,1.5s2.5-3.1,2.5-3.1l-2.3-3L377.9,50.6z"/>
		<path class="st29" d="M377.9,50.6l0.5,2.6c0,0,0.5,1.5,1.5,1.5s2.5-3.1,2.5-3.1l-2.3-3L377.9,50.6z"/>
		<path class="st30" d="M380.2,48.6l-2.3,2l0.3,1.4c1.2-0.2,2.3-1.2,2.5-2.7L380.2,48.6z"/>
		<path class="st29" d="M375.5,44.7c0,0-0.4,6,1.3,6.6c1.8,0.5,3.9-0.8,3.9-2.8C380.8,46.4,380,42.3,375.5,44.7"/>
		<path class="st31" d="M377.1,43.3c0,0-3.3-0.7-3.4,0.3c-0.1,1,1,1.6,1.8,1.6s2.6-0.3,3.2,0.4c0.6,0.6,1.9,3.7,1.9,3.7l0.7,0.9
			c0,0,0.1-1.7,0.9-2.8c0.8-1.1,0.1-2.8-0.8-3.9C380.5,42.3,377.9,43.3,377.1,43.3"/>
		<path class="st29" d="M379.5,47.1c0,0,0.2-0.9,0.7-0.8c1,0.2,0.5,2.1,0.1,2.2C379.7,48.7,379.4,48.1,379.5,47.1"/>
		<path class="st32" d="M384.5,55.8c0,2,1,7.8,1,7.8s4.1-0.1,4.5-0.4c0.3-0.3-0.7-9.1-2.6-10.4C385.2,51.3,384.5,53.9,384.5,55.8"/>
		<path class="st27" d="M380.3,59.6c-0.1,0-0.3,0-0.5-0.1c-0.2-0.1-0.3-0.4-0.3-0.7c0-0.9,0.2-3.5,0.2-3.5c0,0,0-0.1,0.1-0.1
			c0,0,0.1,0,0.1,0.1c0,0-0.2,2.6-0.2,3.5c0,0.3,0.1,0.5,0.2,0.6c0.2,0.2,0.5,0.1,0.5,0.1c0,0,0.1,0,0.1,0.1c0,0,0,0.1,0,0.1
			C380.5,59.6,380.4,59.6,380.3,59.6"/>
		<path class="st27" d="M380.5,55.7c0,0.1-0.1,0.1-0.1,0.1s-0.1-0.1-0.1-0.1s0.1-0.1,0.1-0.1C380.4,55.6,380.5,55.7,380.5,55.7"/>
		<path class="st27" d="M380.5,57.2c0,0.1-0.1,0.1-0.1,0.1s-0.1-0.1-0.1-0.1s0.1-0.1,0.1-0.1C380.4,57,380.5,57.1,380.5,57.2"/>
		<path class="st27" d="M380.5,58.6c0,0.1-0.1,0.1-0.1,0.1s-0.1-0.1-0.1-0.1s0.1-0.1,0.1-0.1C380.4,58.5,380.5,58.6,380.5,58.6"/>
		<path class="st33" d="M343.8,46.1c0,0-3.4-0.9-3.8,2.8c-0.4,3.6,1.5,4.2,0.4,6s-2.1,0.4-2.4,5.4c-0.2,5,12.3,7.8,14.2,4.1
			c1.4-2.6,2.7-2.6,4-2.6c0.5,0,1.1,0,1.6-0.2c2.9-1.3,2.4-7.7-1.5-7.3s-5.8,0.6-5.3-2.4c0.5-2.9-0.9-5.5-2.7-6.5
			S344.2,44.3,343.8,46.1"/>
		<path class="st20" d="M334.3,107.7c0,0,0.1,0.9-0.4,1.5c-0.5,0.5-2.3,0.8-2.5,1.4c-0.2,0.6,1.8,0.6,2.5,0.5
			c0.7-0.2,2.5-0.3,2.9-0.4s-0.6-3-0.7-3.1C336,107.6,334.3,107.7,334.3,107.7"/>
		<path class="st20" d="M344.8,107.1c0,0-0.5,2-0.4,2.8c0,0.8,1,2,1.7,1.9s1.3-0.5,1.1-1.5c-0.2-0.9-0.7-3.2-0.7-3.2L344.8,107.1z"
			/>
		<path class="st34" d="M350.2,73.3c0,0,0.5-15.3-0.3-16c-0.3-0.3-2.7-1.1-4.3-1.3c-2.4-0.4-4.3-0.2-4.3-0.2s-2.5,3-2.5,4.1
			s-0.2,13.6-0.2,13.6c-1.9,0.7-4.9,13.4-5.1,16.7s0.3,18.5,0.3,18.5l2.8-0.3c1.5-2.4,2.2-15,2.7-16.5c0.6-2.2,3.5-8.8,3.5-8.8
			l1.5-0.6c0,0-0.3,10-0.2,12.3c0.1,2.3,0,13.4,0,13.4l2.8-0.1c2.2-3.9,3.8-22.1,3.7-23c0-0.9,0.9-2.5,1.1-5.2
			C351.8,77.4,350.2,73.3,350.2,73.3"/>
	</g>
	<rect x="340.3" y="72.9" class="st16" width="5" height="0.5"/>
	<g>
		<path class="st31" d="M343.2,73.6h-0.7c-0.2,0-0.4-0.2-0.4-0.4c0-0.2,0.2-0.4,0.4-0.4h0.7c0.2,0,0.4,0.2,0.4,0.4
			S343.4,73.6,343.2,73.6"/>
		<path class="st35" d="M346.2,58.5c-0.3,2.4-1,6-1.7,8.2c-0.6,1.9-0.6,4.2-0.4,6.1h1.2v0.5h-1.1c0.1,1.1,0.4,2.2,0.6,3.2
			c0.1,0,1.6,0.9,4.3,0.9c0.1,0,1.1-0.1,2.3-0.2c0-0.2-0.1-0.4-0.1-0.5c-0.6,0.2-1.4,0.2-2.1,0.2c-1.4,0-2.8-0.2-3.8-0.7l0.1-4.1
			c-0.1,0-0.4,0-0.8,0c0-0.4-0.1-0.9-0.1-1.3h0.9l0.1-2.9L346.2,58.5z"/>
		<path class="st36" d="M345.3,72.9h-1.2c0,0.1,0,0.2,0,0.3l0,0c0,0.1,0,0.1,0,0.2h1.1V72.9z"/>
		<polyline class="st37" points="341.4,55.7 341.4,55.7 341.4,55.7 		"/>
		<path class="st35" d="M341.4,55.7L341.4,55.7c0,0.2-1.8,9.4-1.8,10.1c0,0.3,0.4,2.8,0.8,5.2c0.1,0.4,0.1,0.9,0.2,1.3l0,0
			c0,0.2,0.1,0.4,0.1,0.6h0.6C340.5,65.3,341.3,55.8,341.4,55.7 M341.5,73.4h-0.6c0.3,1.6,0.5,2.8,0.5,2.8c-0.3,0.1-0.7,0.1-1.1,0.1
			c-1.3,0-2.6-0.4-3.1-0.6c-0.2,0.4-0.3,0.9-0.5,1.4c0.9,0.1,1.8,0.1,2.7,0.1c1.4,0,2.6-0.1,2.7-0.4C342,76.6,341.6,74.6,341.5,73.4
			"/>
		<path class="st36" d="M341.4,72.9h-0.6c0,0.2,0.1,0.4,0.1,0.5h0.6c0-0.1,0-0.1,0-0.2l0,0C341.4,73.1,341.4,73,341.4,72.9"/>
		<path class="st38" d="M352.9,75.3c0,1.9-5.2,2.1-7.6,0.9l0.3-8.3l0.8-11.8c0,0,3.1,0.6,4.2,1.3c0,0,0.3,12.3,0.6,14.8
			C351.5,74.7,352.9,74.4,352.9,75.3"/>
		<path class="st38" d="M338.6,56.3c0,0-1.2,9.8-1.2,12.4s-0.5,7-0.5,7s2.6,1,4.4,0.6c0,0-1.7-9.8-1.7-10.5s1.8-10.1,1.8-10.1
			S339.7,55.8,338.6,56.3"/>
	</g>
	<polygon class="st31" points="337,108.4 333.6,108.6 333.6,107.8 337.1,107.6 	"/>
	<polygon class="st31" points="347.2,107.9 343.9,108.1 343.8,107.2 347.4,107 	"/>
	<g>
		<path class="st23" d="M336.6,109c-0.3,0.3-1.1,1-3.7,0.7c-0.7,0.3-1.4,0.5-1.6,0.9c-0.2,0.6,1.8,0.6,2.5,0.5
			c0.7-0.2,2.5-0.3,2.9-0.4C337,110.8,336.9,109.9,336.6,109"/>
		<path class="st23" d="M344.4,109.9c0,0.8,1,2,1.7,1.9s1.3-0.5,1.1-1.5c-0.1-0.3-0.2-0.8-0.3-1.3c-0.1,0.6-0.4,1.6-1.1,1.2
			c-0.8-0.4-1.2-1.2-1.4-1.6C344.5,109.2,344.4,109.7,344.4,109.9"/>
		<path class="st39" d="M337.3,71.1L337.3,71.1c0,0,0,0.1,0,0.1C337.3,71.2,337.3,71.2,337.3,71.1"/>
		<path class="st40" d="M340.4,71L340.4,71c0.1,0.4,0.1,0.9,0.2,1.3C340.6,71.8,340.5,71.4,340.4,71"/>
		<path class="st41" d="M340.4,71l-3.1,0.2c0,0,0,0.1,0,0.1c0,0.4,0,0.8-0.1,1.2c1-0.1,2.2-0.1,3.5-0.2
			C340.6,71.8,340.5,71.4,340.4,71"/>
		<path class="st40" d="M345.5,70.8h-0.9c0,0.4,0,0.9,0.1,1.3c0.4,0,0.7,0,0.8,0L345.5,70.8z"/>
		<path class="st39" d="M351.2,72c0,0.1,0,0.1,0,0.2c0,0.1,0,0.3,0.1,0.4C351.2,72.4,351.2,72.2,351.2,72"/>
		<path class="st41" d="M351.1,70.8h-5.6l0,1.2c0,0,0,0,0,0c0.8,0,3.7,0.8,4.8,0.8c0.4,0,0.8-0.1,1-0.3c0-0.1,0-0.3-0.1-0.4
			c0-0.1,0-0.1,0-0.2C351.1,71.6,351.1,71.2,351.1,70.8"/>
	</g>
	
		<rect x="350.1" y="70.8" transform="matrix(0.9998 -1.750082e-02 1.750082e-02 0.9998 -1.2588 6.1445)" class="st42" width="0.7" height="8.4"/>
	<g>
		<path class="st36" d="M350.6,84.5c0,0.1,0,0.2,0,0.3c0,0.1,0,0.7-0.1,1.5l0,0c0.1-0.9,0.1-1.4,0.1-1.6
			C350.5,84.7,350.5,84.6,350.6,84.5"/>
		<path class="st35" d="M347.1,82.1l0.2,3.3c0,0,1.2,0.9,3.1,0.9c0,0,0,0,0,0c0.1-0.8,0.1-1.4,0.1-1.5c0-0.1,0-0.2,0-0.3
			c0-0.4,0.2-0.8,0.4-1.4L347.1,82.1z"/>
		<path class="st38" d="M338.6,56.4c0,0-0.9,0.2-2.2,4.5c-1.3,4.3-0.4,9.9,0.5,10.5c0.9,0.6,9.6,0.4,9.6,0.4l0-3.1
			c0,0-6.6-1-7.2-1.8c-0.2-0.2,0.1-1,0.1-2C339.1,61.9,338.6,56.4,338.6,56.4"/>
		<path class="st43" d="M338.9,66.3c0,0-0.9-0.6-1.2-1c-0.3-0.4-1-1-1-0.7c0,0.3,0.3,0.7,0.3,0.7s-1.2-0.9-1.4-0.7
			c-0.2,0.1-0.3,1.1-0.2,2.1c0.1,1,3,1.8,3,1.8L338.9,66.3z"/>
		<path class="st44" d="M350.1,85l-0.3,0c-1.5,0.2-2.5-0.4-2.6-0.9l-0.3-5.2l2.9-0.3c0.6-0.1,1.1,0.3,1.2,0.8l1.3,4.3
			C352.6,84.3,351.5,84.9,350.1,85"/>
		<path class="st42" d="M347.2,84l-0.4-5.1l0.5-0.1c0.6-0.1,1.1,0.3,1.2,0.9l0.7,4C349.4,85,347.3,85.3,347.2,84"/>
	</g>
	<polygon class="st42" points="346.8,79.5 338.8,56.2 339.4,56 347.5,79.3 	"/>
	<g>
		<path class="st45" d="M350.4,72.2c-3.1,0.5-9.7-1.8-12.4-2.6l1-3.5c0,0,7.9,2.2,8.9,1.7c0.5-0.2,1.8-2.6,2.3-5.1
			c0.5-2.5,0.4-5.3,0.4-5.3s2.3,3,1.6,9.2C351.7,71.4,351.8,72,350.4,72.2"/>
		<path class="st43" d="M349.6,65.1c0,0-0.7,0.6-1.3,1.1c-0.6,0.5-1.5,1.7-1.5,1.7s1.1,0.2,1.4,0.3s1.6-0.6,2-0.6
			c0.4,0,0.3-0.6-0.2-0.5c-0.5,0.1-1,0.2-1,0.2s1.2-0.8,1.8-1.3s0.1-0.8-0.4-0.4c-0.5,0.4-1,0.6-1,0.6s1.7-1.4,1.4-1.7
			C350.7,64.2,349.6,65.1,349.6,65.1"/>
		<path class="st42" d="M351.8,81.7c-0.2,0.2-0.5,0.5-0.8,0.6c-1.3,0.5-3-1.6-3-1.6l-0.1,0.1c0.1,0.1,1.5,1.7,2.7,1.7
			c0.2,0,0.3,0,0.5-0.1c0.4-0.1,0.6-0.4,0.8-0.6L351.8,81.7z"/>
		<path class="st46" d="M345.4,52.4c0,0-0.2,2.5,0,3c0,0.2,0.1,0.3,0.2,0.4c0.6,0.5-1.3,5.8-1.9,5.6c-0.6-0.2-1.7-3.8-2.1-5
			c-0.1-0.4,0.1-0.7,0.4-0.8l0,0c0.6-0.2,0.8-4.7,0.8-4.7L345.4,52.4z"/>
		<path class="st47" d="M343.2,50.8c0,0,0,0.1,0,0.3c0,0,0,0,0,0l2.1,1.2c0,0-0.1,1.6-0.1,2.5c0.1,0.1,0.3,0.1,0.4,0.2
			c-0.1-0.8,0-2.8,0-2.8L343.2,50.8z"/>
		<path class="st48" d="M343.2,51.1c0,0.4,0,0.7,0.1,1.1c0.5,1.4,1.2,2.3,1.9,2.7c0-0.9,0.1-2.5,0.1-2.5L343.2,51.1z"/>
		<path class="st49" d="M342.9,49c0,0,0.4-1.8,1.8-2.3c1.4-0.5,2.6-0.1,3,1.7c0.4,1.8-0.3,4.5-1.1,5.4
			C345.7,54.6,342.9,53.1,342.9,49"/>
		<path class="st49" d="M343.3,49.6c0,0-0.6-1.1-1.1-0.5c-0.4,0.6-0.1,2,0.7,2.1C343.7,51.3,343.3,49.6,343.3,49.6"/>
		<path class="st50" d="M230.8,82.2L230.8,82.2c-0.1-0.1-0.4-0.3-0.6-0.3c-0.3,0-0.5,0-0.5,0l0.4,0.5L230.8,82.2z"/>
		<path class="st51" d="M231.2,100.9c-0.2,0-0.4-0.2-0.4-0.4c0-5.2,4.2-9.4,9.4-9.4c2.2,0,4.4,0.8,6.1,2.2c0.2,0.1,0.2,0.4,0.1,0.6
			c-0.1,0.2-0.4,0.2-0.6,0.1c-1.6-1.3-3.5-2.1-5.6-2.1c-4.8,0-8.6,3.9-8.6,8.6C231.6,100.7,231.4,100.9,231.2,100.9"/>
		<path class="st52" d="M225.1,100.3c-0.1,0-0.2-0.1-0.3-0.2l-7.2-12.9c-0.1-0.2,0-0.4,0.1-0.4c0.2-0.1,0.4,0,0.4,0.1l7.5,12.8
			c0.1,0.2-0.2,0.4-0.4,0.5C225.2,100.3,225.1,100.3,225.1,100.3"/>
		<path class="st52" d="M225.4,100.3l-10.8-0.1l5.4-9.3l12.7-2.3L225.4,100.3z M233.7,88.1L233.7,88.1c0-0.2-0.2-0.4-0.4-0.3
			l-13.7,2.5c-6.3,10.9-6,10.2-5.9,10.4c0.2,0.3-0.1,0.1,12,0.3C233.8,88,233.7,88.2,233.7,88.1"/>
		<path class="st53" d="M235.2,97.9c-0.1,0-0.1,0-0.1,0.1c-0.4,0.8-0.6,1.7-0.6,2.6c0,3.1,2.5,5.7,5.7,5.7c0.8,0,1.6-0.2,2.4-0.5
			c0.1,0,0.1-0.1,0.1-0.2c0-0.1-0.1-0.1-0.1-0.1c0,0,0,0-0.1,0c-0.7,0.3-1.5,0.5-2.2,0.5c-3,0-5.4-2.4-5.4-5.4
			c0-0.9,0.2-1.7,0.6-2.5C235.3,98,235.3,97.9,235.2,97.9C235.2,97.9,235.2,97.9,235.2,97.9"/>
		<path class="st54" d="M240.1,93.2c-4,0-7.3,3.3-7.3,7.3s3.3,7.3,7.3,7.3s7.3-3.3,7.3-7.3S244.1,93.2,240.1,93.2 M240.1,108.9
			c-4.6,0-8.4-3.8-8.4-8.4c0-4.6,3.8-8.4,8.4-8.4c4.6,0,8.4,3.8,8.4,8.4C248.4,105.1,244.7,108.9,240.1,108.9"/>
		<path class="st53" d="M240.1,94c-3.6,0-6.5,2.9-6.5,6.5c0,3.6,2.9,6.5,6.5,6.5c3.6,0,6.5-2.9,6.5-6.5
			C246.6,96.9,243.7,94,240.1,94 M240.1,106.7c-3.4,0-6.2-2.8-6.2-6.2s2.8-6.2,6.2-6.2c3.4,0,6.2,2.8,6.2,6.2
			S243.5,106.7,240.1,106.7"/>
		<path class="st52" d="M240.2,100.8c-0.1,0-0.2-0.1-0.3-0.2l-8.8-16c-0.1-0.1-0.1-0.3-0.1-0.5v-1c0-0.2-0.1-0.4-0.1-0.4
			c-0.1,0-0.3,0-0.5,0.1l-1.5,0.9c-0.1,0.1-0.4,0-0.4-0.1s0-0.4,0.1-0.4l1.5-0.9c0.3-0.2,0.9-0.3,1.2-0.1s0.4,0.6,0.4,1v1
			c0,0.1,0,0.1,0.1,0.2l8.8,16c0.1,0.2,0,0.4-0.1,0.4C240.3,100.8,240.3,100.8,240.2,100.8"/>
		<path class="st50" d="M224.8,76.3c-0.2-0.4-0.8-2.5-0.8-2.5l-3.4,0.2c0,0,1.6,3.5,1.9,4.2c0.9,0.8,4.8,3.4,5.1,3.7
			c0.2,0.1,0.4,0.4,0.5,0.6c0.3,0.5,0.3,0.7,0.6,1.2c0.3,0.5,1.9-0.3,1.9-0.8c0-0.3-0.6-0.8-1.2-1.3C229.4,81.5,225,76.7,224.8,76.3
			"/>
		<path class="st52" d="M221.9,67.9c-0.9,0.3-1.4,0.9-1.2,3.4s0.8,4.4,0.8,4.4s2.5,0.4,3.9-0.6C225.5,75.2,224.9,67,221.9,67.9"/>
		<path class="st54" d="M214,93.2c-4,0-7.3,3.3-7.3,7.3s3.3,7.3,7.3,7.3s7.3-3.3,7.3-7.3S218.1,93.2,214,93.2 M214,108.9
			c-4.6,0-8.4-3.8-8.4-8.4c0-4.6,3.8-8.4,8.4-8.4s8.4,3.8,8.4,8.4C222.4,105.1,218.6,108.9,214,108.9"/>
		<path class="st55" d="M214,94.3c-3.4,0-6.2,2.8-6.2,6.2c0,3.4,2.8,6.2,6.2,6.2s6.2-2.8,6.2-6.2S217.5,94.3,214,94.3 M214,107
			c-3.6,0-6.5-2.9-6.5-6.5c0-3.6,2.9-6.5,6.5-6.5c3.6,0,6.5,2.9,6.5,6.5C220.5,104.1,217.6,107,214,107"/>
		<path class="st55" d="M214,106.2c-3.1,0-5.7-2.5-5.7-5.7c0-0.9,0.2-1.8,0.6-2.6c0-0.1,0.1-0.1,0.2-0.1c0.1,0,0.1,0.1,0.1,0.2
			c-0.4,0.8-0.6,1.6-0.6,2.5c0,3,2.4,5.4,5.4,5.4c0.8,0,1.5-0.2,2.2-0.5c0.1,0,0.1,0,0.2,0.1c0,0.1,0,0.1-0.1,0.2
			C215.6,106,214.9,106.2,214,106.2"/>
		<path class="st55" d="M218.1,96.9c0,0-0.1,0-0.1,0c-1-1.1-2.5-1.7-3.9-1.7c-0.1,0-0.1-0.1-0.1-0.1s0.1-0.1,0.1-0.1
			c1.6,0,3.1,0.6,4.1,1.8C218.2,96.7,218.2,96.8,218.1,96.9C218.1,96.8,218.1,96.9,218.1,96.9"/>
		<path class="st51" d="M219.9,94c-0.1,0-0.2,0-0.2-0.1c-1.6-1.3-3.5-2.1-5.6-2.1c-1.7,0-3.4,0.5-4.8,1.5c-0.2,0.1-0.4,0.1-0.5-0.1
			c-0.1-0.2-0.1-0.4,0.1-0.5c1.6-1.1,3.4-1.6,5.2-1.6c2.2,0,4.4,0.8,6.1,2.2c0.2,0.1,0.2,0.4,0.1,0.6C220.1,94,220,94,219.9,94"/>
		<path class="st56" d="M214,99.6c-0.1,0-0.1,0-0.1-0.1c0-0.1,0-0.1,0.1-0.1l11.5-0.5c0.1,0,0.1,0,0.1,0.1c0,0.1,0,0.1-0.1,0.1
			L214,99.6L214,99.6z"/>
		<path class="st56" d="M225.7,102.1L225.7,102.1l-11.7-0.5c-0.1,0-0.1-0.1-0.1-0.1s0.1-0.1,0.1-0.1l11.7,0.5c0.1,0,0.1,0.1,0.1,0.1
			C225.8,102.1,225.8,102.1,225.7,102.1"/>
		<path class="st55" d="M223.7,100.5c0,1,0.8,1.9,1.9,1.9c1,0,1.9-0.8,1.9-1.9c0-1-0.8-1.9-1.9-1.9
			C224.5,98.6,223.7,99.5,223.7,100.5"/>
		<path class="st55" d="M228.2,105.1c0,0-0.1,0-0.1-0.1l-2.7-4.3c0-0.1,0-0.1,0-0.2s0.1,0,0.2,0l2.7,4.3
			C228.4,105,228.3,105,228.2,105.1L228.2,105.1z"/>
		<path class="st56" d="M226.8,105.4c-0.1,0-0.2-0.1-0.3-0.2c0-0.1,0.1-0.3,0.2-0.3l2.9-0.4c0.1,0,0.3,0.1,0.3,0.2s-0.1,0.3-0.2,0.3
			L226.8,105.4L226.8,105.4z"/>
		<path class="st56" d="M216.1,86.5h2.6c0.2,0,0.3,0.1,0.3,0.3v0.4c0,0.2-0.1,0.3-0.3,0.3h-3.2c-0.2,0-0.4-0.3-0.3-0.5
			C215.3,86.8,215.7,86.5,216.1,86.5"/>
		<path class="st56" d="M214,101.9c-0.8,0-1.4-0.6-1.4-1.4c0-0.8,0.6-1.4,1.4-1.4s1.4,0.6,1.4,1.4
			C215.4,101.3,214.8,101.9,214,101.9"/>
		<path class="st57" d="M212.8,100.5c0,0.7,0.5,1.2,1.2,1.2s1.2-0.5,1.2-1.2s-0.5-1.2-1.2-1.2C213.4,99.3,212.8,99.9,212.8,100.5"/>
		<path class="st58" d="M214.4,100.5c0,0.2-0.1,0.3-0.3,0.3s-0.3-0.1-0.3-0.3s0.1-0.3,0.3-0.3S214.4,100.3,214.4,100.5"/>
		<path class="st57" d="M238.9,100.5c0,0.7,0.5,1.2,1.2,1.2s1.2-0.5,1.2-1.2s-0.5-1.2-1.2-1.2C239.4,99.3,238.9,99.9,238.9,100.5"/>
		<path class="st58" d="M240.4,100.5c0,0.2-0.1,0.3-0.3,0.3s-0.3-0.1-0.3-0.3s0.1-0.3,0.3-0.3S240.4,100.3,240.4,100.5"/>
		<path class="st50" d="M230.6,82.1c0,0-0.4-0.4-0.9-0.4s-0.3,0.5-0.3,0.5l0.9,0.5c0,0-0.2-0.5-0.1-0.5
			C230.5,82.1,230.6,82.1,230.6,82.1"/>
		<path class="st50" d="M223.2,104.8l-0.1,1.7c0,0.2-0.2,0.8-0.2,1c0,0.8,3.4-0.6,2.6-1c-0.1,0-0.4-0.3-0.4-0.5
			c0-0.4-0.1-1.2-0.1-1.2L223.2,104.8z"/>
		<path class="st56" d="M225.6,106.5c0,0-0.8,0.2-1.2,0.3c-0.4,0.1-0.9-0.4-1.2-0.3c-0.3,0.1-0.3,1.6-0.3,1.6s4.2,0.2,5.4-0.1
			C228.7,107.8,227.2,107,225.6,106.5"/>
		<path class="st50" d="M215.9,104.9l-0.1,1.7c0,0.2-0.2,0.8-0.2,1c0,0.8,3.4-0.6,2.6-1c-0.1,0-0.5-0.4-0.6-0.7c0-0.4,0-1,0-1
			L215.9,104.9z"/>
		<path class="st56" d="M218.2,106.7c0,0-0.8,0.2-1.2,0.3c-0.4,0.1-0.9-0.4-1.2-0.3c-0.3,0.1-0.3,1.4-0.3,1.4s4.5,0.3,5.6,0
			C221.5,108,219.8,107.2,218.2,106.7"/>
		<path class="st54" d="M221.2,79.8l0.6,0.9l3.8,13.9l-0.1,10.7l-2.4,0.1c0,0-1.1-9.4-1.1-10.1s-5.1-12.7-5.1-12.7L221.2,79.8z"/>
		<path class="st57" d="M221.1,80.7c0,0-2,10.9-2,12.7s-0.9,12.2-0.9,12.2l-2.4,0c0,0-0.2-3.2-0.4-7.8c0-0.7,0.1-2.2,0-2.9
			c-0.4-5.4-1.1-9.3-0.8-11.3c0.1-0.3,0.9-2.5,1.1-2.7C217.3,79.2,221.1,80.7,221.1,80.7"/>
		<path class="st54" d="M221.2,65.9c0,0-0.4-0.7-0.7-1c-0.3-0.3-0.8-1.3-0.6-2.4s1-1.5,1.4-1.7c0.5-0.1,2.2-0.1,2.8,0.2
			c0.6,0.3,0.3,2.5,0.3,2.5l-0.9,1.7L221.2,65.9z"/>
		<path class="st51" d="M223.4,68.1c0,0,1.1,2.4,0.9,4.2c-0.4,3.2-2,8.3-2.6,8.5c-4.7,1.4-6.4,0.4-6.4,0.4s1.9-9.6,2.9-11.8
			c0.4-0.9,1-1.7,2-1.8C220.6,67.5,222.5,67.2,223.4,68.1"/>
		<path class="st50" d="M223.2,66.3l0.2,1.9c0,0,0.1,0.5-0.2,0.7c-0.4,0.4-2.1-1.5-2.1-1.5l0.2-3L223.2,66.3z"/>
		<path class="st51" d="M221.2,65.4c0.4,1.2,1.5,1.8,2.1,1.9l-0.1-1l-2-1.8L221.2,65.4z"/>
		<path class="st50" d="M222.2,61.4c0.9-0.4,1.9,0.2,2.1,1.1c0.1,0.4,0.2,0.9,0.2,1.5c0.1,1.3-0.5,2.7-1.1,2.7s-2.3-0.8-2.5-2.6
			C220.7,62.9,221.2,61.8,222.2,61.4"/>
		<path class="st50" d="M221.3,64.2c0,0.3-0.2,0.5-0.4,0.6c-0.2,0-0.4-0.2-0.5-0.5c0-0.3,0.2-0.5,0.4-0.6S221.3,63.9,221.3,64.2"/>
		<path class="st54" d="M220.8,63.7c0,0-0.1-0.6-0.1-1.2s0.6-1.5,1.2-1.6c0.6-0.1,2.1,0.1,2.2-0.3c0.2-0.4,0.2-0.4,0.2-0.4
			c0.1-0.1,1,0.4,1,1.5c0,1-0.9,1-1.1,1c-0.2,0-1.8-0.6-2.3-0.6C221.5,62.1,220.8,63.7,220.8,63.7"/>
		<path class="st59" d="M228,81.9c-0.8-0.3-0.8-0.1-0.9-0.1c-0.1,0-1.2-1.4-1.2-1.4s-3.2-4-3.4-4.2l-1.4-5.1l-2.7-0.1
			c0,0,1.6,5.5,1.8,5.8c0.1,0.3,5.1,5.2,5.5,5.6c0,0,0.3,0.7,0.5,1.1c0.2,0.4,0.6,0.8,0.7,0.9c0,0,0.3,0.4,0.8,0.8
			c0.4,0.3,0.2-0.2,0.2-0.2s-0.6-0.7-0.6-0.8c0.1,0,0.4,0.4,0.8,0.7c0.1,0.1,0.2,0.2,0.3,0.3c0.3,0.2,0.5,0.1,0.2-0.2
			c-0.1-0.1-0.2-0.2-0.4-0.3c-0.1-0.1-0.2-0.2-0.3-0.3c-0.2-0.2-0.3-0.4-0.3-0.4c0,0,0-0.1,0.1,0c0.1,0.1,0.4,0.4,0.6,0.6
			c0.1,0.1,0.4,0.3,0.4,0.3s0.4,0.2,0.5,0.2c0.1-0.1-0.2-0.4-0.4-0.4c-0.1-0.1-0.4-0.3-0.4-0.3s-0.5-0.5-0.4-0.6
			c0,0,0.4,0.2,0.7,0.5c0.3,0.2,0.7,0.4,0.8,0.3c0.1-0.1-0.3-0.4-0.3-0.4s-0.3-0.2-0.3-0.2c-0.1-0.1-0.4-0.3-0.4-0.3s-0.9-0.9-0.8-1
			s0.3-0.1,0.4-0.1c0.1,0,0.2,0.2,0.2,0.2c0.1,0,0.2,0,0.3-0.1c0.1-0.1-0.2-0.4-0.2-0.4S228.2,81.9,228,81.9"/>
		<path class="st60" d="M222,73.8c0.1-0.1-0.4-5.1-1.3-5.5s-2.9,0.2-2.9,1.5c0.1,1.4,1.4,4.7,1.4,4.7S221.7,74.2,222,73.8"/>
		<path class="st61" d="M46.1,88.8c-0.2,0-0.6,0.1-1.2,1.4c-0.8,1.6-2,6.2-2,6.2l3.6,1.3l0.5-1l0.8-7.5
			C47.6,89.2,46.1,88.8,46.1,88.8"/>
		<path class="st52" d="M50.8,88.1c-1,0-3.5,0.3-4.7,0.7c0,0-0.9,7.4,0.8,13.1c0.4,1.3-0.3,5.2-0.3,5.2l10.6-0.1
			c0,0-1.3-9.6-0.8-11.1c0.5-1.6,0.5-6.9,0.5-6.9s-0.1,0-2.4-0.4C53.4,88.2,51.9,88.1,50.8,88.1"/>
		<path class="st50" d="M52,120.8c0,0-0.2,2.7-0.7,3.5c-0.4,0.8,0,2,0,2.2c0,0.2,0.9,0.4,2.3,0.3s1.4-0.5,1.3-1s-0.9-1.2-0.9-1.7
			s0.4-2.3,0.4-2.3L52,120.8z"/>
		<path class="st62" d="M47.8,104.8c0,0-7.3-0.4-9,0.6s1.2,5.9,1.2,5.9S45,111,55,111.6c2.4,0.1,2.6-6.2,2.1-6.7
			C56.7,104.4,47.8,104.8,47.8,104.8"/>
		<path class="st63" d="M53.9,127c1.5-0.1,1.3-0.9,1.2-1.4c-0.1-0.3-0.5-0.7-0.7-1.1c-0.1,0.1-0.3,0.3-1,0.5
			c-0.7,0.2-1.5-0.2-2.1-0.4c-0.2,0.8-0.2,1.7-0.2,1.9C51.1,126.5,52.5,127.1,53.9,127"/>
		<path class="st64" d="M53.1,110c-0.3,2.2-1.7,13.2-1.7,13.2l3.4,0.4c0,0,4.1-14.4,3.9-16.6s-1.8-2.4-1.8-2.4S53.9,104.2,53.1,110"
			/>
		<path class="st50" d="M57,89.6c-1-0.4-1.5,8.6-1.6,12.2c-1.8,0.2-4.8,0-5.6-0.1c-0.4,0-1.2-0.3-1.5-0.4c-0.4-0.1-0.7-0.1-0.9,0
			c-0.1,0-1.9,0.8-2,0.9c-0.2,0.2-0.7,0.7-0.6,0.9s1-0.6,1-0.6l0.5-0.2c-0.6,0.6-1.6,1.3-1.5,1.5c0.2,0.3,1.1-0.5,1.8-1
			c-0.6,0.5-1.3,1.5-1.2,1.6c0.2,0.1,1-1,1.9-1.3c0.3-0.1,0.7,0.2,0.9,0.2c0.2,0,0.5,0.1,0.7,0l1-0.3c0.3,0,0.3,0.2,0.7,0.3
			c0.4,0.1,1,0.2,1.5,0.3c2.8,0.7,3.8,1,4.6,1C59.2,104.9,59.3,90.5,57,89.6"/>
		<path class="st61" d="M58.8,98c0.2-3.8,0.2-8.4-2-9.2c-0.8-0.3-2.3,1.6-2,9.3C56,98.2,57.6,98.3,58.8,98"/>
		<path class="st50" d="M41.9,123.4c0,0,0.5,0.9,0.1,1.6c-0.4,0.7-2.4,1.8-2.6,2.2c-0.2,0.4-0.1,0.7-0.1,0.7l6-1.5l-0.5-1.8
			l-0.6-1.2L41.9,123.4z"/>
		<path class="st63" d="M41.7,125.4c0,0,1.7,0.3,2.3-0.2c0.7-0.5,0.6-0.6,0.9-0.5c0.2,0.1,0.4,0.8,0.5,1.3c0.1,0.3-0.1,0.6-0.3,0.6
			l-6.2,1.5c-0.5,0.1-0.8-0.2-0.5-0.6c0.2-0.3,0.5-0.5,0.6-0.6C39.5,126.5,41.7,125.4,41.7,125.4"/>
		<path class="st64" d="M42.5,106.5c-0.5-1-1.5-2.3-3.4-1.5c-1.8,0.7-2.3,2.6-1.7,4.4s4.3,12.9,4.5,14.4l3,0c0,0-0.5-8.7-0.7-10.8
			C43.9,111,43.3,108.3,42.5,106.5"/>
		<path class="st56" d="M37.6,96.4h10c0.3,0,0.5,0.2,0.6,0.4l3.1,7.5h5.5c0.2,0,0.3,0.1,0.3,0.3s-0.1,0.3-0.3,0.3H41.1
			c-0.4,0-0.8-0.2-1-0.6L37,97.3C36.8,96.9,37.1,96.4,37.6,96.4"/>
		<path class="st16" d="M43,100.8c0.1,0.3,0.4,0.6,0.7,0.5c0.3-0.1,0.5-0.4,0.4-0.7s-0.4-0.6-0.7-0.5
			C43.1,100.1,42.9,100.5,43,100.8"/>
		<path class="st65" d="M48.4,79c0.3-0.1,0.6-0.2,0.9-0.4c0.3-0.2,0.7-0.3,1-0.4c0.6-0.1,1.5,0,2,0.6c0.7,0.7,1.8,0.1,1.6,3.9
			c-0.3,4.2-2.6,3.8-2.7,3.7c-0.1-0.1-2.1-2.7-2.1-2.7s-0.7,1.6-0.7,1.5C48.5,85.2,44.8,80.2,48.4,79"/>
		<path class="st50" d="M50.2,86.7L50,88.3c0,0-0.5,2.2,0.1,2.6s2.5-2.7,2.5-2.7l-0.2-3.8L50.2,86.7z"/>
		<path class="st51" d="M52.5,85.6C52,86.9,50.9,87.7,50,88l0.2-1.3l2.2-2.4L52.5,85.6z"/>
		<path class="st50" d="M50.3,80.2C49.1,80,48,81,48,82.2c0,0.5,0.1,1.2,0.2,1.9c0.3,1.8,1.5,3.3,2.3,3.2s2.8-1.6,2.4-4.1
			C52.7,81.6,51.7,80.4,50.3,80.2"/>
		<path class="st50" d="M52.3,83.5c0.1,0.4,0.4,0.6,0.7,0.6c0.3-0.1,0.5-0.4,0.5-0.8c-0.1-0.4-0.4-0.6-0.7-0.6
			C52.5,82.7,52.2,83.1,52.3,83.5"/>
		<path class="st65" d="M52.8,82.7c0,0-1,0.2-1.3-0.4s-1.6-1.9-3.2-1.4s1.4-1.3,1.5-1.3s1.7,0,1.7,0s1.2,1,1.2,1.1
			c0,0.1,0.4,1.3,0.4,1.3L52.8,82.7z"/>
		<path class="st16" d="M51,85.2l-1.7,0.3c0,0,0.2,0.6,0.9,0.5C51.2,85.9,51,85.2,51,85.2"/>
	</g>
</g>
</svg>
