<?xml version="1.0" encoding="utf-8"?>
<!-- Generator: Adobe Illustrator 25.4.1, SVG Export Plug-In . SVG Version: 6.00 Build 0)  -->
<svg version="1.1" id="Ebene_1" xmlns="http://www.w3.org/2000/svg" xmlns:xlink="http://www.w3.org/1999/xlink" x="0px" y="0px"
	 viewBox="0 0 186 104.6" style="enable-background:new 0 0 186 104.6;" xml:space="preserve">
<style type="text/css">
	.st0{fill:#C71C19;}
	.st1{fill:#FFFFFF;}
</style>
<g>
	<path class="st0" d="M147.5,90.3c7,0,12.1-2.1,16-4.7c3.7-2.5,6.5-5.4,8.7-9.1c2.8-4.8,3.7-9.3,3.9-11.9l5.2-54.4h-26.1
		C155.2,10.1,147.4,90.3,147.5,90.3"/>
	<path class="st0" d="M122.8,28.4l-3.5,36.7c-0.6,8.8,2.6,13.3,4.7,15.7c3.7,4.3,10.6,7.8,18.6,9.2c0.2-2.3,7.1-73.3,7.1-73.4
		c0.2-3.6-0.8-6.8-3.3-9.6c-2.8-3.2-7-4.2-8.8-4.2H75.2c-4.7,0-11.7,4.8-11.7,12.6c0,9.7,8.6,13,11.6,13L122.8,28.4"/>
	<path class="st0" d="M86.5,82.9h23.2l4.8-49.4H91.3C91.2,33.6,87.1,76.5,86.5,82.9"/>
	<path class="st1" d="M164.3,54c-0.1,1.5,1.5,2.2,3,2.2h2.8c0.2-0.4,0.3-0.9,0.3-1.4c0.1-1.5-0.7-2.6-3.1-2.6
		C165.4,52.2,164.4,52.7,164.3,54 M171.8,54.9c-0.1,1.3-0.3,2.2-0.7,3.2h-12.9l0.2-1.9h4.1c0.5,0,1.2,0.1,1.7,0.2l0,0
		c-1.1-0.5-1.7-1.5-1.5-2.9c0.2-2.1,1.8-3.3,4.5-3.3C170.3,50.1,172.1,51.9,171.8,54.9"/>
	<path class="st1" d="M165,44.5c-0.1,1.1,0.6,1.9,1.9,2l0.4-3.8C166,42.6,165.1,43.3,165,44.5 M168.8,40.8l-0.6,5.8
		c2,0.1,3-0.8,3.2-2.7c0.1-0.9,0-1.8-0.3-2.6l1.5-0.3c0.3,0.9,0.4,2.1,0.3,3.2c-0.3,2.8-1.9,4.3-5,4.3c-2.7,0-4.6-1.6-4.3-4.2
		c0.2-2.6,2-3.7,4.1-3.7C167.9,40.7,168.4,40.7,168.8,40.8"/>
	<path class="st1" d="M166.5,33.9c-0.5,1.8,0.6,2.7,3.3,2.7h3.6l-0.2,2h-9l0.2-1.9c0.5,0,1.3,0.1,2,0.2l0,0c-1.2-0.4-2.2-1.3-1.9-3
		L166.5,33.9z"/>
</g>
<polygon class="st1" points="173.9,32.2 160.7,32.2 160.9,30.2 174.1,30.2 "/>
<g>
	<path class="st1" d="M174.3,27.6h-9l0.2-1.9h9L174.3,27.6z M163.9,26.6c-0.1,0.7-0.6,1.3-1.3,1.3c-0.7,0-1.2-0.6-1.1-1.3
		s0.7-1.2,1.3-1.2C163.5,25.3,163.9,25.9,163.9,26.6"/>
	<path class="st1" d="M175.3,17.3h-5.8c-1.1,0-1.8,0.3-1.9,1.3c-0.1,1.4,1.2,2.4,3,2.4h4.3l-0.2,1.9h-9l0.2-1.9c0.5,0,1.3,0,1.8,0.1
		l0,0c-1.1-0.5-1.8-1.6-1.6-3.2c0.2-2.1,1.6-2.7,3.1-2.7h6.3L175.3,17.3z"/>
</g>
<polygon class="st0" points="11.3,55.1 10.5,64.2 8.7,64.2 9.6,55.1 6.7,55.1 6.9,53.6 14.4,53.6 14.2,55.1 "/>
<g>
	<path class="st0" d="M17.4,57.5c-0.9,0-1.7,0.7-1.9,1.8h3.3C18.9,58.2,18.3,57.5,17.4,57.5 M20.2,60.5h-4.9
		c-0.2,1.8,0.5,2.5,2.1,2.5c0.8,0,1.5-0.2,2.3-0.5l0.1,1.3C19,64.1,18,64.3,17,64.3c-2.4,0-3.6-1.3-3.3-4c0.2-2.3,1.7-4.1,4-4.1
		c2.2,0,3,1.5,2.8,3.2C20.4,59.7,20.3,60.1,20.2,60.5"/>
	<path class="st0" d="M24.7,64.3c-2,0-3.4-1-3.1-3.8c0.2-2.5,1.7-4.3,4.3-4.3c0.7,0,1.3,0.1,1.8,0.3l-0.4,1.4
		c-0.5-0.2-1-0.3-1.6-0.3c-1.3,0-2.1,1.1-2.3,2.7c-0.1,1.4,0.3,2.5,1.8,2.5c0.6,0,1.2-0.1,1.7-0.3l0.1,1.4
		C26.4,64.2,25.5,64.3,24.7,64.3"/>
	<path class="st0" d="M33.4,64.2l0.5-5c0.1-1-0.1-1.5-1-1.5c-1.2,0-2.2,1.2-2.3,2.8l-0.4,3.7h-1.7l1.1-11.4h1.7L31,56.3
		c0,0.5-0.1,1.1-0.3,1.6l0,0c0.5-1,1.5-1.6,2.8-1.6c1.8,0,2.2,1.1,2.1,2.5l-0.5,5.4H33.4z"/>
	<path class="st0" d="M42.3,64.2l0.5-5c0.1-1-0.1-1.5-1-1.5c-1.2,0-2.2,1.2-2.3,2.8l-0.4,3.7h-1.7l0.7-7.8h1.6
		c0,0.4-0.1,1.1-0.3,1.5l0,0c0.5-1,1.6-1.7,2.9-1.7c1.8,0,2.2,1.1,2.1,2.5l-0.5,5.4h-1.6V64.2z"/>
	<path class="st0" d="M47.9,55c-0.6,0-1-0.5-1-1c0.1-0.6,0.6-1,1.2-1s1,0.5,1,1C49,54.6,48.5,55,47.9,55 M46.2,64.2l0.8-7.8h1.7
		l-0.8,7.8H46.2z"/>
	<path class="st0" d="M51.5,64.3c-0.6,0-1.2-0.1-1.7-0.2l0.3-1.4c0.5,0.2,1.1,0.3,1.7,0.3c0.9,0,1.5-0.4,1.6-1
		c0.2-1.6-3.4-0.6-3.1-3.3c0.1-1.4,1.3-2.4,3.4-2.4c0.5,0,1,0.1,1.5,0.2L55,57.8c-0.4-0.1-1-0.2-1.5-0.2c-0.9,0-1.4,0.4-1.5,1
		c-0.1,1.5,3.4,0.7,3.1,3.3C54.9,63.3,53.6,64.3,51.5,64.3"/>
	<path class="st0" d="M59.6,64.3c-2,0-3.4-1-3.1-3.8c0.2-2.5,1.7-4.3,4.3-4.3c0.7,0,1.3,0.1,1.8,0.3l-0.4,1.4
		c-0.5-0.2-1-0.3-1.6-0.3c-1.3,0-2.1,1.1-2.3,2.7c-0.1,1.4,0.3,2.5,1.8,2.5c0.6,0,1.2-0.1,1.7-0.3l0.1,1.4
		C61.2,64.2,60.4,64.3,59.6,64.3"/>
	<path class="st0" d="M68.3,64.2l0.5-5c0.1-1-0.1-1.5-1-1.5c-1.2,0-2.2,1.2-2.3,2.8l-0.4,3.7h-1.7l1.1-11.4h1.7l-0.3,3.5
		c0,0.5-0.1,1.1-0.3,1.6l0,0c0.5-1,1.5-1.6,2.8-1.6c1.8,0,2.2,1.1,2.1,2.5L70,64.2H68.3z"/>
	<path class="st0" d="M75.8,57.5c-0.9,0-1.7,0.7-1.9,1.8h3.3C77.3,58.2,76.8,57.5,75.8,57.5 M78.7,60.5h-4.9
		c-0.2,1.8,0.5,2.5,2.1,2.5c0.8,0,1.5-0.2,2.3-0.5l0.1,1.3c-0.8,0.3-1.8,0.5-2.8,0.5c-2.4,0-3.6-1.3-3.3-4c0.2-2.3,1.7-4.1,4-4.1
		c2.2,0,3,1.5,2.8,3.2C78.8,59.7,78.7,60.1,78.7,60.5"/>
	<path class="st0" d="M7.1,83.1c-3.3,0-3.8-1.8-3.7-3.8l0.7-7h1.7l-0.7,6.8c-0.1,1.4,0.2,2.5,2.2,2.5c1.7,0,2.6-0.7,2.8-2.7l0.6-6.6
		h1.7l-0.6,6.5C11.5,81.7,9.9,83.1,7.1,83.1"/>
	<path class="st0" d="M18.6,83l0.5-5c0.1-1-0.1-1.5-1-1.5c-1.2,0-2.2,1.2-2.3,2.8L15.4,83h-1.7l0.7-7.8H16c0,0.4-0.1,1.1-0.3,1.5
		l0,0c0.5-1,1.6-1.7,2.9-1.7c1.8,0,2.2,1.1,2.1,2.5l-0.5,5.4h-1.6V83z"/>
	<path class="st0" d="M24.3,73.8c-0.6,0-1-0.5-1-1c0.1-0.6,0.6-1.1,1.2-1.1s1,0.5,1,1.1C25.4,73.3,24.9,73.8,24.3,73.8 M22.6,83
		l0.8-7.8h1.7L24.3,83H22.6z"/>
	<path class="st0" d="M30.2,83h-1.7l-2.2-7.8h1.8l1.1,4.1c0.1,0.5,0.3,1.1,0.3,1.6l0,0c0.2-0.5,0.4-1,0.6-1.5l1.9-4.2h1.8L30.2,83z"
		/>
	<path class="st0" d="M37.8,76.3c-0.9,0-1.7,0.7-1.9,1.8h3.3C39.4,77,38.8,76.3,37.8,76.3 M40.7,79.2h-4.9c-0.2,1.8,0.5,2.5,2.1,2.5
		c0.8,0,1.5-0.2,2.3-0.5l0.1,1.3c-0.8,0.3-1.8,0.5-2.8,0.5c-2.4,0-3.6-1.3-3.3-4c0.2-2.3,1.7-4.1,4-4.1c2.2,0,3,1.5,2.8,3.2
		C40.9,78.5,40.8,78.9,40.7,79.2"/>
	<path class="st0" d="M46.9,76.7c-1.5-0.3-2.4,0.8-2.6,3.1L44,83h-1.7l0.7-7.8h1.6c0,0.4-0.2,1.1-0.3,1.7l0,0c0.4-1,1.3-2,2.8-1.9
		L46.9,76.7z"/>
	<path class="st0" d="M49.3,83.1c-0.6,0-1.2-0.1-1.7-0.2l0.3-1.4c0.5,0.2,1.1,0.3,1.7,0.3c0.9,0,1.5-0.4,1.6-1
		c0.2-1.6-3.4-0.6-3.1-3.3c0.1-1.4,1.3-2.4,3.4-2.4c0.5,0,1,0.1,1.5,0.2l-0.2,1.3c-0.4-0.1-0.9-0.2-1.4-0.2c-0.9,0-1.4,0.4-1.5,1
		c-0.1,1.5,3.4,0.7,3.1,3.3C52.7,82.1,51.4,83.1,49.3,83.1"/>
	<path class="st0" d="M56.1,73.8c-0.6,0-1-0.5-1-1c0.1-0.6,0.6-1.1,1.2-1.1s1,0.5,1,1.1C57.2,73.3,56.7,73.8,56.1,73.8 M54.4,83
		l0.8-7.8h1.7L56.1,83H54.4z"/>
	<path class="st0" d="M61,83.1c-1.7,0-2.1-0.6-1.9-2.4l0.4-4.2H58l0.1-1.3h1.5l0.2-2.5l1.7-0.5l-0.3,2.9h2l-0.1,1.3h-2l-0.4,3.7
		c-0.1,1.2,0.1,1.5,0.9,1.5c0.3,0,0.7,0,1-0.1v1.3C62.2,83,61.6,83.1,61,83.1"/>
	<path class="st0" d="M69.7,73.7c-0.5,0-0.9-0.4-0.9-1c0-0.5,0.5-0.9,1-0.9s0.9,0.4,0.9,0.9C70.7,73.3,70.2,73.7,69.7,73.7
		 M66.6,73.7c-0.5,0-0.9-0.4-0.8-1c0.1-0.5,0.5-0.9,1-0.9s0.9,0.4,0.9,0.9C67.6,73.3,67.2,73.7,66.6,73.7 M68.8,79.4
		c-2.3,0-3,0.6-3.1,1.4c-0.1,0.6,0.3,1,1,1c1.1,0,2-1.1,2.1-2.2V79.4z M68.6,83c0-0.5,0.1-1,0.2-1.4l0,0c-0.5,0.9-1.5,1.6-2.7,1.6
		c-1.3,0-2.1-0.9-2-2.2c0.2-1.8,2-2.7,4.8-2.7V78c0.1-1.1-0.2-1.6-1.4-1.6c-0.7,0-1.7,0.2-2.4,0.5l-0.2-1.3c0.8-0.3,1.9-0.5,2.9-0.5
		c2.3,0,2.9,1,2.7,2.7l-0.3,3.1c-0.1,0.7-0.1,1.5-0.2,2.1L68.6,83L68.6,83z"/>
	<path class="st0" d="M75.1,83.1c-1.7,0-2.1-0.6-1.9-2.4l0.4-4.2h-1.5l0.1-1.3h1.5l0.2-2.5l1.7-0.5l-0.3,2.9h2l-0.1,1.3h-2l-0.4,3.7
		c-0.1,1.2,0.1,1.5,0.9,1.5c0.3,0,0.7,0,1-0.1v1.3C76.3,83,75.6,83.1,75.1,83.1"/>
	<path class="st0" d="M41,92.5c-0.5,0-0.9,0-1.3,0l-0.3,3.1c0.3,0,0.5,0,0.9,0c1.6,0,2.4-0.6,2.5-1.7C42.9,93.1,42.5,92.5,41,92.5
		 M40.3,96.9c-0.2,0-0.7,0-0.9,0l-0.3,3.4c0.3,0,0.8,0.1,1.2,0.1c1.5,0,2.3-0.8,2.4-1.8C42.8,97.4,41.9,96.9,40.3,96.9 M40,101.8
		c-0.7,0-1.7,0-2.9,0l1-10.6c0.8,0,2,0,3.3,0c2.3,0,3.4,0.9,3.2,2.6c-0.1,1.1-0.8,2-2,2.4l0,0c1.2,0.2,1.9,1.2,1.8,2.4
		C44.4,100.1,43.1,101.8,40,101.8"/>
	<path class="st0" d="M49.8,95.1c-0.9,0-1.7,0.7-1.9,1.8h3.3C51.3,95.8,50.7,95.1,49.8,95.1 M52.6,98h-4.9c-0.2,1.8,0.5,2.5,2.1,2.5
		c0.8,0,1.5-0.2,2.3-0.5l0.1,1.3c-0.8,0.3-1.8,0.5-2.8,0.5c-2.4,0-3.6-1.3-3.3-4c0.2-2.3,1.7-4.1,4-4.1c2.2,0,3,1.5,2.8,3.2
		C52.8,97.3,52.7,97.7,52.6,98"/>
	<path class="st0" d="M58.8,95.5c-1.5-0.3-2.4,0.8-2.6,3.1l-0.3,3.2h-1.7l0.7-7.8h1.6c0,0.4-0.2,1.1-0.3,1.7l0,0
		c0.4-1.1,1.3-2,2.8-1.9L58.8,95.5z"/>
</g>
<polygon class="st0" points="60.8,90.3 59.7,101.7 61.4,101.7 62.5,90.3 "/>
<g>
	<path class="st0" d="M65.4,92.6c-0.6,0-1-0.5-1-1c0.1-0.6,0.6-1.1,1.2-1.1s1,0.5,1,1.1C66.5,92.1,66,92.6,65.4,92.6 M63.7,101.7
		l0.8-7.8h1.7l-0.8,7.8H63.7z"/>
	<path class="st0" d="M72.5,101.7l0.5-5c0.1-1-0.1-1.5-1-1.5c-1.2,0-2.2,1.2-2.3,2.8l-0.4,3.7h-1.7l0.8-7.8H70
		c0,0.4-0.1,1.1-0.3,1.5l0,0c0.6-1,1.6-1.7,2.9-1.7c1.8,0,2.2,1.1,2.1,2.5l-0.5,5.4h-1.7V101.7z"/>
</g>
</svg>
