<?xml version="1.0" encoding="utf-8"?>
<!-- Generator: Adobe Illustrator 26.3.1, SVG Export Plug-In . SVG Version: 6.00 Build 0)  -->
<svg version="1.1" id="Ebene_1" xmlns="http://www.w3.org/2000/svg" xmlns:xlink="http://www.w3.org/1999/xlink" x="0px" y="0px"
	 viewBox="0 0 1112.6 288.3" style="enable-background:new 0 0 1112.6 288.3;" xml:space="preserve">
<style type="text/css">
	.st0{fill:#FFFFFF;}
	.st1{fill:#090909;}
	.st2{fill:#2A5C6B;}
	.st3{fill:#79BF85;}
	.st4{fill:#F69F24;}
	.st5{fill:#89A9B6;}
	.st6{fill:#E62A3C;}
	.st7{fill:#6BC1B3;}
</style>
<g id="phase5">
	<ellipse id="p5e" class="st0" cx="969.8" cy="146.8" rx="75.8" ry="78.4"/>
	<g id="text5">
		<g id="text5">
			<path class="st1" d="M925.2,144.4v-17.1h1.5c0.8,0,1.5,0,2.2-0.1c0.7-0.1,1.5-0.1,2.3-0.1c1.3,0,2.4,0.2,3.4,0.6
				c0.9,0.4,1.7,1,2.2,1.9c0.5,0.9,0.8,2,0.8,3.4c0,2-0.6,3.5-1.8,4.5c-1.2,1.1-2.9,1.6-5.1,1.6c-0.5,0-0.9,0-1.2,0
				c-0.3,0-0.6,0-0.8,0v5.3H925.2z M928.8,136.4c0.3,0,0.6,0.1,0.9,0.1c0.3,0,0.6,0,1,0c0.6,0,1.2-0.1,1.7-0.3s0.9-0.6,1.2-1.1
				s0.5-1.2,0.5-2.2c0-1.1-0.3-1.9-0.9-2.5s-1.4-0.8-2.6-0.8c-0.3,0-0.6,0-0.9,0c-0.3,0-0.6,0.1-0.9,0.1V136.4z"/>
			<path class="st1" d="M940.2,144.4v-17.1h3.6v7.1h6.7v-7.1h3.6v17.1h-3.6v-7.3h-6.7v7.3H940.2z"/>
			<path class="st1" d="M959.8,144.4H956l6.2-17.2h3.9l6.2,17.2h-3.8l-3.8-12.1l-0.5-2l-0.5,2L959.8,144.4z M959.5,140.8l0.5-2.6
				h7.8l0.5,2.6H959.5z"/>
			<path class="st1" d="M978.7,144.6c-0.8,0-1.5-0.1-2.2-0.2c-0.7-0.1-1.3-0.3-1.8-0.4c-0.5-0.2-0.9-0.3-1.1-0.4l0.5-2.9
				c0.3,0.2,0.7,0.3,1.1,0.5c0.5,0.2,1,0.3,1.5,0.4c0.6,0.1,1.1,0.2,1.7,0.2c0.9,0,1.6-0.1,2-0.4c0.4-0.3,0.7-0.7,0.7-1.4
				c0-0.4-0.1-0.8-0.4-1.1c-0.2-0.3-0.6-0.6-1.2-0.9s-1.2-0.6-2-1c-0.7-0.3-1.4-0.8-2-1.2c-0.6-0.5-1.1-1-1.5-1.7
				c-0.4-0.7-0.6-1.4-0.6-2.3c0-0.8,0.2-1.5,0.5-2.1c0.3-0.6,0.7-1.1,1.3-1.4c0.5-0.4,1.2-0.6,1.9-0.8s1.5-0.3,2.3-0.3
				c1.2,0,2.2,0.1,2.9,0.3s1.3,0.4,1.6,0.6l-0.6,2.7c-0.4-0.3-0.9-0.5-1.5-0.7s-1.4-0.3-2.2-0.3c-0.5,0-1,0.1-1.4,0.2
				c-0.4,0.1-0.7,0.3-0.9,0.6c-0.2,0.2-0.3,0.6-0.3,0.9c0,0.4,0.1,0.8,0.3,1.1s0.5,0.6,1,0.9s1.1,0.6,1.8,1c0.7,0.3,1.3,0.6,1.9,1
				c0.6,0.3,1.1,0.7,1.5,1.1c0.4,0.4,0.8,0.9,1,1.4c0.2,0.5,0.4,1.1,0.4,1.8c0,1-0.2,1.9-0.7,2.6c-0.5,0.7-1.2,1.3-2.1,1.7
				C981.1,144.4,980,144.6,978.7,144.6z"/>
			<path class="st1" d="M987.6,144.4v-17.1H998v2.7h-6.8v4.3h5.2v2.7h-5.2v4.7h7.6v2.8H987.6z"/>
			<path class="st1" d="M1007.2,144.6c-0.2,0-0.4,0-0.8,0c-0.3,0-0.6-0.1-0.8-0.1V142c0.1,0,0.3,0,0.4,0c0.1,0,0.3,0,0.4,0
				c1.3,0,2.4-0.1,3.4-0.4c0.9-0.3,1.7-0.7,2.2-1.2s0.8-1.2,0.8-1.9c0-0.9-0.3-1.5-0.8-1.9c-0.5-0.4-1.3-0.6-2.4-0.6
				c-0.5,0-1,0.1-1.6,0.2s-1.1,0.3-1.6,0.5l-0.7-0.4l0.7-8.9h9.5l-0.3,2.9h-6.6l-0.4,3.6c0.5-0.1,1-0.2,1.4-0.3
				c0.5-0.1,0.9-0.1,1.3-0.1c1.6,0,2.9,0.4,3.8,1.3c0.9,0.9,1.3,2.1,1.3,3.6c0,0.9-0.2,1.7-0.6,2.5s-1,1.4-1.8,2
				c-0.8,0.6-1.8,1-2.9,1.3C1010,144.5,1008.7,144.6,1007.2,144.6z"/>
		</g>
	</g>
	<path id="phase5a" class="st2" d="M969.8,221.9c-41.9,0-75.8-34-75.8-75.8c0-41.9,34-75.8,75.8-75.8c41.9,0,75.8,34,75.8,75.8
		C1045.6,188,1011.7,221.9,969.8,221.9 M969.8,15c-42.2,0-79.7,19.9-103.7,50.9c-17.2,22.2-27.5,50-27.5,80.2h54.9
		c0,30.2-10.3,58.1-27.5,80.3c24,30.9,61.5,50.9,103.7,50.9c72.4,0,131.1-58.7,131.1-131.1C1100.9,73.7,1042.2,15,969.8,15"/>
	<rect id="pr5" x="926.8" y="158.5" class="st3" width="86.1" height="24.3"/>
</g>
<g id="phase4">
	<ellipse id="p4e" class="st0" cx="762.8" cy="146.8" rx="75.8" ry="78.4"/>
	<g>
		<g>
			<path class="st1" d="M717.3,144.4v-17.1h1.5c0.8,0,1.5,0,2.2-0.1c0.7-0.1,1.5-0.1,2.3-0.1c1.3,0,2.4,0.2,3.4,0.6
				c0.9,0.4,1.7,1,2.2,1.9c0.5,0.9,0.8,2,0.8,3.4c0,2-0.6,3.5-1.8,4.5c-1.2,1.1-2.9,1.6-5.1,1.6c-0.5,0-0.9,0-1.2,0
				c-0.3,0-0.6,0-0.8,0v5.3H717.3z M720.9,136.4c0.3,0,0.6,0.1,0.9,0.1c0.3,0,0.6,0,1,0c0.6,0,1.2-0.1,1.7-0.3s0.9-0.6,1.2-1.1
				s0.5-1.2,0.5-2.2c0-1.1-0.3-1.9-0.9-2.5s-1.4-0.8-2.6-0.8c-0.3,0-0.6,0-0.9,0c-0.3,0-0.6,0.1-0.9,0.1V136.4z"/>
			<path class="st1" d="M732.3,144.4v-17.1h3.6v7.1h6.7v-7.1h3.6v17.1h-3.6v-7.3H736v7.3H732.3z"/>
			<path class="st1" d="M751.9,144.4h-3.8l6.2-17.2h3.9l6.2,17.2h-3.8l-3.8-12.1l-0.5-2l-0.5,2L751.9,144.4z M751.6,140.8l0.5-2.6
				h7.8l0.5,2.6H751.6z"/>
			<path class="st1" d="M770.8,144.6c-0.8,0-1.5-0.1-2.2-0.2c-0.7-0.1-1.3-0.3-1.8-0.4c-0.5-0.2-0.9-0.3-1.1-0.4l0.5-2.9
				c0.3,0.2,0.7,0.3,1.1,0.5c0.5,0.2,1,0.3,1.5,0.4c0.6,0.1,1.1,0.2,1.7,0.2c0.9,0,1.6-0.1,2-0.4c0.4-0.3,0.7-0.7,0.7-1.4
				c0-0.4-0.1-0.8-0.4-1.1c-0.2-0.3-0.6-0.6-1.2-0.9s-1.2-0.6-2-1c-0.7-0.3-1.4-0.8-2-1.2c-0.6-0.5-1.1-1-1.5-1.7
				c-0.4-0.7-0.6-1.4-0.6-2.3c0-0.8,0.2-1.5,0.5-2.1c0.3-0.6,0.7-1.1,1.3-1.4c0.5-0.4,1.2-0.6,1.9-0.8s1.5-0.3,2.3-0.3
				c1.2,0,2.2,0.1,2.9,0.3s1.3,0.4,1.6,0.6l-0.6,2.7c-0.4-0.3-0.9-0.5-1.5-0.7s-1.4-0.3-2.2-0.3c-0.5,0-1,0.1-1.4,0.2
				c-0.4,0.1-0.7,0.3-0.9,0.6c-0.2,0.2-0.3,0.6-0.3,0.9c0,0.4,0.1,0.8,0.3,1.1s0.5,0.6,1,0.9s1.1,0.6,1.8,1c0.7,0.3,1.3,0.6,1.9,1
				c0.6,0.3,1.1,0.7,1.5,1.1c0.4,0.4,0.8,0.9,1,1.4c0.2,0.5,0.4,1.1,0.4,1.8c0,1-0.2,1.9-0.7,2.6c-0.5,0.7-1.2,1.3-2.1,1.7
				C773.2,144.4,772.1,144.6,770.8,144.6z"/>
			<path class="st1" d="M779.7,144.4v-17.1h10.4v2.7h-6.8v4.3h5.2v2.7h-5.2v4.7h7.6v2.8H779.7z"/>
			<path class="st1" d="M797.6,141l-0.8-1.4c0.3-0.6,0.6-1.3,0.9-1.9c0.3-0.6,0.5-1.2,0.8-1.8c0.3-0.6,0.5-1.2,0.8-1.7
				c0.3-0.6,0.5-1.1,0.8-1.7c0.3-0.6,0.5-1.2,0.8-1.7c0.3-0.6,0.5-1.2,0.8-1.8c0.3-0.6,0.6-1.2,0.9-1.9h1.1l2.3,1.3
				c-0.3,0.5-0.5,1-0.8,1.5c-0.2,0.5-0.5,0.9-0.7,1.3s-0.4,0.9-0.7,1.3c-0.2,0.4-0.4,0.9-0.7,1.3c-0.2,0.4-0.5,0.9-0.7,1.3
				c-0.2,0.5-0.5,0.9-0.8,1.5l-1.1,1.9h10.4v2.6H797.6z M805,144.4v-6l0.3-4.9h3v10.9H805z"/>
		</g>
	</g>
	<g id="phase4a">
		<path class="st4" d="M762.8,15c-42.2,0-79.7,20-103.7,50.9c-17.2,22.2-27.4,50-27.4,80.2h54.9h0.4c0-41.9,34-75.8,75.8-75.8
			c41.9,0,75.8,34,75.8,75.8h0.1c0-30.3,10.3-58.2,27.6-80.5C842.3,34.8,804.9,15,762.8,15"/>
		<path class="st4" d="M838.7,146.1L838.7,146.1c-0.1,41.9-34,75.8-75.9,75.8c-41.9,0-75.8-34-75.8-75.8h-0.4
			c0,30.2-10.3,58.1-27.4,80.2c24,31,61.5,50.9,103.7,50.9c42.1,0,79.5-19.9,103.5-50.7c17.3-22.2,27.6-50.1,27.6-80.5H838.7z"/>
	</g>
	<rect id="pr4" x="719.3" y="158.5" class="st3" width="86.1" height="24.3"/>
</g>
<g id="phase3">
	<ellipse id="p3e" class="st0" cx="554.8" cy="146.8" rx="75.8" ry="78.4"/>
	<g>
		<g>
			<path class="st1" d="M510.9,144.4v-17.1h1.5c0.8,0,1.5,0,2.2-0.1c0.7-0.1,1.5-0.1,2.3-0.1c1.3,0,2.4,0.2,3.4,0.6
				c0.9,0.4,1.7,1,2.2,1.9c0.5,0.9,0.8,2,0.8,3.4c0,2-0.6,3.5-1.8,4.5c-1.2,1.1-2.9,1.6-5.1,1.6c-0.5,0-0.9,0-1.2,0
				c-0.3,0-0.6,0-0.8,0v5.3H510.9z M514.5,136.4c0.3,0,0.6,0.1,0.9,0.1c0.3,0,0.6,0,1,0c0.6,0,1.2-0.1,1.7-0.3s0.9-0.6,1.2-1.1
				c0.3-0.5,0.5-1.2,0.5-2.2c0-1.1-0.3-1.9-0.9-2.5s-1.4-0.8-2.6-0.8c-0.3,0-0.6,0-0.9,0c-0.3,0-0.6,0.1-0.9,0.1V136.4z"/>
			<path class="st1" d="M525.9,144.4v-17.1h3.6v7.1h6.7v-7.1h3.6v17.1h-3.6v-7.3h-6.7v7.3H525.9z"/>
			<path class="st1" d="M545.5,144.4h-3.8l6.2-17.2h3.9l6.2,17.2h-3.8l-3.8-12.1l-0.5-2l-0.5,2L545.5,144.4z M545.2,140.8l0.5-2.6
				h7.8l0.5,2.6H545.2z"/>
			<path class="st1" d="M564.4,144.6c-0.8,0-1.5-0.1-2.2-0.2c-0.7-0.1-1.3-0.3-1.8-0.4c-0.5-0.2-0.9-0.3-1.1-0.4l0.5-2.9
				c0.3,0.2,0.7,0.3,1.1,0.5c0.5,0.2,1,0.3,1.5,0.4c0.6,0.1,1.1,0.2,1.7,0.2c0.9,0,1.6-0.1,2-0.4c0.4-0.3,0.7-0.7,0.7-1.4
				c0-0.4-0.1-0.8-0.4-1.1c-0.2-0.3-0.6-0.6-1.2-0.9s-1.2-0.6-2-1c-0.7-0.3-1.4-0.8-2-1.2c-0.6-0.5-1.1-1-1.5-1.7
				c-0.4-0.7-0.6-1.4-0.6-2.3c0-0.8,0.2-1.5,0.5-2.1c0.3-0.6,0.7-1.1,1.3-1.4c0.5-0.4,1.2-0.6,1.9-0.8s1.5-0.3,2.3-0.3
				c1.2,0,2.2,0.1,2.9,0.3s1.3,0.4,1.6,0.6l-0.6,2.7c-0.4-0.3-0.9-0.5-1.5-0.7s-1.4-0.3-2.2-0.3c-0.5,0-1,0.1-1.4,0.2
				c-0.4,0.1-0.7,0.3-0.9,0.6c-0.2,0.2-0.3,0.6-0.3,0.9c0,0.4,0.1,0.8,0.3,1.1s0.5,0.6,1,0.9s1.1,0.6,1.8,1c0.7,0.3,1.3,0.6,1.9,1
				c0.6,0.3,1.1,0.7,1.5,1.1c0.4,0.4,0.8,0.9,1,1.4c0.2,0.5,0.4,1.1,0.4,1.8c0,1-0.2,1.9-0.7,2.6c-0.5,0.7-1.2,1.3-2.1,1.7
				C566.8,144.4,565.7,144.6,564.4,144.6z"/>
			<path class="st1" d="M573.3,144.4v-17.1h10.4v2.7h-6.8v4.3h5.2v2.7h-5.2v4.7h7.6v2.8H573.3z"/>
			<path class="st1" d="M590.9,144.2l0-2.3c0.4,0.1,0.8,0.1,1.1,0.2c0.4,0.1,0.8,0.1,1.1,0.1c0.9,0,1.7-0.1,2.5-0.4s1.3-0.6,1.7-1
				c0.4-0.4,0.6-1,0.6-1.5c0-0.5-0.1-0.9-0.3-1.2s-0.5-0.7-1-0.9c-0.5-0.2-1.1-0.3-1.9-0.3l-1.3,0.3l-0.5-2.2
				c0.5-0.1,0.9-0.2,1.3-0.3s0.8-0.3,1.1-0.4c0.6-0.3,1.1-0.7,1.4-1.1c0.3-0.4,0.5-0.9,0.5-1.4c0-0.7-0.2-1.1-0.6-1.4
				c-0.4-0.3-1-0.5-1.7-0.5c-0.8,0-1.5,0.1-2,0.4s-1,0.5-1.4,0.8l-1.1-2.2c0.2-0.2,0.6-0.5,1.2-0.7c0.5-0.3,1.2-0.5,1.9-0.7
				c0.7-0.2,1.4-0.3,2.1-0.3c1,0,2,0.2,2.7,0.5c0.8,0.3,1.4,0.8,1.8,1.4c0.4,0.6,0.6,1.3,0.6,2.2c0,0.8-0.2,1.4-0.5,2
				c-0.3,0.6-0.8,1.1-1.3,1.5s-1.2,0.8-1.9,1.1v-0.4c1.1,0,1.9,0.2,2.6,0.6c0.7,0.4,1.2,0.9,1.5,1.5s0.5,1.3,0.5,1.9
				c0,0.9-0.3,1.8-0.9,2.6s-1.5,1.4-2.6,1.9c-1.1,0.5-2.5,0.7-4,0.7c-0.6,0-1.2-0.1-1.7-0.2S591.3,144.3,590.9,144.2z"/>
		</g>
	</g>
	<g id="phase3a">
		<path class="st5" d="M555.8,15c-42.1,0-79.6,19.9-103.6,50.7c-17.3,22.2-27.6,50.1-27.6,80.4h55.2h0.1c0-41.9,34-75.8,75.8-75.8
			c41.9,0,75.8,34,75.8,75.8h0.4c0-30.2,10.3-58.1,27.4-80.2C635.5,34.9,598,15,555.8,15"/>
		<path class="st5" d="M632.1,146.1h-0.4c0,41.9-34,75.8-75.8,75.8c-41.9,0-75.8-34-75.8-75.8h-0.1c0,30.3-10.3,58.2-27.6,80.4
			c24,30.9,61.4,50.7,103.6,50.7c42.2,0,79.7-19.9,103.7-50.9c17.2-22.2,27.4-50,27.4-80.2H632.1z"/>
	</g>
	<rect id="pr3" x="513.3" y="158.5" class="st3" width="86.1" height="24.3"/>
</g>
<g id="phase2">
	<ellipse id="p2" class="st0" cx="348.8" cy="146.8" rx="75.8" ry="78.4"/>
	<g>
		<g>
			<path class="st1" d="M302.7,144.4v-17.1h1.5c0.8,0,1.5,0,2.2-0.1c0.7-0.1,1.5-0.1,2.3-0.1c1.3,0,2.4,0.2,3.4,0.6
				c0.9,0.4,1.7,1,2.2,1.9c0.5,0.9,0.8,2,0.8,3.4c0,2-0.6,3.5-1.8,4.5c-1.2,1.1-2.9,1.6-5.1,1.6c-0.5,0-0.9,0-1.2,0
				c-0.3,0-0.6,0-0.8,0v5.3H302.7z M306.3,136.4c0.3,0,0.6,0.1,0.9,0.1c0.3,0,0.6,0,1,0c0.6,0,1.2-0.1,1.7-0.3s0.9-0.6,1.2-1.1
				c0.3-0.5,0.5-1.2,0.5-2.2c0-1.1-0.3-1.9-0.9-2.5s-1.4-0.8-2.6-0.8c-0.3,0-0.6,0-0.9,0c-0.3,0-0.6,0.1-0.9,0.1V136.4z"/>
			<path class="st1" d="M317.7,144.4v-17.1h3.6v7.1h6.7v-7.1h3.6v17.1h-3.6v-7.3h-6.7v7.3H317.7z"/>
			<path class="st1" d="M337.3,144.4h-3.8l6.2-17.2h3.9l6.2,17.2h-3.8l-3.8-12.1l-0.5-2l-0.5,2L337.3,144.4z M337,140.8l0.5-2.6h7.8
				l0.5,2.6H337z"/>
			<path class="st1" d="M356.2,144.6c-0.8,0-1.5-0.1-2.2-0.2c-0.7-0.1-1.3-0.3-1.8-0.4c-0.5-0.2-0.9-0.3-1.1-0.4l0.5-2.9
				c0.3,0.2,0.7,0.3,1.1,0.5c0.5,0.2,1,0.3,1.5,0.4c0.6,0.1,1.1,0.2,1.7,0.2c0.9,0,1.6-0.1,2-0.4c0.4-0.3,0.7-0.7,0.7-1.4
				c0-0.4-0.1-0.8-0.4-1.1c-0.2-0.3-0.6-0.6-1.2-0.9c-0.5-0.3-1.2-0.6-2-1c-0.7-0.3-1.4-0.8-2-1.2c-0.6-0.5-1.1-1-1.5-1.7
				c-0.4-0.7-0.6-1.4-0.6-2.3c0-0.8,0.2-1.5,0.5-2.1c0.3-0.6,0.7-1.1,1.3-1.4c0.5-0.4,1.2-0.6,1.9-0.8s1.5-0.3,2.3-0.3
				c1.2,0,2.2,0.1,2.9,0.3c0.8,0.2,1.3,0.4,1.6,0.6l-0.6,2.7c-0.4-0.3-0.9-0.5-1.5-0.7c-0.6-0.2-1.4-0.3-2.2-0.3
				c-0.5,0-1,0.1-1.4,0.2c-0.4,0.1-0.7,0.3-0.9,0.6c-0.2,0.2-0.3,0.6-0.3,0.9c0,0.4,0.1,0.8,0.3,1.1c0.2,0.3,0.5,0.6,1,0.9
				s1.1,0.6,1.8,1c0.7,0.3,1.3,0.6,1.9,1c0.6,0.3,1.1,0.7,1.5,1.1c0.4,0.4,0.8,0.9,1,1.4c0.2,0.5,0.4,1.1,0.4,1.8
				c0,1-0.2,1.9-0.7,2.6c-0.5,0.7-1.2,1.3-2.1,1.7C358.6,144.4,357.5,144.6,356.2,144.6z"/>
			<path class="st1" d="M365.1,144.4v-17.1h10.4v2.7h-6.8v4.3h5.2v2.7h-5.2v4.7h7.6v2.8H365.1z"/>
			<path class="st1" d="M382.7,144.4l-0.5-1.6c0.6-0.4,1.3-0.9,2-1.4c0.7-0.6,1.4-1.2,2.1-1.8c0.7-0.7,1.3-1.4,1.8-2.1
				c0.6-0.7,1-1.5,1.3-2.3c0.3-0.8,0.5-1.6,0.5-2.4c0-0.9-0.2-1.6-0.7-2.1s-1.1-0.7-1.9-0.7c-0.8,0-1.5,0.1-2.2,0.4
				c-0.7,0.3-1.2,0.6-1.6,1l-1.2-2c0.3-0.3,0.7-0.6,1.2-1c0.5-0.3,1.1-0.6,1.9-0.9c0.7-0.2,1.6-0.4,2.6-0.4c1.3,0,2.4,0.2,3.2,0.7
				c0.8,0.5,1.4,1.1,1.8,2s0.5,1.7,0.5,2.7c0,1.1-0.3,2.3-0.8,3.4c-0.6,1.1-1.3,2.2-2.3,3.2c-1,1-2.1,1.9-3.4,2.8l7.2-0.3v2.9H382.7
				z"/>
		</g>
	</g>
	<g id="phase2a">
		<path class="st6" d="M348.8,15c-42.1,0-79.5,19.9-103.5,50.7c-17.3,22.2-27.6,50.1-27.6,80.5h55.3h0c0-41.9,34-75.8,75.8-75.8
			c41.9,0,75.8,34,75.8,75.8h0.1c0-30.3,10.3-58.2,27.6-80.4C428.4,34.8,390.9,15,348.8,15"/>
		<path class="st6" d="M424.8,146.1h-0.1c0,41.9-34,75.8-75.8,75.8c-41.9,0-75.8-34-75.8-75.8h0c0,30.3-10.3,58.2-27.6,80.5
			c24,30.8,61.4,50.7,103.5,50.7c42.1,0,79.6-19.9,103.6-50.7c17.3-22.2,27.6-50.1,27.6-80.4H424.8z"/>
	</g>
	<rect id="pr2" x="302.7" y="158.5" class="st3" width="86.1" height="24.3"/>
</g>
<g id="phase1">
	<ellipse id="p1" class="st0" cx="142.8" cy="146.8" rx="75.8" ry="78.4"/>
	<g>
		<g>
			<path class="st1" d="M101,144.4v-17.1h1.5c0.8,0,1.5,0,2.2-0.1c0.7-0.1,1.5-0.1,2.3-0.1c1.3,0,2.4,0.2,3.4,0.6
				c0.9,0.4,1.7,1,2.2,1.9c0.5,0.9,0.8,2,0.8,3.4c0,2-0.6,3.5-1.8,4.5c-1.2,1.1-2.9,1.6-5.1,1.6c-0.5,0-0.9,0-1.2,0
				c-0.3,0-0.6,0-0.8,0v5.3H101z M104.6,136.4c0.3,0,0.6,0.1,0.9,0.1c0.3,0,0.6,0,1,0c0.6,0,1.2-0.1,1.7-0.3s0.9-0.6,1.2-1.1
				c0.3-0.5,0.5-1.2,0.5-2.2c0-1.1-0.3-1.9-0.9-2.5s-1.4-0.8-2.6-0.8c-0.3,0-0.6,0-0.9,0c-0.3,0-0.6,0.1-0.9,0.1V136.4z"/>
			<path class="st1" d="M116,144.4v-17.1h3.6v7.1h6.7v-7.1h3.6v17.1h-3.6v-7.3h-6.7v7.3H116z"/>
			<path class="st1" d="M135.6,144.4h-3.8l6.2-17.2h3.9l6.2,17.2h-3.8l-3.8-12.1l-0.5-2l-0.5,2L135.6,144.4z M135.3,140.8l0.5-2.6
				h7.8l0.5,2.6H135.3z"/>
			<path class="st1" d="M154.5,144.6c-0.8,0-1.5-0.1-2.2-0.2c-0.7-0.1-1.3-0.3-1.8-0.4c-0.5-0.2-0.9-0.3-1.1-0.4l0.5-2.9
				c0.3,0.2,0.7,0.3,1.1,0.5c0.5,0.2,1,0.3,1.5,0.4c0.6,0.1,1.1,0.2,1.7,0.2c0.9,0,1.6-0.1,2-0.4c0.4-0.3,0.7-0.7,0.7-1.4
				c0-0.4-0.1-0.8-0.4-1.1c-0.2-0.3-0.6-0.6-1.2-0.9c-0.5-0.3-1.2-0.6-2-1c-0.7-0.3-1.4-0.8-2-1.2c-0.6-0.5-1.1-1-1.5-1.7
				c-0.4-0.7-0.6-1.4-0.6-2.3c0-0.8,0.2-1.5,0.5-2.1c0.3-0.6,0.7-1.1,1.3-1.4c0.5-0.4,1.2-0.6,1.9-0.8s1.5-0.3,2.3-0.3
				c1.2,0,2.2,0.1,2.9,0.3c0.8,0.2,1.3,0.4,1.6,0.6l-0.6,2.7c-0.4-0.3-0.9-0.5-1.5-0.7c-0.6-0.2-1.4-0.3-2.2-0.3
				c-0.5,0-1,0.1-1.4,0.2c-0.4,0.1-0.7,0.3-0.9,0.6c-0.2,0.2-0.3,0.6-0.3,0.9c0,0.4,0.1,0.8,0.3,1.1c0.2,0.3,0.5,0.6,1,0.9
				s1.1,0.6,1.8,1c0.7,0.3,1.3,0.6,1.9,1c0.6,0.3,1.1,0.7,1.5,1.1c0.4,0.4,0.8,0.9,1,1.4c0.2,0.5,0.4,1.1,0.4,1.8
				c0,1-0.2,1.9-0.7,2.6c-0.5,0.7-1.2,1.3-2.1,1.7C156.8,144.4,155.8,144.6,154.5,144.6z"/>
			<path class="st1" d="M163.4,144.4v-17.1h10.4v2.7h-6.8v4.3h5.2v2.7h-5.2v4.7h7.6v2.8H163.4z"/>
			<path class="st1" d="M183.5,144.4v-13.4c-0.4,0.1-0.9,0.2-1.3,0.3c-0.4,0.1-0.8,0.2-1.3,0.2l-0.3-2.1c0.4-0.1,0.8-0.2,1.2-0.4
				s0.9-0.4,1.4-0.6s0.9-0.4,1.3-0.7s0.7-0.4,0.9-0.6l1.7,0.2l0,17H183.5z"/>
		</g>
	</g>
	<path id="phase1a" class="st7" d="M141.8,221.9c-41.9,0-75.8-34-75.8-75.8c0-41.9,34-75.8,75.8-75.8s75.8,34,75.8,75.8
		C217.7,188,183.7,221.9,141.8,221.9 M217.7,146.1L217.7,146.1c0-30.3,10.3-58.2,27.6-80.5C221.4,34.8,183.9,15,141.8,15
		C69.4,15,10.7,73.7,10.7,146.1c0,72.4,58.7,131.1,131.1,131.1c42.1,0,79.5-19.9,103.5-50.7c17.3-22.2,27.6-50.1,27.6-80.5H217.7z"
		/>
	<rect id="pr1" x="101" y="158.5" class="st3" width="86.1" height="24.3"/>
</g>
</svg>
