<?xml version="1.0" encoding="utf-8"?>
<!-- Generator: Adobe Illustrator 26.5.0, SVG Export Plug-In . SVG Version: 6.00 Build 0)  -->
<svg version="1.1" id="Ebene_1" xmlns="http://www.w3.org/2000/svg" xmlns:xlink="http://www.w3.org/1999/xlink" x="0px" y="0px"
	 viewBox="0 0 69.4 69.4" style="enable-background:new 0 0 69.4 69.4;" xml:space="preserve">
<style type="text/css">
	.st0{fill:#1E3D61;}
</style>
<g>
	<g>
		<path class="st0" d="M34.7,4.7c16.6,0,30.1,13.5,30.1,30.1S51.3,64.9,34.7,64.9S4.6,51.4,4.6,34.8S18.1,4.7,34.7,4.7 M34.7,0
			C15.5,0,0,15.5,0,34.7s15.5,34.7,34.7,34.7s34.7-15.5,34.7-34.7S53.9,0,34.7,0L34.7,0z"/>
		<path class="st0" d="M22.5,19.2v31.2c0,2.1,2.3,3.5,4.1,2.4l26.7-15.6c1.8-1.1,1.8-3.7,0-4.8L26.7,16.8
			C24.8,15.7,22.5,17,22.5,19.2z"/>
	</g>
</g>
</svg>
