<?xml version="1.0" encoding="utf-8"?>
<!-- Generator: Adobe Illustrator 26.4.1, SVG Export Plug-In . SVG Version: 6.00 Build 0)  -->
<svg version="1.1" id="Ebene_1" xmlns="http://www.w3.org/2000/svg" xmlns:xlink="http://www.w3.org/1999/xlink" x="0px" y="0px"
	 viewBox="0 0 440 291" style="enable-background:new 0 0 440 291;" xml:space="preserve">
<style type="text/css">
	.st0{fill:#DAD8C7;}
	.st1{fill:#93C83D;}
	.st2{fill:#0D3E64;}
	.st3{fill:#E3633D;}
	.st4{fill:#314E7C;}
	.st5{fill:#1B3966;}
	.st6{fill:#4A291A;}
	.st7{fill:#CA5A35;}
	.st8{fill:#E6E5E5;}
	.st9{fill:#79A21E;}
	.st10{fill:#5E8017;}
	.st11{fill:#99C31D;}
	.st12{fill:#B9D478;}
	.st13{fill:#BE4248;}
	.st14{fill:#141D33;}
	.st15{fill:#883B24;}
	.st16{fill:#FFFFFF;}
	.st17{fill:#8C949B;}
</style>
<rect x="134.7" y="0" class="st0" width="303.9" height="284.4"/>
<g>
	<path d="M176.6,76.5c-1.4-0.3-2.8-0.6-4.3-1.1c-1-0.3-1.7-0.5-2.1-0.5l0.4-8.2h4.1l1.1,5.6c0.3,0.4,0.9,0.7,1.8,1
		c0.9,0.3,1.9,0.4,3.1,0.4c1.8,0,3.1-0.4,4-1.2s1.3-1.9,1.3-3.3c0-1-0.3-1.8-0.9-2.5c-0.6-0.7-1.4-1.4-2.4-2s-2.4-1.3-4.2-2.1
		c-2.3-1.1-4.3-2.4-5.9-4c-1.6-1.6-2.4-3.8-2.4-6.4c0-1.6,0.4-3.1,1.3-4.5c0.9-1.3,2.1-2.4,3.9-3.3c1.7-0.8,3.9-1.2,6.5-1.2
		c1.6,0,2.9,0.1,4.1,0.3c1.2,0.2,2.4,0.5,3.7,0.8c0.7,0.2,1.2,0.4,1.6,0.4l-0.3,7.8h-4l-1-5.4c-0.2-0.3-0.7-0.5-1.4-0.7
		s-1.5-0.3-2.4-0.3c-1.6,0-2.8,0.4-3.6,1.1c-0.8,0.8-1.2,1.7-1.2,2.9c0,1.1,0.3,2,1,2.8s1.5,1.5,2.4,2c1,0.5,2.4,1.3,4.4,2.3
		c1.6,0.8,2.9,1.5,4.1,2.3c1.2,0.8,2.1,1.8,3,3c0.8,1.2,1.2,2.7,1.2,4.3s-0.4,3.2-1.2,4.7s-2.1,2.7-4,3.7s-4.3,1.5-7.4,1.5
		C179.5,76.9,178,76.8,176.6,76.5z"/>
	<path d="M219.8,70.2c-1,2.1-2.5,3.7-4.5,4.9s-4.4,1.8-7.2,1.8c-0.5,0-1,0-1.5-0.1s-1-0.2-1.3-0.3l0.1,3.6v3.7l3.8,0.6v2.7h-13.5
		v-2.7l2.7-0.6V56.6l-2.7-0.8v-3.4l7.9-1h0.1l1.2,0.9v2.4c0.7-0.9,1.6-1.7,2.8-2.4s2.5-1,4-1c2.8,0,5.1,1,6.9,3c1.8,2,2.7,5,2.7,9.1
		C221.3,65.9,220.8,68.1,219.8,70.2z M207,55.9c-0.7,0.3-1.2,0.7-1.5,1.1v16.1c0.2,0.3,0.6,0.5,1.1,0.7s1.1,0.3,1.7,0.3
		c1.6,0,3-0.8,3.9-2.4c1-1.6,1.5-4.2,1.5-7.7c0-2.9-0.4-5-1.2-6.4s-1.9-2.1-3.3-2.1C208.4,55.4,207.7,55.6,207,55.9z"/>
	<path d="M224.7,73.6l2.7-0.4V56.7l-2.6-0.8v-3.5l7.3-1h0.1l1.2,0.9v1.1l-0.1,3.7h0.1c0.2-0.7,0.7-1.5,1.4-2.4
		c0.7-0.9,1.7-1.7,2.8-2.3c1.1-0.7,2.4-1,3.7-1c0.8,0,1.3,0.1,1.8,0.3v7.7c-0.5-0.4-1-0.6-1.5-0.8s-1.2-0.3-2.1-0.3
		c-1.1,0-2,0.1-2.9,0.4c-0.9,0.3-1.5,0.6-2,0.9v13.6l4.8,0.4v2.9h-14.7L224.7,73.6L224.7,73.6z"/>
	<path d="M249.1,63.5c2.6-1.4,6.1-2.1,10.4-2.1v-0.9c0-1.1-0.1-1.9-0.4-2.5c-0.2-0.6-0.7-1.1-1.3-1.4c-0.6-0.3-1.5-0.5-2.7-0.5
		c-1.4,0-2.7,0.2-3.8,0.5c-1.1,0.3-2.3,0.8-3.5,1.3l-1.5-3.2c0.5-0.4,1.2-0.8,2.3-1.4c1.1-0.5,2.3-1,3.8-1.4s3-0.6,4.6-0.6
		c2.3,0,4.2,0.3,5.5,0.9c1.3,0.6,2.3,1.6,2.9,2.9c0.6,1.3,0.9,3.1,0.9,5.3v13.1h2.3v2.8c-0.7,0.1-1.6,0.3-2.8,0.4s-2.2,0.2-3.1,0.2
		c-1.1,0-1.9-0.2-2.2-0.5c-0.4-0.3-0.5-1-0.5-1.9v-1c-0.7,0.9-1.7,1.7-2.9,2.4c-1.2,0.7-2.7,1-4.3,1c-1.4,0-2.6-0.3-3.8-0.9
		s-2-1.5-2.7-2.6s-1-2.5-1-4C245.1,66.8,246.4,64.9,249.1,63.5z M257.8,72.4c0.6-0.3,1.2-0.7,1.7-1.1v-7c-2.3,0-4,0.4-5.1,1.2
		s-1.7,1.9-1.7,3.2s0.3,2.3,0.9,3.1c0.6,0.7,1.4,1.1,2.4,1.1C256.5,72.9,257.1,72.7,257.8,72.4z"/>
	<path d="M271.9,57.5c1.1-2,2.5-3.5,4.4-4.6s4.1-1.6,6.6-1.6c1.2,0,2.3,0.1,3.2,0.2c0.9,0.2,1.8,0.4,2.8,0.7
		c0.8,0.2,1.4,0.4,1.6,0.4l-0.3,8h-4.4l-1.1-5.1c-0.1-0.4-0.3-0.7-0.7-0.8c-0.4-0.2-0.9-0.2-1.4-0.2c-1.4,0-2.5,0.7-3.2,2
		c-0.8,1.3-1.2,3.6-1.2,6.7c0,3,0.5,5.3,1.5,6.9c1,1.6,2.3,2.4,4,2.4c2.2,0,4.2-0.6,6-1.7l1.2,2.6c-0.7,0.8-1.9,1.6-3.5,2.3
		s-3.4,1.1-5.4,1.1c-3.8,0-6.7-1.1-8.6-3.4c-1.9-2.3-2.9-5.3-2.9-9.1C270.3,61.8,270.9,59.5,271.9,57.5z"/>
	<path d="M295.8,44.7l-3.1-0.6v-2.7l8.8-1.1h0.1l1.3,0.9v9.5l-0.4,3.9c0.9-0.8,2.1-1.6,3.6-2.3s3.1-1,4.9-1s3.3,0.3,4.3,1
		s1.7,1.7,2.2,3.1c0.4,1.4,0.6,3.2,0.6,5.5V73l2.7,0.4v2.9h-12.2v-2.9l2.3-0.4V61c0-2.1-0.2-3.5-0.7-4.3c-0.4-0.8-1.3-1.2-2.7-1.2
		c-0.8,0-1.6,0.2-2.5,0.5c-0.8,0.4-1.5,0.8-2.1,1.3v15.6l2.4,0.4v2.9h-12.1v-2.9l2.3-0.4V44.7H295.8z"/>
	<path d="M344.7,64.7h-18v-4.6h18V64.7z"/>
</g>
<g>
	<path d="M172.1,104.6l-2.6-0.8v-3.4l8-1h0.1l1.1,0.9v1.6v1c1-1,2.3-1.8,3.9-2.5s3.2-1,5-1s3.1,0.3,4.2,0.9c1,0.6,1.7,1.6,2.2,3
		s0.7,3.3,0.7,5.6V121l2.5,0.4v2.9h-12v-2.9l2.2-0.4v-12c0-1.4-0.1-2.5-0.3-3.3s-0.5-1.3-1-1.7s-1.1-0.5-2-0.5
		c-1.3,0-2.9,0.6-4.6,1.9V121l2.4,0.4v2.9h-12.2v-2.9l2.4-0.4L172.1,104.6L172.1,104.6z"/>
	<path d="M203.4,111.5c2.6-1.4,6.1-2.1,10.4-2.1v-0.9c0-1.1-0.1-1.9-0.4-2.5c-0.2-0.6-0.7-1.1-1.3-1.4c-0.6-0.3-1.5-0.5-2.7-0.5
		c-1.4,0-2.7,0.2-3.8,0.5s-2.3,0.8-3.5,1.3l-1.5-3.2c0.5-0.4,1.2-0.8,2.3-1.4c1.1-0.5,2.3-1,3.8-1.4s3-0.6,4.6-0.6
		c2.3,0,4.2,0.3,5.5,0.9c1.3,0.6,2.3,1.6,2.9,2.9c0.6,1.3,0.9,3.1,0.9,5.3v13.1h2.3v2.8c-0.7,0.1-1.6,0.3-2.8,0.4
		c-1.2,0.1-2.2,0.2-3.1,0.2c-1.1,0-1.9-0.2-2.2-0.5c-0.4-0.3-0.6-1-0.6-1.9v-1c-0.7,0.9-1.7,1.7-2.9,2.4c-1.2,0.7-2.7,1-4.3,1
		c-1.4,0-2.6-0.3-3.8-0.9c-1.1-0.6-2-1.5-2.7-2.6s-1-2.5-1-4C199.5,114.8,200.8,112.9,203.4,111.5z M212.1,120.4
		c0.6-0.3,1.2-0.7,1.7-1.1v-7c-2.3,0-4,0.4-5.1,1.2c-1.1,0.8-1.7,1.9-1.7,3.2c0,1.3,0.3,2.3,0.9,3.1c0.6,0.7,1.4,1.1,2.4,1.1
		C210.9,120.9,211.4,120.7,212.1,120.4z"/>
	<path d="M226.3,105.5c1.1-2,2.5-3.5,4.4-4.6s4.1-1.6,6.6-1.6c1.2,0,2.3,0.1,3.2,0.2c0.9,0.2,1.8,0.4,2.8,0.7
		c0.8,0.2,1.4,0.4,1.6,0.4l-0.3,8h-4.4l-1.1-5.1c-0.1-0.4-0.3-0.7-0.7-0.8s-0.9-0.2-1.4-0.2c-1.4,0-2.5,0.7-3.2,2
		c-0.8,1.3-1.2,3.6-1.2,6.7c0,3,0.5,5.3,1.5,6.9s2.3,2.4,4,2.4c2.2,0,4.2-0.6,6-1.7l1.2,2.6c-0.7,0.8-1.9,1.6-3.5,2.3
		s-3.4,1.1-5.4,1.1c-3.8,0-6.7-1.1-8.6-3.4s-2.9-5.3-2.9-9.1C224.7,109.8,225.2,107.5,226.3,105.5z"/>
	<path d="M250.1,92.7l-3.1-0.6v-2.7l8.8-1.1h0.1l1.3,0.9v9.5l-0.4,3.9c0.9-0.8,2.1-1.6,3.6-2.3s3.1-1,4.9-1s3.3,0.3,4.3,1
		s1.7,1.7,2.2,3.1c0.4,1.4,0.6,3.2,0.6,5.5V121l2.7,0.4v2.9h-12.2v-2.9l2.3-0.4v-12c0-2.1-0.2-3.5-0.7-4.3c-0.4-0.8-1.3-1.2-2.7-1.2
		c-0.8,0-1.6,0.2-2.5,0.5s-1.5,0.8-2.1,1.3v15.6l2.4,0.4v2.9h-12.1v-2.9l2.3-0.4V92.7H250.1z"/>
	<path d="M278,121.6l2.7-0.4v-16.5l-2.6-0.8v-3.5l7.3-1h0.1l1.2,0.9v1.1l-0.1,3.7h0.1c0.2-0.7,0.7-1.5,1.4-2.4s1.7-1.7,2.8-2.3
		c1.1-0.7,2.4-1,3.7-1c0.8,0,1.3,0.1,1.8,0.3v7.7c-0.5-0.4-1-0.6-1.5-0.8c-0.5-0.2-1.2-0.3-2.1-0.3c-1.1,0-2,0.1-2.9,0.4
		c-0.9,0.3-1.5,0.6-2,0.9v13.6l4.8,0.4v2.9H278L278,121.6L278,121.6z"/>
	<path d="M301.8,104.6l-2.9-0.8v-3.3l8.8-1.1h0.1l1.4,0.9v20.8l2.6,0.4v2.9h-12.7v-2.9l2.7-0.4V104.6z M301.7,95.2
		c-0.7-0.7-1.1-1.5-1.1-2.6c0-1.2,0.4-2.2,1.2-3s1.8-1.2,3.1-1.2c1.3,0,2.3,0.3,3,1s1.1,1.5,1.1,2.6c0,1.3-0.4,2.3-1.2,3.1
		c-0.8,0.8-1.9,1.2-3.3,1.2l0,0C303.3,96.2,302.4,95.9,301.7,95.2z"/>
	<path d="M315.8,105.5c1.1-2,2.5-3.5,4.4-4.6s4.1-1.6,6.6-1.6c1.2,0,2.3,0.1,3.2,0.2s1.8,0.4,2.8,0.7c0.9,0.2,1.4,0.4,1.6,0.4
		l-0.3,8h-4.4l-1.1-5.1c-0.1-0.4-0.3-0.7-0.7-0.8c-0.4-0.2-0.9-0.2-1.4-0.2c-1.4,0-2.5,0.7-3.2,2c-0.8,1.3-1.2,3.6-1.2,6.7
		c0,3,0.5,5.3,1.5,6.9s2.3,2.4,4,2.4c2.2,0,4.2-0.6,6-1.7l1.2,2.6c-0.7,0.8-1.9,1.6-3.5,2.3s-3.4,1.1-5.4,1.1
		c-3.8,0-6.7-1.1-8.6-3.4s-2.9-5.3-2.9-9.1C314.3,109.8,314.8,107.5,315.8,105.5z"/>
	<path d="M339.7,92.7l-3.1-0.6v-2.7l8.8-1.1h0.1l1.3,0.9v9.5l-0.4,3.9c0.9-0.8,2.1-1.6,3.6-2.3s3.1-1,4.9-1s3.3,0.3,4.3,1
		s1.7,1.7,2.2,3.1c0.4,1.4,0.6,3.2,0.6,5.5V121l2.7,0.4v2.9h-12.2v-2.9l2.3-0.4v-12c0-2.1-0.2-3.5-0.7-4.3c-0.4-0.8-1.3-1.2-2.7-1.2
		c-0.8,0-1.6,0.2-2.5,0.5c-0.8,0.4-1.5,0.8-2.1,1.3v15.6l2.4,0.4v2.9h-11.8v-2.9l2.3-0.4V92.7z"/>
	<path d="M370.7,123.5c-0.9-0.9-1.4-2.3-1.4-4.2v-15.7h-2.7V101l0.9-0.4c0.7-0.2,1.3-0.5,1.8-0.7c0.6-0.6,1.1-1.3,1.4-2.2
		c0.4-1.1,0.9-2.5,1.5-4.4h4.1l0.3,6.6h6.3v3.7h-6.2v11.8c0,1.6,0,2.7,0.1,3.4s0.3,1.1,0.5,1.3c0.2,0.2,0.7,0.3,1.4,0.3
		c1.4,0,2.7-0.2,3.9-0.7l0.9,2.8c-0.8,0.7-2,1.3-3.7,1.8c-1.6,0.5-3.2,0.7-4.9,0.7C373,124.9,371.6,124.4,370.7,123.5z"/>
</g>
<g>
	<path d="M172.1,169.5c-1.9-2.3-2.9-5.4-2.9-9.3c0-2.7,0.5-5,1.5-6.9s2.4-3.4,4.2-4.4s3.9-1.5,6.4-1.5c3.1,0,5.4,0.8,7.1,2.3
		s2.5,3.8,2.5,6.6c0,1.9-0.1,3.4-0.4,4.5h-13.8c0.1,2.5,0.8,4.4,1.8,5.7c1.1,1.3,2.6,2,4.5,2c1.1,0,2.2-0.2,3.4-0.5
		c1.2-0.4,2.1-0.8,2.9-1.3l1.2,2.7c-0.8,0.9-2.1,1.7-3.9,2.4c-1.8,0.8-3.7,1.1-5.6,1.1C177,173,174,171.8,172.1,169.5z M183.8,157.9
		v-1.8c0-1.8-0.2-3.3-0.7-4.2c-0.5-1-1.3-1.5-2.6-1.5c-1.2,0-2.2,0.5-2.9,1.6s-1,3-1.1,5.9H183.8z"/>
	<path d="M196.7,152.6l-2.9-0.8v-3.3l8.8-1.1h0.1l1.4,0.9v20.8l2.6,0.4v2.9H194v-2.9l2.7-0.4L196.7,152.6L196.7,152.6z M196.6,143.2
		c-0.7-0.7-1.1-1.5-1.1-2.6c0-1.2,0.4-2.2,1.2-3s1.8-1.2,3.1-1.2s2.3,0.3,3,1s1.1,1.5,1.1,2.6c0,1.3-0.4,2.3-1.2,3.1
		c-0.8,0.8-1.9,1.2-3.3,1.2l0,0C198.3,144.2,197.3,143.9,196.6,143.2z"/>
	<path d="M212.2,152.6l-2.6-0.8v-3.4l8-1h0.1l1.1,0.9v1.6v1c1-1,2.3-1.8,3.9-2.5s3.2-1,5-1s3.1,0.3,4.2,0.9c1,0.6,1.7,1.6,2.2,3
		s0.7,3.3,0.7,5.6V169l2.5,0.4v2.9h-12v-2.9l2.2-0.4v-12c0-1.4-0.1-2.5-0.3-3.3c-0.2-0.8-0.5-1.3-1-1.7c-0.5-0.4-1.1-0.5-2-0.5
		c-1.3,0-2.9,0.6-4.6,1.9V169l2.4,0.4v2.9h-12.2v-2.9l2.4-0.4L212.2,152.6L212.2,152.6z"/>
	<path d="M240.2,169.6l2.7-0.4v-16.5l-2.6-0.8v-3.5l7.3-1h0.1l1.2,0.9v1.1l-0.1,3.7h0.1c0.2-0.7,0.7-1.5,1.4-2.4s1.7-1.7,2.8-2.3
		c1.1-0.7,2.4-1,3.7-1c0.8,0,1.3,0.1,1.8,0.3v7.7c-0.5-0.4-1-0.6-1.5-0.8c-0.5-0.2-1.2-0.3-2.1-0.3c-1.1,0-2,0.1-2.9,0.4
		s-1.5,0.6-2,0.9v13.6l4.8,0.4v2.9h-14.7L240.2,169.6L240.2,169.6z"/>
	<path d="M263.7,169.5c-1.9-2.3-2.9-5.4-2.9-9.3c0-2.7,0.5-5,1.5-6.9s2.4-3.4,4.2-4.4c1.8-1,3.9-1.5,6.4-1.5c3.1,0,5.4,0.8,7.1,2.3
		s2.5,3.8,2.5,6.6c0,1.9-0.1,3.4-0.4,4.5h-13.8c0.1,2.5,0.8,4.4,1.8,5.7c1.1,1.3,2.6,2,4.5,2c1.1,0,2.2-0.2,3.4-0.5
		c1.2-0.4,2.1-0.8,2.9-1.3l1.2,2.7c-0.8,0.9-2.1,1.7-3.9,2.4c-1.8,0.8-3.7,1.1-5.6,1.1C268.6,173,265.6,171.8,263.7,169.5z
		 M275.4,157.9v-1.8c0-1.8-0.2-3.3-0.7-4.2c-0.5-1-1.3-1.5-2.6-1.5c-1.2,0-2.2,0.5-2.9,1.6c-0.7,1.1-1,3-1.1,5.9H275.4z"/>
	<path d="M288.3,152.6l-2.9-0.8v-3.3l8.8-1.1h0.1l1.4,0.9v20.8l2.6,0.4v2.9h-12.7v-2.9l2.7-0.4V152.6z M288.2,143.2
		c-0.7-0.7-1.1-1.5-1.1-2.6c0-1.2,0.4-2.2,1.2-3s1.8-1.2,3.1-1.2c1.3,0,2.3,0.3,3,1s1.1,1.5,1.1,2.6c0,1.3-0.4,2.3-1.2,3.1
		c-0.8,0.8-1.9,1.2-3.3,1.2l0,0C289.8,144.2,288.9,143.9,288.2,143.2z"/>
	<path d="M302.4,153.5c1.1-2,2.5-3.5,4.4-4.6s4.1-1.6,6.6-1.6c1.2,0,2.3,0.1,3.2,0.2s1.8,0.4,2.8,0.7c0.9,0.2,1.4,0.4,1.6,0.4
		l-0.3,8h-4.4l-1.1-5.1c-0.1-0.4-0.3-0.7-0.7-0.8c-0.4-0.2-0.9-0.2-1.4-0.2c-1.4,0-2.5,0.7-3.2,2c-0.8,1.3-1.2,3.6-1.2,6.7
		c0,3,0.5,5.3,1.5,6.9s2.3,2.4,4,2.4c2.2,0,4.2-0.6,6-1.7l1.2,2.6c-0.7,0.8-1.9,1.6-3.5,2.3s-3.4,1.1-5.4,1.1
		c-3.8,0-6.7-1.1-8.6-3.4s-2.9-5.3-2.9-9.1C300.8,157.8,301.3,155.5,302.4,153.5z"/>
	<path d="M326.3,140.7l-3.1-0.6v-2.7l8.8-1.1h0.1l1.3,0.9v9.5l-0.4,3.9c0.9-0.8,2.1-1.6,3.6-2.3s3.1-1,4.9-1s3.3,0.3,4.3,1
		s1.7,1.7,2.2,3.1c0.4,1.4,0.6,3.2,0.6,5.5V169l2.7,0.4v2.9h-12.2v-2.9l2.3-0.4v-12c0-2.1-0.2-3.5-0.7-4.3c-0.4-0.8-1.3-1.2-2.7-1.2
		c-0.8,0-1.6,0.2-2.5,0.5c-0.8,0.4-1.5,0.8-2.1,1.3v15.6l2.4,0.4v2.9h-12.1v-2.9l2.3-0.4v-28.2H326.3z"/>
	<path d="M356.5,169.5c-1.9-2.3-2.9-5.4-2.9-9.3c0-2.7,0.5-5,1.5-6.9s2.4-3.4,4.2-4.4c1.8-1,3.9-1.5,6.4-1.5c3.1,0,5.4,0.8,7.1,2.3
		c1.6,1.6,2.5,3.8,2.5,6.6c0,1.9-0.1,3.4-0.4,4.5h-13.8c0.1,2.5,0.8,4.4,1.8,5.7c1.1,1.3,2.6,2,4.5,2c1.1,0,2.2-0.2,3.4-0.5
		c1.2-0.4,2.1-0.8,2.9-1.3l1.2,2.7c-0.8,0.9-2.1,1.7-3.9,2.4s-3.7,1.1-5.6,1.1C361.4,173,358.4,171.8,356.5,169.5z M368.2,157.9
		v-1.8c0-1.8-0.2-3.3-0.7-4.2s-1.3-1.5-2.6-1.5c-1.2,0-2.2,0.5-2.9,1.6c-0.7,1.1-1,3-1.1,5.9H368.2z"/>
	<path d="M380.9,152.6l-2.6-0.8v-3.4l8-1h0.1l1.1,0.9v1.6v1c1-1,2.3-1.8,3.9-2.5s3.2-1,5-1s3.1,0.3,4.2,0.9s1.7,1.6,2.2,3
		s0.7,3.3,0.7,5.6V169l2.5,0.4v2.9h-12v-2.9l2.2-0.4v-12c0-1.4-0.1-2.5-0.3-3.3c-0.2-0.8-0.5-1.3-1-1.7c-0.5-0.4-1.1-0.5-2-0.5
		c-1.3,0-2.9,0.6-4.6,1.9V169l2.4,0.4v2.9h-12.2v-2.9l2.4-0.4L380.9,152.6L380.9,152.6z"/>
</g>
<rect id="btn_x5F_audio_x5F_start" x="167.8" y="202.3" class="st1" width="237" height="47.4"/>
<g>
	<path class="st2" d="M223.5,234.8c0.5-0.5,0.9-1.1,1.1-1.8c0.2-0.5,0.3-1.1,0.4-1.8s0.1-1.7,0.1-2.9v-10.1l-2-0.3v-1.4h7v1.4
		l-1.8,0.3v8.6c0,1.6,0,2.8-0.1,3.6c0,0.9-0.1,1.5-0.2,2.1c-0.3,1.2-0.9,2.2-1.9,3s-2.1,1.3-3.5,1.5l-0.7-1.1
		C222.4,235.6,223,235.3,223.5,234.8z"/>
	<path class="st2" d="M232.7,231.4c-0.9-1.1-1.4-2.7-1.4-4.7c0-1.3,0.2-2.5,0.7-3.4s1.2-1.7,2.1-2.2s1.9-0.8,3.1-0.8
		c1.5,0,2.6,0.4,3.4,1.2c0.8,0.8,1.2,1.9,1.2,3.3c0,1-0.1,1.7-0.2,2.2h-7.1c0.1,1.3,0.4,2.4,0.9,3.1c0.6,0.7,1.4,1.1,2.4,1.1
		c0.6,0,1.2-0.1,1.8-0.3c0.6-0.2,1.1-0.4,1.4-0.7l0.5,1.2c-0.4,0.4-1,0.8-1.9,1.2c-0.9,0.4-1.8,0.5-2.7,0.5
		C235.1,233.1,233.7,232.5,232.7,231.4z M238.8,225.6c0-0.4,0-0.7,0-0.9c0-2-0.7-2.9-2-2.9c-0.7,0-1.3,0.3-1.7,0.9
		c-0.4,0.6-0.6,1.6-0.7,3h4.4V225.6z"/>
	<path class="st2" d="M245.1,232.4c-0.4-0.4-0.7-1.1-0.7-2v-8.1H243v-1.1c0.1,0,0.3-0.1,0.6-0.2c0.3-0.1,0.5-0.2,0.7-0.3
		c0.2-0.2,0.5-0.5,0.6-1c0.1-0.3,0.4-1.1,0.7-2.3h1.8l0.1,3.2h3.4v1.7h-3.3v6.2c0,0.8,0,1.4,0.1,1.7c0,0.3,0.1,0.6,0.3,0.6
		s0.4,0.1,0.8,0.1s0.7,0,1.1-0.1s0.7-0.2,1-0.3l0.4,1.2c-0.4,0.3-1,0.6-1.8,0.8s-1.6,0.4-2.3,0.4C246.2,233,245.5,232.8,245.1,232.4
		z"/>
	<path class="st2" d="M254.6,222.2l-0.5,2.2h-1.6v-3.7h9.7l0.5,1.1l-5.9,8.1l-1.5,1.6l4.9-0.2l1.1-2.5l1.5,0.2l-0.4,4h-10.2
		l-0.5-1.2l6-7.9l1.6-1.6L254.6,222.2z"/>
	<path class="st2" d="M265.9,232.4c-0.4-0.4-0.7-1.1-0.7-2v-8.1h-1.4v-1.1c0.1,0,0.3-0.1,0.6-0.2c0.3-0.1,0.5-0.2,0.7-0.3
		c0.2-0.2,0.5-0.5,0.6-1c0.1-0.3,0.4-1.1,0.7-2.3h1.8l0.1,3.2h3.4v1.7h-3.3v6.2c0,0.8,0,1.4,0.1,1.7c0,0.3,0.1,0.6,0.3,0.6
		c0.1,0.1,0.4,0.1,0.8,0.1s0.7,0,1.1-0.1s0.7-0.2,1-0.3l0.4,1.2c-0.4,0.3-1,0.6-1.8,0.8s-1.6,0.4-2.3,0.4
		C267,233,266.3,232.8,265.9,232.4z"/>
	<path class="st2" d="M280.5,231c0.1,0.2,0.4,0.3,0.8,0.5s0.8,0.2,1.3,0.2c0.7,0,1.2-0.1,1.6-0.4s0.5-0.7,0.5-1.1
		c0-0.5-0.2-0.9-0.6-1.2c-0.4-0.3-1.1-0.7-2.2-1.1l-0.6-0.3c-1-0.4-1.8-0.9-2.3-1.5s-0.7-1.4-0.7-2.3c0-0.7,0.2-1.2,0.6-1.8
		c0.4-0.5,1-0.9,1.7-1.2c0.7-0.3,1.5-0.4,2.5-0.4c0.7,0,1.3,0,1.8,0.1s1,0.2,1.6,0.4c0.3,0.1,0.5,0.2,0.7,0.2v2.9h-1.7l-0.5-1.7
		c-0.1-0.1-0.3-0.3-0.6-0.4c-0.3-0.1-0.7-0.2-1.1-0.2c-0.6,0-1.1,0.1-1.4,0.4c-0.4,0.3-0.5,0.6-0.5,1.1c0,0.4,0.1,0.8,0.4,1
		c0.2,0.3,0.5,0.5,0.8,0.6s0.8,0.4,1.6,0.7c0.8,0.3,1.4,0.7,2,1c0.5,0.3,1,0.7,1.3,1.2s0.5,1.1,0.5,1.8c0,1.1-0.4,2-1.3,2.6
		c-0.9,0.7-2.1,1-3.7,1c-0.7,0-1.4-0.1-2-0.2s-1.3-0.3-2.1-0.5l-0.5-0.2v-2.9h1.8L280.5,231z"/>
	<path class="st2" d="M290.9,232.4c-0.4-0.4-0.7-1.1-0.7-2v-8.1h-1.4v-1.1c0.1,0,0.3-0.1,0.6-0.2c0.3-0.1,0.5-0.2,0.7-0.3
		c0.2-0.2,0.5-0.5,0.6-1c0.1-0.3,0.4-1.1,0.7-2.3h1.8l0.1,3.2h3.4v1.7h-3.3v6.2c0,0.8,0,1.4,0.1,1.7c0,0.3,0.1,0.6,0.3,0.6
		s0.4,0.1,0.8,0.1s0.7,0,1.1-0.1s0.7-0.2,1-0.3l0.4,1.2c-0.4,0.3-1,0.6-1.8,0.8s-1.6,0.4-2.3,0.4C292,233,291.3,232.8,290.9,232.4z"
		/>
	<path class="st2" d="M299.8,226.4c1.3-0.7,3.1-1,5.2-1v-0.5c0-0.6-0.1-1.1-0.2-1.4s-0.4-0.6-0.7-0.8c-0.3-0.2-0.8-0.3-1.4-0.3
		c-0.7,0-1.4,0.1-1.9,0.3c-0.6,0.2-1.2,0.4-1.8,0.7l-0.7-1.4c0.2-0.2,0.6-0.4,1.1-0.7c0.5-0.3,1.1-0.5,1.9-0.7s1.5-0.3,2.2-0.3
		c1.1,0,2,0.1,2.7,0.4c0.6,0.3,1.1,0.8,1.4,1.4s0.4,1.5,0.4,2.6v6.7h1.2v1.2c-0.3,0.1-0.7,0.1-1.3,0.2c-0.5,0.1-1,0.1-1.4,0.1
		c-0.5,0-0.8-0.1-1-0.2s-0.3-0.4-0.3-0.9v-0.4c-0.4,0.4-0.9,0.8-1.5,1.2c-0.6,0.4-1.3,0.5-2.1,0.5c-0.7,0-1.3-0.1-1.9-0.4
		s-1-0.7-1.4-1.3c-0.3-0.5-0.5-1.2-0.5-2C297.8,228.1,298.4,227.1,299.8,226.4z M303.9,231c0.4-0.2,0.7-0.4,1-0.7v-3.6
		c-1.3,0-2.3,0.2-3,0.7s-1,1-1,1.7s0.2,1.2,0.5,1.6s0.8,0.5,1.4,0.5C303.2,231.2,303.5,231.2,303.9,231z"/>
	<path class="st2" d="M310.2,231.5l1.5-0.2v-8.7l-1.4-0.4v-1.5l3.4-0.5h0.1l0.5,0.4v0.5l-0.1,1.8h0.1c0.1-0.3,0.3-0.7,0.7-1.1
		c0.4-0.4,0.9-0.8,1.4-1.1c0.6-0.3,1.2-0.5,1.9-0.5c0.3,0,0.6,0,0.8,0.1v3.3c-0.4-0.3-1-0.5-1.6-0.5c-1.1,0-2,0.3-2.8,0.9v7.2
		l2.6,0.2v1.3h-7.1V231.5z"/>
	<path class="st2" d="M322,232.4c-0.4-0.4-0.7-1.1-0.7-2v-8.1h-1.4v-1.1c0.1,0,0.3-0.1,0.6-0.2c0.3-0.1,0.5-0.2,0.7-0.3
		c0.2-0.2,0.5-0.5,0.6-1c0.1-0.3,0.4-1.1,0.7-2.3h1.8l0.1,3.2h3.4v1.7h-3.3v6.2c0,0.8,0,1.4,0.1,1.7c0,0.3,0.1,0.6,0.3,0.6
		s0.4,0.1,0.8,0.1s0.7,0,1.1-0.1s0.7-0.2,1-0.3l0.4,1.2c-0.4,0.3-1,0.6-1.8,0.8s-1.6,0.4-2.3,0.4C323.1,233,322.5,232.8,322,232.4z"
		/>
	<path class="st2" d="M330.4,231.4c-0.9-1.1-1.4-2.7-1.4-4.7c0-1.3,0.2-2.5,0.7-3.4c0.5-1,1.2-1.7,2.1-2.2s1.9-0.8,3.1-0.8
		c1.5,0,2.6,0.4,3.4,1.2c0.8,0.8,1.2,1.9,1.2,3.3c0,1-0.1,1.7-0.2,2.2h-7.2c0.1,1.3,0.4,2.4,0.9,3.1c0.6,0.7,1.4,1.1,2.4,1.1
		c0.6,0,1.2-0.1,1.8-0.3s1.1-0.4,1.4-0.7l0.6,1.2c-0.4,0.4-1,0.8-1.9,1.2c-0.9,0.4-1.8,0.5-2.7,0.5
		C332.8,233.1,331.3,232.5,330.4,231.4z M336.4,225.6c0-0.4,0-0.7,0-0.9c0-2-0.7-2.9-2-2.9c-0.7,0-1.3,0.3-1.7,0.9
		c-0.4,0.6-0.6,1.6-0.7,3h4.4V225.6z"/>
	<path class="st2" d="M342.3,222.7l-1.4-0.4v-1.5l3.7-0.5h0.1l0.5,0.4v0.9v0.5c0.5-0.5,1.2-0.9,2-1.3s1.7-0.5,2.5-0.5
		c0.9,0,1.6,0.2,2.1,0.5s0.9,0.8,1.1,1.6c0.2,0.7,0.3,1.7,0.3,2.9v6.1l1.3,0.2v1.3h-5.7v-1.3l1.2-0.2v-6.1c0-0.8-0.1-1.4-0.2-1.8
		s-0.3-0.7-0.6-0.9c-0.3-0.2-0.7-0.3-1.2-0.3c-0.8,0-1.7,0.4-2.7,1.1v8l1.3,0.2v1.3h-5.7v-1.3l1.3-0.2v-8.7H342.3z"/>
	<path class="st2" d="M359.6,227.3h-1.9l-0.8-14h3.5L359.6,227.3z M357.5,230.1c0.4-0.4,0.9-0.5,1.4-0.5s1,0.2,1.3,0.5
		s0.5,0.7,0.5,1.2c0,0.6-0.2,1-0.6,1.3s-0.9,0.5-1.5,0.5c-0.5,0-0.9-0.2-1.2-0.5c-0.3-0.3-0.5-0.7-0.5-1.2
		C356.9,230.8,357.1,230.4,357.5,230.1z"/>
</g>
<g>
	<path class="st3" d="M114.9,275c0,0,6.4-42.7-1.9-59.6l4.5-57.9l-27,1.9l18.2,116L114.9,275z"/>
	<path class="st4" d="M88.7,168.4l6.2,49l8.2,49.2h19.8c0,0-1.8-8.5-1.6-11.3c0.2-2.7,0.9-28.4-5.1-40.3l0.5-48.2L88.7,168.4z"/>
	<path class="st5" d="M116.3,215.1l0.5-48.2l-9.4,0.5l-0.3,35.3c-0.1,6.6,0.8,13.2,2.5,19.7c3.2,12.8,2.7,30.7,2.5,33
		c-0.2,2.7,1.6,11.3,1.6,11.3h9.4c0,0-1.8-8.5-1.6-11.3C121.6,252.7,122.4,226.9,116.3,215.1"/>
	<path class="st3" d="M150.7,208.7l26.6-8.2c2.3-4.3,0.1-5.9-4.3-5.4c-18.9,1.8-29.6-2.9-47.9,9.2L150.7,208.7z"/>
	<path class="st6" d="M176.6,200.7l5.9,2.3c1.3,0.3,5.9,4,5.9,4c1.2-0.2,1.1-1.4,0.7-2.3l-9.7-13.5c0,0-2.8-2.7-6.5,4.1
		C175.6,197,177.9,198.8,176.6,200.7"/>
	<path class="st4" d="M114.5,157.3c0,0,1.8,32.7,2.2,44.8c0.1,2.8,1.3,8.5,3.4,10.4c6,5.3,46.4-5.6,46.4-5.6s-1.6-8.7,0-13.5
		c-22.1-2.9-22.7,6.3-31.7,1.6l4.5-33.4L114.5,157.3z"/>
	<path class="st6" d="M108.2,273.4l-4.9,4.1c-0.9,1-6.6,3-6.6,3c-0.4,1.3,0.9,1.9,2,2.1l16.6-0.4c0,0,5.2-0.9,0.1-8.8
		C112.3,274.8,109.5,275.9,108.2,273.4"/>
	<path class="st4" d="M129.2,128.8l-36.9,2.8c-6,2.2-3.6,36.8-3.6,36.8l24.3,1.1c11.3-0.2,24.6,8.6,26-10.2
		C140.6,137.9,129.2,128.8,129.2,128.8"/>
	<path class="st5" d="M139.3,161.6c0,0-24.5,2.6-32.4-8.1l32.3-8C139.1,145.6,139.8,158.9,139.3,161.6"/>
	<path class="st7" d="M75.3,104.8c-7-8.2-9.2-11.7-16-20.1l-7.4,0.8C63,104.4,63.2,112,71.3,116.8C80.6,113.6,76.5,107.1,75.3,104.8
		"/>
	<path class="st7" d="M59.3,84.7l-4-3.7c-0.8-0.7-1.8-1.2-2.9-1.2L48,79.7c-1.5,0-2.6,1.4-2.1,2.9l5.3,4.3c1.2,1,2.8,1.5,4.4,1.4
		h2.8L59.3,84.7z"/>
	<path class="st8" d="M54.2,90.9l7.2-4.9l13.4,15.9l23-14.6c0,0,2.5-1.5,4.7-1.8s-7.1,19.7-7.1,19.7l-17.3,12.4
		c0,0-7.7,4.7-11.6-2.8S54.2,90.9,54.2,90.9"/>
	<path class="st9" d="M67.8,63.5l-0.9-0.4c1.3,1.5,1.8,3.6,1.1,5.6c-0.7,2.2-2.6,3.6-4.7,3.9l1.3,0.4c2.6,0.9,5.5-0.6,6.3-3.2
		C71.9,67.2,70.5,64.4,67.8,63.5"/>
	<path class="st10" d="M42.8,93.1l0.5,0.2c2.1,0.9,4.6-0.1,5.4-2.3l7.5-18.3c0.9-2.1-0.1-4.6-2.3-5.4l-0.5-0.2
		c-2.1-0.9-4.6,0.1-5.4,2.3l-7.5,18.3C39.7,89.8,40.7,92.3,42.8,93.1"/>
	<path class="st11" d="M38.4,69l19.2,5c4.4,1.4,9.1-1,10.5-5.4s-1-9.1-5.4-10.5l-18.9-8.3C43.5,49.8,38,68.9,38.4,69"/>
	<path class="st9" d="M60.7,69.6l-19-4.9c-0.7,2.5-2.6,4-2.6,4l19.1,5c4.1,1.3,8.5-0.7,10.2-4.6C66.2,70.2,63.4,70.5,60.7,69.6"/>
	<path class="st12" d="M63.4,58.4l-1.5-0.6c2.1,2.5,2.9,6,1.9,9.3c-1.2,3.6-4.2,6-7.8,6.6l2.2,0.6c4.4,1.4,9.1-1,10.5-5.4
		C70.2,64.5,67.8,59.8,63.4,58.4"/>
	<path class="st11" d="M33.3,31.2l14.3,20.3c0.5,5.2-1.7,13.8-5.4,18.3l-24.1,8.5c-0.6,0.3-1.3-0.3-1.1-1l14.8-45.9
		C32,30.7,32.9,30.6,33.3,31.2"/>
	<path class="st9" d="M15.2,51.4c-4.3,13.2-3.4,25.4,1.9,27.1c5.3,1.7,13.2-7.6,17.5-20.8s3.4-25.4-1.9-27.1S19.5,38.1,15.2,51.4"/>
	<path class="st9" d="M16.2,52.6c-3.9,12.2-3.4,23.2,1.3,24.7c4.6,1.5,11.6-7.1,15.6-19.3c3.9-12.2,3.4-23.2-1.3-24.7
		C27.1,31.8,20.1,40.4,16.2,52.6"/>
	<path class="st10" d="M35.1,49.4c-0.6-0.8-1.6-1.5-3.1-2.1c-3.1-1.3-7.2,2.2-9.1,7.4c-1.8,5.2-0.6,10,2.4,11.4
		c1.6,0.8,2.9,0.9,4,0.6c1.5-2.8,2.9-6.1,4-9.7C34.1,54.4,34.7,51.9,35.1,49.4"/>
	<path class="st10" d="M31.7,33.3c-3.8-1.2-9.1,4.3-13.1,13c3.8-2.9,9.3-4,16.6,2.2C36.3,40.5,35.1,34.4,31.7,33.3"/>
	<path class="st12" d="M32.2,73.3c4.4-3.7,10.5-20.2,9-30.7l2.8,3.9c1.2,1.6-0.8,19.3-7.1,25.1L32.2,73.3z"/>
	<path class="st10" d="M62,70c-1.5,1.7-3.5,2.8-5.8,3.1l1,0.3c1.9-0.6,3.7-1.7,5-3.4C62.2,70,62.1,70,62,70"/>
	<path class="st9" d="M68.7,69.1c-1.4,0.7-3,1.1-4.6,1.1c-0.6,0-1.2-0.1-1.8-0.2c-1.3,1.6-3,2.8-5,3.4l1.1,0.3h0.1
		c0.9,0.3,1.7,0.4,2.6,0.4C64.3,74.1,67.3,72.2,68.7,69.1"/>
	<path class="st13" d="M37.8,63.7c-0.7,1.8-1.5,3.5-2.2,4.9l0,0C36.3,67.1,37.1,65.5,37.8,63.7z"/>
	<path class="st9" d="M37.8,63.7c-0.7,1.8-1.5,3.5-2.2,4.9l3.4,0.6c0.9-1.3,1.6-2.9,2.3-4.6L37.8,63.7z"/>
	<path class="st14" d="M159.6,85.3c-0.7-1.4-0.6-3-0.1-4.4c4.5-11.5-12-14.5-17.2-16.5c-5.4-2.1-2.1-11.3-12.6-12
		s-12.2,5.2-12.7,5.1c-0.7,0,3.6,9,3.6,9s5.2,0.3,7.6,9.9c2.4,9.6,1.2,15.3,9.1,21.2c7.9,6,28.8-9.9,28.8-9.9
		C162.3,88.7,160.5,87,159.6,85.3"/>
	<path class="st8" d="M102.4,85.6l13.8-1.6l3.8,0.1l14.4,5c4.8,2.4,7.1,8,5.2,13.1l-3.5,16.4c3.7,12.4,5.7,21.1,5,33.9
		c-20.4,7.6-48.4,7.2-54.8-2.2C87.4,124.8,92.5,102,102.4,85.6"/>
	<path class="st7" d="M108.8,73.2c0,0,1.1,8.3,2,15.2c0.2,1.8,1.5,3.4,3.2,4.1c1.7,0.7,3.6,0.4,5.1-0.8c0.5-0.4,0.9-0.8,1.4-1.1
		c2-1.6,2.8-4.2,2.2-6.7c-1.5-6.3-4.3-17.9-4.3-17.9L108.8,73.2z"/>
</g>
<polygon class="st15" points="109.6,79 110.3,82.3 113,79 "/>
<g>
	<path class="st7" d="M108.7,84.9c0,0-4.5,11.2,3.2,11.7s11.9-11.1,11.9-11.1l-5.6-2.5L108.7,84.9z"/>
	<path class="st7" d="M123.5,66.4c1-2.2,0-4.9-2.2-5.9c-2.4-1.1-5.4-2.4-7.7-3.5c-2.2-1-4.5,0.2-5.9,2.2c-1.6,2.4-3.6,8.1-4.6,12.3
		c-0.6,2.4,0.3,5.2,2.5,6.2c2.4,1.1,10.5,2,13.1-2C120.7,72.8,122,69.8,123.5,66.4"/>
	<path class="st14" d="M130.8,71.1c0,0-0.3-5.2-2.9-9.6c-3.5-5.9-9.2-10.2-17.8-6.2c0,0,1.5,8.1,11.6,18.2c2.3,2.3,6.2,2,8-0.7
		L130.8,71.1z"/>
	<path class="st7" d="M122,76.5c-1.4,1.5-3.5,1.7-4.7,0.5s-1-3.3,0.4-4.7c1.4-1.5,3.5-1.7,4.7-0.5C123.6,72.9,123.4,75,122,76.5"/>
	<path class="st16" d="M104.8,70.3l3.9,1.7c0,0-1.2,2.7-3,1.6C103.9,72.6,104.8,70.3,104.8,70.3"/>
	<path class="st17" d="M121,54.4L121,54.4c0.1,0,1.4,0.1,2.7,1.1s2.6,2.8,2.7,6.5c0,0.2,0.2,0.3,0.3,0.3c0.2,0,0.3-0.2,0.3-0.3
		c-0.1-1.9-0.5-3.4-1.1-4.6c-0.9-1.7-2.1-2.6-3.1-3.1s-1.8-0.5-1.8-0.5c-0.2,0-0.3,0.1-0.3,0.3C120.7,54.3,120.9,54.4,121,54.4"/>
	<path class="st7" d="M149.4,83.1c5.3,0.3,7.5-1.5,8.5-7.5l1.1-30.9l-5.7,2.5l-2.7,22.3L149.4,83.1z"/>
	<path class="st7" d="M153.3,47.2L155,42c0.3-1,1-1.9,2-2.5l3.8-2.3c1.3-0.8,3,0,3.3,1.5l-2.5,6.4c-0.5,1.4-1.7,2.6-3.1,3.5L156,50
		L153.3,47.2z"/>
	<path class="st8" d="M151.7,48.8l9.3,1.7c0,0-2.3,28.3-2.5,30.7s-2.2,5.7-6.6,9.3c-3.8,3-18.3,15.6-18.3,15.6s-20-6.4-10.4-13
		c10.4-7.2,22.2-15.7,22.2-15.7L151.7,48.8z"/>
</g>
</svg>
