<?xml version="1.0" encoding="utf-8"?>
<!-- Generator: Adobe Illustrator 26.0.3, SVG Export Plug-In . SVG Version: 6.00 Build 0)  -->
<svg version="1.1" xmlns="http://www.w3.org/2000/svg" xmlns:xlink="http://www.w3.org/1999/xlink" x="0px" y="0px"
	 viewBox="0 0 400 400" style="enable-background:new 0 0 400 400;" xml:space="preserve">
<style type="text/css">
	.st0{fill:#AEDBF0;}
	.st1{fill:#CDFCF8;}
	.st2{fill:#587904;}
	.st3{fill:#B0B723;}
	.st4{fill:#DDF264;}
	.st5{fill:#663A2F;}
	.st6{fill:#668408;}
	.st7{opacity:0.6;}
	.st8{fill:#3B5605;}
	.st9{opacity:0.5;}
	.st10{fill:#66842C;}
	.st11{fill:#4F4F4F;}
	.st12{opacity:0.5;fill:#4F4F4F;}
	.st13{fill:#898989;}
	.st14{fill:#F5D85A;}
	.st15{fill:#FFFFFF;}
	.st16{fill:#4A4951;}
	.st17{fill:#33323A;}
	.st18{fill:#C17B4C;}
	.st19{fill:#EE744A;}
	.st20{fill:#402D7F;}
	.st21{fill:#9AB8BD;}
	.st22{fill:#1A244A;}
	.st23{fill:#3558A5;}
	.st24{fill:#7E94CB;}
	.st25{fill:#5B72B6;}
	.st26{fill:#B5C9E9;}
	.st27{fill:#24255A;}
	.st28{fill:#F39463;}
	.st29{fill:#EF764B;}
	.st30{fill:#292A85;}
	.st31{fill:#98ABD8;}
	.st32{fill:#1D0A05;}
	.st33{fill:#4C72B8;}
	.st34{fill:#354E81;}
	.st35{fill:#9492A4;}
	.st36{fill:#23171F;}
	.st37{fill:#E09379;}
	.st38{fill:#CCCAD6;}
	.st39{fill:#304270;}
	.st40{fill:#B97668;}
	.st41{fill:#803008;}
	.st42{fill:#DC7A64;}
	.st43{fill:#983C0F;}
	.st44{fill:#E7A088;}
	.st45{fill:#ED6E59;}
	.st46{fill:#1E0200;}
	.st47{fill:#E94839;}
	.st48{fill:#EF7B73;}
	.st49{fill:#F4A290;}
	.st50{fill:#EE7359;}
	.st51{fill:#B75541;}
	.st52{fill:#BECFEC;}
	.st53{fill:#32528A;}
	.st54{fill:#8AAEDD;}
	.st55{fill:#134454;}
	.st56{fill:#436EB5;}
	.st57{fill:#64C7EF;}
	.st58{fill:#F4A292;}
	.st59{fill:#BA4737;}
	.st60{fill:#A34B3D;}
	.st61{fill:#3B8F7B;}
	.st62{fill:#DF5038;}
	.st63{fill:#54BAA3;}
	.st64{fill:#042A32;}
</style>
<g id="Ebene_2">
	<path class="st0" d="M74.31,194.44v16.94h325.74v-16.94h-17.32v-8.97h-3.75v-12.95h-8.96v5.98h-1.92v-13.62h-11.13v2.66h-8.31
		v23.56h-2.7l-0.06-3.84l0.3-0.75l-0.3-0.05l-0.05-0.9l0.95-1l-0.95,0.05v-0.7l-0.5-0.35l0.3-0.75v-1.1l-0.35,0.2l-0.3,0.5
		l-0.45,0.6l-0.05-0.5l0.25-0.3l-0.8-0.85l-0.1-2.81l0.7-0.75l-0.85-0.05l-0.15-0.65v-0.3l-0.75-0.05l-0.3-0.25l-0.05,0.35
		l-1.35-0.05l-0.2-0.4l-0.15,0.45l-1.4-0.1l-0.1-0.35l-0.3,0.45l-1.25-0.05l-0.35-0.35l-0.25,0.3h-0.9l-0.9,1l0.05,0.4l-0.7,0.8
		l0.55,0.35v2.15l-0.85-0.15l-0.5-0.15v0.25h-1l-0.5-0.3l-0.15,0.35l-0.5,0.15l-1.1,1.45l-0.65,0.1l-0.1-0.65l-0.15-0.35l-0.3,0.2
		l-0.1,0.8h-2.46l-0.1-0.6l-0.45-0.4v0.3l-0.15,0.65l-0.05,0.15l-2.41,0.05l-0.05-0.3v-0.55l-0.25-0.2l-0.15,0.3l-0.15,0.65
		l-2.41,0.05l-0.4-1.1l0.35-0.7l-0.35-0.25l-0.4-0.8l0.3-0.55l-0.45-0.3l-0.2-0.65l-0.1-1.2l0.4-0.3l-0.45-0.15v-0.55h-0.3
		c0,0,0.3-0.6-0.15-0.6c-0.45,0-0.1,0.65-0.1,0.65l-0.4,0.05l-0.05,0.5l-0.4,0.1l0.35,0.3l-0.1,0.65c0,0-2.32-4.06-7.44-4.77v-0.04
		c-0.05,0.01-0.09,0.01-0.14,0.02c-0.05-0.01-0.09-0.01-0.14-0.02v0.04c-5.12,0.72-7.76,4.77-7.76,4.77l-0.1-0.65l0.35-0.3l-0.4-0.1
		l-0.05-0.5l-0.4-0.05c0,0,0.35-0.65-0.1-0.65c-0.45,0-0.15,0.6-0.15,0.6h-0.3v0.55l-0.45,0.15l0.4,0.3l-0.1,1.2l-0.2,0.65
		l-0.45,0.3l0.3,0.55l-0.4,0.8l-0.35,0.25l0.35,0.7l-0.4,1.1l-2.41-0.05l-0.15-0.65l-0.15-0.3l-0.25,0.2V183l-0.05,0.3l-2.41-0.05
		l-0.05-0.15l-0.15-0.65v-0.3l-0.45,0.4l-0.1,0.6h-2.46l-0.1-0.8l-0.3-0.2l-0.15,0.35l-0.1,0.65l-0.65-0.1l-1.1-1.45l-0.5-0.15
		l-0.15-0.35l-0.5,0.3h-1v-0.25l-0.5,0.15l-0.85,0.15v-2.15l0.55-0.35l-0.7-0.8l0.05-0.4l-0.9-1h-0.9l-0.25-0.3l-0.35,0.35
		l-1.25,0.05l-0.3-0.45l-0.1,0.35l-1.4,0.1l-0.15-0.45l-0.2,0.4l-1.1,0.04v-14.94h-10.47v20.26h-7.66v9.78l-1.26-0.06l-0.57-1.45
		l-0.32-5.97l0.49-0.32l-0.08-0.65l-3.88-0.32v-1.53l-0.73-0.73l0.32-0.32l-0.4-0.4l-0.16-22.61l0.57-1.7v-1.13l-1.13-0.24v-1.37
		l-0.61-0.08c-0.1-0.42,0.2-0.45,0.3-0.68c0.59,0,0.89-0.29,1.38-0.39c-0.09-0.96-0.8-1.3-1.08-2.06c-0.03-0.29,0.22-0.3,0.2-0.59
		c-0.22-0.27-0.47-0.51-0.49-0.98c0.07-0.24,0.3,0.32,0.49,0c0.16-0.23-0.16-0.64-0.3-0.88c0.12-0.5,0.69-0.98,0.59-1.38h0.3
		c0.4-0.69,1.19-1.03,1.28-1.77c-0.59-0.06-0.95,0.68-1.77,0.69c-0.04,0.33-0.3,0.43-0.49,0.59c-0.08-0.34,0.15-0.38,0.1-0.69
		c0.37,0.55-0.07-0.46,0.29-0.1c0.27-0.21-0.23-0.48-0.29-0.69c0.09-0.17,0.24-0.29,0.29-0.49c-0.18-0.53-0.05-0.77-0.2-1.28
		c-0.28,0.42-0.08,0.7-0.39,1.08c0.23,0.73,0.26,2.15-0.2,2.75c-0.14-0.14-0.55-0.98,0.2-1.08c-0.15-0.27-0.42,0.16-0.59,0.2
		c-0.28-0.02-0.12-0.47-0.49-0.39c0.13,0.23,0.39,0.33,0.3,0.79c-0.34,0.18-0.5,0.68-0.2,0.98c-0.61-0.37-0.7-1.27-1.38-1.57
		c0.01-0.18-0.12-0.21-0.1-0.39c-0.64,0.05-1.08-0.26-1.67-0.49c-0.19,0.05-0.01,0.17,0,0.2c0.07,0.21-0.05,0.23,0.2,0.39
		c0.17,0.11,0.04,0.18,0.2,0.39c0.04,0.05,0.24,0.05,0.29,0.1c0.12,0.12,0.11,0.41,0.49,0.39c0.04,0.32,0.19,0.53,0.2,0.88
		c0.17,0.09,0.29,0.24,0.49,0.3c-0.11,0.15-0.11,0.25,0,0.39h0.49c0.07,0.39,0.32,0.76,0.3,1.08c-0.04,0.46-0.58,0.71-0.59,1.18
		c-0.02,0.21,0.08,0.31,0.3,0.29c-0.17,0.85-0.94,1.1-0.98,2.06c0.35,0.07,0.48,0.38,0.98,0.3c0.13,0.18,0.29,0.69,0.46,0.86
		l-0.86,0.1v1.37l-1.13,0.24v1.13l0.57,1.7l-0.16,22.61l-0.4,0.4l0.32,0.32l-0.73,0.73v1.53l-1.3,0.11l-0.02-0.12v0.12l-2.55,0.21
		l-0.08,0.65l0.48,0.32l-0.32,5.97l-0.56,1.45l-1.45,0.07v-5.72h-8.09l-0.06-4.9l-1.83,0.17l-1.83-2.33h-1.66l-1.16,1.99l-1,0.08
		v-26h-8v20.1l-1.07-3.58v-3.96l-0.15-4.49l0.15-1.6l-0.46-3.04l-0.46-0.69l-0.23-1.9l-0.53-0.15l-0.15-1.52l-1.14-0.38l-1.67,0.3
		l-0.08-0.61l-1.37-0.15l0.08,0.61l-0.46-0.23v0.53l-0.61-0.91l-0.23,2.13l-0.76,2.44l-0.53,2.44l-1.14,0.46l0.61,0.46l0.15,1.07
		l0.38,0.38l-0.31,4.03l-0.38,0.38l0.53,0.46l-0.15,2.97l-0.53,0.46l0.08,3.04l-0.53,0.31l0.15,0.84l-0.84,4.8h-0.53v-4.87
		l0.38-0.46l-0.3-2.06l-1.45-0.3l-0.46,0.53l-0.61-0.08l-0.23-0.3l-0.38,0.38l0.08,1.83l0.08,1.98l-0.46,0.15l0.53,0.38l-0.15,3.5
		l-0.61,0.99h0.46l-0.23,1.83l-0.3,0.38l0.46,0.38l-0.15,1.37l-2.06,0.53l0.46,0.91l-0.01,0.12h-4.77l-1.13-38.3
		c0.41-0.16,0.66-0.41,0.67-0.68c0.01-0.29-0.27-0.55-0.69-0.72l-0.02-1.17c1.83-0.5,3.17-2.08,3.2-3.97
		c0.03-1.64-0.94-3.07-2.38-3.79c0-0.02,0-0.03,0-0.05l0.07-4.54c0-0.3-0.32-1.26-0.62-1.27l-0.38-0.01c0.07-0.05,0.1-0.1,0.1-0.15
		c0-0.16-0.28-0.3-0.69-0.36l-0.02-1.75c0.23-0.06,0.38-0.16,0.38-0.28c0-0.12-0.15-0.23-0.39-0.29l-0.08-6.38
		c0.23-0.04,0.39-0.13,0.39-0.23c0-0.1-0.16-0.2-0.4-0.25l-0.05-4.41c0.26-0.03,0.44-0.11,0.44-0.2c0-0.09-0.18-0.18-0.44-0.22
		l-0.08-7.04c0-0.22-0.04-0.41-0.27-0.41c-0.23,0-0.28,0.18-0.28,0.4l-0.01,7.05c-0.2,0.04-0.34,0.11-0.34,0.19
		c0,0.08,0.14,0.15,0.34,0.2l-0.01,4.43c-0.22,0.04-0.37,0.13-0.37,0.23c0,0.1,0.15,0.19,0.37,0.24l-0.01,6.37
		c-0.28,0.05-0.47,0.16-0.47,0.3c0,0.14,0.19,0.25,0.47,0.31l0,1.72c-0.45,0.04-0.78,0.18-0.78,0.35c0,0.06,0.03,0.11,0.1,0.16
		l-0.47-0.01c-0.31,0-0.48,0.95-0.48,1.25l-0.07,4.54c0,0.02,0,0.03,0,0.05c-1.46,0.67-2.48,2.08-2.5,3.71
		c-0.03,2.01,1.43,3.71,3.42,4.16l-0.27,0.01l-0.05,1.11c-0.38,0.16-0.62,0.4-0.63,0.67c0,0.26,0.21,0.5,0.57,0.67l-0.99,43.92
		h-2.35v-3.54h-3.37l-0.06-2.94l-1-0.83l0.33-7.64l-1.16-1.16c0,0-0.83-5.65-3.82-5.48c-2.99,0.17-3.16,5.31-3.16,5.31l-1.16,0.66
		l0.83,1.16l-0.33,7.47l-1.66,0.83l1.16,1.16l0.03,1.33h-2.06v1.79h-4.03v3.35h-1.91l-0.25-16.23l0.25-0.37l0.58-0.45v-0.29
		l-0.5-0.04l-0.08-0.95l0.21-0.33h-0.16l-0.04-1.12l0.12,0.04l1.44-1.4v-0.29l0.87-1.03l-2.56-0.16l0.08-0.21l-1.2-0.08l0.04-1.32
		l0.87-1.16v-0.33l-15.94-0.04l0.25-1.24h-0.87l0.08-0.41h-1.61l0.04-0.21l0.04-0.82l0.04-0.27l-0.16-0.21h-0.15l0.17-0.49
		l-0.25-0.66c0,0-0.02-0.72,0.06-0.78c0.08-0.06,0.04,0.25,0.04,0.25l0.1,0.04l0.33-0.33l-0.1-0.16l0.04-0.29l0.08-0.14l-0.1-0.19
		v-0.12l0.15-0.19l-0.15-0.02l-0.16-0.04v-0.16l-0.12,0.1c0,0-0.39,0.33-0.64,0.74c-0.25,0.41-0.45,1.67-0.72,1.71
		c-0.27,0.04-0.29,0.19-0.29,0.19v0.19l-0.21,0.1l-0.14,0.16l0.02,0.08c0,0-0.21,0.43-0.21,0.83c0,0.39,0.19,0.7,0.19,0.7
		l-0.91,0.04l0.17-0.58l-0.04-0.1c0,0,0.25-0.78,0.25-1.09c0-0.31,0.04-0.58,0.04-0.72c0-0.14-0.33-0.52-0.33-0.52l-0.19-1.26v-0.33
		l0.02-0.08l-0.08-0.23l0.02-0.31l-0.17,0.17l-0.19-0.02l-0.14-0.14l0.04,0.31c0,0-0.16,0.5-0.14,0.52c0.02,0.02,0.08,0.8,0.08,0.8
		l0.02,0.23l-0.1,0.16l0.04,0.17l-0.27,0.54l-0.06-0.68l-0.25-0.16l0.1-0.12c0,0-0.62-0.91-0.68-1.01c-0.06-0.1,0.04-0.85,0.04-0.85
		l0.1-0.1l-0.12-0.12c0,0,1.36-0.58,0.08-1.49l-0.02-0.06l0.39-0.02l0.06-0.19l0.33-0.31l0.39-0.89l-0.91,0.6
		c0.04,0.21-0.17,0.21-0.17,0.21l-0.06-0.33l-0.06-0.17l-0.11,0.43l-0.18,0.03l-0.05-0.18l0.08-0.08l-0.43-0.44l-0.32-0.28
		c0,0,0.12,0.95,0.37,1.11c0.02,0.2-0.06,0.34,0.41,0.31l-0.02,0.32c-0.2,0.03-0.95,0.82,0.12,1.39l-0.08,0.14l0.08,0.11l-0.03,0.82
		l0.03,0.35l-0.03,0.11c0,0-0.52-0.4-0.58,0.26l0.2,0.46l-0.41,0.34c0,0,0.03-0.44-0.2-0.37c-0.29,0.09-0.24,0.64-0.24,0.64
		l-0.27-0.54l0.04-0.17l-0.1-0.16l0.02-0.23c0,0-0.3-0.66-0.28-0.68c0.02-0.02-0.14-0.52-0.14-0.52l0.04-0.31l-0.14,0.14l-0.19,0.02
		l-0.16-0.16l0.02,0.31l-0.08,0.23l0.02,0.08v0.33l-0.19,1.26c0,0-0.33,0.37-0.33,0.52c0,0.14,0.04,0.41,0.04,0.72
		s0.25,1.09,0.25,1.09l-0.04,0.1l0.16,0.58l-0.91-0.04c0,0,0.19-0.31,0.19-0.7c0-0.39-0.21-0.83-0.21-0.83l0.02-0.08l-0.14-0.16
		l-0.21-0.1v-0.19c0,0-0.02-0.15-0.29-0.19c-0.27-0.04-0.48-1.3-0.72-1.71c-0.25-0.41-0.64-0.74-0.64-0.74l-0.12-0.1v0.17
		l-0.16,0.04l-0.14,0.02l0.14,0.19v0.12l-0.1,0.19l0.08,0.15l0.04,0.29l-0.1,0.16l0.33,0.33l0.1-0.04c0,0-0.04-0.31,0.04-0.25
		c0.08,0.06,0.06,0.78,0.06,0.78l-0.25,0.66l0.16,0.5h-0.14l-0.17,0.21l0.04,0.27l0.04,0.83l0.04,0.21h-1.61l0.08,0.41H138
		l0.25,1.24l-16.31,0.04v0.33l0.87,1.16l0.04,1.32l-1.2,0.08l0.08,0.21l-2.56,0.17l0.87,1.03v0.29l1.44,1.4l0.12-0.04l-0.04,1.11
		h-0.16l0.21,0.33l-0.08,0.95l-0.5,0.04v0.29l0.58,0.45l0.25,0.37l-0.12,7.69h-4.98v-26.24h-11.66v20.26h-2.21V166.2H90.04v2.66
		h-9.58v16.61h-3.32v8.97H74.31z M253.38,143.31c0.03-0.03,0.15,0.05,0.1,0.1C253.45,143.44,253.33,143.36,253.38,143.31z
		 M253.09,143.61c0.03-0.03,0.15,0.05,0.1,0.1C253.16,143.73,253.04,143.66,253.09,143.61z M129.86,181.3l-0.25,13.13h-1.53
		l0.11-13.07L129.86,181.3z M138.28,181.3l-0.1,13.13h-3.26l-0.1-13.2L138.28,181.3z M149.26,194.44h-7.55l0.05-13.01l4.17,0.16
		l3.28-0.06L149.26,194.44z M156.14,181.34l-0.1,13.1h-3.26l-0.1-13.04L156.14,181.34z M162.88,194.44h-1.53l-0.25-13.04l1.67,0.06
		L162.88,194.44z"/>
</g>
<g id="Layer_1">
	<g>
		<path class="st1" d="M374.6,116.52c0.03-0.05,0.06-0.11,0.08-0.16c0.08,0.06,0.16,0.11,0.24,0.16h14.11
			c-0.2-0.8-0.93-1.39-1.79-1.39c-0.43,0-0.82,0.15-1.14,0.39c-0.21-0.14-0.45-0.25-0.71-0.32c0-0.02,0-0.05,0-0.07
			c0-1.59-1.29-2.88-2.87-2.88c-1.01,0-1.9,0.52-2.41,1.31c-0.1-0.01-0.21-0.02-0.31-0.02c-0.05,0-0.11,0-0.16,0
			c-0.15-1.59-1.48-2.83-3.1-2.83c-1.32,0-2.45,0.82-2.9,1.98c-0.45-0.29-0.98-0.46-1.55-0.46c-0.52,0-1.01,0.14-1.44,0.39
			c-0.42-0.24-0.91-0.39-1.44-0.39c-0.21,0-0.41,0.02-0.6,0.06c-0.72-0.96-1.88-1.59-3.18-1.59c-0.74,0-1.44,0.21-2.04,0.56
			c-0.34-0.22-0.72-0.38-1.13-0.47c-0.78-1.88-2.63-3.2-4.79-3.2c-0.52,0-1.03,0.08-1.51,0.22c-1-0.83-2.28-1.34-3.68-1.34
			c-1.57,0-2.98,0.63-4.02,1.64c-0.69-0.34-1.46-0.53-2.28-0.53c-2.42,0-4.45,1.66-5.03,3.9c-0.35-0.12-0.72-0.19-1.12-0.19
			c-1.18,0-2.21,0.61-2.81,1.53c-0.53-0.38-1.17-0.61-1.87-0.61c-1.76,0-3.19,1.43-3.19,3.2c0,0.38,0.06,0.74,0.18,1.07H374.6z"/>
		<path class="st1" d="M86.77,120.84c0.05-0.09,0.1-0.18,0.14-0.28c0.13,0.1,0.27,0.19,0.41,0.28h24.06
			c-0.34-1.36-1.58-2.37-3.04-2.37c-0.73,0-1.4,0.25-1.94,0.67c-0.36-0.25-0.77-0.43-1.21-0.54c0-0.04,0-0.08,0-0.12
			c0-2.71-2.19-4.9-4.9-4.9c-1.72,0-3.24,0.89-4.11,2.24c-0.17-0.02-0.35-0.03-0.53-0.03c-0.09,0-0.19,0-0.28,0.01
			c-0.25-2.7-2.53-4.82-5.29-4.82c-2.25,0-4.17,1.4-4.95,3.38c-0.76-0.49-1.67-0.78-2.65-0.78c-0.89,0-1.73,0.24-2.45,0.66
			c-0.72-0.42-1.56-0.66-2.45-0.66c-0.35,0-0.7,0.04-1.03,0.11c-1.24-1.64-3.2-2.71-5.42-2.71c-1.27,0-2.46,0.35-3.47,0.96
			c-0.58-0.37-1.23-0.64-1.93-0.8c-1.33-3.21-4.49-5.46-8.17-5.46c-0.89,0-1.76,0.13-2.57,0.38c-1.7-1.42-3.89-2.28-6.28-2.28
			c-2.67,0-5.09,1.07-6.85,2.8c-1.18-0.58-2.5-0.9-3.9-0.9c-4.13,0-7.59,2.83-8.57,6.65c-0.59-0.21-1.24-0.33-1.9-0.33
			c-2.01,0-3.77,1.04-4.78,2.61c-0.9-0.65-2-1.03-3.19-1.03c-3.01,0-5.45,2.44-5.45,5.45c0,0.64,0.11,1.25,0.31,1.82H86.77z"/>
	</g>
	<g>
		<g>
			<g>
				<g>
					<path class="st2" d="M263.09,214.04c0.01-0.08,0.02-0.16,0.03-0.24c0.01-0.1,0.03-0.2,0.03-0.31c0.01-0.05,0.01-0.1,0.01-0.16
						c0.03-0.33,0.04-0.65,0.03-0.97c-0.01-0.4-0.04-0.8-0.1-1.19c-0.11-0.7-0.29-1.37-0.54-1.99c-0.84-2.1-2.44-3.68-4.43-4.09
						c-0.08-0.02-0.16-0.03-0.25-0.04c-0.22-0.03-0.43-0.05-0.65-0.06c0.03-0.16,0.06-0.32,0.08-0.48c0.24-1.85-0.05-3.65-0.72-5.17
						c-0.91-2.06-2.54-3.59-4.54-4c-0.29-0.06-0.57-0.09-0.86-0.1c-0.44-0.02-0.87,0.03-1.29,0.12c-1.9,0.43-3.56,1.93-4.48,4.07
						c-0.04,0.09-0.08,0.18-0.11,0.27c-0.11-0.64-0.26-1.25-0.47-1.83c-0.17-0.49-0.39-0.96-0.63-1.4
						c-0.08-0.14-0.16-0.28-0.25-0.42c-0.63-1.01-1.43-1.85-2.37-2.44c-0.62-0.39-1.3-0.68-2.03-0.83
						c-1.59-0.32-3.14,0.05-4.45,0.94c-1.85,1.25-3.23,3.53-3.59,6.33c-0.01,0.08-0.02,0.15-0.03,0.23
						c-0.22,0.09-0.43,0.19-0.64,0.31c-0.54-0.57-1.14-1.06-1.79-1.45c0.07-2.93-1.18-5.62-3.15-7.01c-0.62-0.44-1.3-0.75-2.04-0.9
						c-0.23-0.05-0.46-0.08-0.68-0.09c-0.02-0.02-0.03-0.04-0.05-0.06c-0.77-0.94-1.71-1.67-2.77-2.11
						c-0.36-0.15-0.74-0.27-1.13-0.35c-3-0.61-5.87,1.17-7.38,4.22c-0.37-0.15-0.75-0.27-1.14-0.35c-2.11-0.43-4.16,0.3-5.73,1.82
						c-0.11,0.11-0.22,0.22-0.33,0.34c-0.11,0.12-0.22,0.25-0.33,0.38c-0.84,1.04-1.5,2.33-1.87,3.8c-0.04,0.16-0.08,0.33-0.12,0.5
						c-0.2-0.07-0.41-0.12-0.62-0.17c-0.34-0.07-0.68-0.1-1.02-0.11c-0.45,0-0.9,0.06-1.34,0.17c-0.95,0.25-1.84,0.77-2.59,1.5
						c-0.19,0.19-0.38,0.38-0.55,0.6c-0.09-0.02-0.17-0.04-0.26-0.06l-0.02,0c0.02-0.21,0.03-0.42,0.03-0.63
						c0.02-0.61-0.01-1.21-0.08-1.8c-0.28-2.35-1.23-4.48-2.64-6c-0.9-1.09-2.07-1.86-3.4-2.14c-0.06-0.01-0.11-0.02-0.17-0.03
						c-0.08-0.02-0.16-0.04-0.25-0.06c-1.49-0.3-2.95-0.06-4.24,0.62c-0.05,0-0.1,0-0.15-0.01c-1-2.44-2.81-4.32-5.06-5
						c-0.3-0.34-0.61-0.68-0.94-0.99c-0.32-0.3-0.66-0.58-1.01-0.85c-1.62-1.23-3.57-2.11-5.7-2.48c-0.14-0.03-0.29-0.05-0.44-0.07
						c-0.14-0.02-0.29-0.04-0.44-0.05l0,0c-0.49-0.05-0.98-0.08-1.48-0.08c-5.05,0-9.42,2.76-11.53,6.77
						c-0.53,1.01-0.92,2.09-1.14,3.23c-0.3-0.29-0.62-0.55-0.97-0.77c-0.97-2.23-2.72-3.9-4.88-4.34c-0.59-0.12-1.18-0.14-1.75-0.07
						c-0.05,0-0.09,0.01-0.13,0.02c-0.82,0.12-1.6,0.42-2.31,0.88c-0.36-2.29-1.16-4.34-2.27-6.03c-0.92-1.41-2.06-2.57-3.34-3.41
						c-2.02-1.34-4.4-1.9-6.84-1.4c-1.64,0.33-3.13,1.11-4.41,2.22c-0.02,0.02-0.05,0.04-0.07,0.06c-0.13,0.11-0.26,0.23-0.38,0.35
						c-0.34,0.33-0.66,0.68-0.97,1.05c-0.4,0.48-0.77,1.01-1.1,1.56c0.34-1.8,0.41-3.71,0.15-5.64c-0.24-1.84-0.74-3.54-1.46-5.06
						c-0.27-0.57-0.57-1.11-0.9-1.63c-0.38-0.6-0.8-1.17-1.26-1.68c-1.22-1.39-2.67-2.46-4.26-3.09c-1.68-0.68-3.51-0.88-5.38-0.5
						c-3.66,0.75-6.63,3.58-8.27,7.37c-3.71,2.32-5.96,7.47-5.25,12.87c0.09,0.7,0.23,1.37,0.41,2.02
						c-0.09,0.25-0.17,0.51-0.25,0.77c-0.17,0.01-0.35,0.03-0.52,0.06c-0.54-1.18-1.19-2.26-1.95-3.2
						c-0.26-0.33-0.54-0.64-0.83-0.94c-0.03-0.36-0.07-0.71-0.11-1.07c-0.01-0.06-0.02-0.13-0.03-0.19
						c-0.95-6.85-4.86-12.15-9.81-14.15c0,0,0,0,0,0c-0.08-0.03-0.16-0.06-0.24-0.09l0,0c-2.04-0.77-4.25-0.99-6.5-0.53
						c-0.91,0.19-1.79,0.48-2.63,0.86c-0.85-1.07-1.81-1.99-2.86-2.73c-2.51-1.78-5.49-2.53-8.55-1.91
						c-0.39,0.08-0.78,0.18-1.16,0.3c-1.76,0.57-3.35,1.56-4.72,2.88c-0.1,0-0.19-0.01-0.29-0.01c-1.47,0-2.86,0.32-4.09,0.9
						c-1.39-2.23-3.63-3.93-6.29-4.68c-0.98-0.27-2.02-0.42-3.09-0.42c-4.76,0-8.81,2.9-10.28,6.95c-0.24-0.06-0.48-0.12-0.73-0.17
						c-0.05-0.01-0.09-0.02-0.14-0.03c-0.78-0.15-1.59-0.23-2.42-0.23c-0.39,0-0.78,0.02-1.16,0.05c-2.57,0.23-4.9,1.24-6.74,2.77
						c-1.5,1.26-2.67,2.86-3.36,4.69c-2.16-1.67-4.72-2.53-7.39-2.32c-0.14,0.01-0.28,0.02-0.41,0.04
						c-0.28,0.03-0.56,0.08-0.83,0.13c-0.67,0.14-1.32,0.34-1.94,0.6c-0.58-1.17-1.27-2.23-2.06-3.15
						c-0.02-0.03-0.05-0.05-0.07-0.08c-0.85-0.99-1.81-1.82-2.85-2.48c-2.25-1.42-4.86-2-7.54-1.45c-0.03,0.01-0.05,0.01-0.08,0.02
						l0,47.32c1.02-0.44,1.96-1.07,2.8-1.84c1.49-1.37,2.68-3.2,3.45-5.29c0.78,0.8,1.63,1.48,2.55,2.01
						c0.46,0.27,0.93,0.5,1.41,0.69c0.96,0.75,2,1.35,3.1,1.77c1,0.38,2.04,0.62,3.1,0.7c0.17,0.01,0.35,0.02,0.52,0.02
						c0.31,0.01,0.63,0,0.94-0.02c0.17-0.01,0.35-0.03,0.52-0.05c0.29-0.03,0.58-0.08,0.88-0.14c0.16-0.03,0.32-0.07,0.48-0.11
						c0.34-0.09,0.68-0.19,1.01-0.31c0.7-0.25,1.38-0.57,2.03-0.96c0.36-0.21,0.7-0.44,1.03-0.69c0.3-0.22,0.59-0.46,0.88-0.71
						c0.08-0.07,0.16-0.14,0.23-0.21c0.08,0.07,0.15,0.14,0.23,0.21c0.28,0.25,0.56,0.49,0.86,0.71c0.33,0.24,0.67,0.47,1.02,0.67
						c1.9,1.09,4.06,1.51,6.27,1.06c0.19-0.04,0.38-0.09,0.57-0.14c0.75-0.2,1.46-0.5,2.13-0.88c0.35-0.2,0.69-0.41,1.02-0.65
						c0.2,0.12,0.41,0.24,0.62,0.34c0.75,0.38,1.55,0.63,2.37,0.75c0.82,0.12,1.67,0.1,2.52-0.08c0.7-0.14,1.37-0.38,2-0.71
						c0.62-0.32,1.2-0.71,1.74-1.18c1.79,1.16,3.87,1.63,6.01,1.19c1.81-0.37,3.42-1.35,4.72-2.74c0,0,0,0,0-0.01
						c0.32-0.33,0.61-0.69,0.88-1.07c0.58-0.81,1.08-1.71,1.47-2.67c1.85,2.65,4.72,4.08,7.7,3.47c0.46-0.09,0.9-0.23,1.33-0.41
						c0.29-0.12,0.57-0.26,0.84-0.42c0.02-0.01,0.04-0.02,0.06-0.03c0.41,0.21,0.84,0.38,1.28,0.51c0.53,0.16,1.07,0.25,1.62,0.29
						c1.63,0.63,3.4,0.81,5.2,0.44c2.11-0.43,3.99-1.56,5.52-3.17c0.89,1.04,1.9,1.91,3,2.56c0.25,0.15,0.5,0.28,0.75,0.41
						c1.17,0.58,2.42,0.92,3.72,0.99c0.48,0.03,0.97,0.02,1.46-0.03c0.33-0.03,0.66-0.08,0.99-0.15c0.96-0.2,1.87-0.53,2.72-0.99
						c0.25-0.13,0.49-0.27,0.72-0.42c0.55-0.35,1.07-0.75,1.55-1.19c0.25-0.22,0.49-0.46,0.72-0.71c0.18-0.19,0.35-0.38,0.51-0.58
						c0.06,0.03,0.11,0.06,0.17,0.09c0.32,0.17,0.66,0.31,1,0.42c0.06,0.02,0.12,0.04,0.17,0.05c0.61,0.18,1.25,0.27,1.89,0.25
						c0.34-0.01,0.69-0.05,1.03-0.12c0.96-0.2,1.85-0.62,2.64-1.21c0.33-0.25,0.65-0.53,0.94-0.83c0.51-0.53,0.95-1.13,1.33-1.8
						c0.09-0.15,0.17-0.31,0.25-0.47c0.38,0.16,0.76,0.29,1.16,0.38c0,0.03,0,0.06,0,0.09c0.01,0.35,0.04,0.71,0.09,1.07
						c0.03,0.25,0.07,0.49,0.12,0.73c0.05,0.28,0.12,0.56,0.19,0.83c0.08,0.28,0.16,0.56,0.26,0.83c0.09,0.25,0.18,0.49,0.28,0.73
						c0.03,0.08,0.07,0.16,0.11,0.24c0.35,0.76,0.77,1.44,1.26,2.05c0.58,0.73,1.24,1.34,1.97,1.81c0.43,0.28,0.88,0.51,1.35,0.69
						c1.12,0.43,2.33,0.54,3.56,0.29c2.75-0.56,4.93-2.84,5.97-5.82c0.97,0.32,2,0.4,3.05,0.19c0.47-0.09,0.92-0.24,1.34-0.44
						c0.43-0.19,0.83-0.44,1.21-0.73c0.07-0.05,0.14-0.1,0.2-0.16c0.23-0.18,0.44-0.38,0.65-0.59c0.39-0.4,0.75-0.85,1.07-1.34
						c0.06,0.03,0.12,0.06,0.17,0.09c0.01,0.08,0.01,0.16,0.02,0.23c-0.23,0.46-0.39,0.98-0.47,1.55c-0.17,1.32,0.17,2.61,0.85,3.52
						c0.21,0.29,0.46,0.54,0.74,0.74c0.35,0.26,0.74,0.44,1.16,0.52c0.45,0.09,0.9,0.07,1.31-0.06c0.54,0.32,1.13,0.56,1.75,0.69
						c1.3,0.27,2.58,0.02,3.7-0.62c0.64,0.99,1.56,1.69,2.64,1.92c0.62,0.13,1.23,0.08,1.8-0.11c0.51,1.47,1.5,2.64,2.75,3.18
						c0.25,0.11,0.5,0.19,0.77,0.24c0.37,0.08,0.74,0.09,1.1,0.06c2.1-0.2,3.9-2.17,4.26-4.9c0.03-0.23,0.05-0.46,0.06-0.68
						c0.23-0.05,0.46-0.13,0.68-0.22c0.65,1.31,1.73,2.27,3.04,2.54c0.89,0.18,1.75,0.02,2.52-0.41c0.98,1.17,2.24,2,3.67,2.29
						c2.02,0.41,3.98-0.31,5.46-1.81c0.13-0.13,0.26-0.27,0.39-0.42c0.14,0.15,0.29,0.29,0.44,0.42c0.81,0.72,1.77,1.23,2.82,1.44
						c1.06,0.22,2.1,0.11,3.06-0.26c0.59-0.04,1.17-0.2,1.7-0.47c0.41,0.24,0.85,0.41,1.31,0.51c1.75,0.36,3.44-0.48,4.54-2.05
						c0.8,1.97,2.31,3.45,4.18,3.83c0.61,0.13,1.22,0.12,1.81,0.01c0.61-0.12,1.2-0.36,1.73-0.71c0.64,0.55,1.38,0.94,2.2,1.11
						c0.69,0.14,1.36,0.11,2-0.06c0.43-0.12,0.85-0.3,1.25-0.54c0.66,0.48,1.4,0.82,2.19,0.98c1.82,0.37,3.58-0.25,4.94-1.56
						c0.39,0.36,0.8,0.67,1.25,0.94h0l0,0c0.65,0.39,1.35,0.67,2.09,0.82c1.93,0.39,3.81-0.14,5.34-1.34
						c0.85-0.34,1.64-0.89,2.33-1.59 M125.87,187.62c-0.04,0-0.08,0.01-0.12,0.01c0-0.06,0-0.13,0-0.19
						c0.07-0.11,0.14-0.23,0.21-0.34C125.93,187.28,125.9,187.45,125.87,187.62z"/>
				</g>
			</g>
			<g>
				<g>
					<path class="st3" d="M399.76,209.58c-11.24-2.06-128.72-4.02-142.08-5.85h0c-1.96-0.27-3.94-0.54-5.94-0.8
						c-0.53-0.07-1.05-0.14-1.58-0.21c-13.11-1.71-27.01-3.31-41.46-4.78c-2.1-0.21-4.2-0.42-6.32-0.63
						c-2.39-0.23-4.79-0.46-7.21-0.69l0,0c-2.67-0.25-5.36-0.5-8.07-0.74c-0.25-0.02-0.5-0.05-0.75-0.07
						c-3.45-0.31-6.93-0.61-10.42-0.9c-1.17-0.1-2.34-0.2-3.51-0.29c-0.56-0.05-1.11-0.09-1.67-0.14c-0.91-0.07-1.82-0.15-2.73-0.22
						c-0.33-0.03-0.67-0.05-1-0.08c-0.6-0.05-1.19-0.1-1.79-0.14c-1.43-0.11-2.87-0.23-4.31-0.34c-0.72-0.05-1.44-0.11-2.16-0.16
						c-52.71-4-108.64-6.29-157.85-6.29c-0.38,0-0.77,0-1.15,0l0,27.7l400,1.59C400.81,216.34,400.83,209.78,399.76,209.58z"/>
					<path class="st4" d="M205.22,214.98l-9.01,0.69c0,0-0.03-0.15-0.08-0.44c-0.06-0.28-0.16-0.7-0.33-1.23
						c-0.18-0.53-0.45-1.17-0.84-1.89c-0.4-0.72-0.94-1.53-1.65-2.39c-0.72-0.86-1.61-1.77-2.69-2.7c-0.54-0.46-1.14-0.93-1.77-1.4
						c-0.64-0.46-1.32-0.94-2.05-1.4c-1.45-0.93-3.08-1.83-4.85-2.7c-1.77-0.86-3.67-1.68-5.67-2.44c-1-0.38-2.02-0.75-3.05-1.09
						c-0.51-0.18-1.04-0.34-1.56-0.51c-0.53-0.16-1.05-0.33-1.58-0.48c-2.12-0.63-4.27-1.17-6.4-1.65c-1.67-0.37-3.32-0.7-4.93-0.98
						c5.76,0.37,11.49,0.76,17.16,1.16c1.1,0.3,2.19,0.62,3.26,0.95c2.3,0.71,4.53,1.51,6.63,2.37c2.11,0.86,4.1,1.78,5.92,2.75
						c0.91,0.48,1.77,0.98,2.6,1.48c0.82,0.51,1.59,1.01,2.32,1.53c1.45,1.03,2.69,2.06,3.73,3.06c1.03,1,1.86,1.97,2.51,2.85
						c0.65,0.88,1.11,1.68,1.46,2.34c0.33,0.67,0.55,1.19,0.68,1.56C205.22,214.98,205.22,214.98,205.22,214.98z"/>
				</g>
			</g>
		</g>
		<g>
			<g>
				<g>
					<g>
						<polygon class="st5" points="124.8,199.51 123.85,156.21 122.21,199.51 						"/>
						<polygon class="st5" points="124.21,184.51 130.5,177.31 122.95,183.26 						"/>
						<polygon class="st5" points="124.18,170.88 118.91,165.56 123.23,171.71 						"/>
					</g>
					<g>
						<path class="st6" d="M125.1,186.42c-25,0.71-3.01-46.17,0.01-46.17C127.8,140.25,148.47,185.75,125.1,186.42z"/>
						<g class="st7">
							<path class="st8" d="M119.23,159.45c-2.05,6.07-4.97,16.31-0.18,21.47C117.7,178.72,117.99,163.79,119.23,159.45z"/>
						</g>
					</g>
				</g>
				<g class="st9">
					<path class="st10" d="M141.91,199.55c0,0.39-4.41,0.7-9.85,0.7c-5.44,0-9.85-0.31-9.85-0.7c0-0.39,4.41-0.7,9.85-0.7
						C137.5,198.85,141.91,199.16,141.91,199.55z"/>
				</g>
				<g class="st9">
					<path class="st10" d="M57.89,192.18c0,0.39-4.41,0.7-9.85,0.7c-5.44,0-9.85-0.31-9.85-0.7c0-0.39,4.41-0.7,9.85-0.7
						C53.48,191.48,57.89,191.79,57.89,192.18z"/>
				</g>
				<g>
					<g>
						<polygon class="st5" points="143.05,202.81 142.3,168.72 141.01,202.81 						"/>
						<polygon class="st5" points="142.58,191 147.53,185.33 141.59,190.01 						"/>
						<polygon class="st5" points="142.56,180.27 138.42,176.09 141.81,180.93 						"/>
					</g>
					<g>
						<path class="st6" d="M143.29,192.51c-19.68,0.56-2.37-36.35,0-36.35C145.41,156.16,161.68,191.98,143.29,192.51z"/>
						<g class="st7">
							<path class="st8" d="M138.66,171.27c-1.61,4.77-3.91,12.84-0.14,16.9C137.46,186.44,137.69,174.69,138.66,171.27z"/>
						</g>
					</g>
				</g>
				<g class="st9">
					<path class="st10" d="M160.64,202.81c0,0.39-4.41,0.7-9.85,0.7c-5.44,0-9.85-0.31-9.85-0.7c0-0.39,4.41-0.7,9.85-0.7
						C156.23,202.11,160.64,202.42,160.64,202.81z"/>
				</g>
				<g>
					<g class="st9">
						<path class="st10" d="M32.68,195.1c0,0.39-4.41,0.7-9.85,0.7c-5.44,0-9.85-0.32-9.85-0.7c0-0.39,4.41-0.7,9.85-0.7
							C28.27,194.4,32.68,194.71,32.68,195.1z"/>
					</g>
					<g>
						<g>
							<polygon class="st5" points="15.56,195.1 14.61,151.8 12.98,195.1 							"/>
							<polygon class="st5" points="14.97,180.1 21.26,172.9 13.71,178.85 							"/>
							<polygon class="st5" points="14.95,166.47 9.68,161.15 13.99,167.3 							"/>
						</g>
						<g>
							<path class="st6" d="M15.87,182.01c-25,0.71-3.01-46.17,0.01-46.17C18.56,135.84,39.24,181.34,15.87,182.01z"/>
							<g class="st7">
								<path class="st8" d="M10,155.04c-2.05,6.07-4.97,16.31-0.18,21.47C8.46,174.31,8.76,159.38,10,155.04z"/>
							</g>
						</g>
					</g>
				</g>
				<g>
					<g class="st9">
						<path class="st10" d="M84.16,200.75c0,0.39-4.41,0.7-9.85,0.7s-9.85-0.31-9.85-0.7c0-0.39,4.41-0.7,9.85-0.7
							S84.16,200.36,84.16,200.75z"/>
					</g>
					<g>
						<g>
							<polygon class="st5" points="67.04,200.75 66.09,157.45 64.46,200.75 							"/>
							<polygon class="st5" points="66.45,185.75 72.74,178.55 65.19,184.5 							"/>
							<polygon class="st5" points="66.42,172.12 61.16,166.8 65.47,172.95 							"/>
						</g>
						<g>
							<path class="st6" d="M67.35,187.66c-25,0.71-3.01-46.17,0.01-46.17C70.04,141.49,90.71,186.99,67.35,187.66z"/>
							<g class="st7">
								<path class="st8" d="M61.47,160.69c-2.05,6.07-4.97,16.31-0.18,21.46C59.94,179.96,60.23,165.02,61.47,160.69z"/>
							</g>
						</g>
					</g>
				</g>
			</g>
		</g>
		<g>
			<g>
				<g class="st9">
					<ellipse class="st10" cx="89.9" cy="189.57" rx="8.75" ry="0.63"/>
				</g>
				<g>
					<rect x="83" y="157.79" class="st11" width="0.84" height="30"/>
					<rect x="83.42" y="157.79" class="st12" width="0.42" height="30"/>
					<g>
						<path class="st11" d="M84.24,152.78c0,0.45-0.37,0.82-0.82,0.82s-0.82-0.37-0.82-0.82c0-0.45,0.37-0.82,0.82-0.82
							S84.24,152.32,84.24,152.78z"/>
						<path class="st13" d="M85.61,154.97h-4.39c0-0.06,0-0.12,0.01-0.18c0.08-1.01,0.85-1.83,1.84-1.99
							c0.11-0.02,0.23-0.03,0.35-0.03c0.03,0,0.06,0,0.09,0C84.68,152.83,85.61,153.79,85.61,154.97z"/>
						<path class="st12" d="M85.61,154.97h-1.06c0-0.79-0.42-1.73-1.04-2.2C84.68,152.83,85.61,153.79,85.61,154.97z"/>
						<polygon class="st14" points="83.42,155.27 81.35,155.27 82.36,159.5 83.42,159.5 84.47,159.5 85.48,155.27 						"/>
						<polygon class="st15" points="83.42,155.27 81.13,155.27 82.25,159.5 83.42,159.5 84.59,159.5 85.71,155.27 						"/>
						<g>
							<polygon class="st11" points="81.95,155.27 82.71,159.5 82.9,159.5 83.09,159.5 82.32,155.27 							"/>
							<polygon class="st11" points="84.89,155.27 84.12,159.5 83.94,159.5 83.74,159.5 84.52,155.27 							"/>
						</g>
						<rect x="82.06" y="159.36" class="st11" width="2.71" height="0.78"/>
						<path class="st11" d="M86.2,155.09c0,0.19-0.15,0.35-0.35,0.35h-4.88c-0.19,0-0.35-0.16-0.35-0.35l0,0
							c0-0.19,0.16-0.35,0.35-0.35h4.88C86.05,154.74,86.2,154.89,86.2,155.09L86.2,155.09z"/>
					</g>
					<g>
						<polygon class="st11" points="84.77,188.9 82.07,188.9 82.07,188.79 82.36,182.63 84.46,182.63 84.76,188.79 						"/>
						<path class="st11" d="M85.69,189.57h-4.54c0-0.43,0.35-0.79,0.79-0.79h2.97C85.34,188.79,85.69,189.14,85.69,189.57z"/>
					</g>
					<path class="st12" d="M85.69,189.57h-2.37v-6.94h1.14l0.3,6.15h0.14C85.34,188.79,85.69,189.14,85.69,189.57z"/>
				</g>
			</g>
			<g>
				<g class="st9">
					<path class="st10" d="M217.16,201.12c0,0.34-3.92,0.62-8.75,0.62c-4.83,0-8.75-0.28-8.75-0.62c0-0.34,3.92-0.63,8.75-0.63
						C213.24,200.5,217.16,200.78,217.16,201.12z"/>
				</g>
				<g>
					<rect x="201.51" y="169.34" class="st11" width="0.83" height="30"/>
					<rect x="201.93" y="169.34" class="st12" width="0.42" height="30"/>
					<g>
						<path class="st11" d="M202.75,164.33c0,0.45-0.37,0.82-0.82,0.82s-0.82-0.37-0.82-0.82c0-0.45,0.37-0.82,0.82-0.82
							S202.75,163.87,202.75,164.33z"/>
						<path class="st13" d="M204.13,166.53h-4.39c0-0.06,0-0.12,0.01-0.19c0.08-1.01,0.85-1.83,1.84-1.98
							c0.12-0.02,0.23-0.03,0.35-0.03c0.03,0,0.06,0,0.09,0C203.19,164.38,204.13,165.34,204.13,166.53z"/>
						<path class="st12" d="M204.13,166.53h-1.06c0-0.79-0.42-1.73-1.04-2.2C203.19,164.38,204.13,165.34,204.13,166.53z"/>
						<polygon class="st14" points="201.93,166.83 199.86,166.83 200.87,171.05 201.93,171.05 202.99,171.05 204,166.83 						"/>
						<polygon class="st15" points="201.93,166.83 199.64,166.83 200.76,171.05 201.93,171.05 203.1,171.05 204.22,166.83 						"/>
						<g>
							<polygon class="st11" points="200.46,166.83 201.23,171.05 201.41,171.05 201.6,171.05 200.83,166.83 							"/>
							<polygon class="st11" points="203.4,166.83 202.63,171.05 202.45,171.05 202.25,171.05 203.03,166.83 							"/>
						</g>
						<rect x="200.58" y="170.91" class="st11" width="2.71" height="0.78"/>
						<path class="st11" d="M204.71,166.64c0,0.19-0.16,0.35-0.35,0.35h-4.88c-0.19,0-0.35-0.16-0.35-0.35l0,0
							c0-0.19,0.15-0.35,0.35-0.35h4.88C204.56,166.29,204.71,166.45,204.71,166.64L204.71,166.64z"/>
					</g>
					<g>
						<polygon class="st11" points="203.28,200.45 200.58,200.45 200.59,200.34 200.87,194.18 202.97,194.18 203.27,200.34 						
							"/>
						<path class="st11" d="M204.2,201.12h-4.54c0-0.43,0.35-0.79,0.79-0.79h2.97C203.85,200.34,204.2,200.69,204.2,201.12z"/>
					</g>
					<path class="st12" d="M204.2,201.12h-2.38v-6.94h1.14l0.3,6.15h0.14C203.85,200.34,204.2,200.69,204.2,201.12z"/>
				</g>
			</g>
		</g>
		<g>
			<g>
				<g class="st9">
					<path class="st10" d="M15.86,202.65c0,0.3,5.15,0.54,11.5,0.54c6.35,0,11.5-0.24,11.5-0.54c0-0.3-5.15-0.54-11.5-0.54
						C21.01,202.12,15.86,202.36,15.86,202.65z"/>
				</g>
				<g>
					<path class="st16" d="M35.56,197.54v-9.43c0-0.62,0.5-1.13,1.12-1.13c0.62,0,1.13,0.5,1.13,1.13v9.43H35.56z"/>
					<path class="st16" d="M17.25,197.54v-9.43c0-0.62,0.5-1.13,1.12-1.13c0.62,0,1.13,0.5,1.13,1.13v9.43H17.25z"/>
					<polygon class="st17" points="38.86,197.06 38.86,202.85 36.84,202.85 36.84,199.93 17.88,199.93 17.88,202.85 15.86,202.85 
						15.86,197.06 					"/>
					<path class="st18" d="M12.32,196.24c0,0.62,0.5,1.13,1.12,1.13h27.82c0.62,0,1.13-0.5,1.13-1.13l0,0c0-0.62-0.5-1.13-1.13-1.13
						H13.45C12.83,195.11,12.32,195.61,12.32,196.24L12.32,196.24z"/>
					<path class="st18" d="M13.22,189.48c0,0.62,0.5,1.13,1.13,1.13h26.02c0.62,0,1.12-0.5,1.12-1.13l0,0c0-0.62-0.5-1.13-1.12-1.13
						H14.35C13.73,188.36,13.22,188.86,13.22,189.48L13.22,189.48z"/>
					<path class="st16" d="M36.13,189.48c0,0.31,0.25,0.56,0.55,0.56c0.31,0,0.55-0.25,0.55-0.56c0-0.31-0.25-0.55-0.55-0.55
						C36.37,188.93,36.13,189.18,36.13,189.48z"/>
					<path class="st16" d="M17.82,189.48c0,0.31,0.25,0.56,0.55,0.56c0.31,0,0.55-0.25,0.55-0.56c0-0.31-0.25-0.55-0.55-0.55
						C18.06,188.93,17.82,189.18,17.82,189.48z"/>
					<path class="st18" d="M13.22,192.94c0,0.62,0.5,1.13,1.13,1.13h26.02c0.62,0,1.12-0.5,1.12-1.13l0,0c0-0.62-0.5-1.13-1.12-1.13
						H14.35C13.73,191.81,13.22,192.32,13.22,192.94L13.22,192.94z"/>
					<path class="st16" d="M36.13,192.94c0,0.31,0.25,0.55,0.55,0.55c0.31,0,0.55-0.25,0.55-0.55c0-0.31-0.25-0.55-0.55-0.55
						C36.37,192.39,36.13,192.63,36.13,192.94z"/>
					<path class="st16" d="M17.82,192.94c0,0.31,0.25,0.55,0.55,0.55c0.31,0,0.55-0.25,0.55-0.55c0-0.31-0.25-0.55-0.55-0.55
						C18.06,192.39,17.82,192.63,17.82,192.94z"/>
				</g>
			</g>
			<g>
				<g class="st9">
					<path class="st10" d="M94.1,195.07c0,0.24,4.12,0.43,9.19,0.43c5.07,0,9.19-0.19,9.19-0.43c0-0.24-4.11-0.43-9.19-0.43
						C98.21,194.65,94.1,194.84,94.1,195.07z"/>
				</g>
				<g>
					<path class="st16" d="M109.84,190.99v-7.54c0-0.5,0.4-0.9,0.9-0.9s0.9,0.4,0.9,0.9v7.54H109.84z"/>
					<path class="st16" d="M95.21,190.99v-7.54c0-0.5,0.4-0.9,0.9-0.9s0.9,0.4,0.9,0.9v7.54H95.21z"/>
					<polygon class="st17" points="112.48,190.61 112.48,195.23 110.86,195.23 110.86,192.9 95.72,192.9 95.72,195.23 94.1,195.23 
						94.1,190.61 					"/>
					<path class="st18" d="M91.28,189.95c0,0.5,0.4,0.9,0.9,0.9h22.22c0.5,0,0.9-0.4,0.9-0.9l0,0c0-0.5-0.4-0.9-0.9-0.9H92.18
						C91.68,189.05,91.28,189.45,91.28,189.95L91.28,189.95z"/>
					<path class="st18" d="M92,184.56c0,0.5,0.4,0.9,0.9,0.9h20.78c0.5,0,0.9-0.4,0.9-0.9l0,0c0-0.5-0.4-0.9-0.9-0.9H92.9
						C92.4,183.66,92,184.06,92,184.56L92,184.56z"/>
					<path class="st16" d="M110.29,184.56c0,0.24,0.2,0.44,0.44,0.44c0.24,0,0.44-0.2,0.44-0.44s-0.2-0.44-0.44-0.44
						C110.49,184.11,110.29,184.31,110.29,184.56z"/>
					<path class="st16" d="M95.67,184.56c0,0.24,0.2,0.44,0.44,0.44c0.24,0,0.44-0.2,0.44-0.44s-0.2-0.44-0.44-0.44
						C95.86,184.11,95.67,184.31,95.67,184.56z"/>
					<path class="st18" d="M92,187.31c0,0.5,0.4,0.9,0.9,0.9h20.78c0.5,0,0.9-0.4,0.9-0.9l0,0c0-0.5-0.4-0.9-0.9-0.9H92.9
						C92.4,186.41,92,186.82,92,187.31L92,187.31z"/>
					<path class="st16" d="M110.29,187.31c0,0.24,0.2,0.44,0.44,0.44c0.24,0,0.44-0.2,0.44-0.44c0-0.24-0.2-0.44-0.44-0.44
						C110.49,186.87,110.29,187.07,110.29,187.31z"/>
					<path class="st16" d="M95.67,187.31c0,0.24,0.2,0.44,0.44,0.44c0.24,0,0.44-0.2,0.44-0.44c0-0.24-0.2-0.44-0.44-0.44
						C95.86,186.87,95.67,187.07,95.67,187.31z"/>
				</g>
			</g>
		</g>
	</g>
	<g>
		<path class="st19" d="M382.29,210.81c0,0,0.01,0.08,0.01,0.21c0,0.39-0.07,1.25-0.61,1.89c-0.72,0.85-0.72,1.9,0.04,2.09
			c0.76,0.18,2.57-0.06,2.57-0.06s0.41-0.81,0.13-2.96c-0.28-2.16-0.44-4.52-0.44-4.52l-2.06-0.37L382.29,210.81z"/>
		<path class="st20" d="M381.89,211.73c0,0-0.77,1.18-0.95,1.67c-0.18,0.49-0.14,1.72,0,1.84c1.24,1.11,3.59,0.11,3.59,0.11
			s0.16-0.81,0.24-1.81c0.08-1,0.04-1.93-0.24-1.93c-0.28,0-0.33,0.52-0.96,0.38C382.93,211.84,382.54,211.58,381.89,211.73"/>
		<path class="st15" d="M384.72,214.04c-0.48,0.21-1.13,0.46-1.73,0.56c-0.64,0.1-1.51-0.22-2.16-0.55
			c-0.03,0.52,0.01,1.11,0.11,1.19c1.24,1.11,3.59,0.11,3.59,0.11S384.64,214.8,384.72,214.04"/>
		<path class="st19" d="M376.33,209.39c0.27,0.96,0,2.01-0.68,2.64c-0.24,0.22-0.51,0.42-0.82,0.58c-1.2,0.6-2.76,0.46-2.98,1.69
			c-0.22,1.23,7.63-0.34,7.63-0.34s-0.54-2.98-0.58-3.48c-0.04-0.5,0.05-2.33,0.05-2.33l-3.03-0.25L376.33,209.39z"/>
		<path class="st20" d="M379.15,211.84c0,0,0.1,0.47,0.32,1.28c0.22,0.8,0.08,1.56,0.08,1.56s-7.35,0.39-7.64,0.13
			c-0.3-0.26-0.14-1.22-0.07-1.31c0.08-0.08,1.01-0.37,1.49-0.71c0.48-0.33,2.11-1.6,2.66-1.55c0.55,0.05,0.81,0.51,1.85,0.57
			C378.89,211.86,378.89,211.61,379.15,211.84"/>
		<path class="st15" d="M371.91,214.81c0.3,0.26,7.64-0.13,7.64-0.13s0.09-0.5,0.01-1.11c-3.84,0.81-7.72-0.07-7.72-0.07
			C371.76,213.58,371.61,214.54,371.91,214.81"/>
		<path class="st21" d="M379.56,213.56c-2.62,0.59-5.52,0.47-7.72-0.07c4,0.69,7.22,0.15,7,0.18
			C378.85,213.67,379.61,213.56,379.56,213.56"/>
		<path class="st20" d="M385.33,180.09l-0.69,30.17l-3.3-0.47c0,0-1.05-24.21-1.66-24.93c-0.61-0.72-0.86,0.05-0.86,0.05
			s-2.63,10.07-2.14,12.08c0.49,2.01,2.68,12.77,2.68,12.77l-3.17,0.14c0,0-3.61-8.25-3.61-13.99c0-5.74,2.23-15.29,2.23-15.29
			L385.33,180.09z"/>
	</g>
	<rect x="375.66" y="209" class="st22" width="3.81" height="0.89"/>
	<rect x="381.08" y="209.15" class="st22" width="3.85" height="1.12"/>
	<g>
		<path class="st22" d="M383.93,209.59l-0.02,0c-0.05-0.01-0.09-0.07-0.07-0.14c0.61-3.2,0.65-23.96,0.65-24.17
			c0-0.06,0.04-0.11,0.1-0.11h0c0.05,0,0.1,0.05,0.1,0.11c0,0.86-0.04,21-0.65,24.22C384.01,209.55,383.97,209.59,383.93,209.59"/>
		<path class="st22" d="M378.81,209.59c-0.04,0-0.08-0.03-0.09-0.08c-0.15-0.47-3.63-11.62-3.43-13.16
			c0.19-1.52,2.42-11.07,2.51-11.48c0.01-0.06,0.07-0.1,0.12-0.08c0.05,0.02,0.08,0.08,0.07,0.14c-0.02,0.1-2.31,9.95-2.51,11.45
			c-0.19,1.48,3.39,12.93,3.42,13.04c0.02,0.06-0.01,0.13-0.06,0.15L378.81,209.59z"/>
	</g>
	<polygon class="st23" points="375.39,158.96 370.78,165.04 376.21,167.03 	"/>
	<g>
		<path class="st24" d="M387.39,157c-0.7-0.7-2.33-1.21-3.39-1.49c-0.61-0.16-1.25-0.19-1.87-0.11l-2.39,0.32c0,0-3.11,2-4.27,3.16
			c-1.17,1.17-2.22,8.46-2.22,8.46l0.53,2.78l-0.61,12.24c0.27,0,8.29,0.98,12.75-0.36c0,0,0-6.53,0.12-10.49
			C386.55,168.51,388.31,157.93,387.39,157"/>
		<path class="st25" d="M387.34,156.95c-0.37-0.34-0.93-0.62-1.4-0.81l0,0c0,0-0.88-0.48-1.68,2.82c-0.8,3.3,0.22,7.33-0.14,7.68
			c-0.36,0.36-8.16-0.05-8.16-0.05s4.56,2.62,6.79,4.53c0.89,0.77,3.26,1.17,3.26,1.14c0.01-0.26,0.01-0.51,0.02-0.75
			C386.28,170.06,388.41,157.95,387.34,156.95"/>
		<path class="st26" d="M367.65,163.91l3.92,7.4c0.09,0.17,0.28,0.28,0.47,0.27l4.66-0.27c0.33-0.02,0.55-0.36,0.44-0.68l-2.4-6.76
			c-0.07-0.19-0.24-0.32-0.44-0.33l-6.17-0.37C367.73,163.15,367.46,163.57,367.65,163.91"/>
		<path class="st27" d="M377.5,170.6l-2.43-6.7c-0.07-0.19-0.24-0.32-0.45-0.33l-0.24-0.01c0.14,0.05,0.25,0.16,0.31,0.31l2.43,6.76
			c0.1,0.29-0.07,0.6-0.36,0.67l0.3-0.02C377.39,171.25,377.62,170.91,377.5,170.6"/>
		<path class="st28" d="M386.28,166.01l-0.37,1.33c0,0-7.88-2.03-8.8-2.48c-0.75-0.36-3.72-1.15-4.83-1.08
			c-0.18,0.01-0.2,0.27-0.03,0.31c0.7,0.17,2.08,0.52,2.08,0.66c0,0.18-1.4,0.46-1.29,0.68c0.2,0.46,0.89,0.72,1.02,1.15
			c0.13,0.43,1.55,0.09,2.03,0.09c0.48,0,9.47,5.46,12.19,4.16c2.72-1.29,1.07-7.04,1.07-7.04L386.28,166.01z"/>
		<path class="st28" d="M371.5,168.85c-0.18-0.18-0.17-0.62-0.38-0.83c-0.21-0.21-0.43,0.21-0.49-0.26
			c-0.06-0.47,0.28-1.2-0.05-1.17c-0.32,0.04-0.77,1.37-0.77,1.37c-0.23,0.54,0.81,2.57,1.37,2.43c0.55-0.14,0.77-0.8,0.77-1.1
			C371.96,168.99,371.68,169.03,371.5,168.85"/>
		<path class="st15" d="M379.73,155.72L379.73,155.72l-0.01,0.01l-0.01,0l-0.01,0.01l-0.01,0l-0.02,0.01l-0.01,0l-0.02,0.01l0,0
			l-0.01,0l-0.01,0l-0.01,0.01l-0.01,0l-0.05,0.03l-0.01,0.01c-0.3,0.19-0.93,0.61-1.63,1.1c0,0-0.29,1.17-0.15,1.92
			c0.14,0.75,0.43,0.98,0.85,0.82c0.42-0.17,1.2-1.28,1.38-1.21c0.18,0.06,1.38,1.57,1.97,1.34c0.39-0.16,1.57-2.73,2.15-4.26
			c-0.04-0.01-0.08-0.02-0.13-0.03c-0.61-0.16-1.25-0.19-1.87-0.11L379.73,155.72L379.73,155.72L379.73,155.72z"/>
		<path class="st28" d="M377.93,154.34l0.53,2.64c0,0,0.5,1.5,1.47,1.5c0.97,0,2.55-3.12,2.55-3.12l-2.27-2.99L377.93,154.34z"/>
		<path class="st28" d="M377.93,154.34l0.53,2.64c0,0,0.5,1.5,1.47,1.5c0.97,0,2.55-3.12,2.55-3.12l-2.27-2.99L377.93,154.34z"/>
		<path class="st29" d="M380.2,152.37l-2.27,1.97l0.28,1.42c1.22-0.23,2.34-1.24,2.54-2.66L380.2,152.37z"/>
		<path class="st28" d="M375.54,148.44c0,0-0.44,6.01,1.3,6.55c1.75,0.54,3.94-0.75,3.94-2.77
			C380.78,150.19,380.01,146.12,375.54,148.44"/>
		<path class="st30" d="M377.15,147.08c0,0-3.3-0.68-3.41,0.28c-0.11,0.96,1.01,1.57,1.75,1.57c0.74,0,2.62-0.26,3.25,0.37
			c0.63,0.63,1.92,3.69,1.92,3.69l0.66,0.86c0,0,0.1-1.67,0.85-2.76c0.75-1.08,0.13-2.78-0.77-3.91
			C380.5,146.06,377.88,147.08,377.15,147.08"/>
		<path class="st28" d="M379.54,150.88c0,0,0.24-0.86,0.7-0.78c1.05,0.18,0.45,2.08,0.12,2.16
			C379.68,152.43,379.35,151.91,379.54,150.88"/>
		<path class="st31" d="M384.47,159.55c-0.03,1.97,1.03,7.79,1.03,7.79s4.14-0.08,4.48-0.42c0.33-0.33-0.73-9.12-2.56-10.35
			C385.23,155.11,384.5,157.65,384.47,159.55"/>
		<path class="st26" d="M380.33,163.36c-0.12,0-0.3-0.02-0.46-0.15c-0.18-0.15-0.27-0.39-0.27-0.73c0-0.95,0.17-3.5,0.17-3.52
			c0-0.03,0.03-0.06,0.07-0.06c0.03,0,0.06,0.03,0.06,0.07c0,0.03-0.17,2.57-0.17,3.51c0,0.29,0.08,0.5,0.22,0.63
			c0.2,0.17,0.48,0.12,0.48,0.12c0.03-0.01,0.07,0.02,0.07,0.05c0.01,0.03-0.02,0.07-0.05,0.07
			C380.45,163.35,380.4,163.36,380.33,163.36"/>
		<path class="st26" d="M380.49,159.51c0,0.08-0.07,0.15-0.15,0.15c-0.08,0-0.15-0.07-0.15-0.15s0.07-0.15,0.15-0.15
			C380.42,159.36,380.49,159.43,380.49,159.51"/>
		<path class="st26" d="M380.49,160.95c0,0.08-0.07,0.15-0.15,0.15c-0.08,0-0.15-0.07-0.15-0.15s0.07-0.15,0.15-0.15
			C380.42,160.8,380.49,160.87,380.49,160.95"/>
		<path class="st26" d="M380.49,162.41c0,0.08-0.07,0.15-0.15,0.15c-0.08,0-0.15-0.07-0.15-0.15s0.07-0.15,0.15-0.15
			C380.42,162.27,380.49,162.33,380.49,162.41"/>
		<path class="st32" d="M343.81,149.92c0,0-3.43-0.88-3.83,2.77c-0.41,3.65,1.45,4.21,0.44,5.97c-1.01,1.76-2.14,0.44-2.36,5.44
			c-0.22,5,12.26,7.83,14.24,4.09c1.38-2.6,2.72-2.58,3.96-2.57c0.55,0.01,1.07,0.01,1.57-0.2c2.94-1.27,2.38-7.69-1.55-7.34
			c-3.93,0.35-5.79,0.55-5.32-2.41c0.47-2.95-0.88-5.46-2.67-6.53C346.5,148.07,344.22,148.07,343.81,149.92"/>
		<path class="st19" d="M334.31,211.51c0,0,0.06,0.95-0.42,1.49c-0.48,0.54-2.29,0.83-2.53,1.44c-0.24,0.62,1.82,0.65,2.51,0.46
			c0.69-0.19,2.49-0.34,2.94-0.36c0.45-0.02-0.58-3.01-0.67-3.1C336.04,211.37,334.31,211.51,334.31,211.51"/>
		<path class="st19" d="M344.83,210.92c0,0-0.45,2.01-0.4,2.78c0.04,0.77,0.99,1.98,1.71,1.94c0.72-0.04,1.33-0.52,1.15-1.47
			c-0.18-0.94-0.73-3.18-0.73-3.18L344.83,210.92z"/>
		<path class="st33" d="M350.21,177.03c0,0,0.46-15.29-0.26-16.02c-0.29-0.29-2.67-1.08-4.29-1.34c-2.43-0.4-4.33-0.23-4.33-0.23
			s-2.48,2.97-2.48,4.07s-0.16,13.63-0.16,13.63c-1.92,0.71-4.88,13.4-5.1,16.67c-0.22,3.27,0.26,18.49,0.26,18.49l2.79-0.3
			c1.52-2.39,2.21-14.97,2.66-16.54c0.61-2.16,3.5-8.78,3.5-8.78l1.49-0.65c0,0-0.34,9.98-0.22,12.28
			c0.13,2.3-0.02,13.44-0.02,13.44l2.8-0.15c2.19-3.93,3.76-22.07,3.71-23.01c-0.05-0.95,0.92-2.51,1.12-5.23
			C351.82,181.21,350.21,177.03,350.21,177.03"/>
	</g>
	<rect x="340.34" y="176.64" class="st15" width="4.97" height="0.53"/>
	<g>
		<path class="st30" d="M343.16,177.38h-0.73c-0.24,0-0.43-0.19-0.43-0.43c0-0.24,0.19-0.43,0.43-0.43h0.73
			c0.24,0,0.43,0.19,0.43,0.43S343.4,177.38,343.16,177.38"/>
		<path class="st34" d="M346.24,162.29c-0.34,2.43-1.03,6.03-1.74,8.22c-0.62,1.92-0.57,4.25-0.35,6.14h1.16v0.53h-1.09
			c0.15,1.14,0.38,2.24,0.64,3.2c0.06,0.02,1.6,0.85,4.28,0.85c0.11-0.01,1.12-0.07,2.26-0.25c-0.04-0.18-0.08-0.35-0.12-0.53
			c-0.62,0.16-1.37,0.24-2.14,0.24c-1.37,0-2.82-0.24-3.83-0.69l0.13-4.15c-0.12,0-0.41,0.01-0.82,0.03
			c-0.03-0.42-0.06-0.85-0.07-1.28h0.93l0.09-2.91L346.24,162.29z"/>
		<path class="st35" d="M345.31,176.64h-1.16c0.01,0.11,0.03,0.23,0.04,0.34h0c0.01,0.06,0.02,0.13,0.03,0.19h1.09V176.64z"/>
		<polyline class="st36" points="341.36,159.44 341.36,159.44 341.36,159.44 		"/>
		<path class="st34" d="M341.36,159.44C341.36,159.44,341.36,159.44,341.36,159.44c-0.04,0.21-1.75,9.43-1.75,10.06
			c0,0.31,0.41,2.78,0.83,5.24c0.07,0.44,0.15,0.87,0.22,1.3h0c0.03,0.2,0.07,0.4,0.1,0.59h0.65
			C340.52,169.05,341.34,159.59,341.36,159.44 M341.47,177.17h-0.62c0.28,1.6,0.49,2.81,0.49,2.81c-0.33,0.08-0.7,0.12-1.06,0.12
			c-1.26,0-2.59-0.4-3.13-0.58c-0.17,0.41-0.34,0.87-0.52,1.35c0.87,0.05,1.82,0.09,2.68,0.09c1.42,0,2.57-0.11,2.67-0.44
			C342.04,180.34,341.63,178.35,341.47,177.17"/>
		<path class="st35" d="M341.4,176.64h-0.65c0.03,0.18,0.06,0.35,0.09,0.53h0.62c-0.01-0.07-0.02-0.13-0.03-0.19h0
			C341.42,176.86,341.41,176.75,341.4,176.64"/>
		<path class="st37" d="M352.92,179.03c0,1.92-5.16,2.05-7.61,0.95l0.27-8.31l0.84-11.84c0,0,3.1,0.62,4.16,1.33
			c0,0,0.34,12.31,0.64,14.81C351.52,178.48,352.92,178.15,352.92,179.03"/>
		<path class="st37" d="M338.59,160.12c0,0-1.21,9.8-1.21,12.35s-0.48,6.96-0.48,6.96s2.61,1,4.43,0.55c0,0-1.73-9.83-1.73-10.47
			s1.76-10.07,1.76-10.07S339.69,159.53,338.59,160.12"/>
	</g>
	<polygon class="st30" points="336.97,212.19 333.59,212.41 333.58,211.54 337.11,211.35 	"/>
	<polygon class="st30" points="347.22,211.63 343.86,211.85 343.84,210.98 347.36,210.79 	"/>
	<g>
		<path class="st22" d="M336.61,212.82c-0.27,0.34-1.14,1.03-3.69,0.72c-0.66,0.27-1.42,0.52-1.57,0.9
			c-0.24,0.62,1.82,0.65,2.51,0.46c0.69-0.19,2.49-0.34,2.94-0.36C337.05,214.54,336.86,213.64,336.61,212.82"/>
		<path class="st22" d="M344.43,213.71c0.04,0.77,0.99,1.98,1.71,1.94c0.72-0.04,1.33-0.52,1.15-1.47
			c-0.06-0.32-0.16-0.78-0.27-1.26c-0.09,0.59-0.37,1.59-1.14,1.24c-0.84-0.37-1.21-1.24-1.35-1.58
			C344.46,213.01,344.42,213.43,344.43,213.71"/>
		<path class="st38" d="M337.29,174.91L337.29,174.91c0,0.04-0.01,0.08-0.01,0.12C337.28,174.99,337.29,174.95,337.29,174.91"/>
		<path class="st39" d="M340.43,174.75L340.43,174.75c0.07,0.44,0.15,0.87,0.22,1.3C340.58,175.62,340.5,175.18,340.43,174.75"/>
		<path class="st40" d="M340.43,174.75l-3.14,0.17c0,0.04-0.01,0.08-0.01,0.12c-0.03,0.4-0.05,0.8-0.09,1.19
			c0.98-0.05,2.23-0.11,3.45-0.17C340.58,175.62,340.5,175.18,340.43,174.75"/>
		<path class="st39" d="M345.48,174.58h-0.93c0.01,0.44,0.03,0.87,0.07,1.28c0.41-0.02,0.7-0.03,0.82-0.03L345.48,174.58z"/>
		<path class="st38" d="M351.19,175.76c0.01,0.08,0.02,0.15,0.02,0.21c0.02,0.14,0.04,0.28,0.06,0.4
			C351.24,176.2,351.22,175.99,351.19,175.76"/>
		<path class="st40" d="M351.1,174.58h-5.62l-0.04,1.25c0.01,0,0.01,0,0.02,0c0.76,0,3.72,0.81,4.8,0.81c0.41,0,0.75-0.12,1.02-0.26
			c-0.02-0.13-0.04-0.26-0.06-0.4c-0.01-0.06-0.02-0.13-0.02-0.21C351.15,175.39,351.13,174.97,351.1,174.58"/>
	</g>
	
		<rect x="350.11" y="174.59" transform="matrix(0.9998 -0.0175 0.0175 0.9998 -3.0823 6.176)" class="st41" width="0.71" height="8.36"/>
	<g>
		<path class="st35" d="M350.56,188.25c-0.02,0.12-0.02,0.23-0.02,0.33c0.01,0.15-0.02,0.69-0.09,1.53c0,0,0,0,0,0
			c0.07-0.87,0.1-1.44,0.09-1.59C350.54,188.44,350.55,188.35,350.56,188.25"/>
		<path class="st34" d="M347.14,185.86l0.21,3.32c0,0,1.21,0.93,3.06,0.93c0.01,0,0.03,0,0.04,0c0.06-0.84,0.09-1.38,0.09-1.53
			c-0.01-0.1,0-0.21,0.02-0.33c0.04-0.38,0.19-0.84,0.37-1.42L347.14,185.86z"/>
		<path class="st37" d="M338.61,160.14c0,0-0.92,0.19-2.21,4.53c-1.29,4.33-0.43,9.9,0.46,10.48c0.89,0.58,9.56,0.36,9.56,0.36
			l0.03-3.12c0,0-6.56-1.03-7.21-1.82c-0.16-0.2,0.11-1.03,0.06-1.99C339.13,165.65,338.61,160.14,338.61,160.14"/>
		<path class="st42" d="M338.94,170.1c0,0-0.9-0.62-1.23-1.03c-0.34-0.41-1.01-0.97-1.04-0.67c-0.03,0.29,0.28,0.72,0.28,0.72
			s-1.23-0.86-1.39-0.72c-0.16,0.13-0.32,1.05-0.21,2.06c0.11,1.01,2.99,1.75,2.99,1.75L338.94,170.1z"/>
		<path class="st43" d="M350.09,188.8l-0.26,0.03c-1.48,0.21-2.55-0.38-2.58-0.94l-0.27-5.25l2.88-0.29
			c0.56-0.06,1.08,0.29,1.25,0.82l1.34,4.3C352.62,188.04,351.53,188.65,350.09,188.8"/>
		<path class="st41" d="M347.23,187.74l-0.41-5.08l0.46-0.05c0.56-0.06,1.08,0.33,1.18,0.88l0.74,3.99
			C349.42,188.78,347.33,189.06,347.23,187.74"/>
	</g>
	<polygon class="st41" points="346.84,183.28 338.79,159.95 339.39,159.73 347.45,183.05 	"/>
	<g>
		<path class="st44" d="M350.39,175.99c-3.12,0.52-9.72-1.8-12.39-2.64l1-3.47c0,0,7.88,2.18,8.91,1.72
			c0.51-0.23,1.82-2.65,2.3-5.12c0.49-2.52,0.37-5.31,0.37-5.31s2.26,2.96,1.62,9.23C351.71,175.17,351.77,175.76,350.39,175.99"/>
		<path class="st42" d="M349.6,168.87c0,0-0.74,0.62-1.31,1.09c-0.58,0.47-1.48,1.73-1.48,1.73s1.07,0.25,1.44,0.29
			c0.37,0.04,1.61-0.65,2.04-0.6c0.43,0.04,0.3-0.59-0.22-0.48c-0.53,0.11-1.04,0.16-1.04,0.16s1.23-0.81,1.81-1.28
			c0.58-0.47,0.11-0.82-0.36-0.44c-0.47,0.38-0.98,0.6-0.98,0.6s1.66-1.4,1.42-1.7C350.67,167.96,349.6,168.87,349.6,168.87"/>
		<path class="st41" d="M351.81,185.46c-0.2,0.25-0.47,0.48-0.82,0.62c-1.26,0.5-3.02-1.56-3.04-1.58l-0.08,0.07
			c0.07,0.08,1.46,1.7,2.69,1.7c0.16,0,0.32-0.03,0.47-0.09c0.35-0.14,0.61-0.35,0.82-0.59L351.81,185.46z"/>
		<path class="st45" d="M345.35,156.15c0,0-0.16,2.48,0,3.04c0.04,0.16,0.14,0.29,0.25,0.39c0.59,0.52-1.3,5.83-1.87,5.63
			c-0.62-0.22-1.73-3.82-2.08-4.98c-0.11-0.35,0.08-0.72,0.43-0.82l0,0c0.58-0.17,0.78-4.72,0.78-4.72L345.35,156.15z"/>
		<path class="st46" d="M343.24,154.56c0,0-0.01,0.11-0.02,0.3c0,0.01,0,0.03,0,0.04l2.12,1.25c0,0-0.1,1.59-0.06,2.51
			c0.14,0.08,0.28,0.14,0.41,0.17c-0.09-0.82,0.04-2.82,0.04-2.82L343.24,154.56z"/>
		<path class="st47" d="M343.23,154.9c-0.02,0.37,0.03,0.74,0.15,1.09c0.47,1.39,1.23,2.29,1.91,2.68
			c-0.04-0.92,0.06-2.51,0.06-2.51L343.23,154.9z"/>
		<path class="st48" d="M342.9,152.77c0,0,0.44-1.78,1.8-2.28c1.35-0.5,2.57-0.07,3,1.69c0.43,1.76-0.31,4.52-1.14,5.36
			C345.72,158.37,342.91,156.88,342.9,152.77"/>
		<path class="st48" d="M343.29,153.35c0,0-0.65-1.06-1.07-0.46c-0.43,0.59-0.09,2.04,0.69,2.13
			C343.68,155.11,343.29,153.35,343.29,153.35"/>
		<path class="st49" d="M230.76,185.98l-0.03-0.02c-0.1-0.07-0.39-0.26-0.61-0.28c-0.26-0.03-0.54,0.01-0.54,0.01l0.44,0.5
			L230.76,185.98z"/>
		<path class="st50" d="M231.18,204.68c-0.22,0-0.39-0.18-0.39-0.39c0-5.2,4.23-9.44,9.44-9.44c2.23,0,4.39,0.79,6.09,2.23
			c0.17,0.14,0.19,0.39,0.05,0.55c-0.14,0.17-0.39,0.19-0.55,0.05c-1.56-1.32-3.54-2.05-5.59-2.05c-4.77,0-8.65,3.88-8.65,8.65
			C231.57,204.51,231.39,204.68,231.18,204.68"/>
		<path class="st51" d="M225.1,204.11c-0.11,0-0.23-0.06-0.29-0.17l-7.2-12.87c-0.09-0.16-0.03-0.36,0.13-0.44
			c0.16-0.09,0.36-0.03,0.44,0.13l7.46,12.84c0.09,0.16-0.23,0.39-0.39,0.48C225.21,204.1,225.15,204.11,225.1,204.11"/>
		<path class="st51" d="M225.36,204.09l-10.76-0.12l5.42-9.34l12.68-2.34L225.36,204.09z M233.7,191.85L233.7,191.85
			c0.01-0.21-0.18-0.38-0.39-0.34l-13.71,2.53c-6.32,10.89-5.99,10.16-5.86,10.4c0.17,0.34-0.15,0.1,11.97,0.31
			C233.82,191.74,233.69,192.02,233.7,191.85"/>
		<path class="st52" d="M235.16,201.63c-0.05,0-0.09,0.03-0.12,0.07c-0.41,0.81-0.62,1.68-0.62,2.59c0,3.13,2.54,5.67,5.67,5.67
			c0.82,0,1.61-0.17,2.36-0.51c0.07-0.03,0.09-0.11,0.06-0.17c-0.02-0.05-0.07-0.08-0.12-0.08c-0.02,0-0.04,0-0.05,0.01
			c-0.71,0.32-1.46,0.49-2.25,0.49c-2.98,0-5.41-2.43-5.41-5.41c0-0.87,0.2-1.7,0.6-2.47c0.03-0.06,0.01-0.14-0.06-0.18
			C235.2,201.63,235.18,201.63,235.16,201.63"/>
		<path class="st53" d="M240.08,196.98c-4.03,0-7.31,3.28-7.31,7.31c0,4.03,3.28,7.31,7.31,7.31c4.03,0,7.31-3.28,7.31-7.31
			C247.39,200.26,244.11,196.98,240.08,196.98 M240.08,212.64c-4.61,0-8.35-3.75-8.35-8.35c0-4.61,3.75-8.35,8.35-8.35
			c4.61,0,8.35,3.75,8.35,8.35C248.44,208.9,244.69,212.64,240.08,212.64"/>
		<path class="st52" d="M240.08,197.81c-3.57,0-6.48,2.91-6.48,6.48c0,3.57,2.91,6.48,6.48,6.48c3.57,0,6.48-2.91,6.48-6.48
			C246.57,200.71,243.66,197.81,240.08,197.81 M240.08,210.51c-3.43,0-6.22-2.79-6.22-6.22s2.79-6.22,6.22-6.22
			c3.43,0,6.22,2.79,6.22,6.22S243.51,210.51,240.08,210.51"/>
		<path class="st51" d="M240.22,204.62c-0.12,0-0.23-0.06-0.29-0.17l-8.79-15.99c-0.08-0.15-0.13-0.33-0.13-0.5v-1.04
			c0-0.2-0.05-0.41-0.11-0.45c-0.06-0.03-0.31,0.01-0.48,0.11l-1.53,0.92c-0.15,0.09-0.36,0.04-0.45-0.11
			c-0.09-0.15-0.04-0.36,0.11-0.45l1.53-0.92c0.33-0.2,0.86-0.28,1.19-0.09c0.33,0.19,0.38,0.6,0.38,0.98v1.04
			c0,0.06,0.02,0.13,0.05,0.19l8.79,15.99c0.09,0.16,0.03,0.36-0.13,0.44C240.33,204.6,240.27,204.62,240.22,204.62"/>
		<path class="st49" d="M224.84,180.11c-0.21-0.43-0.75-2.48-0.75-2.48l-3.4,0.22c0,0,1.61,3.54,1.95,4.23
			c0.94,0.84,4.76,3.42,5.12,3.7c0.16,0.13,0.42,0.36,0.54,0.58c0.27,0.47,0.34,0.7,0.59,1.16c0.28,0.53,1.93-0.29,1.93-0.75
			c0-0.32-0.65-0.84-1.16-1.26C229.42,185.32,225.02,180.5,224.84,180.11"/>
		<path class="st51" d="M221.92,171.72c-0.86,0.28-1.44,0.89-1.2,3.41c0.24,2.52,0.81,4.39,0.81,4.39s2.47,0.39,3.93-0.6
			C225.46,178.93,224.88,170.77,221.92,171.72"/>
		<path class="st53" d="M214.04,196.98c-4.03,0-7.31,3.28-7.31,7.31s3.28,7.31,7.31,7.31s7.31-3.28,7.31-7.31
			S218.07,196.98,214.04,196.98 M214.04,212.64c-4.61,0-8.35-3.75-8.35-8.35c0-4.61,3.75-8.35,8.35-8.35s8.35,3.75,8.35,8.35
			C222.39,208.9,218.64,212.64,214.04,212.64"/>
		<path class="st54" d="M214.04,198.07c-3.43,0-6.22,2.79-6.22,6.22c0,3.43,2.79,6.22,6.22,6.22s6.22-2.79,6.22-6.22
			C220.26,200.86,217.47,198.07,214.04,198.07 M214.04,210.77c-3.57,0-6.48-2.91-6.48-6.48c0-3.57,2.91-6.48,6.48-6.48
			c3.57,0,6.48,2.91,6.48,6.48C220.52,207.86,217.61,210.77,214.04,210.77"/>
		<path class="st54" d="M214.04,209.96c-3.13,0-5.67-2.54-5.67-5.67c0-0.91,0.21-1.78,0.62-2.59c0.03-0.06,0.11-0.09,0.18-0.06
			c0.06,0.03,0.09,0.11,0.06,0.18c-0.4,0.77-0.6,1.6-0.6,2.47c0,2.98,2.43,5.41,5.41,5.41c0.78,0,1.54-0.16,2.25-0.49
			c0.07-0.03,0.14,0,0.17,0.06c0.03,0.07,0,0.14-0.06,0.17C215.65,209.79,214.86,209.96,214.04,209.96"/>
		<path class="st54" d="M218.08,200.63c-0.03,0-0.07-0.01-0.1-0.04c-1.02-1.09-2.46-1.71-3.95-1.71c-0.07,0-0.13-0.06-0.13-0.13
			c0-0.07,0.06-0.13,0.13-0.13c1.56,0,3.07,0.65,4.14,1.79c0.05,0.05,0.05,0.14-0.01,0.18
			C218.14,200.62,218.11,200.63,218.08,200.63"/>
		<path class="st50" d="M219.88,197.78c-0.09,0-0.18-0.03-0.25-0.09c-1.56-1.32-3.54-2.05-5.59-2.05c-1.73,0-3.39,0.51-4.82,1.46
			c-0.18,0.12-0.42,0.07-0.54-0.11c-0.12-0.18-0.07-0.42,0.11-0.54c1.56-1.05,3.37-1.6,5.25-1.6c2.23,0,4.39,0.79,6.09,2.23
			c0.17,0.14,0.19,0.39,0.05,0.55C220.1,197.73,219.99,197.78,219.88,197.78"/>
		<path class="st55" d="M214.03,203.42c-0.05,0-0.1-0.04-0.1-0.1c0-0.06,0.04-0.1,0.1-0.11l11.5-0.53c0.05,0,0.1,0.04,0.11,0.1
			c0,0.06-0.04,0.1-0.1,0.11L214.03,203.42L214.03,203.42z"/>
		<path class="st55" d="M225.7,205.89L225.7,205.89l-11.67-0.53c-0.06,0-0.1-0.05-0.1-0.11c0-0.06,0.05-0.1,0.11-0.1l11.66,0.53
			c0.06,0,0.1,0.05,0.1,0.11C225.8,205.85,225.75,205.89,225.7,205.89"/>
		<path class="st54" d="M223.66,204.29c0,1.04,0.84,1.87,1.87,1.87c1.04,0,1.87-0.84,1.87-1.87c0-1.04-0.84-1.87-1.87-1.87
			C224.5,202.41,223.66,203.25,223.66,204.29"/>
		<path class="st54" d="M228.21,208.87c-0.04,0-0.09-0.02-0.11-0.06l-2.68-4.32c-0.04-0.06-0.02-0.14,0.04-0.18
			c0.06-0.04,0.14-0.02,0.18,0.04l2.68,4.32c0.04,0.06,0.02,0.14-0.04,0.18L228.21,208.87z"/>
		<path class="st55" d="M226.78,209.22c-0.13,0-0.24-0.09-0.26-0.22c-0.02-0.14,0.08-0.28,0.22-0.3l2.87-0.42
			c0.14-0.02,0.28,0.08,0.3,0.22c0.02,0.14-0.08,0.28-0.22,0.3l-2.87,0.42L226.78,209.22z"/>
		<path class="st55" d="M216.11,190.29h2.55c0.19,0,0.34,0.15,0.34,0.34v0.41c0,0.19-0.15,0.34-0.34,0.34h-3.21
			c-0.25,0-0.42-0.26-0.31-0.49C215.31,190.54,215.68,190.29,216.11,190.29"/>
		<path class="st55" d="M214.04,205.68c-0.77,0-1.39-0.63-1.39-1.39c0-0.77,0.63-1.39,1.39-1.39s1.39,0.63,1.39,1.39
			C215.43,205.06,214.8,205.68,214.04,205.68"/>
		<path class="st56" d="M212.84,204.29c0,0.66,0.53,1.19,1.19,1.19c0.66,0,1.19-0.53,1.19-1.19c0-0.66-0.53-1.19-1.19-1.19
			C213.38,203.1,212.84,203.63,212.84,204.29"/>
		<path class="st57" d="M214.37,204.29c0,0.19-0.15,0.34-0.34,0.34c-0.19,0-0.34-0.15-0.34-0.34c0-0.19,0.15-0.34,0.34-0.34
			C214.22,203.95,214.37,204.1,214.37,204.29"/>
		<path class="st56" d="M238.89,204.29c0,0.66,0.53,1.19,1.19,1.19c0.66,0,1.19-0.53,1.19-1.19c0-0.66-0.53-1.19-1.19-1.19
			C239.42,203.1,238.89,203.63,238.89,204.29"/>
		<path class="st57" d="M240.42,204.29c0,0.19-0.15,0.34-0.34,0.34s-0.34-0.15-0.34-0.34c0-0.19,0.15-0.34,0.34-0.34
			S240.42,204.1,240.42,204.29"/>
		<path class="st49" d="M230.64,185.84c0,0-0.36-0.39-0.92-0.35c-0.56,0.04-0.29,0.48-0.29,0.5l0.94,0.47c0,0-0.18-0.46-0.05-0.54
			C230.47,185.85,230.64,185.84,230.64,185.84"/>
		<path class="st49" d="M223.24,208.54l-0.1,1.74c-0.04,0.22-0.18,0.77-0.18,0.97c0,0.75,3.36-0.64,2.6-0.97
			c-0.07-0.03-0.42-0.26-0.45-0.52c-0.03-0.4-0.12-1.2-0.12-1.2L223.24,208.54z"/>
		<path class="st55" d="M225.56,210.26c0,0-0.79,0.23-1.19,0.29c-0.4,0.06-0.94-0.43-1.22-0.3c-0.31,0.14-0.28,1.57-0.28,1.57
			s4.21,0.25,5.39-0.14C228.73,211.54,227.17,210.8,225.56,210.26"/>
		<path class="st49" d="M215.85,208.7l-0.1,1.74c-0.04,0.22-0.18,0.77-0.18,0.97c0,0.75,3.36-0.64,2.6-0.97
			c-0.07-0.03-0.53-0.43-0.55-0.69c-0.03-0.4-0.02-1.02-0.02-1.02L215.85,208.7z"/>
		<path class="st55" d="M218.17,210.43c0,0-0.79,0.23-1.19,0.29c-0.4,0.06-0.94-0.43-1.22-0.3c-0.31,0.14-0.33,1.44-0.33,1.44
			s4.5,0.33,5.55,0.02C221.46,211.75,219.78,210.97,218.17,210.43"/>
		<path class="st53" d="M221.17,183.59l0.62,0.95l3.78,13.92l-0.12,10.68l-2.39,0.06c0,0-1.11-9.35-1.11-10.07
			c0-0.72-5.15-12.67-5.15-12.67L221.17,183.59z"/>
		<path class="st56" d="M221.07,184.5c0,0-2.04,10.86-2.04,12.71c0,1.85-0.85,12.21-0.85,12.21l-2.4-0.01c0,0-0.17-3.16-0.43-7.8
			c-0.04-0.73,0.05-2.2,0-2.95c-0.37-5.42-1.11-9.3-0.76-11.32c0.06-0.33,0.89-2.48,1.1-2.69
			C217.26,183.01,221.07,184.5,221.07,184.5"/>
		<path class="st53" d="M221.25,169.71c0,0-0.38-0.68-0.72-1.01c-0.33-0.33-0.79-1.29-0.65-2.39c0.14-1.1,0.98-1.53,1.45-1.66
			c0.46-0.13,2.2-0.12,2.78,0.16c0.58,0.29,0.28,2.49,0.28,2.49l-0.92,1.7L221.25,169.71z"/>
		<path class="st50" d="M223.44,171.86c0.04,0.04,1.14,2.45,0.93,4.18c-0.38,3.16-2,8.33-2.58,8.5c-4.66,1.4-6.36,0.35-6.36,0.35
			s1.85-9.61,2.91-11.78c0.44-0.91,0.99-1.68,2.01-1.84C220.59,171.24,222.53,170.95,223.44,171.86"/>
		<path class="st49" d="M223.23,170.04l0.21,1.9c0,0,0.05,0.53-0.22,0.74c-0.45,0.36-2.15-1.46-2.15-1.46l0.19-2.99L223.23,170.04z"
			/>
		<path class="st50" d="M221.2,169.13c0.42,1.21,1.54,1.8,2.14,1.89l-0.11-0.97l-1.97-1.81L221.2,169.13z"/>
		<path class="st49" d="M222.18,165.22c0.88-0.35,1.87,0.2,2.06,1.12c0.08,0.4,0.16,0.9,0.2,1.46c0.09,1.33-0.53,2.66-1.14,2.69
			c-0.61,0.03-2.32-0.75-2.48-2.64C220.72,166.68,221.25,165.59,222.18,165.22"/>
		<path class="st49" d="M221.27,167.97c0.01,0.29-0.17,0.54-0.41,0.55c-0.24,0.01-0.45-0.22-0.46-0.51
			c-0.01-0.29,0.17-0.54,0.41-0.55C221.05,167.45,221.26,167.68,221.27,167.97"/>
		<path class="st53" d="M220.81,167.46c0,0-0.13-0.63-0.07-1.24c0.06-0.61,0.56-1.47,1.18-1.59c0.62-0.13,2.07,0.11,2.25-0.29
			c0.19-0.39,0.19-0.35,0.25-0.42c0.15-0.14,1.01,0.44,0.97,1.48c-0.04,1.03-0.95,1-1.13,1.03c-0.18,0.03-1.79-0.65-2.28-0.62
			C221.49,165.84,220.81,167.46,220.81,167.46"/>
		<path class="st58" d="M228.02,185.64c-0.81-0.26-0.82-0.12-0.92-0.15c-0.12-0.04-1.2-1.4-1.2-1.4s-3.21-3.99-3.38-4.21l-1.37-5.06
			l-2.7-0.11c0,0,1.64,5.47,1.77,5.75c0.14,0.27,5.1,5.18,5.52,5.62c0,0,0.31,0.71,0.52,1.15c0.21,0.44,0.61,0.77,0.68,0.89
			c0.01,0.02,0.29,0.39,0.76,0.75c0.4,0.32,0.16-0.16,0.16-0.16s-0.65-0.72-0.58-0.76c0.05-0.03,0.38,0.38,0.82,0.74
			c0.11,0.09,0.23,0.18,0.33,0.26c0.27,0.21,0.48,0.11,0.23-0.16c-0.09-0.09-0.24-0.25-0.36-0.34c-0.13-0.1-0.22-0.24-0.32-0.34
			c-0.2-0.2-0.34-0.35-0.33-0.35c0.02,0,0.01-0.07,0.13,0.02c0.15,0.11,0.41,0.42,0.64,0.57c0.13,0.08,0.39,0.28,0.39,0.28
			s0.45,0.22,0.47,0.2c0.11-0.12-0.16-0.35-0.35-0.44c-0.09-0.12-0.38-0.31-0.38-0.31s-0.49-0.52-0.42-0.58
			c0.03-0.03,0.37,0.25,0.74,0.48c0.34,0.21,0.73,0.37,0.78,0.31c0.09-0.1-0.27-0.38-0.27-0.38s-0.26-0.18-0.34-0.24
			c-0.1-0.08-0.37-0.33-0.37-0.33s-0.91-0.92-0.84-0.98c0.07-0.06,0.32-0.13,0.4-0.09c0.08,0.04,0.18,0.18,0.25,0.22
			c0.08,0.04,0.21,0.03,0.26-0.06c0.05-0.09-0.25-0.41-0.25-0.41S228.25,185.71,228.02,185.64"/>
		<path class="st59" d="M222.03,177.53c0.1-0.13-0.45-5.05-1.34-5.52c-0.89-0.47-2.95,0.17-2.87,1.54c0.07,1.37,1.38,4.71,1.38,4.71
			S221.71,177.94,222.03,177.53"/>
		<path class="st60" d="M46.08,192.53c-0.16,0.01-0.6,0.15-1.24,1.37c-0.82,1.55-2.02,6.23-2.02,6.23l3.58,1.33l0.46-0.98l0.76-7.52
			C47.61,192.96,46.12,192.53,46.08,192.53"/>
		<path class="st51" d="M50.81,191.86c-1.02,0-3.55,0.3-4.73,0.68c0,0-0.86,7.42,0.78,13.06c0.37,1.26-0.3,5.23-0.3,5.23l10.6-0.14
			c0,0-1.26-9.6-0.78-11.15c0.47-1.55,0.48-6.95,0.48-6.95s-0.07-0.01-2.38-0.41C53.4,191.98,51.9,191.85,50.81,191.86"/>
		<path class="st49" d="M52.04,224.59c0,0-0.23,2.71-0.67,3.46c-0.43,0.75,0.02,2.02,0.05,2.2c0.02,0.17,0.91,0.42,2.32,0.27
			c1.41-0.15,1.38-0.47,1.27-1s-0.86-1.2-0.91-1.7s0.43-2.3,0.43-2.3L52.04,224.59z"/>
		<path class="st61" d="M47.75,208.59c0,0-7.32-0.41-8.95,0.58c-1.63,0.99,1.16,5.85,1.16,5.85s5.09-0.23,15.07,0.34
			c2.36,0.14,2.57-6.16,2.12-6.68C56.71,208.16,47.75,208.59,47.75,208.59"/>
		<path class="st62" d="M53.91,230.73c1.45-0.15,1.27-0.87,1.15-1.41c-0.07-0.34-0.49-0.74-0.74-1.11c-0.13,0.1-0.34,0.29-0.97,0.47
			c-0.65,0.19-1.55-0.19-2.12-0.43c-0.2,0.76-0.21,1.72-0.19,1.87C51.07,230.3,52.46,230.89,53.91,230.73"/>
		<path class="st63" d="M53.11,213.82c-0.29,2.21-1.74,13.23-1.74,13.23l3.36,0.42c0,0,4.13-14.38,3.92-16.58
			c-0.21-2.2-1.76-2.38-1.76-2.38S53.89,207.96,53.11,213.82"/>
		<path class="st49" d="M56.97,193.41c-0.99-0.37-1.48,8.56-1.61,12.24c-1.76,0.17-4.82,0-5.58-0.06c-0.36-0.03-1.18-0.33-1.54-0.38
			c-0.37-0.05-0.7-0.07-0.88-0.04c-0.07,0.01-1.9,0.76-2.05,0.92c-0.19,0.2-0.72,0.72-0.63,0.94c0.09,0.22,1.01-0.62,1.01-0.62
			l0.45-0.25c-0.56,0.55-1.63,1.27-1.47,1.53c0.15,0.26,1.11-0.48,1.8-0.97c-0.59,0.53-1.32,1.48-1.15,1.63
			c0.15,0.13,0.98-0.97,1.87-1.29c0.33-0.12,0.66,0.21,0.92,0.25c0.19,0.03,0.49,0.09,0.67,0.04l0.96-0.27
			c0.33,0.03,0.34,0.22,0.67,0.29c0.38,0.08,1.02,0.17,1.51,0.29c2.82,0.69,3.76,1.01,4.63,1.01
			C59.16,208.67,59.31,194.29,56.97,193.41"/>
		<path class="st60" d="M58.85,201.79c0.19-3.77,0.16-8.41-1.95-9.2c-0.83-0.31-2.3,1.57-2.04,9.28
			C55.99,201.96,57.64,202.04,58.85,201.79"/>
		<path class="st49" d="M41.87,227.22c0,0,0.48,0.86,0.1,1.57c-0.38,0.72-2.38,1.78-2.59,2.16c-0.21,0.39-0.13,0.67-0.13,0.67
			l5.95-1.46l-0.46-1.79l-0.56-1.24L41.87,227.22z"/>
		<path class="st62" d="M41.67,229.17c0,0,1.67,0.29,2.33-0.24c0.66-0.53,0.62-0.63,0.86-0.54c0.16,0.06,0.4,0.77,0.55,1.28
			c0.08,0.27-0.08,0.55-0.35,0.61l-6.19,1.53c-0.47,0.09-0.78-0.2-0.47-0.58c0.22-0.26,0.49-0.46,0.64-0.59
			C39.5,230.23,41.67,229.17,41.67,229.17"/>
		<path class="st63" d="M42.45,210.32c-0.47-1-1.55-2.29-3.44-1.51c-1.81,0.74-2.29,2.57-1.72,4.45s4.32,12.89,4.45,14.4l2.99,0.02
			c0,0-0.54-8.72-0.68-10.83C43.93,214.82,43.27,212.04,42.45,210.32"/>
		<path class="st55" d="M37.59,200.17H47.6c0.26,0,0.5,0.16,0.6,0.41l3.08,7.54h5.52c0.15,0,0.28,0.13,0.28,0.28
			c0,0.15-0.12,0.28-0.28,0.28H41.1c-0.43,0-0.82-0.25-1-0.65L37,201.1C36.8,200.66,37.12,200.17,37.59,200.17"/>
		<path class="st15" d="M42.98,204.57c0.07,0.34,0.36,0.57,0.66,0.51c0.3-0.06,0.48-0.38,0.41-0.72c-0.07-0.34-0.36-0.57-0.66-0.51
			C43.1,203.9,42.91,204.23,42.98,204.57"/>
		<path class="st64" d="M48.43,182.8c0.3-0.1,0.6-0.22,0.89-0.35c0.32-0.16,0.74-0.34,1.01-0.38c0.56-0.09,1.52-0.03,2.05,0.55
			c0.66,0.72,1.83,0.13,1.6,3.88c-0.27,4.25-2.63,3.78-2.69,3.71c-0.06-0.07-2.11-2.72-2.11-2.72s-0.72,1.57-0.72,1.51
			C48.46,188.93,44.81,184.02,48.43,182.8"/>
		<path class="st49" d="M50.22,190.51l-0.2,1.52c0,0-0.46,2.19,0.13,2.61c0.59,0.42,2.5-2.67,2.5-2.67l-0.2-3.84L50.22,190.51z"/>
		<path class="st50" d="M52.51,189.37c-0.49,1.31-1.64,2.12-2.46,2.43l0.17-1.29l2.22-2.39L52.51,189.37z"/>
		<path class="st49" d="M50.34,183.94c-1.24-0.2-2.36,0.8-2.33,2.05c0.01,0.54,0.06,1.22,0.17,1.95c0.27,1.75,1.47,3.29,2.26,3.16
			s2.78-1.65,2.43-4.14C52.65,185.4,51.65,184.15,50.34,183.94"/>
		<path class="st49" d="M52.32,187.24c0.07,0.39,0.38,0.65,0.69,0.6c0.31-0.05,0.51-0.41,0.45-0.8c-0.07-0.39-0.38-0.65-0.69-0.6
			C52.45,186.5,52.25,186.85,52.32,187.24"/>
		<path class="st64" d="M52.77,186.44c0,0-0.96,0.24-1.31-0.38s-1.62-1.94-3.23-1.39c-1.61,0.55,1.42-1.34,1.55-1.34
			c0.13,0,1.68-0.01,1.68-0.01s1.19,0.98,1.24,1.09c0.04,0.11,0.39,1.28,0.39,1.28L52.77,186.44z"/>
		<path class="st15" d="M51.02,189.01l-1.74,0.33c0,0,0.17,0.65,0.93,0.53C51.15,189.72,51.02,189.01,51.02,189.01"/>
	</g>
</g>
</svg>
