<?xml version="1.0" encoding="utf-8"?>
<!-- Generator: Adobe Illustrator 26.4.1, SVG Export Plug-In . SVG Version: 6.00 Build 0)  -->
<svg version="1.1" id="Ebene_1" xmlns="http://www.w3.org/2000/svg" xmlns:xlink="http://www.w3.org/1999/xlink" x="0px" y="0px"
	 viewBox="0 0 440 291" style="enable-background:new 0 0 440 291;" xml:space="preserve">
<style type="text/css">
	.st0{fill:#DAD8C7;}
	.st1{fill:#93C83D;}
	.st2{fill:#0D3E64;}
	.st3{fill:#1B3966;}
	.st4{fill:#FFFFFF;}
	.st5{fill:#A31518;}
	.st6{fill:#C51720;}
	.st7{fill:#F4A391;}
	.st8{fill:#848584;}
	.st9{fill:#A3A3A2;}
	.st10{fill:#0E2E35;}
	.st11{fill:#EE745A;}
	.st12{fill:#99C31D;}
</style>
<rect x="125.6" y="-0.4" class="st0" width="303.9" height="284.4"/>
<g>
	<path d="M171,46.6l-5.5,0.2l-1.8,9.8h-4.2l0.7-13.3h29l0.6,13.3h-3.9l-1.9-9.8l-5.3-0.2v26l6.1,0.5V76h-19.3v-2.9l5.6-0.5v-26H171z
		"/>
	<path d="M195,73.2c-1.9-2.3-2.9-5.4-2.9-9.3c0-2.7,0.5-5,1.5-6.9s2.4-3.4,4.2-4.4s3.9-1.5,6.4-1.5c3.1,0,5.4,0.8,7.1,2.3
		s2.5,3.8,2.5,6.6c0,1.9-0.1,3.4-0.4,4.5h-13.9c0.1,2.5,0.8,4.4,1.8,5.7c1.1,1.3,2.6,2,4.5,2c1.1,0,2.2-0.2,3.4-0.5
		c1.2-0.4,2.1-0.8,2.9-1.3l1.2,2.7c-0.8,0.9-2.1,1.7-3.9,2.4c-1.8,0.8-3.7,1.1-5.6,1.1C199.9,76.6,196.9,75.4,195,73.2z M206.7,61.6
		v-1.8c0-1.8-0.2-3.3-0.7-4.2c-0.5-1-1.3-1.5-2.6-1.5c-1.2,0-2.2,0.5-2.9,1.6s-1,3-1.1,5.9H206.7z"/>
	<path d="M224.7,64.2l-7.2-9.2l-2.2-0.5v-2.8H229v2.8l-2.7,0.5l3.1,4.4l1.1,1.8l1.1-1.8l3.2-4.4l-2.8-0.5v-2.8h9.7v2.8l-2.5,0.5
		l-6.7,8.3l7.5,9.6l2.4,0.4v2.9h-13.6v-2.9l2.4-0.4l-3-4.7l-1.3-1.9l-1,1.9l-3.2,4.7l3.2,0.4v2.9h-10.8v-2.9l2.7-0.4L224.7,64.2z"/>
	<path d="M246.9,75.1c-0.9-0.9-1.4-2.3-1.4-4.2V55.2h-2.7v-2.6l0.9-0.4c0.7-0.2,1.3-0.5,1.8-0.7c0.6-0.6,1.1-1.3,1.4-2.2
		c0.4-1.1,0.9-2.5,1.5-4.4h4.1l0.3,6.6h6.3v3.7h-6.2v11.7c0,1.6,0,2.7,0.1,3.4s0.3,1.1,0.5,1.3s0.7,0.3,1.4,0.3
		c1.4,0,2.7-0.2,3.9-0.7l0.9,2.8c-0.8,0.7-2,1.3-3.7,1.8c-1.6,0.5-3.2,0.7-4.9,0.7C249.2,76.5,247.8,76,246.9,75.1z"/>
	<path d="M282.7,64.3h-18v-4.6h18V64.3z"/>
</g>
<g>
	<path d="M163.1,104.2l-2.6-0.8V100l8-1h0.1l1.1,0.9v1.6v1c1-1,2.3-1.8,3.9-2.5s3.2-1,5-1s3.1,0.3,4.2,0.9c1,0.6,1.7,1.6,2.2,3
		s0.7,3.3,0.7,5.6v12.1l2.5,0.4v2.9h-12V121l2.2-0.4v-12c0-1.4-0.1-2.5-0.3-3.3s-0.5-1.3-1-1.7s-1.1-0.5-2-0.5
		c-1.3,0-2.9,0.6-4.6,1.9v15.6l2.4,0.4v2.9h-12.2V121l2.4-0.4L163.1,104.2L163.1,104.2z"/>
	<path d="M194.4,111.1c2.6-1.4,6.1-2.1,10.4-2.1v-0.9c0-1.1-0.1-1.9-0.4-2.5c-0.2-0.6-0.7-1.1-1.3-1.4c-0.6-0.3-1.5-0.5-2.7-0.5
		c-1.4,0-2.7,0.2-3.8,0.5s-2.3,0.8-3.5,1.3l-1.6-3.1c0.5-0.4,1.2-0.8,2.3-1.4c1.1-0.5,2.3-1,3.8-1.4s3-0.6,4.6-0.6
		c2.3,0,4.2,0.3,5.5,0.9c1.3,0.6,2.3,1.6,2.9,2.9c0.6,1.3,0.9,3.1,0.9,5.3v13.1h2.3v2.8c-0.7,0.1-1.6,0.3-2.8,0.4
		c-1.2,0.1-2.2,0.2-3.1,0.2c-1.1,0-1.9-0.2-2.2-0.5c-0.4-0.3-0.6-1-0.6-1.9v-1c-0.7,0.9-1.7,1.7-2.9,2.4c-1.2,0.7-2.7,1-4.3,1
		c-1.4,0-2.6-0.3-3.8-0.9c-1.1-0.6-2-1.5-2.7-2.6s-1-2.5-1-4C190.4,114.5,191.7,112.5,194.4,111.1z M203,120.1
		c0.6-0.3,1.2-0.7,1.7-1.1v-7c-2.3,0-4,0.4-5.1,1.2c-1.1,0.8-1.7,1.9-1.7,3.2c0,1.3,0.3,2.3,0.9,3.1c0.6,0.7,1.4,1.1,2.4,1.1
		C201.8,120.5,202.4,120.4,203,120.1z"/>
	<path d="M217.2,105.2c1.1-2,2.5-3.5,4.4-4.6s4.1-1.6,6.6-1.6c1.2,0,2.3,0.1,3.2,0.2c0.9,0.2,1.8,0.4,2.8,0.7
		c0.9,0.2,1.4,0.4,1.6,0.4l-0.3,8h-4.4l-1.1-5.1c-0.1-0.4-0.3-0.7-0.7-0.8s-0.9-0.2-1.4-0.2c-1.4,0-2.5,0.7-3.2,2
		c-0.8,1.3-1.2,3.6-1.2,6.7c0,3,0.5,5.3,1.5,6.9s2.3,2.4,4,2.4c2.2,0,4.2-0.6,6-1.7l1.2,2.6c-0.7,0.8-1.9,1.6-3.5,2.3
		s-3.4,1.1-5.4,1.1c-3.8,0-6.7-1.1-8.6-3.4s-2.9-5.3-2.9-9.1C215.6,109.4,216.2,107.1,217.2,105.2z"/>
	<path d="M241.1,92.3l-3.1-0.6V89l8.8-1.1h0.1l1.3,0.9v9.5l-0.4,3.9c0.9-0.8,2.1-1.6,3.6-2.3s3.1-1,4.9-1s3.3,0.3,4.3,1
		s1.7,1.7,2.2,3.1c0.4,1.4,0.6,3.2,0.6,5.5v12.1l2.7,0.4v2.9h-12.2V121l2.3-0.4v-12c0-2.1-0.2-3.5-0.7-4.3c-0.4-0.8-1.3-1.2-2.7-1.2
		c-0.8,0-1.6,0.2-2.5,0.5c-0.8,0.4-1.5,0.8-2.1,1.3v15.6l2.4,0.4v2.9h-12.1v-2.9l2.3-0.4V92.3H241.1z"/>
	<path d="M269,121.2l2.7-0.4v-16.5l-2.6-0.8v-3.4l7.3-1h0.1l1.2,0.9v1.1l-0.1,3.7h0.1c0.2-0.7,0.7-1.5,1.4-2.4
		c0.7-0.9,1.7-1.7,2.8-2.3c1.1-0.7,2.4-1,3.7-1c0.8,0,1.3,0.1,1.8,0.3v7.7c-0.5-0.4-1-0.6-1.5-0.8s-1.2-0.3-2.1-0.3
		c-1.1,0-2,0.1-2.9,0.4s-1.5,0.6-2,0.9v13.6l4.8,0.4v2.9H269L269,121.2L269,121.2z"/>
	<path d="M292.7,104.2l-2.9-0.8v-3.3l8.8-1.1h0.1l1.4,0.9v20.8l2.6,0.4v2.9H290v-2.9l2.7-0.4V104.2z M292.6,94.8
		c-0.7-0.7-1.1-1.5-1.1-2.6c0-1.2,0.4-2.2,1.2-3s1.8-1.2,3.1-1.2c1.3,0,2.3,0.3,3,1s1.1,1.5,1.1,2.6c0,1.3-0.4,2.3-1.2,3.1
		c-0.8,0.8-1.9,1.2-3.3,1.2l0,0C294.3,95.8,293.3,95.5,292.6,94.8z"/>
	<path d="M306.8,105.2c1.1-2,2.5-3.5,4.4-4.6s4.1-1.6,6.6-1.6c1.2,0,2.3,0.1,3.2,0.2s1.8,0.4,2.8,0.7c0.9,0.2,1.4,0.4,1.6,0.4
		l-0.3,8h-4.4l-1.1-5.1c-0.1-0.4-0.3-0.7-0.7-0.8c-0.4-0.2-0.9-0.2-1.4-0.2c-1.4,0-2.5,0.7-3.2,2c-0.8,1.3-1.2,3.6-1.2,6.7
		c0,3,0.5,5.3,1.5,6.9s2.3,2.4,4,2.4c2.2,0,4.2-0.6,6-1.7l1.2,2.6c-0.7,0.8-1.9,1.6-3.5,2.3s-3.4,1.1-5.4,1.1
		c-3.8,0-6.7-1.1-8.6-3.4s-2.9-5.3-2.9-9.1C305.2,109.4,305.7,107.1,306.8,105.2z"/>
	<path d="M330.7,92.3l-3.1-0.6V89l8.8-1.1h0.1l1.3,0.9v9.5l-0.3,4.1c0.9-0.8,2.1-1.6,3.6-2.3s3.1-1,4.9-1s3.3,0.3,4.3,1
		s1.7,1.7,2.2,3.1c0.4,1.4,0.6,3.2,0.6,5.5v12.1l2.7,0.4v2.9h-12.2v-2.9l2.3-0.4v-12c0-2.1-0.2-3.5-0.7-4.3
		c-0.4-0.8-1.3-1.2-2.7-1.2c-0.8,0-1.6,0.2-2.5,0.5c-0.8,0.4-1.5,0.8-2.1,1.3v15.6l2.4,0.4v2.9h-12.1v-2.9l2.3-0.4V92.3H330.7z"/>
	<path d="M361.6,123.1c-0.9-0.9-1.4-2.3-1.4-4.2v-15.7h-2.7v-2.6l0.9-0.4c0.7-0.2,1.3-0.5,1.8-0.7c0.6-0.6,1.1-1.3,1.4-2.2
		c0.4-1.1,0.9-2.5,1.5-4.4h4.1l0.3,6.6h6.3v3.7h-6.2v11.7c0,1.6,0,2.7,0.1,3.4s0.3,1.1,0.5,1.3c0.2,0.2,0.7,0.3,1.4,0.3
		c1.4,0,2.7-0.2,3.9-0.7l0.9,2.8c-0.8,0.7-2,1.3-3.7,1.8c-1.6,0.5-3.2,0.7-4.9,0.7C364,124.5,362.6,124,361.6,123.1z"/>
</g>
<g>
	<path d="M163.1,169.2c-1.9-2.3-2.9-5.4-2.9-9.3c0-2.7,0.5-5,1.5-6.9s2.4-3.4,4.2-4.4s3.9-1.5,6.4-1.5c3.1,0,5.4,0.8,7.1,2.3
		s2.5,3.8,2.5,6.6c0,1.9-0.1,3.4-0.4,4.5h-13.8c0.1,2.5,0.8,4.4,1.8,5.7c1.1,1.3,2.6,2,4.5,2c1.1,0,2.2-0.2,3.4-0.5
		c1.2-0.4,2.1-0.8,2.9-1.3l1.2,2.7c-0.8,0.9-2.1,1.7-3.9,2.4c-1.8,0.8-3.7,1.1-5.6,1.1C168,172.6,165,171.4,163.1,169.2z
		 M174.8,157.6v-1.8c0-1.8-0.2-3.3-0.7-4.2c-0.5-1-1.3-1.5-2.6-1.5c-1.2,0-2.2,0.5-2.9,1.6s-1,3-1.1,5.9H174.8z"/>
	<path d="M187.7,152.2l-2.9-0.8v-3.3l8.8-1.1h0.1l1.4,0.9v20.8l2.6,0.4v2.9H185v-2.9l2.7-0.4L187.7,152.2L187.7,152.2z M187.6,142.8
		c-0.7-0.7-1.1-1.5-1.1-2.6c0-1.2,0.4-2.2,1.2-3s1.8-1.2,3.1-1.2s2.3,0.3,3,1s1.1,1.5,1.1,2.6c0,1.3-0.4,2.3-1.2,3.1
		c-0.8,0.8-1.9,1.2-3.3,1.2l0,0C189.2,143.8,188.3,143.5,187.6,142.8z"/>
	<path d="M203.1,152.2l-2.6-0.8V148l8-1h0.1l1.1,0.9v1.6v1c1-1,2.3-1.8,3.9-2.5s3.2-1,5-1s3.1,0.3,4.2,0.9c1,0.6,1.7,1.6,2.2,3
		s0.7,3.3,0.7,5.6v12.1l2.5,0.4v2.9h-12V169l2.2-0.4v-12c0-1.4-0.1-2.5-0.3-3.3c-0.2-0.8-0.5-1.3-1-1.7c-0.5-0.4-1.1-0.5-2-0.5
		c-1.3,0-2.9,0.6-4.6,1.9v15.6l2.4,0.4v2.9h-12.2V169l2.4-0.4L203.1,152.2L203.1,152.2z"/>
	<path d="M231.1,169.2l2.7-0.4v-16.5l-2.6-0.8v-3.4l7.3-1h0.1l1.2,0.9v1.1l-0.1,3.7h0.1c0.2-0.7,0.7-1.5,1.4-2.4s1.7-1.7,2.8-2.3
		c1.1-0.7,2.4-1,3.7-1c0.8,0,1.3,0.1,1.8,0.3v7.7c-0.5-0.4-1-0.6-1.5-0.8c-0.5-0.2-1.2-0.3-2.1-0.3c-1.1,0-2,0.1-2.9,0.4
		s-1.5,0.6-2,0.9v13.6l4.8,0.4v2.9h-14.7L231.1,169.2L231.1,169.2z"/>
	<path d="M254.6,169.2c-1.9-2.3-2.9-5.4-2.9-9.3c0-2.7,0.5-5,1.5-6.9s2.4-3.4,4.2-4.4c1.8-1,3.9-1.5,6.4-1.5c3.1,0,5.4,0.8,7.1,2.3
		s2.5,3.8,2.5,6.6c0,1.9-0.1,3.4-0.4,4.5h-13.8c0.1,2.5,0.8,4.4,1.8,5.7c1.1,1.3,2.6,2,4.5,2c1.1,0,2.2-0.2,3.4-0.5
		c1.2-0.4,2.1-0.8,2.9-1.3l1.2,2.7c-0.8,0.9-2.1,1.7-3.9,2.4s-3.7,1.1-5.6,1.1C259.5,172.6,256.6,171.4,254.6,169.2z M266.4,157.6
		v-1.8c0-1.8-0.2-3.3-0.7-4.2s-1.3-1.5-2.6-1.5c-1.2,0-2.2,0.5-2.9,1.6c-0.7,1.1-1,3-1.1,5.9H266.4z"/>
	<path d="M279.3,152.2l-2.9-0.8v-3.3l8.8-1.1h0.1l1.4,0.9v20.8l2.6,0.4v2.9h-12.8v-2.9l2.7-0.4L279.3,152.2L279.3,152.2z
		 M279.2,142.8c-0.7-0.7-1.1-1.5-1.1-2.6c0-1.2,0.4-2.2,1.2-3c0.8-0.8,1.8-1.2,3.1-1.2s2.3,0.3,3,1s1.1,1.5,1.1,2.6
		c0,1.3-0.4,2.3-1.2,3.1c-0.8,0.8-1.9,1.2-3.3,1.2l0,0C280.8,143.8,279.9,143.5,279.2,142.8z"/>
	<path d="M293.3,153.2c1.1-2,2.5-3.5,4.4-4.6s4.1-1.6,6.6-1.6c1.2,0,2.3,0.1,3.2,0.2s1.8,0.4,2.8,0.7c0.9,0.2,1.4,0.4,1.6,0.4
		l-0.3,8h-4.4l-1.1-5.1c-0.1-0.4-0.3-0.7-0.7-0.8c-0.4-0.2-0.9-0.2-1.4-0.2c-1.4,0-2.5,0.7-3.2,2c-0.8,1.3-1.2,3.6-1.2,6.7
		c0,3,0.5,5.3,1.5,6.9s2.3,2.4,4,2.4c2.2,0,4.2-0.6,6-1.7l1.2,2.6c-0.7,0.8-1.9,1.6-3.5,2.3s-3.4,1.1-5.4,1.1
		c-3.8,0-6.7-1.1-8.6-3.4s-2.9-5.3-2.9-9.1C291.7,157.4,292.3,155.1,293.3,153.2z"/>
	<path d="M317.2,140.3l-3.1-0.6V137l8.8-1.1h0.1l1.3,0.9v9.5l-0.4,3.9c0.9-0.8,2.1-1.6,3.6-2.3s3.1-1,4.9-1s3.3,0.3,4.3,1
		s1.7,1.7,2.2,3.1c0.4,1.4,0.6,3.2,0.6,5.5v12.1l2.7,0.4v2.9H330V169l2.3-0.4v-12c0-2.1-0.2-3.5-0.7-4.3c-0.4-0.8-1.3-1.2-2.7-1.2
		c-0.8,0-1.6,0.2-2.5,0.5c-0.8,0.4-1.5,0.8-2.1,1.3v15.6l2.4,0.4v2.9h-12.1v-2.9l2.3-0.4v-28.2H317.2z"/>
	<path d="M347.5,169.2c-1.9-2.3-2.9-5.4-2.9-9.3c0-2.7,0.5-5,1.5-6.9s2.4-3.4,4.2-4.4c1.8-1,3.9-1.5,6.4-1.5c3.1,0,5.4,0.8,7.1,2.3
		c1.6,1.6,2.5,3.8,2.5,6.6c0,1.9-0.1,3.4-0.4,4.5h-13.8c0.1,2.5,0.8,4.4,1.8,5.7c1.1,1.3,2.6,2,4.5,2c1.1,0,2.2-0.2,3.4-0.5
		c1.2-0.4,2.1-0.8,2.9-1.3l1.2,2.7c-0.8,0.9-2.1,1.7-3.9,2.4s-3.7,1.1-5.6,1.1C352.4,172.6,349.4,171.4,347.5,169.2z M359.2,157.6
		v-1.8c0-1.8-0.2-3.3-0.7-4.2s-1.3-1.5-2.6-1.5c-1.2,0-2.2,0.5-2.9,1.6c-0.7,1.1-1,3-1.1,5.9H359.2z"/>
	<path d="M371.9,152.2l-2.6-0.8V148l8-1h0.1l1.1,0.9v1.6v1c1-1,2.3-1.8,3.9-2.5s3.2-1,5-1s3.1,0.3,4.2,0.9s1.7,1.6,2.2,3
		s0.7,3.3,0.7,5.6v12.1l2.5,0.4v2.9h-12V169l2.2-0.4v-12c0-1.4-0.1-2.5-0.3-3.3c-0.2-0.8-0.5-1.3-1-1.7c-0.5-0.4-1.1-0.5-2-0.5
		c-1.3,0-2.9,0.6-4.6,1.9v15.6l2.4,0.4v2.9h-12.2V169l2.4-0.4V152.2z"/>
</g>
<rect id="btn_x5F_text_x5F_start" x="158.8" y="201.9" class="st1" width="237" height="47.4"/>
<g>
	<path class="st2" d="M214.4,234.4c0.5-0.5,0.9-1.1,1.1-1.8c0.2-0.5,0.3-1.1,0.4-1.8s0.1-1.7,0.1-2.9v-10.1l-2-0.3v-1.4h7v1.4
		l-1.8,0.3v8.6c0,1.6,0,2.8-0.1,3.6c0,0.9-0.1,1.5-0.2,2.1c-0.3,1.2-0.9,2.2-1.9,3s-2.1,1.3-3.5,1.5l-0.7-1.1
		C213.4,235.3,213.9,234.9,214.4,234.4z"/>
	<path class="st2" d="M223.7,231c-0.9-1.1-1.4-2.7-1.4-4.7c0-1.3,0.2-2.5,0.7-3.4s1.2-1.7,2.1-2.2s1.9-0.8,3.1-0.8
		c1.5,0,2.6,0.4,3.4,1.2c0.8,0.8,1.2,1.9,1.2,3.3c0,1-0.1,1.7-0.2,2.2h-7.1c0.1,1.3,0.4,2.4,0.9,3.1c0.6,0.7,1.4,1.1,2.4,1.1
		c0.6,0,1.2-0.1,1.8-0.3c0.6-0.2,1.1-0.4,1.4-0.7l0.5,1.2c-0.4,0.4-1,0.8-1.9,1.2c-0.9,0.4-1.8,0.5-2.7,0.5
		C226.1,232.7,224.6,232.1,223.7,231z M229.7,225.2c0-0.4,0-0.7,0-0.9c0-2-0.7-2.9-2-2.9c-0.7,0-1.3,0.3-1.7,0.9
		c-0.4,0.6-0.6,1.6-0.7,3h4.4V225.2z"/>
	<path class="st2" d="M236,232c-0.4-0.4-0.7-1.1-0.7-2v-8.1h-1.4v-1.1c0.1,0,0.3-0.1,0.6-0.2c0.3-0.1,0.5-0.2,0.7-0.3
		c0.2-0.2,0.5-0.5,0.6-1c0.1-0.3,0.4-1.1,0.7-2.3h1.8l0.1,3.2h3.4v1.7h-3.3v6.2c0,0.8,0,1.4,0.1,1.7c0,0.3,0.1,0.6,0.3,0.6
		s0.4,0.1,0.8,0.1s0.7,0,1.1-0.1s0.7-0.2,1-0.3l0.4,1.2c-0.4,0.3-1,0.6-1.8,0.8s-1.6,0.4-2.3,0.4C237.2,232.7,236.5,232.4,236,232z"
		/>
	<path class="st2" d="M245.6,221.8l-0.5,2.2h-1.6v-3.7h9.7l0.5,1.1l-5.9,8.1l-1.5,1.6l4.9-0.2l1.1-2.5l1.5,0.2l-0.4,4h-10.2
		l-0.6-1.2l6-7.9l1.6-1.6L245.6,221.8z"/>
	<path class="st2" d="M256.9,232c-0.4-0.4-0.7-1.1-0.7-2v-8.1h-1.4v-1.1c0.1,0,0.3-0.1,0.6-0.2c0.3-0.1,0.5-0.2,0.7-0.3
		c0.2-0.2,0.5-0.5,0.6-1c0.1-0.3,0.4-1.1,0.7-2.3h1.8l0.1,3.2h3.4v1.7h-3.3v6.2c0,0.8,0,1.4,0.1,1.7c0,0.3,0.1,0.6,0.3,0.6
		c0.1,0.1,0.4,0.1,0.8,0.1s0.7,0,1.1-0.1s0.7-0.2,1-0.3l0.4,1.2c-0.4,0.3-1,0.6-1.8,0.8s-1.6,0.4-2.3,0.4
		C258,232.7,257.3,232.4,256.9,232z"/>
	<path class="st2" d="M271.4,230.6c0.1,0.2,0.4,0.3,0.8,0.5s0.8,0.2,1.3,0.2c0.7,0,1.2-0.1,1.6-0.4s0.5-0.7,0.5-1.1
		c0-0.5-0.2-0.9-0.6-1.2c-0.4-0.3-1.1-0.7-2.2-1.1l-0.6-0.3c-1-0.4-1.8-0.9-2.3-1.5s-0.7-1.4-0.7-2.3c0-0.7,0.2-1.2,0.6-1.8
		c0.4-0.5,1-0.9,1.7-1.2c0.7-0.3,1.5-0.4,2.5-0.4c0.7,0,1.3,0,1.8,0.1s1,0.2,1.6,0.4c0.3,0.1,0.5,0.2,0.7,0.2v2.9h-1.7l-0.5-1.7
		c-0.1-0.1-0.3-0.3-0.6-0.4c-0.3-0.1-0.7-0.2-1.1-0.2c-0.6,0-1.1,0.1-1.4,0.4c-0.4,0.3-0.5,0.6-0.5,1.1c0,0.4,0.1,0.8,0.4,1
		c0.2,0.3,0.5,0.5,0.8,0.6s0.8,0.4,1.6,0.7c0.8,0.3,1.4,0.7,2,1c0.5,0.3,1,0.7,1.3,1.2s0.5,1.1,0.5,1.8c0,1.1-0.4,2-1.3,2.6
		c-0.9,0.7-2.1,1-3.7,1c-0.7,0-1.4-0.1-2-0.2s-1.3-0.3-2.1-0.5l-0.5-0.2v-2.9h1.8L271.4,230.6z"/>
	<path class="st2" d="M281.8,232c-0.4-0.4-0.7-1.1-0.7-2v-8.1h-1.4v-1.1c0.1,0,0.3-0.1,0.6-0.2c0.3-0.1,0.5-0.2,0.7-0.3
		c0.2-0.2,0.5-0.5,0.6-1c0.1-0.3,0.4-1.1,0.7-2.3h1.8l0.1,3.2h3.4v1.7h-3.3v6.2c0,0.8,0,1.4,0.1,1.7c0,0.3,0.1,0.6,0.3,0.6
		c0.1,0.1,0.4,0.1,0.8,0.1s0.7,0,1.1-0.1s0.7-0.2,1-0.3l0.4,1.2c-0.4,0.3-1,0.6-1.8,0.8s-1.6,0.4-2.3,0.4
		C283,232.7,282.3,232.4,281.8,232z"/>
	<path class="st2" d="M290.7,226c1.3-0.7,3.1-1,5.2-1v-0.5c0-0.6-0.1-1.1-0.2-1.4s-0.4-0.6-0.7-0.8c-0.3-0.2-0.8-0.3-1.4-0.3
		c-0.7,0-1.4,0.1-1.9,0.3s-1.2,0.4-1.8,0.7l-0.7-1.4c0.2-0.2,0.6-0.4,1.1-0.7c0.5-0.3,1.1-0.5,1.9-0.7s1.5-0.3,2.2-0.3
		c1.1,0,2,0.1,2.7,0.4c0.6,0.3,1.1,0.8,1.4,1.4s0.4,1.5,0.4,2.6v6.7h1.2v1.2c-0.3,0.1-0.7,0.1-1.3,0.2c-0.5,0.1-1,0.1-1.4,0.1
		c-0.5,0-0.8-0.1-1-0.2s-0.3-0.4-0.3-0.9v-0.6c-0.4,0.4-0.9,0.8-1.5,1.2c-0.6,0.4-1.3,0.5-2.1,0.5c-0.7,0-1.3-0.1-1.9-0.4
		s-1-0.7-1.4-1.3c-0.3-0.5-0.5-1.2-0.5-2C288.7,227.7,289.4,226.7,290.7,226z M294.9,230.6c0.4-0.2,0.7-0.4,1-0.7v-3.6
		c-1.3,0-2.3,0.2-3,0.7c-0.7,0.4-1,1-1,1.7s0.2,1.2,0.5,1.6s0.8,0.5,1.4,0.5C294.2,230.9,294.5,230.8,294.9,230.6z"/>
	<path class="st2" d="M301.2,231.2l1.5-0.2v-8.7l-1.4-0.4v-1.5l3.4-0.5h0.1l0.6,0.4v0.5l-0.1,1.8h0.1c0.1-0.3,0.3-0.7,0.7-1.1
		c0.4-0.4,0.9-0.8,1.4-1.1c0.6-0.3,1.2-0.5,1.9-0.5c0.3,0,0.6,0,0.8,0.1v3.3c-0.4-0.3-1-0.5-1.6-0.5c-1.1,0-2,0.3-2.8,0.9v7.2
		l2.6,0.2v1.3h-7.1v-1.2H301.2z"/>
	<path class="st2" d="M313,232c-0.4-0.4-0.7-1.1-0.7-2v-8.1h-1.4v-1.1c0.1,0,0.3-0.1,0.6-0.2c0.3-0.1,0.5-0.2,0.7-0.3
		c0.2-0.2,0.5-0.5,0.6-1c0.1-0.3,0.4-1.1,0.7-2.3h1.8l0.1,3.2h3.4v1.7h-3.3v6.2c0,0.8,0,1.4,0.1,1.7c0,0.3,0.1,0.6,0.3,0.6
		s0.4,0.1,0.8,0.1s0.7,0,1.1-0.1s0.7-0.2,1-0.3l0.4,1.2c-0.4,0.3-1,0.6-1.8,0.8s-1.6,0.4-2.3,0.4C314.1,232.7,313.4,232.4,313,232z"
		/>
	<path class="st2" d="M321.3,231c-0.9-1.1-1.4-2.7-1.4-4.7c0-1.3,0.2-2.5,0.7-3.4c0.5-1,1.2-1.7,2.1-2.2s1.9-0.8,3.1-0.8
		c1.5,0,2.6,0.4,3.4,1.2c0.8,0.8,1.2,1.9,1.2,3.3c0,1-0.1,1.7-0.2,2.2H323c0.1,1.3,0.4,2.4,0.9,3.1c0.6,0.7,1.4,1.1,2.4,1.1
		c0.6,0,1.2-0.1,1.8-0.3s1.1-0.4,1.4-0.7l0.6,1.2c-0.4,0.4-1,0.8-1.9,1.2c-0.9,0.4-1.8,0.5-2.7,0.5
		C323.7,232.7,322.3,232.1,321.3,231z M327.4,225.2c0-0.4,0-0.7,0-0.9c0-2-0.7-2.9-2-2.9c-0.7,0-1.3,0.3-1.7,0.9
		c-0.4,0.6-0.6,1.6-0.7,3h4.4V225.2z"/>
	<path class="st2" d="M333.2,222.3l-1.4-0.4v-1.5l3.7-0.5h0.1l0.5,0.4v0.9v0.5c0.5-0.5,1.2-0.9,2-1.3s1.7-0.5,2.5-0.5
		c0.9,0,1.6,0.2,2.1,0.5s0.9,0.8,1.1,1.6c0.2,0.7,0.3,1.7,0.3,2.9v6.1l1.3,0.2v1.3h-5.7v-1.3l1.2-0.2v-6.1c0-0.8-0.1-1.4-0.2-1.8
		s-0.3-0.7-0.6-0.9c-0.3-0.2-0.7-0.3-1.2-0.3c-0.8,0-1.7,0.4-2.7,1.1v8l1.3,0.2v1.3h-5.7v-1.3l1.3-0.2v-8.7H333.2z"/>
	<path class="st2" d="M350.5,227h-1.9l-0.8-14h3.5L350.5,227z M348.4,229.7c0.4-0.4,0.9-0.5,1.4-0.5s1,0.2,1.3,0.5s0.5,0.7,0.5,1.2
		c0,0.6-0.2,1-0.6,1.3s-0.9,0.5-1.5,0.5c-0.5,0-0.9-0.2-1.2-0.5c-0.3-0.3-0.5-0.7-0.5-1.2C347.8,230.5,348,230,348.4,229.7z"/>
</g>
<g>
	<path class="st3" d="M126,219.3l27.4,63.8c0.2,0.5-0.1,1.1-0.6,1.3c-0.5,0.2-1,0-1.2-0.5l-30.1-64.6L126,219.3L126,219.3z"/>
	<path class="st3" d="M113.4,219.3l27.1,63.8c0.2,0.5-0.1,1.1-0.6,1.3c-0.5,0.2-1,0-1.2-0.5l-30.4-64.6L113.4,219.3L113.4,219.3z"/>
	<path class="st3" d="M83.9,219.3l-27.4,63.8c-0.2,0.5,0.1,1.1,0.6,1.3c0.5,0.2,1,0,1.2-0.5l30.1-64.6L83.9,219.3L83.9,219.3z"/>
	<path class="st3" d="M96.5,219.3l-27.1,63.8c-0.2,0.5,0.1,1.1,0.6,1.3c0.5,0.2,1,0,1.2-0.5l30.4-64.6L96.5,219.3L96.5,219.3z"/>
	<path class="st4" d="M69.6,221.6c-11.7-3.8-12.1-18.6,9.2-18.6c30.7,0,30.5-18,34.1-38.6c6.8-39.3,49.3-24,37.2,25.5
		c-3.3,13.5-5.4,27.3-17.4,31.5C117.1,227,90.7,228.4,69.6,221.6"/>
	<path class="st3" d="M150,190.2c0.1,0,0.3-0.1,0.3-0.2c2.4-10,2.8-19.1,1.1-27c-1.5-6.9-4.4-12.6-8.6-16.4
		c-4.8-4.3-10.6-5.8-15.9-3.9c-7.2,2.5-12.4,10.4-14.4,21.7c0,0.2,0.1,0.3,0.2,0.4c0.2,0,0.3-0.1,0.4-0.3c1.9-11.1,7-18.9,14-21.3
		c5.2-1.8,10.7-0.4,15.3,3.8c4.1,3.7,7,9.3,8.4,16.1c1.7,7.9,1.3,16.9-1.1,26.7C149.7,190,149.8,190.2,150,190.2L150,190.2"/>
	<path class="st3" d="M101,226.4c12.2,0,23.6-1.8,31.7-4.7c0.2-0.1,0.2-0.2,0.2-0.4c-0.1-0.2-0.2-0.2-0.4-0.2
		c-15,5.3-41.4,7-62.9,0.1c-5.2-1.7-8.3-5.6-7.7-9.7c0.6-4,5.4-8.3,16.8-8.3c11.7,0,19.6-2.5,24.7-8c4.5-4.8,6.4-11.4,7.9-19.7
		c0-0.2-0.1-0.3-0.2-0.4c-0.2,0-0.3,0.1-0.4,0.2c-1.5,8.3-3.3,14.7-7.7,19.4c-5,5.3-12.7,7.8-24.2,7.8c-11.8,0-16.7,4.5-17.4,8.8
		c-0.7,4.3,2.7,8.6,8.1,10.4C79.5,225.1,90.5,226.4,101,226.4"/>
	<path class="st5" d="M86.8,138.9c-0.6,0-2.2,0.6-4.5,5c-3,5.6-7.3,29.1-7.3,29.1l13-1.6l1.7-3.5l2.7-27.3
		C92.4,140.4,87,138.9,86.8,138.9"/>
	<path class="st6" d="M104,136.4c-3.7,0-12.9,1.1-17.2,2.4c0,0-3.1,26.9,2.8,47.4c1.3,4.6-1.1,19-1.1,19l38.4-0.5
		c0,0-4.6-34.8-2.8-40.4c1.7-5.6,1.8-25.2,1.8-25.2s-0.3,0-8.6-1.5C113.4,136.9,108,136.4,104,136.4"/>
	<path class="st7" d="M108.5,264.8c0,0-0.9,9.8-2.4,12.5s0.1,7.3,0.2,8c0.1,0.6,3.3,1.5,8.4,1c5.1-0.5,5-1.7,4.6-3.6
		s-3.1-4.4-3.3-6.2c-0.2-1.8,1.6-8.3,1.6-8.3L108.5,264.8z"/>
	<path class="st8" d="M92.9,201.4c0,0-26.5-1.5-32.5,2.1c-5.9,3.6,4.2,21.2,4.2,21.2s18.5-0.9,54.6,1.2c8.6,0.5,9.3-22.3,7.7-24.2
		C125.4,199.8,92.9,201.4,92.9,201.4"/>
	<path class="st3" d="M115.3,287.1c5.3-0.6,4.6-3.1,4.2-5.1c-0.3-1.2-1.8-2.7-2.7-4c-0.5,0.4-1.2,1-3.5,1.7
		c-2.4,0.7-5.6-0.7-7.7-1.6c-0.7,2.7-0.8,6.2-0.7,6.8C105,285.5,110,287.6,115.3,287.1"/>
	<path class="st9" d="M112.4,220.4c-1.1,8-6.3,53.4-6.3,53.4l12.2,1.5c0,0,15-57.5,14.2-65.5s-6.4-8.6-6.4-8.6
		S115.2,199.1,112.4,220.4"/>
	<path class="st7" d="M126.4,142c-3.6-1.3-5.4,31-5.8,44.4c-6.4,0.6-17.5,0-20.2-0.2c-1.3-0.1-4.3-1.2-5.6-1.4
		c-1.3-0.2-2.5-0.3-3.2-0.2c-0.2,0-6.9,2.8-7.4,3.4c-0.7,0.7-2.6,2.6-2.3,3.4s3.7-2.2,3.7-2.2l1.6-0.9c-2,2-5.9,4.6-5.3,5.5
		c0.5,0.9,4-1.7,6.5-3.5c-2.1,1.9-4.8,5.4-4.2,5.9c0.5,0.5,3.6-3.5,6.8-4.7c1.2-0.4,2.4,0.8,3.3,0.9c0.7,0.1,1.8,0.3,2.4,0.1l3.5-1
		c1.2,0.1,1.2,0.8,2.4,1.1c1.4,0.3,3.7,0.6,5.5,1c10.2,2.5,13.6,3.7,16.8,3.7C134.3,197.4,134.8,145.2,126.4,142"/>
	<path class="st5" d="M133.2,172.5c0.7-13.7,0.6-30.5-7.1-33.4c-3-1.1-8.3,5.7-7.4,33.6C122.8,173.1,128.8,173.3,133.2,172.5"/>
	<path class="st7" d="M71.6,274.3c0,0,1.8,3.1,0.4,5.7s-8.6,6.4-9.4,7.9c-0.8,1.4-0.5,2.4-0.5,2.4l21.6-5.3l-1.7-6.5l-2-4.5
		L71.6,274.3z"/>
	<path class="st3" d="M70.8,281.4c0,0,6.1,1,8.5-0.9c2.4-1.9,2.2-2.3,3.1-1.9c0.6,0.2,1.4,2.8,2,4.6c0.3,1-0.3,2-1.3,2.2l-22.5,5.5
		c-1.7,0.3-2.8-0.7-1.7-2.1c0.8-0.9,1.8-1.7,2.3-2.2C63,285.3,70.8,281.4,70.8,281.4"/>
	<path class="st9" d="M73.7,208.8c-1.7-3.6-5.6-8.3-12.5-5.5c-6.5,2.7-8.3,9.3-6.2,16.1c2.1,6.8,15.7,51,16.1,56.5L82,276
		c0,0-2-31.6-2.5-39.3C79.1,229.4,76.7,215,73.7,208.8"/>
	<path class="st3" d="M56.1,170.9h36.3c1,0,1.8,0.6,2.2,1.5l11.2,27.4h20c0.6,0,1,0.5,1,1c0,0.6-0.5,1-1,1h-57c-1.6,0-3-0.9-3.6-2.4
		l-11.3-25.2C53.2,172.7,54.4,170.9,56.1,170.9"/>
	<path class="st4" d="M75.6,182.5c0.2,1.2,1.3,2.1,2.4,1.8c1.1-0.2,1.7-1.4,1.5-2.6s-1.3-2.1-2.4-1.8
		C76,180.1,75.4,181.3,75.6,182.5"/>
	<path class="st10" d="M95.4,103.6c1.1-0.4,2.2-0.8,3.2-1.3c1.2-0.6,2.7-1.2,3.7-1.4c2-0.3,5.5-0.1,7.4,2c2.4,2.6,6.6,0.5,5.8,14.1
		c-1,15.4-9.5,13.7-9.7,13.4c-0.2-0.3-7.6-9.9-7.6-9.9s-2.6,5.7-2.6,5.5C95.5,125.8,82.2,108,95.4,103.6"/>
	<path class="st7" d="M101.9,131.5l-0.7,5.5c0,0-1.7,7.9,0.5,9.5c2.1,1.5,9.1-9.7,9.1-9.7l-0.7-13.9L101.9,131.5z"/>
	<path class="st11" d="M110.2,127.4c-1.8,4.8-6,7.7-8.9,8.8l0.6-4.7l8.1-8.7L110.2,127.4z"/>
	<path class="st7" d="M102.3,107.7c-4.5-0.7-8.6,2.9-8.4,7.4c0,2,0.2,4.4,0.6,7.1c1,6.4,5.3,11.9,8.2,11.4s10.1-6,8.8-15
		C110.7,113,107,108.5,102.3,107.7"/>
	<path class="st7" d="M109.5,119.7c0.2,1.4,1.4,2.4,2.5,2.2c1.1-0.2,1.9-1.5,1.6-2.9c-0.2-1.4-1.4-2.4-2.5-2.2
		C110,117,109.2,118.3,109.5,119.7"/>
	<path class="st10" d="M111.1,116.8c0,0-3.5,0.9-4.8-1.4c-1.3-2.2-5.9-7-11.7-5s5.1-4.8,5.6-4.8s6.1,0,6.1,0s4.3,3.6,4.5,3.9
		c0.2,0.4,1.4,4.7,1.4,4.7L111.1,116.8z"/>
	<path class="st4" d="M104.8,126.1l-6.3,1.2c0,0,0.6,2.4,3.4,1.9C105.2,128.7,104.8,126.1,104.8,126.1"/>
	<path class="st12" d="M37.1,160.3l18.5,1.4c9.3,0.7,17.4-6.3,18.1-15.6c0.7-9.3-6.3-17.4-15.6-18.1l-18.5-1.4
		c-9.3-0.7-17.4,6.3-18.1,15.6S27.9,159.7,37.1,160.3"/>
</g>
<polygon class="st12" points="69.4,153.2 70,165.3 59.6,160.5 "/>
<g>
	<path class="st4" d="M57.1,145.9c0.1,1.8,1.5,3.1,3.3,3.1s3.1-1.5,3.1-3.3c-0.1-1.8-1.5-3.1-3.3-3.1
		C58.4,142.6,57.1,144.1,57.1,145.9"/>
	<path class="st4" d="M44.4,144.6c0.1,1.8,1.5,3.1,3.3,3.1s3.1-1.5,3.1-3.3c-0.1-1.8-1.5-3.1-3.3-3.1
		C45.7,141.4,44.3,142.9,44.4,144.6"/>
	<path class="st4" d="M31.8,143.5c0.1,1.8,1.5,3.1,3.3,3.1c1.8-0.1,3.1-1.5,3.1-3.3c-0.1-1.8-1.5-3.1-3.3-3.1
		C33.1,140.2,31.7,141.7,31.8,143.5"/>
</g>
</svg>
