<?xml version="1.0" encoding="utf-8"?>
<!-- Generator: Adobe Illustrator 26.4.1, SVG Export Plug-In . SVG Version: 6.00 Build 0)  -->
<svg version="1.1" id="Ebene_1" xmlns="http://www.w3.org/2000/svg" xmlns:xlink="http://www.w3.org/1999/xlink" x="0px" y="0px"
	 viewBox="0 0 436 94.9" style="enable-background:new 0 0 436 94.9;" xml:space="preserve">
<style type="text/css">
	.st0{fill:#FFFFFF;}
	.st1{fill:#D02E26;}
</style>
<g>
	<g>
		<path class="st0" d="M39.5,16.9c0-1.7,1.3-3,2.8-3s2.8,1.4,2.8,3v62c0,1.7-1.3,3-2.8,3s-2.8-1.4-2.8-3V16.9z"/>
	</g>
	<g>
		<path class="st0" d="M78.6,24.1c0-1.7,1.3-3,2.8-3s2.8,1.4,2.8,3v47.6c0,1.7-1.3,3-2.8,3s-2.8-1.4-2.8-3V24.1z"/>
	</g>
	<g>
		<path class="st0" d="M98.1,31.4c0-1.7,1.3-3,2.8-3s2.8,1.4,2.8,3v33.1c0,1.7-1.3,3-2.8,3s-2.8-1.4-2.8-3V31.4z"/>
	</g>
	<g>
		<path class="st0" d="M117.6,38.6c0-1.7,1.3-3,2.8-3s2.8,1.4,2.8,3v18.7c0,1.7-1.3,3-2.8,3s-2.8-1.4-2.8-3V38.6z"/>
	</g>
	<g>
		<path class="st0" d="M10.2,45.8c0-1.7,1.3-3,2.8-3s2.8,1.4,2.8,3V50c0,1.7-1.3,3-2.8,3s-2.8-1.4-2.8-3V45.8z"/>
	</g>
	<g>
		<path class="st0" d="M20,38.6c0-1.7,1.3-3,2.8-3s2.8,1.4,2.8,3v18.7c0,1.7-1.3,3-2.8,3s-2.8-1.4-2.8-3V38.6z"/>
	</g>
	<g>
		<path class="st0" d="M59.1,38.6c0-1.7,1.3-3,2.8-3s2.8,1.4,2.8,3v18.7c0,1.7-1.3,3-2.8,3s-2.8-1.4-2.8-3V38.6z"/>
	</g>
	<g>
		<path class="st0" d="M137.2,45.8c0-1.7,1.3-3,2.8-3s2.8,1.4,2.8,3V50c0,1.7-1.3,3-2.8,3s-2.8-1.4-2.8-3V45.8z"/>
	</g>
	<g>
		<path class="st0" d="M156.7,38.6c0-1.7,1.3-3,2.8-3s2.8,1.4,2.8,3v18.7c0,1.7-1.3,3-2.8,3s-2.8-1.4-2.8-3V38.6z"/>
	</g>
	<g>
		<path class="st0" d="M195.7,38.6c0-1.7,1.3-3,2.8-3s2.8,1.4,2.8,3v18.7c0,1.7-1.3,3-2.8,3s-2.8-1.4-2.8-3V38.6z"/>
	</g>
	<g>
		<path class="st0" d="M176.2,31.4c0-1.7,1.3-3,2.8-3s2.8,1.4,2.8,3v33.1c0,1.7-1.3,3-2.8,3s-2.8-1.4-2.8-3V31.4z"/>
	</g>
	<g>
		<path class="st0" d="M215.3,16.9c0-1.7,1.3-3,2.8-3s2.8,1.4,2.8,3v62c0,1.7-1.3,3-2.8,3s-2.8-1.4-2.8-3V16.9z"/>
	</g>
	<g>
		<path class="st0" d="M234.8,24.1c0-1.7,1.3-3,2.8-3s2.8,1.4,2.8,3v47.6c0,1.7-1.3,3-2.8,3s-2.8-1.4-2.8-3V24.1z"/>
	</g>
	<g>
		<path class="st0" d="M273.8,38.6c0-1.7,1.3-3,2.8-3s2.8,1.4,2.8,3v18.7c0,1.7-1.3,3-2.8,3s-2.8-1.4-2.8-3V38.6z"/>
	</g>
	<g>
		<path class="st0" d="M293.4,45.8c0-1.7,1.3-3,2.8-3s2.8,1.4,2.8,3V50c0,1.7-1.3,3-2.8,3s-2.8-1.4-2.8-3V45.8z"/>
	</g>
	<g>
		<path class="st0" d="M254.3,45.8c0-1.7,1.3-3,2.8-3c1.5,0,2.8,1.4,2.8,3V50c0,1.7-1.3,3-2.8,3c-1.5,0-2.8-1.4-2.8-3V45.8z"/>
	</g>
	<g>
		<path class="st0" d="M312.9,41.7c0-1.7,1.3-3,2.8-3s2.8,1.4,2.8,3v12.4c0,1.7-1.3,3-2.8,3s-2.8-1.4-2.8-3V41.7z"/>
	</g>
	<g>
		<path class="st0" d="M332.4,37.6c0-1.7,1.3-3,2.8-3s2.8,1.4,2.8,3v20.6c0,1.7-1.3,3-2.8,3s-2.8-1.4-2.8-3V37.6z"/>
	</g>
	<g>
		<path class="st0" d="M351.9,33.5c0-1.7,1.3-3,2.8-3s2.8,1.4,2.8,3v28.9c0,1.7-1.3,3-2.8,3s-2.8-1.4-2.8-3V33.5z"/>
	</g>
	<g>
		<path class="st0" d="M371.5,29.4c0-1.7,1.3-3,2.8-3s2.8,1.4,2.8,3v37.1c0,1.7-1.3,3-2.8,3s-2.8-1.4-2.8-3V29.4z"/>
	</g>
	<g>
		<path class="st0" d="M29.8,31.4c0-1.7,1.3-3,2.8-3s2.8,1.4,2.8,3v33.1c0,1.7-1.3,3-2.8,3s-2.8-1.4-2.8-3V31.4z"/>
	</g>
	<g>
		<path class="st0" d="M49.3,24.1c0-1.7,1.3-3,2.8-3s2.8,1.4,2.8,3v47.6c0,1.7-1.3,3-2.8,3s-2.8-1.4-2.8-3V24.1z"/>
	</g>
	<g>
		<path class="st0" d="M68.8,16.9c0-1.7,1.3-3,2.8-3s2.8,1.4,2.8,3v62c0,1.7-1.3,3-2.8,3s-2.8-1.4-2.8-3V16.9z"/>
	</g>
	<g>
		<path class="st0" d="M107.9,24.1c0-1.7,1.3-3,2.8-3s2.8,1.4,2.8,3v47.6c0,1.7-1.3,3-2.8,3s-2.8-1.4-2.8-3V24.1z"/>
	</g>
	<g>
		<path class="st0" d="M88.3,31.4c0-1.7,1.3-3,2.8-3s2.8,1.4,2.8,3v33.1c0,1.7-1.3,3-2.8,3s-2.8-1.4-2.8-3V31.4z"/>
	</g>
	<g>
		<path class="st0" d="M127.4,38.6c0-1.7,1.3-3,2.8-3s2.8,1.4,2.8,3v18.7c0,1.7-1.3,3-2.8,3s-2.8-1.4-2.8-3V38.6z"/>
	</g>
	<g>
		<path class="st0" d="M146.9,45.8c0-1.7,1.3-3,2.8-3s2.8,1.4,2.8,3V50c0,1.7-1.3,3-2.8,3s-2.8-1.4-2.8-3V45.8z"/>
	</g>
	<g>
		<path class="st0" d="M166.4,41.7c0-1.7,1.3-3,2.8-3s2.8,1.4,2.8,3v12.4c0,1.7-1.3,3-2.8,3s-2.8-1.4-2.8-3V41.7z"/>
	</g>
	<g>
		<path class="st0" d="M205.5,41.7c0-1.7,1.3-3,2.8-3s2.8,1.4,2.8,3v12.4c0,1.7-1.3,3-2.8,3s-2.8-1.4-2.8-3V41.7z"/>
	</g>
	<g>
		<path class="st0" d="M186,37.6c0-1.7,1.3-3,2.8-3s2.8,1.4,2.8,3v20.6c0,1.7-1.3,3-2.8,3s-2.8-1.4-2.8-3V37.6z"/>
	</g>
	<g>
		<path class="st0" d="M225,29.4c0-1.7,1.3-3,2.8-3s2.8,1.4,2.8,3v37.1c0,1.7-1.3,3-2.8,3s-2.8-1.4-2.8-3V29.4z"/>
	</g>
	<g>
		<path class="st0" d="M244.5,33.5c0-1.7,1.3-3,2.8-3s2.8,1.4,2.8,3v28.9c0,1.7-1.3,3-2.8,3s-2.8-1.4-2.8-3V33.5z"/>
	</g>
	<g>
		<path class="st0" d="M264,37.6c0-1.7,1.3-3,2.8-3s2.8,1.4,2.8,3v20.6c0,1.7-1.3,3-2.8,3s-2.8-1.4-2.8-3V37.6z"/>
	</g>
	<g>
		<path class="st0" d="M283.5,41.7c0-1.7,1.3-3,2.8-3s2.8,1.4,2.8,3v12.4c0,1.7-1.3,3-2.8,3s-2.8-1.4-2.8-3V41.7z"/>
	</g>
	<g>
		<path class="st0" d="M303,45.8c0-1.7,1.3-3,2.8-3s2.8,1.4,2.8,3V50c0,1.7-1.3,3-2.8,3s-2.8-1.4-2.8-3V45.8z"/>
	</g>
	<g>
		<path class="st0" d="M322.5,38.6c0-1.7,1.3-3,2.8-3s2.8,1.4,2.8,3v18.7c0,1.7-1.3,3-2.8,3s-2.8-1.4-2.8-3V38.6z"/>
	</g>
	<g>
		<path class="st0" d="M361.6,38.6c0-1.7,1.3-3,2.8-3s2.8,1.4,2.8,3v18.7c0,1.7-1.3,3-2.8,3s-2.8-1.4-2.8-3V38.6z"/>
	</g>
	<g>
		<path class="st0" d="M342.1,31.4c0-1.7,1.3-3,2.8-3s2.8,1.4,2.8,3v33.1c0,1.7-1.3,3-2.8,3s-2.8-1.4-2.8-3V31.4z"/>
	</g>
	<g>
		<path class="st0" d="M381.1,16.9c0-1.7,1.3-3,2.8-3s2.8,1.4,2.8,3v62c0,1.7-1.3,3-2.8,3s-2.8-1.4-2.8-3V16.9z"/>
	</g>
	<g>
		<path class="st0" d="M400.8,31.4c0-1.7,1.3-3,2.8-3s2.8,1.4,2.8,3v33.1c0,1.7-1.3,3-2.8,3s-2.8-1.4-2.8-3V31.4z"/>
	</g>
	<g>
		<path class="st0" d="M410.5,38.6c0-1.7,1.3-3,2.8-3s2.8,1.4,2.8,3v18.7c0,1.7-1.3,3-2.8,3s-2.8-1.4-2.8-3V38.6z"/>
	</g>
	<g>
		<path class="st0" d="M391,38.6c0-1.7,1.3-3,2.8-3s2.8,1.4,2.8,3v18.7c0,1.7-1.3,3-2.8,3s-2.8-1.4-2.8-3V38.6z"/>
	</g>
	<g>
		<path class="st0" d="M420.2,45.8c0-1.7,1.3-3,2.8-3s2.8,1.4,2.8,3V50c0,1.7-1.3,3-2.8,3s-2.8-1.4-2.8-3V45.8z"/>
	</g>
</g>
<g>
	<g>
	</g>
	<g>
	</g>
</g>
<polygon class="st1" points="206.1,47.4 206.1,71.3 245.9,47.4 206.1,23.6 "/>
</svg>
