<?xml version="1.0" encoding="utf-8"?>
<!-- Generator: Adobe Illustrator 26.4.1, SVG Export Plug-In . SVG Version: 6.00 Build 0)  -->
<svg version="1.1" id="Ebene_1" xmlns="http://www.w3.org/2000/svg" xmlns:xlink="http://www.w3.org/1999/xlink" x="0px" y="0px"
	 viewBox="0 0 554 106" style="enable-background:new 0 0 554 106;" xml:space="preserve">
<style type="text/css">
	.st0{fill:#9A9999;}
	.st1{fill:none;stroke:#0D3E65;stroke-width:3.67;}
	.st2{fill:#0D3E65;}
</style>
<path class="st0" d="M153.2,21c0-1.7,1.3-3,2.8-3c1.5,0,2.8,1.4,2.8,3v62c0,1.7-1.3,3-2.8,3c-1.5,0-2.8-1.4-2.8-3V21z"/>
<path class="st0" d="M192.3,28.2c0-1.7,1.3-3,2.8-3c1.5,0,2.8,1.4,2.8,3v47.6c0,1.7-1.3,3-2.8,3c-1.5,0-2.8-1.4-2.8-3V28.2z"/>
<path class="st0" d="M211.8,35.4c0-1.7,1.3-3,2.8-3c1.5,0,2.8,1.4,2.8,3v33.1c0,1.7-1.3,3-2.8,3c-1.5,0-2.8-1.4-2.8-3V35.4z"/>
<path class="st0" d="M231.3,42.7c0-1.7,1.3-3,2.8-3c1.5,0,2.8,1.4,2.8,3v18.7c0,1.7-1.3,3-2.8,3c-1.5,0-2.8-1.4-2.8-3V42.7z"/>
<path class="st0" d="M123.9,49.9c0-1.7,1.3-3,2.8-3c1.5,0,2.8,1.4,2.8,3v4.2c0,1.7-1.3,3-2.8,3c-1.5,0-2.8-1.4-2.8-3V49.9z"/>
<path class="st0" d="M133.7,42.7c0-1.7,1.3-3,2.8-3c1.5,0,2.8,1.4,2.8,3v18.7c0,1.7-1.3,3-2.8,3c-1.5,0-2.8-1.4-2.8-3V42.7z"/>
<path class="st0" d="M172.7,42.7c0-1.7,1.3-3,2.8-3c1.5,0,2.8,1.4,2.8,3v18.7c0,1.7-1.3,3-2.8,3c-1.5,0-2.8-1.4-2.8-3V42.7z"/>
<path class="st0" d="M250.8,49.9c0-1.7,1.3-3,2.8-3c1.5,0,2.8,1.4,2.8,3v4.2c0,1.7-1.3,3-2.8,3c-1.5,0-2.8-1.4-2.8-3V49.9z"/>
<path class="st0" d="M270.4,42.7c0-1.7,1.3-3,2.8-3c1.5,0,2.8,1.4,2.8,3v18.7c0,1.7-1.3,3-2.8,3c-1.5,0-2.8-1.4-2.8-3V42.7z"/>
<path class="st0" d="M309.4,42.7c0-1.7,1.3-3,2.8-3c1.5,0,2.8,1.4,2.8,3v18.7c0,1.7-1.3,3-2.8,3c-1.5,0-2.8-1.4-2.8-3V42.7z"/>
<path class="st0" d="M289.9,35.4c0-1.7,1.3-3,2.8-3c1.5,0,2.8,1.4,2.8,3v33.1c0,1.7-1.3,3-2.8,3c-1.5,0-2.8-1.4-2.8-3V35.4z"/>
<path class="st0" d="M328.9,21c0-1.7,1.3-3,2.8-3c1.5,0,2.8,1.4,2.8,3v62c0,1.7-1.3,3-2.8,3c-1.5,0-2.8-1.4-2.8-3V21z"/>
<path class="st0" d="M348.5,28.2c0-1.7,1.3-3,2.8-3c1.5,0,2.8,1.4,2.8,3v47.6c0,1.7-1.3,3-2.8,3c-1.5,0-2.8-1.4-2.8-3V28.2z"/>
<path class="st0" d="M387.5,42.7c0-1.7,1.3-3,2.8-3c1.5,0,2.8,1.4,2.8,3v18.7c0,1.7-1.3,3-2.8,3c-1.5,0-2.8-1.4-2.8-3V42.7z"/>
<path class="st0" d="M407,49.9c0-1.7,1.3-3,2.8-3c1.5,0,2.8,1.4,2.8,3v4.2c0,1.7-1.3,3-2.8,3c-1.5,0-2.8-1.4-2.8-3V49.9z"/>
<path class="st0" d="M368,49.9c0-1.7,1.3-3,2.8-3c1.5,0,2.8,1.4,2.8,3v4.2c0,1.7-1.3,3-2.8,3c-1.5,0-2.8-1.4-2.8-3V49.9z"/>
<path class="st0" d="M426.6,45.8c0-1.7,1.3-3,2.8-3c1.5,0,2.8,1.4,2.8,3v12.4c0,1.7-1.3,3-2.8,3c-1.5,0-2.8-1.4-2.8-3V45.8z"/>
<path class="st0" d="M446.1,41.7c0-1.7,1.3-3,2.8-3c1.5,0,2.8,1.4,2.8,3v20.6c0,1.7-1.3,3-2.8,3c-1.5,0-2.8-1.4-2.8-3V41.7z"/>
<path class="st0" d="M465.6,37.6c0-1.7,1.3-3,2.8-3c1.5,0,2.8,1.4,2.8,3v28.9c0,1.7-1.3,3-2.8,3c-1.5,0-2.8-1.4-2.8-3V37.6z"/>
<path class="st0" d="M485.1,33.5c0-1.7,1.3-3,2.8-3c1.5,0,2.8,1.4,2.8,3v37.1c0,1.7-1.3,3-2.8,3c-1.5,0-2.8-1.4-2.8-3V33.5z"/>
<path class="st0" d="M143.4,35.4c0-1.7,1.3-3,2.8-3c1.5,0,2.8,1.4,2.8,3v33.1c0,1.7-1.3,3-2.8,3c-1.5,0-2.8-1.4-2.8-3V35.4z"/>
<path class="st0" d="M163,28.2c0-1.7,1.3-3,2.8-3c1.5,0,2.8,1.4,2.8,3v47.6c0,1.7-1.3,3-2.8,3c-1.5,0-2.8-1.4-2.8-3V28.2z"/>
<path class="st0" d="M182.5,21c0-1.7,1.3-3,2.8-3c1.5,0,2.8,1.4,2.8,3v62c0,1.7-1.3,3-2.8,3c-1.5,0-2.8-1.4-2.8-3V21z"/>
<path class="st0" d="M221.5,28.2c0-1.7,1.3-3,2.8-3c1.5,0,2.8,1.4,2.8,3v47.6c0,1.7-1.3,3-2.8,3c-1.5,0-2.8-1.4-2.8-3V28.2z"/>
<path class="st0" d="M202,35.4c0-1.7,1.3-3,2.8-3c1.5,0,2.8,1.4,2.8,3v33.1c0,1.7-1.3,3-2.8,3c-1.5,0-2.8-1.4-2.8-3V35.4z"/>
<path class="st0" d="M241.1,42.7c0-1.7,1.3-3,2.8-3c1.5,0,2.8,1.4,2.8,3v18.7c0,1.7-1.3,3-2.8,3c-1.5,0-2.8-1.4-2.8-3V42.7z"/>
<path class="st0" d="M260.6,49.9c0-1.7,1.3-3,2.8-3c1.5,0,2.8,1.4,2.8,3v4.2c0,1.7-1.3,3-2.8,3c-1.5,0-2.8-1.4-2.8-3V49.9z"/>
<path class="st0" d="M280.1,45.8c0-1.7,1.3-3,2.8-3c1.5,0,2.8,1.4,2.8,3v12.4c0,1.7-1.3,3-2.8,3c-1.5,0-2.8-1.4-2.8-3V45.8z"/>
<path class="st0" d="M319.2,45.8c0-1.7,1.3-3,2.8-3c1.5,0,2.8,1.4,2.8,3v12.4c0,1.7-1.3,3-2.8,3c-1.5,0-2.8-1.4-2.8-3V45.8z"/>
<path class="st0" d="M299.6,41.7c0-1.7,1.3-3,2.8-3c1.5,0,2.8,1.4,2.8,3v20.6c0,1.7-1.3,3-2.8,3c-1.5,0-2.8-1.4-2.8-3V41.7z"/>
<path class="st0" d="M338.7,33.5c0-1.7,1.3-3,2.8-3c1.5,0,2.8,1.4,2.8,3v37.1c0,1.7-1.3,3-2.8,3c-1.5,0-2.8-1.4-2.8-3V33.5z"/>
<path class="st0" d="M358.2,37.6c0-1.7,1.3-3,2.8-3c1.5,0,2.8,1.4,2.8,3v28.9c0,1.7-1.3,3-2.8,3c-1.5,0-2.8-1.4-2.8-3V37.6z"/>
<path class="st0" d="M377.7,41.7c0-1.7,1.3-3,2.8-3c1.5,0,2.8,1.4,2.8,3v20.6c0,1.7-1.3,3-2.8,3c-1.5,0-2.8-1.4-2.8-3V41.7z"/>
<path class="st0" d="M397.3,45.8c0-1.7,1.3-3,2.8-3c1.5,0,2.8,1.4,2.8,3v12.4c0,1.7-1.3,3-2.8,3c-1.5,0-2.8-1.4-2.8-3V45.8z"/>
<path class="st0" d="M416.8,49.9c0-1.7,1.3-3,2.8-3c1.5,0,2.8,1.4,2.8,3v4.2c0,1.7-1.3,3-2.8,3c-1.5,0-2.8-1.4-2.8-3V49.9z"/>
<path class="st0" d="M436.3,42.7c0-1.7,1.3-3,2.8-3c1.5,0,2.8,1.4,2.8,3v18.7c0,1.7-1.3,3-2.8,3c-1.5,0-2.8-1.4-2.8-3V42.7z"/>
<path class="st0" d="M475.4,42.7c0-1.7,1.3-3,2.8-3c1.5,0,2.8,1.4,2.8,3v18.7c0,1.7-1.3,3-2.8,3c-1.5,0-2.8-1.4-2.8-3V42.7z"/>
<path class="st0" d="M455.9,35.4c0-1.7,1.3-3,2.8-3c1.5,0,2.8,1.4,2.8,3v33.1c0,1.7-1.3,3-2.8,3c-1.5,0-2.8-1.4-2.8-3V35.4z"/>
<path class="st0" d="M494.9,21c0-1.7,1.3-3,2.8-3c1.5,0,2.8,1.4,2.8,3v62c0,1.7-1.3,3-2.8,3c-1.5,0-2.8-1.4-2.8-3V21z"/>
<path class="st0" d="M514.4,35.4c0-1.7,1.3-3,2.8-3c1.5,0,2.8,1.4,2.8,3v33.1c0,1.7-1.3,3-2.8,3c-1.5,0-2.8-1.4-2.8-3V35.4z"/>
<path class="st0" d="M524.2,42.7c0-1.7,1.3-3,2.8-3c1.5,0,2.8,1.4,2.8,3v18.7c0,1.7-1.3,3-2.8,3c-1.5,0-2.8-1.4-2.8-3V42.7z"/>
<path class="st0" d="M504.7,42.7c0-1.7,1.3-3,2.8-3c1.5,0,2.8,1.4,2.8,3v18.7c0,1.7-1.3,3-2.8,3c-1.5,0-2.8-1.4-2.8-3V42.7z"/>
<path class="st0" d="M534,49.9c0-1.7,1.3-3,2.8-3c1.5,0,2.8,1.4,2.8,3v4.2c0,1.7-1.3,3-2.8,3c-1.5,0-2.8-1.4-2.8-3V49.9z"/>
<ellipse transform="matrix(5.530037e-02 -0.9985 0.9985 5.530037e-02 -4.8603 98.863)" class="st1" cx="49.8" cy="52" rx="45.5" ry="45.5"/>
<polygon class="st2" points="35.7,52 35.7,75.8 75.5,52 35.7,28.2 "/>
</svg>
