<?xml version="1.0" encoding="utf-8"?>
<!-- Generator: Adobe Illustrator 26.5.0, SVG Export Plug-In . SVG Version: 6.00 Build 0)  -->
<svg version="1.1" id="Ebene_1" xmlns="http://www.w3.org/2000/svg" xmlns:xlink="http://www.w3.org/1999/xlink" x="0px" y="0px"
	 viewBox="0 0 436 94.9" style="enable-background:new 0 0 436 94.9;" xml:space="preserve">
<style type="text/css">
	.st0{fill:#FFFFFF;}
	.st1{fill:none;stroke:#FFFFFF;stroke-width:4;stroke-miterlimit:10;}
</style>
<g>
	<g>
		<path class="st0" d="M40.9,16.9c0-1.7,1.3-3,2.8-3s2.8,1.4,2.8,3v62c0,1.7-1.3,3-2.8,3s-2.8-1.4-2.8-3V16.9z"/>
	</g>
	<g>
		<path class="st0" d="M80,24.1c0-1.7,1.3-3,2.8-3s2.8,1.4,2.8,3v47.6c0,1.7-1.3,3-2.8,3s-2.8-1.4-2.8-3V24.1z"/>
	</g>
	<g>
		<path class="st0" d="M99.5,31.4c0-1.7,1.3-3,2.8-3s2.8,1.4,2.8,3v33.1c0,1.7-1.3,3-2.8,3s-2.8-1.4-2.8-3V31.4z"/>
	</g>
	<g>
		<path class="st0" d="M119,38.6c0-1.7,1.3-3,2.8-3s2.8,1.4,2.8,3v18.7c0,1.7-1.3,3-2.8,3s-2.8-1.4-2.8-3V38.6z"/>
	</g>
	<g>
		<path class="st0" d="M11.6,45.8c0-1.7,1.3-3,2.8-3s2.8,1.4,2.8,3V50c0,1.7-1.3,3-2.8,3s-2.8-1.4-2.8-3V45.8z"/>
	</g>
	<g>
		<path class="st0" d="M21.4,38.6c0-1.7,1.3-3,2.8-3s2.8,1.4,2.8,3v18.7c0,1.7-1.3,3-2.8,3s-2.8-1.4-2.8-3V38.6z"/>
	</g>
	<g>
		<path class="st0" d="M60.5,38.6c0-1.7,1.3-3,2.8-3s2.8,1.4,2.8,3v18.7c0,1.7-1.3,3-2.8,3s-2.8-1.4-2.8-3V38.6z"/>
	</g>
	<g>
		<path class="st0" d="M138.6,45.8c0-1.7,1.3-3,2.8-3s2.8,1.4,2.8,3V50c0,1.7-1.3,3-2.8,3s-2.8-1.4-2.8-3V45.8z"/>
	</g>
	<g>
		<path class="st0" d="M158.1,38.6c0-1.7,1.3-3,2.8-3s2.8,1.4,2.8,3v18.7c0,1.7-1.3,3-2.8,3s-2.8-1.4-2.8-3V38.6z"/>
	</g>
	<g>
		<path class="st0" d="M275.2,38.6c0-1.7,1.3-3,2.8-3s2.8,1.4,2.8,3v18.7c0,1.7-1.3,3-2.8,3s-2.8-1.4-2.8-3V38.6z"/>
	</g>
	<g>
		<path class="st0" d="M294.8,45.8c0-1.7,1.3-3,2.8-3s2.8,1.4,2.8,3V50c0,1.7-1.3,3-2.8,3s-2.8-1.4-2.8-3V45.8z"/>
	</g>
	<g>
		<path class="st0" d="M255.7,45.8c0-1.7,1.3-3,2.8-3s2.8,1.4,2.8,3V50c0,1.7-1.3,3-2.8,3s-2.8-1.4-2.8-3V45.8z"/>
	</g>
	<g>
		<path class="st0" d="M177.5,45.8c0-1.7,1.3-3,2.8-3s2.8,1.4,2.8,3V50c0,1.7-1.3,3-2.8,3s-2.8-1.4-2.8-3V45.8z"/>
	</g>
	<g>
		<path class="st0" d="M314.3,41.7c0-1.7,1.3-3,2.8-3s2.8,1.4,2.8,3v12.4c0,1.7-1.3,3-2.8,3s-2.8-1.4-2.8-3V41.7z"/>
	</g>
	<g>
		<path class="st0" d="M333.8,37.6c0-1.7,1.3-3,2.8-3s2.8,1.4,2.8,3v20.6c0,1.7-1.3,3-2.8,3s-2.8-1.4-2.8-3V37.6z"/>
	</g>
	<g>
		<path class="st0" d="M353.3,33.5c0-1.7,1.3-3,2.8-3s2.8,1.4,2.8,3v28.9c0,1.7-1.3,3-2.8,3s-2.8-1.4-2.8-3V33.5z"/>
	</g>
	<g>
		<path class="st0" d="M372.9,29.4c0-1.7,1.3-3,2.8-3s2.8,1.4,2.8,3v37.1c0,1.7-1.3,3-2.8,3s-2.8-1.4-2.8-3V29.4z"/>
	</g>
	<g>
		<path class="st0" d="M31.2,31.4c0-1.7,1.3-3,2.8-3s2.8,1.4,2.8,3v33.1c0,1.7-1.3,3-2.8,3s-2.8-1.4-2.8-3V31.4z"/>
	</g>
	<g>
		<path class="st0" d="M50.7,24.1c0-1.7,1.3-3,2.8-3s2.8,1.4,2.8,3v47.6c0,1.7-1.3,3-2.8,3s-2.8-1.4-2.8-3V24.1z"/>
	</g>
	<g>
		<path class="st0" d="M70.2,16.9c0-1.7,1.3-3,2.8-3s2.8,1.4,2.8,3v62c0,1.7-1.3,3-2.8,3s-2.8-1.4-2.8-3V16.9z"/>
	</g>
	<g>
		<path class="st0" d="M109.3,24.1c0-1.7,1.3-3,2.8-3s2.8,1.4,2.8,3v47.6c0,1.7-1.3,3-2.8,3s-2.8-1.4-2.8-3V24.1z"/>
	</g>
	<g>
		<path class="st0" d="M89.7,31.4c0-1.7,1.3-3,2.8-3s2.8,1.4,2.8,3v33.1c0,1.7-1.3,3-2.8,3s-2.8-1.4-2.8-3V31.4z"/>
	</g>
	<g>
		<path class="st0" d="M128.8,38.6c0-1.7,1.3-3,2.8-3s2.8,1.4,2.8,3v18.7c0,1.7-1.3,3-2.8,3s-2.8-1.4-2.8-3
			C128.8,57.3,128.8,38.6,128.8,38.6z"/>
	</g>
	<g>
		<path class="st0" d="M148.3,45.8c0-1.7,1.3-3,2.8-3s2.8,1.4,2.8,3V50c0,1.7-1.3,3-2.8,3s-2.8-1.4-2.8-3V45.8z"/>
	</g>
	<g>
		<path class="st0" d="M167.8,41.7c0-1.7,1.3-3,2.8-3s2.8,1.4,2.8,3v12.4c0,1.7-1.3,3-2.8,3s-2.8-1.4-2.8-3V41.7z"/>
	</g>
	<g>
		<path class="st0" d="M265.4,37.6c0-1.7,1.3-3,2.8-3s2.8,1.4,2.8,3v20.6c0,1.7-1.3,3-2.8,3s-2.8-1.4-2.8-3V37.6z"/>
	</g>
	<g>
		<path class="st0" d="M284.9,41.7c0-1.7,1.3-3,2.8-3s2.8,1.4,2.8,3v12.4c0,1.7-1.3,3-2.8,3s-2.8-1.4-2.8-3V41.7z"/>
	</g>
	<g>
		<path class="st0" d="M304.4,45.8c0-1.7,1.3-3,2.8-3s2.8,1.4,2.8,3V50c0,1.7-1.3,3-2.8,3s-2.8-1.4-2.8-3V45.8z"/>
	</g>
	<g>
		<path class="st0" d="M323.9,38.6c0-1.7,1.3-3,2.8-3s2.8,1.4,2.8,3v18.7c0,1.7-1.3,3-2.8,3s-2.8-1.4-2.8-3V38.6z"/>
	</g>
	<g>
		<path class="st0" d="M363,38.6c0-1.7,1.3-3,2.8-3s2.8,1.4,2.8,3v18.7c0,1.7-1.3,3-2.8,3s-2.8-1.4-2.8-3V38.6z"/>
	</g>
	<g>
		<path class="st0" d="M343.5,31.4c0-1.7,1.3-3,2.8-3s2.8,1.4,2.8,3v33.1c0,1.7-1.3,3-2.8,3s-2.8-1.4-2.8-3V31.4z"/>
	</g>
	<g>
		<path class="st0" d="M382.5,16.9c0-1.7,1.3-3,2.8-3s2.8,1.4,2.8,3v62c0,1.7-1.3,3-2.8,3s-2.8-1.4-2.8-3V16.9z"/>
	</g>
	<g>
		<path class="st0" d="M402.2,31.4c0-1.7,1.3-3,2.8-3s2.8,1.4,2.8,3v33.1c0,1.7-1.3,3-2.8,3s-2.8-1.4-2.8-3V31.4z"/>
	</g>
	<g>
		<path class="st0" d="M411.9,38.6c0-1.7,1.3-3,2.8-3s2.8,1.4,2.8,3v18.7c0,1.7-1.3,3-2.8,3s-2.8-1.4-2.8-3V38.6z"/>
	</g>
	<g>
		<path class="st0" d="M392.4,38.6c0-1.7,1.3-3,2.8-3s2.8,1.4,2.8,3v18.7c0,1.7-1.3,3-2.8,3s-2.8-1.4-2.8-3V38.6z"/>
	</g>
	<g>
		<path class="st0" d="M421.6,45.8c0-1.7,1.3-3,2.8-3s2.8,1.4,2.8,3V50c0,1.7-1.3,3-2.8,3s-2.8-1.4-2.8-3V45.8z"/>
	</g>
</g>
<g>
	<circle class="st1" cx="219.4" cy="46.6" r="26.8"/>
	<path class="st0" d="M209.8,47.2v12.6c0,2.2,2.4,3.6,4.3,2.4L235,49.6c1.8-1.1,1.8-3.8,0-4.9l-20.9-12.5c-1.9-1.1-4.3,0.2-4.3,2.4
		V47.2z"/>
</g>
</svg>
