<?xml version="1.0" encoding="utf-8"?>
<!-- Generator: Adobe Illustrator 26.4.1, SVG Export Plug-In . SVG Version: 6.00 Build 0)  -->
<svg version="1.1" id="Ebene_1" xmlns="http://www.w3.org/2000/svg" xmlns:xlink="http://www.w3.org/1999/xlink" x="0px" y="0px"
	 viewBox="0 0 537 94.9" style="enable-background:new 0 0 537 94.9;" xml:space="preserve">
<style type="text/css">
	.st0{clip-path:url(#SVGID_00000139976752678042608220000001601471998663617717_);}
	.st1{opacity:0.5;clip-path:url(#SVGID_00000152970511678345837230000008140444874797200263_);}
	.st2{clip-path:url(#SVGID_00000126304507560657039480000001366108737215238301_);fill:#FFFFFF;}
	.st3{clip-path:url(#SVGID_00000152970511678345837230000008140444874797200263_);fill:#B2B2B2;}
	.st4{clip-path:url(#SVGID_00000152970511678345837230000008140444874797200263_);fill:none;stroke:#0A4066;stroke-width:3.67;}
	.st5{clip-path:url(#SVGID_00000139976752678042608220000001601471998663617717_);fill:#88BC29;}
</style>
<g>
	<defs>
		<rect id="SVGID_1_" width="537" height="94.9"/>
	</defs>
	<clipPath id="SVGID_00000058582071333230303910000011817380295598304190_">
		<use xlink:href="#SVGID_1_"  style="overflow:visible;"/>
	</clipPath>
	<g style="clip-path:url(#SVGID_00000058582071333230303910000011817380295598304190_);">
		<defs>
			<rect id="SVGID_00000033342801317782388250000001954602270980802458_" y="0" width="537" height="94.9"/>
		</defs>
		<clipPath id="SVGID_00000181089083871859871050000004563623016746569395_">
			<use xlink:href="#SVGID_00000033342801317782388250000001954602270980802458_"  style="overflow:visible;"/>
		</clipPath>
		<g style="opacity:0.5;clip-path:url(#SVGID_00000181089083871859871050000004563623016746569395_);">
			<g>
				<defs>
					<rect id="SVGID_00000041983189050650231750000009896734326559642772_" x="-9" y="-7" width="112.9" height="102.9"/>
				</defs>
				<clipPath id="SVGID_00000030471881327548296560000001912967177711507590_">
					<use xlink:href="#SVGID_00000041983189050650231750000009896734326559642772_"  style="overflow:visible;"/>
				</clipPath>
				<path style="clip-path:url(#SVGID_00000030471881327548296560000001912967177711507590_);fill:#FFFFFF;" d="M47.4,94.9
					c26.2,0,47.4-21.2,47.4-47.4C94.9,21.2,73.6,0,47.4,0S0,21.2,0,47.4C0,73.6,21.2,94.9,47.4,94.9"/>
			</g>
		</g>
		<path style="clip-path:url(#SVGID_00000181089083871859871050000004563623016746569395_);fill:#B2B2B2;" d="M150.7,16.3
			c0-1.7,1.3-3,2.8-3c1.5,0,2.8,1.4,2.8,3v62c0,1.7-1.3,3-2.8,3c-1.5,0-2.8-1.4-2.8-3V16.3z"/>
		<path style="clip-path:url(#SVGID_00000181089083871859871050000004563623016746569395_);fill:#B2B2B2;" d="M189.8,23.5
			c0-1.7,1.3-3,2.8-3c1.5,0,2.8,1.4,2.8,3v47.6c0,1.7-1.3,3-2.8,3c-1.5,0-2.8-1.4-2.8-3V23.5z"/>
		<path style="clip-path:url(#SVGID_00000181089083871859871050000004563623016746569395_);fill:#B2B2B2;" d="M209.3,30.8
			c0-1.7,1.3-3,2.8-3c1.5,0,2.8,1.4,2.8,3v33.1c0,1.7-1.3,3-2.8,3c-1.5,0-2.8-1.4-2.8-3V30.8z"/>
		<path style="clip-path:url(#SVGID_00000181089083871859871050000004563623016746569395_);fill:#B2B2B2;" d="M228.8,38
			c0-1.7,1.3-3,2.8-3c1.5,0,2.8,1.4,2.8,3v18.7c0,1.7-1.3,3-2.8,3c-1.5,0-2.8-1.4-2.8-3V38z"/>
		<path style="clip-path:url(#SVGID_00000181089083871859871050000004563623016746569395_);fill:#B2B2B2;" d="M121.4,45.2
			c0-1.7,1.3-3,2.8-3s2.8,1.4,2.8,3v4.2c0,1.7-1.3,3-2.8,3s-2.8-1.4-2.8-3V45.2z"/>
		<path style="clip-path:url(#SVGID_00000181089083871859871050000004563623016746569395_);fill:#B2B2B2;" d="M131.2,38
			c0-1.7,1.3-3,2.8-3c1.5,0,2.8,1.4,2.8,3v18.7c0,1.7-1.3,3-2.8,3c-1.5,0-2.8-1.4-2.8-3V38z"/>
		<path style="clip-path:url(#SVGID_00000181089083871859871050000004563623016746569395_);fill:#B2B2B2;" d="M170.3,38
			c0-1.7,1.3-3,2.8-3c1.5,0,2.8,1.4,2.8,3v18.7c0,1.7-1.3,3-2.8,3c-1.5,0-2.8-1.4-2.8-3V38z"/>
		<path style="clip-path:url(#SVGID_00000181089083871859871050000004563623016746569395_);fill:#B2B2B2;" d="M248.4,45.2
			c0-1.7,1.3-3,2.8-3c1.5,0,2.8,1.4,2.8,3v4.2c0,1.7-1.3,3-2.8,3c-1.5,0-2.8-1.4-2.8-3V45.2z"/>
		<path style="clip-path:url(#SVGID_00000181089083871859871050000004563623016746569395_);fill:#B2B2B2;" d="M267.9,38
			c0-1.7,1.3-3,2.8-3c1.5,0,2.8,1.4,2.8,3v18.7c0,1.7-1.3,3-2.8,3c-1.5,0-2.8-1.4-2.8-3V38z"/>
		<path style="clip-path:url(#SVGID_00000181089083871859871050000004563623016746569395_);fill:#B2B2B2;" d="M306.9,38
			c0-1.7,1.3-3,2.8-3c1.5,0,2.8,1.4,2.8,3v18.7c0,1.7-1.3,3-2.8,3c-1.5,0-2.8-1.4-2.8-3V38z"/>
		<path style="clip-path:url(#SVGID_00000181089083871859871050000004563623016746569395_);fill:#B2B2B2;" d="M287.4,30.8
			c0-1.7,1.3-3,2.8-3c1.5,0,2.8,1.4,2.8,3v33.1c0,1.7-1.3,3-2.8,3c-1.5,0-2.8-1.4-2.8-3V30.8z"/>
		<path style="clip-path:url(#SVGID_00000181089083871859871050000004563623016746569395_);fill:#B2B2B2;" d="M326.5,16.3
			c0-1.7,1.3-3,2.8-3c1.5,0,2.8,1.4,2.8,3v62c0,1.7-1.3,3-2.8,3c-1.5,0-2.8-1.4-2.8-3V16.3z"/>
		<path style="clip-path:url(#SVGID_00000181089083871859871050000004563623016746569395_);fill:#B2B2B2;" d="M346,23.5
			c0-1.7,1.3-3,2.8-3c1.5,0,2.8,1.4,2.8,3v47.6c0,1.7-1.3,3-2.8,3c-1.5,0-2.8-1.4-2.8-3V23.5z"/>
		<path style="clip-path:url(#SVGID_00000181089083871859871050000004563623016746569395_);fill:#B2B2B2;" d="M385,38
			c0-1.7,1.3-3,2.8-3c1.5,0,2.8,1.4,2.8,3v18.7c0,1.7-1.3,3-2.8,3c-1.5,0-2.8-1.4-2.8-3V38z"/>
		<path style="clip-path:url(#SVGID_00000181089083871859871050000004563623016746569395_);fill:#B2B2B2;" d="M404.6,45.2
			c0-1.7,1.3-3,2.8-3c1.5,0,2.8,1.4,2.8,3v4.2c0,1.7-1.3,3-2.8,3c-1.5,0-2.8-1.4-2.8-3V45.2z"/>
		<path style="clip-path:url(#SVGID_00000181089083871859871050000004563623016746569395_);fill:#B2B2B2;" d="M365.5,45.2
			c0-1.7,1.3-3,2.8-3c1.5,0,2.8,1.4,2.8,3v4.2c0,1.7-1.3,3-2.8,3c-1.5,0-2.8-1.4-2.8-3V45.2z"/>
		<path style="clip-path:url(#SVGID_00000181089083871859871050000004563623016746569395_);fill:#B2B2B2;" d="M424.1,41.1
			c0-1.7,1.3-3,2.8-3c1.5,0,2.8,1.4,2.8,3v12.4c0,1.7-1.3,3-2.8,3c-1.5,0-2.8-1.4-2.8-3V41.1z"/>
		<path style="clip-path:url(#SVGID_00000181089083871859871050000004563623016746569395_);fill:#B2B2B2;" d="M443.6,37
			c0-1.7,1.3-3,2.8-3c1.5,0,2.8,1.4,2.8,3v20.6c0,1.7-1.3,3-2.8,3c-1.5,0-2.8-1.4-2.8-3V37z"/>
		<path style="clip-path:url(#SVGID_00000181089083871859871050000004563623016746569395_);fill:#B2B2B2;" d="M463.1,32.9
			c0-1.7,1.3-3,2.8-3c1.5,0,2.8,1.4,2.8,3v28.9c0,1.7-1.3,3-2.8,3c-1.5,0-2.8-1.4-2.8-3V32.9z"/>
		<path style="clip-path:url(#SVGID_00000181089083871859871050000004563623016746569395_);fill:#B2B2B2;" d="M482.7,28.8
			c0-1.7,1.3-3,2.8-3c1.5,0,2.8,1.4,2.8,3v37.1c0,1.7-1.3,3-2.8,3c-1.5,0-2.8-1.4-2.8-3V28.8z"/>
		<path style="clip-path:url(#SVGID_00000181089083871859871050000004563623016746569395_);fill:#B2B2B2;" d="M141,30.8
			c0-1.7,1.3-3,2.8-3c1.5,0,2.8,1.4,2.8,3v33.1c0,1.7-1.3,3-2.8,3c-1.5,0-2.8-1.4-2.8-3V30.8z"/>
		<path style="clip-path:url(#SVGID_00000181089083871859871050000004563623016746569395_);fill:#B2B2B2;" d="M160.5,23.5
			c0-1.7,1.3-3,2.8-3c1.5,0,2.8,1.4,2.8,3v47.6c0,1.7-1.3,3-2.8,3c-1.5,0-2.8-1.4-2.8-3V23.5z"/>
		<path style="clip-path:url(#SVGID_00000181089083871859871050000004563623016746569395_);fill:#B2B2B2;" d="M180,16.3
			c0-1.7,1.3-3,2.8-3c1.5,0,2.8,1.4,2.8,3v62c0,1.7-1.3,3-2.8,3c-1.5,0-2.8-1.4-2.8-3V16.3z"/>
		<path style="clip-path:url(#SVGID_00000181089083871859871050000004563623016746569395_);fill:#B2B2B2;" d="M219.1,23.5
			c0-1.7,1.3-3,2.8-3c1.5,0,2.8,1.4,2.8,3v47.6c0,1.7-1.3,3-2.8,3c-1.5,0-2.8-1.4-2.8-3V23.5z"/>
		<path style="clip-path:url(#SVGID_00000181089083871859871050000004563623016746569395_);fill:#B2B2B2;" d="M199.5,30.8
			c0-1.7,1.3-3,2.8-3c1.5,0,2.8,1.4,2.8,3v33.1c0,1.7-1.3,3-2.8,3c-1.5,0-2.8-1.4-2.8-3V30.8z"/>
		<path style="clip-path:url(#SVGID_00000181089083871859871050000004563623016746569395_);fill:#B2B2B2;" d="M238.6,38
			c0-1.7,1.3-3,2.8-3c1.5,0,2.8,1.4,2.8,3v18.7c0,1.7-1.3,3-2.8,3c-1.5,0-2.8-1.4-2.8-3V38z"/>
		<path style="clip-path:url(#SVGID_00000181089083871859871050000004563623016746569395_);fill:#B2B2B2;" d="M258.1,45.2
			c0-1.7,1.3-3,2.8-3c1.5,0,2.8,1.4,2.8,3v4.2c0,1.7-1.3,3-2.8,3c-1.5,0-2.8-1.4-2.8-3V45.2z"/>
		<path style="clip-path:url(#SVGID_00000181089083871859871050000004563623016746569395_);fill:#B2B2B2;" d="M277.6,41.1
			c0-1.7,1.3-3,2.8-3c1.5,0,2.8,1.4,2.8,3v12.4c0,1.7-1.3,3-2.8,3c-1.5,0-2.8-1.4-2.8-3V41.1z"/>
		<path style="clip-path:url(#SVGID_00000181089083871859871050000004563623016746569395_);fill:#B2B2B2;" d="M316.7,41.1
			c0-1.7,1.3-3,2.8-3c1.5,0,2.8,1.4,2.8,3v12.4c0,1.7-1.3,3-2.8,3c-1.5,0-2.8-1.4-2.8-3V41.1z"/>
		<path style="clip-path:url(#SVGID_00000181089083871859871050000004563623016746569395_);fill:#B2B2B2;" d="M297.2,37
			c0-1.7,1.3-3,2.8-3c1.5,0,2.8,1.4,2.8,3v20.6c0,1.7-1.3,3-2.8,3c-1.5,0-2.8-1.4-2.8-3V37z"/>
		<path style="clip-path:url(#SVGID_00000181089083871859871050000004563623016746569395_);fill:#B2B2B2;" d="M336.2,28.8
			c0-1.7,1.3-3,2.8-3c1.5,0,2.8,1.4,2.8,3v37.1c0,1.7-1.3,3-2.8,3c-1.5,0-2.8-1.4-2.8-3V28.8z"/>
		<path style="clip-path:url(#SVGID_00000181089083871859871050000004563623016746569395_);fill:#B2B2B2;" d="M355.7,32.9
			c0-1.7,1.3-3,2.8-3c1.5,0,2.8,1.4,2.8,3v28.9c0,1.7-1.3,3-2.8,3c-1.5,0-2.8-1.4-2.8-3V32.9z"/>
		<path style="clip-path:url(#SVGID_00000181089083871859871050000004563623016746569395_);fill:#B2B2B2;" d="M375.3,37
			c0-1.7,1.3-3,2.8-3c1.5,0,2.8,1.4,2.8,3v20.6c0,1.7-1.3,3-2.8,3c-1.5,0-2.8-1.4-2.8-3V37z"/>
		<path style="clip-path:url(#SVGID_00000181089083871859871050000004563623016746569395_);fill:#B2B2B2;" d="M394.8,41.1
			c0-1.7,1.3-3,2.8-3c1.5,0,2.8,1.4,2.8,3v12.4c0,1.7-1.3,3-2.8,3c-1.5,0-2.8-1.4-2.8-3V41.1z"/>
		<path style="clip-path:url(#SVGID_00000181089083871859871050000004563623016746569395_);fill:#B2B2B2;" d="M414.3,45.2
			c0-1.7,1.3-3,2.8-3c1.5,0,2.8,1.4,2.8,3v4.2c0,1.7-1.3,3-2.8,3c-1.5,0-2.8-1.4-2.8-3V45.2z"/>
		<path style="clip-path:url(#SVGID_00000181089083871859871050000004563623016746569395_);fill:#B2B2B2;" d="M433.8,38
			c0-1.7,1.3-3,2.8-3c1.5,0,2.8,1.4,2.8,3v18.7c0,1.7-1.3,3-2.8,3c-1.5,0-2.8-1.4-2.8-3V38z"/>
		<path style="clip-path:url(#SVGID_00000181089083871859871050000004563623016746569395_);fill:#B2B2B2;" d="M472.9,38
			c0-1.7,1.3-3,2.8-3c1.5,0,2.8,1.4,2.8,3v18.7c0,1.7-1.3,3-2.8,3c-1.5,0-2.8-1.4-2.8-3V38z"/>
		<path style="clip-path:url(#SVGID_00000181089083871859871050000004563623016746569395_);fill:#B2B2B2;" d="M453.4,30.8
			c0-1.7,1.3-3,2.8-3c1.5,0,2.8,1.4,2.8,3v33.1c0,1.7-1.3,3-2.8,3c-1.5,0-2.8-1.4-2.8-3V30.8z"/>
		<path style="clip-path:url(#SVGID_00000181089083871859871050000004563623016746569395_);fill:#B2B2B2;" d="M492.4,16.3
			c0-1.7,1.3-3,2.8-3c1.5,0,2.8,1.4,2.8,3v62c0,1.7-1.3,3-2.8,3c-1.5,0-2.8-1.4-2.8-3V16.3z"/>
		<path style="clip-path:url(#SVGID_00000181089083871859871050000004563623016746569395_);fill:#B2B2B2;" d="M512,30.8
			c0-1.7,1.3-3,2.8-3c1.5,0,2.8,1.4,2.8,3v33.1c0,1.7-1.3,3-2.8,3c-1.5,0-2.8-1.4-2.8-3V30.8z"/>
		<path style="clip-path:url(#SVGID_00000181089083871859871050000004563623016746569395_);fill:#B2B2B2;" d="M521.7,38
			c0-1.7,1.3-3,2.8-3c1.5,0,2.8,1.4,2.8,3v18.7c0,1.7-1.3,3-2.8,3c-1.5,0-2.8-1.4-2.8-3V38z"/>
		<path style="clip-path:url(#SVGID_00000181089083871859871050000004563623016746569395_);fill:#B2B2B2;" d="M502.2,38
			c0-1.7,1.3-3,2.8-3c1.5,0,2.8,1.4,2.8,3v18.7c0,1.7-1.3,3-2.8,3c-1.5,0-2.8-1.4-2.8-3V38z"/>
		<path style="clip-path:url(#SVGID_00000181089083871859871050000004563623016746569395_);fill:#B2B2B2;" d="M531.5,45.2
			c0-1.7,1.3-3,2.8-3c1.5,0,2.8,1.4,2.8,3v4.2c0,1.7-1.3,3-2.8,3c-1.5,0-2.8-1.4-2.8-3V45.2z"/>
		
			<circle style="clip-path:url(#SVGID_00000181089083871859871050000004563623016746569395_);fill:none;stroke:#0A4066;stroke-width:3.67;" cx="47.3" cy="47.3" r="45.5"/>
	</g>
	<polygon style="clip-path:url(#SVGID_00000058582071333230303910000011817380295598304190_);fill:#88BC29;" points="33.2,47.3 
		33.2,71.2 73,47.3 33.2,23.5 	"/>
</g>
</svg>
