<svg xmlns="http://www.w3.org/2000/svg" viewBox="0 0 69.49 72.41"><defs><style>.cls-1{fill:#fff;}</style></defs><g id="Layer_2" data-name="Layer 2"><g id="Layer_1-2" data-name="Layer 1"><path class="cls-1" d="M0,61.33l.75-1.89,19.51,3.32-1,2.39-3.77-.72L14.11,68l3.23,2.09-.93,2.33ZM13.52,64l-3.08-.6c-2.09-.42-4.28-1-6.59-1.62,1,.54,2.08,1.12,3.11,1.73s2.13,1.28,3.28,2l2.13,1.36Z"/><path class="cls-1" d="M9.18,56.09,10.25,54l1.45.72A4.63,4.63,0,0,1,11,52.94a3.08,3.08,0,0,1,.28-1.64l2.24,1.12c-.09.14-.17.26-.22.36A2.3,2.3,0,0,0,13,54.73a3.66,3.66,0,0,0,1.81,1.5l7,3.5L20.8,61.87Z"/><path class="cls-1" d="M15.51,45l2.11,1.24a1.52,1.52,0,0,0-1.14.72q-1,1.71,2.7,3.88,3.93,2.3,4.92.59a2.11,2.11,0,0,0,.2-1.29l1.93,1.13a4.05,4.05,0,0,1-.54,1.92q-1.95,3.33-7.62,0a10.79,10.79,0,0,1-4-3.43,3.19,3.19,0,0,1,.06-3.39A4.26,4.26,0,0,1,15.51,45Z"/><path class="cls-1" d="M9.82,37.91l1.38-2,8,5.63a3.07,3.07,0,0,1,.13-3.16,2.37,2.37,0,0,1,2.31-1.13,6.56,6.56,0,0,1,2.45,1.25l7.55,5.29-1.37,2-7.11-5A4.07,4.07,0,0,0,21.48,40a1.13,1.13,0,0,0-1.07.57,1.46,1.46,0,0,0-.28.65,1.06,1.06,0,0,0,.12.64,2.36,2.36,0,0,0,.53.69,8.74,8.74,0,0,0,1,.79l6.87,4.81-1.37,2Z"/><path class="cls-1" d="M19.56,29.44a1.49,1.49,0,0,1,1.08-.57,1.55,1.55,0,0,1,1.19.35,1.57,1.57,0,0,1,.59,1.09A1.63,1.63,0,0,1,21,32.1a1.63,1.63,0,0,1-1.77-1.45A1.7,1.7,0,0,1,19.56,29.44Zm3.56,4.36,1.52-1.87L34.7,40.12,33.18,42Z"/><path class="cls-1" d="M24.16,26.91l1.6-1.78,2.7,2.43.88-1,1.41,1.27-.87,1,8.22,7.41L36.49,38l-8.21-7.41-.89,1L26,30.32l.88-1Z"/><path class="cls-1" d="M40.47,27.65l1.61-1.55c2,2.32,2.14,4.29.47,5.9A3.75,3.75,0,0,1,41,33a3.05,3.05,0,0,1-1.72,0,5.93,5.93,0,0,1-2-1,16.3,16.3,0,0,1-2.23-2,10.46,10.46,0,0,1-2.84-4.33,3.19,3.19,0,0,1,1-3.25Q36,19.7,40.8,24.64l.21.22-3.95,3.8c1.92,2,3.28,2.61,4.08,1.85S41.64,28.86,40.47,27.65Zm-2.42-2.34a8.71,8.71,0,0,0-2.2-1.61,1.1,1.1,0,0,0-1.25.21,1.08,1.08,0,0,0-.26,1.25,8.62,8.62,0,0,0,1.52,2.25Z"/><path class="cls-1" d="M33.17,11.45,35,10l8.81,11-1.23-6.41,2.11-1.7,1,6.58,7.42,3.27L51,24.46l-7-3.27,4.31,5.38-1.87,1.5Z"/><path class="cls-1" d="M45,8.3l2-1.36,2,3,1.08-.74,1.08,1.57-1.08.74,6.27,9.12-2,1.36-6.26-9.13L47,13.61,46,12,47,11.29Z"/><path class="cls-1" d="M52.07,7.88l2.07-1.2,4.35,7.5a3.35,3.35,0,0,0,1.17,1.31,1.24,1.24,0,0,0,1.22-.11,1.34,1.34,0,0,0,.76-1,3.21,3.21,0,0,0-.55-1.59l-.52-.9-3.9-6.71L58.74,4l3.9,6.71a10.48,10.48,0,0,1,1.47,3.34c.11,1.31-.59,2.41-2.12,3.29a3.61,3.61,0,0,1-3.08.57,5.56,5.56,0,0,1-2.54-2.62Z"/><path class="cls-1" d="M61.75,2.51l2.16-1,.7,1.46a4.61,4.61,0,0,1,.47-1.83A3.17,3.17,0,0,1,66.32,0l1.07,2.26-.4.15A2.33,2.33,0,0,0,65.61,3.8a3.69,3.69,0,0,0,.5,2.29l3.38,7.1-2.16,1Z"/></g></g></svg>