<?xml version="1.0" encoding="utf-8"?>
<!-- Generator: Adobe Illustrator 25.0.0, SVG Export Plug-In . SVG Version: 6.00 Build 0)  -->
<svg version="1.1" id="Ebene_1" xmlns="http://www.w3.org/2000/svg" xmlns:xlink="http://www.w3.org/1999/xlink" x="0px" y="0px"
	 viewBox="0 0 417 169" style="enable-background:new 0 0 417 169;" xml:space="preserve">
<style type="text/css">
	.st0{fill:#2EA598;}
	.st1{fill:#FFFFFF;}
</style>
<g id="Layer_2">
	<g id="Layer_1-2">
		<path class="st0" d="M14,89.8V59.2C14,33.1,35.1,12,61.2,12h296.1c26.1,0,47.2,21.1,47.2,47.2c0,0,0,0,0,0V70
			c0,26.1-21.1,47.2-47.2,47.2H84.4c-11.7,0-28.1,2.2-38.7,15s-10.3,22.1-18.3,22.1C18.8,154.2,14,106,14,89.8z"/>
		<path class="st1" d="M76.7,94.2c-15,0-27.2-12.2-27.2-27.2s12.2-27.2,27.2-27.2S103.8,52,103.8,67C103.8,82.1,91.7,94.2,76.7,94.2
			z M76.7,38C60.6,38,47.6,51,47.6,67s13,29.1,29.1,29.1s29.1-13,29.1-29.1l0,0C105.7,51,92.7,38,76.7,38L76.7,38z"/>
		<polygon class="st1" points="65.8,81.7 91.3,67.1 65.8,52.4 		"/>
		<path class="st1" d="M307.7,60.8c0.9,0,1.6,0.7,1.6,1.6v0v9.4c0,0.9-0.7,1.6-1.6,1.6s-1.6-0.7-1.6-1.6v-9.4
			C306.1,61.5,306.8,60.8,307.7,60.8L307.7,60.8z"/>
		<path class="st1" d="M301,57.4c0.9,0,1.6,0.7,1.6,1.6v16c0,0.9-0.7,1.6-1.6,1.6s-1.6-0.7-1.6-1.6V59
			C299.4,58.1,300.1,57.4,301,57.4z"/>
		<path class="st1" d="M294.4,49.4c0.9,0,1.6,0.7,1.6,1.5c0,0,0,0,0,0v32c0,0.9-0.7,1.6-1.6,1.6s-1.6-0.7-1.6-1.6V51
			C292.8,50.1,293.5,49.5,294.4,49.4z"/>
		<path class="st1" d="M274.4,58.7c-0.9,0-1.6,0.7-1.6,1.6v0v13.5c0,0.9,0.7,1.6,1.6,1.6s1.6-0.7,1.6-1.6V60.3
			C276,59.4,275.3,58.7,274.4,58.7L274.4,58.7z"/>
		<path class="st1" d="M281.4,62.7c-0.9,0-1.6,0.7-1.6,1.6v0v5.5c0,0.9,0.7,1.6,1.6,1.6s1.6-0.7,1.6-1.6v-5.5
			C283,63.4,282.3,62.7,281.4,62.7L281.4,62.7z"/>
		<path class="st1" d="M227.8,50c-0.9,0-1.6,0.7-1.6,1.6v0v31c0,0.9,0.7,1.6,1.6,1.6s1.6-0.7,1.6-1.6c0,0,0,0,0,0v-31
			C229.4,50.7,228.6,50,227.8,50z"/>
		<path class="st1" d="M234.4,57.6c-0.9,0-1.6,0.7-1.6,1.6v0v15.7c0,0.9,0.7,1.6,1.6,1.6c0.9,0,1.6-0.7,1.6-1.6V59.2
			C236,58.3,235.3,57.6,234.4,57.6z"/>
		<path class="st1" d="M241.1,60.7c-0.9,0-1.6,0.7-1.6,1.6v0v9.5c0,0.9,0.7,1.6,1.6,1.6s1.6-0.7,1.6-1.6c0,0,0,0,0,0v-9.5
			C242.7,61.4,242,60.7,241.1,60.7z"/>
		<path class="st1" d="M247.7,55.8c-0.9,0-1.6,0.7-1.6,1.6v19.2c-0.1,0.9,0.6,1.7,1.5,1.7c0.9,0.1,1.7-0.6,1.7-1.5
			c0-0.1,0-0.2,0-0.3V57.4C249.3,56.5,248.6,55.8,247.7,55.8L247.7,55.8z"/>
		<path class="st1" d="M254.4,50c-0.9,0-1.6,0.7-1.6,1.6v0v30.9c-0.1,0.9,0.6,1.7,1.5,1.7c0.9,0.1,1.7-0.6,1.7-1.5
			c0-0.1,0-0.2,0-0.3V51.6C256,50.7,255.3,50,254.4,50C254.4,50,254.4,50,254.4,50z"/>
		<path class="st1" d="M261.1,58c-0.9,0-1.6,0.7-1.6,1.6v0v14.9c0,0.9,0.7,1.6,1.6,1.6s1.6-0.7,1.6-1.6V59.6
			C262.7,58.7,261.9,58,261.1,58z"/>
		<path class="st1" d="M267.7,45.4c-0.9,0-1.6,0.7-1.6,1.6v40.2c0,0.9,0.7,1.6,1.6,1.6s1.6-0.7,1.6-1.6V47
			C269.3,46.1,268.6,45.4,267.7,45.4C267.7,45.4,267.7,45.4,267.7,45.4z"/>
		<path class="st1" d="M221.1,36.4c0.9,0,1.6,0.7,1.6,1.6v58.1c0,0.9-0.7,1.6-1.6,1.6c-0.9,0-1.6-0.7-1.6-1.6V38
			C219.5,37.1,220.2,36.4,221.1,36.4z"/>
		<path class="st1" d="M214.4,45.4c0.9,0,1.6,0.7,1.6,1.6v40.1c0,0.9-0.7,1.6-1.6,1.6c-0.9,0-1.6-0.7-1.6-1.6V47
			C212.8,46.1,213.5,45.4,214.4,45.4C214.4,45.4,214.4,45.4,214.4,45.4z"/>
		<path class="st1" d="M207.8,49.3c0.9,0,1.6,0.7,1.6,1.6v32.2c0,0.9-0.7,1.6-1.6,1.6s-1.6-0.7-1.6-1.6c0,0,0,0,0,0V50.9
			C206.2,50,206.9,49.3,207.8,49.3z"/>
		<path class="st1" d="M201.1,53.9c0.9,0,1.6,0.7,1.6,1.6v0v23c0,0.9-0.7,1.6-1.6,1.6c-0.9,0-1.6-0.7-1.6-1.6v-23
			C199.5,54.6,200.2,53.9,201.1,53.9z"/>
		<path class="st1" d="M194.5,57.8c0.9,0,1.6,0.7,1.6,1.6v0v15.4c0,0.9-0.7,1.6-1.6,1.6c-0.9,0-1.6-0.7-1.6-1.6V59.4
			C192.9,58.5,193.6,57.8,194.5,57.8z"/>
		<path class="st1" d="M187.8,61.3c0.9,0,1.6,0.7,1.6,1.6v0v8.3c0,0.9-0.7,1.6-1.6,1.6c-0.9,0-1.6-0.7-1.6-1.6v-8.3
			C186.2,62,186.9,61.3,187.8,61.3z"/>
		<path class="st1" d="M181.1,57.2c0.9,0,1.6,0.7,1.6,1.6v16.4c0,0.9-0.7,1.6-1.6,1.6c-0.9,0-1.6-0.7-1.6-1.6V58.8
			C179.6,57.9,180.3,57.2,181.1,57.2z"/>
		<path class="st1" d="M174.5,49.3c0.9,0,1.6,0.7,1.6,1.6v32.3c0.1,0.9-0.6,1.7-1.5,1.7c-0.9,0.1-1.7-0.6-1.7-1.5c0-0.1,0-0.2,0-0.3
			V50.9C172.9,50,173.6,49.3,174.5,49.3C174.5,49.3,174.5,49.3,174.5,49.3z"/>
		<path class="st1" d="M127.9,57.4c-0.9,0-1.6,0.7-1.6,1.6v16.1c0,0.9,0.7,1.6,1.6,1.6s1.6-0.7,1.6-1.6c0,0,0,0,0,0V59
			C129.5,58.1,128.8,57.4,127.9,57.4C127.9,57.4,127.9,57.4,127.9,57.4z"/>
		<path class="st1" d="M134.5,59.4c-0.9,0-1.6,0.7-1.6,1.6v0v12.2c0,0.9,0.7,1.6,1.6,1.6s1.6-0.7,1.6-1.6c0,0,0,0,0,0V61
			C136.2,60.1,135.5,59.4,134.5,59.4C134.6,59.4,134.5,59.4,134.5,59.4z"/>
		<path class="st1" d="M141.2,61.5c-0.9,0-1.6,0.7-1.6,1.6v0V71c0,0.9,0.7,1.6,1.6,1.6c0.9,0,1.6-0.7,1.6-1.6v-7.9
			C142.8,62.2,142.1,61.5,141.2,61.5z"/>
		<path class="st1" d="M167.8,63.7c0.9,0,1.6,0.7,1.6,1.6v0v3.4c0,0.9-0.7,1.6-1.6,1.6s-1.6-0.7-1.6-1.6c0,0,0,0,0,0v-3.4
			C166.2,64.5,166.9,63.7,167.8,63.7z"/>
		<path class="st1" d="M287.7,63.7c-0.9,0-1.6,0.7-1.6,1.6v0v3.4c0,0.9,0.7,1.6,1.6,1.6s1.6-0.7,1.6-1.6v-3.4
			C289.3,64.5,288.6,63.7,287.7,63.7L287.7,63.7z"/>
		<path class="st1" d="M161.2,63.7c0.9,0,1.6,0.7,1.6,1.6v0v3.4c0,0.9-0.7,1.6-1.6,1.6c-0.9,0-1.6-0.7-1.6-1.6v-3.4
			C159.6,64.5,160.3,63.7,161.2,63.7z"/>
		<path class="st1" d="M121.2,63.7c0.9,0,1.6,0.7,1.6,1.6l0,0v3.4c0,0.9-0.7,1.6-1.6,1.6c-0.9,0-1.6-0.7-1.6-1.6v-3.4
			C119.6,64.5,120.3,63.8,121.2,63.7z"/>
		<path class="st1" d="M114.6,63.7c0.9,0,1.6,0.7,1.6,1.6l0,0v3.4c0,0.9-0.7,1.6-1.6,1.6s-1.6-0.7-1.6-1.6c0,0,0,0,0,0v-3.4
			C113,64.5,113.7,63.7,114.6,63.7z"/>
		<path class="st1" d="M154.5,63.7c0.9,0,1.6,0.7,1.6,1.6v0v3.4c0,0.9-0.7,1.6-1.6,1.6c-0.9,0-1.6-0.7-1.6-1.6v-3.4
			C152.9,64.5,153.6,63.7,154.5,63.7z"/>
		<path class="st1" d="M147.9,63.7c0.9,0,1.6,0.7,1.6,1.6v0v3.4c0,0.9-0.7,1.6-1.6,1.6c-0.9,0-1.6-0.7-1.6-1.6v-3.4
			C146.3,64.5,147,63.7,147.9,63.7z"/>
	</g>
</g>
</svg>
