<?xml version="1.0" encoding="utf-8"?>
<!-- Generator: Adobe Illustrator 25.0.0, SVG Export Plug-In . SVG Version: 6.00 Build 0)  -->
<svg version="1.1" id="Ebene_1" xmlns="http://www.w3.org/2000/svg" xmlns:xlink="http://www.w3.org/1999/xlink" x="0px" y="0px"
	 viewBox="0 0 418 169" style="enable-background:new 0 0 418 169;" xml:space="preserve">
<style type="text/css">
	.st0{fill:#57289C;}
	.st1{fill:#FFFFFF;}
</style>
<g id="Layer_2">
	<g id="Layer_1-2">
		<path class="st0" d="M404.5,89.8V59.2c0-26.1-21.1-47.2-47.2-47.2H61.2C35.1,12,14,33.1,14,59.2c0,0,0,0,0,0V70
			c0,26.1,21.1,47.2,47.2,47.2h272.9c11.7,0,28.1,2.2,38.7,15s10.3,22.1,18.3,22.1C399.7,154.2,404.5,106,404.5,89.8z"/>
		<path class="st1" d="M75.2,92.1c-14.9,0-27-12.1-27-27s12.1-27,27-27s27,12.1,27,27S90.1,92.1,75.2,92.1z M75.2,36.1
			c-16,0-28.9,12.9-28.9,28.9s12.9,28.9,28.9,28.9S104.1,81,104.1,65c0,0,0,0,0,0C104,49.1,91.1,36.2,75.2,36.1z"/>
		<polygon class="st1" points="64.4,79.6 89.7,65 64.4,50.5 		"/>
		<path class="st1" d="M119.1,58.8c-0.9,0-1.6,0.7-1.6,1.6v9.3c0,0.9,0.7,1.6,1.6,1.6c0.9,0,1.6-0.7,1.6-1.6v-9.3
			C120.7,59.5,120,58.8,119.1,58.8C119.1,58.8,119.1,58.8,119.1,58.8z"/>
		<path class="st1" d="M125.7,55.5c-0.9,0-1.6,0.7-1.6,1.6V73c0,0.9,0.7,1.6,1.6,1.6c0.9,0,1.6-0.7,1.6-1.6V57.1
			C127.3,56.2,126.6,55.5,125.7,55.5z"/>
		<path class="st1" d="M132.3,47.5c-0.9,0-1.6,0.7-1.6,1.6V81c0,0.9,0.7,1.6,1.6,1.6c0.9,0,1.6-0.7,1.6-1.6V49.1
			C133.9,48.3,133.2,47.5,132.3,47.5z"/>
		<path class="st1" d="M138.9,56.7c-0.9,0-1.6,0.7-1.6,1.6v13.4c0,0.9,0.7,1.6,1.6,1.6c0.9,0,1.6-0.7,1.6-1.6c0,0,0,0,0,0V58.3
			C140.5,57.5,139.8,56.7,138.9,56.7z"/>
		<path class="st1" d="M146,60.7c-0.9,0-1.6,0.7-1.6,1.6v5.5c0,0.9,0.7,1.6,1.6,1.6c0.9,0,1.6-0.7,1.6-1.6v-5.5
			C147.6,61.4,146.9,60.7,146,60.7z"/>
		<path class="st1" d="M152.2,55.7c-0.9,0-1.6,0.7-1.6,1.6v15.5c0,0.9,0.7,1.6,1.6,1.6c0.9,0,1.6-0.7,1.6-1.6c0,0,0,0,0,0V57.3
			C153.8,56.4,153,55.7,152.2,55.7z"/>
		<path class="st1" d="M158.8,48.1c-0.9,0-1.6,0.7-1.6,1.6v30.8c0,0.9,0.7,1.6,1.6,1.6c0.9,0,1.6-0.7,1.6-1.6c0,0,0,0,0,0V49.7
			C160.4,48.8,159.7,48.1,158.8,48.1z"/>
		<path class="st1" d="M165.4,55.7c-0.9,0-1.6,0.7-1.6,1.6v15.6c0,0.9,0.7,1.6,1.6,1.6c0.9,0,1.6-0.7,1.6-1.6V57.2
			C167,56.4,166.3,55.7,165.4,55.7z"/>
		<path class="st1" d="M172,58.7c-0.9,0-1.6,0.7-1.6,1.6v9.4c0,0.9,0.7,1.6,1.6,1.6c0.9,0,1.6-0.7,1.6-1.6c0,0,0,0,0,0v-9.5
			C173.6,59.4,172.9,58.7,172,58.7z"/>
		<path class="st1" d="M178.6,53.9c-0.9,0-1.6,0.7-1.6,1.6v19.1c0,0.9,0.7,1.6,1.6,1.6c0.9,0,1.6-0.7,1.6-1.6c0,0,0,0,0,0V55.5
			C180.2,54.6,179.5,53.9,178.6,53.9z"/>
		<path class="st1" d="M185.2,48.1c-0.9,0-1.6,0.7-1.6,1.6v30.6c0,0.9,0.7,1.6,1.6,1.6c0.9,0,1.6-0.7,1.6-1.6V49.7
			C186.8,48.9,186.1,48.1,185.2,48.1z"/>
		<path class="st1" d="M191.9,56c-0.9,0-1.6,0.7-1.6,1.6v14.9c-0.1,0.9,0.6,1.6,1.5,1.7c0.9,0.1,1.6-0.6,1.7-1.5c0-0.1,0-0.2,0-0.3
			V57.6C193.5,56.8,192.8,56,191.9,56C191.9,56,191.9,56,191.9,56z"/>
		<path class="st1" d="M198.5,43.5c-0.9,0-1.6,0.7-1.6,1.6V85c0,0.9,0.7,1.6,1.6,1.6c0.9,0,1.6-0.7,1.6-1.6c0,0,0,0,0,0V45.1
			C200.1,44.2,199.4,43.5,198.5,43.5z"/>
		<path class="st1" d="M205.1,34.6c-0.9,0-1.6,0.7-1.6,1.6v57.7c-0.1,0.9,0.6,1.6,1.5,1.7c0.9,0.1,1.6-0.6,1.7-1.5
			c0-0.1,0-0.2,0-0.3V36.2C206.7,35.3,206,34.6,205.1,34.6z"/>
		<path class="st1" d="M211.7,43.5c-0.9,0-1.6,0.7-1.6,1.6V85c0,0.9,0.7,1.6,1.6,1.6c0.9,0,1.6-0.7,1.6-1.6c0,0,0,0,0,0V45.1
			C213.3,44.2,212.6,43.5,211.7,43.5z"/>
		<path class="st1" d="M218.3,47.4c-0.9,0-1.6,0.7-1.6,1.6v32c0,0.9,0.7,1.6,1.6,1.6c0.9,0,1.6-0.7,1.6-1.6V49
			C219.9,48.1,219.2,47.4,218.3,47.4z"/>
		<path class="st1" d="M225,52c-0.9,0-1.6,0.7-1.6,1.6v22.9c-0.1,0.9,0.6,1.6,1.5,1.7c0.9,0.1,1.6-0.6,1.7-1.5c0-0.1,0-0.2,0-0.3
			V53.6C226.6,52.7,225.9,52,225,52C225,52,225,52,225,52z"/>
		<path class="st1" d="M231.6,55.8c-0.9,0-1.6,0.7-1.6,1.6v15.3c0,0.9,0.7,1.6,1.6,1.6c0.9,0,1.6-0.7,1.6-1.6V57.4
			C233.2,56.5,232.5,55.8,231.6,55.8C231.6,55.8,231.6,55.8,231.6,55.8z"/>
		<path class="st1" d="M238.2,59.4c-0.9,0-1.6,0.7-1.6,1.6v0v8.2c0.1,0.9,0.8,1.5,1.7,1.5c0.8-0.1,1.4-0.7,1.5-1.5v-8.2
			C239.8,60.1,239,59.4,238.2,59.4z"/>
		<path class="st1" d="M244.8,55.3c-0.9,0-1.6,0.7-1.6,1.6v16.3c0,0.9,0.7,1.6,1.6,1.6c0.9,0,1.6-0.7,1.6-1.6c0,0,0,0,0,0V56.9
			C246.4,56,245.7,55.3,244.8,55.3z"/>
		<path class="st1" d="M251.4,47.4c-0.9,0-1.6,0.7-1.6,1.6v32.1c0,0.9,0.7,1.6,1.6,1.6c0.9,0,1.6-0.7,1.6-1.6V49
			C253,48.1,252.3,47.4,251.4,47.4z"/>
		<path class="st1" d="M258,56c-0.9,0-1.6,0.7-1.6,1.6v14.9c0,0.9,0.7,1.6,1.6,1.6c0.9,0,1.6-0.7,1.6-1.6V57.6
			C259.6,56.7,258.9,56,258,56z"/>
		<path class="st1" d="M264.6,58.5c-0.9,0-1.6,0.7-1.6,1.6V70c0,0.9,0.7,1.6,1.6,1.6c0.9,0,1.6-0.7,1.6-1.6v-9.9
			C266.2,59.2,265.5,58.5,264.6,58.5z"/>
		<path class="st1" d="M271.2,55.8c-0.9,0-1.6,0.7-1.6,1.6v15.4c-0.1,0.9,0.6,1.6,1.5,1.7c0.9,0.1,1.6-0.6,1.7-1.5
			c0-0.1,0-0.2,0-0.3V57.3C272.8,56.5,272.1,55.8,271.2,55.8L271.2,55.8z"/>
		<path class="st1" d="M277.9,47.2c-0.9,0-1.6,0.7-1.6,1.6v32.5c0,0.9,0.7,1.6,1.6,1.6c0.9,0,1.6-0.7,1.6-1.6c0,0,0,0,0,0V48.8
			C279.5,47.9,278.7,47.2,277.9,47.2z"/>
		<path class="st1" d="M284.5,55.5c-0.9,0-1.6,0.7-1.6,1.5v16c0,0.9,0.7,1.6,1.6,1.6c0.9,0,1.6-0.7,1.6-1.6c0,0,0,0,0,0V57
			C286,56.1,285.3,55.4,284.5,55.5z"/>
		<path class="st1" d="M291.1,57.4c-0.9,0-1.6,0.7-1.6,1.6v12.1c0,0.9,0.7,1.6,1.6,1.6c0.9,0,1.6-0.7,1.6-1.6c0,0,0,0,0,0V59
			C292.7,58.1,292,57.4,291.1,57.4C291.1,57.4,291.1,57.4,291.1,57.4z"/>
		<path class="st1" d="M297.7,59.5c-0.9,0-1.6,0.7-1.6,1.6V69c0,0.9,0.7,1.6,1.6,1.6c0.9,0,1.6-0.7,1.6-1.6c0,0,0,0,0,0v-7.9
			C299.3,60.3,298.6,59.6,297.7,59.5z"/>
	</g>
</g>
</svg>
