<svg xmlns="http://www.w3.org/2000/svg" xmlns:xlink="http://www.w3.org/1999/xlink" width="571" height="567" viewBox="0 0 571 567"><defs><style>.a{fill:#cca372;}.a,.b{fill-rule:evenodd;}.b{fill:#57289c;}.c{fill:#1e1d70;}.d{fill:#2ea598;}.e{fill:#fff;}.f{filter:url(#e);}.g{filter:url(#c);}.h{filter:url(#a);}</style><filter id="a" x="0" y="275.5" width="291.5" height="291.5" filterUnits="userSpaceOnUse"><feOffset dy="2" input="SourceAlpha"/><feGaussianBlur stdDeviation="2" result="b"/><feFlood flood-opacity="0.161"/><feComposite operator="in" in2="b"/><feComposite in="SourceGraphic"/></filter><filter id="c" x="279.5" y="275.5" width="291.5" height="291.5" filterUnits="userSpaceOnUse"><feOffset dy="2" input="SourceAlpha"/><feGaussianBlur stdDeviation="2" result="d"/><feFlood flood-opacity="0.161"/><feComposite operator="in" in2="d"/><feComposite in="SourceGraphic"/></filter><filter id="e" x="115.61" y="111.525" width="334.321" height="334.321" filterUnits="userSpaceOnUse"><feOffset dy="2" input="SourceAlpha"/><feGaussianBlur stdDeviation="2" result="f"/><feFlood flood-opacity="0.161"/><feComposite operator="in" in2="f"/><feComposite in="SourceGraphic"/></filter></defs><g transform="translate(6)"><g transform="translate(-209 -2806.8)"><g transform="translate(209 2806.8)"><path class="a" d="M279.5,279.5H0C0,125.135,125.135,0,279.5,0h0Z"/><g transform="translate(0 279.5)"><g class="h" transform="matrix(1, 0, 0, 1, -6, -279.5)"><path class="b" d="M279.5,196.6V476.1C125.135,476.114,0,350.979,0,196.6H279.5Z" transform="translate(6 82.9)"/></g></g><g transform="translate(279.5 279.5)"><g class="g" transform="matrix(1, 0, 0, 1, -285.5, -279.5)"><path class="c" d="M196.6,196.6H476.1c0,154.365-125.135,279.5-279.5,279.5h0Z" transform="translate(88.9 82.9)"/></g></g><g transform="translate(279.5)"><path class="d" d="M196.6,279.5V0C350.965,0,476.1,125.135,476.1,279.5H196.6Z" transform="translate(-196.6)"/></g></g><g class="f" transform="matrix(1, 0, 0, 1, 203, 2806.8)"><circle class="e" cx="161.16" cy="161.16" r="161.16" transform="translate(121.61 115.52)"/></g><g transform="translate(380.809 3024.699)"><path class="c" d="M117.59,156.3H125.2q4.713,0,7.023,2.246,2.922,2.921,2.914,8.914a15.383,15.383,0,0,1-1.535,7.407,6.564,6.564,0,0,1-4.407,3.455l7.89,20.856h-5.857l-7.862-21v21H117.59Zm5.772,18.993c2.246,0,3.824-.512,4.748-1.55s1.393-2.786,1.393-5.246a16.715,16.715,0,0,0-.3-3.412,6.343,6.343,0,0,0-.91-2.3,3.694,3.694,0,0,0-1.606-1.308,5.867,5.867,0,0,0-2.346-.412h-.967v14.231Z" transform="translate(-117.59 -151.992)"/><path class="c" d="M150.516,166.383v28.732h-5.3v-3.7a9.253,9.253,0,0,1-2.275,3.256,4.706,4.706,0,0,1-3,.881q-3.583,0-5.246-3.668c-1.109-2.445-1.663-6.27-1.663-11.5,0-4.976.554-8.644,1.663-10.975a5.508,5.508,0,0,1,5.246-3.512c2.189,0,3.938,1.237,5.274,3.725v-3.256h5.3Zm-12,14.245a28.52,28.52,0,0,0,.753,7.919,2.809,2.809,0,0,0,2.715,2.246c1.18,0,2.047-.782,2.587-2.332a26.876,26.876,0,0,0,.81-7.691,26.967,26.967,0,0,0-.81-7.72c-.54-1.55-1.393-2.332-2.587-2.332a2.8,2.8,0,0,0-2.687,2.218C138.774,174.316,138.518,176.875,138.518,180.628Z" transform="translate(-111.079 -147.944)"/><path class="c" d="M150.874,160.58h5.3v8.047h2.886v4.222h-2.886v24.524h-5.3V172.849H147.96v-4.222h2.914Z" transform="translate(-104.784 -150.188)"/><path class="c" d="M158.45,153.28h5.3v21.737q2.282-3.775,5.886-3.782a5.254,5.254,0,0,1,5,2.744c.554,1.038.839,3.042.839,6.028v20.444h-5.3l-.028-19.221a8.822,8.822,0,0,0-.7-4.137,2.538,2.538,0,0,0-2.388-1.223,3.511,3.511,0,0,0-1.535.313,2.34,2.34,0,0,0-1.009,1.024,5.565,5.565,0,0,0-.569,1.848,19.044,19.044,0,0,0-.185,2.8v18.581h-5.3V153.28Z" transform="translate(-100.361 -153.266)"/><path class="c" d="M191.377,166.383v28.732h-5.3v-3.7a9.253,9.253,0,0,1-2.275,3.256,4.706,4.706,0,0,1-3,.881q-3.583,0-5.246-3.668c-1.109-2.445-1.663-6.27-1.663-11.5,0-4.976.554-8.644,1.663-10.975A5.508,5.508,0,0,1,180.8,165.9c2.189,0,3.938,1.237,5.274,3.725v-3.256h5.3Zm-12,14.245a28.522,28.522,0,0,0,.753,7.919,2.809,2.809,0,0,0,2.715,2.246c1.18,0,2.047-.782,2.587-2.332a26.875,26.875,0,0,0,.81-7.691,26.966,26.966,0,0,0-.81-7.72c-.54-1.55-1.393-2.332-2.587-2.332a2.8,2.8,0,0,0-2.687,2.218C179.634,174.316,179.378,176.875,179.378,180.628Z" transform="translate(-93.85 -147.944)"/><path class="c" d="M190.42,166.24h5.3v19.221a7.648,7.648,0,0,0,.8,3.81,2.7,2.7,0,0,0,2.459,1.137,2.91,2.91,0,0,0,2.531-1,6.8,6.8,0,0,0,.725-3.668V166.254h5.3v17.188c0,4.023-.3,6.7-.881,8.047q-1.855,3.945-7.72,3.938-4.606,0-6.554-2.332-1.941-2.367-1.948-7.862V166.24Z" transform="translate(-86.88 -147.801)"/><path class="c" d="M218.2,167.017v4.976a6.725,6.725,0,0,0-4.08-1.45,3.476,3.476,0,0,0-2.4.938,3.336,3.336,0,0,0-.725,1.024,3.208,3.208,0,0,0-.27,1.265q0,2.047,3.725,4.891a28.426,28.426,0,0,1,2.5,2.161,9.322,9.322,0,0,1,1.521,1.891,8.251,8.251,0,0,1,1.08,4.421,8.6,8.6,0,0,1-2.246,6.2,7.9,7.9,0,0,1-5.971,2.3,9.28,9.28,0,0,1-4.663-1.365v-5.132a7.369,7.369,0,0,0,4.365,1.72c2.431,0,3.639-1.194,3.639-3.583a4,4,0,0,0-.668-2.3,6.1,6.1,0,0,0-.967-1.095c-.441-.412-1-.881-1.635-1.407a21.063,21.063,0,0,1-4.549-4.393,8.01,8.01,0,0,1-1.166-4.421,7.859,7.859,0,0,1,2.133-5.687,7.573,7.573,0,0,1,5.63-2.189A9.944,9.944,0,0,1,218.2,167.017Z" transform="translate(-80.441 -147.995)"/><path class="c" d="M243.447,153.284v47.171h-5.3v-3.7a9.252,9.252,0,0,1-2.275,3.256,4.737,4.737,0,0,1-3.028.881q-3.561,0-5.218-3.654t-1.663-11.487a45.387,45.387,0,0,1,.412-6.525,15.808,15.808,0,0,1,1.265-4.521,6.255,6.255,0,0,1,2.175-2.63,5.743,5.743,0,0,1,3.17-.853,4.755,4.755,0,0,1,2.886.839,5.491,5.491,0,0,1,1.137,1.109,11.006,11.006,0,0,1,1.137,1.777V153.27h5.3Zm-12,32.67a28.516,28.516,0,0,0,.754,7.919,2.809,2.809,0,0,0,2.715,2.246c1.18,0,2.047-.782,2.587-2.332a26.873,26.873,0,0,0,.81-7.691,26.965,26.965,0,0,0-.81-7.72c-.54-1.55-1.393-2.332-2.587-2.332a2.8,2.8,0,0,0-2.687,2.218C231.7,179.642,231.448,182.2,231.448,185.954Z" transform="translate(-71.894 -153.27)"/><path class="c" d="M253.919,185.434h4.947q-.576,10.129-8.331,10.137a8.321,8.321,0,0,1-3.952-.867,6.833,6.833,0,0,1-2.73-2.673,14.028,14.028,0,0,1-1.592-4.578,36.951,36.951,0,0,1-.512-6.611q0-7.613,2.118-11.274a7.067,7.067,0,0,1,6.568-3.668q8.637,0,8.63,15.212v.668H246.925q0,9.212,3.668,9.212C252.811,191.021,253.919,189.158,253.919,185.434Zm-.284-7.464a19.836,19.836,0,0,0-1.024-5.943,2.429,2.429,0,0,0-2.332-1.578,2.378,2.378,0,0,0-2.331,1.578,18.932,18.932,0,0,0-1.024,5.943Z" transform="translate(-65.236 -147.944)"/><path class="c" d="M257.24,166.438h5.3v3.583a10.264,10.264,0,0,1,2.687-3.2,6.809,6.809,0,0,1,3.526-1.052v5.559a6.339,6.339,0,0,0-.938-.085c-1.905,0-3.27.483-4.08,1.479-.8.967-1.194,2.644-1.194,5.047v17.415h-5.3V166.438Z" transform="translate(-58.704 -147.999)"/><path class="c" d="M147.235,204.3h18.88l-12.88,37.816h12.184v5.047H145.7l12.994-37.987H147.221V204.3Z" transform="translate(-105.737 -131.752)"/><path class="c" d="M162.41,214.24h5.3v19.221a7.648,7.648,0,0,0,.8,3.81,2.7,2.7,0,0,0,2.46,1.137,2.91,2.91,0,0,0,2.531-1,6.8,6.8,0,0,0,.725-3.668V214.254h5.3v17.188c0,4.023-.3,6.7-.881,8.047q-1.855,3.945-7.72,3.938-4.606,0-6.554-2.332-1.941-2.367-1.948-7.862V214.24Z" transform="translate(-98.691 -127.561)"/><path class="c" d="M178.66,201.28h5.3v31.234l6.753-12.795h6l-7.336,12.795,8.3,15.937h-6.227l-7.492-15.269v15.269h-5.3V201.28Z" transform="translate(-91.839 -133.026)"/><path class="c" d="M194.18,214.24h5.3v19.221a7.648,7.648,0,0,0,.8,3.81,2.7,2.7,0,0,0,2.46,1.137,2.91,2.91,0,0,0,2.531-1,6.8,6.8,0,0,0,.725-3.668V214.254h5.3v17.188c0,4.023-.3,6.7-.881,8.047q-1.855,3.945-7.72,3.938-4.606,0-6.554-2.332-1.941-2.367-1.948-7.862V214.24Z" transform="translate(-85.294 -127.561)"/><path class="c" d="M210.43,214.383h5.3v3.3q2.282-3.775,5.886-3.782a5.254,5.254,0,0,1,5,2.744c.554,1.038.839,3.042.839,6.028v20.444h-5.3l-.028-19.221a8.823,8.823,0,0,0-.7-4.137,2.538,2.538,0,0,0-2.388-1.223,3.512,3.512,0,0,0-1.535.313,2.341,2.341,0,0,0-1.009,1.024,5.565,5.565,0,0,0-.569,1.848,19.043,19.043,0,0,0-.185,2.8V243.1h-5.3V214.383Z" transform="translate(-78.442 -127.704)"/><path class="c" d="M225.2,219.873h2.673V209.851c0-3.27.483-5.587,1.45-6.938s2.644-2.033,5.033-2.033a10.793,10.793,0,0,1,3.611.753v5.616a4.806,4.806,0,0,0-2.246-.7,2.2,2.2,0,0,0-1.933.81,4.855,4.855,0,0,0-.569,2.715l-.028,2.161v7.634h4.492V224.1H233.19V248.62h-5.3V224.1h-2.673v-4.222Z" transform="translate(-72.214 -133.194)"/><path class="c" d="M238.7,208.58h5.3v8.047h2.886v4.222h-2.886v24.524h-5.3V220.849H235.79v-4.222H238.7Z" transform="translate(-67.749 -129.947)"/></g><g transform="translate(264.9 2871.5)"><path class="e" d="M39.32,132.293l1.692-4.023,42.977,8.359-2.147,5.118-8.317-1.791-3.185,7.606,7.094,4.706-2.09,4.962ZM69.1,138.975l-6.781-1.507q-6.909-1.557-14.5-3.9,3.412,1.834,6.838,3.924c2.275,1.379,4.677,2.9,7.208,4.535l4.677,3.071Z" transform="translate(-39.32 -10.613)"/><path class="e" d="M53.58,126.709l2.4-4.549,3.17,1.678a10.358,10.358,0,0,1-1.606-3.8,6.472,6.472,0,0,1,.668-3.512l4.9,2.6a7.443,7.443,0,0,0-.5.768,4.807,4.807,0,0,0-.554,4.194c.483,1.137,1.806,2.26,3.924,3.384l15.4,8.132-2.4,4.549Z" transform="translate(-33.307 -15.563)"/><path class="e" d="M64.538,107.68l4.592,2.858a3.186,3.186,0,0,0-2.516,1.479q-2.239,3.6,5.815,8.63,8.551,5.331,10.79,1.734a4.477,4.477,0,0,0,.455-2.786l4.222,2.63a8.564,8.564,0,0,1-1.251,4.109q-4.372,7.037-16.733-.64c-4.379-2.73-7.265-5.317-8.615-7.777a6.792,6.792,0,0,1,.227-7.336A8.553,8.553,0,0,1,64.538,107.68Z" transform="translate(-30.461 -19.295)"/><path class="e" d="M54.67,97.769l3.1-4.109,17.373,13.079q-1.685-4.03.412-6.838a5.069,5.069,0,0,1,5.118-2.218c1.152.2,2.914,1.18,5.3,2.985l16.321,12.3-3.1,4.109L83.828,105.531a9.124,9.124,0,0,0-3.711-1.948,2.45,2.45,0,0,0-2.374,1.109,3.138,3.138,0,0,0-.64,1.393,2.386,2.386,0,0,0,.227,1.407,5.943,5.943,0,0,0,1.137,1.55,19.425,19.425,0,0,0,2.133,1.834l14.842,11.174-3.1,4.109Z" transform="translate(-32.847 -25.207)"/><path class="e" d="M69.982,84.974a3.316,3.316,0,0,1,2.388-1.123,3.672,3.672,0,0,1,3.81,3.369A3.455,3.455,0,0,1,72.9,90.945a3.552,3.552,0,0,1-2.6-.967A3.423,3.423,0,0,1,69.1,87.562,3.722,3.722,0,0,1,69.982,84.974Zm7.563,9.909L80.971,91l21.552,19.008L99.1,113.891Z" transform="translate(-26.763 -29.344)"/><path class="e" d="M76.06,83.136l3.583-3.7,5.772,5.616,1.948-2,3.028,2.943-1.948,2,17.6,17.074-3.583,3.7L84.86,91.681l-1.976,2.033-3.028-2.943,1.976-2.033Z" transform="translate(-23.828 -31.203)"/><path class="e" d="M106.025,89.092l3.583-3.185q6.312,7.954.682,12.937a7.956,7.956,0,0,1-3.44,1.905,6.846,6.846,0,0,1-3.753-.227,14.143,14.143,0,0,1-4.194-2.4,39.044,39.044,0,0,1-4.763-4.606q-5.054-5.694-5.943-9.8a6.818,6.818,0,0,1,2.332-6.966q6.27-5.566,16.363,5.815l.441.5-8.8,7.819q6.12,6.888,8.772,4.535Q109.714,93.264,106.025,89.092Zm-5.161-5.4a19.738,19.738,0,0,0-4.692-3.782,2.359,2.359,0,0,0-2.744.313,2.3,2.3,0,0,0-.64,2.687,19.493,19.493,0,0,0,3.2,5.1Z" transform="translate(-18.792 -33.106)"/><path class="e" d="M90.42,60.06l4.18-3,18.254,25.348-2.175-14.217,4.72-3.4L117.1,79.338l15.852,8.231-4.891,3.526-14.828-8.146,8.928,12.4-4.18,3.014Z" transform="translate(-17.773 -40.64)"/><path class="e" d="M108.39,56.473l4.393-2.673,4.18,6.881,2.388-1.45,2.189,3.611-2.388,1.45,12.71,20.97-4.393,2.673-12.71-20.97-2.417,1.464-2.189-3.611,2.417-1.464Z" transform="translate(-10.195 -42.014)"/><path class="e" d="M118.9,58.181l4.606-2.3,8.6,17.188a7.747,7.747,0,0,0,2.388,3.057,2.592,2.592,0,0,0,2.644-.043,2.821,2.821,0,0,0,1.749-1.99,7.153,7.153,0,0,0-1.009-3.6l-1.038-2.061L129.15,53.063l4.606-2.3,7.691,15.368c1.791,3.6,2.744,6.127,2.829,7.592q.149,4.329-4.933,6.881c-2.673,1.336-4.9,1.592-6.725.753s-3.568-2.9-5.2-6.184Z" transform="translate(-5.764 -43.296)"/><path class="e" d="M133.96,50.23l4.791-1.891,1.308,3.327a9.833,9.833,0,0,1,1.265-3.924,6.511,6.511,0,0,1,2.8-2.232l2.033,5.161a7.794,7.794,0,0,0-.881.256,4.808,4.808,0,0,0-3.142,2.815c-.37,1.18-.114,2.886.768,5.132l6.383,16.193-4.791,1.891Z" transform="translate(0.587 -45.51)"/></g><g transform="translate(507.934 3105.891)"><path class="e" d="M371.476,230.042,365.9,229.2a8.09,8.09,0,0,0,2.545-4.279,4.631,4.631,0,0,0-1.052-3.81,5.793,5.793,0,0,0-3.824-1.99,7.163,7.163,0,0,0-3.966.412,17.4,17.4,0,0,0-2.445,1.336c-1.009.64-2.246,1.479-3.682,2.516a25.968,25.968,0,0,1-6.81,3.7,14.073,14.073,0,0,1-6.312.313,12.215,12.215,0,0,1-7.706-3.91,8.834,8.834,0,0,1-2.076-7.364,9.445,9.445,0,0,1,2.914-5.744l5.658.853a9.351,9.351,0,0,0-3.028,5.047,4.392,4.392,0,0,0,1.024,3.782,6.439,6.439,0,0,0,4.023,1.905,8.651,8.651,0,0,0,4.293-.37,18.9,18.9,0,0,0,2.232-1.109,32.633,32.633,0,0,0,2.872-1.891c1.635-1.194,3.071-2.161,4.308-2.929a19.26,19.26,0,0,1,3.185-1.621,13.051,13.051,0,0,1,6.284-.37,11.811,11.811,0,0,1,7.506,3.682,8.6,8.6,0,0,1,1.919,7.236A11.7,11.7,0,0,1,371.476,230.042Z" transform="translate(-159.59 -210.38)"/><path class="e" d="M361.8,228.256l-1.407,5.644-20.444-.9,18.283,9.511-1.265,5.075L320.43,226.706l1.308-5.246,12.624,7.578Z" transform="translate(-163.819 -205.708)"/><path class="e" d="M355.986,247.068l-1.905,4.777-3.3-1.322q2.943,3.476,1.649,6.739-1.429,3.583-5.672,3.369,2.985,3.391,1.592,6.9a5.935,5.935,0,0,1-3.142,3.568,6.555,6.555,0,0,1-4.947-.3l-21.282-8.473,1.919-4.805,17.572,6.995a10.885,10.885,0,0,0,4.265,1.066,2.241,2.241,0,0,0,1.877-1.635,2.688,2.688,0,0,0-.142-2.786,9.668,9.668,0,0,0-3.782-2.2l-17.572-6.995L325.093,247l17.572,6.995a20.753,20.753,0,0,0,2.459.825,5.068,5.068,0,0,0,1.763.171,2.172,2.172,0,0,0,1.208-.512,2.963,2.963,0,0,0,.782-1.194,2.7,2.7,0,0,0-.227-2.815,8.582,8.582,0,0,0-3.668-2.275L327.41,241.2l1.905-4.777Z" transform="translate(-164.43 -199.4)"/><path class="e" d="M360.061,280.945l-2.545,4.478-18.851-10.705a9.873,9.873,0,0,1,1,1.834,6.3,6.3,0,0,1,.426,1.507,4.427,4.427,0,0,1-.654,2.843,5.507,5.507,0,0,1-2.246,2.246,6.02,6.02,0,0,1-3.327.54,16.914,16.914,0,0,1-4.535-1.166,46.522,46.522,0,0,1-5.872-2.872c-4.535-2.573-7.606-4.933-9.184-7.08s-1.805-4.208-.668-6.213a4.585,4.585,0,0,1,2.218-2.118,9.01,9.01,0,0,1,3.91-.313l-3.213-1.82,2.545-4.478Zm-34.419-6.156c3.4,1.933,5.829,3.014,7.279,3.27,1.55.313,2.63-.071,3.241-1.166.583-1.024.341-2.133-.739-3.3a28.5,28.5,0,0,0-6.4-4.478A28.816,28.816,0,0,0,321.9,265.9c-1.55-.313-2.6.043-3.2,1.066q-.9,1.6.64,3.369Q320.773,272.024,325.643,274.79Z" transform="translate(-166.999 -190.456)"/><path class="e" d="M313.9,290.71q-11.878-8.445-6.8-15.581t17.131,1.45q12.113,8.615,7.037,15.724a8.025,8.025,0,0,1-3,2.673,7.065,7.065,0,0,1-3.824.64,14.542,14.542,0,0,1-4.748-1.422A35.25,35.25,0,0,1,313.9,290.71Zm3.2-4.251a28.932,28.932,0,0,0,6.852,3.981c1.507.469,2.616.213,3.327-.8s.611-2.133-.3-3.412a28.528,28.528,0,0,0-5.886-5.09,27.886,27.886,0,0,0-6.71-3.881c-1.507-.441-2.616-.156-3.327.839s-.611,2.118.3,3.355C312.191,282.649,314.1,284.313,317.1,286.459Z" transform="translate(-170.081 -184.441)"/><path class="e" d="M339.36,310.87l-3.27,3.966L299.71,284.8l3.27-3.966Z" transform="translate(-172.556 -180.674)"/><path class="e" d="M313.222,312.206l-3.981-3.682a3.228,3.228,0,0,0,2.758-.981q2.9-3.113-4.08-9.568-7.4-6.845-10.264-3.739a4.438,4.438,0,0,0-.981,2.659l-3.654-3.369a8.561,8.561,0,0,1,2-3.8q5.63-6.1,16.321,3.8,5.694,5.267,6.995,9.255a6.776,6.776,0,0,1-1.621,7.165A8.667,8.667,0,0,1,313.222,312.206Z" transform="translate(-175.377 -177.901)"/><path class="e" d="M326.988,327.414l-3.81,3.469L308.549,314.8c.611,2.858.043,5.061-1.678,6.639a5.066,5.066,0,0,1-5.431,1.237c-1.095-.4-2.644-1.706-4.649-3.909L283.03,303.657l3.81-3.469,12.951,14.188a9.139,9.139,0,0,0,3.284,2.6,2.413,2.413,0,0,0,2.531-.654,3.178,3.178,0,0,0,.9-1.237,2.3,2.3,0,0,0,.028-1.422,6.165,6.165,0,0,0-.839-1.734,18.846,18.846,0,0,0-1.763-2.189l-12.511-13.733,3.81-3.469Z" transform="translate(-179.589 -175.736)"/><path class="e" d="M288.637,334.284,271.62,311.125l4.151-3.042,2.189,2.971a9.166,9.166,0,0,1-.142-3.924,4.505,4.505,0,0,1,1.82-2.431c1.862-1.365,3.952-1.393,6.27-.057s5.018,4.094,8.1,8.3q4.414,6.014,5.2,9.809A5.317,5.317,0,0,1,297.2,328.6q-2.559,1.877-6.326.028l1.919,2.616Zm.938-18.368a28.749,28.749,0,0,0-5.274-5.943q-1.941-1.365-3.455-.256-1.386,1.024-.64,3.369a38.245,38.245,0,0,0,9.127,12.425c1.336.953,2.474,1.081,3.4.4.981-.725,1.251-1.834.8-3.341Q292.909,320.458,289.576,315.916Z" transform="translate(-184.401 -171.048)"/><path class="e" d="M285.552,334.889l-4.379,2.687L279.3,334.52a10.218,10.218,0,0,1-.555,4.094,6.648,6.648,0,0,1-2.36,2.687l-2.9-4.734a4.917,4.917,0,0,0,.825-.412,4.778,4.778,0,0,0,2.6-3.327c.156-1.223-.4-2.858-1.649-4.919l-9.1-14.842,4.379-2.687Z" transform="translate(-186.703 -168.213)"/><path class="e" d="M264.116,347.619l-12.866-25.7,4.606-2.3,1.649,3.3a9.206,9.206,0,0,1,.526-3.9,4.464,4.464,0,0,1,2.2-2.09q3.113-1.557,6.2,1c2.061,1.706,4.251,4.891,6.6,9.554q3.348,6.675,3.469,10.549a5.33,5.33,0,0,1-2.986,5.417c-1.891.953-3.981.6-6.241-1.038l1.45,2.9Zm4.023-17.941a29.01,29.01,0,0,0-4.194-6.753c-1.123-1.123-2.246-1.393-3.369-.825-1.024.512-1.422,1.578-1.194,3.213a38.476,38.476,0,0,0,6.9,13.776c1.166,1.151,2.26,1.478,3.284.967,1.095-.54,1.535-1.592,1.336-3.156C270.741,335.435,269.831,333.033,268.139,329.678Z" transform="translate(-192.99 -165.702)"/><path class="e" d="M270.2,365.647l-4.819,1.82-11.018-29.244-1.607,14.288-5.445,2.047,2.133-14.487L236.28,328l5.644-2.132,12.2,11.729-5.388-14.288,4.819-1.82Z" transform="translate(-199.302 -163.528)"/><path class="e" d="M246.82,361.578l-4.933,1.436-2.26-7.734-2.687.782-1.18-4.052,2.687-.782-6.867-23.543,4.933-1.436,6.867,23.543,2.715-.8,1.18,4.052-2.715.8Z" transform="translate(-201.284 -161.521)"/><path class="e" d="M224.084,339.608l-4.691,1.009q-1.578-10.023,5.786-11.6a7.967,7.967,0,0,1,3.938.043,6.9,6.9,0,0,1,3.156,2.047,13.941,13.941,0,0,1,2.474,4.151,38.244,38.244,0,0,1,1.877,6.355c1.066,4.962,1.18,8.772.341,11.459a6.839,6.839,0,0,1-5.459,4.919q-8.189,1.749-11.373-13.122l-.142-.654,11.516-2.459q-1.919-9.021-5.4-8.274C223.97,333.936,223.316,335.968,224.084,339.608Zm1.834,7.25a19.715,19.715,0,0,0,2.218,5.6,2.356,2.356,0,0,0,2.545,1.081,2.313,2.313,0,0,0,1.877-2.019,19.686,19.686,0,0,0-.27-6.014Z" transform="translate(-206.541 -160.449)"/><path class="e" d="M222,359.17l-5.1.668-.469-3.554a9.955,9.955,0,0,1-2.175,3.511A6.43,6.43,0,0,1,211,361.288l-.725-5.5a4.575,4.575,0,0,0,.924-.043,4.8,4.8,0,0,0,3.739-1.976c.64-1.052.8-2.772.483-5.161l-2.275-17.259,5.1-.668Z" transform="translate(-210.27 -159.653)"/></g><g transform="translate(261.019 3133.357)"><path class="e" d="M158.23,370.2l-14.43-4.023,1.308-4.706,9.028,2.516,3.639-13.051-8.146-2.275,1.308-4.706,8.146,2.275,5.246-18.837,5.4,1.507Z" transform="translate(8.617 -188.507)"/><path class="e" d="M147.862,353.231l-4.805-1.848,6.923-17.927a7.741,7.741,0,0,0,.654-3.824,2.57,2.57,0,0,0-1.82-1.919,2.8,2.8,0,0,0-2.644.043,7.037,7.037,0,0,0-1.976,3.17l-.825,2.147-6.184,16.036-4.805-1.848,6.184-16.036c1.45-3.753,2.687-6.142,3.711-7.208q3.113-3.028,8.4-.981c2.786,1.081,4.478,2.559,5.09,4.464s.256,4.592-1.066,8Z" transform="translate(3.802 -190.692)"/><path class="e" d="M131.4,347.485l-4.578-2.36,1.507-2.943q-3.689,2.346-6.81.739a5.041,5.041,0,0,1-3.042-4.663c0-1.166.682-3.071,2.047-5.729L129.9,314.36l4.578,2.36-8.786,17.088a9.034,9.034,0,0,0-1.294,3.981,2.433,2.433,0,0,0,1.493,2.147,3.087,3.087,0,0,0,1.479.4,2.322,2.322,0,0,0,1.351-.469,5.736,5.736,0,0,0,1.336-1.393,17.2,17.2,0,0,0,1.436-2.417L140,319.549l4.578,2.36Z" transform="translate(-2.06 -194.002)"/><path class="e" d="M107.035,355.263l-4.308-2.829,17.131-26.116-12.5,7.108-4.862-3.2,12.966-6.8,2-17.742L122.517,309l-2.3,16.761L128.588,313l4.308,2.829Z" transform="translate(-8.798 -197.657)"/><path class="e" d="M97.56,334.886l-4.08-3.142,4.919-6.383-2.218-1.706,2.573-3.341,2.218,1.706,14.97-19.42,4.08,3.142-14.97,19.42,2.246,1.72-2.573,3.341-2.246-1.72Z" transform="translate(-12.601 -198.96)"/><path class="e" d="M87.509,331.481a3.275,3.275,0,0,1-1.166-2.374,3.455,3.455,0,0,1,.853-2.587,3.511,3.511,0,0,1,2.431-1.294,3.437,3.437,0,0,1,3.782,3.2,3.609,3.609,0,0,1-.91,2.616,3.549,3.549,0,0,1-4.99.441Zm9.753-7.748-3.938-3.341L111.9,298.47l3.938,3.341Z" transform="translate(-15.615 -200.702)"/><path class="e" d="M89.059,297.756q10.193-10.428,16.449-4.293t-4.094,16.7q-10.385,10.62-16.634,4.507A8.014,8.014,0,0,1,82.6,311.29a7.039,7.039,0,0,1-.028-3.881,14.769,14.769,0,0,1,2.133-4.478A39.62,39.62,0,0,1,89.059,297.756Zm3.725,3.824a28.69,28.69,0,0,0-4.99,6.142c-.7,1.407-.611,2.545.27,3.412s2.019.938,3.426.242a28.889,28.889,0,0,0,5.943-5.033,27.4,27.4,0,0,0,4.876-6.028c.668-1.422.554-2.559-.313-3.412s-1.99-.924-3.369-.227Q96.644,297.635,92.784,301.58Z" transform="translate(-17.308 -203.77)"/><path class="e" d="M79.47,309.1l-3.284-3.952,2.545-2.118q-4.308.7-6.554-1.976a5.034,5.034,0,0,1-.981-5.488c.455-1.081,1.82-2.573,4.123-4.464L91.042,278.05,94.326,282,79.555,294.3a9.318,9.318,0,0,0-2.758,3.156,2.419,2.419,0,0,0,.54,2.559,3.425,3.425,0,0,0,1.194.953,2.381,2.381,0,0,0,1.422.1,6,6,0,0,0,1.777-.753A19.463,19.463,0,0,0,84,298.65l14.288-11.871,3.284,3.952Z" transform="translate(-22.176 -209.312)"/><path class="e" d="M60.19,282.231l23.9-15.951,2.858,4.279-3.071,2.047a9.273,9.273,0,0,1,3.924.028,4.549,4.549,0,0,1,2.36,1.919q1.919,2.9-.227,6.27c-1.436,2.246-4.322,4.834-8.672,7.72-4.137,2.758-7.492,4.35-10.037,4.748A5.326,5.326,0,0,1,65.479,291q-1.77-2.644.256-6.326l-2.7,1.805ZM78.5,284.008a29.635,29.635,0,0,0,6.184-4.99c.967-1.251,1.109-2.4.412-3.44-.64-.953-1.749-1.223-3.327-.782a28.094,28.094,0,0,0-6.838,3.611,28.008,28.008,0,0,0-5.985,4.933c-1.009,1.294-1.194,2.417-.554,3.384.682,1.009,1.777,1.336,3.3.938C73.1,287.306,75.373,286.1,78.5,284.008Z" transform="translate(-26.639 -214.275)"/><path class="e" d="M47.591,288.488,45.06,284.01l41.058-23.23,2.531,4.478Z" transform="translate(-33.018 -216.594)"/><path class="e" d="M46.509,276.549a3.223,3.223,0,0,1-.156-2.644,3.663,3.663,0,0,1,4.535-2.3,3.426,3.426,0,0,1,2.246,4.407,3.549,3.549,0,0,1-1.848,2.061,3.459,3.459,0,0,1-2.687.227A3.407,3.407,0,0,1,46.509,276.549Zm11.97-3.4-2.346-4.606,25.6-13.065,2.346,4.606Z" transform="translate(-32.562 -218.829)"/><path class="e" d="M47.028,269.546l-2.118-4.692,7.336-3.312L51.094,259l3.839-1.734,1.152,2.545L78.419,249.7l2.118,4.692L58.2,264.5l1.166,2.573-3.839,1.734-1.166-2.573Z" transform="translate(-33.082 -221.267)"/><path class="e" d="M37.893,252.727a2.888,2.888,0,0,1,.156-2.346,3.157,3.157,0,0,1,1.834-1.635,3.207,3.207,0,0,1,2.459.085,2.879,2.879,0,0,1,1.635,1.749,3.121,3.121,0,0,1,.185,1.237A3.028,3.028,0,0,1,43.85,253a3.549,3.549,0,0,1-.753.981,2.905,2.905,0,0,1-1.109.654,3.071,3.071,0,0,1-2.431-.1A3.023,3.023,0,0,1,37.893,252.727Zm3.213,8.885a2.952,2.952,0,0,1,.142-2.374,3.157,3.157,0,0,1,1.834-1.635,3.207,3.207,0,0,1,2.459.085,3.076,3.076,0,0,1,1.507,4.18,3.211,3.211,0,0,1-1.848,1.649,3.193,3.193,0,0,1-4.094-1.905Zm6-15.581,27.026-9.781,1.749,4.834-3.469,1.251a9.342,9.342,0,0,1,3.81.967,4.425,4.425,0,0,1,1.82,2.431c.782,2.175.213,4.194-1.706,6.028s-5.345,3.654-10.264,5.431q-7.016,2.538-10.876,2.218a5.306,5.306,0,0,1-5.033-3.6q-1.088-2.986,1.749-6.085l-3.057,1.109Zm17.359,6.085a29.031,29.031,0,0,0,7.194-3.384c1.237-.981,1.649-2.061,1.208-3.256-.4-1.081-1.407-1.592-3.042-1.564a27.519,27.519,0,0,0-7.492,1.891,27.565,27.565,0,0,0-6.995,3.369c-1.28,1.024-1.734,2.076-1.336,3.142.412,1.152,1.407,1.72,2.971,1.706C58.436,254.035,60.924,253.4,64.464,252.116Z" transform="translate(-36.116 -226.938)"/><path class="e" d="M37.969,244.471l-1.379-4.962,7.762-2.147-.753-2.7,4.066-1.123.753,2.7,23.628-6.54,1.379,4.962L49.8,241.2l.753,2.73-4.066,1.123-.753-2.73Z" transform="translate(-36.59 -229.7)"/></g><g transform="translate(539.762 2857.102)"><path class="e" d="M256.083,61.08c-2.263,7.073-4.81,11.741-7.356,14.287a8.6,8.6,0,0,1-9.336,1.839c-3.819-1.273-6.083-3.819-6.649-7.5s.566-9.478,3.112-17.4c2.4-7.073,4.81-11.883,7.356-14.287s5.658-3.112,9.478-1.839q5.093,1.7,6.366,5.941a17.8,17.8,0,0,1,.142,7.356A73.045,73.045,0,0,1,256.083,61.08Zm-5.8-1.273c2.263-6.932,3.536-11.6,3.536-14,.141-2.546-.707-4.1-2.688-4.668a4,4,0,0,0-4.81,1.839c-1.273,1.839-2.971,6.083-5.093,12.307-1.98,5.8-2.971,10.044-2.971,12.448s.849,3.819,2.688,4.385,3.4,0,4.668-1.839C247.029,68.718,248.585,65.182,250.283,59.807Z" transform="translate(-232.599 -35.559)"/><path class="e" d="M259.1,50.2l4.81,2.122-1.415,3.254a12.609,12.609,0,0,1,3.678-1.839,8.065,8.065,0,0,1,3.537.424l-2.263,4.951-.849-.424c-1.7-.707-3.112-.849-4.244-.283s-2.122,1.839-3.112,4.1L252.31,78.068l-4.81-2.122Z" transform="translate(-226.327 -29.489)"/><path class="e" d="M281.217,60.123l4.527,2.546L271.456,87.99a20.506,20.506,0,0,1-4.385,5.8c-2.263,1.556-5.092,1.415-8.487-.566a7.906,7.906,0,0,1-4.1-4.81,7.7,7.7,0,0,1,.99-6.224l.424-.707,4.385,2.4c-1.415,2.546-1.273,4.527.707,5.517a2.7,2.7,0,0,0,2.688.283,9.188,9.188,0,0,0,2.688-3.4l2.688-4.668q-3.395,2.546-6.366.849c-2.122-1.132-2.971-2.971-2.829-5.517s1.415-5.941,3.819-10.185c2.546-4.527,4.81-7.5,6.931-9.195a5.321,5.321,0,0,1,6.366-.424,5.1,5.1,0,0,1,2.122,2.122,8.718,8.718,0,0,1,.566,3.678Zm-7.073,12.59c3.253-5.8,3.961-9.336,1.98-10.468-.99-.566-1.98-.283-3.254.849s-2.546,3.112-4.244,5.941c-1.7,3.112-2.829,5.517-3.112,7.214a3,3,0,0,0,1.273,3.4,2.458,2.458,0,0,0,3.112-.566A36.82,36.82,0,0,0,274.144,72.712Z" transform="translate(-223.465 -26.963)"/><path class="e" d="M298.5,72.567,282.086,95.484l-4.244-2.971,2.122-2.971a8.1,8.1,0,0,1-3.678,1.273,4.6,4.6,0,0,1-2.829-.99,5.747,5.747,0,0,1-2.122-5.941c.566-2.546,2.263-5.941,5.234-10.044,2.829-3.961,5.375-6.507,7.639-7.78a5.538,5.538,0,0,1,6.224.141q2.546,1.91,2.122,5.941l1.839-2.546Zm-17.682,4.527a31.554,31.554,0,0,0-3.961,6.79,2.922,2.922,0,0,0,.849,3.4q1.485,1.061,3.4-.424a26.455,26.455,0,0,0,5.093-5.658,28.891,28.891,0,0,0,3.819-6.649c.424-1.556.283-2.688-.707-3.4a2.617,2.617,0,0,0-3.4.283A23.563,23.563,0,0,0,280.813,77.094Z" transform="translate(-216.3 -22.794)"/><path class="e" d="M300.273,73.9l3.819,3.536-2.122,2.4a6.747,6.747,0,0,1,6.79,1.132,5.183,5.183,0,0,1,1.839,5.234c-.283,1.132-1.415,2.829-3.4,4.951l-13.439,14.853-3.819-3.536,12.59-14a9.581,9.581,0,0,0,2.263-3.536,2.5,2.5,0,0,0-.99-2.4,1.956,1.956,0,0,0-1.273-.707,1.713,1.713,0,0,0-1.415.141,4.778,4.778,0,0,0-1.556.99,12.96,12.96,0,0,0-1.98,1.98l-12.166,13.58L281.6,94.977Z" transform="translate(-211.91 -19.109)"/><path class="e" d="M313.311,87.839l3.536,3.819-20.512,19.38-3.536-3.819Zm10.327-6.507a3.409,3.409,0,0,1,.99,2.546,3.022,3.022,0,0,1-1.132,2.4,3.409,3.409,0,0,1-2.546.99,3.022,3.022,0,0,1-2.4-1.132,3.409,3.409,0,0,1-.99-2.546,3.022,3.022,0,0,1,1.132-2.4,3.409,3.409,0,0,1,2.546-.99A3.842,3.842,0,0,1,323.638,81.332Z" transform="translate(-207.172 -16.451)"/><path class="e" d="M325.967,100.444l-3.82,3.112a7.028,7.028,0,0,0-1.415-3.961,2.65,2.65,0,0,0-.99-.849,9.763,9.763,0,0,0-1.132-.424,3.916,3.916,0,0,0-1.273.141,2.842,2.842,0,0,0-1.132.566c-.99.849-1.556,2.829-1.415,5.8a22.927,22.927,0,0,1-.142,3.254,22.2,22.2,0,0,1-.424,2.263,7.641,7.641,0,0,1-2.688,3.536A8.678,8.678,0,0,1,305.456,116a7.452,7.452,0,0,1-5.517-3.112,8.8,8.8,0,0,1-1.839-4.385l3.819-3.254a7.689,7.689,0,0,0,1.415,4.385c1.556,1.839,3.112,1.98,4.951.566a3.437,3.437,0,0,0,1.273-1.98,12.211,12.211,0,0,0,.283-1.415v-2.122a24.387,24.387,0,0,1,.424-6.224,8.475,8.475,0,0,1,8.2-5.658,7.792,7.792,0,0,1,5.234,2.829A13.575,13.575,0,0,1,325.967,100.444Z" transform="translate(-204.952 -11.148)"/><path class="e" d="M336.581,114.524l-23.341,15.843-2.971-4.244,2.971-1.98a9.186,9.186,0,0,1-3.961,0,5.174,5.174,0,0,1-2.4-1.98c-1.273-1.98-1.273-3.961.141-6.224s4.1-4.81,8.346-7.639q6.154-4.032,9.761-4.668a5.6,5.6,0,0,1,5.8,2.263c1.273,1.839,1.132,3.819-.141,6.366l2.688-1.839Zm-18.248-1.839c-3.112,2.122-5.092,3.678-5.941,4.951a2.617,2.617,0,0,0-.283,3.4c.707.99,1.7,1.273,3.254.849,1.7-.424,3.819-1.7,6.649-3.536,2.829-1.98,4.81-3.537,5.8-4.951q1.485-1.91.424-3.4a2.964,2.964,0,0,0-3.253-.99A30.6,30.6,0,0,0,318.333,112.685Z" transform="translate(-201.632 -6.612)"/><path class="e" d="M344.5,113.6l2.546,4.527-6.931,3.819,1.415,2.4L338,126.331l-1.414-2.4-20.936,11.741-2.546-4.527L334.036,119.4l-1.415-2.546,3.536-1.98,1.415,2.546Z" transform="translate(-198.171 -2.367)"/><path class="e" d="M342.221,125.809l2.263,4.668-25.321,12.307-2.263-4.668Zm11.741-3.112a3.515,3.515,0,0,1,.142,2.688,2.864,2.864,0,0,1-1.839,1.98,3.55,3.55,0,0,1-2.688.141,2.864,2.864,0,0,1-1.98-1.839,3.459,3.459,0,0,1,1.7-4.668,3.514,3.514,0,0,1,2.688-.141A3.625,3.625,0,0,1,353.962,122.7Z" transform="translate(-196.596 0.612)"/><path class="e" d="M338.53,152.361q-13.368,5.3-16.551-2.971c-2.122-5.517,1.273-10.044,10.327-13.58s14.57-2.546,16.834,2.829a10.221,10.221,0,0,1,.707,3.961,6.115,6.115,0,0,1-1.556,3.537,17.132,17.132,0,0,1-3.678,3.254A49.028,49.028,0,0,1,338.53,152.361Zm-1.839-5.093c3.4-1.415,5.8-2.546,6.932-3.536a2.879,2.879,0,0,0,1.132-3.254q-.636-1.7-2.971-1.7a26.345,26.345,0,0,0-7.356,2.122q-5.093,1.91-6.79,3.395a2.879,2.879,0,0,0-1.132,3.254c.424,1.132,1.415,1.7,2.971,1.556C330.891,149.248,333.3,148.541,336.691,147.268Z" transform="translate(-194.743 6.124)"/><path class="e" d="M352.4,147.8l1.414,4.951-3.112.849c2.829.849,4.527,2.263,5.093,4.668a5.18,5.18,0,0,1-1.273,5.375c-.849.849-2.688,1.556-5.517,2.4l-19.38,5.234-1.415-4.951,18.107-4.951a9.891,9.891,0,0,0,3.678-1.7,2.4,2.4,0,0,0,.566-2.546,4.426,4.426,0,0,0-.707-1.415,2.736,2.736,0,0,0-1.273-.707,4.025,4.025,0,0,0-1.839,0c-.707.141-1.7.283-2.688.566l-17.541,4.81-1.415-4.951Z" transform="translate(-193.196 12.067)"/></g></g></g></svg>