<svg xmlns="http://www.w3.org/2000/svg" width="53.728" height="142.047" viewBox="0 0 53.728 142.047"><g transform="translate(0.015 115.651)"><path d="M16.26,247.95h6.147v1.941H18.324v4.364H21.88V256.2H18.324v6.147H16.26Z" transform="translate(-16.26 -247.95)"/><path d="M31.45,247.95h3.315q3.635,0,3.64,4.226a5.367,5.367,0,0,1-.394,2.152,3.01,3.01,0,0,1-1.384,1.443l2.221,6.571H36.666L34.745,256.2H33.514v6.147H31.45Zm2.059,6.428h1.172a2.051,2.051,0,0,0,.872-.153,1.159,1.159,0,0,0,.5-.433,1.829,1.829,0,0,0,.231-.7,7.833,7.833,0,0,0,0-1.921,1.735,1.735,0,0,0-.251-.709,1.118,1.118,0,0,0-.537-.433,2.452,2.452,0,0,0-.911-.143H33.509Z" transform="translate(-23.968 -247.95)"/><path d="M48.93,247.95h6.147v1.941H50.994v4.226H54.55v1.941H50.994v4.226h4.083v2.064H48.93Z" transform="translate(-32.838 -247.95)"/><path d="M64.24,247.95H66.3v14.392H64.24Z" transform="translate(-40.607 -247.95)"/><path d="M72.49,247.95h2.064v6.167H77.1V247.95h2.064v14.392H77.1v-6.408H74.554v6.408H72.49Z" transform="translate(-44.794 -247.95)"/><path d="M89.97,247.95h6.147v1.941H92.034v4.226H95.59v1.941H92.034v4.226h4.083v2.064H89.97Z" transform="translate(-53.664 -247.95)"/><path d="M105.28,247.95h2.064v14.392H105.28Z" transform="translate(-61.433 -247.95)"/><path d="M113.824,249.891H111.44V247.95h6.832v1.941h-2.384v12.452h-2.064Z" transform="translate(-64.559 -247.95)"/></g><g transform="translate(14.673 134.915)"><path d="M46.02,288.774a1.8,1.8,0,0,1,.148-.749,1.556,1.556,0,0,1,.389-.537,1.677,1.677,0,0,1,.542-.32,1.748,1.748,0,0,1,1.212,0,1.677,1.677,0,0,1,.542.32,1.556,1.556,0,0,1,.389.537,1.8,1.8,0,0,1,.148.749v.355h-1v-.355a.673.673,0,0,0-.2-.537.748.748,0,0,0-.956,0,.673.673,0,0,0-.2.537v3.7a.673.673,0,0,0,.2.537.748.748,0,0,0,.956,0,.673.673,0,0,0,.2-.537v-1.32h-.8v-.887h1.8v2.207a1.773,1.773,0,0,1-.148.754,1.584,1.584,0,0,1-.389.532,1.677,1.677,0,0,1-.542.32,1.748,1.748,0,0,1-1.212,0,1.677,1.677,0,0,1-.542-.32,1.584,1.584,0,0,1-.389-.532,1.773,1.773,0,0,1-.148-.754Z" transform="translate(-46.02 -287.06)"/><path d="M54.66,287.17h1.616q1.773,0,1.773,2.059a2.592,2.592,0,0,1-.192,1.049,1.5,1.5,0,0,1-.675.7l1.084,3.2H57.2l-.936-2.995h-.6v2.995h-1Zm1,3.138h.571a1.006,1.006,0,0,0,.424-.074.535.535,0,0,0,.241-.212.953.953,0,0,0,.113-.34,3.719,3.719,0,0,0,0-.936.821.821,0,0,0-.123-.345.557.557,0,0,0-.261-.212,1.231,1.231,0,0,0-.443-.069h-.522Z" transform="translate(-50.404 -287.116)"/><path d="M66.431,292.608a1.625,1.625,0,1,1-3.251,0V287.17h1v5.339a.75.75,0,0,0,.177.552.643.643,0,0,0,.887,0,.75.75,0,0,0,.177-.552V287.17h1Z" transform="translate(-54.728 -287.116)"/><path d="M71.7,287.17h1.507a2.2,2.2,0,0,1,.729.108,1.432,1.432,0,0,1,.571.384,1.46,1.46,0,0,1,.355.645,4.125,4.125,0,0,1,.1,1,5.18,5.18,0,0,1-.054.793,1.641,1.641,0,0,1-.231.616,1.443,1.443,0,0,1-.552.537,1.861,1.861,0,0,1-.906.192H72.7v2.739h-1Zm1,3.33h.483a1.036,1.036,0,0,0,.473-.089.556.556,0,0,0,.246-.241A.927.927,0,0,0,74,289.8c.01-.143.015-.305.015-.483s0-.32-.015-.468a1.1,1.1,0,0,0-.089-.384.581.581,0,0,0-.232-.256.876.876,0,0,0-.453-.094H72.7Z" transform="translate(-59.051 -287.116)"/><path d="M79.84,287.17h1.507a2.2,2.2,0,0,1,.729.108,1.432,1.432,0,0,1,.571.384,1.46,1.46,0,0,1,.355.645,4.126,4.126,0,0,1,.1,1,5.181,5.181,0,0,1-.054.793,1.641,1.641,0,0,1-.232.616,1.443,1.443,0,0,1-.552.537,1.861,1.861,0,0,1-.906.192h-.512v2.739h-1Zm1,3.33h.483a1.036,1.036,0,0,0,.473-.089.556.556,0,0,0,.246-.241.927.927,0,0,0,.094-.369c.01-.143.015-.305.015-.483s0-.32-.015-.468a1.1,1.1,0,0,0-.089-.384.581.581,0,0,0-.231-.256.876.876,0,0,0-.453-.094h-.522V290.5Z" transform="translate(-63.182 -287.116)"/><path d="M87.98,287.17h2.995v.946h-1.99v2.059h1.734v.946H88.985v2.059h1.99v1H87.98Z" transform="translate(-67.313 -287.116)"/></g><rect width="7.039" transform="translate(10.59 24.332) rotate(-29.434)"/><path d="M69.953,54.495V42.89L59.7,48.821h0L43.665,58.105l-4.32,2.5L26.889,67.823V49.944l16.264-9.4h0l11.038-6.383h0L69.953,25.05V13.15L43.35,28.158h0l-10.4,5.866h0L26.82,37.487h0l-10.585,5.97h0V69.72l0,0,.01,12h0l0,29.543,10.644-5.886V88.816h0V79.433l3.369-1.951,13.649-7.9h0l9.871-5.719h0Z" transform="translate(-16.23 -13.15)"/><path d="M26.81,30.626l4.157,2.133,10.4-5.866L16.23,13.15l0,28.263,10.585-5.97Z" transform="translate(-16.23 -13.15)"/><path d="M72.384,132.058V147.5L45.145,132.358l-3.275,1.9v8.132l41.094,22.426V126.625L68.758,118.68,58.888,124.4Z" transform="translate(-29.241 -66.701)"/><path d="M88.291,70.5l10.26-5.93-11.806-6.2L76.48,64.305Z" transform="translate(-46.804 -36.097)"/></svg>