<svg xmlns="http://www.w3.org/2000/svg" viewBox="0 0 89.2 93.34"><defs><style>.cls-1{fill:#fff;}</style></defs><g id="Layer_2" data-name="Layer 2"><g id="Layer_1-2" data-name="Layer 1"><path class="cls-1" d="M83.73,93.34l-6.69-2,.63-2.11,4.18,1.23,1.73-5.86-3.77-1.12.62-2.11,3.77,1.11,2.5-8.46,2.5.74Z"/><path class="cls-1" d="M76.54,84.45l-2.23-.88,3.19-8.06a3.44,3.44,0,0,0,.3-1.73A1.21,1.21,0,0,0,77,72.9a1.32,1.32,0,0,0-1.23,0,3,3,0,0,0-.91,1.41l-.38,1L71.58,82.5l-2.22-.88,2.85-7.22a10.86,10.86,0,0,1,1.71-3.23q1.44-1.35,3.9-.37a3.67,3.67,0,0,1,2.36,2.06,5.62,5.62,0,0,1-.49,3.62Z"/><path class="cls-1" d="M66.14,80.16,64,79.06l.69-1.33a3.07,3.07,0,0,1-3.15.31,2.37,2.37,0,0,1-1.43-2.14,6.57,6.57,0,0,1,.9-2.59l4.22-8.2,2.13,1.09-4,7.72a4,4,0,0,0-.58,1.8,1.14,1.14,0,0,0,.71,1,1.56,1.56,0,0,0,.68.19,1.08,1.08,0,0,0,.62-.21,2.4,2.4,0,0,0,.61-.62A7.63,7.63,0,0,0,66.11,75l3.83-7.45,2.13,1.09Z"/><path class="cls-1" d="M51.77,81.88l-2-1.29,7.61-11.86-5.68,3.21-2.28-1.46,5.91-3.07.73-8.08,2.36,1.51-.87,7.63,3.72-5.8,2,1.29Z"/><path class="cls-1" d="M45,71.7l-1.92-1.44,2.19-2.91-1.05-.78,1.15-1.52,1,.78L53.06,57,55,58.42l-6.65,8.85,1.06.79-1.15,1.52-1.05-.79Z"/><path class="cls-1" d="M38.18,68.73a1.55,1.55,0,0,1-.56-1.09A1.58,1.58,0,0,1,38,66.46a1.6,1.6,0,0,1,1.11-.58,1.57,1.57,0,0,1,1.19.37,1.6,1.6,0,0,1,.58,1.11,1.58,1.58,0,0,1-.39,1.19,1.55,1.55,0,0,1-1.09.56A1.64,1.64,0,0,1,38.18,68.73Zm4.4-3.51-1.85-1.54,8.3-10,1.85,1.54Z"/><path class="cls-1" d="M37.26,51.49q4.56-4.74,7.49-1.93T43.07,57.2q-4.64,4.84-7.57,2a3.86,3.86,0,0,1-1-1.55,3.33,3.33,0,0,1-.06-1.78,6.72,6.72,0,0,1,.93-2A16.52,16.52,0,0,1,37.26,51.49ZM39,53.26a12.65,12.65,0,0,0-2.22,2.8A1.23,1.23,0,0,0,37,57.62a1.25,1.25,0,0,0,1.57.12,12.3,12.3,0,0,0,2.66-2.29,12.53,12.53,0,0,0,2.17-2.74,1.28,1.28,0,0,0-.19-1.57A1.23,1.23,0,0,0,41.63,51,11,11,0,0,0,39,53.26Z"/><path class="cls-1" d="M30.62,54l-1.56-1.81,1.13-1a3.06,3.06,0,0,1-3-.9,2.39,2.39,0,0,1-.53-2.52,6.52,6.52,0,0,1,1.82-2.06l7-6L37,41.57l-6.56,5.67a4.14,4.14,0,0,0-1.21,1.46,1.14,1.14,0,0,0,.29,1.17,1.57,1.57,0,0,0,.56.44,1.18,1.18,0,0,0,.65,0,2.57,2.57,0,0,0,.8-.35,8.3,8.3,0,0,0,1-.76l6.35-5.48,1.57,1.82Z"/><path class="cls-1" d="M19.17,39.39l10.59-7.48,1.38,1.95-1.36,1a4.07,4.07,0,0,1,1.79,0,2.07,2.07,0,0,1,1.11.87,2.49,2.49,0,0,1,0,2.89,13.41,13.41,0,0,1-3.8,3.61,12.34,12.34,0,0,1-4.48,2.24,2.47,2.47,0,0,1-2.66-1,2.69,2.69,0,0,1,0-2.91l-1.19.84Zm8.37.71a12.53,12.53,0,0,0,2.72-2.34,1.21,1.21,0,0,0-1.41-1.93,12.24,12.24,0,0,0-3.05,1.71,12,12,0,0,0-2.63,2.3c-.43.61-.5,1.12-.19,1.56a1.28,1.28,0,0,0,1.52.42A11.57,11.57,0,0,0,27.54,40.1Z"/><path class="cls-1" d="M10.31,40.87l-1.24-2,18.23-11,1.24,2.05Z"/><path class="cls-1" d="M7.32,35.75,6.18,33.64,24.92,23.53l1.13,2.11Z"/><path class="cls-1" d="M6.63,28.29a1.65,1.65,0,0,1,.77-2.15,1.6,1.6,0,0,1,1.25-.06,1.51,1.51,0,0,1,.92.83,1.53,1.53,0,0,1,.07,1.24,1.58,1.58,0,0,1-.85.93,1.56,1.56,0,0,1-1.22.05A1.66,1.66,0,0,1,6.63,28.29Zm5.46-1.37-1-2.17,11.69-5.6,1,2.17Z"/><path class="cls-1" d="M6.31,23l-.92-2.2,3.35-1.4-.5-1.21L10,17.5l.5,1.2,10.21-4.26.92,2.21L11.42,20.91l.51,1.21-1.76.74-.51-1.22Z"/><path class="cls-1" d="M.81,11.94a1.36,1.36,0,0,1,.08-1.08,1.43,1.43,0,0,1,.85-.73,1.39,1.39,0,0,1,1.11.08,1.36,1.36,0,0,1,.72.84,1.43,1.43,0,0,1,.08.58,1.67,1.67,0,0,1-.15.54,1.61,1.61,0,0,1-.35.43,1.44,1.44,0,0,1-.51.29,1.36,1.36,0,0,1-1.1-.08A1.44,1.44,0,0,1,.81,11.94Zm1.38,4.18a1.47,1.47,0,0,1,.93-1.83,1.39,1.39,0,0,1,1.11.08,1.46,1.46,0,0,1,.73.85A1.46,1.46,0,0,1,4,17.07,1.38,1.38,0,0,1,2.93,17,1.44,1.44,0,0,1,2.19,16.12ZM5,9,17.34,4.91l.75,2.27-1.58.53a4.18,4.18,0,0,1,1.72.51A2.11,2.11,0,0,1,19,9.38a2.48,2.48,0,0,1-.82,2.77,13.49,13.49,0,0,1-4.69,2.35,12.19,12.19,0,0,1-4.94.84,2.47,2.47,0,0,1-2.25-1.75,2.69,2.69,0,0,1,.85-2.79l-1.4.47Zm7.81,3.12a12.89,12.89,0,0,0,3.28-1.45,1.27,1.27,0,0,0,.58-1.48c-.17-.51-.63-.77-1.37-.78a12.39,12.39,0,0,0-3.41.75,12.72,12.72,0,0,0-3.19,1.44q-.88.67-.63,1.44a1.27,1.27,0,0,0,1.33.84A11.43,11.43,0,0,0,12.84,12.11Z"/><path class="cls-1" d="M.58,6.36,0,4l3.52-.89L3.21,1.89l1.84-.46.32,1.26L16.1,0l.59,2.32L6,5l.32,1.28-1.85.46L4.11,5.47Z"/></g></g></svg>