<svg xmlns="http://www.w3.org/2000/svg" xmlns:xlink="http://www.w3.org/1999/xlink" width="571" height="567" viewBox="0 0 571 567"><defs><style>.a{fill:#cca372;}.a,.b{fill-rule:evenodd;}.b{fill:#57289c;}.c{fill:#1e1d70;}.d{fill:#2ea598;}.e{filter:url(#c);}.f{filter:url(#a);}</style><filter id="a" x="0" y="275.5" width="291.5" height="291.5" filterUnits="userSpaceOnUse"><feOffset dy="2" input="SourceAlpha"/><feGaussianBlur stdDeviation="2" result="b"/><feFlood flood-opacity="0.161"/><feComposite operator="in" in2="b"/><feComposite in="SourceGraphic"/></filter><filter id="c" x="279.5" y="275.5" width="291.5" height="291.5" filterUnits="userSpaceOnUse"><feOffset dy="2" input="SourceAlpha"/><feGaussianBlur stdDeviation="2" result="d"/><feFlood flood-opacity="0.161"/><feComposite operator="in" in2="d"/><feComposite in="SourceGraphic"/></filter></defs><g transform="translate(6)"><path class="a" d="M279.5,279.5H0C0,125.135,125.135,0,279.5,0h0Z"/><g transform="translate(0 279.5)"><g class="f" transform="matrix(1, 0, 0, 1, -6, -279.5)"><path class="b" d="M279.5,196.6V476.1C125.135,476.114,0,350.979,0,196.6H279.5Z" transform="translate(6 82.9)"/></g></g><g transform="translate(279.5 279.5)"><g class="e" transform="matrix(1, 0, 0, 1, -285.5, -279.5)"><path class="c" d="M196.6,196.6H476.1c0,154.365-125.135,279.5-279.5,279.5h0Z" transform="translate(88.9 82.9)"/></g></g><g transform="translate(279.5)"><path class="d" d="M196.6,279.5V0C350.965,0,476.1,125.135,476.1,279.5H196.6Z" transform="translate(-196.6)"/></g></g></svg>