<svg xmlns="http://www.w3.org/2000/svg" xmlns:xlink="http://www.w3.org/1999/xlink" width="391.81" height="376.34" viewBox="0 0 391.81 376.34"><defs><style>.a{fill:#231f20;}.b{fill:#1e1d70;}.c{fill:#2ea598;}.d{fill:#57289c;}.e{filter:url(#e);}.f{filter:url(#c);}.g{filter:url(#a);}</style><filter id="a" x="34.647" y="47.271" width="130.594" height="136.074" filterUnits="userSpaceOnUse"><feOffset dy="2" input="SourceAlpha"/><feGaussianBlur stdDeviation="2" result="b"/><feFlood flood-opacity="0.161"/><feComposite operator="in" in2="b"/><feComposite in="SourceGraphic"/></filter><filter id="c" x="270.647" y="0" width="86.885" height="90.345" filterUnits="userSpaceOnUse"><feOffset dy="2" input="SourceAlpha"/><feGaussianBlur stdDeviation="2" result="d"/><feFlood flood-opacity="0.161"/><feComposite operator="in" in2="d"/><feComposite in="SourceGraphic"/></filter><filter id="e" x="199.647" y="88.36" width="67.424" height="69.985" filterUnits="userSpaceOnUse"><feOffset dy="2" input="SourceAlpha"/><feGaussianBlur stdDeviation="2" result="f"/><feFlood flood-opacity="0.161"/><feComposite operator="in" in2="f"/><feComposite in="SourceGraphic"/></filter></defs><g transform="translate(8.647 -2686.616)"><g transform="translate(-27.013 2102.524)"><path class="a" d="M74.59,1130.7c1.753-2.121,3.6-4.2,5.265-6.4a1.006,1.006,0,0,0,.792.386c1.2.02,2.181-.949,3.088-1.646,1-.77,2-1.54,2.941-2.382a35.6,35.6,0,0,0,5.182-5.814,48.854,48.854,0,0,0,3.95-6.734c.585-1.172,1.139-2.36,1.681-3.552.23-.5.538-1.058.793-1.628a.92.92,0,0,0,.377-.277c3.1-3.713,6.557-7.171,9.884-10.677,1.721-1.813,3.49-3.592,5.166-5.446,1.025-1.136,2.063-2.777.907-4.209a2.616,2.616,0,0,0-2.021-.976,16.714,16.714,0,0,0,3.568-3.257c1.706-2.445.328-5.823-2.9-5.332a16.188,16.188,0,0,0-4.695,1.962q-2.519,1.3-4.93,2.784-.763.47-1.52.956,1.157-1.146,2.311-2.291l4.613-4.588a29.856,29.856,0,0,0,4.019-4.309,4.6,4.6,0,0,0,.715-4.385,3.968,3.968,0,0,0-3.429-2.226,6.9,6.9,0,0,0-4.633,1.733c-1.614,1.235-3.143,2.6-4.687,3.918-1.947,1.666-3.909,3.32-5.838,5.01l-1.141,1q.951-1.552,1.914-3.1a55.683,55.683,0,0,0,4.246-6.986c.706-1.623.757-3.822-.815-4.979a2.706,2.706,0,0,0-3.075-.082.992.992,0,0,0-.853.346q-7.4,8-14.767,16.047c-3.269,3.563-8.3,7.77-8.658,12.936-.561.846-.319,2.045-.317,3.043,0,1.391,0,2.782.011,4.175.013,2.528-.134,5.16.087,7.692a1.3,1.3,0,0,0-.92.368,20.717,20.717,0,0,1-3.333,2.012c-1.079.627-2.164,1.241-3.248,1.858l-6.1,3.472q-6.2,3.532-12.4,7.06c-4.133,2.353-8.274,4.693-12.4,7.062l-6.082,3.5a44.091,44.091,0,0,0-6.133,3.695c-.431.355.031,1.117.545.938a43.99,43.99,0,0,0,6.352-3.322l6.155-3.375c4.171-2.286,8.324-4.6,12.487-6.908l12.485-6.912,6.14-3.4c1.092-.605,2.183-1.21,3.278-1.806.929-.505,1.889-1.156,2.885-1.574a46.231,46.231,0,0,1,3.152,3.8,27.743,27.743,0,0,1,2.556,4.611,26.242,26.242,0,0,1,1.6,5.135,23.569,23.569,0,0,1,.4,2.708,3.255,3.255,0,0,0,.538,2.056c-2.081,2.087-3.934,4.419-5.854,6.653q-2.91,3.382-5.818,6.763c-4.03,4.688-8.089,9.352-12.112,14.044q-12,14-23.916,28.065-6.689,7.879-13.38,15.756c-1.107,1.3.784,3.2,1.885,1.886q23.775-28.386,47.4-56.893Q71.3,1134.692,74.59,1130.7Zm4.476-19.257a24.114,24.114,0,0,0-5.919-8.618.928.928,0,0,0,.5-.755,76.8,76.8,0,0,0,.223-8.348c.018-1.313.029-2.628.043-3.941.013-1.112.331-2.538-.413-3.436a14.012,14.012,0,0,1,3.277-5.6c2.074-2.376,4.314-4.619,6.477-6.914q6.914-7.346,13.811-14.711a1.127,1.127,0,0,0,.293-.561,1.037,1.037,0,0,1,1.094.233,2.239,2.239,0,0,1,.3,2.119c-.46,1.7-1.855,3.315-2.786,4.776q-3.095,4.858-6.263,9.667a.909.909,0,0,0,.033,1.114c-.143.44.42.792.826.609.112-.051.223-.107.331-.165a.955.955,0,0,0,.534-.321c.683-.449,1.31-1.005,1.94-1.507l2.925-2.333c1.826-1.456,3.628-2.945,5.437-4.423,1.869-1.527,3.668-3.255,5.66-4.617,1.179-.806,4.066-1.887,4.588.288.438,1.837-1.929,3.706-3.063,4.825-1.764,1.741-3.543,3.467-5.316,5.2-3.429,3.351-6.836,6.767-10.407,9.967a1.147,1.147,0,0,0-.009,1.712.716.716,0,0,0,1.09.59c1.761-1.085,3.362-2.514,5.059-3.7,1.6-1.125,3.229-2.21,4.9-3.228s3.38-1.978,5.109-2.893c1.132-.6,4.285-2.782,5.455-1.576,1.487,1.532-1.6,3.573-2.576,4.332q-2.586,2.011-5.205,3.981c-.426.319-.855.634-1.282.951-.342.2-.681.411-1.016.625a45.717,45.717,0,0,0-4.624,3.412,22.26,22.26,0,0,0-3.537,2.7,1.025,1.025,0,0,0-.243,1.176,3.164,3.164,0,0,0-.141.391.438.438,0,0,0,.533.532,3.353,3.353,0,0,0,.538-.219,1.134,1.134,0,0,0,.674-.118,33.927,33.927,0,0,0,4.928-3.637q2.271-1.747,4.523-3.521c.42-.234.84-.464,1.266-.685.589-.306,4.823-2.6,4.483-.773-.149.8-1.217,1.59-1.742,2.156l-1.918,2.061c-1.386,1.489-2.764,2.985-4.157,4.465-2.449,2.6-4.851,5.292-7.413,7.788a.747.747,0,0,0-.259.138c-.853.692-1.252,2.023-1.732,2.989-.551,1.108-1.114,2.212-1.7,3.3a57.653,57.653,0,0,1-3.876,6.307,34.255,34.255,0,0,1-4.8,5.412A25.476,25.476,0,0,1,82.6,1121c-.389.261-.853.5-1.3.757a5.657,5.657,0,0,0-.056-2.155,29.119,29.119,0,0,0-.464-2.878A27.838,27.838,0,0,0,79.065,1111.446Z" transform="translate(0 -294.658)"/><path class="a" d="M1767.918,833.846,1755.5,818.09q-11.074-14.054-22.193-28.065c-3.733-4.693-7.5-9.357-11.239-14.044q-2.7-3.383-5.4-6.763c-1.782-2.231-3.5-4.564-5.432-6.653a3.437,3.437,0,0,0,.5-2.056,25.579,25.579,0,0,1,.37-2.708,27.794,27.794,0,0,1,1.484-5.135,28.485,28.485,0,0,1,2.373-4.611,45.587,45.587,0,0,1,2.925-3.8,30.329,30.329,0,0,1,2.679,1.574c1.018.6,2.03,1.2,3.043,1.806l5.7,3.4q5.792,3.456,11.587,6.912c3.861,2.3,7.716,4.622,11.588,6.908l5.711,3.374a39.827,39.827,0,0,0,5.9,3.322c.478.179.907-.583.507-.938a40.645,40.645,0,0,0-5.691-3.695q-2.823-1.75-5.644-3.5c-3.825-2.371-7.669-4.711-11.5-7.062s-7.671-4.706-11.505-7.06l-5.658-3.472c-1.005-.618-2.012-1.233-3.014-1.858a18.98,18.98,0,0,1-3.092-2.012,1.147,1.147,0,0,0-.853-.368c.207-2.53.069-5.164.082-7.692.007-1.391.007-2.782.009-4.173,0-1,.228-2.2-.293-3.043-.335-5.166-5-9.373-8.035-12.936q-6.844-8.034-13.7-16.048a.888.888,0,0,0-.791-.346,2.37,2.37,0,0,0-2.855.082c-1.46,1.159-1.411,3.356-.757,4.979a56.9,56.9,0,0,0,3.939,6.986q.9,1.543,1.777,3.1l-1.06-1c-1.789-1.69-3.61-3.342-5.417-5.01-1.433-1.322-2.851-2.682-4.349-3.918a6.147,6.147,0,0,0-4.3-1.733,3.675,3.675,0,0,0-3.18,2.226,4.885,4.885,0,0,0,.663,4.385,29.141,29.141,0,0,0,3.731,4.309l4.282,4.588q1.07,1.146,2.144,2.291-.7-.486-1.411-.956c-1.492-.989-3.016-1.922-4.575-2.784a14.454,14.454,0,0,0-4.358-1.961c-3-.491-4.275,2.887-2.693,5.332a16.082,16.082,0,0,0,3.311,3.257,2.361,2.361,0,0,0-1.876.976c-1.072,1.433-.109,3.074.842,4.209,1.556,1.855,3.2,3.633,4.794,5.446,3.088,3.508,6.3,6.966,9.172,10.677a.849.849,0,0,0,.35.277c.235.57.523,1.125.735,1.628.5,1.192,1.018,2.38,1.56,3.552a50,50,0,0,0,3.666,6.734,34.909,34.909,0,0,0,4.809,5.814c.875.842,1.8,1.612,2.732,2.382.842.7,1.75,1.666,2.865,1.646a.912.912,0,0,0,.734-.386c1.547,2.2,3.26,4.278,4.887,6.4l6.118,7.975q21.9,28.535,43.986,56.893C1767.19,837.049,1768.945,835.15,1767.918,833.846Zm-57.6-76.965c-.19.951-.33,1.913-.431,2.878a6.086,6.086,0,0,0-.053,2.155c-.415-.261-.846-.5-1.206-.757a23.728,23.728,0,0,1-2.715-2.344,33.665,33.665,0,0,1-4.456-5.412,58.21,58.21,0,0,1-3.6-6.307c-.545-1.09-1.067-2.193-1.578-3.3a8.916,8.916,0,0,0-1.606-2.989.685.685,0,0,0-.239-.138c-2.38-2.5-4.608-5.185-6.881-7.788-1.293-1.482-2.572-2.976-3.858-4.465q-.891-1.03-1.78-2.061c-.487-.565-1.48-1.36-1.618-2.155-.315-1.826,3.615.467,4.161.773.395.221.786.451,1.176.685q2.089,1.774,4.2,3.521a31.754,31.754,0,0,0,4.573,3.637,1,1,0,0,0,.627.118,3.3,3.3,0,0,0,.5.219.42.42,0,0,0,.493-.532,3.11,3.11,0,0,0-.132-.391,1.086,1.086,0,0,0-.225-1.175,21.04,21.04,0,0,0-3.284-2.7,42.131,42.131,0,0,0-4.291-3.412c-.31-.214-.625-.42-.942-.625-.4-.317-.8-.632-1.19-.951q-2.434-1.964-4.831-3.981c-.906-.759-3.771-2.8-2.391-4.332,1.087-1.206,4.012.978,5.063,1.576q2.41,1.369,4.742,2.892c1.552,1.02,3.063,2.1,4.55,3.228,1.576,1.19,3.061,2.619,4.695,3.7.5.33.967-.1,1.012-.59a1.206,1.206,0,0,0-.007-1.712c-3.315-3.2-6.475-6.617-9.658-9.967-1.644-1.732-3.3-3.458-4.934-5.2-1.052-1.119-3.251-2.99-2.844-4.825.483-2.177,3.164-1.094,4.256-.288,1.849,1.362,3.517,3.09,5.253,4.617,1.679,1.478,3.351,2.967,5.046,4.423q1.359,1.165,2.715,2.333c.585.5,1.166,1.058,1.8,1.507a.881.881,0,0,0,.5.321c.1.058.2.114.308.165a.549.549,0,0,0,.768-.609.965.965,0,0,0,.029-1.114q-2.937-4.814-5.812-9.667c-.864-1.46-2.157-3.079-2.584-4.776a2.385,2.385,0,0,1,.279-2.119.911.911,0,0,1,1.014-.234,1.159,1.159,0,0,0,.273.561q6.39,7.371,12.816,14.711c2.005,2.295,4.086,4.539,6.01,6.913a14.306,14.306,0,0,1,3.041,5.6c-.69.9-.395,2.326-.384,3.436.013,1.313.024,2.628.042,3.941a82.759,82.759,0,0,0,.207,8.348.93.93,0,0,0,.467.755,24.222,24.222,0,0,0-5.493,8.618A30.056,30.056,0,0,0,1710.319,756.881Z" transform="translate(-1358.054)"/><path class="a" d="M545.568,995.457a5.242,5.242,0,0,0,2.632-2.925,5.725,5.725,0,0,0,.322-1.373,8,8,0,0,0,4.352,1.661,11.676,11.676,0,0,0,6.162-1.474,15.474,15.474,0,0,0-.915,2.681c-.534,2.222-.877,5.137.074,7.281.509,1.146,2.23.5,2.246-.609.015-1-.264-1.985-.286-2.99a13.636,13.636,0,0,1,.312-3.231,14.808,14.808,0,0,1,2.632-5.658c.63-.848-.61-2.056-1.456-1.456-2.337,1.654-4.876,3.5-7.832,3.708-2.237.154-4.833-.806-5.713-3.019l0,0c-.254-.953-1.884-.556-1.523.419a6.129,6.129,0,0,0,1.014,1.771,5.866,5.866,0,0,1-.194,2.068,4.274,4.274,0,0,1-2.141,2.606C544.894,995.106,545.209,995.629,545.568,995.457Z" transform="translate(-431.325 -237.717)"/><path class="a" d="M185.983,1269.067c-2.6-2.826-6.321.491-8.444,2.139-1.11.862-2.2,1.759-3.266,2.671q2.065-2.679,4.128-5.356c2.331-3.037,5.309-6.526,4.255-10.639a.807.807,0,0,0-.563-.563,5.432,5.432,0,0,0-3.349.163,7.763,7.763,0,0,0,.534-.9,3.254,3.254,0,0,0-.149-3.726,3.339,3.339,0,0,0-3.742-.616c-1.751.716-3.208,2.351-4.619,3.563q-2.483,2.133-4.961,4.274c-2.5,2.172-5.155,4.273-7.636,6.524q1.7-3.122,3.414-6.238a59.01,59.01,0,0,0,2.782-5.205,4.958,4.958,0,0,0,.042-4.4,3.227,3.227,0,0,0-3.226-1.732c-1.59.206-2.634,1.494-3.55,2.688q-3.842,4.991-7.674,9.987c-1.42,1.849-2.844,3.695-4.244,5.559-1.145,1.523-2.385,3.032-3.416,4.651a.924.924,0,0,0-.377.2c-.92.813-.594,2.269-.594,3.39,0,1.324,0,2.65,0,3.974q-.019,4.208-.036,8.415c-.013,2.728-.033,5.454-.009,8.181.011,1.324.005,2.65.047,3.974a24.506,24.506,0,0,0,.147,2.979,1.236,1.236,0,0,0-.275.246q-15.122,18.086-30.307,36.121-15.166,18.059-30.25,36.18-4.271,5.148-8.558,10.279c-1.4,1.683-2.813,3.358-4.2,5.052a49.717,49.717,0,0,0-4,5.131c-.353.57.426,1.107.895.692,2.882-2.554,5.26-5.839,7.756-8.77q3.8-4.461,7.6-8.924c5.079-5.939,10.181-11.858,15.225-17.824l28.4-33.591c1.166.121,2.333,0,3.51.239a12.393,12.393,0,0,1,3.831,1.541,21.087,21.087,0,0,1,4.066,3.177c-13.131,18.145-26.623,36.107-40.936,53.339-4.054,4.88-8.232,9.661-12.114,14.68-.245.317.163.766.455.455,7.859-8.335,14.783-17.547,22.1-26.352,7.173-8.631,14.014-17.547,20.829-26.459,3.659-4.783,7.241-9.627,10.8-14.488q.579.636,1.125,1.3a33.135,33.135,0,0,1,3.09,4.438c-1.237,1.864-2.57,3.661-3.807,5.528-1.3,1.96-2.543,3.956-3.778,5.953q-3.771,6.1-7.58,12.168c-5.077,8.094-10.2,16.165-15.151,24.341-2.84,4.691-5.838,9.288-8.777,13.916-.35.551.529,1.061.873.511,10.152-16.2,20.474-32.3,30.824-48.376,1.485-2.306,2.967-4.613,4.407-6.948,1.239-2.009,2.34-4.092,3.536-6.12.277.514.543,1.032.793,1.56.462.974.871,1.971,1.235,2.985-1.663,3.358-3.219,6.781-4.981,10.083-1.918,3.6-3.843,7.176-5.678,10.817q-5.453,10.816-10.862,21.651c-2.063,4.153-4.1,8.312-5.939,12.566-.15.349.322.654.523.306,4.083-7.04,7.685-14.372,11.342-21.643l5.39-10.713c1.829-3.635,3.784-7.243,5.4-10.98,1.558-3.6,3.483-7.062,5.3-10.552a10.681,10.681,0,0,0,1.107,3.488,1.076,1.076,0,0,0,.4.328q-8.49,16.956-16.211,34.285-4.355,9.784-8.44,19.686c-.6,1.453,1.766,2.088,2.36.65q14.516-35.132,32.106-68.887c3.228-6.191,6.7-12.271,9.831-18.512a1.57,1.57,0,0,0,.56-.3,19.876,19.876,0,0,0,4.713-5.544c.744-1.3,1.913-3.438,1.844-5.178a3.052,3.052,0,0,0,.217-1.579c0-.931.024-1.864.034-2.795q.035-2.912.072-5.823c.024-1.864.051-3.728.069-5.591a37.476,37.476,0,0,0,.029-4.168,1.169,1.169,0,0,0,.275-.174c3.43-2.893,6.636-6.1,9.933-9.147C184.436,1275.464,188.736,1272.063,185.983,1269.067Zm-3.148,5.265c-1.259,1.154-2.534,2.291-3.8,3.436-2.594,2.34-5.3,4.6-7.792,7.048a.693.693,0,0,0-.446.417c-.614,1.554-.455,3.635-.543,5.291-.1,1.94-.176,3.883-.263,5.823l-.254,5.591c-.042.931-.082,1.864-.127,2.795-.042.868-.176,1.451.337,2.079-.147.342-.279.692-.424,1.005a24.436,24.436,0,0,1-1.478,2.758,17.414,17.414,0,0,1-4.309,4.67,1.307,1.307,0,0,0-.578,1.255c-3.284,5.338-6.176,10.949-9.114,16.48q-2.562,4.828-5.059,9.692c-.063-.12-.134-.241-.208-.384a.68.68,0,0,0-1.228.161,2.928,2.928,0,0,0-.263.993,8.887,8.887,0,0,0,.069,1.222,6.091,6.091,0,0,0,.15.9q-.576,1.13-1.148,2.26c-.214-.877-.58-1.752-.848-2.514a37.229,37.229,0,0,0-7.064-12.115,23.326,23.326,0,0,0-7.254-5.885,11.279,11.279,0,0,0-6.082-1.3l.685-.81,1.608-1.9a22.718,22.718,0,0,1,12.617,5.352,22.315,22.315,0,0,1,5.733,7.779c.48,1.1.683,2.271,1.108,3.376a.755.755,0,0,0,1.454-.4,18.949,18.949,0,0,0-2.96-6.64,23.2,23.2,0,0,0-4.664-5.314,22.957,22.957,0,0,0-12.423-5.177q7.317-8.653,14.647-17.3a1.249,1.249,0,0,0,0-1.634,19.354,19.354,0,0,0,.254-3.076c.069-1.324.091-2.648.127-3.974.076-2.8.109-5.61.149-8.415l.114-8.182c.018-1.324.045-2.65.071-3.974a10.027,10.027,0,0,0-.018-2.735c1.279-1.353,2.4-2.88,3.563-4.32,1.364-1.7,2.71-3.405,4.055-5.115,2.74-3.483,5.468-6.975,8.221-10.449.458-.578,1.2-1.744,2.025-1.8.779-.054,1.128.835,1.136,1.485a6.057,6.057,0,0,1-1.018,2.771c-.509.947-1.029,1.887-1.543,2.831q-3.2,5.866-6.419,11.717c-.712,1.3,1.275,2.461,1.985,1.161l.5-.917c3.526-2.49,6.714-5.54,9.985-8.339q2.665-2.279,5.323-4.572c.944-.815,1.884-1.635,2.833-2.445.782-.667,1.724-1.542,2.838-1.395,2.9.384-.9,4.318-1.6,5.091-1.559,1.726-3.121,3.449-4.706,5.151l-4.751,5.107c-1.081,1.163-2.224,2.284-3.327,3.436l-.206.208a.745.745,0,0,0-.062.076c-.52.549-1.031,1.1-1.518,1.679-.916,1.078.565,2.619,1.574,1.574,1.505-1.561,2.829-3.309,4.264-4.938q2.005-2.274,4.012-4.549c.473-.462.945-.922,1.416-1.386,1.382-1.356,2.737-2.744,4.142-4.075,1.337-1.266,2.961-2.485,4.856-2.212.583,3.76-3.094,7.267-5.222,9.938-2.668,3.353-5.312,6.729-8.011,10.058a1.02,1.02,0,0,0,.444,1.675.554.554,0,0,0,.353.047,1.089,1.089,0,0,0,.82-.475c.015-.02.031-.04.045-.06,1.085-.777,2.059-1.719,3.085-2.574q1.934-1.614,3.923-3.157c1.362-1.056,2.719-2.128,4.117-3.135.933-.67,3.019-2.049,3.939-.6C185.591,1271.908,183.744,1273.5,182.835,1274.332Z" transform="translate(-37.203 -452.094)"/><path class="a" d="M105.9,1997.534c-4.057,4.313-7.873,8.768-11.512,13.443-.312.4.223.973.572.573,3.92-4.479,7.587-9.093,11.07-13.916C106.082,1997.558,105.961,1997.467,105.9,1997.534Z" transform="translate(-62.173 -1065.035)"/><path class="a" d="M167.1,1742.491c3.085-3.418,6.265-6.734,9.313-10.188s6.066-6.935,9.105-10.4c6.024-6.861,12.188-13.6,18.23-20.443,3.454-3.912,7.147-7.66,10.427-11.72.7-.873-.456-2.114-1.262-1.263-3.161,3.345-6,7.011-9,10.5s-6.022,6.982-9,10.5q-8.868,10.46-17.913,20.76c-3.449,3.954-6.72,8.038-10.1,12.041C166.775,1742.425,166.976,1742.632,167.1,1742.491Z" transform="translate(-121.596 -811.743)"/><path class="a" d="M766.29,1278.823c-.234-1.257-.594-2.5-.88-3.735q-.7-3.038-1.464-6.059a1.236,1.236,0,0,0-.076-.215,51.8,51.8,0,0,0,2.3-6.481c.855-2.492,1.656-5,2.476-7.506,1.641-5.006,3.3-10.009,4.925-15.021.5-1.534.987-3.443.1-4.939a2.941,2.941,0,0,0-4.331-.65c-1.684,1.228-2.248,3.746-3.007,5.57q-1.546,3.714-3.162,7.4-2.111,4.808-4.237,9.614c.5-3.266.842-6.562,1.143-9.844a157.752,157.752,0,0,0,.891-17.931c-.045-1.862-.438-4.056-2.116-5.157-1.84-1.206-3.963-.369-5.343,1.1-1.71,1.826-1.788,4.57-2.139,6.906-.12.793-.232,1.587-.346,2.38a14.4,14.4,0,0,0-.5-5,2.6,2.6,0,0,0-3.126-1.822,3.688,3.688,0,0,0-2.411,3.405c-.254,2.215-.25,4.492-.391,6.72q-.2,3.209-.408,6.417c-.074-.495-.148-.989-.216-1.482-.168-1.242-.322-2.489-.5-3.729a13.9,13.9,0,0,0-.692-3.429c-.583-1.375-2.28-2.282-3.391-.868a3.346,3.346,0,0,0-.587,1.976c-.047,1.344.047,2.7.024,4.046-.2,10.953-.127,21.907-.069,32.861q.025,4.695.02,9.389,0,2.347-.005,4.695c0,.573-.047,1.177-.047,1.777-.081.77-.176,1.54-.264,2.309-.19,1.657-.393,3.314-.567,4.973-.026.243-.056.489-.083.737a5.172,5.172,0,0,0-3.872,1.57,6.771,6.771,0,0,0-.668.777,1.316,1.316,0,0,0-.674.5,13.19,13.19,0,0,0-1.893,5.419,9.71,9.71,0,0,0,.408,5,6.3,6.3,0,0,0,1.724,2.438,178.928,178.928,0,0,0-5.867,23.818,230.77,230.77,0,0,0-3.4,26.448q-.25,3.708-.386,7.426-.065,1.8-.1,3.6a11.864,11.864,0,0,0,.206,3.874,1.021,1.021,0,0,0,1.951,0,9.688,9.688,0,0,0,.29-2.972q.035-1.69.087-3.38.109-3.266.3-6.528.4-6.632,1.116-13.244a258.722,258.722,0,0,1,4.358-26.136c.859-3.994,1.866-7.949,2.844-11.914a17.909,17.909,0,0,0,5.18,1.768,41.192,41.192,0,0,0,12.282.721,22.84,22.84,0,0,0,7.013-1.4c-.694,3.769-1.081,7.624-1.42,11.424q-.619,6.952-.623,13.939a153.944,153.944,0,0,0,2.338,27.438q.687,3.815,1.563,7.593a36.6,36.6,0,0,0,2.119,7.555,1.241,1.241,0,0,0,2.3-.621,51.733,51.733,0,0,0-1.578-6.566q-.815-3.334-1.482-6.7c-.882-4.45-1.621-8.935-2.15-13.441a156.2,156.2,0,0,1-.792-27.2c.281-4.854.938-9.643,1.5-14.464a6.583,6.583,0,0,0,1.061-1.047,7.132,7.132,0,0,0-.016-8.841,1.008,1.008,0,0,0-.973-.257l-.13.025a16.123,16.123,0,0,1,2.78-7.457,15.673,15.673,0,0,1,2.567-2.947c1.034-.917,2.288-1.5,3.324-2.389a.5.5,0,0,0,.179-.5,48.436,48.436,0,0,0,7.229-5.774q1.907-1.837,3.642-3.847a6.775,6.775,0,0,0,2.063-4.008C782.575,1269.908,770.423,1276.314,766.29,1278.823Zm-8.212,34.124a18.086,18.086,0,0,1-5.932,1.264,35.948,35.948,0,0,1-6.227.011,33.968,33.968,0,0,1-6.249-1.085,11.734,11.734,0,0,1-4.673-2.054c-.058-.049-.112-.1-.167-.154a.673.673,0,0,0-.3-.315,5.69,5.69,0,0,1-1.3-4.028,10.729,10.729,0,0,1,.808-3.155,3.773,3.773,0,0,0,.605-1.313,4.294,4.294,0,0,1,.971-1.634,5.4,5.4,0,0,1,2.181-1.3,2.982,2.982,0,0,0,.482,1.223,2.9,2.9,0,0,0,1.076.98,1.176,1.176,0,0,0,.4.9c1.108,1.065,2.961,1.565,4.394,2.056a34.209,34.209,0,0,0,5.052,1.311,35.227,35.227,0,0,0,4.932.538,14.909,14.909,0,0,0,4.579-.308c.523.009,1.049-.02,1.572-.052A5.064,5.064,0,0,1,758.078,1312.947Zm22-34.443a21.438,21.438,0,0,1-2.858,3.264c-.991,1.025-2.021,2.012-3.077,2.972a80.437,80.437,0,0,1-7.183,5.707.688.688,0,0,0-.275.4,18.892,18.892,0,0,0-2.018,1.51,18.186,18.186,0,0,0-3.009,3.146,17.886,17.886,0,0,0-3.3,8.141c-1.194-.118-2.407-.056-3.6-.1a33.422,33.422,0,0,1-4.821-.554,34.277,34.277,0,0,1-4.447-1.154c-.726-.241-1.447-.505-2.155-.8a10.247,10.247,0,0,0-2.318-.911,1.472,1.472,0,0,0-.482.015,2.844,2.844,0,0,1-.431-2.364c.114-1.253.275-2.507.4-3.758q.122-1.187.243-2.376c0-.005.009-.009.013-.014a4.935,4.935,0,0,0,.478-3.008q-.035-1.878-.073-3.755c-.045-2.347-.1-4.695-.136-7.042-.076-4.773-.127-9.545-.19-14.318-.063-4.85-.179-9.7-.275-14.553-.047-2.349-.134-4.695-.221-7.042-.023-.656-.455-6.526.431-6.341.621.129.71,2.827.773,3.257.194,1.313.426,2.623.643,3.932a67.7,67.7,0,0,0,1.476,8.053.63.63,0,0,0,.067.151q-.28,4.119-.572,8.234c-.105,1.48,2.268,1.5,2.318,0,.261-7.68.58-15.357.9-23.035a32.606,32.606,0,0,1,.348-5.436c.147-.677.668-1.869,1.552-1.42.522.264.652,1.2.717,1.7.42,3.269-.069,6.707.417,9.974a.585.585,0,0,0-.056.281c.056,1.512.08,3.025.1,4.537a.657.657,0,0,0,.009.087q-.323,2.5-.648,5.006c-.457,3.525-.784,7.1-1.422,10.6a1.126,1.126,0,1,0,2.222.3c.37-5.417,1.253-10.84,1.9-16.231q.476-3.942.949-7.883c.321-2.668.4-5.4.86-8.047a7.156,7.156,0,0,1,1.119-3.1,2.567,2.567,0,0,1,2.9-.938c1.63.761,1.32,3.534,1.3,4.975-.071,5.4-.328,10.786-.712,16.167-.362,5.082-.951,10.152-1.262,15.238q-.359.823-.719,1.646c-.534,1.23,1.29,2.293,1.811,1.058,3.572-8.453,6.939-17,10.717-25.368a15.442,15.442,0,0,1,1.4-2.831c.485-.663,1.7-1.454,2.17-.346.638,1.511-.636,3.974-1.081,5.376q-2.073,6.534-4.146,13.066c-.773,2.436-1.567,4.867-2.3,7.312a57.186,57.186,0,0,0-1.853,6.325,1.135,1.135,0,0,0-1.016,1.456q.88,2.991,1.822,5.961c.446,1.413.81,2.889,1.375,4.267-.728,1.129.516,2.9,1.84,2.009a50.183,50.183,0,0,1,7.79-4.352,21.794,21.794,0,0,1,3.956-1.456,1.851,1.851,0,0,1,1.793.241C780.885,1276.961,780.492,1277.845,780.081,1278.5Z" transform="translate(-577.032 -431.047)"/><path class="a" d="M1026.467,1082.813c-2.293-2.072-6.109-1.688-8.663-.321-.875.469-.531,2.1.534,1.971,1.882-.226,3.99-1.244,5.838-.328,1.621.8,2.03,2.916,1.583,4.525-1.049,3.776-5.457,6.122-9.042,6.789a13.1,13.1,0,0,1-1.5.19,9.643,9.643,0,0,0-2.132-5.993c-1.465-1.726-4.046-2.628-6.068-1.259-1.949,1.32-1.867,4.119-.554,5.848,1.572,2.072,4.4,2.84,6.868,3.11.069.007.138.013.206.018a9.308,9.308,0,0,1-9.127,7.176c-.31,0-.4.5-.076.56a9.294,9.294,0,0,0,10.746-7.671c4.834-.036,10.083-2.3,12.36-6.687C1028.755,1088.217,1028.706,1084.839,1026.467,1082.813Zm-15.763,12.328c-1.819-.553-3.967-1.925-3.621-4.132.409-2.6,3.592-1.855,4.86-.46a7.419,7.419,0,0,1,1.777,5.108A12.329,12.329,0,0,1,1010.7,1095.141Z" transform="translate(-807.219 -314.824)"/><path class="a" d="M1788.137,1298.785q-3.923-6.4-7.844-12.809l-7.837-12.813q-1.959-3.2-3.927-6.4a45.9,45.9,0,0,0-3.986-6.093.841.841,0,0,0-1-.179,1.078,1.078,0,0,0-.272-.069,6.807,6.807,0,0,0-2.26.261l-.444-1.226q.041-.769.083-1.538a.9.9,0,0,0-1.17-.837.772.772,0,0,0-.371-.065,1.05,1.05,0,0,0-.364-.444,1.872,1.872,0,0,0-.625-.266,15.678,15.678,0,0,1-.355-2.641c-.074.026-.149.049-.223.073a26.092,26.092,0,0,0,.349-2.835c.174-1.558.4-3.11.6-4.664q.563-4.306,1.127-8.61,1.136-8.675,2.3-17.348l1.739-12.918a27.329,27.329,0,0,0,.379-3.409c.013-1.722-.549-3.742-2.414-4.26-2.1-.583-3.92,1.148-4.573,2.987a19.027,19.027,0,0,0-.708,4.226c-.042.362-.081.723-.123,1.085a61.31,61.31,0,0,0-1.168-12.041c-.357-1.594-1.368-3.247-3.155-3.407a2.877,2.877,0,0,0-2.938,2.215,16.491,16.491,0,0,0-.333,5.055q-.1-1.19-.188-2.378a72.858,72.858,0,0,0-.65-7.439c-.364-1.974-1.7-4.012-3.894-4.139a3.455,3.455,0,0,0-3.434,3.075c-.458,2.266-.09,4.749-.016,7.04q.131,3.951.259,7.9.136,4.154.273,8.31c-.061-.478-.125-.955-.19-1.433-.288-2.076-.656-4.141-1.071-6.195a42.1,42.1,0,0,0-1.371-5.81,5.226,5.226,0,0,0-3.157-3.474,3.472,3.472,0,0,0-3.862,1.358c-1.09,1.473-1.034,3.347-.936,5.089q.179,3.233.364,6.466.369,6.569.742,13.141a0,0,0,0,0,0,0c-1.286.657-1.737,2.442-2.277,3.686-.574,1.321-1.123,2.654-1.6,4.014a28.006,28.006,0,0,0-1.761,8.852,18.9,18.9,0,0,0,1.621,7.819,16.78,16.78,0,0,0,1.969,3.387c.244.326.516.726.826,1.1a.878.878,0,0,0-.022.138,8.042,8.042,0,0,0,.708,2.858c.3.964.61,1.927.929,2.885.534,1.606,1.074,3.209,1.634,4.807-.167.043-.333.089-.5.13a1.283,1.283,0,0,0,.712.471c.04.11.078.223.118.333.013.036.027.071.042.1-.141.06-.283.12-.424.181-.018-.023-.034-.047-.054-.069a.882.882,0,0,0-1.492.618c.005.043.014.085.02.127l-.188.083c-.657.3-.177,1.46.5,1.177l.018-.007c.152.431.33.853.5,1.277.359.886.681,1.8,1.108,2.65a.971.971,0,0,0,.859.547,1.955,1.955,0,0,0,.154.473.354.354,0,0,0,.062.089l-.065.029a.976.976,0,0,0-1.25,1.157c.982,3.134,2.338,6.148,3.613,9.172,1.3,3.077,2.619,6.146,4.008,9.183q4.072,8.9,8.507,17.636,8.99,17.635,19.34,34.531,2.842,4.638,5.781,9.212c2.016,3.137,3.958,6.4,6.262,9.331,1.007,1.281,2.981-.357,2.21-1.706-1.65-2.884-3.652-5.593-5.457-8.382q-2.6-4.018-5.126-8.084-5.165-8.316-10-16.826-9.675-17.016-18.049-34.729-2.331-4.906-4.606-9.84c-1.474-3.2-2.809-6.483-4.418-9.616a119.775,119.775,0,0,1,13.592-4.488q2.573-.709,5.182-1.284a.793.793,0,0,0,.891-.192c.259-.056.518-.11.779-.165a1.391,1.391,0,0,0,.79.717.926.926,0,0,0,.621,0,1.2,1.2,0,0,0,.859-1.126.2.2,0,0,1,0-.031c.576-.1,1.154-.2,1.734-.277a17.963,17.963,0,0,0,3.38-.545c.862,1.8,2,3.5,3,5.195q1.91,3.233,3.831,6.457l7.678,12.907q3.839,6.452,7.669,12.91c2.547,4.289,4.972,8.721,7.741,12.869a1.427,1.427,0,0,0,2.461-1.44C1793.533,1307.25,1790.744,1303.037,1788.137,1298.785Zm-45.6-36.388c-.355.19-.706.384-1.056.585.029-.223.058-.446.085-.669.272-.074.545-.147.817-.217a1.019,1.019,0,0,0,.172.192C1742.549,1262.326,1742.541,1262.363,1742.536,1262.4Zm14.077-16.415c-.2,1.433-.382,2.871-.6,4.3a17.122,17.122,0,0,0-.455,4.059c-.157.045-.315.091-.473.134q.051.894.188,1.791a.808.808,0,0,0-.58.254c-.907.087-1.815.185-2.719.3-.62.081-1.235.174-1.853.273a.716.716,0,0,0-.938.156c-.656.114-1.309.234-1.962.364a.754.754,0,0,0-1.143.241c-.344.076-.69.149-1.034.228a62.88,62.88,0,0,0-9.3,3.045,5.77,5.77,0,0,0-.17-.831l-.13.038c-.467-1.684-.954-3.364-1.447-5.041-.284-.969-.585-1.933-.886-2.9-.185-.592-.324-1.208-.553-1.78-.136-.989-1.168-1.911-1.673-2.715a19.291,19.291,0,0,1-1.609-3.125,17.864,17.864,0,0,1-1.224-7.393,27.153,27.153,0,0,1,1.775-8.093c.464-1.284.987-2.547,1.538-3.795.069-.154.143-.31.219-.467,0,.082-.005.161-.007.243-.045,1.871-.045,3.742-.054,5.615s-.013,3.744-.006,5.615q.005,1.448.011,2.9a3.238,3.238,0,0,0,.489,2.326.731.731,0,0,0,1.031,0,3.228,3.228,0,0,0,.474-2.326q-.005-1.448-.011-2.9-.011-2.9-.051-5.8c-.024-1.932-.045-3.863-.107-5.8-.016-.5-.043-1.005-.074-1.507a.839.839,0,0,0,.23-.67q-.326-5.569-.668-11.135c-.225-3.722-.607-7.472-.659-11.2-.018-1.253.283-3.467,1.974-3.492s2.456,1.963,2.825,3.289a105.418,105.418,0,0,1,2.192,10.456q.527,3.084.891,6.193c.23,1.967.167,4.131.788,6.021.114.344.668.4.761.009a.955.955,0,0,0,1.612-.685q-.492-14.549-.982-29.1c-.047-1.38-.536-4.03.674-5.093a1.6,1.6,0,0,1,2.154.317,5.02,5.02,0,0,1,1.121,3.108c.556,4.749.907,9.531,1.353,14.292q.386,4.146.792,8.288.071.714.132,1.432-.014,1.293-.029,2.587a18.516,18.516,0,0,0,.11,3.844.81.81,0,0,0,1.054.561.533.533,0,0,0,.625-.495c0-.129,0-.259-.005-.388a32.354,32.354,0,0,0,.123-5.332q.019-2.9.045-5.792.046-5.885.094-11.767c.009-1.125-.283-3.1.572-4.03a1.047,1.047,0,0,1,1.527.108,4.341,4.341,0,0,1,.978,2.416,75.545,75.545,0,0,1,1.3,11.344q.128,3.176.011,6.357c-.08,2.168-.4,4.342-.41,6.51a.441.441,0,0,0,.476.435.5.5,0,0,0,.937-.065c1.076-5.115,1.615-10.366,2.282-15.548a13.263,13.263,0,0,1,.571-3.046c.35-.917,1.29-2.09,2.429-1.766,1.677.478,1.094,3.429.933,4.622q-2.124,15.693-4.284,31.383Q1757.21,1241.681,1756.613,1245.982Z" transform="translate(-1398.216 -400.386)"/><path class="a" d="M1224.357,1345.124q-.647-9.966-1.061-19.945-.837-20.045-.768-40.115c.013-3.778.036-7.557.09-11.335s.29-7.569.1-11.333a.657.657,0,0,0-.817-.65.685.685,0,0,0-.467-.286,15.842,15.842,0,0,0-2.1-.125.88.88,0,0,0,.063-.4c-.069-1.259-.237-2.51-.409-3.758,0-.125,0-.252,0-.377a1,1,0,0,0-.978-.978q-.486-.052-.974-.087c-.426-4.923,1.255-9.649,3.15-14.122.931-2.2,1.909-4.378,2.731-6.622a32.078,32.078,0,0,0,1.043-3.282q.217-.875.382-1.762a6.648,6.648,0,0,0,.092-1.067.935.935,0,0,0,.168-.545c-.275-7.154-.451-14.312-.687-21.467-.038-1.148.076-2.614-.734-3.554a1.793,1.793,0,0,0-2.619-.154,4.735,4.735,0,0,0-1.072,3.134c-.094-1.556.011-3.38-.605-4.814a2.541,2.541,0,0,0-2.862-1.656,2.331,2.331,0,0,0-1.518,1.469,21.154,21.154,0,0,0-.393-3.161c-.391-1.835-1.657-3.67-3.672-3.862a3.474,3.474,0,0,0-3.537,2.6c-.659,1.873-.426,4.023-.389,5.964.047,2.53.112,5.06.168,7.591q.081,3.668.217,7.33-.193-1.089-.379-2.177-.6-3.543-1.19-7.089c-.384-2.286-.643-4.637-1.174-6.892-.375-1.587-1.465-3.182-3.287-3.063s-2.317,2-2.2,3.527c.35,4.733,1.023,9.462,1.56,14.176.3,2.621.616,5.24.929,7.861a55.339,55.339,0,0,0,1.032,6.87.93.93,0,0,0-.215.172,35.238,35.238,0,0,0-3.445,4.325,24.727,24.727,0,0,0-2.23,3.74q-3.5-2.576-7-5.157c-1.9-1.407-4.342-2.619-6.435-.853a.843.843,0,0,0-.225.851,38.218,38.218,0,0,0,13.242,16.932,9.584,9.584,0,0,0,.181,1.809l.332,3.173q.157,1.5.322,3a15.982,15.982,0,0,1,.228,3.173.554.554,0,0,0,.027.223,8.631,8.631,0,0,0-.927,1.683,8.159,8.159,0,0,0-.478,4.937,5.426,5.426,0,0,0-1.619,1.3.542.542,0,0,0-.674.447c-.857,6.133-1.188,12.369-1.719,18.538q-.807,9.365-1.614,18.728c-1.088,12.481-2.1,24.97-3.108,37.458q-.856,10.626-1.712,21.25c-.109,1.344,1.987,1.337,2.094,0q1.5-18.638,3-37.277c1.005-12.482,1.9-24.972,2.838-37.459q.391-5.222.781-10.445c.236-3.217.545-6.442.656-9.668a8.653,8.653,0,0,0,3.057-1.563q1.478-.891,3.017-1.683a49.416,49.416,0,0,1,6.832-2.885,54.01,54.01,0,0,1,6.977-1.849c2.293-.444,4.642-.672,6.924-1.143-.342,3.226-.33,6.5-.409,9.741q-.125,5.037-.19,10.076-.13,9.985.005,19.973.247,20.059,1.413,40.094c.438,7.536.839,15.1,1.586,22.611.138,1.391,2.311,1.431,2.208,0C1225.427,1358.518,1224.791,1351.829,1224.357,1345.124Zm-27.663-94.891a.378.378,0,0,0-.484-.04,47.378,47.378,0,0,1-11.646-16.039c1.737-.743,4.077,1.538,5.292,2.444q3,2.233,5.992,4.472a.7.7,0,0,0,.714.119.62.62,0,0,0,.359-.1,1.2,1.2,0,0,1,.252-.143.443.443,0,0,0,.21-.426c.371-.6.665-1.253,1.018-1.858q.674-1.149,1.438-2.239a32.49,32.49,0,0,1,3.369-4.036.832.832,0,0,0,.063-1.121,39.672,39.672,0,0,0-.283-5.734q-.291-3.037-.59-6.073-.609-6.257-1.288-12.505-.166-1.518-.333-3.037a11.17,11.17,0,0,1-.21-2.838c.121-.752.732-.907,1.29-.39a4.553,4.553,0,0,1,.857,2.59q1.051,6.2,2.092,12.4c.792,4.713,1.411,9.5,2.407,14.171.192.9,1.757.721,1.639-.223-.15-1.21-.326-2.418-.518-3.626.109-1.869.034-3.776.058-5.637.029-2.23.076-4.458.065-6.687-.022-4.457-.04-8.917-.085-13.374-.013-1.185-.058-3.123,1.027-3.918a1.59,1.59,0,0,1,2.025.3,4.418,4.418,0,0,1,1.107,2.922c.424,4.38.534,8.812.8,13.2q.451,7.572.9,15.146c.071,1.187,1.927,1.194,1.853,0q-.4-6.4-.791-12.793a.61.61,0,0,0,.232-.495c.02-2.1.029-4.2.056-6.307.04-1.181.038-2.365.065-3.539a.6.6,0,0,0-.057-.283c-.005-.243-.016-.48-.029-.7-.04-.728-.078-2.911,1.2-2.628,1.4.31,1.186,3.173,1.271,4.227.129,1.608.245,3.217.362,4.825q.348,4.735.7,9.473.174,2.323.346,4.647c.063.844.1,1.659.089,2.5-.005.69-.013,1.194.625,1.585a.611.611,0,0,0,.721-.092c.674-.578.344-1.291.228-2.059-.15-.993-.187-2.009-.266-3.008q-.225-2.861-.451-5.72-.22-2.782-.445-5.566a.4.4,0,0,0,.152-.252c.266-1.328.484-2.655.663-4,.094-.706.167-1.422.283-2.126a2.447,2.447,0,0,1,.449-1.277c.9-.865.835,1.911.842,2.311q.035,2.165.069,4.329c.091,5.772.235,11.545.3,17.317a.962.962,0,0,0,.437.8c-.083.248-.167.5-.236.748q-.217.79-.476,1.567c-.38,1.145-.786,2.28-1.239,3.4-.944,2.327-2.034,4.595-3.03,6.9-1.9,4.389-3.517,9.056-3.206,13.9a27.918,27.918,0,0,0-15.622,4.579.5.5,0,0,0-.187.214,5.278,5.278,0,0,0-.859.542c-.125-.726-.169-1.478-.252-2.2q-.182-1.587-.373-3.173-.179-1.5-.36-3C1197.19,1251.825,1197.3,1250.814,1196.693,1250.233Zm17.294,11.654a49.442,49.442,0,0,0-7.3,1.858,53.5,53.5,0,0,0-6.91,2.893c-.978.493-1.94,1.02-2.885,1.574a4.852,4.852,0,0,1-.152-1.1,7.322,7.322,0,0,1,.44-2.509,6.867,6.867,0,0,1,.936-1.739.108.108,0,0,1,.016-.013l.161-.152a.757.757,0,0,0,.187-.3,10.69,10.69,0,0,1,1.378-1.349,30.58,30.58,0,0,1,17.142-3.4v.018a.866.866,0,0,0,.542.871c-.005.8,0,1.6.054,2.394a.911.911,0,0,0,.149.458A37.007,37.007,0,0,0,1213.987,1261.887Z" transform="translate(-953.36 -407.271)"/><path class="a" d="M1351.127,1051.5a4.973,4.973,0,0,0,.846.5,6.333,6.333,0,0,0-1.728,5.394c.065.449.746.257.683-.188a5.447,5.447,0,0,1,1.862-4.906,5.245,5.245,0,0,0,5.039-1.237.575.575,0,0,0-.4-.969,6.633,6.633,0,0,0-4.193.906,3.657,3.657,0,0,1-1.1-.547,3.937,3.937,0,0,1-1.118-4.789c.466-.953-.985-1.782-1.418-.828A5.488,5.488,0,0,0,1351.127,1051.5Z" transform="translate(-1089.685 -284.568)"/><path class="a" d="M1612.353,1075.908a14.082,14.082,0,0,1-7.241-5.186,4.969,4.969,0,0,0-.292-.462c-.571-.8-1.9-.029-1.326.775,1.587,2.648-.237,5.617-2.954,6.475-3.09.978-6.234-.257-8.968-1.677-1.079-.562-2.025,1.031-.958,1.639a37.679,37.679,0,0,1,8.91,6.7c1.139,1.221,1.8,2.737.5,4.111-1.25,1.317-3.186,1.4-4.876,1.576a1.091,1.091,0,0,0-.761,1.837,4.5,4.5,0,0,0,.962.75.933.933,0,0,0,1.317-.583,8.158,8.158,0,0,0,4.543-1.817,4.475,4.475,0,0,0,1.014-5.474c-.971-1.927-2.965-3.4-4.617-4.715-.114-.091-.23-.177-.344-.266a9.085,9.085,0,0,0,4.7-.812,6.74,6.74,0,0,0,3.72-5.164,12.919,12.919,0,0,0,6.312,3.577A.666.666,0,0,0,1612.353,1075.908Z" transform="translate(-1287.093 -305.457)"/></g><g class="g" transform="matrix(1, 0, 0, 1, -8.65, 2686.62)"><path class="b" d="M82.109,123.313c-1.038,1.712-2.985.3-2.621-1.894L84.826,89.6c.674-4.023-1.477-7.875-4.4-7.875L16.2,80.579A16.252,16.252,0,0,1,0,64.369V16.2A16.259,16.259,0,0,1,16.21,0h86.175a16.261,16.261,0,0,1,16.21,16.21V56.291c0,3.948-1.134,19.612-12.765,36.079C92.145,111.768,82.109,123.313,82.109,123.313Z" transform="translate(40.65 51.27)"/></g><g class="f" transform="matrix(1, 0, 0, 1, -8.65, 2686.62)"><path class="c" d="M23.039,77.865c.655,1.081,1.885.189,1.655-1.2L21.322,56.576c-.426-2.54.932-4.973,2.777-4.973l40.557-.723A10.262,10.262,0,0,0,74.885,40.645V10.229A10.266,10.266,0,0,0,64.65,0H10.236A10.268,10.268,0,0,0,0,10.236V35.544c0,2.493.716,12.384,8.06,22.782C16.7,70.575,23.039,77.865,23.039,77.865Z" transform="translate(276.65 4)"/></g><g class="e" transform="matrix(1, 0, 0, 1, -8.65, 2686.62)"><path class="d" d="M38.373,57.629c-.485.8-1.4.14-1.225-.885l2.5-14.871c.315-1.88-.69-3.68-2.055-3.68L7.571,37.658A7.6,7.6,0,0,1,0,30.082V7.571A7.6,7.6,0,0,1,7.576,0H47.849a7.6,7.6,0,0,1,7.576,7.576V26.307a31.15,31.15,0,0,1-5.965,16.861C43.063,52.234,38.373,57.629,38.373,57.629Z" transform="translate(205.65 92.36)"/></g></g></svg>