<svg xmlns="http://www.w3.org/2000/svg" viewBox="0 0 251.15 58.8"><defs><style>.cls-1{fill:#1e1d70;}</style></defs><g id="Layer_2" data-name="Layer 2"><g id="Layer_1-2" data-name="Layer 1"><path class="cls-1" d="M27.91,55.49A26.1,26.1,0,1,1,54,29.4,26.12,26.12,0,0,1,27.91,55.49Zm0-54A27.91,27.91,0,1,0,55.81,29.4,27.94,27.94,0,0,0,27.91,1.49Z"/><polygon class="cls-1" points="17.53 43.49 41.95 29.4 17.53 15.3 17.53 43.49"/><path class="cls-1" d="M249.61,23.36a1.54,1.54,0,0,1,1.54,1.53v9a1.54,1.54,0,1,1-3.07,0v-9A1.54,1.54,0,0,1,249.61,23.36Z"/><path class="cls-1" d="M243.22,20.16a1.55,1.55,0,0,1,1.54,1.54V37.1a1.54,1.54,0,0,1-3.07,0V21.7A1.54,1.54,0,0,1,243.22,20.16Z"/><path class="cls-1" d="M236.83,12.49A1.54,1.54,0,0,1,238.37,14V44.77a1.54,1.54,0,0,1-3.07,0V14A1.54,1.54,0,0,1,236.83,12.49Z"/><path class="cls-1" d="M217.66,21.38a1.54,1.54,0,0,0-1.54,1.53v13a1.54,1.54,0,1,0,3.07,0v-13A1.54,1.54,0,0,0,217.66,21.38Z"/><path class="cls-1" d="M224.43,25.21a1.54,1.54,0,0,0-1.53,1.54v5.3a1.54,1.54,0,1,0,3.07,0v-5.3A1.54,1.54,0,0,0,224.43,25.21Z"/><path class="cls-1" d="M172.92,13a1.54,1.54,0,0,0-1.53,1.53V44.26a1.54,1.54,0,0,0,3.07,0V14.54A1.54,1.54,0,0,0,172.92,13Z"/><path class="cls-1" d="M179.32,20.32a1.54,1.54,0,0,0-1.54,1.54V36.94a1.54,1.54,0,1,0,3.07,0V21.86A1.54,1.54,0,0,0,179.32,20.32Z"/><path class="cls-1" d="M185.71,23.3a1.54,1.54,0,0,0-1.54,1.53V34a1.54,1.54,0,0,0,3.07,0V24.83A1.53,1.53,0,0,0,185.71,23.3Z"/><path class="cls-1" d="M192.09,18.63a1.54,1.54,0,0,0-1.53,1.53V38.63a1.54,1.54,0,1,0,3.07,0V20.16A1.54,1.54,0,0,0,192.09,18.63Z"/><path class="cls-1" d="M198.49,13.07A1.54,1.54,0,0,0,197,14.61V44.2a1.54,1.54,0,0,0,3.07,0V14.61A1.54,1.54,0,0,0,198.49,13.07Z"/><path class="cls-1" d="M204.88,20.71a1.54,1.54,0,0,0-1.54,1.53V36.56a1.54,1.54,0,0,0,3.07,0V22.24A1.54,1.54,0,0,0,204.88,20.71Z"/><path class="cls-1" d="M211.27,8.6a1.54,1.54,0,0,0-1.53,1.53V48.67a1.54,1.54,0,0,0,3.07,0V10.13A1.55,1.55,0,0,0,211.27,8.6Z"/><path class="cls-1" d="M166.54,0a1.54,1.54,0,0,1,1.53,1.54V57.26a1.54,1.54,0,1,1-3.07,0V1.54A1.54,1.54,0,0,1,166.54,0Z"/><path class="cls-1" d="M160.14,8.6a1.54,1.54,0,0,1,1.54,1.53V48.67a1.54,1.54,0,0,1-3.07,0V10.13A1.53,1.53,0,0,1,160.14,8.6Z"/><path class="cls-1" d="M153.75,12.4a1.54,1.54,0,0,1,1.54,1.53V44.87a1.54,1.54,0,0,1-3.07,0V13.93A1.54,1.54,0,0,1,153.75,12.4Z"/><path class="cls-1" d="M147.36,16.81a1.55,1.55,0,0,1,1.54,1.53V40.45a1.54,1.54,0,1,1-3.07,0V18.34A1.54,1.54,0,0,1,147.36,16.81Z"/><path class="cls-1" d="M141,20.48A1.54,1.54,0,0,1,142.51,22V36.78a1.54,1.54,0,1,1-3.07,0V22A1.54,1.54,0,0,1,141,20.48Z"/><path class="cls-1" d="M134.58,23.9a1.55,1.55,0,0,1,1.54,1.54v7.92a1.54,1.54,0,1,1-3.07,0V25.43A1.54,1.54,0,0,1,134.58,23.9Z"/><path class="cls-1" d="M128.19,20a1.54,1.54,0,0,1,1.53,1.54V37.29a1.54,1.54,0,1,1-3.07,0V21.51A1.55,1.55,0,0,1,128.19,20Z"/><path class="cls-1" d="M121.8,12.37a1.54,1.54,0,0,1,1.53,1.53v31a1.54,1.54,0,0,1-3.07,0v-31A1.55,1.55,0,0,1,121.8,12.37Z"/><path class="cls-1" d="M77.06,20.13a1.54,1.54,0,0,0-1.53,1.54V37.13a1.54,1.54,0,1,0,3.07,0V21.66A1.54,1.54,0,0,0,77.06,20.13Z"/><path class="cls-1" d="M83.46,22a1.54,1.54,0,0,0-1.54,1.53v11.7a1.54,1.54,0,0,0,3.07,0V23.55A1.54,1.54,0,0,0,83.46,22Z"/><path class="cls-1" d="M89.85,24.09a1.54,1.54,0,0,0-1.54,1.54v7.54a1.54,1.54,0,0,0,3.07,0V25.63A1.54,1.54,0,0,0,89.85,24.09Z"/><path class="cls-1" d="M115.41,26.22A1.55,1.55,0,0,1,117,27.75v3.3a1.54,1.54,0,0,1-3.07,0v-3.3A1.54,1.54,0,0,1,115.41,26.22Z"/><path class="cls-1" d="M230.44,26.22a1.54,1.54,0,0,0-1.53,1.53v3.3a1.54,1.54,0,0,0,3.07,0v-3.3A1.54,1.54,0,0,0,230.44,26.22Z"/><path class="cls-1" d="M109,26.22a1.54,1.54,0,0,1,1.53,1.53v3.3a1.54,1.54,0,0,1-3.07,0v-3.3A1.54,1.54,0,0,1,109,26.22Z"/><path class="cls-1" d="M70.67,26.22a1.54,1.54,0,0,1,1.54,1.53v3.3a1.54,1.54,0,0,1-3.07,0v-3.3A1.54,1.54,0,0,1,70.67,26.22Z"/><path class="cls-1" d="M64.28,26.22a1.54,1.54,0,0,1,1.54,1.53v3.3a1.54,1.54,0,0,1-3.07,0v-3.3A1.54,1.54,0,0,1,64.28,26.22Z"/><path class="cls-1" d="M102.63,26.22a1.54,1.54,0,0,1,1.53,1.53v3.3a1.54,1.54,0,0,1-3.07,0v-3.3A1.54,1.54,0,0,1,102.63,26.22Z"/><path class="cls-1" d="M96.23,26.22a1.54,1.54,0,0,1,1.54,1.53v3.3a1.54,1.54,0,0,1-3.07,0v-3.3A1.54,1.54,0,0,1,96.23,26.22Z"/></g></g></svg>