<svg xmlns="http://www.w3.org/2000/svg" viewBox="0 0 168.62 136.82"><defs><style>.cls-1{fill:#242371;}</style></defs><g id="Layer_2" data-name="Layer 2"><g id="Layer_1-2" data-name="Layer 1"><path class="cls-1" d="M7.31,45.5A3.66,3.66,0,0,0,0,45.5V91.32a3.66,3.66,0,1,0,7.31,0Zm16.12,9.75a3.66,3.66,0,1,0-7.31,0V81.58a3.66,3.66,0,1,0,7.31,0Zm16.14-30a3.66,3.66,0,0,0-7.31,0v86.22a3.66,3.66,0,1,0,7.31,0ZM55.69,3.65a3.66,3.66,0,0,0-7.31,0V133.16a3.66,3.66,0,1,0,7.31,0ZM71.83,33.23a3.66,3.66,0,0,0-7.31,0v70.35a3.66,3.66,0,1,0,7.31,0ZM88,52a3.65,3.65,0,1,0-7.3,0V84.83a3.65,3.65,0,0,0,7.3,0Zm16.13-23.8a3.66,3.66,0,1,0-7.31,0v80.45a3.66,3.66,0,1,0,7.31,0Zm16.13,31a3.65,3.65,0,1,0-7.3,0V77.6a3.65,3.65,0,0,0,7.3,0Zm16.14-26.68a3.66,3.66,0,1,0-7.31,0v71.79a3.66,3.66,0,0,0,7.31,0Zm16.13-11.2a3.66,3.66,0,0,0-7.31,0v94.16a3.66,3.66,0,1,0,7.31,0ZM168.62,45.5a3.66,3.66,0,0,0-7.31,0V91.32a3.66,3.66,0,1,0,7.31,0Z"/></g></g></svg>