<svg xmlns="http://www.w3.org/2000/svg" viewBox="0 0 84.8 125.54"><defs><style>.cls-1{fill:#1e1d70;}</style></defs><g id="Layer_2" data-name="Layer 2"><g id="Layer_1-2" data-name="Layer 1"><path class="cls-1" d="M42.4,80.3A25.38,25.38,0,0,0,67.75,55V25.58a25.35,25.35,0,1,0-50.7-.45V55A25.39,25.39,0,0,0,42.4,80.3Z"/><path class="cls-1" d="M80.24,40.26a4.57,4.57,0,0,0-4.57,4.57v9.8a33.27,33.27,0,0,1-66.54.73V44.83a4.57,4.57,0,0,0-9.13,0v9.75A42.93,42.93,0,0,0,37.83,97.09v19.32H23.7A4.58,4.58,0,0,0,19.13,121h0a4.57,4.57,0,0,0,4.57,4.56H61.1A4.57,4.57,0,0,0,65.67,121h0a4.58,4.58,0,0,0-4.57-4.57H47V97.1A42.47,42.47,0,0,0,84.8,54.94V44.83A4.57,4.57,0,0,0,80.24,40.26Z"/></g></g></svg>