<svg xmlns="http://www.w3.org/2000/svg" xmlns:xlink="http://www.w3.org/1999/xlink" width="204" height="204" viewBox="0 0 204 204"><defs><style>.a{fill:#fff;stroke:#1e1d70;stroke-width:8px;}.b{fill:#1e1d70;}.c{stroke:none;}.d{fill:none;}.e{filter:url(#a);}</style><filter id="a" x="0" y="0" width="204" height="204" filterUnits="userSpaceOnUse"><feOffset dy="2" input="SourceAlpha"/><feGaussianBlur stdDeviation="2" result="b"/><feFlood flood-opacity="0.161"/><feComposite operator="in" in2="b"/><feComposite in="SourceGraphic"/></filter></defs><g transform="translate(6 4)"><g class="e" transform="matrix(1, 0, 0, 1, -6, -4)"><g class="a" transform="translate(6 4)"><circle class="c" cx="96" cy="96" r="96"/><circle class="d" cx="96" cy="96" r="92"/></g></g><g transform="translate(52.935 32.38)"><g transform="translate(0)"><path class="b" d="M79.781,80.075a25.38,25.38,0,0,0,25.351-25.351V25.351a25.351,25.351,0,1,0-50.7,0v29.37A25.38,25.38,0,0,0,79.781,80.075Z" transform="translate(-37.38)"/><path class="b" d="M80.235,127.82a4.568,4.568,0,0,0-4.567,4.567v9.8a33.269,33.269,0,1,1-66.536.323V132.39A4.566,4.566,0,0,0,0,132.384v9.751a42.939,42.939,0,0,0,37.834,42.514v19.318H23.7a4.568,4.568,0,0,0-4.567,4.567h0A4.568,4.568,0,0,0,23.7,213.1H61.1a4.568,4.568,0,0,0,4.567-4.567h0a4.568,4.568,0,0,0-4.567-4.567H46.968V184.655A42.458,42.458,0,0,0,84.8,142.5V132.384A4.565,4.565,0,0,0,80.235,127.82Z" transform="translate(0 -87.781)"/></g></g></g></svg>