<svg xmlns="http://www.w3.org/2000/svg" viewBox="0 0 74.25 85.04"><defs><style>.cls-1{fill:#fff;}</style></defs><g id="Layer_2" data-name="Layer 2"><g id="Layer_1-2" data-name="Layer 1"><path class="cls-1" d="M11,12c-1.29,3.16-2.56,5.27-3.81,6.31a4,4,0,0,1-4.35.55A4.07,4.07,0,0,1,0,15.17c-.14-1.69.53-4.32,2-7.89Q4,2.5,5.82.94A4,4,0,0,1,10.21.41a4.12,4.12,0,0,1,2.71,2.91,8.07,8.07,0,0,1-.16,3.36A33.06,33.06,0,0,1,11,12Zm-2.63-.78a30.85,30.85,0,0,0,2.1-6.34A1.87,1.87,0,0,0,7.08,3.31,26.49,26.49,0,0,0,4.34,8.83a24.52,24.52,0,0,0-1.79,5.63,1.87,1.87,0,0,0,1.11,2.13,1.83,1.83,0,0,0,2.22-.66A19.49,19.49,0,0,0,8.35,11.18Z"/><path class="cls-1" d="M15.25,9.93,17.37,11l-.74,1.44a4.59,4.59,0,0,1,1.74-.72,3.08,3.08,0,0,1,1.63.31l-1.15,2.22c-.14-.1-.26-.17-.36-.23a2.26,2.26,0,0,0-1.94-.25A3.64,3.64,0,0,0,15,15.57l-3.62,7-2.12-1.1Z"/><path class="cls-1" d="M26.32,16.22l2,1.28L21.25,28.84a8.17,8.17,0,0,1-2.17,2.57q-1.65,1-3.89-.43A3.44,3.44,0,0,1,14,25.88l.22-.33,2,1.23c-.73,1.16-.66,2,.21,2.57a1.21,1.21,0,0,0,1.24.16A4.27,4.27,0,0,0,19,28l1.32-2.12a2.5,2.5,0,0,1-2.93.27,2.55,2.55,0,0,1-1.2-2.62,12,12,0,0,1,2-4.59,14,14,0,0,1,3.42-4.06,2.5,2.5,0,0,1,2.91-.08,2,2,0,0,1,.89,1,4.47,4.47,0,0,1,.16,1.73Zm-3.48,5.62Q25.32,17.9,24,17.05c-.43-.27-.93-.18-1.5.29A11.4,11.4,0,0,0,20.38,20a13.13,13.13,0,0,0-1.61,3.24,1.33,1.33,0,0,0,.5,1.57,1.17,1.17,0,0,0,1.47-.2A12.36,12.36,0,0,0,22.84,21.84Z"/><path class="cls-1" d="M37.13,24l-7.9,10.28-1.9-1.45,1-1.32a4.2,4.2,0,0,1-1.71.53,2.14,2.14,0,0,1-1.32-.51,2.49,2.49,0,0,1-.87-2.75A13.37,13.37,0,0,1,27,24.24a12.22,12.22,0,0,1,3.61-3.47,2.49,2.49,0,0,1,2.85.18,2.69,2.69,0,0,1,.86,2.79l.9-1.17Zm-8.21,1.8a12.75,12.75,0,0,0-1.9,3,1.27,1.27,0,0,0,.35,1.55,1.28,1.28,0,0,0,1.57-.12,12.41,12.41,0,0,0,2.4-2.53,11.91,11.91,0,0,0,1.83-3c.24-.7.15-1.22-.28-1.54a1.26,1.26,0,0,0-1.57.05A11.74,11.74,0,0,0,28.92,25.83Z"/><path class="cls-1" d="M39.82,26.3l1.75,1.64-1,1.09a3,3,0,0,1,3.1.56,2.36,2.36,0,0,1,.8,2.45,6.41,6.41,0,0,1-1.58,2.24L36.59,41l-1.75-1.64,5.91-6.34a4,4,0,0,0,1-1.58,1.14,1.14,0,0,0-.41-1.14,1.51,1.51,0,0,0-.6-.37,1.07,1.07,0,0,0-.66,0,2.45,2.45,0,0,0-.75.43,7.08,7.08,0,0,0-.92.87l-5.73,6.13L31,35.78Z"/><path class="cls-1" d="M47.7,34l1.64,1.77-9.51,8.81-1.64-1.76ZM52.51,31a1.53,1.53,0,0,1,.42,1.15,1.59,1.59,0,0,1-.51,1.13,1.64,1.64,0,0,1-2.74-1.26,1.6,1.6,0,0,1,.54-1.13,1.55,1.55,0,0,1,1.15-.42A1.66,1.66,0,0,1,52.51,31Z"/><path class="cls-1" d="M54.44,42.14l-1.73,1.42A3,3,0,0,0,52,41.72a1.61,1.61,0,0,0-.47-.39,1.72,1.72,0,0,0-.54-.18,1.34,1.34,0,0,0-.56.05,1.36,1.36,0,0,0-.52.27c-.48.39-.69,1.29-.64,2.69a11.86,11.86,0,0,1,0,1.5,5.27,5.27,0,0,1-.22,1.07,3.7,3.7,0,0,1-1.23,1.64,3.84,3.84,0,0,1-2.81,1,3.55,3.55,0,0,1-2.51-1.42,4.1,4.1,0,0,1-.86-2l1.79-1.47a3.3,3.3,0,0,0,.65,2,1.44,1.44,0,0,0,2.29.24,1.82,1.82,0,0,0,.61-.89,2.55,2.55,0,0,0,.1-.66c0-.27,0-.6,0-1a9.66,9.66,0,0,1,.23-2.84,3.61,3.61,0,0,1,1.2-1.68,3.53,3.53,0,0,1,2.6-.88,3.44,3.44,0,0,1,2.38,1.33A4.41,4.41,0,0,1,54.44,42.14Z"/><path class="cls-1" d="M60.84,50.6,50.18,58l-1.36-2,1.37-.95a4.08,4.08,0,0,1-1.8,0,2.16,2.16,0,0,1-1.1-.88,2.49,2.49,0,0,1,0-2.89,13.32,13.32,0,0,1,3.83-3.57,12.2,12.2,0,0,1,4.51-2.2,2.49,2.49,0,0,1,2.65,1,2.68,2.68,0,0,1,0,2.91l1.21-.83Zm-8.37-.79a12.88,12.88,0,0,0-2.74,2.31,1.21,1.21,0,0,0,1.39,1.94,12,12,0,0,0,3.06-1.67,12.13,12.13,0,0,0,2.66-2.29,1.25,1.25,0,0,0,.2-1.55,1.27,1.27,0,0,0-1.51-.43A11.38,11.38,0,0,0,52.47,49.81Z"/><path class="cls-1" d="M65.85,51.86l1.21,2.07-3.13,1.84.66,1.12-1.64,1-.66-1.13-9.54,5.61-1.22-2.06,9.54-5.61-.66-1.13,1.64-1,.66,1.13Z"/><path class="cls-1" d="M65.6,58.79l1.11,2.13-11.5,6L54.1,64.78ZM71,57.24a1.56,1.56,0,0,1,.1,1.22,1.63,1.63,0,1,1-2.28-1.94,1.52,1.52,0,0,1,1.22-.09A1.62,1.62,0,0,1,71,57.24Z"/><path class="cls-1" d="M65.2,73.49q-6,2.63-7.65-1.11t4.5-6.4q6.15-2.67,7.77,1a3.94,3.94,0,0,1,.36,1.84,3.24,3.24,0,0,1-.64,1.66,6.41,6.41,0,0,1-1.64,1.52A16.63,16.63,0,0,1,65.2,73.49Zm-.93-2.3a12.29,12.29,0,0,0,3.13-1.73,1.23,1.23,0,0,0-1-2.22,12.41,12.41,0,0,0-3.34,1.08A11.92,11.92,0,0,0,60.05,70a1.28,1.28,0,0,0-.44,1.51,1.23,1.23,0,0,0,1.38.7A11,11,0,0,0,64.27,71.19Z"/><path class="cls-1" d="M72.32,73.73,73.06,76l-1.42.46a3,3,0,0,1,2.44,2A2.35,2.35,0,0,1,73.6,81a6.66,6.66,0,0,1-2.47,1.2L62.36,85l-.74-2.28,8.24-2.68a4,4,0,0,0,1.68-.88A1.11,1.11,0,0,0,71.73,78a1.48,1.48,0,0,0-.35-.62,1,1,0,0,0-.58-.29,2.55,2.55,0,0,0-.87,0,8.48,8.48,0,0,0-1.23.31l-8,2.59L60,77.73Z"/></g></g></svg>