<svg xmlns="http://www.w3.org/2000/svg" width="273" height="32.716" viewBox="0 0 273 32.716"><defs><style>.a{fill:#fff;}.b{fill:#101010;}</style></defs><g transform="translate(-118.99 -406.92)"><g transform="translate(282.857 412.456)"><path d="M301.3,415.411V411.9h-6.573v3.511h2.417l-3.358,17.718h2.122c1.148,0,2.417.3,3.861.3,5.075,0,8.017-5.425,8.017-9.789,0-3.336-1.389-4.834-3.1-4.834a7.412,7.412,0,0,0-4.484,2.089Zm-1.619,8.75a4.731,4.731,0,0,1,2.745-1.444c.941,0,1.269.886,1.269,1.619,0,1.827-1.389,5.862-3.828,5.862-.383,0-1.411-.142-1.411-.142Zm13.759,1.094c.328-1.859,1.652-3.128,2.625-3.128a.926.926,0,0,1,1.028,1.028,2.323,2.323,0,0,1-2.417,2.089h-1.236Zm1.892,2.3c3.948,0,6.015-1.794,6.015-4.692,0-2.592-1.772-4.069-4.539-4.069-5.217,0-7.9,4.539-7.9,8.783,0,3.511,2.177,5.84,5.337,5.84A19.266,19.266,0,0,0,319,432.56v-2.833a17.958,17.958,0,0,1-3.653.47c-1.706,0-2.33-1.323-2.33-2.658h2.319Z" transform="translate(-293.79 -411.9)"/></g><path d="M340.991,411.85v10.161h7.722v2.581H335.73v13.672h2.494V427.02h2.767v11.243h2.494V427.02h2.745v11.243h2.483v-5.086h50.279V411.85Z" transform="translate(-7.002 0.462)"/><rect width="2.494" height="11.298" transform="translate(313 427.427)"/><rect width="2.483" height="11.298" transform="translate(318.25 427.427)"/><rect width="2.494" height="11.298" transform="translate(323.5 427.427)"/><rect width="15.728" height="2.57" transform="translate(313 422.473)"/><path d="M332.84,418.286a1.827,1.827,0,1,1,1.827,1.827,1.83,1.83,0,0,1-1.827-1.827" transform="translate(-7.273 0.894)"/><path class="a" d="M354,418.284v3.423s.591,0,1.017-.011c1.225-.033,2.352-.438,2.4-1.837a1.486,1.486,0,0,0-1.509-1.542c-.744-.055-1.9-.033-1.9-.033m0,4.55v3.741s.787.022,1.3,0c1.487-.066,2.362-.777,2.3-1.947-.066-1.148-.875-1.673-2.111-1.783-.58-.044-1.487-.011-1.487-.011m-2.286-4.758a5.213,5.213,0,0,1-.591-.12v-.864l1.5.022c.8.011,1.5-.055,2.472-.055,1.8,0,3.784.252,3.883,2.537a2.625,2.625,0,0,1-1.892,2.537,2.5,2.5,0,0,1,2.122,2.625c-.1,3.259-4.134,3.041-4.134,3.041h-3.937v-.842l1.3-.252v-8.553a4.89,4.89,0,0,1-.722-.077m18.725,3.587v-1.5s-.886,0-1.455.022c-.492.022-1.28.077-1.28.077v.82l1.28.164v6.562h1.5v-3.467a4.01,4.01,0,0,1,.7-2.461c.536-.58,1.673-.35,1.673-.35v-1.444a2.753,2.753,0,0,0-1.586.3,2.185,2.185,0,0,0-.831,1.28m-6.584-.634a1.575,1.575,0,0,1,1.52,1.8h-3.325c.011,0,.175-1.859,1.8-1.8m-1.9,2.931h4.922s.492-4.047-3-3.959c-3.1.077-3.412,2.844-3.434,4a4.022,4.022,0,0,0,1.433,3.412,4.728,4.728,0,0,0,2.548.536,8.7,8.7,0,0,0,2.111-.492v-1.17a6.348,6.348,0,0,1-2.3.47c-2.548.044-2.286-2.8-2.286-2.8m12.4-6.333s-.361-.055-.6-.087c-.262-.033-.678-.066-.678-.066v-.788s.93-.066,1.52-.077c.5-.011,1.291,0,1.291,0v10.15l1.291.208v.842h-4.1v-.842l1.28-.208Zm4.911.383a1.017,1.017,0,1,1,1.017,1.017,1.025,1.025,0,0,1-1.017-1.017m.328,3.259-1.312-.175v-.809c.5-.044.766-.066,1.313-.088.656-.022,1.159-.044,1.487-.022v6.584l1.367.208v.842h-4.156v-.842l1.313-.208V421.27Zm5.053,6.54h1.509v-3.664a3.778,3.778,0,0,1,.186-1.422,2.13,2.13,0,0,1,1.914-1.575c1.313-.077,1.236,1.367,1.236,1.367v5.294h1.52v-5.458s.12-2.176-1.914-2.264c-2.472-.1-2.953,1.455-2.953,1.455v-1.378s-.536-.022-1.389.033c-.809.044-1.4.1-1.4.1v.809l1.28.153v6.551Z" transform="translate(-5.559 0.908)"/><rect width="0.656" height="31.007" transform="translate(270.52 407.718)"/><rect width="0.656" height="31.007" transform="translate(170.226 408.628)"/><g transform="translate(182.726 406.92)"><path d="M215.5,408.043c-.142-.022-.3-.044-.448-.066-.131-.022-.262-.033-.416-.055a2.652,2.652,0,0,0-.4-.022,1.162,1.162,0,0,0-.82.273.883.883,0,0,0-.306.689.946.946,0,0,0,.2.623,1.785,1.785,0,0,0,.481.416,5.607,5.607,0,0,0,.623.328,3.411,3.411,0,0,1,.623.35,1.8,1.8,0,0,1,.481.514,1.5,1.5,0,0,1,.2.809,1.98,1.98,0,0,1-.109.689,1.381,1.381,0,0,1-.35.547,1.483,1.483,0,0,1-.6.35,2.519,2.519,0,0,1-.864.131,3.718,3.718,0,0,1-.492-.033c-.153-.022-.306-.044-.437-.077-.153-.033-.3-.066-.437-.109v-.613c.142.044.3.087.448.12a4.233,4.233,0,0,0,.448.077,3.724,3.724,0,0,0,.492.033,1.289,1.289,0,0,0,.919-.3,1.03,1.03,0,0,0,.306-.787.856.856,0,0,0-.2-.591,1.721,1.721,0,0,0-.481-.394c-.186-.109-.394-.219-.613-.328a3.152,3.152,0,0,1-.612-.372,2.061,2.061,0,0,1-.481-.536,1.559,1.559,0,0,1-.2-.831,1.652,1.652,0,0,1,.12-.612,1.442,1.442,0,0,1,.35-.5,1.772,1.772,0,0,1,.558-.339,2.343,2.343,0,0,1,.766-.12c.12,0,.252.011.4.022s.284.033.4.044l.438.066v.6Z" transform="translate(-201.286 -406.883)"/><path d="M219.457,413.175a3.891,3.891,0,0,1-.427.142,3.834,3.834,0,0,1-.459.087,4.431,4.431,0,0,1-.558.044,1.461,1.461,0,0,1-1.269-.58,2.717,2.717,0,0,1-.4-1.6,3.611,3.611,0,0,1,.131-1.028,2.174,2.174,0,0,1,.383-.744,1.484,1.484,0,0,1,.58-.437,1.84,1.84,0,0,1,.744-.142,1.484,1.484,0,0,1,1,.306,1.146,1.146,0,0,1,.372.908,1.443,1.443,0,0,1-.153.7,1.229,1.229,0,0,1-.394.427,1.5,1.5,0,0,1-.547.208,3.863,3.863,0,0,1-.613.055h-.853a3.742,3.742,0,0,0,.087.558,1.239,1.239,0,0,0,.2.437.862.862,0,0,0,.339.284,1.244,1.244,0,0,0,.525.109,2.18,2.18,0,0,0,.459-.044c.153-.033.3-.066.437-.1a3.617,3.617,0,0,0,.448-.153v.558Zm-1.63-2.187a1.256,1.256,0,0,0,.809-.219.719.719,0,0,0,.262-.591.788.788,0,0,0-.186-.547.711.711,0,0,0-.547-.2,1.023,1.023,0,0,0-.886.459,1.7,1.7,0,0,0-.23.492,2.1,2.1,0,0,0-.087.6Z" transform="translate(-200.918 -406.733)"/><path d="M223.076,413.381v-3.03a3.583,3.583,0,0,0-.022-.372.964.964,0,0,0-.1-.284.541.541,0,0,0-.208-.175.8.8,0,0,0-.35-.066,1.665,1.665,0,0,0-.459.066,3.866,3.866,0,0,0-.427.153c-.153.066-.3.142-.437.219v3.489h-.634v-4.375h.481l.087.438a5.178,5.178,0,0,1,.492-.252,3.645,3.645,0,0,1,.492-.175,1.9,1.9,0,0,1,.547-.087,1.428,1.428,0,0,1,.613.109.975.975,0,0,1,.361.3,1.063,1.063,0,0,1,.175.394,1.884,1.884,0,0,1,.044.427v3.226Z" transform="translate(-200.534 -406.732)"/><path d="M224.87,409.183c.153-.044.317-.087.5-.131.153-.033.328-.055.525-.087a3.754,3.754,0,0,1,.612-.044,3.017,3.017,0,0,1,.591.055.968.968,0,0,1,.416.186.8.8,0,0,1,.241.35,1.7,1.7,0,0,1,.077.569v3.3h-.481l-.087-.437c-.153.1-.317.186-.459.262a4.039,4.039,0,0,1-.437.175,1.4,1.4,0,0,1-.459.077,1.288,1.288,0,0,1-.569-.109,1.137,1.137,0,0,1-.394-.284,1.274,1.274,0,0,1-.23-.416,1.515,1.515,0,0,1-.077-.5,1.458,1.458,0,0,1,.109-.591,1.288,1.288,0,0,1,.317-.437,1.383,1.383,0,0,1,.481-.273,1.844,1.844,0,0,1,.612-.1h1.028v-.514a.868.868,0,0,0-.175-.623.943.943,0,0,0-.656-.175,2.649,2.649,0,0,0-.492.044q-.262.049-.492.1c-.175.044-.35.087-.525.142v-.536Zm.394,2.931a.875.875,0,0,0,.2.591.716.716,0,0,0,.547.219,1.279,1.279,0,0,0,.383-.066,2.532,2.532,0,0,0,.383-.153,3.083,3.083,0,0,0,.416-.23v-1.214h-.962a1.114,1.114,0,0,0-.7.219A.782.782,0,0,0,225.263,412.114Z" transform="translate(-200.14 -406.733)"/><path d="M231.07,413.547a.967.967,0,0,1-.186.022.851.851,0,0,1-.175.022h-.2a1.223,1.223,0,0,1-1.006-.361,1.733,1.733,0,0,1-.284-1.1v-2.461H228.5v-.514h.722V407.4h.634v1.75h1.083v.525h-1.083v2.373c0,.175.011.328.022.459a.833.833,0,0,0,.109.317.558.558,0,0,0,.23.186,1.042,1.042,0,0,0,.4.066,2.331,2.331,0,0,0,.3-.022.741.741,0,0,0,.153-.022Z" transform="translate(-199.779 -406.875)"/><path d="M233.98,409.573c-.12-.022-.241-.033-.361-.066l-.361-.033a2.247,2.247,0,0,0-.383-.022.939.939,0,0,0-.667.175.542.542,0,0,0-.175.394.58.58,0,0,0,.153.427,1.429,1.429,0,0,0,.394.251c.164.066.339.12.525.186a2.249,2.249,0,0,1,.525.23,1.131,1.131,0,0,1,.394.394,1.223,1.223,0,0,1,.153.678,1.665,1.665,0,0,1-.066.459.91.91,0,0,1-.241.4,1.092,1.092,0,0,1-.448.284,1.844,1.844,0,0,1-.7.109c-.164,0-.317-.011-.47-.022a3.635,3.635,0,0,1-.4-.055,3.5,3.5,0,0,1-.394-.087v-.591c.131.044.273.077.416.109a3.828,3.828,0,0,0,.4.077,3.062,3.062,0,0,0,.438.033,1.064,1.064,0,0,0,.416-.066.611.611,0,0,0,.252-.175.484.484,0,0,0,.12-.219.817.817,0,0,0,.033-.219.635.635,0,0,0-.153-.448,1.242,1.242,0,0,0-.394-.263,4.653,4.653,0,0,0-.514-.186,2.421,2.421,0,0,1-.514-.219,1.415,1.415,0,0,1-.394-.372,1.055,1.055,0,0,1-.153-.623,1.27,1.27,0,0,1,.088-.459.89.89,0,0,1,.262-.372,1.117,1.117,0,0,1,.448-.252,1.989,1.989,0,0,1,.656-.087c.142,0,.273.011.416.022a2.767,2.767,0,0,1,.35.044c.12.022.23.033.339.055v.5Z" transform="translate(-199.506 -406.73)"/><path d="M236.384,412.828q.148-.377.262-.722c.066-.2.131-.394.2-.6a3.369,3.369,0,0,0,.131-.492l.4-2.012h.678l-.459,2.012c-.044.164-.109.383-.208.656l-.3.787c-.12.3-.241.6-.383.93h-.689c-.142-.328-.273-.634-.383-.941-.1-.252-.2-.514-.284-.787a6.346,6.346,0,0,1-.2-.645L234.7,409h.7l.4,2.012a4.238,4.238,0,0,0,.131.481c.066.208.131.4.2.6C236.2,412.325,236.286,412.576,236.384,412.828Z" transform="translate(-199.198 -406.725)"/><path d="M241.607,413.175a3.9,3.9,0,0,1-.427.142,3.834,3.834,0,0,1-.459.087,4.431,4.431,0,0,1-.558.044,1.461,1.461,0,0,1-1.269-.58,2.717,2.717,0,0,1-.4-1.6,3.612,3.612,0,0,1,.131-1.028A2.175,2.175,0,0,1,239,409.5a1.484,1.484,0,0,1,.58-.437,1.8,1.8,0,0,1,.744-.142,1.484,1.484,0,0,1,1,.306,1.145,1.145,0,0,1,.372.908,1.443,1.443,0,0,1-.153.7,1.229,1.229,0,0,1-.394.427,1.5,1.5,0,0,1-.547.208,3.863,3.863,0,0,1-.612.055h-.853a3.736,3.736,0,0,0,.087.558,1.239,1.239,0,0,0,.2.437.862.862,0,0,0,.339.284,1.244,1.244,0,0,0,.525.109,2.179,2.179,0,0,0,.459-.044c.153-.033.3-.066.437-.1a3.617,3.617,0,0,0,.448-.153v.558Zm-1.63-2.187a1.256,1.256,0,0,0,.809-.219.719.719,0,0,0,.262-.591.788.788,0,0,0-.186-.547.711.711,0,0,0-.547-.2,1.023,1.023,0,0,0-.886.459,1.7,1.7,0,0,0-.23.492,2.1,2.1,0,0,0-.088.6Z" transform="translate(-198.842 -406.733)"/><path d="M244.746,409.51a1.525,1.525,0,0,0-.547.033,2.906,2.906,0,0,0-.492.142,4.979,4.979,0,0,0-.492.23v3.467h-.634v-4.375h.481l.087.437a2.786,2.786,0,0,1,.5-.273,4.474,4.474,0,0,1,.5-.175,1.754,1.754,0,0,1,.591-.066v.58Z" transform="translate(-198.459 -406.732)"/><path d="M248.787,413.375l-.973-3.6-.952,3.6h-.787c-.1-.328-.2-.634-.284-.941-.077-.252-.142-.514-.219-.788a6.13,6.13,0,0,1-.131-.645l-.241-2h.7l.2,2.012a4.154,4.154,0,0,0,.077.481c.044.208.087.4.131.6.055.23.109.481.175.733L247.508,409h.634l1.028,3.828c.066-.251.12-.492.175-.722.044-.2.087-.4.131-.6a4.286,4.286,0,0,0,.077-.492l.2-2.012h.667l-.241,2.012a6.137,6.137,0,0,1-.131.645c-.066.262-.131.525-.208.777-.087.3-.186.612-.284.941Z" transform="translate(-198.213 -406.725)"/><path d="M251.14,409.183c.153-.044.317-.087.5-.131.153-.033.328-.055.525-.087a3.754,3.754,0,0,1,.612-.044,3.018,3.018,0,0,1,.591.055.968.968,0,0,1,.416.186.8.8,0,0,1,.241.35,1.7,1.7,0,0,1,.077.569v3.3h-.481l-.088-.437c-.153.1-.317.186-.459.262a4.039,4.039,0,0,1-.437.175,1.4,1.4,0,0,1-.459.077,1.288,1.288,0,0,1-.569-.109,1.137,1.137,0,0,1-.394-.284,1.274,1.274,0,0,1-.23-.416,1.515,1.515,0,0,1-.077-.5,1.458,1.458,0,0,1,.109-.591,1.287,1.287,0,0,1,.317-.437,1.382,1.382,0,0,1,.481-.273,1.844,1.844,0,0,1,.612-.1h1.028v-.514a.868.868,0,0,0-.175-.623.943.943,0,0,0-.656-.175,2.649,2.649,0,0,0-.492.044q-.263.049-.492.1c-.175.044-.35.087-.525.142v-.536Zm.394,2.931a.876.876,0,0,0,.2.591.716.716,0,0,0,.547.219,1.279,1.279,0,0,0,.383-.066,2.532,2.532,0,0,0,.383-.153,3.084,3.084,0,0,0,.416-.23v-1.214H252.5a1.114,1.114,0,0,0-.7.219A.782.782,0,0,0,251.533,412.114Z" transform="translate(-197.678 -406.733)"/><path d="M255.814,413.57h-.634v-6.65h.634Z" transform="translate(-197.278 -406.92)"/><path d="M259.29,413.547a.967.967,0,0,1-.186.022.851.851,0,0,1-.175.022h-.2a1.223,1.223,0,0,1-1.006-.361,1.733,1.733,0,0,1-.284-1.1v-2.461h-.722v-.514h.722V407.4h.634v1.75h1.083v.525h-1.083v2.373c0,.175.011.328.022.459a.833.833,0,0,0,.109.317.558.558,0,0,0,.23.186,1.043,1.043,0,0,0,.4.066,2.332,2.332,0,0,0,.3-.022.742.742,0,0,0,.153-.022v.514Z" transform="translate(-197.134 -406.875)"/><path d="M260.526,409v3.03c0,.142.011.262.022.383a.964.964,0,0,0,.1.284.541.541,0,0,0,.208.175.8.8,0,0,0,.35.066,1.665,1.665,0,0,0,.459-.066,3.88,3.88,0,0,0,.427-.153,3.34,3.34,0,0,0,.438-.23V409h.634v4.375h-.481l-.087-.437a3.5,3.5,0,0,1-.492.262,3.627,3.627,0,0,1-.492.175,1.886,1.886,0,0,1-.547.077,1.4,1.4,0,0,1-.612-.109.974.974,0,0,1-.361-.3,1.063,1.063,0,0,1-.175-.394,1.884,1.884,0,0,1-.044-.427V409Z" transform="translate(-196.839 -406.725)"/><path d="M266.906,413.381v-3.03a3.6,3.6,0,0,0-.022-.372.963.963,0,0,0-.1-.284.54.54,0,0,0-.208-.175.8.8,0,0,0-.35-.066,1.665,1.665,0,0,0-.459.066,3.866,3.866,0,0,0-.427.153c-.153.066-.3.142-.437.219v3.489h-.634v-4.375h.481l.087.438a5.179,5.179,0,0,1,.492-.252,3.645,3.645,0,0,1,.492-.175,1.846,1.846,0,0,1,.547-.087,1.428,1.428,0,0,1,.612.109.974.974,0,0,1,.361.3,1.064,1.064,0,0,1,.175.394,1.887,1.887,0,0,1,.044.427v3.226Z" transform="translate(-196.426 -406.732)"/><path d="M268.2,414.157a.956.956,0,0,1,.087-.4,1.274,1.274,0,0,1,.208-.3,1.194,1.194,0,0,1,.3-.23.576.576,0,0,1-.153-.131,1.247,1.247,0,0,1-.1-.175.662.662,0,0,1-.044-.262.686.686,0,0,1,.1-.383.884.884,0,0,1,.219-.23.74.74,0,0,1,.328-.131,1.131,1.131,0,0,1-.372-.273,1.357,1.357,0,0,1-.252-.394,1.535,1.535,0,0,1-.109-.634,1.737,1.737,0,0,1,.142-.744,1.694,1.694,0,0,1,.35-.525,1.335,1.335,0,0,1,.481-.306,1.486,1.486,0,0,1,.525-.1,1.757,1.757,0,0,1,.558.087,3.169,3.169,0,0,1,.416.175,2.212,2.212,0,0,1,.35.252l.087-.437h.47v1.509a1.755,1.755,0,0,1-.142.755,1.686,1.686,0,0,1-.372.525,1.629,1.629,0,0,1-.536.306,2.1,2.1,0,0,1-.645.1h-.383c-.427,0-.634.12-.634.361a.333.333,0,0,0,.142.284.839.839,0,0,0,.481.109h1.094a1.71,1.71,0,0,1,1.006.241.9.9,0,0,1,.339.788,1,1,0,0,1-.525.886,2.829,2.829,0,0,1-1.542.339,2.967,2.967,0,0,1-1.444-.262A.894.894,0,0,1,268.2,414.157Zm.973-.722c-.066.055-.131.109-.2.175a1.723,1.723,0,0,0-.131.208.593.593,0,0,0-.066.273.5.5,0,0,0,.1.317.713.713,0,0,0,.284.208,1.522,1.522,0,0,0,.427.109,4.2,4.2,0,0,0,.547.033,3.031,3.031,0,0,0,.558-.044,2.187,2.187,0,0,0,.448-.131.816.816,0,0,0,.306-.219.467.467,0,0,0,.109-.317.5.5,0,0,0-.077-.3.6.6,0,0,0-.2-.175.969.969,0,0,0-.284-.087c-.109-.011-.23-.022-.35-.022H269.4c-.044,0-.087-.011-.12-.011A.387.387,0,0,1,269.173,413.435Zm-.131-2.866a1.137,1.137,0,0,0,.306.875,1.173,1.173,0,0,0,1.531,0,1.125,1.125,0,0,0,.317-.875v-.612a1.309,1.309,0,0,0-.284-.262,1.691,1.691,0,0,0-.372-.175,1.443,1.443,0,0,0-.514-.087.991.991,0,0,0-.35.066.764.764,0,0,0-.317.208,1.144,1.144,0,0,0-.23.35A1.442,1.442,0,0,0,269.042,410.57Z" transform="translate(-196.058 -406.731)"/><path d="M204.821,416.641c-.044-.011-.1-.011-.153-.022s-.1-.011-.153-.022a.725.725,0,0,0-.153-.011,1.042,1.042,0,0,0-.4.066.485.485,0,0,0-.23.186.771.771,0,0,0-.109.317,2.936,2.936,0,0,0-.022.459v.8h1.083v.525H203.6v3.85h-.634v-3.85h-.722v-.525h.722v-.9a1.8,1.8,0,0,1,.284-1.1,1.223,1.223,0,0,1,1.006-.361,1.19,1.19,0,0,1,.2.011c.066.011.12.011.175.022a1.076,1.076,0,0,0,.186.022v.536Z" transform="translate(-202.24 -406.064)"/><path d="M205.9,418.311v3.03c0,.142.011.263.022.383a.965.965,0,0,0,.1.284.541.541,0,0,0,.208.175.8.8,0,0,0,.35.066,1.665,1.665,0,0,0,.459-.066,3.881,3.881,0,0,0,.427-.153,3.338,3.338,0,0,0,.437-.23v-3.478h.634V422.7h-.481l-.087-.437a3.5,3.5,0,0,1-.492.262,3.639,3.639,0,0,1-.492.175,1.886,1.886,0,0,1-.547.077,1.428,1.428,0,0,1-.612-.109.974.974,0,0,1-.361-.3,1.062,1.062,0,0,1-.175-.394,1.885,1.885,0,0,1-.044-.427v-3.227h.656Zm.044-1.291a.464.464,0,0,1,.328.788.484.484,0,0,1-.328.12.477.477,0,0,1-.317-.12.413.413,0,0,1-.131-.328.445.445,0,0,1,.131-.328A.438.438,0,0,1,205.94,417.02Zm1.936,0a.464.464,0,0,1,.328.788.484.484,0,0,1-.328.12.477.477,0,0,1-.317-.12.413.413,0,0,1-.131-.328.445.445,0,0,1,.131-.328A.457.457,0,0,1,207.876,417.02Z" transform="translate(-201.959 -405.973)"/><path d="M211.8,418.7a1.525,1.525,0,0,0-.547.033,2.634,2.634,0,0,0-.492.142,4.953,4.953,0,0,0-.492.23v3.478h-.634v-4.375h.481l.087.438a2.789,2.789,0,0,1,.5-.273,4.492,4.492,0,0,1,.5-.175,1.753,1.753,0,0,1,.591-.066v.569Z" transform="translate(-201.547 -405.87)"/><path d="M217.334,417.243c-.142-.022-.3-.044-.448-.066-.131-.022-.262-.033-.416-.055a2.648,2.648,0,0,0-.4-.022,1.163,1.163,0,0,0-.82.273.883.883,0,0,0-.306.689.946.946,0,0,0,.2.623,1.786,1.786,0,0,0,.481.416,5.6,5.6,0,0,0,.623.328,3.411,3.411,0,0,1,.623.35,1.8,1.8,0,0,1,.481.514,1.5,1.5,0,0,1,.2.809,1.981,1.981,0,0,1-.109.689,1.381,1.381,0,0,1-.35.547,1.484,1.484,0,0,1-.6.35,2.519,2.519,0,0,1-.864.131,3.719,3.719,0,0,1-.492-.033c-.153-.022-.306-.044-.437-.077-.153-.033-.3-.066-.437-.109v-.613c.142.044.3.088.448.12a4.235,4.235,0,0,0,.448.077,3.729,3.729,0,0,0,.492.033,1.289,1.289,0,0,0,.919-.3,1.03,1.03,0,0,0,.306-.787.856.856,0,0,0-.2-.591,1.721,1.721,0,0,0-.481-.394c-.186-.109-.394-.219-.612-.328a3.155,3.155,0,0,1-.613-.372,2.06,2.06,0,0,1-.481-.536,1.559,1.559,0,0,1-.2-.831,1.651,1.651,0,0,1,.12-.612,1.441,1.441,0,0,1,.35-.5,1.771,1.771,0,0,1,.558-.339,2.344,2.344,0,0,1,.766-.12c.12,0,.252.011.4.022s.284.033.4.044l.437.066v.6Z" transform="translate(-201.114 -406.021)"/><path d="M220.59,422.748a.964.964,0,0,1-.186.022.849.849,0,0,1-.175.022h-.2a1.223,1.223,0,0,1-1.006-.361,1.733,1.733,0,0,1-.284-1.1v-2.461h-.722v-.525h.722v-1.75h.634v1.75h1.083v.525h-1.083v2.373c0,.175.011.328.022.459a.834.834,0,0,0,.109.317.559.559,0,0,0,.23.186,1.043,1.043,0,0,0,.4.066,2.332,2.332,0,0,0,.3-.022.741.741,0,0,0,.153-.022v.525Z" transform="translate(-200.761 -406.014)"/><path d="M221.3,418.382c.153-.044.317-.087.5-.131.153-.033.328-.055.525-.087a3.754,3.754,0,0,1,.612-.044,3.015,3.015,0,0,1,.591.055.967.967,0,0,1,.416.186.8.8,0,0,1,.241.35,1.7,1.7,0,0,1,.077.569v3.292h-.481l-.088-.437c-.153.1-.317.186-.459.263a4.064,4.064,0,0,1-.437.175,1.4,1.4,0,0,1-.459.077,1.287,1.287,0,0,1-.569-.109,1.137,1.137,0,0,1-.394-.284,1.275,1.275,0,0,1-.23-.416,1.515,1.515,0,0,1-.077-.5,1.458,1.458,0,0,1,.109-.591,1.079,1.079,0,0,1,.317-.437,1.382,1.382,0,0,1,.481-.273,1.845,1.845,0,0,1,.612-.1h1.028v-.514a.868.868,0,0,0-.175-.623.943.943,0,0,0-.656-.175,2.647,2.647,0,0,0-.492.044q-.263.049-.492.1c-.175.044-.35.088-.525.142v-.525Zm.394,2.931a.876.876,0,0,0,.2.591.716.716,0,0,0,.547.219,1.278,1.278,0,0,0,.383-.066,2.535,2.535,0,0,0,.383-.153,3.092,3.092,0,0,0,.416-.23v-1.214h-.962a1.114,1.114,0,0,0-.7.219A.782.782,0,0,0,221.693,421.314Z" transform="translate(-200.475 -405.87)"/><path d="M227.926,422.771l-.087-.437a4.916,4.916,0,0,1-.459.262,3.321,3.321,0,0,1-.437.175,1.333,1.333,0,0,1-.448.077,1.226,1.226,0,0,1-1.061-.525,2.875,2.875,0,0,1-.372-1.662,3.539,3.539,0,0,1,.142-1.094,2.221,2.221,0,0,1,.35-.722,1.381,1.381,0,0,1,.481-.4,1.157,1.157,0,0,1,.514-.131,1.56,1.56,0,0,1,.525.077,2.227,2.227,0,0,1,.394.175,2.1,2.1,0,0,1,.339.252l-.044-.514V416.11h.634v6.65h-.47Zm-.142-3.423a.962.962,0,0,0-.273-.241,1.734,1.734,0,0,0-.35-.175,1.368,1.368,0,0,0-.492-.077.781.781,0,0,0-.689.459,2.562,2.562,0,0,0-.262,1.258,4.679,4.679,0,0,0,.044.711,2.322,2.322,0,0,0,.153.547.763.763,0,0,0,.284.35.78.78,0,0,0,.427.12,1.149,1.149,0,0,0,.361-.066,2.932,2.932,0,0,0,.372-.153,3.011,3.011,0,0,0,.416-.219v-2.516Z" transform="translate(-200.101 -406.059)"/><path d="M231.65,422.748a.964.964,0,0,1-.186.022.849.849,0,0,1-.175.022h-.2a1.223,1.223,0,0,1-1.006-.361,1.733,1.733,0,0,1-.284-1.1v-2.461h-.722v-.525h.722v-1.75h.634v1.75h1.083v.525h-1.083v2.373c0,.175.011.328.022.459a.834.834,0,0,0,.109.317.559.559,0,0,0,.23.186,1.043,1.043,0,0,0,.4.066,2.332,2.332,0,0,0,.3-.022.741.741,0,0,0,.153-.022Z" transform="translate(-199.724 -406.014)"/><path d="M235.117,422.375a3.9,3.9,0,0,1-.427.142,3.845,3.845,0,0,1-.459.087,4.443,4.443,0,0,1-.558.044,1.461,1.461,0,0,1-1.269-.58,2.717,2.717,0,0,1-.4-1.6,3.612,3.612,0,0,1,.131-1.028,2.173,2.173,0,0,1,.383-.744,1.484,1.484,0,0,1,.58-.438,1.84,1.84,0,0,1,.744-.142,1.484,1.484,0,0,1,1,.306,1.146,1.146,0,0,1,.372.908,1.443,1.443,0,0,1-.153.7,1.229,1.229,0,0,1-.394.427,1.5,1.5,0,0,1-.547.208,3.867,3.867,0,0,1-.612.055h-.853a3.74,3.74,0,0,0,.088.558,1.239,1.239,0,0,0,.2.437.862.862,0,0,0,.339.284,1.244,1.244,0,0,0,.525.109,2.177,2.177,0,0,0,.459-.044c.153-.033.3-.066.437-.1a3.621,3.621,0,0,0,.448-.153v.558Zm-1.63-2.187a1.255,1.255,0,0,0,.809-.219.719.719,0,0,0,.263-.591.787.787,0,0,0-.186-.547.712.712,0,0,0-.547-.2,1.023,1.023,0,0,0-.886.459,1.7,1.7,0,0,0-.23.492,2.1,2.1,0,0,0-.088.6Z" transform="translate(-199.451 -405.87)"/><path d="M238.746,422.582v-3.03a3.589,3.589,0,0,0-.022-.372.964.964,0,0,0-.1-.284.54.54,0,0,0-.208-.175.8.8,0,0,0-.35-.066,1.661,1.661,0,0,0-.459.066,3.853,3.853,0,0,0-.427.153c-.153.066-.3.142-.437.219v3.478h-.634V418.2h.481l.088.437a5.175,5.175,0,0,1,.492-.252,3.644,3.644,0,0,1,.492-.175,1.9,1.9,0,0,1,.547-.087,1.429,1.429,0,0,1,.612.109.974.974,0,0,1,.361.3,1.061,1.061,0,0,1,.175.394,1.882,1.882,0,0,1,.044.427v3.227h-.656Z" transform="translate(-199.065 -405.87)"/><path d="M242.6,422.748a.964.964,0,0,1-.186.022.849.849,0,0,1-.175.022h-.2a1.223,1.223,0,0,1-1.006-.361,1.733,1.733,0,0,1-.284-1.1v-2.461h-.722v-.525h.722v-1.75h.634v1.75h1.083v.525h-1.083v2.373c0,.175.011.328.022.459a.834.834,0,0,0,.109.317.559.559,0,0,0,.23.186,1.042,1.042,0,0,0,.4.066,2.332,2.332,0,0,0,.3-.022.741.741,0,0,0,.153-.022v.525Z" transform="translate(-198.698 -406.014)"/><path d="M246.517,422.576l-.973-3.6-.952,3.6h-.777c-.1-.328-.2-.634-.284-.941-.077-.252-.142-.514-.219-.788a6.136,6.136,0,0,1-.131-.645l-.252-2.013h.7l.2,2.013a4.156,4.156,0,0,0,.077.481c.044.208.087.4.131.6.055.23.109.481.175.733l1.028-3.828h.634l1.028,3.828c.066-.252.12-.492.175-.722.044-.2.088-.4.131-.6a4.3,4.3,0,0,0,.077-.492l.2-2.013h.667l-.241,2.013a6.145,6.145,0,0,1-.131.645c-.066.262-.131.525-.208.777-.087.3-.186.612-.284.941h-.766Z" transform="translate(-198.426 -405.864)"/><path d="M248.63,416.975a.521.521,0,0,1,.153-.372.5.5,0,0,1,.372-.153.521.521,0,0,1,.372.153.525.525,0,0,1-.372.9.521.521,0,0,1-.372-.153A.5.5,0,0,1,248.63,416.975Zm.809,5.764H248.8v-4.375h.634Z" transform="translate(-197.892 -406.027)"/><path d="M253.357,422.484a2.5,2.5,0,0,1-.306.087,2.429,2.429,0,0,1-.339.055,2.315,2.315,0,0,1-.394.022,1.7,1.7,0,0,1-1.389-.547,2.475,2.475,0,0,1-.459-1.63,3.328,3.328,0,0,1,.131-.973,2.477,2.477,0,0,1,.361-.744,1.513,1.513,0,0,1,.58-.47,1.8,1.8,0,0,1,.777-.164c.1,0,.208.011.328.022s.23.033.328.044c.12.022.23.044.339.066v.547c-.1-.022-.2-.044-.306-.066s-.2-.033-.317-.055a2.066,2.066,0,0,0-.372-.022,1.012,1.012,0,0,0-.459.109,1.045,1.045,0,0,0-.383.317,1.633,1.633,0,0,0-.262.536,2.656,2.656,0,0,0-.1.766,3.1,3.1,0,0,0,.1.853,1.307,1.307,0,0,0,.262.525.807.807,0,0,0,.383.262,1.248,1.248,0,0,0,.448.077c.131,0,.252-.011.383-.022a2.669,2.669,0,0,0,.339-.066,1.868,1.868,0,0,0,.328-.1v.569Z" transform="translate(-197.72 -405.87)"/><path d="M256.615,422.771l-.514-1.553a1.624,1.624,0,0,0-.186-.394c-.077-.109-.142-.208-.208-.284a2.342,2.342,0,0,0-.241-.23l-.722.8v1.652h-.634v-6.65h.634v4.342l1.63-2.067h.787l-1.334,1.509a2.329,2.329,0,0,1,.339.317,3.8,3.8,0,0,1,.284.361,2.293,2.293,0,0,1,.241.459l.634,1.739h-.711Z" transform="translate(-197.378 -406.059)"/><path d="M258.594,422.77h-.634v-6.65h.634Z" transform="translate(-197.018 -406.058)"/><path d="M260.526,418.2v3.03c0,.142.011.262.022.383a.964.964,0,0,0,.1.284.541.541,0,0,0,.208.175.8.8,0,0,0,.35.066,1.667,1.667,0,0,0,.459-.066,3.88,3.88,0,0,0,.427-.153,3.337,3.337,0,0,0,.438-.23v-3.478h.634v4.375h-.481l-.087-.438a3.491,3.491,0,0,1-.492.263,3.639,3.639,0,0,1-.492.175,1.888,1.888,0,0,1-.547.077,1.4,1.4,0,0,1-.612-.109.974.974,0,0,1-.361-.3,1.063,1.063,0,0,1-.175-.394,1.884,1.884,0,0,1-.044-.427v-3.227h.656Z" transform="translate(-196.839 -405.863)"/><path d="M266.906,422.582v-3.03a3.6,3.6,0,0,0-.022-.372.964.964,0,0,0-.1-.284.54.54,0,0,0-.208-.175.8.8,0,0,0-.35-.066,1.661,1.661,0,0,0-.459.066,3.853,3.853,0,0,0-.427.153c-.153.066-.3.142-.437.219v3.478h-.634V418.2h.481l.087.437a5.179,5.179,0,0,1,.492-.252,3.645,3.645,0,0,1,.492-.175,1.9,1.9,0,0,1,.547-.087,1.428,1.428,0,0,1,.612.109.973.973,0,0,1,.361.3,1.062,1.062,0,0,1,.175.394,1.885,1.885,0,0,1,.044.427v3.227h-.656Z" transform="translate(-196.426 -405.87)"/><path d="M268.2,423.357a.956.956,0,0,1,.087-.4,1.275,1.275,0,0,1,.208-.3,1.528,1.528,0,0,1,.3-.23.576.576,0,0,1-.153-.131,1.25,1.25,0,0,1-.1-.175.663.663,0,0,1-.044-.263.686.686,0,0,1,.1-.383.884.884,0,0,1,.219-.23.74.74,0,0,1,.328-.131,1.131,1.131,0,0,1-.372-.273,1.358,1.358,0,0,1-.252-.394,1.535,1.535,0,0,1-.109-.634,1.737,1.737,0,0,1,.142-.744,1.7,1.7,0,0,1,.35-.525,1.335,1.335,0,0,1,.481-.306,1.486,1.486,0,0,1,.525-.1,1.755,1.755,0,0,1,.558.087,3.161,3.161,0,0,1,.416.175,2.214,2.214,0,0,1,.35.252l.087-.437h.47v1.509a1.755,1.755,0,0,1-.142.755,1.686,1.686,0,0,1-.372.525,1.63,1.63,0,0,1-.536.306,2.1,2.1,0,0,1-.645.1h-.383c-.427,0-.634.12-.634.361a.333.333,0,0,0,.142.284.839.839,0,0,0,.481.109h1.094a1.71,1.71,0,0,1,1.006.241.9.9,0,0,1,.339.788,1,1,0,0,1-.525.886,2.83,2.83,0,0,1-1.542.339,2.967,2.967,0,0,1-1.444-.262A.894.894,0,0,1,268.2,423.357Zm.973-.722c-.066.055-.131.109-.2.175a1.72,1.72,0,0,0-.131.208.593.593,0,0,0-.066.273.5.5,0,0,0,.1.317.713.713,0,0,0,.284.208,1.52,1.52,0,0,0,.427.109,4.2,4.2,0,0,0,.547.033,3.037,3.037,0,0,0,.558-.044,2.191,2.191,0,0,0,.448-.131.816.816,0,0,0,.306-.219.467.467,0,0,0,.109-.317.5.5,0,0,0-.077-.3.6.6,0,0,0-.2-.175.968.968,0,0,0-.284-.087c-.109-.011-.23-.022-.35-.022H269.4c-.044,0-.087-.011-.12-.011A.388.388,0,0,1,269.173,422.635Zm-.131-2.866a1.137,1.137,0,0,0,.306.875,1.173,1.173,0,0,0,1.531,0,1.125,1.125,0,0,0,.317-.875v-.612a1.307,1.307,0,0,0-.284-.262,1.69,1.69,0,0,0-.372-.175,1.444,1.444,0,0,0-.514-.087.991.991,0,0,0-.35.066.764.764,0,0,0-.317.208,1.143,1.143,0,0,0-.23.35A1.442,1.442,0,0,0,269.042,419.77Z" transform="translate(-196.058 -405.868)"/><path d="M231.1,427.4v3.03a3.582,3.582,0,0,0,.022.372.964.964,0,0,0,.1.284.541.541,0,0,0,.208.175.8.8,0,0,0,.35.066,1.666,1.666,0,0,0,.459-.066,3.886,3.886,0,0,0,.427-.153,3.338,3.338,0,0,0,.438-.23V427.4h.634v4.375h-.481l-.087-.437a3.5,3.5,0,0,1-.492.262,3.638,3.638,0,0,1-.492.175,1.889,1.889,0,0,1-.547.077,1.573,1.573,0,0,1-.612-.109.974.974,0,0,1-.361-.3,1.063,1.063,0,0,1-.175-.394,1.884,1.884,0,0,1-.044-.427V427.4Z" transform="translate(-199.597 -405)"/><path d="M237.466,431.782v-3.03a3.588,3.588,0,0,0-.022-.372.964.964,0,0,0-.1-.284.54.54,0,0,0-.208-.175.8.8,0,0,0-.35-.066,1.663,1.663,0,0,0-.459.066,3.848,3.848,0,0,0-.427.153,3.261,3.261,0,0,0-.437.219v3.478h-.634V427.4h.481l.088.438a5.184,5.184,0,0,1,.492-.252,3.649,3.649,0,0,1,.492-.175,1.9,1.9,0,0,1,.547-.087,1.428,1.428,0,0,1,.613.109.974.974,0,0,1,.361.3,1.062,1.062,0,0,1,.175.394,1.883,1.883,0,0,1,.044.427v3.227h-.656Z" transform="translate(-199.185 -405.008)"/><path d="M241.766,431.971l-.087-.437a4.9,4.9,0,0,1-.459.262,3.305,3.305,0,0,1-.437.175,1.334,1.334,0,0,1-.448.077,1.226,1.226,0,0,1-1.061-.525,2.875,2.875,0,0,1-.372-1.662,3.539,3.539,0,0,1,.142-1.094,2.466,2.466,0,0,1,.35-.722,1.381,1.381,0,0,1,.481-.4,1.156,1.156,0,0,1,.514-.131,1.56,1.56,0,0,1,.525.077,2.224,2.224,0,0,1,.394.175,2.1,2.1,0,0,1,.339.252l-.044-.514V425.31h.634v6.65h-.47Zm-.153-3.423a.964.964,0,0,0-.273-.241,1.736,1.736,0,0,0-.35-.175,1.659,1.659,0,0,0-.492-.077.781.781,0,0,0-.689.459,2.562,2.562,0,0,0-.262,1.258,4.678,4.678,0,0,0,.044.711,2.32,2.32,0,0,0,.153.547.763.763,0,0,0,.284.35.781.781,0,0,0,.427.12,1.148,1.148,0,0,0,.361-.066,2.917,2.917,0,0,0,.372-.153,3.012,3.012,0,0,0,.416-.219v-2.516Z" transform="translate(-198.804 -405.196)"/><path d="M249.3,431.927l-1.291-5.348-1.291,5.348h-.864c-.087-.372-.164-.722-.241-1.05-.033-.142-.055-.284-.088-.437s-.066-.3-.088-.437-.044-.273-.066-.394a1.834,1.834,0,0,1-.033-.317l-.241-3.5h.722l.153,3.5a4.19,4.19,0,0,0,.055.536l.1.689c.044.273.088.558.142.853l1.356-5.578h.787l1.356,5.578c.055-.3.1-.58.142-.853l.1-.689c.033-.23.044-.416.066-.547l.153-3.5h.689l-.241,3.5c-.011.087-.022.2-.033.317s-.044.252-.066.394-.055.284-.088.437-.055.3-.087.438c-.066.328-.153.678-.241,1.05H249.3Z" transform="translate(-198.223 -405.152)"/><path d="M251.38,429.682a3.483,3.483,0,0,1,.131-1,2.159,2.159,0,0,1,.372-.744,1.661,1.661,0,0,1,.58-.459,1.968,1.968,0,0,1,2.111.383,2.372,2.372,0,0,1,.492,1.641,3.508,3.508,0,0,1-.131,1.006,2.174,2.174,0,0,1-.383.744,1.728,1.728,0,0,1-.591.459,1.845,1.845,0,0,1-.744.153,1.764,1.764,0,0,1-1.356-.536A2.44,2.44,0,0,1,251.38,429.682Zm.645-.088a2.983,2.983,0,0,0,.1.831,1.531,1.531,0,0,0,.262.536.8.8,0,0,0,.383.284,1.272,1.272,0,0,0,.459.087,1,1,0,0,0,.47-.12,1.243,1.243,0,0,0,.383-.339,1.49,1.49,0,0,0,.252-.547,2.543,2.543,0,0,0,.087-.733,2.984,2.984,0,0,0-.1-.831,1.532,1.532,0,0,0-.262-.536.95.95,0,0,0-.383-.284,1.258,1.258,0,0,0-.448-.087,1.037,1.037,0,0,0-.864.459A2.123,2.123,0,0,0,252.025,429.594Z" transform="translate(-197.634 -405.007)"/><path d="M258.5,431.971v-3.03a3.581,3.581,0,0,0-.022-.372.961.961,0,0,0-.1-.284.54.54,0,0,0-.208-.175.8.8,0,0,0-.35-.066,1.665,1.665,0,0,0-.459.066,3.868,3.868,0,0,0-.427.153,3.263,3.263,0,0,0-.437.219v3.478h-.634v-6.65h.634v2.177l-.044.525a3.97,3.97,0,0,1,.962-.427,1.816,1.816,0,0,1,.536-.077,1.428,1.428,0,0,1,.612.109.974.974,0,0,1,.361.3,1.063,1.063,0,0,1,.175.394,1.882,1.882,0,0,1,.044.427v3.227H258.5Z" transform="translate(-197.214 -405.196)"/><path d="M262.846,431.782v-3.03a3.592,3.592,0,0,0-.022-.372.962.962,0,0,0-.1-.284.539.539,0,0,0-.208-.175.8.8,0,0,0-.35-.066,1.664,1.664,0,0,0-.459.066,3.852,3.852,0,0,0-.427.153,3.262,3.262,0,0,0-.437.219v3.478h-.634V427.4h.481l.087.438a5.19,5.19,0,0,1,.492-.252,3.647,3.647,0,0,1,.492-.175,1.846,1.846,0,0,1,.547-.087,1.428,1.428,0,0,1,.612.109.974.974,0,0,1,.361.3,1.062,1.062,0,0,1,.175.394,1.883,1.883,0,0,1,.044.427v3.227h-.656Z" transform="translate(-196.807 -405.008)"/><path d="M267.4,431.575a3.893,3.893,0,0,1-.427.142,3.844,3.844,0,0,1-.459.087,4.443,4.443,0,0,1-.558.044,1.461,1.461,0,0,1-1.269-.58,2.717,2.717,0,0,1-.4-1.6,3.613,3.613,0,0,1,.131-1.028,2.078,2.078,0,0,1,.383-.744,1.484,1.484,0,0,1,.58-.437,1.8,1.8,0,0,1,.744-.142,1.484,1.484,0,0,1,1,.306,1.145,1.145,0,0,1,.372.908,1.443,1.443,0,0,1-.153.7,1.229,1.229,0,0,1-.394.427,1.5,1.5,0,0,1-.547.208,3.867,3.867,0,0,1-.612.055h-.853a3.746,3.746,0,0,0,.087.558,1.24,1.24,0,0,0,.2.438.861.861,0,0,0,.339.284,1.243,1.243,0,0,0,.525.109,2.18,2.18,0,0,0,.459-.044c.153-.033.3-.066.437-.1a3.613,3.613,0,0,0,.448-.153v.558Zm-1.63-2.187a1.256,1.256,0,0,0,.809-.219.719.719,0,0,0,.263-.591.788.788,0,0,0-.186-.547.711.711,0,0,0-.547-.2,1.114,1.114,0,0,0-.514.12,1.076,1.076,0,0,0-.372.328,1.7,1.7,0,0,0-.23.492,2.1,2.1,0,0,0-.087.6h.864Z" transform="translate(-196.425 -405.008)"/><path d="M271.026,431.782v-3.03a3.592,3.592,0,0,0-.022-.372.964.964,0,0,0-.1-.284.54.54,0,0,0-.208-.175.8.8,0,0,0-.35-.066,1.664,1.664,0,0,0-.459.066,3.85,3.85,0,0,0-.427.153,3.264,3.264,0,0,0-.437.219v3.478h-.634V427.4h.481l.087.438a5.189,5.189,0,0,1,.492-.252,3.649,3.649,0,0,1,.492-.175,1.9,1.9,0,0,1,.547-.087,1.428,1.428,0,0,1,.612.109.974.974,0,0,1,.361.3,1.063,1.063,0,0,1,.175.394,1.886,1.886,0,0,1,.044.427v3.227h-.656Z" transform="translate(-196.04 -405.008)"/></g><g transform="translate(118.989 417.05)"><path class="b" d="M254.135,428.454c.026-.843.435-1.529,1.2-1.529a.663.663,0,0,1,.729.729c0,.479-.339.8-1.068.8Zm2.475,1.616a4.4,4.4,0,0,1-1.327.285c-.842,0-1.078-.582-1.139-1.39H255c.807,0,1.692-.234,1.692-1.363,0-.79-.52-1.206-1.353-1.206-1.06,0-1.823.772-1.823,2.335,0,1.348.53,2.162,1.658,2.162a4.2,4.2,0,0,0,1.44-.268Zm-3.715.242a2.671,2.671,0,0,1-.443.052c-.669,0-.764-.313-.764-1.007v-2.345h1.077v-.529h-1.077v-1.737h-.624v1.737h-.722v.529h.722v2.441c0,.982.338,1.449,1.284,1.449a3.731,3.731,0,0,0,.547-.052Zm-2.752,0a2.671,2.671,0,0,1-.443.052c-.669,0-.764-.313-.764-1.007v-2.345h1.077v-.529h-1.077v-1.737h-.624v1.737h-.721v.529h.721v2.441c0,.982.339,1.449,1.284,1.449a3.73,3.73,0,0,0,.547-.052Zm-4.392-5.208a.512.512,0,1,0,.511-.513.506.506,0,0,0-.511.513m.806,1.378h-.624v4.341h.624Zm-6.955-1.735a25.388,25.388,0,0,0-.5,2.6l-.234,3.472h.685l.156-3.472c.026-.5.3-2.066.3-2.066l1.346,5.538h.781l1.347-5.538s.269,1.572.3,2.066l.156,3.472h.711l-.234-3.472c-.052-.695-.511-2.6-.511-2.6h-.86l-1.277,5.3-1.276-5.3Z" transform="translate(-217.305 -414.24)"/><path class="b" d="M258.635,421.14a2.669,2.669,0,0,1-.443.052c-.669,0-.764-.313-.764-1.008V417.84H258.5v-.529h-1.077v-1.737H256.8v1.737h-.721v.529h.721v2.441c0,.98.339,1.449,1.284,1.449a3.728,3.728,0,0,0,.547-.052Zm-3.569.511v-3.2c0-.538-.1-1.216-1.12-1.216a3.172,3.172,0,0,0-1.476.539s-.139-.539-1.016-.539a3.155,3.155,0,0,0-1.45.513l-.087-.434h-.476v4.34h.624V418.2a2.93,2.93,0,0,1,1.25-.442c.583,0,.626.32.626.883v3.005h.624v-3.213c0-.123-.009-.234-.009-.234a3.341,3.341,0,0,1,1.259-.442c.583,0,.625.32.625.883v3.005Zm-9.646-1.259a.849.849,0,0,1,.964-.851h.956v1.207a3.044,3.044,0,0,1-1.182.443.711.711,0,0,1-.738-.8m-.391-2.343a6.257,6.257,0,0,1,1.493-.288c.635,0,.817.192.817.782v.5h-1.026a1.369,1.369,0,0,0-1.518,1.4,1.173,1.173,0,0,0,1.249,1.285,3.126,3.126,0,0,0,1.356-.512l.086.435h.478v-3.264c0-.894-.408-1.156-1.311-1.156a5.8,5.8,0,0,0-1.624.262Zm-1.476-.7a5.7,5.7,0,0,0-1.042-.114c-1.137,0-1.492.521-1.492,1.121a1.2,1.2,0,0,0,.841,1.172l.608.207c.4.14.67.331.67.774,0,.33-.13.677-.817.677a5.266,5.266,0,0,1-1.258-.208v.59a5.568,5.568,0,0,0,1.223.164c1.233,0,1.476-.643,1.476-1.249a1.25,1.25,0,0,0-.946-1.259l-.634-.227a.7.7,0,0,1-.556-.677c0-.287.182-.574.834-.574a6.36,6.36,0,0,1,1.094.123Zm-3.351,4.305-.625-1.727a2.827,2.827,0,0,0-.851-1.12l1.328-1.493h-.781l-1.615,2.048v-4.306h-.624v6.6h.624v-1.64l.712-.79a1.909,1.909,0,0,1,.634.894l.512,1.536Zm-4.254-4.419a2.927,2.927,0,0,0-1.579.513l-.087-.434H233.8v4.34h.625V418.2a2.912,2.912,0,0,1,1.518-.4Zm-4.444-1.3a.512.512,0,1,0,.511-.511.507.507,0,0,0-.511.511m.806,1.381h-.624v4.341h.624Zm-1.823,4.341V421.1h-2.318l2.24-3.274v-.511h-2.839v.546H229.7l-2.24,3.283v.511Zm-6.469-2.37c.026-.841.434-1.528,1.2-1.528a.664.664,0,0,1,.729.73c0,.477-.339.8-1.069.8Zm2.475,1.616a4.383,4.383,0,0,1-1.327.287c-.843,0-1.078-.582-1.139-1.39h.851c.809,0,1.693-.233,1.693-1.362,0-.79-.52-1.207-1.353-1.207-1.06,0-1.823.773-1.823,2.336,0,1.345.529,2.16,1.658,2.16a4.2,4.2,0,0,0,1.44-.268Zm-6.165-2.128c.817,0,1.451.234,1.451,1.165,0,.781-.643,1.181-1.451,1.181h-.669v-2.345Zm-.078-2.658c.678,0,1.277.254,1.277,1.078,0,.7-.6,1.051-1.277,1.051h-.59v-2.128Zm.974,2.329a1.379,1.379,0,0,0,.954-1.407c0-1.181-.945-1.459-1.867-1.459H219v6.077h1.4c1.111,0,2.048-.53,2.048-1.7a1.36,1.36,0,0,0-1.223-1.5Z" transform="translate(-219 -415.054)"/></g></g></svg>