<svg xmlns="http://www.w3.org/2000/svg" viewBox="0 0 103.01 97.65"><defs><style>.cls-1{fill:#fff;}</style></defs><g id="Layer_2" data-name="Layer 2"><g id="Layer_1-2" data-name="Layer 1"><path class="cls-1" d="M101.76,9.78l-2.5-.49a3.76,3.76,0,0,0,1.24-1.94,2.14,2.14,0,0,0-.39-1.78,2.53,2.53,0,0,0-1.69-1,3.14,3.14,0,0,0-1.79.12,7.66,7.66,0,0,0-1.14.58c-.47.28-1,.65-1.72,1.1A11.61,11.61,0,0,1,90.62,8a6,6,0,0,1-2.85,0,5.42,5.42,0,0,1-3.39-1.95,4.13,4.13,0,0,1-.78-3.45A4.5,4.5,0,0,1,85,0l2.54.49A4.43,4.43,0,0,0,86.1,2.78a2,2,0,0,0,.38,1.77,2.86,2.86,0,0,0,1.77,1,3.87,3.87,0,0,0,2-.1,6.85,6.85,0,0,0,1-.48,15.3,15.3,0,0,0,1.34-.82c.76-.53,1.43-1,2-1.28a7.25,7.25,0,0,1,1.47-.7,5.63,5.63,0,0,1,2.85-.06,5.2,5.2,0,0,1,3.31,1.83,4.11,4.11,0,0,1,.71,3.4A5.77,5.77,0,0,1,101.76,9.78Z"/><path class="cls-1" d="M95.37,11.1l-.75,2.6L85.4,13l8.07,4.65L92.8,20,76.7,9.85l.7-2.42L83,11.1Z"/><path class="cls-1" d="M92.08,22.35l-.93,2.2-1.48-.62a3,3,0,0,1,.66,3.13,2.42,2.42,0,0,1-2.62,1.53,3,3,0,0,1,.62,3.2,2.82,2.82,0,0,1-1.48,1.64,2.86,2.86,0,0,1-2.23-.16l-9.53-4L76,27l7.86,3.31a4.63,4.63,0,0,0,1.92.51,1,1,0,0,0,.87-.74,1.25,1.25,0,0,0,0-1.29,4.25,4.25,0,0,0-1.69-1l-7.86-3.32,1-2.28,7.87,3.31a7.85,7.85,0,0,0,1.1.39,2.36,2.36,0,0,0,.79.09,1,1,0,0,0,.55-.23,1.45,1.45,0,0,0,.38-.55,1.31,1.31,0,0,0-.06-1.31,3.88,3.88,0,0,0-1.63-1.06L79.2,19.51l.93-2.21Z"/><path class="cls-1" d="M92.45,41.7l-1.19,2.08-8.49-4.87a5,5,0,0,1,.44.85,2.72,2.72,0,0,1,.18.69,2.1,2.1,0,0,1-.32,1.32,2.56,2.56,0,0,1-1,1,2.74,2.74,0,0,1-1.52.26,7.25,7.25,0,0,1-2.05-.52,18.74,18.74,0,0,1-2.65-1.3A13.12,13.12,0,0,1,71.69,38a2.46,2.46,0,0,1-.26-2.86,2.2,2.2,0,0,1,1-1A4.38,4.38,0,0,1,74.24,34l-1.45-.83L74,31.12ZM76.86,39a12,12,0,0,0,3.28,1.48,1.26,1.26,0,0,0,1.49-.55,1.23,1.23,0,0,0-.32-1.52,12.53,12.53,0,0,0-2.87-2,12.52,12.52,0,0,0-3.22-1.45,1.23,1.23,0,0,0-1.46.51A1.27,1.27,0,0,0,74,37,11.27,11.27,0,0,0,76.86,39Z"/><path class="cls-1" d="M69.87,49.41q-5.39-3.79-3-7.12t7.81.52q5.48,3.86,3.14,7.18a3.9,3.9,0,0,1-1.38,1.26,3.13,3.13,0,0,1-1.74.32A6.24,6.24,0,0,1,72.5,51,15.63,15.63,0,0,1,69.87,49.41Zm1.48-2a12.73,12.73,0,0,0,3.1,1.77,1.24,1.24,0,0,0,1.52-.4,1.26,1.26,0,0,0-.12-1.57,12.18,12.18,0,0,0-2.66-2.29,12.28,12.28,0,0,0-3-1.73,1.26,1.26,0,0,0-1.52.42,1.22,1.22,0,0,0,.12,1.54A11.13,11.13,0,0,0,71.35,47.42Z"/><path class="cls-1" d="M79.92,60.64,78.41,62.5,61.91,49.05l1.51-1.86Z"/><path class="cls-1" d="M66.12,63.43l-1.8-1.65a1.51,1.51,0,0,0,1.26-.47c.89-1,.29-2.43-1.82-4.36S60,54.36,59.08,55.33a2.1,2.1,0,0,0-.46,1.22L57,55a4,4,0,0,1,.93-1.76q2.61-2.85,7.45,1.59a10.62,10.62,0,0,1,3.15,4.19,3.17,3.17,0,0,1-.77,3.3A4.1,4.1,0,0,1,66.12,63.43Z"/><path class="cls-1" d="M70.19,71.53l-1.75,1.62L61.77,66A3,3,0,0,1,61,69a2.35,2.35,0,0,1-2.5.62,6.44,6.44,0,0,1-2.12-1.74l-6.27-6.76,1.76-1.63,5.9,6.36A4,4,0,0,0,59.25,67a1.12,1.12,0,0,0,1.16-.33,1.49,1.49,0,0,0,.41-.57,1,1,0,0,0,0-.65,2.4,2.4,0,0,0-.37-.79,8.26,8.26,0,0,0-.8-1L54,57.54l1.76-1.63Z"/><path class="cls-1" d="M50.29,77.41,42.44,67.08l1.9-1.45,1,1.33a4.13,4.13,0,0,1-.07-1.79A2.13,2.13,0,0,1,46.12,64,2.47,2.47,0,0,1,49,63.92a13,13,0,0,1,3.74,3.67,12.17,12.17,0,0,1,2.4,4.4,2.45,2.45,0,0,1-.92,2.69,2.69,2.69,0,0,1-2.91.11L52.2,76Zm.42-8.4a13.17,13.17,0,0,0-2.44-2.64,1.21,1.21,0,0,0-1.88,1.48,12.23,12.23,0,0,0,1.82,3,12.23,12.23,0,0,0,2.39,2.56A1.21,1.21,0,0,0,52.53,72,11.49,11.49,0,0,0,50.71,69Z"/><path class="cls-1" d="M47.48,79.29l-2,1.3-.87-1.36a4.42,4.42,0,0,1-.25,1.86,3,3,0,0,1-1.08,1.26l-1.35-2.1.38-.2a2.3,2.3,0,0,0,1.19-1.56,3.63,3.63,0,0,0-.78-2.21l-4.24-6.61,2-1.29Z"/><path class="cls-1" d="M34.43,86.85,28.34,75.4l2.12-1.12.78,1.47A4.14,4.14,0,0,1,31.46,74a2.11,2.11,0,0,1,1-1,2.46,2.46,0,0,1,2.86.35,13.26,13.26,0,0,1,3.1,4.23,12,12,0,0,1,1.66,4.73,2.47,2.47,0,0,1-1.34,2.51,2.69,2.69,0,0,1-2.89-.37l.68,1.3Zm1.76-8.22a12.45,12.45,0,0,0-2-3,1.26,1.26,0,0,0-1.56-.32c-.47.25-.65.74-.54,1.48A12.45,12.45,0,0,0,33.43,80a12.21,12.21,0,0,0,2,2.91,1.2,1.2,0,0,0,2.12-1.08A11.23,11.23,0,0,0,36.19,78.63Z"/><path class="cls-1" d="M34.44,96,32.23,97l-5.4-13-.6,6.5-2.5,1,.84-6.6-6.21-5.21L21,78.58l5.76,5.07-2.64-6.36,2.21-.92Z"/><path class="cls-1" d="M22.2,95.78l-2.27.75-1.14-3.45-1.24.41L17,91.68l1.23-.41-3.47-10.5L17,80l3.47,10.5,1.25-.41.59,1.81-1.25.41Z"/><path class="cls-1" d="M8.37,87.07l-2.16.54q-.87-4.5,2.52-5.35a4,4,0,0,1,1.83-.07,3.14,3.14,0,0,1,1.49.87,5.93,5.93,0,0,1,1.2,1.83,15.76,15.76,0,0,1,1,2.83,10.48,10.48,0,0,1,.32,5.17,3.2,3.2,0,0,1-2.47,2.33q-3.78,1-5.46-5.7l-.07-.29,5.3-1.35q-1-4-2.62-3.63T8.37,87.07Zm1,3.23a8.56,8.56,0,0,0,1.11,2.49,1.13,1.13,0,0,0,2-.52,8.58,8.58,0,0,0-.21-2.71Z"/><path class="cls-1" d="M5.5,96.49l-2.36.4-.27-1.6a4.57,4.57,0,0,1-1,1.63,3.11,3.11,0,0,1-1.49.73L0,95.18a2.63,2.63,0,0,0,.43,0,2.3,2.3,0,0,0,1.7-1,3.64,3.64,0,0,0,.15-2.33L1,84.1l2.36-.4Z"/></g></g></svg>