<svg xmlns="http://www.w3.org/2000/svg" viewBox="0 0 84.89 77.04"><defs><style>.cls-1{fill:#fff;}</style></defs><g id="Layer_2" data-name="Layer 2"><g id="Layer_1-2" data-name="Layer 1"><path class="cls-1" d="M81.74,77l-2.28-.75,2.71-8.23a3.34,3.34,0,0,0,.2-1.75,1.21,1.21,0,0,0-.89-.83,1.3,1.3,0,0,0-1.22.07A3.06,3.06,0,0,0,79.43,67l-.33,1-2.42,7.37-2.27-.75,2.42-7.37a10.48,10.48,0,0,1,1.52-3.32q1.35-1.44,3.86-.61a3.66,3.66,0,0,1,2.48,1.93,5.6,5.6,0,0,1-.27,3.64Z"/><path class="cls-1" d="M71.11,73.36l-2.19-1,.6-1.36a3,3,0,0,1-3.11.48,2.35,2.35,0,0,1-1.57-2,6.63,6.63,0,0,1,.76-2.64l3.73-8.44,2.19,1L68,67.3a3.94,3.94,0,0,0-.46,1.83,1.12,1.12,0,0,0,.76.94,1.54,1.54,0,0,0,.69.15,1.07,1.07,0,0,0,.61-.24,2.76,2.76,0,0,0,.57-.66,8.61,8.61,0,0,0,.59-1.12l3.39-7.67,2.18,1Z"/><path class="cls-1" d="M59.14,71.77,57,70.64l1.72-3.2-1.15-.62.9-1.68,1.15.62L64.88,56,67,57.14l-5.23,9.75,1.16.62L62,69.19l-1.16-.62Z"/><path class="cls-1" d="M56,55.76l-1.89-1.19q2.67-3.74,5.62-1.86A3.92,3.92,0,0,1,61,54a3.17,3.17,0,0,1,.4,1.68,6.26,6.26,0,0,1-.5,2.13,16.28,16.28,0,0,1-1.39,2.64A10.52,10.52,0,0,1,56,64.24a3.18,3.18,0,0,1-3.39-.19Q49.32,62,53,56.17l.16-.26,4.63,2.92c1.48-2.34,1.76-3.81.82-4.4S56.87,54.34,56,55.76Zm-1.69,2.92a8.45,8.45,0,0,0-1,2.51,1.1,1.1,0,0,0,.51,1.17,1.08,1.08,0,0,0,1.27,0,9,9,0,0,0,1.82-2Z"/><path class="cls-1" d="M47.17,60.16l-1.92-1.43,1-1.29a4.61,4.61,0,0,1-1.83.43,3.12,3.12,0,0,1-1.56-.57l1.49-2a2.35,2.35,0,0,0,.32.28,2.25,2.25,0,0,0,1.88.57,3.67,3.67,0,0,0,1.79-1.51L53,48.33l1.92,1.42Z"/><path class="cls-1" d="M53.18,41.83l-12,13.76L39.34,54l1.1-1.26a4.19,4.19,0,0,1-1.74.44,2.2,2.2,0,0,1-1.31-.6,2.47,2.47,0,0,1-.68-2.8,13.65,13.65,0,0,1,2.86-4.4,12.05,12.05,0,0,1,3.85-3.24,2.55,2.55,0,0,1,2.85.43A2.23,2.23,0,0,1,47,43.72a2.53,2.53,0,0,1,0,.7,6,6,0,0,1-.15.93l4.46-5.09Zm-11.8,5.26A11.91,11.91,0,0,0,39.29,50a1.24,1.24,0,0,0,.24,1.56,1.26,1.26,0,0,0,1.58,0,11.62,11.62,0,0,0,2.56-2.39,11.78,11.78,0,0,0,2-2.85,1.26,1.26,0,0,0-.2-1.56,1.28,1.28,0,0,0-1.58-.05A11.29,11.29,0,0,0,41.38,47.09Z"/><path class="cls-1" d="M33,48.26l-1.64-1.74,6.31-6a3.38,3.38,0,0,0,1-1.44A1.19,1.19,0,0,0,38.3,38a1.29,1.29,0,0,0-1.11-.52,3,3,0,0,0-1.43.89l-.75.72-5.65,5.31-1.64-1.74,5.65-5.32a10.82,10.82,0,0,1,2.91-2.2q1.88-.6,3.69,1.32a3.66,3.66,0,0,1,1.26,2.87,5.51,5.51,0,0,1-2,3.07Z"/><path class="cls-1" d="M25.44,40,24,38.08l1.18-.91a3,3,0,0,1-3-1.06,2.36,2.36,0,0,1-.39-2.54,6.39,6.39,0,0,1,1.92-2L31,26l1.47,1.89-6.86,5.32a3.88,3.88,0,0,0-1.28,1.39,1.13,1.13,0,0,0,.22,1.18,1.55,1.55,0,0,0,.54.47,1.08,1.08,0,0,0,.65.07,2.46,2.46,0,0,0,.81-.3,8.47,8.47,0,0,0,1.05-.71l6.64-5.13L35.7,32Z"/><path class="cls-1" d="M11.69,35.44l-1.28-2L22.34,25.9l-6.51.5-1.44-2.29L21,23.83l4.09-7,1.49,2.38-4,6.53,5.83-3.67,1.28,2Z"/><path class="cls-1" d="M9.88,23.34,8.76,21.23,12,19.53l-.61-1.16L13,17.48l.61,1.15,9.78-5.19,1.12,2.12-9.77,5.19.61,1.16-1.68.89-.62-1.16Z"/><path class="cls-1" d="M5.93,9.07l.87,2.32-.48.18a9.81,9.81,0,0,1-2.15.58A3.93,3.93,0,0,1,2.5,12a2.67,2.67,0,0,1-1.25-.81A4.74,4.74,0,0,1,.37,9.7a3.77,3.77,0,0,1,0-3.33A6,6,0,0,1,3.63,4.11,7.9,7.9,0,0,1,6.7,3.43a3,3,0,0,1,2,1.07,3.13,3.13,0,0,1,.69-2.26A7,7,0,0,1,12.07.67,6.9,6.9,0,0,1,16.48.19,4.12,4.12,0,0,1,19,2.92q1.41,3.72-2.87,5.34l-.19.07-.13.05-.17,0-.86-2.29L15.11,6l.25-.09a2.58,2.58,0,0,0,1.32-1,1.36,1.36,0,0,0,.13-1.31A1.55,1.55,0,0,0,16.34,3a1.38,1.38,0,0,0-.79-.31,3.48,3.48,0,0,0-1.16.09,12.11,12.11,0,0,0-1.59.5,4.62,4.62,0,0,0-2.2,1.39,2,2,0,0,0-.1,1.94l.13.27a3.57,3.57,0,0,0,.17.34L8.69,8l-.13-.34c-.36-.94-.8-1.51-1.33-1.69a4.06,4.06,0,0,0-2.5.37C2.85,7,2.09,7.84,2.45,8.79s1.33,1.1,2.93.5Z"/></g></g></svg>