<svg xmlns="http://www.w3.org/2000/svg" viewBox="0 0 82 81.2"><defs><style>.cls-1{fill:#fff;}</style></defs><g id="Layer_2" data-name="Layer 2"><g id="Layer_1-2" data-name="Layer 1"><path class="cls-1" d="M0,77.39l.89-2.22,8,3.21a3.44,3.44,0,0,0,1.73.3,1.24,1.24,0,0,0,.89-.84,1.3,1.3,0,0,0,0-1.22,3.11,3.11,0,0,0-1.42-.92l-1-.38L2,72.44l.89-2.22,7.2,2.87a10.68,10.68,0,0,1,3.23,1.72q1.35,1.44.36,3.9a3.61,3.61,0,0,1-2.07,2.35A5.62,5.62,0,0,1,8,80.57Z"/><path class="cls-1" d="M4.33,67l1.1-2.13,1.32.69a3,3,0,0,1-.29-3.14A2.35,2.35,0,0,1,8.6,61a6.47,6.47,0,0,1,2.59.91l8.19,4.24-1.1,2.13-7.71-4a4.17,4.17,0,0,0-1.8-.58,1.15,1.15,0,0,0-1,.71,1.56,1.56,0,0,0-.19.68,1.14,1.14,0,0,0,.2.62,3,3,0,0,0,.62.61A8.24,8.24,0,0,0,9.5,67L17,70.85,15.84,73Z"/><path class="cls-1" d="M6.65,55.16l1.26-2L11,55l.68-1.11,1.62,1L12.62,56,22,61.85l-1.26,2-9.41-5.82-.69,1.12-1.62-1,.69-1.12Z"/><path class="cls-1" d="M22.82,53l1.31-1.81q3.56,2.88,1.51,5.72a3.69,3.69,0,0,1-1.36,1.22,3,3,0,0,1-1.69.3,6.09,6.09,0,0,1-2.1-.62,16.15,16.15,0,0,1-2.56-1.56,10.57,10.57,0,0,1-3.57-3.75,3.19,3.19,0,0,1,.39-3.37Q17,45.95,22.6,50l.25.18-3.2,4.44c2.25,1.62,3.69,2,4.34,1.09S24.19,54,22.82,53ZM20,51.11a8.65,8.65,0,0,0-2.45-1.19,1.09,1.09,0,0,0-1.19.43,1.08,1.08,0,0,0,0,1.28,8.79,8.79,0,0,0,1.9,1.94Z"/><path class="cls-1" d="M19,43.93l1.55-1.83,1.23,1a4.75,4.75,0,0,1-.32-1.86,3.1,3.1,0,0,1,.67-1.52L24,41.37a2.8,2.8,0,0,0-.3.3A2.26,2.26,0,0,0,23,43.51a3.64,3.64,0,0,0,1.39,1.88l6,5.07-1.55,1.83Z"/><path class="cls-1" d="M36.9,51.05l-13-12.86,1.68-1.7,1.19,1.18a3.94,3.94,0,0,1-.32-1.77,2.12,2.12,0,0,1,.67-1.27,2.45,2.45,0,0,1,2.83-.5,13.22,13.22,0,0,1,4.22,3.12,11.74,11.74,0,0,1,3,4,2.53,2.53,0,0,1-.6,2.81,2.29,2.29,0,0,1-1.18.68,2.8,2.8,0,0,1-.71,0,5.3,5.3,0,0,1-.92-.2l4.81,4.76ZM32.37,39a11.79,11.79,0,0,0-2.79-2.27,1.24,1.24,0,0,0-1.58.15,1.27,1.27,0,0,0-.08,1.58,11.9,11.9,0,0,0,2.23,2.7,11.8,11.8,0,0,0,2.72,2.2,1.21,1.21,0,0,0,1.71-1.68A11.23,11.23,0,0,0,32.37,39Z"/><path class="cls-1" d="M31.72,30.53,33.56,29l5.55,6.66a3.33,3.33,0,0,0,1.37,1.09,1.22,1.22,0,0,0,1.18-.31,1.33,1.33,0,0,0,.59-1.08,3.14,3.14,0,0,0-.81-1.48l-.66-.8-5-6,1.84-1.53,5,6a10.42,10.42,0,0,1,2,3.05q.49,1.9-1.54,3.6a3.69,3.69,0,0,1-2.94,1.08,5.57,5.57,0,0,1-2.95-2.17Z"/><path class="cls-1" d="M40.46,23.48l2-1.35.83,1.24a3,3,0,0,1,1.24-2.9,2.36,2.36,0,0,1,2.57-.25,6.57,6.57,0,0,1,1.83,2l5.19,7.63-2,1.35-4.89-7.17a4,4,0,0,0-1.3-1.37,1.18,1.18,0,0,0-1.21.15,1.67,1.67,0,0,0-.49.51,1.13,1.13,0,0,0-.12.64,2.82,2.82,0,0,0,.26.84A9.37,9.37,0,0,0,45,25.93l4.71,6.93-2,1.35Z"/><path class="cls-1" d="M45.83,10l2.1-1.15,6.76,12.37-.1-6.53L57,13.42l-.13,6.66,6.74,4.51-2.46,1.34-6.28-4.42,3.31,6-2.1,1.15Z"/><path class="cls-1" d="M58,9l2.18-1,1.51,3.31,1.18-.54.79,1.74L62.48,13,67.06,23.1l-2.18,1L60.31,14l-1.2.54-.79-1.73,1.2-.55Z"/><path class="cls-1" d="M72.73,7l-2.44.76L70,7a7.81,7.81,0,0,1-.4-4.54A3.77,3.77,0,0,1,72.35.27Q76.43-1,77.82,3.54q.95,3.06-.34,9.75l-.62,3.22a1.54,1.54,0,0,1,0,.16c0,.09,0,.23-.06.4l4.58-1.41L82,17.79l-8.12,2.5c.05-.34.14-1,.3-2.07s.36-2.43.63-4.19c.22-1.54.4-2.84.53-3.9s.22-1.93.25-2.6a9.83,9.83,0,0,0-.31-3.3C74.81,2.7,74,2.1,73,2.43s-1.24,1.42-.65,3.32l.33,1Z"/></g></g></svg>