<svg xmlns="http://www.w3.org/2000/svg" viewBox="0 0 81.06 81.6"><defs><style>.cls-1{fill:#fff;}</style></defs><g id="Layer_2" data-name="Layer 2"><g id="Layer_1-2" data-name="Layer 1"><path class="cls-1" d="M81.06,3.8,80.17,6l-8-3.21a3.47,3.47,0,0,0-1.73-.31,1.22,1.22,0,0,0-.89.84,1.32,1.32,0,0,0,0,1.23,3,3,0,0,0,1.42.91l1,.39,7.2,2.87L78.2,11,71,8.1a10.5,10.5,0,0,1-3.22-1.72c-.9-1-1-2.25-.36-3.89A3.66,3.66,0,0,1,69.48.13a5.64,5.64,0,0,1,3.62.5Z"/><path class="cls-1" d="M76.73,14.19l-1.1,2.12-1.32-.68a3,3,0,0,1,.29,3.14,2.38,2.38,0,0,1-2.14,1.43,6.53,6.53,0,0,1-2.59-.92L61.68,15l1.1-2.12,7.71,4a3.91,3.91,0,0,0,1.8.58,1.14,1.14,0,0,0,1-.7,1.56,1.56,0,0,0,.19-.68,1.14,1.14,0,0,0-.2-.62,2.63,2.63,0,0,0-.63-.61,8,8,0,0,0-1.08-.66l-7.45-3.85,1.1-2.13Z"/><path class="cls-1" d="M74.41,26l-1.26,2-3.09-1.91-.69,1.11-1.62-1,.69-1.11L59,19.34l1.26-2,9.41,5.81L70.39,22,72,23l-.69,1.12Z"/><path class="cls-1" d="M58.23,28.22,56.93,30c-2.37-1.93-2.88-3.83-1.51-5.73a3.76,3.76,0,0,1,1.35-1.22,3.2,3.2,0,0,1,1.7-.3,6.49,6.49,0,0,1,2.1.63A16.79,16.79,0,0,1,63.13,25a10.46,10.46,0,0,1,3.56,3.76,3.2,3.2,0,0,1-.39,3.37q-2.28,3.15-7.85-.86l-.24-.17,3.2-4.44Q58,24.17,57.07,25.53C56.48,26.34,56.87,27.24,58.23,28.22ZM61,30.09a8.81,8.81,0,0,0,2.45,1.19,1.14,1.14,0,0,0,1.23-1.71,8.46,8.46,0,0,0-1.91-1.94Z"/><path class="cls-1" d="M62.08,37.27,60.54,39.1l-1.23-1a4.49,4.49,0,0,1,.31,1.86A3,3,0,0,1,59,41.44l-1.91-1.62a4.22,4.22,0,0,0,.3-.3A2.26,2.26,0,0,0,58,37.69a3.65,3.65,0,0,0-1.4-1.89l-6-5.06,1.54-1.83Z"/><path class="cls-1" d="M44.16,30.14,57.15,43l-1.68,1.7-1.2-1.18a4.12,4.12,0,0,1,.33,1.77,2.11,2.11,0,0,1-.68,1.27,2.45,2.45,0,0,1-2.83.5A13.64,13.64,0,0,1,46.88,44a11.92,11.92,0,0,1-3-4.05,2.53,2.53,0,0,1,.6-2.81,2.19,2.19,0,0,1,1.18-.68,2.1,2.1,0,0,1,.71,0,5.51,5.51,0,0,1,.92.2l-4.81-4.76Zm4.53,12.1a12.19,12.19,0,0,0,2.79,2.28,1.21,1.21,0,0,0,1.66-1.73,12,12,0,0,0-2.23-2.7,11.73,11.73,0,0,0-2.72-2.2,1.21,1.21,0,0,0-1.71,1.67A11,11,0,0,0,48.69,42.24Z"/><path class="cls-1" d="M49.34,50.67,47.5,52.2,42,45.54a3.54,3.54,0,0,0-1.37-1.1,1.22,1.22,0,0,0-1.18.32,1.31,1.31,0,0,0-.59,1.08,2.94,2.94,0,0,0,.81,1.47l.66.8,5,6L43.4,55.61l-5-6a10.74,10.74,0,0,1-2-3Q35.94,44.69,38,43a3.64,3.64,0,0,1,2.95-1.08,5.58,5.58,0,0,1,2.94,2.16Z"/><path class="cls-1" d="M40.6,57.72l-2,1.34-.83-1.23a3.06,3.06,0,0,1-1.24,2.9A2.38,2.38,0,0,1,34,61a6.44,6.44,0,0,1-1.84-2L27,51.31l2-1.35,4.88,7.17a4,4,0,0,0,1.31,1.36,1.12,1.12,0,0,0,1.2-.15,1.49,1.49,0,0,0,.5-.5,1.15,1.15,0,0,0,.12-.65,2.69,2.69,0,0,0-.26-.83,8.6,8.6,0,0,0-.64-1.09l-4.72-6.94,2-1.34Z"/><path class="cls-1" d="M35.23,71.17l-2.1,1.14L26.36,60l.1,6.53-2.37,1.3.13-6.66-6.74-4.51,2.46-1.35,6.28,4.42-3.31-6L25,52.49Z"/><path class="cls-1" d="M23,72.22l-2.18,1-1.5-3.31-1.19.54-.78-1.73,1.18-.54L14,58.1l2.17-1,4.58,10.07,1.2-.54.79,1.73-1.2.54Z"/><path class="cls-1" d="M8,80.89,5.7,81.6,2.15,70.08,1,70.45.38,68.54l1.18-.36L0,63.11l2.31-.71,1.56,5.07,5.07-1.56L9.59,68ZM4.46,69.37l2.39,7.76.72-8.72Z"/></g></g></svg>