<svg xmlns="http://www.w3.org/2000/svg" viewBox="0 0 81.08 79.37"><defs><style>.cls-1{fill:#fff;}</style></defs><g id="Layer_2" data-name="Layer 2"><g id="Layer_1-2" data-name="Layer 1"><path class="cls-1" d="M3.8,0,6,.89l-3.21,8a3.47,3.47,0,0,0-.31,1.73,1.24,1.24,0,0,0,.84.89,1.32,1.32,0,0,0,1.23,0,3.11,3.11,0,0,0,.91-1.42l.39-1L8.75,2,11,2.86,8.1,10.06a10.46,10.46,0,0,1-1.72,3.23c-1,.9-2.25,1-3.89.36A3.66,3.66,0,0,1,.13,11.58,5.64,5.64,0,0,1,.63,8Z"/><path class="cls-1" d="M14.19,4.33l2.12,1.1-.68,1.32a3,3,0,0,1,3.14-.29A2.37,2.37,0,0,1,20.2,8.6a6.53,6.53,0,0,1-.92,2.59L15,19.38l-2.12-1.1,4-7.71a3.91,3.91,0,0,0,.58-1.8,1.14,1.14,0,0,0-.7-1,1.56,1.56,0,0,0-.68-.19,1.14,1.14,0,0,0-.62.2,2.77,2.77,0,0,0-.61.62A8.18,8.18,0,0,0,14.2,9.5L10.35,17,8.22,15.84Z"/><path class="cls-1" d="M26,6.65l2,1.26L26.16,11l1.11.68-1,1.62-1.11-.68L19.34,22l-2-1.26,5.81-9.41L22,10.67l1-1.62,1.12.69Z"/><path class="cls-1" d="M28.22,22.82,30,24.13C28.1,26.5,26.2,27,24.3,25.64a3.78,3.78,0,0,1-1.22-1.36,3.14,3.14,0,0,1-.3-1.69,6.35,6.35,0,0,1,.63-2.1A16.79,16.79,0,0,1,25,17.93a10.5,10.5,0,0,1,3.76-3.57,3.2,3.2,0,0,1,3.37.39q3.15,2.28-.86,7.85l-.17.25-4.44-3.2c-1.63,2.25-2,3.69-1.09,4.34S27.24,24.19,28.22,22.82ZM30.09,20a9,9,0,0,0,1.19-2.45,1.1,1.1,0,0,0-.44-1.19,1.08,1.08,0,0,0-1.27,0,8.57,8.57,0,0,0-1.94,1.9Z"/><path class="cls-1" d="M37.27,19l1.83,1.55-1,1.23a4.7,4.7,0,0,1,1.86-.32,3.1,3.1,0,0,1,1.52.67L39.82,24a2.11,2.11,0,0,0-.3-.3A2.26,2.26,0,0,0,37.69,23a3.62,3.62,0,0,0-1.89,1.39l-5.06,6-1.83-1.55Z"/><path class="cls-1" d="M30.14,36.9,43,23.91l1.7,1.68-1.18,1.19a4,4,0,0,1,1.77-.32,2.15,2.15,0,0,1,1.27.67,2.46,2.46,0,0,1,.5,2.84,13.54,13.54,0,0,1-3.13,4.21,11.81,11.81,0,0,1-4,3,2.53,2.53,0,0,1-2.81-.6,2.22,2.22,0,0,1-.68-1.18,2.11,2.11,0,0,1,0-.71,5.3,5.3,0,0,1,.2-.92l-4.77,4.81Zm12.1-4.53a12.19,12.19,0,0,0,2.28-2.79,1.21,1.21,0,0,0-1.73-1.66,11.48,11.48,0,0,0-2.7,2.23,11.53,11.53,0,0,0-2.2,2.72,1.21,1.21,0,0,0,1.67,1.71A11,11,0,0,0,42.24,32.37Z"/><path class="cls-1" d="M50.67,31.72l1.53,1.84-6.66,5.55a3.47,3.47,0,0,0-1.1,1.37,1.23,1.23,0,0,0,.32,1.18,1.33,1.33,0,0,0,1.08.59,3.12,3.12,0,0,0,1.47-.81l.8-.66,6-5,1.53,1.83-6,5a10.42,10.42,0,0,1-3,2q-1.91.49-3.6-1.54a3.61,3.61,0,0,1-1.08-2.94,5.6,5.6,0,0,1,2.16-2.95Z"/><path class="cls-1" d="M57.72,40.46l1.34,2-1.23.84a3,3,0,0,1,2.9,1.24A2.38,2.38,0,0,1,61,47.08a6.33,6.33,0,0,1-2,1.83L51.31,54.1l-1.35-2,7.17-4.89a4,4,0,0,0,1.36-1.3,1.14,1.14,0,0,0-.15-1.21,1.54,1.54,0,0,0-.5-.49,1.15,1.15,0,0,0-.65-.12,2.69,2.69,0,0,0-.83.26,8.6,8.6,0,0,0-1.09.64l-6.94,4.71-1.34-2Z"/><path class="cls-1" d="M71.17,45.83l1.14,2.1L60,54.7l6.53-.11L67.78,57l-6.66-.13-4.51,6.74-1.35-2.46,4.42-6.28-6,3.31-1.15-2.1Z"/><path class="cls-1" d="M72.22,58l1,2.18L69.9,61.7l.54,1.18-1.73.79-.54-1.19L58.1,67.06l-1-2.18,10.07-4.57-.54-1.2,1.73-.79.54,1.2Z"/><path class="cls-1" d="M79.78,69.46l1.3,4.21-18.49,5.7L61.86,77l16.37-5-.57-1.83Z"/></g></g></svg>