<svg xmlns="http://www.w3.org/2000/svg" width="123.363" height="135.199" viewBox="0 0 123.363 135.199"><defs><style>.a{fill:#030507;}.b{fill:#fff;}.c{fill:#fdfdfd;}.d{fill:#121313;}</style></defs><path class="a" d="M110.2,209.127l61.554,11.011v57.84L110.064,279.7l-57.4-5.395v-28.92l13.114-4.448,8.1-.239,18.672-5.572V217.352Z" transform="translate(-52.242 -144.503)"/><path class="b" d="M164.054,229.866l14.984-7.008L239.14,233l0,2.4-60.11-10.139-14.972,7.007Z" transform="translate(-121.068 -152.987)"/><path class="b" d="M164.069,242.337l14.97-6.482,60.11,9.475,0,2.4-60.119-9.472-14.959,6.481Z" transform="translate(-121.077 -161.019)"/><path class="b" d="M164.054,254.833l14.967-5.98,60.124,8.824,0,2.4-60.132-8.821-14.956,5.979Z" transform="translate(-121.068 -169.05)"/><path class="b" d="M164.054,267.33l14.967-5.457,60.119,8.157,0,2.4L179.01,264.28l-14.956,5.456Z" transform="translate(-121.068 -177.094)"/><path class="b" d="M164.054,279.845l14.967-4.924,60.113,7.462,0,2.4-60.121-7.459-14.956,4.923Z" transform="translate(-121.068 -185.157)"/><path class="b" d="M164.047,292.383l14.97-4.356,60.124,6.753,0,2.4-60.132-6.75-14.959,4.355Z" transform="translate(-121.064 -193.255)"/><path class="b" d="M164.054,304.916l14.967-3.784,60.1,6.031,0,2.4-60.11-6.028-14.956,3.783Z" transform="translate(-121.068 -201.352)"/><path class="b" d="M164.054,317.442l14.967-3.247,60.1,5.317,0,2.4L179.01,316.6l-14.956,3.246Z" transform="translate(-121.068 -209.424)"/><path class="b" d="M164.054,330.007l14.967-2.663,60.121,4.59,0,2.4-60.13-4.588-14.956,2.662Z" transform="translate(-121.068 -217.549)"/><path class="c" d="M94.353,286.026v1.429L55.588,298.9v-1.459Z" transform="translate(-54.047 -192.018)"/><path class="c" d="M94.358,296.661v1.429L55.588,308.3v-1.459Z" transform="translate(-54.047 -198.59)"/><path class="c" d="M94.34,307.294v1.429L55.559,317.7v-1.459Z" transform="translate(-54.03 -205.16)"/><path class="c" d="M94.358,317.991v1.429l-38.77,7.724v-1.459Z" transform="translate(-54.047 -211.77)"/><path class="c" d="M94.358,328.645v1.429l-38.77,6.481V335.1Z" transform="translate(-54.047 -218.353)"/><path class="c" d="M94.359,339.292v1.429l-38.77,5.223v-1.459Z" transform="translate(-54.047 -224.932)"/><g transform="translate(0 0)"><g transform="translate(56.665 33.188)"><path class="d" d="M208.227,151.153l-3.277-11.137v10.5l-5.1-.991v-22.67l5.1.991v10.4l3.121-9.8,5.2,1.011L209.58,139.6l4.161,12.625Z" transform="translate(-199.854 -126.855)"/><path class="d" d="M248.682,158.278c-.911.465-2.158.64-4.447.2-2.081-.4-4.941-1.345-6.007-4.09a7.6,7.6,0,0,1-.468-3.237V134.223l5.148,1v16.665c0,.514,0,1.831,1.327,2.088s1.3-1.032,1.3-1.578V135.735l5.174,1.006v16.537C250.709,155.622,250.58,157.3,248.682,158.278Z" transform="translate(-223.276 -131.408)"/><path class="d" d="M284.2,165.92l-3.537-13.981v13.294l-4.317-.839v-22.67l4.758.925,3.667,14.3-.026-13.588,4.317.839v22.67Z" transform="translate(-247.117 -136.042)"/><path class="d" d="M319.67,154.439V159.1l4.369.849v4.335l-4.369-.849v9.377l-5.149-1v-22.67h0l5.149,5.294Z" transform="translate(-270.706 -140.628)"/><path d="M314.521,149.145l1.547,4.472,12.261,2.547V174.5L333.5,175.5V157.169l3.9.758v-4.335Z" transform="translate(-270.707 -140.628)"/></g><g transform="translate(0 34.022)"><path class="d" d="M58.418,139.616c-.628,1-2.118.96-3.231.744a8.36,8.36,0,0,1-1.453-.406,3.244,3.244,0,0,1-1.9-1.57,4.288,4.288,0,0,1-.278-1.981l.007-.415,2.867.557-.013.723a.889.889,0,0,0,.727,1.02.642.642,0,0,0,.388-.033c.225-.1.3-.28.311-.741.01-.554-.166-.742-.855-1.4l-1.818-1.726a3.236,3.236,0,0,1-1.321-2.847,3.1,3.1,0,0,1,.279-1.456c.6-1.178,2.076-1.154,3.28-.92a4.831,4.831,0,0,1,2.614,1.325,2.872,2.872,0,0,1,.536.86,3.856,3.856,0,0,1,.2,1.564l-.009.522L56,132.9l.013-.722a.8.8,0,0,0-.039-.362.768.768,0,0,0-.63-.57c-.594-.116-.663.38-.666.58a.77.77,0,0,0,.112.438,6.324,6.324,0,0,0,.98,1.023l1.421,1.4c.249.249.5.513.731.775a3.364,3.364,0,0,1,.864,2.557A3.059,3.059,0,0,1,58.418,139.616Z" transform="translate(-51.556 -129.038)"/><path class="d" d="M76.36,144.4l-.284-2.506-1.8-.349-.4,2.374-2.941-.572,2.625-10.374,3.535.687,2.187,11.309Zm-1.065-8.963-.715,4.224,1.262.245Z" transform="translate(-63.533 -131.468)"/><path class="d" d="M102.64,148.766l.13-7.437-1.749,7.122-1.886-.366-1.506-7.616-.128,7.3-2.466-.479.189-10.847,3.729.725,1.211,7.419,1.432-6.905,3.7.719-.189,10.847Z" transform="translate(-78.422 -133.612)"/><path class="d" d="M132.18,154.508l.13-7.436-1.748,7.122-1.886-.366-1.506-7.615-.127,7.3-2.466-.479.189-10.847,3.729.725,1.211,7.419,1.432-6.905,3.7.719-.189,10.847Z" transform="translate(-96.675 -137.16)"/><path class="d" d="M154.038,158.757l.189-10.847,5.733,1.114-.037,2.105-2.777-.54-.039,2.2,2.57.5-.036,2.074-2.57-.5-.041,2.381,2.777.54-.036,2.089Z" transform="translate(-114.879 -140.699)"/><path class="d" d="M175.975,163.022l-1.909-6.753-.111,6.36-2.466-.479.189-10.847,2.718.528,1.98,6.906.1-6.5,2.466.479-.189,10.847Z" transform="translate(-125.663 -142.795)"/></g><g transform="translate(29.948)"><g transform="translate(0 6.091)"><path class="d" d="M129.94,84.413l-.007-4.352,7.146-17.3-5.735,2.2L131.3,60.6l12.007-4.656-.162,4.657-7.029,16.914,6.526-2.505-.16,4.591Z" transform="translate(-129.933 -55.941)"/></g><g transform="translate(14.944)"><path class="d" d="M180.355,64a12.469,12.469,0,0,1-4.87,2.982c-2.26.868-4.968,1.546-6.033-.709a5.975,5.975,0,0,1-.392-3.154l.629-18.007,5.209-2.042L174.28,60.8c-.019.547-.068,1.948,1.372,1.4a2.436,2.436,0,0,0,1.481-2.49l.619-17.734L182.893,40l-.134,17.413C182.671,59.908,182.468,61.773,180.355,64Z" transform="translate(-169.044 -40)"/></g></g></g></svg>